<svg width="24" height="24" viewBox="0 0 24 24" fill="none" xmlns="http://www.w3.org/2000/svg">
<g transform="translate(3 2.745)">
<path d="M16.8672 15.7495C16.9724 15.7421 17.2532 15.7346 17.5342 15.9194C17.8888 16.1528 17.9999 16.5196 18 16.7876V17.1352L17.9961 17.1421C17.9548 17.6564 17.5249 18.061 17 18.061H16.2666C16.0562 18.1096 15.8425 18.1324 15.6338 18.1343L15.2588 18.1382L14.8838 18.1411C14.5343 18.1442 14.1889 18.0961 13.8506 17.9995L13.1006 17.7847C12.9811 17.7505 12.8719 17.7441 12.7646 17.7593L12.3896 17.813L12.0146 17.8657C11.8188 17.8934 11.6203 17.9376 11.4189 17.9995L10.6689 18.23C10.3001 18.3434 9.9199 18.3868 9.53516 18.352L8.78516 18.2837C8.53847 18.2614 8.2916 18.241 8.04492 18.2212L7.29492 18.1606C7.03942 18.1401 6.7838 18.1172 6.52832 18.0923L6.15332 18.0552L5.77832 18.019C5.70155 18.0115 5.61333 18.0206 5.50195 18.0659L5.12695 18.2183L4.75195 18.3716C4.20406 18.5946 3.63831 18.5404 3.1416 18.2661L2.40918 17.8618C2.40133 17.8602 2.38571 17.8573 2.36133 17.8559C2.29273 17.8521 2.17729 17.8579 2.00391 17.894L1.30371 18.0395L1.20312 18.061H1C0.447749 18.061 5.46289e-05 17.6133 0 17.061C0 16.5107 0.444552 16.0642 0.994141 16.061L1.5957 15.936C2.15157 15.8203 2.79833 15.7918 3.3584 16.1011L3.7334 16.3081L4.06543 16.4907L4.37305 16.3667L4.74805 16.2134C5.13651 16.0552 5.54865 15.9876 5.97168 16.0288L6.72168 16.1011C6.96602 16.1249 7.21076 16.1468 7.45508 16.1665L8.20508 16.227C8.45831 16.2474 8.71162 16.2696 8.96484 16.2925L9.33984 16.3257L9.71484 16.3599C9.83002 16.3703 9.94995 16.3592 10.0811 16.3188L10.4561 16.2036L10.8311 16.0874C11.1296 15.9956 11.4314 15.9282 11.7354 15.8852L12.1104 15.8325L12.4854 15.7788C12.878 15.7234 13.269 15.7532 13.6494 15.8618L14.0244 15.9692L14.3994 16.0757C14.5609 16.1218 14.7159 16.1425 14.8662 16.1411L15.2412 16.1382L15.6162 16.1343C15.7792 16.1328 15.8448 16.1079 15.8516 16.105L16.3516 15.8882C16.4459 15.8472 16.6428 15.7653 16.8672 15.7495ZM12.0518 0.00731705C12.2904 -0.0159156 12.5164 0.0175362 12.7217 0.0883717L12.9199 0.170403L13.2559 0.335442L13.5928 0.500481C13.9778 0.68928 14.294 0.96904 14.5312 1.32372L14.9551 1.95654C15.0763 2.1378 15.2165 2.3259 15.376 2.52001L15.6426 2.84521L15.9102 3.1704C16.0934 3.39343 16.294 3.74843 16.2549 4.20068C16.2151 4.65896 15.9504 4.97612 15.7207 5.16454L15.4023 5.42529L15.085 5.68603C14.8054 5.91533 14.4931 6.09005 14.1533 6.20751C14.1382 6.24405 14.1209 6.27746 14.1035 6.30907L14.1172 6.35888L13.707 6.76806L13.6367 6.83837L13.2471 7.22704L13.1035 7.54931C12.9565 7.87751 12.7672 8.17863 12.5332 8.44677L12.0391 9.01318C11.7936 9.29454 11.503 9.52535 11.1748 9.70458L10.832 9.89208L10.4893 10.0786C10.4201 10.1164 10.3751 10.1618 10.3379 10.2261L9.94824 10.897C9.78939 11.1712 9.60898 11.4284 9.40625 11.6665L9.16211 11.9526L8.91895 12.2397C8.72765 12.4644 8.52198 12.6754 8.30273 12.8726L7.74414 13.3745C7.32659 13.7499 6.80886 13.8879 6.28711 13.8374L5.46094 13.7573C5.33207 13.7449 5.22317 13.7611 5.12109 13.7993L4.37109 14.0806C4.12604 14.1724 3.81164 14.2334 3.4707 14.1577C3.11154 14.0779 2.83487 13.8703 2.64453 13.6206L2.43848 13.3511L2.2334 13.0815C1.86344 12.5961 1.83053 12.0272 1.99316 11.5239L2.23535 10.7739C2.27527 10.6504 2.29562 10.5069 2.28613 10.3354L2.26172 9.90966L2.23828 9.48388C2.22014 9.15592 2.29372 8.75252 2.59766 8.41943C2.88723 8.10219 3.2609 7.98796 3.55176 7.9497L4.02051 7.88818L4.30371 7.85009L4.3584 7.65771L4.47559 7.24365C4.6053 6.78275 4.86145 6.36866 5.26953 6.06982L5.88184 5.62157C6.07382 5.48104 6.2622 5.33603 6.44629 5.18798L7.03418 4.71532C7.25726 4.53592 7.4905 4.36765 7.7334 4.21044L8.05566 4.00243L8.37695 3.79345C8.36042 3.80416 8.39087 3.7882 8.45898 3.70068C8.52449 3.61643 8.60715 3.48977 8.70312 3.30907L9.0459 2.66259L9.11621 2.53075L9.29297 2.354L9.5 2.14599L9.63477 1.92822C9.9128 1.47594 10.233 1.04915 10.6094 0.777825L11.2422 0.320794L11.418 0.208489C11.6027 0.10493 11.8151 0.0303913 12.0518 0.00731705ZM9.96484 5.01415C9.81634 5.19148 9.65203 5.35135 9.46387 5.47314L9.1416 5.68115L8.82031 5.88915C8.634 6.00974 8.45588 6.13818 8.28711 6.27392L7.69922 6.74657C7.49146 6.91366 7.27968 7.07659 7.06348 7.23486L6.45117 7.6831C6.44533 7.68738 6.44125 7.69207 6.43555 7.70068C6.42896 7.71066 6.41443 7.73574 6.40039 7.78564L6.28418 8.19872L6.16699 8.61279C6.08041 8.92041 5.91031 9.21675 5.63086 9.44384C5.35738 9.66605 5.04344 9.77049 4.75 9.80907L4.28125 9.8706L4.2627 9.87255L4.28223 10.2251C4.30417 10.6217 4.25932 11.0128 4.1377 11.3892L4.0166 11.7642L3.93457 12.0151L3.98926 12.0864L4.04395 12.0669L4.41895 11.9263C4.81679 11.7772 5.233 11.7262 5.6543 11.7671L6.45312 11.8442L6.68555 11.6362L6.96484 11.3852C7.11796 11.2476 7.26168 11.1001 7.39551 10.9429L7.88379 10.3706C8.00615 10.2269 8.1173 10.0684 8.21777 9.89501L8.60645 9.22314C8.82857 8.8397 9.14218 8.53571 9.53027 8.32372L9.87305 8.13622L10.2168 7.94872C10.3457 7.87825 10.4483 7.79486 10.5322 7.69872L11.0264 7.13232C11.1218 7.02293 11.2066 6.89095 11.2783 6.73095L11.4424 6.36474L11.4443 6.35888C11.2279 6.25571 11.0282 6.11922 10.8506 5.94775L10.5801 5.687L10.3105 5.42626C10.1886 5.30845 10.0739 5.16869 9.96484 5.01415ZM12.0957 2.17138L11.7783 2.3999C11.7322 2.43332 11.5809 2.58236 11.3389 2.97607L11.2139 3.17724L11.2959 3.33837C11.5058 3.75341 11.6454 3.93485 11.7002 3.98779L12.2393 4.50927C12.2779 4.54662 12.314 4.56533 12.3691 4.57568L12.5439 4.6079C12.5957 4.58971 12.642 4.57522 12.6797 4.56396L13.0684 4.44775L13.458 4.33251C13.5881 4.29362 13.7055 4.23106 13.8164 4.14013L13.9961 3.99169L13.8301 3.78954C13.6334 3.5501 13.4541 3.30973 13.293 3.06884L12.8691 2.43603C12.824 2.36858 12.7749 2.32723 12.7119 2.29638L12.376 2.13134L12.2422 2.06493L12.0957 2.17138Z" fill="#1A1A1A"/>
</g>
</svg>
