<svg preserveAspectRatio="none" width="100%" height="100%" overflow="visible" style="display: block;" viewBox="0 0 18.58 18.5986" fill="none" xmlns="http://www.w3.org/2000/svg">
<g id="Nomal">
<path d="M15.3114 0.00556263C16.2183 0.0548443 16.9581 0.494203 17.4589 1.2458C17.9145 1.92956 18.1142 2.69825 17.9745 3.50849C17.9193 3.82848 17.9565 4.15817 18.1132 4.52021C18.4192 5.2271 18.5042 5.96873 18.3388 6.71455C18.2593 7.07277 18.2706 7.42744 18.3788 7.79463C18.596 8.53122 18.5678 9.27755 18.3036 10.0007C18.1633 10.3847 18.1238 10.7501 18.1708 11.1081C18.2542 11.7435 18.2331 12.3794 18.1083 13.0114C18.0641 13.2353 18.0466 13.4036 18.0448 13.5231C18.0439 13.5868 18.0477 13.6272 18.0507 13.6491L18.1327 13.821C18.1838 13.8915 18.2188 13.9525 18.2353 13.9851C18.2814 14.0765 18.3165 14.1719 18.3407 14.2429C18.3931 14.396 18.451 14.6008 18.5136 14.8405C18.6296 15.2853 18.6026 15.7629 18.3622 16.2038C18.1353 16.6202 17.773 16.9047 17.4022 17.1013C16.9008 17.3672 16.4657 17.6295 16.0946 17.8884C15.4095 18.3663 14.6211 18.4563 13.8358 18.2263C13.5142 18.1321 13.2026 18.1394 12.87 18.2565C12.1206 18.5207 11.352 18.5111 10.6073 18.2331C10.2395 18.0958 9.89393 18.0661 9.55264 18.1267C8.88631 18.2451 8.21793 18.2215 7.55752 18.0583C7.10685 17.9469 6.66025 17.8916 6.2167 17.8913C5.88971 17.8911 5.53224 17.9824 5.13369 18.2106C4.35726 18.6552 3.50103 18.737 2.67276 18.3552C1.99772 18.0439 1.44981 17.5641 1.1376 16.8864C0.946424 16.4714 0.73738 15.8792 0.506741 15.1345L0.248929 15.0026V14.1569L0.285062 14.0261C0.539959 13.098 0.506067 12.5972 0.42178 12.3737C0.163559 11.6888 0.0879162 10.9806 0.212796 10.2683C0.277289 9.90008 0.256355 9.53149 0.141507 9.15009C-0.0874622 8.39011 -0.0355357 7.62273 0.275296 6.89033C0.458039 6.45967 0.556398 6.04411 0.58096 5.64033C0.606602 5.21837 0.567054 4.79379 0.459866 4.36298C0.281407 3.64597 0.316897 2.92731 0.568265 2.23408C0.840666 1.48296 1.36155 0.907871 2.05948 0.510445C2.45487 0.285341 2.89497 0.157144 3.36416 0.172555C3.83068 0.187956 4.26151 0.342919 4.64541 0.581735C4.91361 0.748582 5.08904 0.74373 5.28604 0.654977C6.05625 0.307712 6.86685 0.284312 7.65127 0.600289C7.9586 0.724034 8.23629 0.729394 8.53018 0.627633C9.0891 0.43411 9.64979 0.272345 10.2118 0.142281C11.045 -0.0505104 11.846 0.143045 12.5605 0.605172C12.6947 0.692025 12.7749 0.702523 12.8144 0.702828C12.8532 0.70311 12.9311 0.694017 13.0624 0.611031C13.7511 0.175531 14.5086 -0.0380237 15.3114 0.00556263ZM12.7226 10.4665C12.6311 10.4229 12.4501 10.3796 12.0858 10.5026C11.8019 10.5986 11.6449 10.7488 11.5419 10.9753C11.3049 11.4968 11.0438 12.0023 10.7587 12.4899C10.4482 13.0209 10.0743 13.5053 9.63955 13.9421C9.42111 14.1615 9.14211 14.3998 8.81241 14.53C8.63626 14.5995 8.40292 14.6549 8.13858 14.6228C7.85916 14.5887 7.61423 14.4653 7.42471 14.2858C7.31443 14.1814 7.06432 13.986 6.62686 13.6833C6.29664 13.4548 5.98748 13.3356 5.69424 13.2936C5.30115 13.2374 4.88735 13.2217 4.45108 13.2507C4.2077 13.2668 3.99323 13.358 3.77823 13.5739C3.4585 13.8951 3.02216 14.286 2.47842 14.7429C2.67069 15.3488 2.82912 15.7784 2.95401 16.0495C3.02927 16.2129 3.17856 16.3866 3.51065 16.5397C3.68948 16.6221 3.86388 16.6337 4.14053 16.4753C4.79516 16.1005 5.49153 15.8908 6.21768 15.8913C6.82736 15.8917 7.43445 15.9679 8.03701 16.1169C8.42976 16.214 8.81524 16.2266 9.20205 16.1579C9.91377 16.0314 10.6214 16.1043 11.3065 16.3601C11.6152 16.4753 11.901 16.477 12.205 16.3698C12.9256 16.1159 13.6668 16.092 14.3983 16.3063C14.6662 16.3848 14.815 16.3429 14.9501 16.2487C15.358 15.9642 15.8134 15.6874 16.3124 15.4167C16.2435 15.3723 16.1825 15.3247 16.1317 15.2761C15.8613 15.0173 15.7503 14.6687 15.6962 14.4763C15.6397 14.2752 15.5043 13.9888 15.2401 13.6091C14.9469 13.1875 14.6456 12.7721 14.3358 12.363C14.0122 11.9356 13.6942 11.5036 13.3827 11.0671C13.154 10.7466 12.9297 10.5652 12.7226 10.4665ZM15.203 2.00263C14.8457 1.98323 14.4963 2.07096 14.1317 2.30146C13.7365 2.55137 13.2875 2.70637 12.7997 2.70283C12.3127 2.69924 11.8665 2.53832 11.4745 2.28486C11.1358 2.06576 10.883 2.0397 10.663 2.09052C10.1718 2.2042 9.6788 2.34709 9.18448 2.51826C8.42512 2.78118 7.64913 2.75622 6.90323 2.45576C6.63444 2.34757 6.39131 2.35062 6.1083 2.47822C5.2521 2.86423 4.37377 2.76833 3.58877 2.27998C3.44628 2.19136 3.35307 2.1734 3.29873 2.17158C3.24722 2.16988 3.16922 2.18071 3.04971 2.24873C2.71772 2.43774 2.54111 2.65945 2.44815 2.91572C2.33414 3.23013 2.31746 3.54286 2.40127 3.87959C2.55623 4.50225 2.61545 5.13128 2.57705 5.7624C2.53751 6.41165 2.38023 7.04918 2.11612 7.67158C1.97991 7.99251 1.96816 8.27959 2.05655 8.57295C2.25885 9.24454 2.30354 9.92914 2.1835 10.614C2.12376 10.9548 2.15399 11.3004 2.29287 11.6686C2.34642 11.8106 2.38669 11.9581 2.4169 12.1101C2.94282 11.6046 3.5851 11.3043 4.31826 11.2556C4.88422 11.218 5.43791 11.2359 5.97744 11.3132C6.61705 11.4048 7.21527 11.6571 7.76553 12.0378C7.96674 12.177 8.15051 12.3095 8.31338 12.4323C8.58898 12.1412 8.83004 11.8258 9.03213 11.4802C9.28212 11.0526 9.51137 10.6085 9.72061 10.1481C10.0638 9.39312 10.6637 8.87246 11.4462 8.6081C12.1488 8.3708 12.8924 8.33262 13.5819 8.66084C14.1559 8.93411 14.6284 9.36782 15.0116 9.90498C15.3121 10.3261 15.6184 10.7427 15.9306 11.155C16.022 11.2757 16.111 11.3985 16.2011 11.5202C16.1964 11.4696 16.1941 11.4185 16.1874 11.3679C16.0962 10.6728 16.1803 9.98419 16.4247 9.31513C16.5453 8.98516 16.5541 8.67752 16.4608 8.36103C16.2585 7.67507 16.2315 6.9759 16.3856 6.28095C16.4538 5.97354 16.4272 5.66145 16.2772 5.31513C15.9781 4.62403 15.8775 3.90086 16.0038 3.16865C16.0455 2.92667 16.0044 2.66988 15.7948 2.35517C15.6302 2.10806 15.4564 2.0164 15.203 2.00263Z" fill="white"/>
<path d="M8.24893 5.8913C8.24893 6.71973 7.57736 7.3913 6.74893 7.3913C5.9205 7.3913 5.24893 6.71973 5.24893 5.8913C5.24893 5.06288 5.9205 4.3913 6.74893 4.3913C7.57736 4.3913 8.24893 5.06288 8.24893 5.8913Z" fill="white"/>
</g>
</svg>
