<svg width="24" height="24" viewBox="0 0 24 24" fill="none" xmlns="http://www.w3.org/2000/svg">
<path d="M11.6833 4.00068C11.9918 3.98933 12.2105 4.12234 12.313 4.20092C12.4923 4.33834 12.5746 4.50606 12.5874 4.53041C12.614 4.581 12.6363 4.63213 12.6535 4.67786L12.6916 4.79163L12.7837 5.09018L12.8767 5.38781C12.8954 5.44805 12.9359 5.53025 13.0246 5.63356L13.2627 5.91116L13.5009 6.18786C13.6634 6.37701 13.8238 6.56718 13.9818 6.75855L14.2124 7.03888L14.4441 7.31922C14.7247 7.65935 14.8794 8.05908 14.9119 8.48881L14.9398 8.86199L14.9687 9.23516C14.9779 9.35616 15.0086 9.44767 15.0524 9.52369L15.2282 9.82952L15.2403 9.85045L15.351 9.75488C15.3581 9.74867 15.3623 9.74417 15.364 9.74214C15.3654 9.74037 15.3668 9.7385 15.3668 9.7385C15.3668 9.7385 15.3723 9.72897 15.3761 9.703L15.484 8.95483C15.5435 8.54516 15.7077 8.16494 15.9844 7.84167L16.217 7.57043L16.4495 7.29829C16.5613 7.16764 16.6556 7.02903 16.7341 6.88233L16.9006 6.57287L17.0662 6.2625C17.174 6.06117 17.2803 5.8589 17.3843 5.6554L17.5443 5.3423L17.7053 5.02828L17.7741 4.90632C17.9527 4.61693 18.3217 4.20142 18.9322 4.23005L19.0773 4.24461L19.5005 4.31015C19.8611 4.36602 20.1412 4.56937 20.3163 4.82804C20.4706 5.05605 20.5289 5.3022 20.5544 5.49066L20.6493 6.18968C20.676 6.38749 20.7139 6.58678 20.7646 6.78676L20.8539 7.13627L20.9423 7.48579C21.06 7.95025 20.9928 8.40812 20.7851 8.82103L20.4335 9.52005C20.3755 9.63546 20.3606 9.72268 20.3618 9.79129L20.3674 10.1408L20.3739 10.4903C20.376 10.6114 20.3996 10.7407 20.453 10.8817L20.5851 11.2312L20.7181 11.5807C20.8377 11.8967 20.9093 12.2229 20.9265 12.5564L20.9618 13.2555C20.981 13.6293 20.9151 13.9937 20.7767 14.3404L20.4976 15.0394C20.4615 15.1299 20.4566 15.1982 20.466 15.2597L20.5209 15.6092L20.5748 15.9587C20.6278 16.3011 20.6179 16.6451 20.5469 16.9845L20.4735 17.334L20.4009 17.6835C20.3676 17.8429 20.3549 17.9992 20.3618 18.1541L20.3935 18.8531C20.4015 19.0319 20.3943 19.3813 20.1637 19.6941C19.8629 20.1018 19.4054 20.1775 19.081 20.1346L18.8317 20.1019L18.6215 20.0737C18.5997 20.0788 18.5579 20.0911 18.494 20.1192L18.1369 20.2757L17.7797 20.4332C17.4629 20.5723 17.1334 20.6664 16.7937 20.7081L16.0793 20.7954C15.8449 20.8242 15.6105 20.855 15.3761 20.8865L15.0189 20.9338L14.6617 20.982C14.1859 21.0459 13.7371 20.9354 13.3437 20.7144L12.9865 20.5133L12.6293 20.313C12.5102 20.2462 12.429 20.2319 12.3763 20.2311L12.0191 20.2266L11.6619 20.2211C11.4756 20.2186 11.288 20.231 11.1001 20.2584L10.7429 20.3112L10.3857 20.3631C10.0189 20.4165 9.65236 20.3962 9.29367 20.3058L8.5793 20.1255C8.43964 20.0903 8.30611 20.0793 8.1756 20.0891L7.81841 20.1155L7.46123 20.1428C7.27329 20.1571 7.08339 20.1861 6.89196 20.2302L6.53477 20.3121L6.17758 20.395C5.90744 20.4573 5.64307 20.5037 5.38508 20.5324L5.05951 20.5688L4.73488 20.6043C4.61968 20.6171 4.49826 20.6278 4.39351 20.6289C4.35086 20.6293 4.25236 20.6299 4.14143 20.6089C4.09393 20.5998 3.95995 20.5726 3.81494 20.4869C3.65942 20.3949 3.35004 20.1388 3.34985 19.6823V19.6768C3.34897 19.6716 3.34815 19.6659 3.34706 19.6595C3.33731 19.6029 3.32126 19.5178 3.29962 19.4029L3.23451 19.0533L3.16847 18.7038C3.11735 18.4321 3.08381 18.1591 3.06894 17.8856L3.05033 17.5361L3.0308 17.1866C3.01742 16.9403 3.0101 16.6937 3.00755 16.4475L3.0001 15.7485C2.99566 15.3123 3.13265 14.9094 3.35543 14.5534L3.79261 13.8544C3.85458 13.7553 3.85383 13.7074 3.85308 13.6933L3.81401 12.9942C3.8075 12.877 3.77856 12.7489 3.71727 12.6065L3.56751 12.257L3.41682 11.9075C3.2466 11.5122 3.19411 11.0873 3.28474 10.6578L3.35822 10.3083L3.43264 9.95876C3.45865 9.83554 3.46077 9.71606 3.44101 9.5956L3.38427 9.24609L3.3266 8.89657C3.26069 8.49459 3.30843 8.0976 3.4531 7.72152L3.58705 7.37201L3.71262 7.04708L3.54426 6.70849L3.37124 6.35898C3.27653 6.16743 3.18479 5.9104 3.19451 5.61717C3.20541 5.28992 3.34234 4.98015 3.59728 4.74795L3.78703 4.57501L3.97772 4.40207C4.2169 4.18422 4.60851 4.00279 5.06975 4.12356C5.34906 4.1967 5.54907 4.35735 5.6818 4.49764L5.79249 4.62689L6.00922 4.90723L6.22688 5.18665C6.46978 5.49976 6.62092 5.85697 6.68918 6.23974L6.82127 6.97972C6.84811 7.13017 6.89417 7.25429 6.95428 7.35927L7.30403 7.96909C7.40616 8.14744 7.51659 8.32108 7.63517 8.48972L8.04073 9.06678C8.13566 9.20177 8.22022 9.34264 8.29559 9.4882C8.37555 9.27425 8.49385 9.07365 8.65185 8.89202L8.89277 8.61442L9.13461 8.33681C9.30031 8.14633 9.46832 7.95669 9.6397 7.76885L9.88992 7.4958L10.1392 7.22183C10.2511 7.09921 10.338 6.97302 10.4034 6.84319L10.7196 6.21517C10.7492 6.15633 10.7725 6.0753 10.7689 5.95212L10.7466 5.17755C10.7445 5.1026 10.7439 5.01794 10.7494 4.93817C10.752 4.90024 10.7576 4.83781 10.7727 4.76706C10.7768 4.7476 10.8169 4.51905 11.0033 4.3147C11.1241 4.18237 11.3524 4.01293 11.6833 4.00068ZM18.7536 7.12808L18.588 7.43755L18.4215 7.74792C18.2788 8.01427 18.1081 8.26365 17.9099 8.49518L17.6773 8.76733L17.4448 9.03856C17.4114 9.07758 17.3833 9.12819 17.3704 9.21696L17.3164 9.59105L17.2616 9.96513C17.1945 10.4266 16.9772 10.8357 16.616 11.1493L16.3342 11.3932L16.0533 11.6371C15.9363 11.7386 15.7762 11.8636 15.5882 11.9493C15.4429 12.0155 14.9456 12.2054 14.472 11.8583L14.3743 11.7864L14.2766 11.7154C14.122 11.6021 14.0135 11.4608 13.9539 11.3787C13.8822 11.2799 13.812 11.167 13.7446 11.0501L13.393 10.4403C13.2023 10.1094 13.0968 9.74864 13.0683 9.3726L13.0125 8.62625C13.0074 8.55875 12.9887 8.52287 12.9614 8.48972L12.4991 7.92996C12.392 7.80025 12.2828 7.67183 12.1735 7.54313L12.1121 7.66691C11.9668 7.95531 11.7816 8.22105 11.5605 8.46333L11.3112 8.73729L11.061 9.01035C10.8995 9.1874 10.7407 9.36622 10.5848 9.54554L10.102 10.0998C10.087 10.1171 10.0774 10.1306 10.076 10.179L10.0648 10.5568L10.0527 10.9336C10.0463 11.1439 10.0024 11.4759 9.76713 11.7655C9.48652 12.1109 9.08744 12.2174 8.75417 12.1996L8.4714 12.1842L8.18862 12.1696C7.89167 12.1537 7.60505 12.0463 7.36914 11.8438C7.14678 11.6528 7.01576 11.4178 6.93754 11.2075L6.68825 10.5376C6.63228 10.3871 6.56016 10.2496 6.47152 10.1235L6.06596 9.54645C5.91429 9.33076 5.77345 9.10845 5.64273 8.88019L5.29299 8.27037C5.28962 8.26448 5.28701 8.25807 5.28369 8.25216L5.23532 8.37868C5.20085 8.4684 5.19693 8.5378 5.20741 8.60167L5.26508 8.95119L5.32182 9.3007C5.37848 9.64616 5.36997 9.99288 5.29764 10.3356L5.15067 11.0346C5.14299 11.071 5.14176 11.1125 5.17207 11.183L5.47344 11.882C5.61275 12.2055 5.6968 12.5437 5.71622 12.8923L5.75529 13.5913C5.78041 14.0436 5.64663 14.4623 5.41763 14.8283L5.19811 15.1778L4.97952 15.5273C4.9109 15.637 4.9048 15.7006 4.9051 15.7303L4.91255 16.4293C4.91482 16.6488 4.92107 16.8687 4.93301 17.0883L4.95254 17.4378L4.97115 17.7873C4.98161 17.9795 5.00532 18.173 5.04184 18.3671L5.1023 18.6875L5.1702 18.6802C5.34521 18.6607 5.5356 18.6284 5.74133 18.581L6.09852 18.4981L6.45571 18.4162C6.74033 18.3506 7.02707 18.306 7.31519 18.2842L7.67238 18.2578L8.02956 18.2305C8.37518 18.2045 8.71815 18.2358 9.05462 18.3206L9.76899 18.5009C9.88634 18.5305 9.99647 18.535 10.1057 18.5191L10.8201 18.4153C11.1082 18.3733 11.3973 18.3541 11.687 18.358L12.4014 18.3671C12.8248 18.3727 13.2202 18.4961 13.5771 18.6966L13.9343 18.8968L14.2915 19.0979C14.3696 19.1418 14.399 19.136 14.4022 19.1353L14.7594 19.087L15.1166 19.0397C15.3583 19.0072 15.6004 18.9756 15.8421 18.9459L16.5565 18.8586C16.693 18.8418 16.8399 18.802 16.9992 18.732L17.7136 18.4189C17.9319 18.3231 18.1858 18.2407 18.4578 18.216C18.4458 17.912 18.4714 17.6091 18.534 17.3094L18.681 16.6104C18.7074 16.484 18.7103 16.3615 18.6912 16.2381L18.6373 15.8886L18.5824 15.5391C18.5199 15.1347 18.573 14.7367 18.7229 14.3613L19.0019 13.6623C19.0495 13.5431 19.0643 13.4412 19.0596 13.3492L19.0419 12.9997L19.0233 12.6502C19.0165 12.5179 18.988 12.3777 18.9312 12.2279L18.6671 11.5288C18.544 11.2038 18.4749 10.8671 18.4689 10.5222L18.4633 10.1727L18.4568 9.82314C18.4499 9.4258 18.5484 9.0468 18.7247 8.69633L19.0763 7.99731C19.0926 7.96497 19.0947 7.94854 19.0949 7.94634V7.94361C19.0949 7.94361 19.0944 7.93991 19.0931 7.93451L18.9163 7.23548C18.8917 7.13835 18.8708 7.04075 18.8503 6.94332C18.8178 7.00473 18.7864 7.06686 18.7536 7.12808Z" fill="black"/>
</svg>
