<svg width="19" height="19" viewBox="0 0 19 19" fill="none" xmlns="http://www.w3.org/2000/svg">
<path d="M1.25586 9.31543C1.25586 4.89715 4.83758 1.31543 9.25586 1.31543C13.6741 1.31543 17.2559 4.89715 17.2559 9.31543C17.2559 13.7337 13.6741 17.3154 9.25586 17.3154C4.83758 17.3154 1.25586 13.7337 1.25586 9.31543Z" fill="white"/>
<path d="M10.0518 1.11969L10.2906 2.09075L10.0518 1.11969ZM10.4498 1.02182L10.211 0.0507491L10.4498 1.02182ZM11.1449 1.25577L11.8899 0.588645L11.1449 1.25577ZM12.4262 2.29644L12.311 3.28979L12.4262 2.29644ZM13.818 2.74915L12.9996 3.32377L13.818 2.74915ZM14.2634 3.38351L15.0818 2.80889L14.2634 3.38351ZM14.8398 3.88461L15.3011 2.99739L14.8398 3.88461ZM15.5471 4.25244L15.0858 5.13966L15.5471 4.25244ZM16.1083 4.76296L16.9524 4.22668L16.1083 4.76296ZM16.3158 5.08955L15.4718 5.62583L16.3158 5.08955ZM16.5233 5.41614L15.6793 5.95242L16.5233 5.41614ZM16.6784 6.1558L15.6864 6.02993L16.6784 6.1558ZM16.5736 6.98195L17.5657 7.10782L16.5736 6.98195ZM16.6404 7.73755L15.6959 8.06613L16.6404 7.73755ZM16.8787 8.42262L15.9342 8.7512L16.8787 8.42262ZM17.0353 9.13402L16.0404 9.23497L17.0353 9.13402ZM17.0727 9.50289L18.0676 9.40194L17.0727 9.50289ZM17.1102 9.87176L18.1051 9.77081L17.1102 9.87176ZM16.9912 10.5795L17.8992 10.9985L16.9912 10.5795ZM16.6785 11.2573L17.5865 11.6763L16.6785 11.2573ZM16.4989 11.9863L15.5007 11.927L16.4989 11.9863ZM16.4757 12.3764L17.4739 12.4358L16.4757 12.3764ZM16.4525 12.7665L17.4507 12.8259L16.4525 12.7665ZM16.2988 13.5387L17.2451 13.8619L16.2988 13.5387ZM16.0378 14.3028L15.0915 13.9795L16.0378 14.3028ZM15.5771 14.9112L15.0115 14.0865L15.5771 14.9112ZM14.9167 15.3641L15.4823 16.1888L14.9167 15.3641ZM14.2434 15.7634L14.6933 16.6565L14.2434 15.7634ZM13.5572 16.1091L14.007 17.0022L13.5572 16.1091ZM12.9115 16.5509L12.247 15.8036L12.9115 16.5509ZM11.1853 17.2284L11.3417 16.2407L11.1853 17.2284ZM10.7761 17.1637L10.9325 16.176L10.7761 17.1637ZM9.99984 17.0999L9.99697 16.0999L9.99984 17.0999ZM9.26572 17.102L9.26859 18.102L9.26572 17.102ZM8.08515 17.3849L7.75779 16.44L8.08515 17.3849ZM7.6784 17.5259L8.00576 18.4708L7.6784 17.5259ZM6.99648 17.3025L7.79445 16.6998L6.99648 17.3025ZM6.72132 16.9382L5.92335 17.5409L6.72132 16.9382ZM6.44616 16.5739L5.64819 17.1766L6.44616 16.5739ZM5.88386 16.0062L6.46184 15.1901L5.88386 16.0062ZM5.59672 15.8028L6.17471 14.9868L5.59672 15.8028ZM5.30959 15.5994L4.73161 16.4155H4.73161L5.30959 15.5994ZM2.71094 14.1409L3.57209 13.6326L2.71094 14.1409ZM2.37765 13.4535L1.44434 13.8126L2.37765 13.4535ZM2.1064 12.7485L3.03972 12.3894L2.1064 12.7485ZM1.79431 12.057L2.68127 11.5952L1.79431 12.057ZM1.44137 11.3792L0.554405 11.841L1.44137 11.3792ZM1.19159 10.6611L0.209773 10.851L1.19159 10.6611ZM1.11827 10.282L2.10008 10.0921L1.11827 10.282ZM1.04496 9.90284L0.0631441 10.0927L1.04496 9.90284ZM1.10886 8.3718L0.115882 8.25351L1.10886 8.3718ZM1.29154 6.81621L0.298296 6.70012L1.29154 6.81621ZM1.73416 5.74762L0.871179 5.24237L1.73416 5.74762ZM1.93264 5.40859L1.06967 4.90335L1.93264 5.40859ZM2.48408 4.86601L1.98448 3.99975L2.48408 4.86601ZM4.34505 3.54795L3.68363 2.79794L4.34505 3.54795ZM5.04312 2.59982L4.18738 2.08242L5.04312 2.59982ZM5.25847 2.24365L4.40273 1.72625L5.25847 2.24365ZM8.71329 1.77083L8.52132 0.789431L8.71329 1.77083ZM8.89414 1.73546L9.08611 2.71686L8.89414 1.73546ZM10.0518 1.11969L10.2906 2.09075L10.6886 1.99288L10.4498 1.02182L10.211 0.0507491L9.813 0.14862L10.0518 1.11969ZM10.4498 1.02182L10.6886 1.99288C10.6592 2.0001 10.5883 2.00765 10.5036 1.97913C10.4238 1.95228 10.3916 1.91356 10.4 1.9229L11.1449 1.25577L11.8899 0.588645C11.7001 0.376765 11.453 0.188446 11.1415 0.0836083C10.8251 -0.0228949 10.5057 -0.0217175 10.211 0.0507491L10.4498 1.02182ZM11.1449 1.25577L10.4 1.9229L10.6972 2.25473L11.4421 1.5876L12.187 0.920475L11.8899 0.588645L11.1449 1.25577ZM11.4421 1.5876L10.6972 2.25473L10.9943 2.58656L11.7393 1.91943L12.4842 1.2523L12.187 0.920475L11.4421 1.5876ZM11.7393 1.91943L10.9943 2.58656C11.3319 2.96347 11.7755 3.22771 12.311 3.28979L12.4262 2.29644L12.5413 1.30309C12.5391 1.30283 12.5393 1.30268 12.5408 1.30316C12.5422 1.30363 12.5424 1.3039 12.5407 1.30296C12.538 1.30144 12.518 1.29005 12.4842 1.2523L11.7393 1.91943ZM12.4262 2.29644L12.311 3.28979L12.7007 3.33496L12.8159 2.34161L12.931 1.34827L12.5413 1.30309L12.4262 2.29644ZM12.8159 2.34161L12.7007 3.33496L13.0904 3.38014L13.2056 2.38679L13.3207 1.39344L12.931 1.34827L12.8159 2.34161ZM13.2056 2.38679L13.0904 3.38014C13.0955 3.38073 13.0747 3.3786 13.0443 3.3606C13.0136 3.34243 12.9996 3.32375 12.9996 3.32377L13.818 2.74915L14.6364 2.17453C14.3217 1.72628 13.86 1.45595 13.3207 1.39344L13.2056 2.38679ZM13.818 2.74915L12.9996 3.32377L13.2223 3.64095L14.0407 3.06633L14.8591 2.49171L14.6364 2.17453L13.818 2.74915ZM14.0407 3.06633L13.2223 3.64095L13.445 3.95813L14.2634 3.38351L15.0818 2.80889L14.8591 2.49171L14.0407 3.06633ZM14.2634 3.38351L13.445 3.95813C13.6883 4.30476 14.0045 4.57737 14.3784 4.77182L14.8398 3.88461L15.3011 2.99739C15.2035 2.94662 15.1354 2.88516 15.0818 2.80889L14.2634 3.38351ZM14.8398 3.88461L14.3784 4.77182L14.7321 4.95574L15.1935 4.06853L15.6548 3.18131L15.3011 2.99739L14.8398 3.88461ZM15.1935 4.06853L14.7321 4.95574L15.0858 5.13966L15.5471 4.25244L16.0085 3.36523L15.6548 3.18131L15.1935 4.06853ZM15.5471 4.25244L15.0858 5.13966C15.1703 5.1836 15.2233 5.23477 15.2643 5.29924L16.1083 4.76296L16.9524 4.22668C16.7166 3.85568 16.3956 3.56652 16.0085 3.36523L15.5471 4.25244ZM16.1083 4.76296L15.2643 5.29924L15.4718 5.62583L16.3158 5.08955L17.1599 4.55327L16.9524 4.22668L16.1083 4.76296ZM16.3158 5.08955L15.4718 5.62583L15.6793 5.95242L16.5233 5.41614L17.3674 4.87986L17.1599 4.55327L16.3158 5.08955ZM16.5233 5.41614L15.6793 5.95242C15.6856 5.96239 15.6866 5.96668 15.6872 5.96958C15.688 5.97348 15.6913 5.99139 15.6864 6.02993L16.6784 6.1558L17.6705 6.28168C17.7324 5.794 17.6406 5.30984 17.3674 4.87986L16.5233 5.41614ZM16.6784 6.1558L15.6864 6.02993L15.634 6.443L16.626 6.56887L17.6181 6.69475L17.6705 6.28168L16.6784 6.1558ZM16.626 6.56887L15.634 6.443L15.5816 6.85607L16.5736 6.98195L17.5657 7.10782L17.6181 6.69475L16.626 6.56887ZM16.5736 6.98195L15.5816 6.85607C15.5301 7.26184 15.5587 7.67179 15.6959 8.06613L16.6404 7.73755L17.5848 7.40897C17.5632 7.3466 17.5473 7.25281 17.5657 7.10782L16.5736 6.98195ZM16.6404 7.73755L15.6959 8.06613L15.8151 8.40867L16.7595 8.08008L17.704 7.7515L17.5848 7.40897L16.6404 7.73755ZM16.7595 8.08008L15.8151 8.40867L15.9342 8.7512L16.8787 8.42262L17.8232 8.09403L17.704 7.7515L16.7595 8.08008ZM16.8787 8.42262L15.9342 8.7512C15.9875 8.90427 16.0232 9.0649 16.0404 9.23497L17.0353 9.13402L18.0302 9.03307C17.9975 8.71131 17.9288 8.39768 17.8232 8.09403L16.8787 8.42262ZM17.0353 9.13402L16.0404 9.23497L16.0778 9.60384L17.0727 9.50289L18.0676 9.40194L18.0302 9.03307L17.0353 9.13402ZM17.0727 9.50289L16.0778 9.60384L16.1153 9.97271L17.1102 9.87176L18.1051 9.77081L18.0676 9.40194L17.0727 9.50289ZM17.1102 9.87176L16.1153 9.97271C16.122 10.0394 16.1131 10.0959 16.0832 10.1606L16.9912 10.5795L17.8992 10.9985C18.0779 10.6113 18.1482 10.1959 18.1051 9.77081L17.1102 9.87176ZM16.9912 10.5795L16.0832 10.1606L15.9268 10.4995L16.8349 10.9184L17.7429 11.3374L17.8992 10.9985L16.9912 10.5795ZM16.8349 10.9184L15.9268 10.4995L15.7705 10.8384L16.6785 11.2573L17.5865 11.6763L17.7429 11.3374L16.8349 10.9184ZM16.6785 11.2573L15.7705 10.8384C15.6116 11.1828 15.5232 11.5484 15.5007 11.927L16.4989 11.9863L17.4971 12.0457C17.5056 11.9042 17.5369 11.7838 17.5865 11.6763L16.6785 11.2573ZM16.4989 11.9863L15.5007 11.927L15.4775 12.3171L16.4757 12.3764L17.4739 12.4358L17.4971 12.0457L16.4989 11.9863ZM16.4757 12.3764L15.4775 12.3171L15.4543 12.7072L16.4525 12.7665L17.4507 12.8259L17.4739 12.4358L16.4757 12.3764ZM16.4525 12.7665L15.4543 12.7072C15.4443 12.8744 15.4113 13.0431 15.3525 13.2154L16.2988 13.5387L17.2451 13.8619C17.3602 13.5249 17.4297 13.1788 17.4507 12.8259L16.4525 12.7665ZM16.2988 13.5387L15.3525 13.2154L15.222 13.5975L16.1683 13.9207L17.1146 14.244L17.2451 13.8619L16.2988 13.5387ZM16.1683 13.9207L15.222 13.5975L15.0915 13.9795L16.0378 14.3028L16.9841 14.626L17.1146 14.244L16.1683 13.9207ZM16.0378 14.3028L15.0915 13.9795C15.0735 14.0322 15.0525 14.0585 15.0115 14.0865L15.5771 14.9112L16.1427 15.7359C16.542 15.4621 16.8281 15.0826 16.9841 14.626L16.0378 14.3028ZM15.5771 14.9112L15.0115 14.0865L14.6813 14.313L15.2469 15.1377L15.8125 15.9624L16.1427 15.7359L15.5771 14.9112ZM15.2469 15.1377L14.6813 14.313L14.3511 14.5394L14.9167 15.3641L15.4823 16.1888L15.8125 15.9624L15.2469 15.1377ZM14.9167 15.3641L14.3511 14.5394C14.1665 14.6661 13.9806 14.7761 13.7935 14.8703L14.2434 15.7634L14.6933 16.6565C14.9637 16.5203 15.2267 16.3641 15.4823 16.1888L14.9167 15.3641ZM14.2434 15.7634L13.7935 14.8703L13.4504 15.0431L13.9003 15.9362L14.3501 16.8293L14.6933 16.6565L14.2434 15.7634ZM13.9003 15.9362L13.4504 15.0431L13.1073 15.216L13.5572 16.1091L14.007 17.0022L14.3501 16.8293L13.9003 15.9362ZM13.5572 16.1091L13.1073 15.216C12.7969 15.3723 12.5102 15.5696 12.247 15.8036L12.9115 16.5509L13.5759 17.2982C13.7163 17.1735 13.8599 17.0763 14.007 17.0022L13.5572 16.1091ZM12.9115 16.5509L12.247 15.8036L11.9444 16.0726L12.6089 16.8199L13.2734 17.5673L13.5759 17.2982L12.9115 16.5509ZM12.6089 16.8199L11.9444 16.0726L11.6419 16.3416L12.3063 17.089L12.9708 17.8363L13.2734 17.5673L12.6089 16.8199ZM12.3063 17.089L11.6419 16.3416C11.6409 16.3425 11.6459 16.3379 11.6573 16.3315C11.669 16.3249 11.684 16.3183 11.7013 16.3133C11.7389 16.3025 11.7603 16.307 11.7509 16.3055L11.5945 17.2932L11.4382 18.2809C11.9988 18.3697 12.5393 18.2199 12.9708 17.8363L12.3063 17.089ZM11.5945 17.2932L11.7509 16.3055L11.3417 16.2407L11.1853 17.2284L11.029 18.2161L11.4382 18.2809L11.5945 17.2932ZM11.1853 17.2284L11.3417 16.2407L10.9325 16.176L10.7761 17.1637L10.6198 18.1514L11.029 18.2161L11.1853 17.2284ZM10.7761 17.1637L10.9325 16.176C10.6136 16.1255 10.3013 16.0991 9.99697 16.0999L9.99984 17.0999L10.0027 18.0999C10.1878 18.0994 10.393 18.1155 10.6198 18.1514L10.7761 17.1637ZM9.99984 17.0999L9.99697 16.0999L9.62991 16.101L9.63278 17.101L9.63565 18.101L10.0027 18.0999L9.99984 17.0999ZM9.63278 17.101L9.62991 16.101L9.26285 16.102L9.26572 17.102L9.26859 18.102L9.63565 18.101L9.63278 17.101ZM9.26572 17.102L9.26285 16.102C8.89046 16.1031 8.52247 16.1751 8.16454 16.2991L8.49191 17.244L8.81927 18.1889C9.00368 18.125 9.15157 18.1024 9.26859 18.102L9.26572 17.102ZM8.49191 17.244L8.16454 16.2991L7.75779 16.44L8.08515 17.3849L8.41252 18.3298L8.81927 18.1889L8.49191 17.244ZM8.08515 17.3849L7.75779 16.44L7.35103 16.581L7.6784 17.5259L8.00576 18.4708L8.41252 18.3298L8.08515 17.3849ZM7.6784 17.5259L7.35103 16.581C7.3795 16.5711 7.48269 16.5466 7.61585 16.5902C7.74295 16.6318 7.79672 16.7028 7.79445 16.6998L6.99648 17.3025L6.19851 17.9052C6.37968 18.145 6.63883 18.3747 6.99323 18.4908C7.35369 18.6089 7.70612 18.5746 8.00576 18.4708L7.6784 17.5259ZM6.99648 17.3025L7.79445 16.6998L7.51929 16.3355L6.72132 16.9382L5.92335 17.5409L6.19851 17.9052L6.99648 17.3025ZM6.72132 16.9382L7.51929 16.3355L7.24412 15.9712L6.44616 16.5739L5.64819 17.1766L5.92335 17.5409L6.72132 16.9382ZM6.44616 16.5739L7.24412 15.9712C7.01613 15.6693 6.75779 15.3997 6.46184 15.1901L5.88386 16.0062L5.30588 16.8222C5.39277 16.8838 5.5093 16.9927 5.64819 17.1766L6.44616 16.5739ZM5.88386 16.0062L6.46184 15.1901L6.17471 14.9868L5.59672 15.8028L5.01874 16.6189L5.30588 16.8222L5.88386 16.0062ZM5.59672 15.8028L6.17471 14.9868L5.88757 14.7834L5.30959 15.5994L4.73161 16.4155L5.01874 16.6189L5.59672 15.8028ZM5.30959 15.5994L5.88757 14.7834C5.54065 14.5377 5.14388 14.4032 4.73714 14.3439L4.59282 15.3334L4.4485 16.3229C4.61461 16.3472 4.69568 16.39 4.73161 16.4155L5.30959 15.5994ZM4.59282 15.3334L4.73714 14.3439L4.30751 14.2812L4.16318 15.2707L4.01886 16.2603L4.4485 16.3229L4.59282 15.3334ZM4.16318 15.2707L4.30751 14.2812L3.87787 14.2186L3.73355 15.2081L3.58922 16.1976L4.01886 16.2603L4.16318 15.2707ZM3.73355 15.2081L3.87787 14.2186C3.85038 14.2145 3.86462 14.2121 3.89716 14.2327C3.91274 14.2426 3.92808 14.255 3.9416 14.2691C3.95499 14.2831 3.96323 14.2952 3.9674 14.3022L3.10625 14.8106L2.2451 15.3189C2.54997 15.8354 3.04299 16.1179 3.58922 16.1976L3.73355 15.2081ZM3.10625 14.8106L3.9674 14.3022L3.76975 13.9674L2.90859 14.4757L2.04744 14.9841L2.2451 15.3189L3.10625 14.8106ZM2.90859 14.4757L3.76975 13.9674L3.57209 13.6326L2.71094 14.1409L1.84978 14.6493L2.04744 14.9841L2.90859 14.4757ZM2.71094 14.1409L3.57209 13.6326C3.46764 13.4556 3.38093 13.2763 3.31097 13.0945L2.37765 13.4535L1.44434 13.8126C1.55521 14.1008 1.69069 14.3798 1.84978 14.6493L2.71094 14.1409ZM2.37765 13.4535L3.31097 13.0945L3.17534 12.7419L2.24203 13.101L1.30871 13.46L1.44434 13.8126L2.37765 13.4535ZM2.24203 13.101L3.17534 12.7419L3.03972 12.3894L2.1064 12.7485L1.17309 13.1075L1.30871 13.46L2.24203 13.101ZM2.1064 12.7485L3.03972 12.3894C2.93564 12.1189 2.81609 11.8541 2.68127 11.5952L1.79431 12.057L0.907343 12.5188C1.00782 12.7118 1.09633 12.908 1.17309 13.1075L2.1064 12.7485ZM1.79431 12.057L2.68127 11.5952L2.5048 11.2563L1.61784 11.7181L0.730874 12.1799L0.907343 12.5188L1.79431 12.057ZM1.61784 11.7181L2.5048 11.2563L2.32833 10.9173L1.44137 11.3792L0.554405 11.841L0.730874 12.1799L1.61784 11.7181ZM1.44137 11.3792L2.32833 10.9173C2.25574 10.7779 2.20415 10.6303 2.1734 10.4713L1.19159 10.6611L0.209773 10.851C0.276777 11.1975 0.391705 11.5285 0.554405 11.841L1.44137 11.3792ZM1.19159 10.6611L2.1734 10.4713L2.10008 10.0921L1.11827 10.282L0.136459 10.4718L0.209773 10.851L1.19159 10.6611ZM1.11827 10.282L2.10008 10.0921L2.02677 9.71299L1.04496 9.90284L0.0631441 10.0927L0.136459 10.4718L1.11827 10.282ZM1.04496 9.90284L2.02677 9.71299C1.99755 9.56188 1.99208 9.41146 2.01036 9.25802L1.01738 9.13973L0.0244026 9.02144C-0.0183051 9.37995 -0.00538969 9.73827 0.0631441 10.0927L1.04496 9.90284ZM1.01738 9.13973L2.01036 9.25802L2.0561 8.87406L1.06312 8.75577L0.0701425 8.63748L0.0244026 9.02144L1.01738 9.13973ZM1.06312 8.75577L2.0561 8.87406L2.10184 8.49009L1.10886 8.3718L0.115882 8.25351L0.0701425 8.63748L1.06312 8.75577ZM1.10886 8.3718L2.10184 8.49009C2.13242 8.23337 2.16297 7.97446 2.19349 7.71338L1.20025 7.59729L0.207007 7.48121C0.176661 7.74085 0.146287 7.99828 0.115882 8.25351L1.10886 8.3718ZM1.20025 7.59729L2.19349 7.71338L2.23913 7.32283L1.24589 7.20675L0.252651 7.09067L0.207007 7.48121L1.20025 7.59729ZM1.24589 7.20675L2.23913 7.32283L2.28477 6.93229L1.29154 6.81621L0.298296 6.70012L0.252651 7.09067L1.24589 7.20675ZM1.29154 6.81621L2.28477 6.93229C2.29917 6.80914 2.33624 6.69847 2.39864 6.59188L1.53567 6.08664L0.672691 5.5814C0.470445 5.92684 0.344761 6.30256 0.298296 6.70012L1.29154 6.81621ZM1.53567 6.08664L2.39864 6.59188L2.59713 6.25286L1.73416 5.74762L0.871179 5.24237L0.672691 5.5814L1.53567 6.08664ZM1.73416 5.74762L2.59713 6.25286L2.79562 5.91384L1.93264 5.40859L1.06967 4.90335L0.871179 5.24237L1.73416 5.74762ZM1.93264 5.40859L2.79562 5.91384C2.83688 5.84336 2.89297 5.78458 2.98368 5.73226L2.48408 4.86601L1.98448 3.99975C1.60459 4.21885 1.29306 4.52179 1.06967 4.90335L1.93264 5.40859ZM2.48408 4.86601L2.98368 5.73226L3.33663 5.52871L2.83702 4.66245L2.33742 3.7962L1.98448 3.99975L2.48408 4.86601ZM2.83702 4.66245L3.33663 5.52871L3.68957 5.32515L3.18997 4.45889L2.69037 3.59264L2.33742 3.7962L2.83702 4.66245ZM3.18997 4.45889L3.68957 5.32515C3.97454 5.1608 4.23704 4.97651 4.47172 4.76956L3.81029 4.01954L3.14887 3.26953C3.02704 3.37697 2.876 3.48558 2.69037 3.59264L3.18997 4.45889ZM3.81029 4.01954L4.47172 4.76956L4.73909 4.53376L4.07767 3.78375L3.41625 3.03373L3.14887 3.26953L3.81029 4.01954ZM4.07767 3.78375L4.73909 4.53376L5.00647 4.29796L4.34505 3.54795L3.68363 2.79794L3.41625 3.03373L4.07767 3.78375ZM4.34505 3.54795L5.00647 4.29796C5.27246 4.06339 5.49596 3.78359 5.68352 3.47339L4.82778 2.95599L3.97203 2.43859C3.87246 2.60327 3.77414 2.71812 3.68363 2.79794L4.34505 3.54795ZM4.82778 2.95599L5.68352 3.47339L5.89887 3.11722L5.04312 2.59982L4.18738 2.08242L3.97203 2.43859L4.82778 2.95599ZM5.04312 2.59982L5.89887 3.11722L6.11421 2.76105L5.25847 2.24365L4.40273 1.72625L4.18738 2.08242L5.04312 2.59982ZM5.25847 2.24365L6.11421 2.76105C6.15944 2.68625 6.19972 2.65771 6.24126 2.63905L5.83162 1.72681L5.42197 0.814564C4.98645 1.01013 4.64463 1.32615 4.40273 1.72625L5.25847 2.24365ZM5.83162 1.72681L6.24126 2.63905L6.59906 2.47838L6.18941 1.56614L5.77976 0.653893L5.42197 0.814564L5.83162 1.72681ZM6.18941 1.56614L6.59906 2.47838L6.95686 2.31771L6.54721 1.40547L6.13756 0.493222L5.77976 0.653893L6.18941 1.56614ZM6.54721 1.40547L6.95686 2.31771C6.95902 2.31674 6.9579 2.31744 6.95407 2.31833C6.95019 2.31922 6.94643 2.31963 6.94383 2.3197C6.94136 2.31976 6.94268 2.31945 6.94873 2.32045C6.95496 2.32148 6.96713 2.32406 6.98575 2.33048L7.31186 1.38515L7.63797 0.439817C7.15169 0.272065 6.63169 0.271332 6.13756 0.493222L6.54721 1.40547ZM7.31186 1.38515L6.98575 2.33048L7.39261 2.47083L7.71872 1.5255L8.04483 0.580171L7.63797 0.439817L7.31186 1.38515ZM7.71872 1.5255L7.39261 2.47083L7.79946 2.61119L8.12557 1.66586L8.45168 0.720524L8.04483 0.580171L7.71872 1.5255ZM8.12557 1.66586L7.79946 2.61119C7.96466 2.66818 8.13424 2.71707 8.30009 2.7467C8.45374 2.77414 8.67169 2.79792 8.90525 2.75224L8.71329 1.77083L8.52132 0.789431C8.58416 0.777139 8.62859 0.777604 8.64476 0.778187C8.6622 0.778816 8.6657 0.780346 8.65177 0.777857C8.63855 0.775496 8.61518 0.770517 8.58022 0.760895C8.54559 0.751364 8.50297 0.738217 8.45168 0.720524L8.12557 1.66586ZM8.71329 1.77083L8.90525 2.75224L9.08611 2.71686L8.89414 1.73546L8.70218 0.754055L8.52132 0.789431L8.71329 1.77083ZM8.89414 1.73546L9.08611 2.71686L9.26696 2.68148L9.075 1.70008L8.88304 0.718679L8.70218 0.754055L8.89414 1.73546ZM9.075 1.70008L9.26696 2.68148C9.38102 2.65918 9.57919 2.6101 9.77205 2.47926C9.99862 2.32556 10.2559 2.02217 10.2559 1.57739H9.25586H8.25586C8.25586 1.40934 8.30211 1.24293 8.39019 1.09812C8.47362 0.960964 8.57516 0.874436 8.64924 0.824181C8.72232 0.774598 8.78482 0.74916 8.8183 0.737224C8.85345 0.724693 8.87709 0.719843 8.88304 0.718679L9.075 1.70008ZM9.25586 1.57739H10.2559V1.49007H9.25586H8.25586V1.57739H9.25586ZM9.25586 1.49007H10.2559V1.40275H9.25586H8.25586V1.49007H9.25586ZM9.25586 1.40275H10.2559C10.2559 1.79283 10.0327 2.02666 9.9514 2.10019C9.86175 2.18124 9.78491 2.21587 9.77724 2.21944C9.75439 2.23007 9.77881 2.21662 9.89264 2.18863L9.65384 1.21756L9.41503 0.246491C9.26355 0.283744 9.08898 0.333778 8.93346 0.406145C8.85946 0.440579 8.73288 0.505631 8.61007 0.616667C8.49558 0.720181 8.25586 0.98356 8.25586 1.40275H9.25586ZM9.65384 1.21756L9.89264 2.18863L10.2906 2.09075L10.0518 1.11969L9.813 0.14862L9.41503 0.246491L9.65384 1.21756Z" fill="black"/>
</svg>
