<svg width="141" height="6" viewBox="0 0 141 6" fill="none" xmlns="http://www.w3.org/2000/svg">
<path d="M1.5 1.47889C0.671573 1.47889 0 2.15046 0 2.97889C0 3.80732 0.671573 4.47889 1.5 4.47889V2.97889V1.47889ZM1.6 2.97889L1.75638 1.48706L1.6784 1.47889H1.6V2.97889ZM5.4375 2.02862L4.58005 0.797856L5.4375 2.02862ZM6.5625 1.74764L6.85263 0.275962L6.5625 1.74764ZM7.6875 1.96942L7.39737 3.4411L7.6875 1.96942ZM14.4375 2.3313L13.5633 1.1124L14.4375 2.3313ZM15.5625 2.02151L15.3161 3.50115L15.5625 2.02151ZM17.8125 2.63662L17.0464 3.92625L17.8125 2.63662ZM20.0625 3.65511L20.1054 2.15572L20.0625 3.65511ZM21.1875 3.68728L21.1446 5.18666L21.1875 3.68728ZM25.125 2.6651L24.1303 1.54238L25.125 2.6651ZM26.8125 1.90069L26.2398 3.28705L26.8125 1.90069ZM34.6875 3.23587L33.7615 2.05584L34.6875 3.23587ZM38.0625 3.00745L37.5305 1.60497L38.0625 3.00745ZM45.375 2.51956L44.5117 1.2929L45.375 2.51956ZM45.9375 2.12368L46.8008 3.35034L45.9375 2.12368ZM47.0625 2.09492L47.8823 0.838779L47.0625 2.09492ZM47.625 2.46204L46.8052 3.71817L47.625 2.46204ZM54.9375 2.26621L53.8078 1.27945V1.27945L54.9375 2.26621ZM56.0625 1.7821L55.6523 3.22493L56.0625 1.7821ZM62.8125 1.81759L62.568 3.29752L62.8125 1.81759ZM65.0625 2.21618L64.7502 3.6833L65.0625 2.21618ZM67.3125 2.29298L67.9856 3.63349L67.3125 2.29298ZM68.4375 1.7281L69.1106 3.0686L68.4375 1.7281ZM85.875 1.59725L85.6493 3.08017L85.875 1.59725ZM93.1875 3.96455L92.7957 2.51663L93.1875 3.96455ZM95.4375 2.45388L94.4969 1.28544L95.4375 2.45388ZM96.5625 2.57048L95.4954 3.62464L96.5625 2.57048ZM99.9375 2.18925L98.7705 1.24679L99.9375 2.18925ZM102.188 1.54675L102.14 3.04598L102.188 1.54675ZM110.062 2.3766L109.582 0.955742L110.062 2.3766ZM111.188 1.99593L111.668 3.41679L111.188 1.99593ZM113.438 1.85486L113.394 3.35422V3.35422L113.438 1.85486ZM114.562 2.28624L113.672 3.49332L114.562 2.28624ZM115.688 3.11618L114.797 4.32326L115.688 3.11618ZM116.812 3.45527L116.612 1.96873L116.812 3.45527ZM117.938 3.30352L117.737 1.81699L117.938 3.30352ZM120.188 3.43428L120.005 4.92316L120.188 3.43428ZM121.312 3.15449L120.522 1.87955L121.312 3.15449ZM122.438 2.45717L123.228 3.73211L122.438 2.45717ZM123.562 2.4097L122.854 3.73206L123.562 2.4097ZM124.688 3.01209L123.979 4.33445L124.688 3.01209ZM125.812 2.96841L125.028 1.68963L125.812 2.96841ZM128.062 1.94607L128.03 3.44572L128.062 1.94607ZM129.188 1.97063L129.22 0.470989L129.188 1.97063ZM135.375 2.69803L134.76 1.32987L135.375 2.69803ZM135.938 2.44521L136.552 3.81337L135.938 2.44521ZM137.062 2.406L137.595 1.00372L137.062 2.406ZM138.938 3.02986L138.802 1.53598L138.938 3.02986ZM139.125 3.01287L139.26 4.50675L139.285 4.50454L139.309 4.50155L139.125 3.01287ZM139.4 2.97889V1.47889H139.308L139.216 1.49021L139.4 2.97889ZM139.5 4.47889C140.328 4.47889 141 3.80732 141 2.97889C141 2.15046 140.328 1.47889 139.5 1.47889V2.97889V4.47889ZM1.5 2.97889V4.47889H1.6V2.97889V1.47889H1.5V2.97889ZM1.6 2.97889L1.44362 4.47072L2.51862 4.5834L2.675 3.09158L2.83138 1.59975L1.75638 1.48706L1.6 2.97889ZM2.675 3.09158L2.51862 4.5834C3.39764 4.67555 4.37014 4.60036 5.16995 4.04315L4.3125 2.81238L3.45505 1.58162C3.48285 1.56226 3.47035 1.58231 3.36976 1.59946C3.26526 1.61728 3.09211 1.62708 2.83138 1.59975L2.675 3.09158ZM4.3125 2.81238L5.16995 4.04315L5.73245 3.65127L4.875 2.4205L4.01755 1.18974L3.45505 1.58162L4.3125 2.81238ZM4.875 2.4205L5.73245 3.65127L6.29495 3.25939L5.4375 2.02862L4.58005 0.797856L4.01755 1.18974L4.875 2.4205ZM5.4375 2.02862L6.29495 3.25939C6.35953 3.2144 6.38197 3.21311 6.36348 3.21773C6.35438 3.22 6.33952 3.2226 6.3207 3.22309C6.30182 3.22359 6.28506 3.22181 6.27237 3.21931L6.5625 1.74764L6.85263 0.275962C6.00121 0.10811 5.2186 0.352996 4.58005 0.797856L5.4375 2.02862ZM6.5625 1.74764L6.27237 3.21931L6.83487 3.3302L7.125 1.85853L7.41513 0.386855L6.85263 0.275962L6.5625 1.74764ZM7.125 1.85853L6.83487 3.3302L7.39737 3.4411L7.6875 1.96942L7.97763 0.497748L7.41513 0.386855L7.125 1.85853ZM7.6875 1.96942L7.39737 3.4411C7.51633 3.46455 7.69215 3.53043 7.92762 3.70246L8.8125 2.49127L9.69738 1.28008C9.18285 0.904171 8.60867 0.622154 7.97763 0.497748L7.6875 1.96942ZM8.8125 2.49127L7.92762 3.70246L8.49012 4.11342L9.375 2.90223L10.2599 1.69104L9.69738 1.28008L8.8125 2.49127ZM9.375 2.90223L8.49012 4.11342L9.05262 4.52438L9.9375 3.31319L10.8224 2.102L10.2599 1.69104L9.375 2.90223ZM9.9375 3.31319L9.05262 4.52438C9.64744 4.95895 10.3717 5.23949 11.1838 5.1736L11.0625 3.67851L10.9412 2.18343C10.9606 2.18185 10.9716 2.18602 10.9633 2.18334C10.951 2.17933 10.9039 2.16153 10.8224 2.102L9.9375 3.31319ZM11.0625 3.67851L11.1838 5.1736L11.7463 5.12797L11.625 3.63288L11.5037 2.13779L10.9412 2.18343L11.0625 3.67851ZM11.625 3.63288L11.7463 5.12797L12.3088 5.08234L12.1875 3.58725L12.0662 2.09216L11.5037 2.13779L11.625 3.63288ZM12.1875 3.58725L12.3088 5.08234C13.0106 5.02541 13.6405 4.74886 14.1867 4.35708L13.3125 3.13818L12.4383 1.91928C12.2345 2.06542 12.1144 2.08825 12.0662 2.09216L12.1875 3.58725ZM13.3125 3.13818L14.1867 4.35708L14.7492 3.95364L13.875 2.73474L13.0008 1.51584L12.4383 1.91928L13.3125 3.13818ZM13.875 2.73474L14.7492 3.95364L15.3117 3.5502L14.4375 2.3313L13.5633 1.1124L13.0008 1.51584L13.875 2.73474ZM14.4375 2.3313L15.3117 3.5502C15.3814 3.5002 15.4101 3.49503 15.3982 3.49831C15.3922 3.49995 15.3799 3.50261 15.3628 3.50354C15.3456 3.50448 15.3294 3.50335 15.3161 3.50115L15.5625 2.02151L15.8089 0.541884C14.959 0.400386 14.1883 0.664078 13.5633 1.1124L14.4375 2.3313ZM15.5625 2.02151L15.3161 3.50115L15.8786 3.5948L16.125 2.11517L16.3714 0.63554L15.8089 0.541884L15.5625 2.02151ZM16.125 2.11517L15.8786 3.5948L16.4411 3.68846L16.6875 2.20883L16.9339 0.729197L16.3714 0.63554L16.125 2.11517ZM16.6875 2.20883L16.4411 3.68846C16.6077 3.71618 16.8081 3.78467 17.0464 3.92625L17.8125 2.63662L18.5786 1.34699C18.0669 1.04306 17.5173 0.826345 16.9339 0.729197L16.6875 2.20883ZM17.8125 2.63662L17.0464 3.92625L17.6089 4.26038L18.375 2.97075L19.1411 1.68112L18.5786 1.34699L17.8125 2.63662ZM18.375 2.97075L17.6089 4.26038L18.1714 4.59452L18.9375 3.30489L19.7036 2.01526L19.1411 1.68112L18.375 2.97075ZM18.9375 3.30489L18.1714 4.59452C18.7298 4.9262 19.3509 5.13537 20.0196 5.1545L20.0625 3.65511L20.1054 2.15572C20.0241 2.1534 19.8952 2.12909 19.7036 2.01526L18.9375 3.30489ZM20.0625 3.65511L20.0196 5.1545L20.5821 5.17058L20.625 3.67119L20.6679 2.17181L20.1054 2.15572L20.0625 3.65511ZM20.625 3.67119L20.5821 5.17058L21.1446 5.18666L21.1875 3.68728L21.2304 2.18789L20.6679 2.17181L20.625 3.67119ZM21.1875 3.68728L21.1446 5.18666C21.5431 5.19806 21.9416 5.20008 22.3402 5.19273L22.3125 3.69299L22.2848 2.19324C21.9334 2.19973 21.5819 2.19794 21.2304 2.18789L21.1875 3.68728ZM22.3125 3.69299L22.3402 5.19273L22.9027 5.18236L22.875 3.68262L22.8473 2.18287L22.2848 2.19324L22.3125 3.69299ZM22.875 3.68262L22.9027 5.18236L23.4652 5.17199L23.4375 3.67224L23.4098 2.1725L22.8473 2.18287L22.875 3.68262ZM23.4375 3.67224L23.4652 5.17199C24.3019 5.15656 25.0056 4.77499 25.5572 4.28619L24.5625 3.16348L23.5678 2.04077C23.4693 2.128 23.4063 2.16208 23.3819 2.17313C23.362 2.18216 23.3745 2.17315 23.4098 2.1725L23.4375 3.67224ZM24.5625 3.16348L25.5572 4.28619L26.1197 3.78781L25.125 2.6651L24.1303 1.54238L23.5678 2.04077L24.5625 3.16348ZM25.125 2.6651L26.1197 3.78781L26.6822 3.28942L25.6875 2.16671L24.6928 1.044L24.1303 1.54238L25.125 2.6651ZM25.6875 2.16671L26.6822 3.28942C26.7383 3.23974 26.7103 3.28354 26.5952 3.31076C26.5365 3.32463 26.4692 3.33053 26.3993 3.32436C26.3302 3.31826 26.2757 3.3019 26.2398 3.28705L26.8125 1.90069L27.3852 0.514323C26.9234 0.323537 26.4152 0.270582 25.9048 0.391265C25.4147 0.507151 25.0117 0.761418 24.6928 1.044L25.6875 2.16671ZM26.8125 1.90069L26.2398 3.28705L26.8023 3.51942L27.375 2.13306L27.9477 0.746691L27.3852 0.514323L26.8125 1.90069ZM27.375 2.13306L26.8023 3.51942L27.3648 3.75179L27.9375 2.36542L28.5102 0.979058L27.9477 0.746691L27.375 2.13306ZM27.9375 2.36542L27.3648 3.75179C27.6231 3.85851 27.9001 4.01112 28.1952 4.22026L29.0625 2.99643L29.9298 1.77261C29.4749 1.45022 29.0019 1.18216 28.5102 0.979058L27.9375 2.36542ZM29.0625 2.99643L28.1952 4.22026L28.7577 4.6189L29.625 3.39508L30.4923 2.17125L29.9298 1.77261L29.0625 2.99643ZM29.625 3.39508L28.7577 4.6189L29.3202 5.01754L30.1875 3.79372L31.0548 2.56989L30.4923 2.17125L29.625 3.39508ZM30.1875 3.79372L29.3202 5.01754C29.8429 5.38801 30.4279 5.65963 31.0705 5.76466L31.3125 4.2843L31.5545 2.80395C31.447 2.78639 31.2821 2.73095 31.0548 2.56989L30.1875 3.79372ZM31.3125 4.2843L31.0705 5.76466L31.633 5.8566L31.875 4.37625L32.117 2.89589L31.5545 2.80395L31.3125 4.2843ZM31.875 4.37625L31.633 5.8566L32.1955 5.94855L32.4375 4.46819L32.6795 2.98784L32.117 2.89589L31.875 4.37625ZM32.4375 4.46819L32.1955 5.94855C33.0854 6.094 33.8732 5.78162 34.4885 5.29875L33.5625 4.11872L32.6365 2.93868C32.5628 2.99651 32.5353 3.00046 32.555 2.99432C32.5653 2.99112 32.5838 2.9867 32.6087 2.98487C32.6337 2.98303 32.6581 2.98435 32.6795 2.98784L32.4375 4.46819ZM33.5625 4.11872L34.4885 5.29875L35.051 4.85733L34.125 3.67729L33.199 2.49726L32.6365 2.93868L33.5625 4.11872ZM34.125 3.67729L35.051 4.85733L35.6135 4.41591L34.6875 3.23587L33.7615 2.05584L33.199 2.49726L34.125 3.67729ZM34.6875 3.23587L35.6135 4.41591C35.6841 4.36051 35.7059 4.3608 35.6779 4.36913C35.6635 4.37342 35.6409 4.37827 35.6122 4.37982C35.5834 4.38137 35.5562 4.37917 35.5332 4.37482L35.8125 2.90105L36.0918 1.42728C35.1891 1.25621 34.3855 1.56616 33.7615 2.05584L34.6875 3.23587ZM35.8125 2.90105L35.5332 4.37482L36.0957 4.48142L36.375 3.00765L36.6543 1.53388L36.0918 1.42728L35.8125 2.90105ZM36.375 3.00765L36.0957 4.48142L36.6582 4.58801L36.9375 3.11424L37.2168 1.64047L36.6543 1.53388L36.375 3.00765ZM36.9375 3.11424L36.6582 4.58801C37.3192 4.71326 37.9746 4.6451 38.5945 4.40992L38.0625 3.00745L37.5305 1.60497C37.4004 1.65432 37.3058 1.65735 37.2168 1.64047L36.9375 3.11424ZM38.0625 3.00745L38.5945 4.40992L39.157 4.19653L38.625 2.79405L38.093 1.39158L37.5305 1.60497L38.0625 3.00745ZM38.625 2.79405L39.157 4.19653L39.7195 3.98313L39.1875 2.58066L38.6555 1.17819L38.093 1.39158L38.625 2.79405ZM39.1875 2.58066L39.7195 3.98313C39.6754 3.99986 39.6136 4.01561 39.5388 4.01911C39.4635 4.02262 39.3944 4.01282 39.3377 3.99659C39.2289 3.96548 39.2116 3.92528 39.2787 3.98917L40.3125 2.90229L41.3463 1.8154C40.6981 1.1989 39.7342 0.76897 38.6555 1.17819L39.1875 2.58066ZM40.3125 2.90229L39.2787 3.98917L39.8412 4.52418L40.875 3.4373L41.9088 2.35042L41.3463 1.8154L40.3125 2.90229ZM40.875 3.4373L39.8412 4.52418L40.4037 5.0592L41.4375 3.97232L42.4713 2.88544L41.9088 2.35042L40.875 3.4373ZM41.4375 3.97232L40.4037 5.0592C40.7245 5.36432 41.1521 5.65361 41.692 5.76687C42.261 5.88625 42.8048 5.77828 43.2666 5.53283L42.5625 4.20833L41.8584 2.88383C41.8933 2.86532 41.9559 2.83876 42.043 2.82475C42.1322 2.8104 42.2236 2.81308 42.308 2.83079C42.4728 2.86537 42.5255 2.93699 42.4713 2.88544L41.4375 3.97232ZM42.5625 4.20833L43.2666 5.53283L43.8291 5.23383L43.125 3.90933L42.4209 2.58482L41.8584 2.88383L42.5625 4.20833ZM43.125 3.90933L43.8291 5.23383L44.3916 4.93483L43.6875 3.61033L42.9834 2.28582L42.4209 2.58482L43.125 3.90933ZM43.6875 3.61033L44.3916 4.93483C44.8258 4.70402 45.2538 4.4391 45.6758 4.1421L44.8125 2.91544L43.9492 1.68878C43.6212 1.91962 43.2992 2.11797 42.9834 2.28582L43.6875 3.61033ZM44.8125 2.91544L45.6758 4.1421L46.2383 3.74622L45.375 2.51956L44.5117 1.2929L43.9492 1.68878L44.8125 2.91544ZM45.375 2.51956L46.2383 3.74622L46.8008 3.35034L45.9375 2.12368L45.0742 0.897019L44.5117 1.2929L45.375 2.51956ZM45.9375 2.12368L46.8008 3.35034C46.8023 3.34929 46.7797 3.36549 46.7327 3.38264C46.6836 3.40052 46.6171 3.41604 46.5383 3.41806C46.3667 3.42245 46.2596 3.36208 46.2427 3.35105L47.0625 2.09492L47.8823 0.838779C47.4904 0.583003 47.0083 0.405062 46.4617 0.419038C45.9182 0.432932 45.4494 0.632936 45.0742 0.897019L45.9375 2.12368ZM47.0625 2.09492L46.2427 3.35105L46.8052 3.71817L47.625 2.46204L48.4448 1.2059L47.8823 0.838779L47.0625 2.09492ZM47.625 2.46204L46.8052 3.71817L47.3677 4.08529L48.1875 2.82916L49.0073 1.57302L48.4448 1.2059L47.625 2.46204ZM48.1875 2.82916L47.3677 4.08529C47.7505 4.33515 48.2176 4.51235 48.7478 4.51313C49.2782 4.51391 49.746 4.33797 50.1297 4.08864L49.3125 2.83081L48.4953 1.57298C48.504 1.5673 48.5968 1.5129 48.7522 1.51313C48.9074 1.51336 48.9995 1.56791 49.0073 1.57302L48.1875 2.82916ZM49.3125 2.83081L50.1297 4.08864L50.6922 3.72318L49.875 2.46535L49.0578 1.20752L48.4953 1.57298L49.3125 2.83081ZM49.875 2.46535L50.6922 3.72318L51.2547 3.35772L50.4375 2.09989L49.6203 0.842056L49.0578 1.20752L49.875 2.46535ZM50.4375 2.09989L51.2547 3.35772C51.2198 3.3804 51.1447 3.42134 51.032 3.44542C50.9145 3.47051 50.7902 3.4698 50.674 3.44392C50.4534 3.39481 50.3863 3.28677 50.4549 3.36189L51.5625 2.35038L52.6701 1.33887C52.3637 1.00335 51.9216 0.648238 51.326 0.515632C50.6804 0.371875 50.0856 0.539728 49.6203 0.842056L50.4375 2.09989ZM51.5625 2.35038L50.4549 3.36189L51.0174 3.97784L52.125 2.96633L53.2326 1.95482L52.6701 1.33887L51.5625 2.35038ZM52.125 2.96633L51.0174 3.97784L51.5799 4.59379L52.6875 3.58228L53.7951 2.57077L53.2326 1.95482L52.125 2.96633ZM52.6875 3.58228L51.5799 4.59379C51.9168 4.96275 52.4904 5.40266 53.2874 5.38278C54.0715 5.36322 54.6215 4.9082 54.9422 4.54098L53.8125 3.55423L52.6828 2.56747C52.6285 2.62959 52.8035 2.39391 53.2126 2.38371C53.6346 2.37319 53.8332 2.61245 53.7951 2.57077L52.6875 3.58228ZM53.8125 3.55423L54.9422 4.54098L55.5047 3.89697L54.375 2.91022L53.2453 1.92346L52.6828 2.56747L53.8125 3.55423ZM54.375 2.91022L55.5047 3.89697L56.0672 3.25296L54.9375 2.26621L53.8078 1.27945L53.2453 1.92346L54.375 2.91022ZM54.9375 2.26621L56.0672 3.25296C56.1621 3.14438 56.1762 3.16519 56.0929 3.20102C56.0463 3.22107 55.9771 3.24208 55.8905 3.24841C55.8029 3.2548 55.721 3.24444 55.6523 3.22493L56.0625 1.7821L56.4727 0.339261C55.2954 0.00461292 54.3633 0.643363 53.8078 1.27945L54.9375 2.26621ZM56.0625 1.7821L55.6523 3.22493L56.2148 3.38483L56.625 1.942L57.0351 0.499161L56.4727 0.339261L56.0625 1.7821ZM56.625 1.942L56.2148 3.38483L56.7773 3.54473L57.1875 2.1019L57.5976 0.659062L57.0351 0.499161L56.625 1.942ZM57.1875 2.1019L56.7773 3.54473C56.9648 3.59802 57.1888 3.70086 57.4497 3.88435L58.3125 2.6573L59.1753 1.43026C58.6862 1.0864 58.1602 0.818979 57.5976 0.659062L57.1875 2.1019ZM58.3125 2.6573L57.4497 3.88435L58.0122 4.27985L58.875 3.05281L59.7378 1.82576L59.1753 1.43026L58.3125 2.6573ZM58.875 3.05281L58.0122 4.27985L58.5747 4.67536L59.4375 3.44831L60.3003 2.22127L59.7378 1.82576L58.875 3.05281ZM59.4375 3.44831L58.5747 4.67536C58.997 4.97223 59.5481 5.17708 60.1778 5.10192C60.7819 5.02981 61.2534 4.72387 61.5909 4.40595L60.5625 3.31402L59.5341 2.22209C59.4966 2.25737 59.5931 2.15041 59.8222 2.12307C60.0769 2.09267 60.253 2.18806 60.3003 2.22127L59.4375 3.44831ZM60.5625 3.31402L61.5909 4.40595L62.1534 3.87616L61.125 2.78423L60.0966 1.6923L59.5341 2.22209L60.5625 3.31402ZM61.125 2.78423L62.1534 3.87616L62.7159 3.34637L61.6875 2.25444L60.6591 1.16251L60.0966 1.6923L61.125 2.78423ZM61.6875 2.25444L62.7159 3.34637C62.8006 3.26663 62.8282 3.26491 62.793 3.27861C62.7737 3.28611 62.741 3.29594 62.6975 3.30079C62.6535 3.30571 62.609 3.3043 62.568 3.29752L62.8125 1.81759L63.057 0.337658C62.0688 0.174365 61.2446 0.611038 60.6591 1.16251L61.6875 2.25444ZM62.8125 1.81759L62.568 3.29752L63.1305 3.39047L63.375 1.91054L63.6195 0.430605L63.057 0.337658L62.8125 1.81759ZM63.375 1.91054L63.1305 3.39047L63.693 3.48342L63.9375 2.00348L64.182 0.523552L63.6195 0.430605L63.375 1.91054ZM63.9375 2.00348L63.693 3.48342C64.0451 3.5416 64.3975 3.60822 64.7502 3.6833L65.0625 2.21618L65.3748 0.749058C64.9775 0.664478 64.5799 0.589299 64.182 0.523552L63.9375 2.00348ZM65.0625 2.21618L64.7502 3.6833L65.3127 3.80305L65.625 2.33593L65.9373 0.868807L65.3748 0.749058L65.0625 2.21618ZM65.625 2.33593L65.3127 3.80305L65.8752 3.9228L66.1875 2.45568L66.4998 0.988556L65.9373 0.868807L65.625 2.33593ZM66.1875 2.45568L65.8752 3.9228C66.6156 4.08042 67.3367 3.95931 67.9856 3.63349L67.3125 2.29298L66.6394 0.952483C66.5383 1.00325 66.5094 0.990601 66.4998 0.988556L66.1875 2.45568ZM67.3125 2.29298L67.9856 3.63349L68.5481 3.35104L67.875 2.01054L67.2019 0.67004L66.6394 0.952483L67.3125 2.29298ZM67.875 2.01054L68.5481 3.35104L69.1106 3.0686L68.4375 1.7281L67.7644 0.387598L67.2019 0.67004L67.875 2.01054ZM68.4375 1.7281L69.1106 3.0686C69.1146 3.06661 69.0733 3.08668 69.0008 3.08672C68.9283 3.08676 68.8869 3.06672 68.8906 3.06857L69.5625 1.72746L70.2344 0.386353C69.4359 -0.0136981 68.5623 -0.0130334 67.7644 0.387598L68.4375 1.7281ZM69.5625 1.72746L68.8906 3.06857L69.4531 3.35038L70.125 2.00927L70.7969 0.66816L70.2344 0.386353L69.5625 1.72746ZM70.125 2.00927L69.4531 3.35038L70.0156 3.63219L70.6875 2.29108L71.3594 0.949967L70.7969 0.66816L70.125 2.00927ZM70.6875 2.29108L70.0156 3.63219C70.3855 3.81748 70.7554 4.00546 71.1253 4.19612L71.8125 2.86278L72.4997 1.52943C72.1196 1.33357 71.7395 1.14041 71.3594 0.949967L70.6875 2.29108ZM71.8125 2.86278L71.1253 4.19612L71.6878 4.48602L72.375 3.15267L73.0622 1.81933L72.4997 1.52943L71.8125 2.86278ZM72.375 3.15267L71.6878 4.48602L72.2503 4.77591L72.9375 3.44257L73.6247 2.10922L73.0622 1.81933L72.375 3.15267ZM72.9375 3.44257L72.2503 4.77591C72.8824 5.10166 73.5868 5.23976 74.3185 5.11303L74.0625 3.63504L73.8065 2.15704C73.7882 2.16021 73.7426 2.17 73.6247 2.10922L72.9375 3.44257ZM74.0625 3.63504L74.3185 5.11303L74.881 5.01561L74.625 3.53761L74.369 2.05962L73.8065 2.15704L74.0625 3.63504ZM74.625 3.53761L74.881 5.01561L75.4435 4.91818L75.1875 3.44019L74.9315 1.96219L74.369 2.05962L74.625 3.53761ZM75.1875 3.44019L75.4435 4.91818C75.5207 4.90482 75.6091 4.90734 75.7402 4.96147L76.3125 3.57495L76.8848 2.18842C76.266 1.93297 75.6044 1.84566 74.9315 1.96219L75.1875 3.44019ZM76.3125 3.57495L75.7402 4.96147L76.3027 5.19365L76.875 3.80713L77.4473 2.4206L76.8848 2.18842L76.3125 3.57495ZM76.875 3.80713L76.3027 5.19365L76.8652 5.42584L77.4375 4.03931L78.0098 2.65279L77.4473 2.4206L76.875 3.80713ZM77.4375 4.03931L76.8652 5.42584C77.3762 5.63676 77.9072 5.76871 78.4536 5.8085L78.5625 4.31246L78.6714 2.81642C78.4678 2.80159 78.2488 2.75144 78.0098 2.65279L77.4375 4.03931ZM78.5625 4.31246L78.4536 5.8085L79.0161 5.84946L79.125 4.35342L79.2339 2.85738L78.6714 2.81642L78.5625 4.31246ZM79.125 4.35342L79.0161 5.84946L79.5786 5.89042L79.6875 4.39438L79.7964 2.89834L79.2339 2.85738L79.125 4.35342ZM79.6875 4.39438L79.5786 5.89042C80.133 5.93079 80.682 5.87204 81.2181 5.72145L80.8125 4.27734L80.4069 2.83323C80.193 2.8933 79.992 2.91258 79.7964 2.89834L79.6875 4.39438ZM80.8125 4.27734L81.2181 5.72145L81.7806 5.56345L81.375 4.11934L80.9694 2.67523L80.4069 2.83323L80.8125 4.27734ZM81.375 4.11934L81.7806 5.56345L82.3431 5.40545L81.9375 3.96134L81.5319 2.51723L80.9694 2.67523L81.375 4.11934ZM81.9375 3.96134L82.3431 5.40545C83.0635 5.2031 83.6617 4.75809 84.1519 4.2401L83.0625 3.20901L81.9731 2.17792C81.7133 2.45237 81.5615 2.50891 81.5319 2.51723L81.9375 3.96134ZM83.0625 3.20901L84.1519 4.2401L84.7144 3.64577L83.625 2.61468L82.5356 1.58359L81.9731 2.17792L83.0625 3.20901ZM83.625 2.61468L84.7144 3.64577L85.2769 3.05144L84.1875 2.02035L83.0981 0.989263L82.5356 1.58359L83.625 2.61468ZM84.1875 2.02035L85.2769 3.05144C85.3718 2.95118 85.4055 2.94583 85.368 2.96276C85.3466 2.97245 85.3077 2.98664 85.2538 2.99473C85.1989 3.00296 85.1415 3.00289 85.0868 2.99455L85.3125 1.51163L85.5382 0.0287104C84.4871 -0.131267 83.6527 0.403265 83.0981 0.989263L84.1875 2.02035ZM85.3125 1.51163L85.0868 2.99455L85.6493 3.08017L85.875 1.59725L86.1007 0.114325L85.5382 0.0287104L85.3125 1.51163ZM85.875 1.59725L85.6493 3.08017L86.2118 3.16578L86.4375 1.68286L86.6632 0.199938L86.1007 0.114325L85.875 1.59725ZM86.4375 1.68286L86.2118 3.16578C86.6452 3.23175 87.0798 3.27174 87.5151 3.28549L87.5625 1.78624L87.6099 0.286989C87.2952 0.277051 86.9798 0.248122 86.6632 0.199938L86.4375 1.68286ZM87.5625 1.78624L87.5151 3.28549L88.0776 3.30326L88.125 1.80401L88.1724 0.304756L87.6099 0.286989L87.5625 1.78624ZM88.125 1.80401L88.0776 3.30326L88.6401 3.32103L88.6875 1.82178L88.7349 0.322524L88.1724 0.304756L88.125 1.80401ZM88.6875 1.82178L88.6401 3.32103C88.5928 3.31953 88.553 3.31145 88.5239 3.3024C88.4957 3.29366 88.4837 3.28596 88.4883 3.28865C88.5016 3.2965 88.569 3.34116 88.6817 3.47049L89.8125 2.48495L90.9433 1.49941C90.4363 0.917636 89.7023 0.353082 88.7349 0.322524L88.6875 1.82178ZM89.8125 2.48495L88.6817 3.47049L89.2442 4.1159L90.375 3.13036L91.5058 2.14482L90.9433 1.49941L89.8125 2.48495ZM90.375 3.13036L89.2442 4.1159L89.8067 4.76131L90.9375 3.77577L92.0683 2.79023L91.5058 2.14482L90.375 3.13036ZM90.9375 3.77577L89.8067 4.76131C90.3586 5.39455 91.2817 6.0342 92.4543 5.7169L92.0625 4.26897L91.6707 2.82105C91.7398 2.80235 91.821 2.79329 91.9067 2.80048C91.9913 2.80758 92.0581 2.82863 92.1023 2.848C92.1809 2.88246 92.1641 2.90016 92.0683 2.79023L90.9375 3.77577ZM92.0625 4.26897L92.4543 5.7169L93.0168 5.56469L92.625 4.11676L92.2332 2.66884L91.6707 2.82105L92.0625 4.26897ZM92.625 4.11676L93.0168 5.56469L93.5793 5.41248L93.1875 3.96455L92.7957 2.51663L92.2332 2.66884L92.625 4.11676ZM93.1875 3.96455L93.5793 5.41248C94.1964 5.24549 94.754 4.92972 95.2531 4.52797L94.3125 3.35952L93.3719 2.19108C93.121 2.39308 92.9286 2.48067 92.7957 2.51663L93.1875 3.96455ZM94.3125 3.35952L95.2531 4.52797L95.8156 4.07515L94.875 2.9067L93.9344 1.73826L93.3719 2.19108L94.3125 3.35952ZM94.875 2.9067L95.8156 4.07515L96.3781 3.62233L95.4375 2.45388L94.4969 1.28544L93.9344 1.73826L94.875 2.9067ZM95.4375 2.45388L96.3781 3.62233C96.3468 3.64749 96.1524 3.78045 95.8454 3.74863C95.5684 3.71992 95.4524 3.58113 95.4954 3.62464L96.5625 2.57048L97.6296 1.51631C97.2976 1.18021 96.8067 0.832188 96.1546 0.764614C95.4726 0.693933 94.9032 0.958395 94.4969 1.28544L95.4375 2.45388ZM96.5625 2.57048L95.4954 3.62464L96.0579 4.19405L97.125 3.13989L98.1921 2.08573L97.6296 1.51631L96.5625 2.57048ZM97.125 3.13989L96.0579 4.19405L96.6204 4.76346L97.6875 3.7093L98.7546 2.65514L98.1921 2.08573L97.125 3.13989ZM97.6875 3.7093L96.6204 4.76346C96.9903 5.13795 97.6063 5.54449 98.4184 5.45276C99.1734 5.36748 99.6832 4.89149 99.9794 4.52468L98.8125 3.58223L97.6455 2.63977C97.5668 2.73729 97.7016 2.51464 98.0816 2.47172C98.279 2.44942 98.4549 2.48882 98.5839 2.54684C98.6436 2.57368 98.6866 2.60135 98.7133 2.62091C98.7399 2.64032 98.7533 2.65376 98.7546 2.65514L97.6875 3.7093ZM98.8125 3.58223L99.9794 4.52468L100.542 3.82819L99.375 2.88574L98.208 1.94328L97.6455 2.63977L98.8125 3.58223ZM99.375 2.88574L100.542 3.82819L101.104 3.13171L99.9375 2.18925L98.7705 1.24679L98.208 1.94328L99.375 2.88574ZM99.9375 2.18925L101.104 3.13171C101.16 3.06353 101.203 3.01802 101.235 2.9892C101.266 2.96033 101.28 2.9527 101.275 2.95586C101.269 2.95947 101.241 2.97501 101.193 2.98876C101.143 3.00296 101.082 3.01215 101.015 3.00999L101.062 1.51076L101.11 0.0115237C100.043 -0.0226455 99.2647 0.634951 98.7705 1.24679L99.9375 2.18925ZM101.062 1.51076L101.015 3.00999L101.577 3.02799L101.625 1.52875L101.673 0.029521L101.11 0.0115237L101.062 1.51076ZM101.625 1.52875L101.577 3.02799L102.14 3.04598L102.188 1.54675L102.235 0.0475183L101.673 0.029521L101.625 1.52875ZM102.188 1.54675L102.14 3.04598C102.373 3.05347 102.615 3.0936 102.867 3.17202L103.312 1.73971L103.758 0.307403C103.26 0.152542 102.752 0.0640306 102.235 0.0475183L102.188 1.54675ZM103.312 1.73971L102.867 3.17202L103.429 3.34699L103.875 1.91468L104.321 0.482368L103.758 0.307403L103.312 1.73971ZM103.875 1.91468L103.429 3.34699L103.992 3.52195L104.438 2.08964L104.883 0.657333L104.321 0.482368L103.875 1.91468ZM104.438 2.08964L103.992 3.52195C104.28 3.61165 104.577 3.73245 104.881 3.88773L105.562 2.55126L106.244 1.2148C105.798 0.987867 105.345 0.800925 104.883 0.657333L104.438 2.08964ZM105.562 2.55126L104.881 3.88773L105.444 4.17438L106.125 2.83792L106.806 1.50146L106.244 1.2148L105.562 2.55126ZM106.125 2.83792L105.444 4.17438L106.006 4.46104L106.688 3.12458L107.369 1.78811L106.806 1.50146L106.125 2.83792ZM106.688 3.12458L106.006 4.46104C106.735 4.83242 107.548 4.90152 108.339 4.60454L107.812 3.20016L107.286 1.79578C107.283 1.79671 107.289 1.79418 107.303 1.79207C107.317 1.78991 107.333 1.78902 107.351 1.79017C107.368 1.79131 107.379 1.79407 107.384 1.79554C107.389 1.79689 107.384 1.79595 107.369 1.78811L106.688 3.12458ZM107.812 3.20016L108.339 4.60454L108.902 4.39347L108.375 2.98909L107.848 1.5847L107.286 1.79578L107.812 3.20016ZM108.375 2.98909L108.902 4.39347L109.464 4.18239L108.938 2.77801L108.411 1.37363L107.848 1.5847L108.375 2.98909ZM108.938 2.77801L109.464 4.18239C109.824 4.04736 110.184 3.91905 110.543 3.79746L110.062 2.3766L109.582 0.955742C109.191 1.08793 108.801 1.22724 108.411 1.37363L108.938 2.77801ZM110.062 2.3766L110.543 3.79746L111.106 3.60712L110.625 2.18626L110.144 0.765404L109.582 0.955742L110.062 2.3766ZM110.625 2.18626L111.106 3.60712L111.668 3.41679L111.188 1.99593L110.707 0.575067L110.144 0.765404L110.625 2.18626ZM111.188 1.99593L111.668 3.41679C111.884 3.34383 112.082 3.31591 112.269 3.32137L112.312 1.82201L112.356 0.32265C111.793 0.30622 111.241 0.394244 110.707 0.575067L111.188 1.99593ZM112.312 1.82201L112.269 3.32137L112.831 3.33779L112.875 1.83843L112.919 0.339073L112.356 0.32265L112.312 1.82201ZM112.875 1.83843L112.831 3.33779L113.394 3.35422L113.438 1.85486L113.481 0.355494L112.919 0.339073L112.875 1.83843ZM113.438 1.85486L113.394 3.35422C113.396 3.35429 113.483 3.35379 113.672 3.49332L114.562 2.28624L115.453 1.07916C114.892 0.665407 114.229 0.377313 113.481 0.355494L113.438 1.85486ZM114.562 2.28624L113.672 3.49332L114.235 3.90829L115.125 2.70121L116.015 1.49413L115.453 1.07916L114.562 2.28624ZM115.125 2.70121L114.235 3.90829L114.797 4.32326L115.688 3.11618L116.578 1.9091L116.015 1.49413L115.125 2.70121ZM115.688 3.11618L114.797 4.32326C115.409 4.77465 116.167 5.05596 117.013 4.94181L116.812 3.45527L116.612 1.96873C116.625 1.96693 116.641 1.96644 116.656 1.9677C116.671 1.96895 116.68 1.97146 116.683 1.97225C116.688 1.97374 116.653 1.96427 116.578 1.9091L115.688 3.11618ZM116.812 3.45527L117.013 4.94181L117.576 4.86594L117.375 3.3794L117.174 1.89286L116.612 1.96873L116.812 3.45527ZM117.375 3.3794L117.576 4.86594L118.138 4.79006L117.938 3.30352L117.737 1.81699L117.174 1.89286L117.375 3.3794ZM117.938 3.30352L118.138 4.79006C118.386 4.75658 118.633 4.75509 118.88 4.78541L119.062 3.29653L119.245 1.80765C118.742 1.74613 118.239 1.7493 117.737 1.81699L117.938 3.30352ZM119.062 3.29653L118.88 4.78541L119.443 4.85428L119.625 3.3654L119.807 1.87652L119.245 1.80765L119.062 3.29653ZM119.625 3.3654L119.443 4.85428L120.005 4.92316L120.188 3.43428L120.37 1.9454L119.807 1.87652L119.625 3.3654ZM120.188 3.43428L120.005 4.92316C120.774 5.01734 121.488 4.81027 122.103 4.42944L121.312 3.15449L120.522 1.87955C120.449 1.92508 120.404 1.93901 120.388 1.94311C120.374 1.94653 120.371 1.94557 120.37 1.9454L120.188 3.43428ZM121.312 3.15449L122.103 4.42944L122.665 4.08077L121.875 2.80583L121.085 1.53089L120.522 1.87955L121.312 3.15449ZM121.875 2.80583L122.665 4.08077L123.228 3.73211L122.438 2.45717L121.647 1.18222L121.085 1.53089L121.875 2.80583ZM122.438 2.45717L123.228 3.73211C123.235 3.72774 123.175 3.76491 123.063 3.76963C122.948 3.77449 122.871 3.74115 122.854 3.73206L123.562 2.4097L124.271 1.08734C123.402 0.622375 122.457 0.680574 121.647 1.18222L122.438 2.45717ZM123.562 2.4097L122.854 3.73206L123.417 4.03325L124.125 2.71089L124.833 1.38853L124.271 1.08734L123.562 2.4097ZM124.125 2.71089L123.417 4.03325L123.979 4.33445L124.688 3.01209L125.396 1.68973L124.833 1.38853L124.125 2.71089ZM124.688 3.01209L123.979 4.33445C124.844 4.79718 125.786 4.74398 126.597 4.2472L125.812 2.96841L125.028 1.68963C125.022 1.69351 125.081 1.65718 125.192 1.6529C125.305 1.6485 125.38 1.68134 125.396 1.68973L124.688 3.01209ZM125.812 2.96841L126.597 4.2472L127.159 3.90233L126.375 2.62354L125.591 1.34475L125.028 1.68963L125.812 2.96841ZM126.375 2.62354L127.159 3.90233L127.722 3.55745L126.938 2.27867L126.153 0.99988L125.591 1.34475L126.375 2.62354ZM126.938 2.27867L127.722 3.55745C127.894 3.45154 127.989 3.44483 128.03 3.44572L128.062 1.94607L128.095 0.44643C127.386 0.430941 126.731 0.645962 126.153 0.99988L126.938 2.27867ZM128.062 1.94607L128.03 3.44572L128.592 3.458L128.625 1.95835L128.658 0.45871L128.095 0.44643L128.062 1.94607ZM128.625 1.95835L128.592 3.458L129.155 3.47027L129.188 1.97063L129.22 0.470989L128.658 0.45871L128.625 1.95835ZM129.188 1.97063L129.155 3.47027C129.106 3.4692 129.083 3.45609 129.099 3.46367C129.12 3.47375 129.183 3.50942 129.284 3.60463L130.312 2.51239L131.341 1.42016C130.797 0.908429 130.085 0.489865 129.22 0.470989L129.188 1.97063ZM130.312 2.51239L129.284 3.60463L129.847 4.13411L130.875 3.04188L131.903 1.94964L131.341 1.42016L130.312 2.51239ZM130.875 3.04188L129.847 4.13411L130.409 4.66359L131.438 3.57136L132.466 2.47913L131.903 1.94964L130.875 3.04188ZM131.438 3.57136L130.409 4.66359C130.72 4.95605 131.117 5.22714 131.607 5.36007C132.121 5.49951 132.641 5.45996 133.118 5.26987L132.562 3.87655L132.007 2.48323C132.049 2.46637 132.11 2.44943 132.186 2.44462C132.262 2.43977 132.333 2.44853 132.393 2.46472C132.508 2.49592 132.53 2.53965 132.466 2.47913L131.438 3.57136ZM132.562 3.87655L133.118 5.26987L133.681 5.04558L133.125 3.65226L132.569 2.25894L132.007 2.48323L132.562 3.87655ZM133.125 3.65226L133.681 5.04558L134.243 4.82129L133.688 3.42797L133.132 2.03465L132.569 2.25894L133.125 3.65226ZM133.688 3.42797L134.243 4.82129C134.638 4.66365 135.033 4.49621 135.427 4.31901L134.812 2.95085L134.198 1.5827C133.842 1.74259 133.487 1.89323 133.132 2.03465L133.688 3.42797ZM134.812 2.95085L135.427 4.31901L135.99 4.06619L135.375 2.69803L134.76 1.32987L134.198 1.5827L134.812 2.95085ZM135.375 2.69803L135.99 4.06619L136.552 3.81337L135.938 2.44521L135.323 1.07705L134.76 1.32987L135.375 2.69803ZM135.938 2.44521L136.552 3.81337C136.567 3.80669 136.574 3.80539 136.572 3.80582C136.57 3.80632 136.563 3.80772 136.552 3.80809C136.542 3.80846 136.533 3.8076 136.526 3.80653C136.52 3.8055 136.521 3.80499 136.53 3.80829L137.062 2.406L137.595 1.00372C136.838 0.716185 136.05 0.749985 135.323 1.07705L135.938 2.44521ZM137.062 2.406L136.53 3.80829L137.092 4.02191L137.625 2.61962L138.158 1.21733L137.595 1.00372L137.062 2.406ZM137.625 2.61962L137.092 4.02191L137.655 4.23552L138.188 2.83323L138.72 1.43094L138.158 1.21733L137.625 2.61962ZM138.188 2.83323L137.655 4.23552C137.868 4.31655 138.079 4.38865 138.276 4.44016C138.43 4.48045 138.736 4.55426 139.073 4.52374L138.938 3.02986L138.802 1.53598C138.871 1.52971 138.926 1.53067 138.96 1.53241C138.996 1.5342 139.022 1.53743 139.035 1.53937C139.06 1.54297 139.063 1.54507 139.037 1.53823C139.013 1.53193 138.974 1.52072 138.919 1.50234C138.864 1.48417 138.798 1.46067 138.72 1.43094L138.188 2.83323ZM138.938 3.02986L139.073 4.52374L139.26 4.50675L139.125 3.01287L138.99 1.51899L138.802 1.53598L138.938 3.02986ZM139.125 3.01287L139.309 4.50155L139.584 4.46757L139.4 2.97889L139.216 1.49021L138.941 1.52419L139.125 3.01287ZM139.4 2.97889V4.47889H139.5V2.97889V1.47889H139.4V2.97889Z" fill="black"/>
</svg>
