<svg width="45" height="45" viewBox="0 0 45 45" fill="none" xmlns="http://www.w3.org/2000/svg">
<path d="M2.23225 14.4774C2.23225 7.74745 7.68795 2.29175 14.4179 2.29175H30.6654C37.3954 2.29175 42.8511 7.74745 42.8511 14.4774V30.7249C42.8511 37.4549 37.3954 42.9106 30.6654 42.9106H14.4179C7.68795 42.9106 2.23225 37.4549 2.23225 30.7249V14.4774Z" fill="#CFF2D8"/>
<path d="M15.5603 1.84132L15.0016 0.424282L15.5603 1.84132ZM25.2707 2.97973L25.0509 4.48698L25.2707 2.97973ZM27.5555 1.8577L26.6792 0.611831L27.5555 1.8577ZM30.971 2.97604L30.7146 1.47456L30.971 2.97604ZM31.5304 2.88053L31.7868 4.38201L31.5304 2.88053ZM32.0899 2.78502L31.8335 1.28354L32.0899 2.78502ZM33.2092 2.78088L32.9638 4.28419L33.2092 2.78088ZM33.769 2.87225L34.0144 1.36893L33.769 2.87225ZM34.3289 2.96362L34.5743 1.46031L34.3289 2.96362ZM35.3393 3.40671L34.4019 4.60731L35.3393 3.40671ZM36.2402 4.11014L37.1776 2.90955L36.2402 4.11014ZM37.2365 4.66869L37.7762 3.24434L37.2365 4.66869ZM38.328 5.08236L37.7882 6.50672L38.328 5.08236ZM39.3916 5.61549L40.2037 4.3268L39.3916 5.61549ZM40.4273 6.26809L41.2393 4.97939L40.4273 6.26809ZM41.2179 7.13287L42.5767 6.44448L41.2179 7.13287ZM41.4907 7.67136L40.132 8.35975L41.4907 7.67136ZM42.2259 9.31125L40.7824 9.79735L42.2259 9.31125ZM42.605 10.4371L44.0486 9.95098L42.605 10.4371ZM42.8647 11.584L44.377 11.4024L42.8647 11.584ZM43.0049 12.752L41.4926 12.9336L43.0049 12.752ZM43.2185 16.2161L41.7195 15.9458L43.2185 16.2161ZM43.0126 17.3585L44.5116 17.6287L43.0126 17.3585ZM43.047 18.5009L41.5661 18.8572L43.047 18.5009ZM43.3219 19.6433L44.8028 19.287L43.3219 19.6433ZM43.1409 20.7857L44.4713 21.5274L43.1409 20.7857ZM42.504 21.9281L41.1735 21.1864L42.504 21.9281ZM42.3246 23.0705L43.8045 22.7101L42.3246 23.0705ZM42.6028 24.2129L41.1229 24.5733L42.6028 24.2129ZM42.8147 25.3553L44.3257 25.1627L42.8147 25.3553ZM42.8875 25.9265L41.3766 26.1191L42.8875 25.9265ZM42.9604 26.4977L44.4713 26.3051L42.9604 26.4977ZM42.8979 27.6401L44.3801 27.9912L42.8979 27.6401ZM42.7626 28.2113L44.2448 28.5624L42.7626 28.2113ZM42.6273 28.7825L41.1451 28.4315L42.6273 28.7825ZM42.653 29.9308L44.1202 29.5216L42.653 29.9308ZM42.814 30.508L44.2812 30.0987L42.814 30.508ZM42.975 31.0851L41.5078 31.4943L42.975 31.0851ZM42.7924 32.1734L44.0565 33.0231L42.7924 32.1734ZM42.1052 33.1957L40.841 32.346L42.1052 33.1957ZM41.74 34.2908L40.2178 34.2343L41.74 34.2908ZM41.6966 35.4585L43.2188 35.515L41.6966 35.4585ZM41.5476 36.6573L40.0561 36.3485L41.5476 36.6573ZM41.4203 37.2722L39.9287 36.9633L41.4203 37.2722ZM41.293 37.887L42.7846 38.1959L41.293 37.887ZM40.4536 38.6283L40.1874 37.1286L40.4536 38.6283ZM39.0293 38.8811L39.2955 40.3809L39.0293 38.8811ZM38.1353 39.7077L36.6611 39.3248L38.1353 39.7077ZM37.7716 41.1081L39.2459 41.4911L37.7716 41.1081ZM37.0085 41.9942L37.4726 43.445L37.0085 41.9942ZM35.8461 42.3661L36.3102 43.8169L35.8461 42.3661ZM34.6855 42.6708L34.3797 41.1786L34.6855 42.6708ZM33.5268 42.9083L33.8327 44.4005L33.5268 42.9083ZM32.3643 42.7821L31.7743 44.1864L32.3643 42.7821ZM31.1983 42.2922L31.7883 40.8879L31.1983 42.2922ZM30.0441 42.105L30.1972 43.6204L30.0441 42.105ZM28.9016 42.2204L28.7485 40.7049L28.9016 42.2204ZM27.7592 42.3114L27.6706 40.7908L27.7592 42.3114ZM26.6168 42.378L26.7054 43.8986L26.6168 42.378ZM25.4744 42.6689L24.848 41.2805L25.4744 42.6689ZM24.9032 42.9266L25.5296 44.3151L24.9032 42.9266ZM24.332 43.1843L23.7056 41.7959L24.332 43.1843ZM23.1896 43.1357L23.9096 41.7934L23.1896 43.1357ZM22.0472 42.5229L21.3272 43.8652L22.0472 42.5229ZM20.9048 42.5525L20.1325 41.2396L20.9048 42.5525ZM19.7624 43.2245L18.9901 41.9116L19.7624 43.2245ZM18.62 43.4492L18.9114 41.9541L18.62 43.4492ZM18.0488 43.3378L18.3402 41.8428L18.0488 43.3378ZM17.4776 43.2265L17.1862 44.7216L17.4776 43.2265ZM16.3352 43.2015L16.1076 41.6954L16.3352 43.2015ZM15.764 43.2878L15.9916 44.7939L15.764 43.2878ZM15.1928 43.3742L14.9652 41.8681L15.1928 43.3742ZM14.0345 43.3854L13.8412 44.8963L14.0345 43.3854ZM12.8603 43.2351L13.0536 41.7242L12.8603 43.2351ZM11.7252 42.9467L11.1725 44.3661L11.7252 42.9467ZM11.1772 42.7333L10.6245 44.1527L11.1772 42.7333ZM10.6292 42.5199L10.0765 43.9393L10.6292 42.5199ZM9.70218 41.8211L10.9027 40.8836L9.70218 41.8211ZM8.94404 40.8502L7.7435 41.7877L8.94404 40.8502ZM7.95476 40.2566L7.68886 41.7564L7.95476 40.2566ZM6.73435 40.0403L7.00024 38.5404L6.73435 40.0403ZM5.90884 39.3702L4.48647 39.9152L5.90884 39.3702ZM4.65101 37.3911L3.99255 38.7647L4.65101 37.3911ZM4.03909 37.0978L4.69754 35.7243L4.03909 37.0978ZM3.42717 36.8044L4.08562 35.4309L3.42717 36.8044ZM2.59465 35.9455L1.17556 36.499L2.59465 35.9455ZM2.15342 34.8142L0.734338 35.3677L2.15342 34.8142ZM2.20803 33.6179L3.60409 34.2272L2.20803 33.6179ZM2.75845 32.3567L1.36239 31.7474L2.75845 32.3567ZM2.6243 31.1713L3.84988 30.2668L2.6243 31.1713ZM1.80558 30.062L0.579996 30.9664L1.80558 30.062ZM1.66435 28.9361L0.285514 28.2888L1.66435 28.9361ZM2.20063 27.7937L3.57947 28.4409L2.20063 27.7937ZM1.66008 24.3665L0.285543 23.7101L1.66008 24.3665ZM1.72219 14.0546L0.201287 13.9709L1.72219 14.0546ZM1.84859 12.8856L0.344659 12.644L1.84859 12.8856ZM2.48767 10.6355L3.71718 11.5347L2.48767 10.6355ZM2.84353 10.1489L1.61401 9.24976L2.84353 10.1489ZM4.20724 8.2567L5.44954 9.13809L4.20724 8.2567ZM4.53323 7.79722L3.29093 6.91583L4.53323 7.79722ZM5.58926 5.66529L4.19325 5.05593L5.58926 5.66529ZM6.4861 5.03795L6.32419 3.52337L6.4861 5.03795ZM8.79548 4.26289L10.0918 5.06269L8.79548 4.26289ZM9.14436 3.69742L7.84803 2.89762L9.14436 3.69742ZM9.49324 3.13194L8.19691 2.33214L9.49324 3.13194ZM11.0251 2.42614L10.8457 0.91354L11.0251 2.42614ZM12.7606 2.43528L13.1584 0.964933L12.7606 2.43528ZM15.5603 1.84132L16.119 3.25836L16.6902 3.03314L16.1315 1.6161L15.5728 0.199067L15.0016 0.424282L15.5603 1.84132ZM16.1315 1.6161L16.6902 3.03314C16.6865 3.03459 16.6722 3.0397 16.6487 3.04332C16.6248 3.047 16.5981 3.04808 16.5713 3.04575C16.5138 3.04078 16.4946 3.02416 16.5221 3.03979L17.2739 1.71502L18.0257 0.39025C17.2764 -0.0348992 16.415 -0.133009 15.5728 0.199067L16.1315 1.6161ZM17.2739 1.71502L16.5221 3.03979L17.0933 3.36393L17.8451 2.03916L18.5969 0.714383L18.0257 0.39025L17.2739 1.71502ZM17.8451 2.03916L17.0933 3.36393L17.6646 3.68806L18.4163 2.36329L19.1681 1.03852L18.5969 0.714383L17.8451 2.03916ZM18.4163 2.36329L17.6646 3.68806C18.3061 4.05209 19.0378 4.22323 19.809 4.09476L19.5587 2.59226L19.3084 1.08976C19.3014 1.09094 19.2972 1.09117 19.2869 1.0891C19.2741 1.08653 19.2353 1.07667 19.1681 1.03852L18.4163 2.36329ZM19.5587 2.59226L19.809 4.09476L20.3802 3.9996L20.1299 2.4971L19.8796 0.994606L19.3084 1.08976L19.5587 2.59226ZM20.1299 2.4971L20.3802 3.9996L20.9514 3.90444L20.7011 2.40195L20.4508 0.899448L19.8796 0.994606L20.1299 2.4971ZM20.7011 2.40195L20.9514 3.90444C21.1568 3.87022 21.3591 3.87195 21.5662 3.91029L21.8435 2.41254L22.1208 0.914787C21.5663 0.81213 21.007 0.806794 20.4508 0.899448L20.7011 2.40195ZM21.8435 2.41254L21.5662 3.91029L22.1374 4.01604L22.4147 2.51829L22.692 1.02054L22.1208 0.914787L21.8435 2.41254ZM22.4147 2.51829L22.1374 4.01604L22.7086 4.1218L22.9859 2.62404L23.2632 1.12629L22.692 1.02054L22.4147 2.51829ZM22.9859 2.62404L22.7086 4.1218C23.1084 4.19581 23.5084 4.262 23.9085 4.32036L24.1283 2.81311L24.3482 1.30585C23.9867 1.25313 23.625 1.19328 23.2632 1.12629L22.9859 2.62404ZM24.1283 2.81311L23.9085 4.32036L24.4797 4.40367L24.6995 2.89642L24.9194 1.38916L24.3482 1.30585L24.1283 2.81311ZM24.6995 2.89642L24.4797 4.40367L25.0509 4.48698L25.2707 2.97973L25.4906 1.47247L24.9194 1.38916L24.6995 2.89642ZM25.2707 2.97973L25.0509 4.48698C25.8949 4.61008 26.6609 4.34928 27.2895 3.90713L26.4131 2.66126L25.5368 1.41539C25.4638 1.46677 25.4293 1.47551 25.4329 1.47451C25.4347 1.474 25.4426 1.47205 25.4553 1.47121C25.4681 1.47036 25.4804 1.47099 25.4906 1.47247L25.2707 2.97973ZM26.4131 2.66126L27.2895 3.90713L27.8607 3.50535L26.9843 2.25948L26.108 1.01361L25.5368 1.41539L26.4131 2.66126ZM26.9843 2.25948L27.8607 3.50535L28.4319 3.10357L27.5555 1.8577L26.6792 0.611831L26.108 1.01361L26.9843 2.25948ZM27.5555 1.8577L28.4319 3.10357C28.4231 3.10977 28.3125 3.1809 28.1239 3.18055C27.9356 3.1802 27.8261 3.10885 27.8185 3.10351L28.6979 1.85983L29.5774 0.616142C29.189 0.341537 28.6987 0.135201 28.1296 0.134141C27.5602 0.133081 27.0688 0.337782 26.6792 0.611831L27.5555 1.8577ZM28.6979 1.85983L27.8185 3.10351L28.3897 3.50742L29.2691 2.26373L30.1486 1.02005L29.5774 0.616142L28.6979 1.85983ZM29.2691 2.26373L28.3897 3.50742L28.9609 3.91133L29.8403 2.66764L30.7198 1.42395L30.1486 1.02005L29.2691 2.26373ZM29.8403 2.66764L28.9609 3.91133C29.5899 4.35608 30.3681 4.62421 31.2273 4.47752L30.971 2.97604L30.7146 1.47456C30.7314 1.4717 30.7505 1.47043 30.7699 1.47144C30.7892 1.47245 30.8029 1.47539 30.8094 1.47717C30.8221 1.48063 30.7924 1.47534 30.7198 1.42395L29.8403 2.66764ZM30.971 2.97604L31.2273 4.47752L31.7868 4.38201L31.5304 2.88053L31.2741 1.37905L30.7146 1.47456L30.971 2.97604ZM31.5304 2.88053L31.7868 4.38201L32.3462 4.2865L32.0899 2.78502L31.8335 1.28354L31.2741 1.37905L31.5304 2.88053ZM32.0899 2.78502L32.3462 4.2865C32.5533 4.25115 32.7568 4.25041 32.9638 4.28419L33.2092 2.78088L33.4545 1.27756C32.915 1.18951 32.3724 1.19154 31.8335 1.28354L32.0899 2.78502ZM33.2092 2.78088L32.9638 4.28419L33.5237 4.37557L33.769 2.87225L34.0144 1.36893L33.4545 1.27756L33.2092 2.78088ZM33.769 2.87225L33.5237 4.37557L34.0836 4.46694L34.3289 2.96362L34.5743 1.46031L34.0144 1.36893L33.769 2.87225ZM34.3289 2.96362L34.0836 4.46694C34.2024 4.48633 34.3016 4.52901 34.4019 4.60731L35.3393 3.40671L36.2767 2.20611C35.7763 1.81545 35.2019 1.56274 34.5743 1.46031L34.3289 2.96362ZM35.3393 3.40671L34.4019 4.60731L34.8523 4.95903L35.7897 3.75843L36.7271 2.55783L36.2767 2.20611L35.3393 3.40671ZM35.7897 3.75843L34.8523 4.95903L35.3028 5.31074L36.2402 4.11014L37.1776 2.90955L36.7271 2.55783L35.7897 3.75843ZM36.2402 4.11014L35.3028 5.31074C35.7262 5.64135 36.1929 5.90213 36.6967 6.09305L37.2365 4.66869L37.7762 3.24434C37.5523 3.15948 37.3548 3.04789 37.1776 2.90955L36.2402 4.11014ZM37.2365 4.66869L36.6967 6.09305L37.2425 6.29988L37.7822 4.87553L38.322 3.45117L37.7762 3.24434L37.2365 4.66869ZM37.7822 4.87553L37.2425 6.29988L37.7882 6.50672L38.328 5.08236L38.8678 3.658L38.322 3.45117L37.7822 4.87553ZM38.328 5.08236L37.7882 6.50672C38.0525 6.60688 38.3162 6.73822 38.5796 6.90419L39.3916 5.61549L40.2037 4.3268C39.7766 4.0577 39.3312 3.83362 38.8678 3.658L38.328 5.08236ZM39.3916 5.61549L38.5796 6.90419L39.0974 7.23049L39.9095 5.94179L40.7215 4.65309L40.2037 4.3268L39.3916 5.61549ZM39.9095 5.94179L39.0974 7.23049L39.6152 7.55678L40.4273 6.26809L41.2393 4.97939L40.7215 4.65309L39.9095 5.94179ZM40.4273 6.26809L39.6152 7.55678C39.7307 7.62953 39.8037 7.71174 39.8592 7.82126L41.2179 7.13287L42.5767 6.44448C42.2684 5.83602 41.8143 5.34171 41.2393 4.97939L40.4273 6.26809ZM41.2179 7.13287L39.8592 7.82126L40.132 8.35975L41.4907 7.67136L42.8495 6.98297L42.5767 6.44448L41.2179 7.13287ZM41.4907 7.67136L40.132 8.35975L40.4048 8.89823L41.7636 8.20984L43.1223 7.52145L42.8495 6.98297L41.4907 7.67136ZM41.7636 8.20984L40.4048 8.89823C40.5541 9.19298 40.6797 9.49257 40.7824 9.79735L42.2259 9.31125L43.6695 8.82515C43.5194 8.37937 43.3367 7.94469 43.1223 7.52145L41.7636 8.20984ZM42.2259 9.31125L40.7824 9.79735L40.9719 10.3603L42.4155 9.87417L43.859 9.38807L43.6695 8.82515L42.2259 9.31125ZM42.4155 9.87417L40.9719 10.3603L41.1615 10.9232L42.605 10.4371L44.0486 9.95098L43.859 9.38807L42.4155 9.87417ZM42.605 10.4371L41.1615 10.9232C41.2549 11.2006 41.3182 11.4809 41.3524 11.7656L42.8647 11.584L44.377 11.4024C44.3177 10.9085 44.2079 10.4242 44.0486 9.95098L42.605 10.4371ZM42.8647 11.584L41.3524 11.7656L41.4225 12.3496L42.9348 12.168L44.4472 11.9865L44.377 11.4024L42.8647 11.584ZM42.9348 12.168L41.4225 12.3496L41.4926 12.9336L43.0049 12.752L44.5173 12.5705L44.4472 11.9865L42.9348 12.168ZM43.0049 12.752L41.4926 12.9336C41.5385 13.3164 41.5817 13.6968 41.622 14.0749L43.1366 13.9132L44.6512 13.7516C44.6095 13.36 44.5648 12.9663 44.5173 12.5705L43.0049 12.752ZM43.1366 13.9132L41.622 14.0749L41.6837 14.6521L43.1983 14.4904L44.7129 14.3288L44.6512 13.7516L43.1366 13.9132ZM43.1983 14.4904L41.6837 14.6521L41.7453 15.2293L43.2599 15.0677L44.7745 14.906L44.7129 14.3288L43.1983 14.4904ZM43.2599 15.0677L41.7453 15.2293C41.771 15.4702 41.7624 15.7076 41.7195 15.9458L43.2185 16.2161L44.7175 16.4863C44.8119 15.963 44.8309 15.4348 44.7745 14.906L43.2599 15.0677ZM43.2185 16.2161L41.7195 15.9458L41.6165 16.517L43.1155 16.7873L44.6146 17.0575L44.7175 16.4863L43.2185 16.2161ZM43.1155 16.7873L41.6165 16.517L41.5135 17.0882L43.0126 17.3585L44.5116 17.6287L44.6146 17.0575L43.1155 16.7873ZM43.0126 17.3585L41.5135 17.0882C41.4069 17.6795 41.4257 18.2736 41.5661 18.8572L43.047 18.5009L44.528 18.1446C44.4851 17.9665 44.4809 17.7991 44.5116 17.6287L43.0126 17.3585ZM43.047 18.5009L41.5661 18.8572L41.7035 19.4284L43.1845 19.0721L44.6654 18.7158L44.528 18.1446L43.047 18.5009ZM43.1845 19.0721L41.7035 19.4284L41.8409 19.9996L43.3219 19.6433L44.8028 19.287L44.6654 18.7158L43.1845 19.0721ZM43.3219 19.6433L41.8409 19.9996C41.8413 20.0011 41.8405 19.9979 41.8402 19.9914C41.8399 19.9848 41.8404 19.9792 41.8409 19.9761C41.8414 19.9732 41.8412 19.9764 41.8375 19.9867C41.8337 19.9972 41.8259 20.0163 41.8105 20.044L43.1409 20.7857L44.4713 21.5274C44.8471 20.8534 44.9943 20.0828 44.8028 19.287L43.3219 19.6433ZM43.1409 20.7857L41.8105 20.044L41.492 20.6152L42.8224 21.3569L44.1528 22.0986L44.4713 21.5274L43.1409 20.7857ZM42.8224 21.3569L41.492 20.6152L41.1735 21.1864L42.504 21.9281L43.8344 22.6698L44.1528 22.0986L42.8224 21.3569ZM42.504 21.9281L41.1735 21.1864C40.797 21.8617 40.6506 22.634 40.8446 23.4309L42.3246 23.0705L43.8045 22.7101C43.8042 22.7087 43.8051 22.7122 43.8054 22.7191C43.8057 22.726 43.8052 22.732 43.8047 22.7355C43.8041 22.7389 43.8042 22.7361 43.8077 22.7261C43.8114 22.716 43.8191 22.6973 43.8344 22.6698L42.504 21.9281ZM42.3246 23.0705L40.8446 23.4309L40.9837 24.0021L42.4637 23.6417L43.9437 23.2813L43.8045 22.7101L42.3246 23.0705ZM42.4637 23.6417L40.9837 24.0021L41.1229 24.5733L42.6028 24.2129L44.0828 23.8525L43.9437 23.2813L42.4637 23.6417ZM42.6028 24.2129L41.1229 24.5733C41.2024 24.9 41.2626 25.2248 41.3037 25.5479L42.8147 25.3553L44.3257 25.1627C44.2698 24.7243 44.1887 24.2874 44.0828 23.8525L42.6028 24.2129ZM42.8147 25.3553L41.3037 25.5479L41.3766 26.1191L42.8875 25.9265L44.3985 25.7339L44.3257 25.1627L42.8147 25.3553ZM42.8875 25.9265L41.3766 26.1191L41.4494 26.6903L42.9604 26.4977L44.4713 26.3051L44.3985 25.7339L42.8875 25.9265ZM42.9604 26.4977L41.4494 26.6903C41.4743 26.8861 41.4645 27.0828 41.4157 27.2891L42.8979 27.6401L44.3801 27.9912C44.5116 27.4359 44.5435 26.8709 44.4713 26.3051L42.9604 26.4977ZM42.8979 27.6401L41.4157 27.2891L41.2804 27.8603L42.7626 28.2113L44.2448 28.5624L44.3801 27.9912L42.8979 27.6401ZM42.7626 28.2113L41.2804 27.8603L41.1451 28.4315L42.6273 28.7825L44.1095 29.1336L44.2448 28.5624L42.7626 28.2113ZM42.6273 28.7825L41.1451 28.4315C40.9943 29.0682 41.0108 29.7126 41.1858 30.3401L42.653 29.9308L44.1202 29.5216C44.0806 29.3796 44.0799 29.2584 44.1095 29.1336L42.6273 28.7825ZM42.653 29.9308L41.1858 30.3401L41.3468 30.9172L42.814 30.508L44.2812 30.0987L44.1202 29.5216L42.653 29.9308ZM42.814 30.508L41.3468 30.9172L41.5078 31.4943L42.975 31.0851L44.4422 30.6758L44.2812 30.0987L42.814 30.508ZM42.975 31.0851L41.5078 31.4943C41.5078 31.4945 41.5049 31.4839 41.5036 31.464C41.5024 31.4437 41.5033 31.4195 41.5076 31.3937C41.517 31.3375 41.5358 31.3122 41.5282 31.3237L42.7924 32.1734L44.0565 33.0231C44.5261 32.3244 44.673 31.5033 44.4422 30.6758L42.975 31.0851ZM42.7924 32.1734L41.5282 31.3237L41.1846 31.8348L42.4488 32.6845L43.713 33.5342L44.0565 33.0231L42.7924 32.1734ZM42.4488 32.6845L41.1846 31.8348L40.841 32.346L42.1052 33.1957L43.3694 34.0454L43.713 33.5342L42.4488 32.6845ZM42.1052 33.1957L40.841 32.346C40.4628 32.9087 40.2433 33.5461 40.2178 34.2343L41.74 34.2908L43.2621 34.3473C43.2655 34.2569 43.2895 34.1643 43.3694 34.0454L42.1052 33.1957ZM41.74 34.2908L40.2178 34.2343L40.1961 34.8181L41.7183 34.8746L43.2404 34.9311L43.2621 34.3473L41.74 34.2908ZM41.7183 34.8746L40.1961 34.8181L40.1745 35.402L41.6966 35.4585L43.2188 35.515L43.2404 34.9311L41.7183 34.8746ZM41.6966 35.4585L40.1745 35.402C40.1634 35.7004 40.125 36.0155 40.0561 36.3485L41.5476 36.6573L43.0392 36.9661C43.14 36.4792 43.2009 35.9951 43.2188 35.515L41.6966 35.4585ZM41.5476 36.6573L40.0561 36.3485L39.9287 36.9633L41.4203 37.2722L42.9119 37.581L43.0392 36.9661L41.5476 36.6573ZM41.4203 37.2722L39.9287 36.9633L39.8014 37.5782L41.293 37.887L42.7846 38.1959L42.9119 37.581L41.4203 37.2722ZM41.293 37.887L39.8014 37.5782C39.8173 37.5017 39.8745 37.3588 40.0112 37.2381C40.134 37.1296 40.2281 37.1213 40.1874 37.1286L40.4536 38.6283L40.7198 40.1281C41.1538 40.0511 41.6252 39.877 42.0277 39.5215C42.4443 39.1537 42.6839 38.6823 42.7846 38.1959L41.293 37.887ZM40.4536 38.6283L40.1874 37.1286L39.4752 37.255L39.7415 38.7547L40.0077 40.2545L40.7198 40.1281L40.4536 38.6283ZM39.7415 38.7547L39.4752 37.255L38.7631 37.3814L39.0293 38.8811L39.2955 40.3809L40.0077 40.2545L39.7415 38.7547ZM39.0293 38.8811L38.7631 37.3814C38.2933 37.4648 37.8163 37.6621 37.4157 38.0326C37.0151 38.403 36.781 38.863 36.6611 39.3248L38.1353 39.7077L39.6096 40.0907C39.6109 40.0856 39.5865 40.1745 39.4839 40.2694C39.3812 40.3643 39.2906 40.3818 39.2955 40.3809L39.0293 38.8811ZM38.1353 39.7077L36.6611 39.3248L36.4792 40.025L37.9535 40.4079L39.4277 40.7909L39.6096 40.0907L38.1353 39.7077ZM37.9535 40.4079L36.4792 40.025L36.2973 40.7252L37.7716 41.1081L39.2459 41.4911L39.4277 40.7909L37.9535 40.4079ZM37.7716 41.1081L36.2973 40.7252C36.2816 40.7855 36.2791 40.7515 36.3357 40.6858C36.3638 40.6531 36.3995 40.6211 36.441 40.594C36.4822 40.5671 36.5189 40.5516 36.5444 40.5434L37.0085 41.9942L37.4726 43.445C38.4564 43.1303 39.0217 42.3542 39.2459 41.4911L37.7716 41.1081ZM37.0085 41.9942L36.5444 40.5434L35.9632 40.7294L36.4273 42.1802L36.8914 43.6309L37.4726 43.445L37.0085 41.9942ZM36.4273 42.1802L35.9632 40.7294L35.382 40.9153L35.8461 42.3661L36.3102 43.8169L36.8914 43.6309L36.4273 42.1802ZM35.8461 42.3661L35.382 40.9153C35.0449 41.0231 34.7108 41.1107 34.3797 41.1786L34.6855 42.6708L34.9914 44.1629C35.4328 44.0725 35.8725 43.9569 36.3102 43.8169L35.8461 42.3661ZM34.6855 42.6708L34.3797 41.1786L33.8003 41.2974L34.1062 42.7895L34.4121 44.2817L34.9914 44.1629L34.6855 42.6708ZM34.1062 42.7895L33.8003 41.2974L33.2209 41.4161L33.5268 42.9083L33.8327 44.4005L34.4121 44.2817L34.1062 42.7895ZM33.5268 42.9083L33.2209 41.4161C33.1565 41.4293 33.0807 41.4309 32.9544 41.3778L32.3643 42.7821L31.7743 44.1864C32.4253 44.46 33.1245 44.5457 33.8327 44.4005L33.5268 42.9083ZM32.3643 42.7821L32.9544 41.3778L32.3713 41.1329L31.7813 42.5372L31.1913 43.9415L31.7743 44.1864L32.3643 42.7821ZM31.7813 42.5372L32.3713 41.1329L31.7883 40.8879L31.1983 42.2922L30.6083 43.6965L31.1913 43.9415L31.7813 42.5372ZM31.1983 42.2922L31.7883 40.8879C31.1894 40.6363 30.5499 40.5229 29.8909 40.5895L30.0441 42.105L30.1972 43.6204C30.2998 43.6101 30.4298 43.6215 30.6083 43.6965L31.1983 42.2922ZM30.0441 42.105L29.8909 40.5895L29.3197 40.6472L29.4729 42.1627L29.626 43.6782L30.1972 43.6204L30.0441 42.105ZM29.4729 42.1627L29.3197 40.6472L28.7485 40.7049L28.9016 42.2204L29.0548 43.7359L29.626 43.6782L29.4729 42.1627ZM28.9016 42.2204L28.7485 40.7049C28.3891 40.7412 28.0298 40.7698 27.6706 40.7908L27.7592 42.3114L27.8479 43.832C28.2503 43.8086 28.6526 43.7765 29.0548 43.7359L28.9016 42.2204ZM27.7592 42.3114L27.6706 40.7908L27.0994 40.824L27.188 42.3447L27.2767 43.8653L27.8479 43.832L27.7592 42.3114ZM27.188 42.3447L27.0994 40.824L26.5282 40.8573L26.6168 42.378L26.7054 43.8986L27.2767 43.8653L27.188 42.3447ZM26.6168 42.378L26.5282 40.8573C25.9447 40.8913 25.3823 41.0394 24.848 41.2805L25.4744 42.6689L26.1008 44.0574C26.3281 43.9548 26.5274 43.909 26.7054 43.8986L26.6168 42.378ZM25.4744 42.6689L24.848 41.2805L24.2768 41.5382L24.9032 42.9266L25.5296 44.3151L26.1008 44.0574L25.4744 42.6689ZM24.9032 42.9266L24.2768 41.5382L23.7056 41.7959L24.332 43.1843L24.9584 44.5728L25.5296 44.3151L24.9032 42.9266ZM24.332 43.1843L23.7056 41.7959C23.7055 41.796 23.7086 41.7945 23.7149 41.7925C23.7212 41.7904 23.7301 41.7879 23.7416 41.7856C23.7655 41.7807 23.7945 41.7779 23.8257 41.7792C23.8933 41.7821 23.9251 41.8017 23.9096 41.7934L23.1896 43.1357L22.4697 44.478C23.2509 44.897 24.129 44.947 24.9584 44.5728L24.332 43.1843ZM23.1896 43.1357L23.9096 41.7934L23.3384 41.487L22.6184 42.8293L21.8984 44.1716L22.4697 44.478L23.1896 43.1357ZM22.6184 42.8293L23.3384 41.487L22.7672 41.1806L22.0472 42.5229L21.3272 43.8652L21.8984 44.1716L22.6184 42.8293ZM22.0472 42.5229L22.7672 41.1806C21.9052 40.7183 20.959 40.7535 20.1325 41.2396L20.9048 42.5525L21.6771 43.8654C21.6808 43.8633 21.6218 43.8971 21.5155 43.8998C21.4074 43.9026 21.3382 43.8711 21.3272 43.8652L22.0472 42.5229ZM20.9048 42.5525L20.1325 41.2396L19.5613 41.5756L20.3336 42.8885L21.1059 44.2014L21.6771 43.8654L20.9048 42.5525ZM20.3336 42.8885L19.5613 41.5756L18.9901 41.9116L19.7624 43.2245L20.5347 44.5374L21.1059 44.2014L20.3336 42.8885ZM19.7624 43.2245L18.9901 41.9116C18.9276 41.9484 18.8976 41.954 18.8973 41.9541C18.8966 41.9542 18.8994 41.9537 18.9043 41.9537C18.9092 41.9537 18.912 41.9542 18.9114 41.9541L18.62 43.4492L18.3286 44.9442C19.125 45.0995 19.8809 44.922 20.5347 44.5374L19.7624 43.2245ZM18.62 43.4492L18.9114 41.9541L18.3402 41.8428L18.0488 43.3378L17.7574 44.8329L18.3286 44.9442L18.62 43.4492ZM18.0488 43.3378L18.3402 41.8428L17.769 41.7314L17.4776 43.2265L17.1862 44.7216L17.7574 44.8329L18.0488 43.3378ZM17.4776 43.2265L17.769 41.7314C17.2184 41.6241 16.662 41.6116 16.1076 41.6954L16.3352 43.2015L16.5628 44.7076C16.77 44.6763 16.9752 44.6804 17.1862 44.7216L17.4776 43.2265ZM16.3352 43.2015L16.1076 41.6954L15.5364 41.7817L15.764 43.2878L15.9916 44.7939L16.5628 44.7076L16.3352 43.2015ZM15.764 43.2878L15.5364 41.7817L14.9652 41.8681L15.1928 43.3742L15.4204 44.8803L15.9916 44.7939L15.764 43.2878ZM15.1928 43.3742L14.9652 41.8681C14.7272 41.904 14.4828 41.9071 14.2278 41.8745L14.0345 43.3854L13.8412 44.8963C14.369 44.9638 14.8968 44.9594 15.4204 44.8803L15.1928 43.3742ZM14.0345 43.3854L14.2278 41.8745L13.6407 41.7994L13.4474 43.3103L13.2541 44.8211L13.8412 44.8963L14.0345 43.3854ZM13.4474 43.3103L13.6407 41.7994L13.0536 41.7242L12.8603 43.2351L12.6669 44.746L13.2541 44.8211L13.4474 43.3103ZM12.8603 43.2351L13.0536 41.7242C12.7844 41.6898 12.5268 41.6242 12.2778 41.5272L11.7252 42.9467L11.1725 44.3661C11.6542 44.5536 12.1533 44.6803 12.6669 44.746L12.8603 43.2351ZM11.7252 42.9467L12.2778 41.5272L11.7299 41.3139L11.1772 42.7333L10.6245 44.1527L11.1725 44.3661L11.7252 42.9467ZM11.1772 42.7333L11.7299 41.3139L11.1819 41.1005L10.6292 42.5199L10.0765 43.9393L10.6245 44.1527L11.1772 42.7333ZM10.6292 42.5199L11.1819 41.1005C11.0843 41.0625 10.9951 41.002 10.9027 40.8836L9.70218 41.8211L8.50164 42.7586C8.91468 43.2875 9.44351 43.6928 10.0765 43.9393L10.6292 42.5199ZM9.70218 41.8211L10.9027 40.8836L10.5236 40.3982L9.32311 41.3357L8.12257 42.2732L8.50164 42.7586L9.70218 41.8211ZM9.32311 41.3357L10.5236 40.3982L10.1446 39.9128L8.94404 40.8502L7.7435 41.7877L8.12257 42.2732L9.32311 41.3357ZM8.94404 40.8502L10.1446 39.9128C9.65883 39.2907 8.99521 38.8941 8.22066 38.7568L7.95476 40.2566L7.68886 41.7564C7.70723 41.7597 7.71734 41.763 7.72118 41.7644C7.72484 41.7658 7.72503 41.7662 7.72345 41.7652C7.72185 41.7643 7.72186 41.764 7.72402 41.7659C7.72632 41.768 7.73307 41.7744 7.7435 41.7877L8.94404 40.8502ZM7.95476 40.2566L8.22066 38.7568L7.61045 38.6486L7.34455 40.1484L7.07866 41.6483L7.68886 41.7564L7.95476 40.2566ZM7.34455 40.1484L7.61045 38.6486L7.00024 38.5404L6.73435 40.0403L6.46845 41.5401L7.07866 41.6483L7.34455 40.1484ZM6.73435 40.0403L7.00024 38.5404C7.00891 38.542 7.08871 38.5596 7.18283 38.636C7.2788 38.7139 7.32024 38.7966 7.3312 38.8252L5.90884 39.3702L4.48647 39.9152C4.82817 40.8069 5.5546 41.3781 6.46845 41.5401L6.73435 40.0403ZM5.90884 39.3702L7.3312 38.8252L7.11589 38.2633L5.69353 38.8083L4.27117 39.3533L4.48647 39.9152L5.90884 39.3702ZM5.69353 38.8083L7.11589 38.2633L6.90059 37.7014L5.47823 38.2464L4.05586 38.7914L4.27117 39.3533L5.69353 38.8083ZM5.47823 38.2464L6.90059 37.7014C6.59957 36.9158 6.02008 36.3583 5.30946 36.0176L4.65101 37.3911L3.99255 38.7647C4.0562 38.7952 4.07305 38.8149 4.06891 38.8106C4.06734 38.809 4.06388 38.805 4.06026 38.7993C4.05666 38.7936 4.05543 38.7902 4.05586 38.7914L5.47823 38.2464ZM4.65101 37.3911L5.30946 36.0176L4.69754 35.7243L4.03909 37.0978L3.38064 38.4713L3.99255 38.7647L4.65101 37.3911ZM4.03909 37.0978L4.69754 35.7243L4.08562 35.4309L3.42717 36.8044L2.76872 38.178L3.38064 38.4713L4.03909 37.0978ZM3.42717 36.8044L4.08562 35.4309C4.02252 35.4007 4.00451 35.3805 4.00686 35.3829C4.00748 35.3836 4.00984 35.3862 4.01236 35.3902C4.01485 35.3941 4.01506 35.3954 4.01373 35.392L2.59465 35.9455L1.17556 36.499C1.47993 37.2793 2.0568 37.8367 2.76872 38.178L3.42717 36.8044ZM2.59465 35.9455L4.01373 35.392L3.79312 34.8264L2.37404 35.3798L0.954949 35.9333L1.17556 36.499L2.59465 35.9455ZM2.37404 35.3798L3.79312 34.8264L3.57251 34.2607L2.15342 34.8142L0.734338 35.3677L0.954949 35.9333L2.37404 35.3798ZM2.15342 34.8142L3.57251 34.2607C3.5729 34.2617 3.57507 34.2678 3.57672 34.2777C3.57838 34.2877 3.57864 34.2964 3.57839 34.3018C3.57816 34.3069 3.57768 34.3046 3.58045 34.2933C3.5833 34.2818 3.58981 34.2599 3.60409 34.2272L2.20803 33.6179L0.811965 33.0087C0.490729 33.7448 0.420899 34.5641 0.734338 35.3677L2.15342 34.8142ZM2.20803 33.6179L3.60409 34.2272L3.8793 33.5965L2.48324 32.9873L1.08718 32.3781L0.811965 33.0087L2.20803 33.6179ZM2.48324 32.9873L3.8793 33.5965L4.15451 32.9659L2.75845 32.3567L1.36239 31.7474L1.08718 32.3781L2.48324 32.9873ZM2.75845 32.3567L4.15451 32.9659C4.55617 32.0455 4.44519 31.0735 3.84988 30.2668L2.6243 31.1713L1.39872 32.0758C1.40158 32.0797 1.36106 32.0231 1.34897 31.9163C1.33687 31.8093 1.36373 31.7443 1.36239 31.7474L2.75845 32.3567ZM2.6243 31.1713L3.84988 30.2668L3.44052 29.7122L2.21494 30.6166L0.989357 31.5211L1.39872 32.0758L2.6243 31.1713ZM2.21494 30.6166L3.44052 29.7122L3.03116 29.1575L1.80558 30.062L0.579996 30.9664L0.989357 31.5211L2.21494 30.6166ZM1.80558 30.062L3.03116 29.1575C3.01648 29.1376 3.06172 29.1921 3.07695 29.3136C3.09321 29.4432 3.06206 29.5432 3.04319 29.5833L1.66435 28.9361L0.285514 28.2888C0.0878909 28.7098 -0.00910443 29.1878 0.0542293 29.6927C0.116537 30.1895 0.321772 30.6166 0.579996 30.9664L1.80558 30.062ZM1.66435 28.9361L3.04319 29.5833L3.31133 29.0121L1.93249 28.3649L0.553651 27.7176L0.285514 28.2888L1.66435 28.9361ZM1.93249 28.3649L3.31133 29.0121L3.57947 28.4409L2.20063 27.7937L0.821789 27.1464L0.553651 27.7176L1.93249 28.3649ZM2.20063 27.7937L3.57947 28.4409C3.95177 27.6478 3.9496 26.7907 3.57518 25.9996L2.19841 26.6513L0.821634 27.3029C0.824733 27.3095 0.821685 27.3046 0.817993 27.289C0.814187 27.273 0.810991 27.2511 0.810941 27.2254C0.810891 27.1998 0.814003 27.1777 0.817816 27.1614C0.821519 27.1455 0.82467 27.1403 0.821789 27.1464L2.20063 27.7937ZM2.19841 26.6513L3.57518 25.9996L3.30482 25.4284L1.92805 26.0801L0.551275 26.7317L0.821634 27.3029L2.19841 26.6513ZM1.92805 26.0801L3.30482 25.4284L3.03446 24.8572L1.65769 25.5089L0.280916 26.1605L0.551275 26.7317L1.92805 26.0801ZM1.65769 25.5089L3.03446 24.8572C3.03173 24.8514 3.03514 24.8573 3.03906 24.8739C3.0431 24.8911 3.04637 24.9141 3.04631 24.9408C3.04626 24.9675 3.0429 24.9904 3.03886 25.0073C3.03495 25.0236 3.03165 25.029 3.03462 25.0228L1.66008 24.3665L0.285543 23.7101C-0.0933513 24.5036 -0.0957148 25.3648 0.280916 26.1605L1.65769 25.5089ZM1.66008 24.3665L3.03462 25.0228L3.30737 24.4516L1.93283 23.7953L0.558294 23.1389L0.285543 23.7101L1.66008 24.3665ZM1.93283 23.7953L3.30737 24.4516L3.58013 23.8804L2.20559 23.2241L0.831046 22.5677L0.558294 23.1389L1.93283 23.7953ZM2.20559 23.2241L3.58013 23.8804C3.90253 23.2052 4.00092 22.4619 3.81204 21.7104L2.33478 22.0816L0.857515 22.4529C0.861954 22.4706 0.861199 22.4773 0.860703 22.4817C0.860033 22.4876 0.856314 22.5148 0.831046 22.5677L2.20559 23.2241ZM2.33478 22.0816L3.81204 21.7104L3.66849 21.1392L2.19122 21.5104L0.713959 21.8817L0.857515 22.4529L2.33478 22.0816ZM2.19122 21.5104L3.66849 21.1392L3.52493 20.568L2.04767 20.9392L0.570402 21.3105L0.713959 21.8817L2.19122 21.5104ZM2.04767 20.9392L3.52493 20.568C3.49106 20.4332 3.49122 20.3097 3.52588 20.1741L2.05013 19.7968L0.57439 19.4196C0.414346 20.0456 0.412866 20.6837 0.570402 21.3105L2.04767 20.9392ZM2.05013 19.7968L3.52588 20.1741L3.6719 19.6029L2.19616 19.2256L0.720415 18.8484L0.57439 19.4196L2.05013 19.7968ZM2.19616 19.2256L3.6719 19.6029L3.81793 19.0317L2.34218 18.6544L0.86644 18.2772L0.720415 18.8484L2.19616 19.2256ZM2.34218 18.6544L3.81793 19.0317C3.9956 18.3367 3.94773 17.6367 3.69785 16.9743L2.2727 17.512L0.847556 18.0497C0.885019 18.149 0.883466 18.2106 0.86644 18.2772L2.34218 18.6544ZM2.2727 17.512L3.69785 16.9743L3.48235 16.4031L2.0572 16.9408L0.632051 17.4785L0.847556 18.0497L2.2727 17.512ZM2.0572 16.9408L3.48235 16.4031L3.26684 15.8319L1.84169 16.3696L0.416545 16.9073L0.632051 17.4785L2.0572 16.9408ZM1.84169 16.3696L3.26684 15.8319C3.19424 15.6395 3.16997 15.4666 3.17909 15.3009L1.65819 15.2172L0.137286 15.1334C0.10374 15.7428 0.201806 16.3381 0.416545 16.9073L1.84169 16.3696ZM1.65819 15.2172L3.17909 15.3009L3.21109 14.7196L1.69019 14.6359L0.169287 14.5522L0.137286 15.1334L1.65819 15.2172ZM1.69019 14.6359L3.21109 14.7196L3.24309 14.1384L1.72219 14.0546L0.201287 13.9709L0.169287 14.5522L1.69019 14.6359ZM1.72219 14.0546L3.24309 14.1384C3.26145 13.8049 3.2978 13.4679 3.35253 13.1271L1.84859 12.8856L0.344659 12.644C0.273519 13.087 0.225596 13.5294 0.201287 13.9709L1.72219 14.0546ZM1.84859 12.8856L3.35253 13.1271L3.44693 12.5393L1.943 12.2978L0.439062 12.0562L0.344659 12.644L1.84859 12.8856ZM1.943 12.2978L3.44693 12.5393L3.54133 11.9515L2.0374 11.71L0.533465 11.4684L0.439062 12.0562L1.943 12.2978ZM2.0374 11.71L3.54133 11.9515C3.56558 11.8005 3.62025 11.6672 3.71718 11.5347L2.48767 10.6355L1.25815 9.73638C0.880596 10.2527 0.635092 10.8356 0.533465 11.4684L2.0374 11.71ZM2.48767 10.6355L3.71718 11.5347L4.07305 11.048L2.84353 10.1489L1.61401 9.24976L1.25815 9.73638L2.48767 10.6355ZM2.84353 10.1489L4.07305 11.048L4.42891 10.5614L3.19939 9.66227L1.96988 8.76314L1.61401 9.24976L2.84353 10.1489ZM3.19939 9.66227L4.42891 10.5614C4.67016 10.2315 4.90172 9.91022 5.12355 9.59756L3.88125 8.71617L2.63895 7.83478C2.42612 8.13476 2.20311 8.4442 1.96988 8.76314L3.19939 9.66227ZM3.88125 8.71617L5.12355 9.59756L5.44954 9.13809L4.20724 8.2567L2.96494 7.37531L2.63895 7.83478L3.88125 8.71617ZM4.20724 8.2567L5.44954 9.13809L5.77553 8.67861L4.53323 7.79722L3.29093 6.91583L2.96494 7.37531L4.20724 8.2567ZM4.53323 7.79722L5.77553 8.67861C6.05786 8.28068 6.29785 7.84945 6.49857 7.38963L5.10256 6.78026L3.70656 6.1709C3.58281 6.45439 3.44325 6.70114 3.29093 6.91583L4.53323 7.79722ZM5.10256 6.78026L6.49857 7.38963L6.74191 6.83214L5.34591 6.22278L3.94991 5.61341L3.70656 6.1709L5.10256 6.78026ZM5.34591 6.22278L6.74191 6.83214L6.98526 6.27466L5.58926 5.66529L4.19325 5.05593L3.94991 5.61341L5.34591 6.22278ZM5.58926 5.66529L6.98526 6.27466C6.96707 6.31632 6.91356 6.40418 6.80822 6.47786C6.7084 6.54769 6.63469 6.55394 6.64801 6.55252L6.4861 5.03795L6.32419 3.52337C5.39791 3.62239 4.59509 4.13534 4.19325 5.05593L5.58926 5.66529ZM6.4861 5.03795L6.64801 6.55252L7.30151 6.48266L7.1396 4.96808L6.97769 3.45351L6.32419 3.52337L6.4861 5.03795ZM7.1396 4.96808L7.30151 6.48266L7.95501 6.4128L7.7931 4.89822L7.63119 3.38365L6.97769 3.45351L7.1396 4.96808ZM7.7931 4.89822L7.95501 6.4128C8.86499 6.31552 9.61511 5.83533 10.0918 5.06269L8.79548 4.26289L7.49915 3.46309C7.49325 3.47266 7.49417 3.46915 7.50458 3.45832C7.51541 3.44708 7.53234 3.43228 7.555 3.41791C7.5777 3.40353 7.59926 3.39394 7.61617 3.38827C7.63254 3.38277 7.63889 3.38283 7.63119 3.38365L7.7931 4.89822ZM8.79548 4.26289L10.0918 5.06269L10.4407 4.49721L9.14436 3.69742L7.84803 2.89762L7.49915 3.46309L8.79548 4.26289ZM9.14436 3.69742L10.4407 4.49721L10.7896 3.93174L9.49324 3.13194L8.19691 2.33214L7.84803 2.89762L9.14436 3.69742ZM9.49324 3.13194L10.7896 3.93174C10.8117 3.8959 10.8059 3.9184 10.7558 3.95226C10.7318 3.96847 10.7044 3.98259 10.6759 3.99301C10.6476 4.00333 10.6254 4.00744 10.6131 4.00891L10.4336 2.4963L10.2542 0.983703C9.34089 1.09204 8.64148 1.61157 8.19691 2.33214L9.49324 3.13194ZM10.4336 2.4963L10.6131 4.00891L11.2046 3.93874L11.0251 2.42614L10.8457 0.91354L10.2542 0.983703L10.4336 2.4963ZM11.0251 2.42614L11.2046 3.93874L11.7961 3.86858L11.6166 2.35598L11.4372 0.843376L10.8457 0.91354L11.0251 2.42614ZM11.6166 2.35598L11.7961 3.86858C12.0051 3.84378 12.1901 3.85889 12.3628 3.90562L12.7606 2.43528L13.1584 0.964933C12.5945 0.812375 12.0169 0.774619 11.4372 0.843376L11.6166 2.35598ZM12.7606 2.43528L12.3628 3.90562L12.9152 4.05508L13.313 2.58474L13.7108 1.1144L13.1584 0.964933L12.7606 2.43528ZM13.313 2.58474L12.9152 4.05508L13.4677 4.20454L13.8655 2.7342L14.2633 1.26386L13.7108 1.1144L13.313 2.58474ZM13.8655 2.7342L13.4677 4.20454C13.6737 4.26029 13.9731 4.33169 14.2757 4.3325C14.4077 4.33286 14.7446 4.3246 15.0999 4.13525C15.3004 4.02835 15.529 3.85117 15.702 3.5737C15.8777 3.29167 15.9411 2.99386 15.9411 2.73568H14.4179H12.8947C12.8947 2.50217 12.9523 2.22593 13.1166 1.96237C13.278 1.70336 13.4893 1.54155 13.6669 1.44692C13.9761 1.2821 14.2439 1.286 14.2839 1.2861C14.4023 1.28642 14.4255 1.30775 14.2633 1.26386L13.8655 2.7342ZM14.4179 2.73568H15.9411V2.58771H14.4179H12.8947V2.73568H14.4179ZM14.4179 2.58771H15.9411V2.43973H14.4179H12.8947V2.58771H14.4179ZM14.4179 2.43973H15.9411C15.9411 2.91813 15.7127 3.23201 15.6121 3.34985C15.5048 3.47559 15.4087 3.53788 15.3938 3.54761C15.36 3.56973 15.3903 3.54568 15.5478 3.48357L14.9891 2.06653L14.4304 0.649497C14.2071 0.737532 13.9518 0.85075 13.7276 0.997272C13.6175 1.0692 13.45 1.19047 13.2951 1.37197C13.1469 1.54557 12.8947 1.912 12.8947 2.43973H14.4179ZM14.9891 2.06653L15.5478 3.48357L16.119 3.25836L15.5603 1.84132L15.0016 0.424282L14.4304 0.649497L14.9891 2.06653Z" fill="#9EDAAD"/>
<path d="M26.9003 22.509L26.8655 22.5523C26.8818 22.5595 26.898 22.5669 26.9142 22.5745L27.2603 22.7361L27.6074 22.8978C27.9602 23.0625 28.2711 23.2914 28.5336 23.579L28.7924 23.8636L29.0512 24.1473C29.1096 24.2112 29.1972 24.2766 29.3368 24.3327L30.1312 24.652C30.6221 24.8492 31.016 25.2028 31.2418 25.7022L31.5731 26.436C31.7198 26.7606 31.8233 27.0992 31.8805 27.4495L31.9439 27.8412L32.0084 28.232C32.0555 28.5205 32.0896 28.8058 32.1105 29.0868L32.1661 29.8365C32.178 29.9976 32.2106 30.1587 32.2662 30.3204L32.5161 31.0473C32.5956 31.2783 32.6966 31.5983 32.6966 31.8882V32.1838C32.6966 32.4055 32.6319 32.6478 32.4715 32.8601C32.3196 33.061 32.1303 33.1713 31.9846 33.231C31.7214 33.3386 31.4598 33.3373 31.3093 33.3301L30.986 33.3153L30.6627 33.2994C30.4048 33.2871 30.1327 33.2583 29.8495 33.2141L29.0879 33.0951C28.7622 33.0442 28.441 32.9584 28.126 32.8402L27.7452 32.6974L27.408 32.5705L27.05 32.7589L26.6692 32.9573C26.2636 33.1693 25.8141 33.2766 25.3414 33.232L24.9606 33.1953L24.5798 33.1596C24.3063 33.1337 24.0327 33.1002 23.7597 33.0584L22.9981 32.9414C22.7016 32.896 22.4066 32.8311 22.1135 32.748L21.7327 32.6409L21.3797 32.5408C21.3772 32.542 21.3707 32.5451 21.3678 32.5467L20.987 32.7629L20.6062 32.9781C20.0815 33.2752 19.482 33.317 18.9164 33.0544L18.1548 32.7014C17.9772 32.619 17.8112 32.5682 17.656 32.5427L16.8944 32.4178C16.6765 32.3821 16.4594 32.3582 16.2428 32.3464L15.4812 32.3047C15.3501 32.2976 15.2136 32.3133 15.0677 32.3573L14.3061 32.5874C14.1462 32.6356 13.6867 32.7617 13.2371 32.508C12.6414 32.1718 12.6299 31.5536 12.6579 31.3061L12.6936 30.9957L12.7283 30.6863C12.7537 30.4632 12.7864 30.2228 12.8265 29.9664L12.9416 29.2316C12.9809 28.9801 13.0234 28.7235 13.0695 28.462L13.1379 28.0792L13.2053 27.6955C13.2705 27.326 13.396 26.9755 13.5812 26.6492L13.965 25.9739C14.1848 25.5867 14.4965 25.2785 14.8793 25.0576L15.2254 24.8573L15.5715 24.658C15.5832 24.6513 15.612 24.6348 15.6458 24.5499L15.8105 24.1373L15.9741 23.7258L16.0217 23.6167C16.1416 23.3636 16.3282 23.1202 16.6038 22.9424C16.9171 22.7404 17.2593 22.6789 17.5677 22.6895L18.3939 22.7186C18.2741 22.6287 18.1462 22.5364 18.01 22.4416L17.3257 21.9656C17.0654 21.7843 16.8315 21.5191 16.7149 21.1594C16.6005 20.8067 16.6311 20.4638 16.7149 20.1786L16.9667 19.3218C17.0051 19.191 16.9901 19.1376 16.9866 19.1264L16.7625 18.4134C16.6081 17.9209 16.6509 17.4121 16.8953 16.9517L17.0689 16.6264L17.2414 16.3012C17.3398 16.1159 17.4295 15.9233 17.5102 15.724L17.65 15.3769L17.7908 15.0299C17.9967 14.5215 18.3894 14.1567 18.9025 13.9807L19.2615 13.8567L19.6205 13.7337C19.8013 13.6717 19.9616 13.5982 20.1034 13.5156L20.4088 13.3381L20.7143 13.1596C21.0661 12.9545 21.4536 12.8456 21.8596 12.8343L22.5717 12.8145C22.944 12.8041 23.3084 12.8673 23.6556 13.0049L23.9808 13.1328L24.3061 13.2617C24.3902 13.295 24.5185 13.3256 24.7077 13.3301L25.5586 13.35C26.0887 13.3626 26.5789 13.5586 26.9648 13.943L27.2523 14.2296L27.5409 14.5162C27.9408 14.9145 28.13 15.4267 28.1151 15.9749L28.1032 16.3993L28.0923 16.8248C28.0857 17.0692 28.0952 17.2668 28.1151 17.4228L28.1538 17.7331C28.2434 17.7997 28.3147 17.8721 28.366 17.9374C28.491 18.0969 28.5471 18.2596 28.5733 18.346C28.6283 18.5283 28.6481 18.7234 28.6575 18.8775L28.6823 19.2772L28.7061 19.6778C28.7405 20.2382 28.544 20.7497 28.1528 21.1445L27.5796 21.7216C27.411 21.8917 27.2618 22.0582 27.1314 22.2205L26.9003 22.509Z" fill="#048F27"/>
</svg>
