<svg width="27" height="31" viewBox="0 0 27 31" fill="none" xmlns="http://www.w3.org/2000/svg">
<path d="M2.73194 17.7233C2.73194 22.3612 6.052 26.2272 10.4555 27.0951C11.712 27.6962 13.1204 28.0329 14.6077 28.0329C19.9087 28.0329 24.2059 23.7555 24.2059 18.479C24.2059 13.8411 20.8859 9.97511 16.4824 9.10727C15.2259 8.50619 13.8175 8.16945 12.3302 8.16945C7.02921 8.16945 2.73194 12.4469 2.73194 17.7233Z" fill="#34C759"/>
<path d="M10.74 7.53835C10.9952 7.48059 11.2543 7.4745 11.5133 7.51843L11.6142 7.53547L11.7152 7.55277C11.9292 7.58908 12.1397 7.63869 12.3464 7.70192L12.4434 7.73181L12.5406 7.76143C12.6635 7.79904 12.7807 7.81148 12.8953 7.80258L12.9925 7.79524L13.0898 7.78764C13.2597 7.77444 13.4348 7.75388 13.6148 7.72578L13.7166 7.70979L13.8183 7.69406C14.0937 7.6511 14.3672 7.67234 14.6309 7.76169L14.8193 7.82565C14.9953 7.88529 15.1712 7.94324 15.3465 7.99945L15.4403 8.02933L15.5342 8.05947C15.8002 8.14473 16.0329 8.29273 16.2302 8.49173L16.3043 8.5667L16.3788 8.64141C16.4616 8.72496 16.5518 8.78014 16.6538 8.81363L16.7513 8.84588L16.8485 8.87786C16.9742 8.91915 17.1004 8.93698 17.2297 8.93264L17.4328 8.92583C17.7149 8.91635 17.9862 8.97573 18.2363 9.10722L18.3228 9.15257L18.4095 9.19818C18.5503 9.27218 18.6956 9.33534 18.8457 9.38771L19.0305 9.45219C19.2003 9.5114 19.374 9.5689 19.5517 9.62468L19.6481 9.65482L19.7443 9.68523C19.9565 9.75184 20.1615 9.83592 20.3588 9.93766L20.4482 9.9838L20.5378 10.0299C20.7725 10.151 20.9755 10.3152 21.1441 10.5188L21.2091 10.5969L21.2739 10.675C21.4043 10.8325 21.5284 10.9929 21.6464 11.1563L21.7048 11.2373L21.763 11.3183C21.8625 11.4562 21.9676 11.5859 22.0781 11.7079L22.1434 11.7802L22.2089 11.8523C22.3292 11.9851 22.4523 12.1168 22.5783 12.2473L22.6467 12.3184L22.7151 12.3891C22.8397 12.5183 22.9695 12.6474 23.1044 12.7763L23.1783 12.8468L23.2519 12.9173C23.4274 13.0851 23.5768 13.2734 23.6986 13.4817L23.7998 13.6552C23.9609 13.9308 24.0137 14.2372 23.9809 14.5494L23.9573 14.7746C23.9416 14.9247 23.9564 15.038 23.9859 15.1245L24.0168 15.2152L24.048 15.3062C24.1116 15.4925 24.1674 15.6812 24.2153 15.8721L24.2619 16.0582C24.292 16.178 24.3434 16.3011 24.4208 16.4281L24.5293 16.6063C24.69 16.8703 24.7622 17.1652 24.7314 17.4753L24.7115 17.6743C24.6971 17.8193 24.7008 17.9617 24.722 18.1023L24.7513 18.2976C24.7779 18.4737 24.8096 18.6529 24.8465 18.8353L24.8669 18.9359L24.8871 19.0363C24.9385 19.2905 24.9435 19.5466 24.9 19.801L24.8832 19.8998L24.8662 19.9986C24.8153 20.2961 24.6786 20.5594 24.4792 20.7845L24.4048 20.8684L24.3306 20.9523C24.2209 21.0762 24.1473 21.1923 24.1007 21.2996L24.0242 21.4757C24.0013 21.5284 23.9856 21.6082 24.0087 21.7371L24.0491 21.9617C24.1122 22.3133 24.0401 22.6634 23.793 22.9479L23.7261 23.025L23.6593 23.1018C23.5904 23.1811 23.5442 23.2708 23.519 23.3781L23.4719 23.5794C23.4064 23.8589 23.2755 24.109 23.0794 24.3188L23.011 24.3922L22.9424 24.4654C22.8022 24.6154 22.6566 24.7589 22.5056 24.8955L22.4322 24.9621L22.3586 25.0287C22.2736 25.1056 22.2022 25.2004 22.1457 25.3192L22.1009 25.4135L22.0561 25.5076C21.9397 25.7522 21.7789 25.9651 21.5735 26.1394L21.4969 26.2041L21.4207 26.2689C21.1879 26.4663 20.91 26.5784 20.6094 26.6185L20.3865 26.6484C20.2843 26.6621 20.2361 26.6952 20.2038 26.7307L20.1365 26.8049L20.0691 26.8794C19.9 27.0657 19.7039 27.2185 19.4824 27.3347L19.3959 27.38L19.3092 27.4257C19.1887 27.4889 19.071 27.5717 18.9563 27.6768L18.8019 27.8181C18.5842 28.0176 18.326 28.1499 18.0349 28.2039L17.9356 28.2223L17.8362 28.2409C17.644 28.2766 17.4527 28.3097 17.2627 28.3405L17.0669 28.3725C16.8286 28.4112 16.5875 28.4144 16.3458 28.3835L16.2448 28.3707L16.1436 28.3575C15.9838 28.3371 15.8314 28.3323 15.686 28.3418L15.4943 28.3544C15.3766 28.3621 15.2519 28.391 15.1184 28.4467L15.0217 28.4868L14.9253 28.5271C14.5823 28.6703 14.2271 28.641 13.91 28.4603L13.7218 28.3528C13.5965 28.2814 13.4852 28.2462 13.386 28.2341L13.1973 28.211C13.1261 28.2023 13.024 28.2109 12.8809 28.2679L12.6625 28.3549C12.4881 28.4243 12.2911 28.4592 12.0848 28.4244C11.8758 28.3891 11.6989 28.2892 11.5574 28.156L11.4771 28.0807L11.3972 28.0052C11.3118 27.9249 11.2354 27.8905 11.1642 27.8776L10.9697 27.8425C10.7953 27.8108 10.6221 27.7844 10.4498 27.7635L10.3534 27.752L10.2569 27.7402C9.9578 27.704 9.69205 27.5769 9.46553 27.3832L9.38374 27.3132L9.30196 27.2435C9.28473 27.2287 9.27596 27.2264 9.2726 27.2257C9.26793 27.2245 9.24842 27.2209 9.20602 27.2298L8.97927 27.2776C8.78611 27.3182 8.57352 27.3134 8.36797 27.2238C8.16326 27.1346 8.01553 26.9829 7.91291 26.8165L7.85105 26.7163L7.78918 26.6159C7.70794 26.4842 7.63061 26.4154 7.56716 26.379L7.48432 26.3313L7.40149 26.2838C7.2893 26.2193 7.16204 26.1675 7.0172 26.1302L6.91811 26.1045L6.81876 26.0791C6.49666 25.9962 6.23596 25.8045 6.05989 25.5228L6.00536 25.4358L5.9511 25.3485C5.94327 25.336 5.93692 25.3308 5.92934 25.3262C5.91969 25.3205 5.89428 25.3082 5.84127 25.3008L5.60535 25.2678C5.40766 25.2402 5.20231 25.1623 5.03704 24.9983C4.87173 24.8342 4.79229 24.6294 4.76337 24.4318L4.72877 24.1962C4.7213 24.1452 4.70931 24.123 4.70518 24.1165C4.70231 24.112 4.69868 24.1069 4.68578 24.0994L4.59561 24.0473L4.50569 23.9951C4.29612 23.8737 4.10566 23.7287 3.93608 23.56L3.79295 23.4174C3.61632 23.2416 3.47137 23.0421 3.36043 22.82L3.27131 22.6412C3.14157 22.3813 3.08964 22.0996 3.10354 21.8089L3.11403 21.589C3.11835 21.4983 3.09694 21.4484 3.06474 21.4076L3.00183 21.3279L2.93892 21.248C2.74246 20.999 2.64373 20.7055 2.6511 20.3882L2.65582 20.1858C2.65891 20.0522 2.64048 19.9304 2.60313 19.817L2.54284 19.6332C2.47933 19.4404 2.42615 19.2443 2.38372 19.045L2.34335 18.8547C2.30101 18.6557 2.26924 18.4547 2.24794 18.2518L2.22749 18.0573C2.20763 17.8679 2.19668 17.6822 2.21438 17.5333L2.21989 17.4884L2.22513 17.4433C2.23927 17.3244 2.27273 17.1653 2.31688 16.982L2.33968 16.8868L2.36275 16.7914C2.39458 16.6592 2.40786 16.5249 2.40233 16.3869L2.39447 16.1898C2.38566 15.9699 2.39698 15.7508 2.42855 15.5334L2.45686 15.3389C2.4881 15.1238 2.53755 14.9126 2.60522 14.7061L2.63589 14.6128L2.6663 14.5195C2.71332 14.376 2.74773 14.2238 2.76853 14.0621L2.79475 13.8579C2.84061 13.5013 3.03059 13.2143 3.31587 13.0143L3.49805 12.8867C3.60723 12.8101 3.66823 12.7337 3.7033 12.6615L3.74577 12.5739L3.78823 12.4867C3.90502 12.2461 4.07155 12.0413 4.28183 11.8754L4.36021 11.8138L4.43833 11.7519C4.51043 11.695 4.56321 11.6249 4.5998 11.5317L4.67425 11.3422C4.76753 11.1046 4.89854 10.8897 5.06823 10.702L5.13403 10.6297L5.19956 10.5571C5.3903 10.3462 5.62712 10.1971 5.89684 10.1078L5.99566 10.0753L6.09449 10.0425C6.11138 10.0369 6.11729 10.0316 6.12122 10.0276C6.12657 10.0221 6.14191 10.0043 6.15871 9.95968L6.19987 9.85064L6.24076 9.74159C6.3054 9.56981 6.40768 9.40527 6.5624 9.27604C6.71922 9.14504 6.90277 9.07318 7.09217 9.04798L7.30502 9.01967C7.36827 9.01125 7.40763 8.9894 7.44867 8.93762L7.58262 8.76855C7.77729 8.52289 8.03217 8.34857 8.34019 8.27102L8.43744 8.24638L8.53495 8.222C8.66742 8.18865 8.79376 8.13587 8.91531 8.06262L9.09041 7.95724C9.31954 7.81917 9.56874 7.7317 9.83356 7.69799L9.93344 7.68541L10.0333 7.67257C10.206 7.65058 10.3767 7.62049 10.545 7.58239L10.74 7.53835ZM11.3338 8.57693C11.2099 8.55592 11.0924 8.55952 10.9773 8.58558L10.782 8.62962C10.5799 8.67536 10.3754 8.71132 10.1688 8.73762L10.069 8.75046L9.96909 8.76304C9.85459 8.77762 9.74771 8.81465 9.64457 8.87681L9.55701 8.9295L9.46946 8.98245C9.25877 9.1094 9.03417 9.2035 8.79709 9.26319L8.69984 9.28757L8.60232 9.31221C8.54076 9.32772 8.4836 9.36029 8.42407 9.43542L8.29012 9.60449C8.07698 9.87341 7.7872 10.0386 7.44657 10.0839L7.34015 10.0981L7.25024 10.1099C7.24897 10.1128 7.24721 10.116 7.24578 10.1198L7.20462 10.2289L7.16373 10.3377C7.03653 10.6758 6.79312 10.9421 6.43212 11.0617L6.23447 11.1272C6.12931 11.1621 6.05416 11.2128 5.99592 11.2772L5.93039 11.3498L5.8646 11.4224C5.78537 11.51 5.72162 11.6127 5.67376 11.7346L5.59932 11.9241C5.49474 12.1905 5.32843 12.4175 5.10362 12.5949L5.02524 12.6565L4.94713 12.7184C4.86053 12.7867 4.79806 12.8647 4.75393 12.9556L4.71173 13.0429L4.66927 13.1302C4.54342 13.3894 4.35096 13.6 4.11433 13.7659L3.93215 13.8935C3.87159 13.936 3.8635 13.9642 3.85953 13.995L3.83332 14.1989C3.8043 14.4245 3.75585 14.6433 3.68679 14.854L3.62545 15.0406C3.57704 15.1883 3.54166 15.3392 3.51928 15.4933L3.49097 15.6878C3.46892 15.8397 3.46094 15.9926 3.46712 16.1468L3.47105 16.2454L3.47525 16.344C3.4847 16.5801 3.46176 16.8136 3.40657 17.0428L3.38376 17.1382L3.36069 17.2334C3.31781 17.4114 3.29764 17.5185 3.29149 17.5702L3.28599 17.615L3.28074 17.6601C3.27815 17.6819 3.2766 17.766 3.29542 17.9453L3.30538 18.0426L3.31561 18.1396C3.33299 18.3053 3.35899 18.4691 3.39346 18.6311L3.41364 18.7262L3.43409 18.8214C3.46849 18.983 3.51125 19.1417 3.56254 19.2974L3.59268 19.3892L3.62309 19.4809C3.70053 19.716 3.73506 19.9604 3.72925 20.2107L3.72454 20.4131C3.72299 20.4796 3.73939 20.5293 3.78168 20.5829L3.9075 20.7423C4.11403 21.004 4.20202 21.3141 4.18642 21.6404L4.17593 21.8603C4.16991 21.9866 4.19264 22.0826 4.23203 22.1615L4.32115 22.3403C4.37941 22.4569 4.4552 22.5618 4.55026 22.6564L4.62182 22.7277L4.69338 22.7987C4.79552 22.9004 4.91181 22.9896 5.04385 23.0661L5.13377 23.1183L5.22394 23.1704C5.55809 23.3641 5.73861 23.6815 5.7912 24.0407L5.8085 24.1587L5.81636 24.2132L5.87141 24.2208L5.98937 24.2373C6.34276 24.2866 6.66006 24.4571 6.86149 24.7794L6.91601 24.8667L6.97054 24.9537C7.00121 25.0028 7.0321 25.0252 7.0864 25.0392L7.18575 25.0649L7.28484 25.0903C7.51646 25.1499 7.73462 25.2367 7.9365 25.3527L8.01934 25.4004L8.10217 25.4479C8.35278 25.5919 8.54987 25.8036 8.70324 26.0523L8.76484 26.1527L8.80443 26.217L8.87153 26.2031L8.98477 26.1789C9.34843 26.1024 9.70706 26.1771 9.99976 26.4275L10.0815 26.4972L10.1633 26.5672C10.247 26.6387 10.3192 26.6663 10.3859 26.6744L10.4823 26.6862L10.5788 26.6977C10.7724 26.7211 10.9665 26.7507 11.1613 26.7861L11.3558 26.8212C11.6537 26.8752 11.914 27.0175 12.1327 27.2233L12.213 27.2988L12.2722 27.3544L12.3747 27.3137L12.484 27.2702C12.7553 27.1623 13.0397 27.1103 13.3268 27.1452L13.5158 27.1682C13.7747 27.1998 14.0213 27.2878 14.2531 27.4199L14.3475 27.4736L14.4416 27.5274C14.4703 27.5437 14.483 27.5441 14.483 27.5441C14.484 27.5442 14.4856 27.5442 14.4888 27.5436C14.4924 27.543 14.5001 27.5412 14.5119 27.5363L14.6083 27.4959L14.7048 27.4558C14.9378 27.3586 15.1784 27.2991 15.4244 27.2831L15.616 27.2705C15.8342 27.2562 16.0557 27.2639 16.2797 27.2925L16.3809 27.3056L16.4821 27.3184C16.6241 27.3366 16.7611 27.3344 16.8947 27.3127L17.0907 27.2807C17.2727 27.2512 17.4559 27.2192 17.6404 27.185L17.8391 27.1483C17.9249 27.1324 18.0015 27.0955 18.0766 27.0267L18.1537 26.9559L18.231 26.8851C18.4092 26.7218 18.6022 26.5841 18.8103 26.4749L18.8971 26.4293L18.9836 26.3839C19.0908 26.3277 19.1871 26.2535 19.2738 26.158L19.3412 26.0835L19.4085 26.0093C19.632 25.763 19.9233 25.627 20.2442 25.5842L20.4673 25.5543C20.5898 25.5379 20.6688 25.4987 20.726 25.4502L20.8788 25.3205C20.9634 25.2487 21.0326 25.1596 21.0864 25.0465L21.1315 24.9522L21.1764 24.8578C21.29 24.6189 21.4436 24.4085 21.638 24.2326L21.7116 24.166L21.7853 24.0992C21.9138 23.9829 22.0379 23.8607 22.1578 23.7325L22.2949 23.5859C22.3588 23.5175 22.4025 23.4371 22.4265 23.3345L22.4737 23.1332C22.538 22.8584 22.6635 22.6106 22.8485 22.3977L22.9825 22.2438C22.9927 22.232 22.9942 22.2262 22.995 22.2228C22.9963 22.2176 23.0005 22.1964 22.9924 22.1515L22.9521 21.9269C22.8987 21.6296 22.9172 21.3292 23.0393 21.0479L23.1159 20.8718C23.2144 20.6451 23.3543 20.4349 23.5267 20.2403L23.6755 20.0725C23.7583 19.9791 23.7946 19.8954 23.8079 19.8177L23.8247 19.7189L23.8417 19.6198C23.8624 19.4991 23.8607 19.3766 23.8349 19.2492L23.8145 19.1488L23.7943 19.0481C23.754 18.8489 23.719 18.652 23.6897 18.4575L23.6603 18.2625C23.6257 18.0327 23.62 17.8009 23.643 17.5684L23.663 17.3694C23.6696 17.302 23.6573 17.2389 23.6121 17.1647L23.5036 16.9864C23.375 16.7753 23.279 16.5528 23.2205 16.3196L23.1738 16.1335C23.1331 15.9714 23.0858 15.8112 23.0317 15.653L22.9699 15.4713C22.8818 15.2132 22.8603 14.94 22.8894 14.6626L22.913 14.4375C22.9251 14.3222 22.904 14.2503 22.8729 14.1971L22.7717 14.0235C22.7012 13.903 22.6145 13.7933 22.5101 13.6935L22.4362 13.623L22.3625 13.5525C22.2175 13.4139 22.0776 13.2746 21.9426 13.1346L21.8742 13.0639L21.8057 12.9928C21.6721 12.8543 21.5413 12.7144 21.4133 12.5732L21.3478 12.5011L21.2823 12.4287C21.1445 12.2767 21.0146 12.1159 20.8925 11.9467L20.7756 11.7847C20.6719 11.6409 20.5623 11.4993 20.4468 11.36L20.3821 11.2819L20.3173 11.2035C20.2402 11.1104 20.1505 11.0385 20.0455 10.9844L19.9561 10.9382L19.8665 10.8921C19.7241 10.8187 19.5762 10.7579 19.4227 10.7096L19.3265 10.6792L19.23 10.6491C19.042 10.5901 18.8576 10.5289 18.6769 10.4659L18.4921 10.4014C18.2917 10.3315 18.0974 10.2472 17.9096 10.1484L17.8231 10.1031L17.7366 10.0575C17.6581 10.0162 17.5722 9.99553 17.4687 9.999L17.2656 10.0058C17.0093 10.0144 16.7577 9.97804 16.5135 9.89782L16.3185 9.83386C16.0506 9.74584 15.8151 9.59805 15.6162 9.39741L15.5418 9.32244L15.4676 9.24747C15.3832 9.1623 15.2969 9.11104 15.2065 9.08206L15.0186 9.02177C14.8375 8.96374 14.6562 8.90399 14.4746 8.84247L14.2862 8.77851C14.1923 8.74673 14.0941 8.73768 13.9837 8.75492L13.882 8.77064L13.7803 8.78663C13.5744 8.81876 13.3719 8.84274 13.1729 8.8582L13.0756 8.86554L12.9784 8.87314C12.7242 8.89288 12.4724 8.86343 12.2266 8.78821L12.1293 8.75832L12.0321 8.7287C11.8699 8.67907 11.7044 8.63991 11.5356 8.61127L11.4347 8.59423L11.3338 8.57693Z" fill="#34C759"/>
<path d="M11.3149 7.65604L11.7161 5.69633L11.3149 7.65604ZM12.5077 7.93951L11.9894 9.87156L12.5077 7.93951ZM13.6952 8.0118L14.0193 9.98573L13.6952 8.0118ZM15.8093 8.54198L14.4412 10.0014L15.8093 8.54198ZM18.1111 9.15496L17.1545 10.9117L18.1111 9.15496ZM20.4496 9.74901L21.8813 8.35198L20.4496 9.74901ZM22.1723 11.5375L23.7537 10.3126L22.1723 11.5375ZM22.8773 12.5053L21.2275 13.6366L22.8773 12.5053ZM23.4218 13.5236L21.557 14.2473L23.4218 13.5236ZM24.4813 16.7496L26.3924 17.3407L24.4813 16.7496ZM24.7142 17.9477L26.3209 16.7561L24.7142 17.9477ZM24.9283 19.1315L26.8178 19.7882L24.9283 19.1315ZM24.4124 20.1527L22.8034 18.9642L24.4124 20.1527ZM24.0108 21.2514L22.0304 20.97L24.0108 21.2514ZM23.343 23.4545L25.1601 24.2909L23.343 23.4545ZM22.0853 25.4737L20.7258 24.0063L22.0853 25.4737ZM21.2231 26.3026L22.6347 27.7199L21.2231 26.3026ZM19.1381 27.3529L19.6762 29.2795L19.1381 27.3529ZM18.1259 28.0933L19.7864 29.2087L18.1259 28.0933ZM17.1173 28.5348L16.737 30.4986L17.1173 28.5348ZM11.2609 28.2348L12.851 27.0212L11.2609 28.2348ZM10.3567 27.4509L11.2369 25.6545L10.3567 27.4509ZM9.23904 27.1732L9.11738 29.1698L9.23904 27.1732ZM8.19611 26.8025L9.44885 25.243L8.19611 26.8025ZM6.1464 25.9265L5.23673 27.708L6.1464 25.9265ZM5.45024 25.107L7.29419 24.3316L5.45024 25.107ZM2.72605 14.1451L4.54726 14.9726L2.72605 14.1451ZM3.42548 13.2118L4.73173 14.7267L3.42548 13.2118ZM4.91866 11.4375L3.67017 9.8746L4.91866 11.4375ZM5.62132 10.3595L3.72184 9.73225L5.62132 10.3595ZM6.19003 9.2578L4.66041 7.96872L6.19003 9.2578ZM10.3102 7.64739L11.5059 9.25103L10.3102 7.64739ZM10.7196 7.44785L8.76835 7.88845L10.7196 7.44785ZM13.9607 8.88725L13.4296 6.95868L13.9607 8.88725ZM17.3375 9.70664L17.3723 7.70658L17.3375 9.70664ZM18.5022 9.96741L17.625 11.7652L18.5022 9.96741ZM21.8455 13.3651L23.2517 11.9424L21.8455 13.3651ZM23.3538 18.7576L21.3551 18.8391L23.3538 18.7576ZM23.5106 19.953L21.5596 20.3945L23.5106 19.953ZM23.1591 20.9756L21.8133 19.4957L23.1591 20.9756ZM22.343 22.9748L20.4097 22.4613L22.343 22.9748ZM21.6672 23.9218L20.536 22.272L21.6672 23.9218ZM20.3509 25.8679L20.0873 23.885L20.3509 25.8679ZM19.2842 26.4283L17.7736 25.117L19.2842 26.4283ZM15.8801 27.4462L15.9141 25.4462L15.8801 27.4462ZM12.3491 27.5678L12.1257 29.5557L12.3491 27.5678ZM10.2201 26.4375L10.7804 28.3578L10.2201 26.4375ZM8.97711 26.4126L8.28596 28.2898L8.97711 26.4126ZM8.15098 25.57L10.02 24.8571L8.15098 25.57ZM3.23073 18.3099L4.76507 17.0264L3.23073 18.3099ZM3.21974 17.159L4.80908 18.3737L3.21974 17.159ZM3.42539 15.9271L1.56187 16.6543L3.42539 15.9271ZM4.38728 13.8946L5.27386 15.6878L4.38728 13.8946ZM5.66546 11.9303L3.98057 10.852L5.66546 11.9303ZM10.8959 8.36697L9.02119 9.06484L10.8959 8.36697ZM11.3149 7.65604L10.9137 9.61575C11.2543 9.68548 11.6127 9.77051 11.9894 9.87156L12.5077 7.93951L13.026 6.00747C12.5787 5.88747 12.1419 5.78351 11.7161 5.69633L11.3149 7.65604ZM12.5077 7.93951L11.9894 9.87156C12.646 10.0477 13.3299 10.0989 14.0193 9.98573L13.6952 8.0118L13.3711 6.03787C13.3012 6.04935 13.1935 6.05238 13.026 6.00747L12.5077 7.93951ZM13.6952 8.0118L14.0193 9.98573C14.1531 9.96376 14.2821 9.96641 14.419 9.99529L14.8321 8.03806L15.2452 6.08082C14.6256 5.95003 13.9966 5.93517 13.3711 6.03787L13.6952 8.0118ZM14.8321 8.03806L14.419 9.99529C14.4314 9.99793 14.4387 10.0003 14.4417 10.0013C14.4447 10.0024 14.4449 10.0026 14.4432 10.0018C14.4416 10.0009 14.4398 9.99986 14.4386 9.99897C14.4373 9.9981 14.4382 9.99855 14.4412 10.0014L15.8093 8.54198L17.1774 7.0826C16.6284 6.568 15.9692 6.23362 15.2452 6.08082L14.8321 8.03806ZM15.8093 8.54198L14.4412 10.0014C15.1888 10.7022 16.1189 10.9332 16.9894 10.8933L16.898 8.89508L16.8065 6.89681C16.7762 6.89819 16.8179 6.89182 16.9035 6.91956C16.9965 6.94972 17.0952 7.00557 17.1774 7.0826L15.8093 8.54198ZM16.898 8.89508L16.9894 10.8933C17.0606 10.8901 17.1023 10.8963 17.1217 10.9005C17.1398 10.9044 17.1484 10.9084 17.1545 10.9117L18.1111 9.15496L19.0678 7.39819C18.3543 7.00966 17.5801 6.8614 16.8065 6.89681L16.898 8.89508ZM18.1111 9.15496L17.1545 10.9117C17.9229 11.3302 18.7584 11.4489 19.5766 11.3401L19.3131 9.35718L19.0495 7.37426C19.0264 7.37734 19.0126 7.3776 19.0071 7.37755C19.0018 7.3775 19.0035 7.37715 19.0107 7.37836C19.018 7.37959 19.0281 7.38195 19.0396 7.38592C19.0511 7.3899 19.0608 7.39437 19.0678 7.39819L18.1111 9.15496ZM19.3131 9.35718L19.5766 11.3401C19.5285 11.3465 19.4173 11.3496 19.2791 11.3019C19.1406 11.2542 19.0537 11.1827 19.0179 11.146L20.4496 9.74901L21.8813 8.35198C21.1262 7.57806 20.1182 7.23223 19.0495 7.37426L19.3131 9.35718ZM20.4496 9.74901L19.0179 11.146C19.3481 11.4844 19.673 11.8045 19.9925 12.1058L21.365 10.6506L22.7374 9.1953C22.4617 8.9353 22.1764 8.65435 21.8813 8.35198L20.4496 9.74901ZM21.365 10.6506L19.9925 12.1058C20.2177 12.3182 20.4164 12.5372 20.5908 12.7624L22.1723 11.5375L23.7537 10.3126C23.447 9.9166 23.1075 9.54431 22.7374 9.1953L21.365 10.6506ZM22.1723 11.5375L20.5908 12.7624C20.8069 13.0415 21.0192 13.3328 21.2275 13.6366L22.8773 12.5053L24.5271 11.3741C24.2765 11.0086 24.0187 10.6547 23.7537 10.3126L22.1723 11.5375ZM22.8773 12.5053L21.2275 13.6366C21.3783 13.8565 21.4843 14.0601 21.557 14.2473L23.4218 13.5236L25.2867 12.8C25.0922 12.2987 24.8352 11.8235 24.5271 11.3741L22.8773 12.5053ZM23.4218 13.5236L21.557 14.2473C21.631 14.438 21.6875 14.6525 21.7211 14.8962L23.7027 14.6224L25.6842 14.3486C25.6106 13.8158 25.4799 13.2978 25.2867 12.8L23.4218 13.5236ZM23.7027 14.6224L21.7211 14.8962C21.8382 15.7434 22.2268 16.4731 22.7912 17.0563L24.2287 15.6652L25.6662 14.2742C25.6444 14.2516 25.6489 14.2506 25.6604 14.2734C25.6658 14.284 25.6712 14.2971 25.6757 14.3116C25.6803 14.3261 25.6829 14.3389 25.6842 14.3486L23.7027 14.6224ZM24.2287 15.6652L22.7912 17.0563C22.7265 16.9894 22.6184 16.8431 22.5665 16.6204C22.5151 16.4 22.5481 16.2302 22.5703 16.1585L24.4813 16.7496L26.3924 17.3407C26.5432 16.8531 26.5984 16.2946 26.4629 15.7127C26.3268 15.1286 26.028 14.648 25.6662 14.2742L24.2287 15.6652ZM24.4813 16.7496L22.5703 16.1585C22.2336 17.2472 22.4857 18.3009 23.1075 19.1393L24.7142 17.9477L26.3209 16.7561C26.3266 16.7637 26.3795 16.8396 26.4067 16.9794C26.4352 17.1259 26.4184 17.2564 26.3924 17.3407L24.4813 16.7496ZM24.7142 17.9477L23.1075 19.1393C23.1005 19.1299 23.0407 19.044 23.0122 18.8866C22.9822 18.7207 23.0049 18.5723 23.0387 18.4749L24.9283 19.1315L26.8178 19.7882C27.2022 18.6818 26.9492 17.6032 26.3209 16.7561L24.7142 17.9477ZM24.9283 19.1315L23.0387 18.4749C22.9472 18.7383 22.8598 18.8879 22.8034 18.9642L24.4124 20.1527L26.0215 21.3412C26.3704 20.8687 26.6268 20.3376 26.8178 19.7882L24.9283 19.1315ZM24.4124 20.1527L22.8034 18.9642C22.3459 19.5836 22.1262 20.2954 22.0304 20.97L24.0108 21.2514L25.9913 21.5328C26.0077 21.4172 26.0278 21.3502 26.0389 21.3198C26.0495 21.2908 26.0484 21.3046 26.0215 21.3412L24.4124 20.1527ZM24.0108 21.2514L22.0304 20.97C21.9763 21.3505 21.9126 21.6193 21.8538 21.7983L23.7542 22.4227L25.6546 23.047C25.8078 22.5808 25.9152 22.0688 25.9913 21.5328L24.0108 21.2514ZM23.7542 22.4227L21.8538 21.7983C21.7753 22.037 21.6678 22.3097 21.5259 22.618L23.343 23.4545L25.1601 24.2909C25.3544 23.8688 25.521 23.4536 25.6546 23.047L23.7542 22.4227ZM23.343 23.4545L21.5259 22.618C21.375 22.9458 21.2131 23.2709 21.0401 23.5932L22.8026 24.5392L24.5651 25.4852C24.7764 25.0917 24.9747 24.6936 25.1601 24.2909L23.343 23.4545ZM22.8026 24.5392L21.0401 23.5932C20.9482 23.7644 20.843 23.8977 20.7258 24.0063L22.0853 25.4737L23.4449 26.941C23.8998 26.5195 24.2728 26.0298 24.5651 25.4852L22.8026 24.5392ZM22.0853 25.4737L20.7258 24.0063C20.4213 24.2885 20.1165 24.5815 19.8115 24.8852L21.2231 26.3026L22.6347 27.7199C22.9071 27.4486 23.1772 27.189 23.4449 26.941L22.0853 25.4737ZM21.2231 26.3026L19.8115 24.8852C19.6821 25.0142 19.5725 25.0817 19.4845 25.1199L20.2809 26.9549L21.0774 28.7898C21.6683 28.5333 22.1868 28.166 22.6347 27.7199L21.2231 26.3026ZM20.2809 26.9549L19.4845 25.1199C19.2426 25.2249 18.9499 25.3285 18.5999 25.4262L19.1381 27.3529L19.6762 29.2795C20.1711 29.1412 20.6404 28.9795 21.0774 28.7898L20.2809 26.9549ZM19.1381 27.3529L18.5999 25.4262C17.7031 25.6768 16.9741 26.2205 16.4653 26.9779L18.1259 28.0933L19.7864 29.2087C19.7936 29.1979 19.783 29.2162 19.7492 29.241C19.7337 29.2523 19.7177 29.2617 19.7029 29.2688C19.6883 29.2758 19.6786 29.2788 19.6762 29.2795L19.1381 27.3529ZM18.1259 28.0933L16.4653 26.9779C16.5018 26.9237 16.6287 26.764 16.8824 26.6529C17.1447 26.5381 17.3772 26.5476 17.4977 26.5709L17.1173 28.5348L16.737 30.4986C17.2775 30.6033 17.8881 30.5799 18.4866 30.3179C19.0765 30.0597 19.4976 29.6386 19.7864 29.2087L18.1259 28.0933ZM17.1173 28.5348L17.4977 26.5709C16.9597 26.4667 16.4214 26.4127 15.8853 26.4153L15.8952 28.4157L15.9051 30.416C16.1585 30.4148 16.4349 30.4401 16.737 30.4986L17.1173 28.5348ZM15.8952 28.4157L15.8853 26.4153C15.6913 26.4163 15.5544 26.3884 15.457 26.3546L14.8013 28.2445L14.1455 30.1343C14.7172 30.3327 15.3096 30.4189 15.9051 30.416L15.8952 28.4157ZM14.8013 28.2445L15.457 26.3546C14.847 26.143 14.2116 26.0717 13.5873 26.0892L13.6433 28.0888L13.6994 30.0883C13.9499 30.0813 14.0865 30.1138 14.1455 30.1343L14.8013 28.2445ZM13.6433 28.0888L13.5873 26.0892C12.8167 26.1108 12.0887 26.3198 11.4188 26.6635L12.3319 28.4433L13.2449 30.2231C13.4487 30.1186 13.595 30.0913 13.6994 30.0883L13.6433 28.0888ZM12.3319 28.4433L11.4188 26.6635C11.4605 26.6421 11.7251 26.5191 12.1187 26.5958C12.5349 26.6768 12.7712 26.9166 12.851 27.0212L11.2609 28.2348L9.67079 29.4485C10.0278 29.9162 10.5811 30.3723 11.3543 30.5228C12.1049 30.6689 12.7664 30.4686 13.2449 30.2231L12.3319 28.4433ZM11.2609 28.2348L12.851 27.0212C12.4333 26.4738 11.904 25.9814 11.2369 25.6545L10.3567 27.4509L9.4766 29.2472C9.46078 29.2394 9.53432 29.2697 9.67079 29.4485L11.2609 28.2348ZM10.3567 27.4509L11.2369 25.6545C10.6395 25.3618 10.0023 25.2156 9.36069 25.1765L9.23904 27.1732L9.11738 29.1698C9.31472 29.1819 9.4227 29.2208 9.4766 29.2472L10.3567 27.4509ZM9.23904 27.1732L9.36069 25.1765C9.31253 25.1736 9.30823 25.1675 9.33356 25.1765C9.34615 25.181 9.36401 25.1885 9.38519 25.2002C9.40647 25.212 9.42812 25.2264 9.44885 25.243L8.19611 26.8025L6.94337 28.362C7.59894 28.8887 8.36432 29.124 9.11738 29.1698L9.23904 27.1732ZM8.19611 26.8025L9.44885 25.243C8.92341 24.8209 8.32475 24.5445 7.70106 24.3791L7.18826 26.3126L6.67545 28.2461C6.84398 28.2908 6.91723 28.341 6.94337 28.362L8.19611 26.8025ZM7.18826 26.3126L7.70106 24.3791C7.4131 24.3027 7.20371 24.2203 7.05608 24.1449L6.1464 25.9265L5.23673 27.708C5.68601 27.9374 6.17119 28.1124 6.67545 28.2461L7.18826 26.3126ZM6.1464 25.9265L7.05608 24.1449C7.15786 24.1969 7.23021 24.2618 7.27302 24.3122C7.31202 24.3581 7.3125 24.3751 7.29419 24.3316L5.45024 25.107L3.60629 25.8824C3.90338 26.5889 4.413 27.2874 5.23673 27.708L6.1464 25.9265ZM5.45024 25.107L7.29419 24.3316C7.02872 23.7003 6.65053 23.1362 6.16876 22.6503L4.74815 24.0586L3.32753 25.4669C3.45058 25.591 3.54046 25.7259 3.60629 25.8824L5.45024 25.107ZM4.74815 24.0586L6.16876 22.6503C5.69882 22.1762 5.15643 21.7958 4.5557 21.5075L3.69013 23.3109L2.82456 25.1143C3.0297 25.2127 3.19265 25.3308 3.32753 25.4669L4.74815 24.0586ZM3.69013 23.3109L4.5557 21.5075C4.60225 21.5298 4.69964 21.5903 4.79088 21.7089C4.88211 21.8275 4.91559 21.9371 4.92525 21.9878L2.96024 22.3622L0.995231 22.7366C1.19776 23.7995 1.84907 24.6461 2.82456 25.1143L3.69013 23.3109ZM2.96024 22.3622L4.92525 21.9878C4.84326 21.5575 4.77297 21.1722 4.71409 20.831L2.74287 21.1712L0.771647 21.5114C0.835273 21.8801 0.909891 22.2888 0.995231 22.7366L2.96024 22.3622ZM2.74287 21.1712L4.71409 20.831C4.6174 20.2708 4.43525 19.7341 4.18571 19.2239L2.38882 20.1029L0.591936 20.9819C0.691948 21.1864 0.745829 21.3618 0.771647 21.5114L2.74287 21.1712ZM2.38882 20.1029L4.18571 19.2239C4.18658 19.2257 4.18832 19.2297 4.19002 19.2352C4.19172 19.2406 4.19256 19.245 4.19288 19.2471C4.19319 19.2492 4.19265 19.2468 4.19265 19.2388C4.19265 19.2307 4.19322 19.2157 4.19632 19.1929L2.21421 18.9233L0.232099 18.6537C0.125261 19.4391 0.227481 20.2369 0.591936 20.9819L2.38882 20.1029ZM2.21421 18.9233L4.19632 19.1929C4.30016 18.4295 4.21082 17.6775 3.95544 16.9627L2.07172 17.6358L0.18801 18.309C0.239345 18.4526 0.244997 18.5589 0.232099 18.6537L2.21421 18.9233ZM2.07172 17.6358L3.95544 16.9627C3.99286 17.0675 4.02818 17.262 3.97195 17.4929C3.91844 17.7126 3.81502 17.8298 3.79544 17.85L2.35844 16.4584L0.921432 15.0669C0.557354 15.4428 0.233894 15.9341 0.0848161 16.5463C-0.0669825 17.1697 -0.00276902 17.775 0.18801 18.309L2.07172 17.6358ZM2.35844 16.4584L3.79544 17.85C4.56308 17.0573 4.97605 15.9264 4.5824 14.6967L2.67726 15.3065L0.772128 15.9163C0.730098 15.785 0.708945 15.5857 0.768637 15.3701C0.823947 15.1702 0.916587 15.0719 0.921432 15.0669L2.35844 16.4584ZM2.67726 15.3065L4.5824 14.6967C4.57978 14.6885 4.59192 14.7237 4.5891 14.791C4.58615 14.8611 4.56854 14.9257 4.54726 14.9726L2.72605 14.1451L0.904841 13.3177C0.516065 14.1734 0.503343 15.0767 0.772128 15.9163L2.67726 15.3065ZM2.72605 14.1451L4.54726 14.9726C4.59163 14.8749 4.64884 14.7982 4.73173 14.7267L3.42548 13.2118L2.11922 11.6968C1.5985 12.1458 1.18943 12.6913 0.904841 13.3177L2.72605 14.1451ZM3.42548 13.2118L4.73173 14.7267C5.2023 14.321 5.59746 13.845 5.90443 13.3018L4.16297 12.3176L2.42151 11.3333C2.34877 11.462 2.25227 11.5821 2.11922 11.6968L3.42548 13.2118ZM4.16297 12.3176L5.90443 13.3018C5.96328 13.1977 6.04462 13.0983 6.16714 13.0004L4.91866 11.4375L3.67017 9.8746C3.16483 10.2783 2.74238 10.7656 2.42151 11.3333L4.16297 12.3176ZM4.91866 11.4375L6.16714 13.0004C6.84657 12.4577 7.27233 11.7392 7.5208 10.9867L5.62132 10.3595L3.72184 9.73225C3.69089 9.82598 3.66397 9.87227 3.65396 9.88764C3.64541 9.90075 3.6496 9.89103 3.67017 9.8746L4.91866 11.4375ZM5.62132 10.3595L7.5208 10.9867C7.57116 10.8342 7.61845 10.7251 7.65688 10.6507C7.67578 10.6141 7.69137 10.5881 7.7026 10.5709C7.71382 10.5538 7.7199 10.5466 7.71964 10.5469L6.19003 9.2578L4.66041 7.96872C4.21852 8.49307 3.92575 9.11475 3.72184 9.73225L5.62132 10.3595ZM6.19003 9.2578L7.71964 10.5469C7.67093 10.6047 7.61217 10.6512 7.55598 10.6821C7.50306 10.7113 7.47567 10.7139 7.49508 10.7102L7.12171 8.74499L6.74833 6.77978C5.97506 6.9267 5.22696 7.29646 4.66041 7.96872L6.19003 9.2578ZM7.12171 8.74499L7.49508 10.7102C8.21512 10.5734 8.87326 10.2687 9.44358 9.80992L8.18981 8.25123L6.93605 6.69254C6.87521 6.74148 6.82128 6.76592 6.74833 6.77978L7.12171 8.74499ZM8.18981 8.25123L9.44358 9.80992C9.4175 9.8309 9.36885 9.86125 9.30315 9.88195C9.23862 9.90228 9.19388 9.90191 9.18585 9.90148L9.29218 7.90395L9.39852 5.90641C8.50716 5.85896 7.65075 6.11765 6.93605 6.69254L8.18981 8.25123ZM9.29218 7.90395L9.18585 9.90148C9.93058 9.94113 10.7723 9.79806 11.5059 9.25103L10.3102 7.64739L9.11443 6.04375C9.21273 5.97046 9.30761 5.93315 9.37233 5.91684C9.43135 5.90197 9.44671 5.90898 9.39852 5.90641L9.29218 7.90395ZM10.3102 7.64739L11.5059 9.25103C11.6213 9.16497 11.5943 9.19659 11.4834 9.25065C11.4714 9.25652 11.1851 9.40791 10.7686 9.42505C10.5336 9.43473 10.0839 9.40878 9.62377 9.11175C9.11422 8.78279 8.86065 8.29722 8.76835 7.88845L10.7196 7.44785L12.6708 7.00725C12.5751 6.5834 12.3143 6.08671 11.7937 5.75059C11.3225 5.44641 10.8578 5.41727 10.6041 5.42772C10.15 5.44641 9.81091 5.6152 9.73064 5.65432C9.48324 5.77489 9.25833 5.93645 9.11443 6.04375L10.3102 7.64739ZM10.7196 7.44785L8.76835 7.88845C8.96537 8.76095 9.63753 9.15038 9.72052 9.20116C9.92271 9.32485 10.113 9.39655 10.2183 9.43337C10.4456 9.51287 10.6952 9.57103 10.9137 9.61575L11.3149 7.65604L11.7161 5.69633C11.5513 5.66259 11.5101 5.64682 11.539 5.65693C11.5451 5.65905 11.6592 5.69718 11.8084 5.78844C11.8845 5.835 12.0281 5.93042 12.1795 6.08885C12.3271 6.24327 12.5669 6.54683 12.6708 7.00725L10.7196 7.44785ZM11.492 8.91287L10.4187 10.6009C11.2105 11.1043 12.0969 11.2471 12.9578 11.1279L12.6833 9.14644L12.4088 7.16499C12.3754 7.16962 12.388 7.16328 12.4321 7.17191C12.4793 7.18118 12.5276 7.20086 12.5653 7.22483L11.492 8.91287ZM12.6833 9.14644L12.9578 11.1279C13.4873 11.0545 13.9994 10.9514 14.4919 10.8158L13.9607 8.88725L13.4296 6.95868C13.1209 7.04369 12.7814 7.11338 12.4088 7.16499L12.6833 9.14644ZM13.9607 8.88725L14.4919 10.8158C14.4785 10.8195 14.4376 10.8276 14.3804 10.8226C14.3231 10.8177 14.2847 10.8028 14.2731 10.7973L15.1261 8.9879L15.9791 7.17853C15.1711 6.79761 14.2917 6.72128 13.4296 6.95868L13.9607 8.88725ZM15.1261 8.9879L14.2731 10.7973C14.661 10.9802 15.0286 11.1488 15.3753 11.3028L16.1873 9.47465L16.9993 7.6465C16.6837 7.50633 16.3437 7.35045 15.9791 7.17853L15.1261 8.9879ZM16.1873 9.47465L15.3753 11.3028C15.9957 11.5783 16.6522 11.6954 17.3027 11.7067L17.3375 9.70664L17.3723 7.70658C17.1515 7.70274 17.0412 7.66513 16.9993 7.6465L16.1873 9.47465ZM17.3375 9.70664L17.3027 11.7067C17.4897 11.71 17.5834 11.7449 17.625 11.7652L18.5022 9.96741L19.3793 8.16962C18.7394 7.85741 18.0567 7.71848 17.3723 7.70658L17.3375 9.70664ZM18.5022 9.96741L17.625 11.7652C18.1038 11.9988 18.6125 12.1787 19.1429 12.3125L19.6322 10.3729L20.1215 8.43334C19.8268 8.35899 19.5821 8.26854 19.3793 8.16962L18.5022 9.96741ZM19.6322 10.3729L19.1429 12.3125C19.0519 12.2896 18.9392 12.2366 18.8401 12.1484C18.7468 12.0655 18.7166 11.9969 18.7191 12.0024L20.5448 11.1849L22.3704 10.3673C21.9601 9.45114 21.2078 8.70737 20.1215 8.43334L19.6322 10.3729ZM20.5448 11.1849L18.7191 12.0024C18.9291 12.4714 19.1407 12.9106 19.3543 13.3181L21.1261 12.3895L22.8979 11.461C22.7279 11.1367 22.552 10.7727 22.3704 10.3673L20.5448 11.1849ZM21.1261 12.3895L19.3543 13.3181C19.6397 13.8627 20.0018 14.3554 20.4393 14.7878L21.8455 13.3651L23.2517 11.9424C23.1135 11.8059 22.996 11.6482 22.8979 11.461L21.1261 12.3895ZM21.8455 13.3651L20.4393 14.7878C20.6271 14.9734 20.7344 15.1202 20.7937 15.2228L22.5258 14.2221L24.2579 13.2215C23.9857 12.7503 23.6395 12.3258 23.2517 11.9424L21.8455 13.3651ZM22.5258 14.2221L20.7937 15.2228C20.7779 15.1954 20.7672 15.1714 20.7603 15.1531C20.7535 15.135 20.7511 15.1241 20.7508 15.1226C20.7504 15.1208 20.7578 15.1552 20.7553 15.2372L22.7548 15.298L24.7542 15.3588C24.7752 14.666 24.6577 13.9136 24.2579 13.2215L22.5258 14.2221ZM22.7548 15.298L20.7553 15.2372C20.7367 15.8492 20.801 16.4559 20.9446 17.0528L22.8894 16.5846L24.8343 16.1165C24.7722 15.8586 24.7466 15.6075 24.7542 15.3588L22.7548 15.298ZM22.8894 16.5846L20.9446 17.0528C21.0542 17.5079 21.1642 17.9185 21.2757 18.2778L23.1863 17.6854L25.0969 17.0931C25.0183 16.8395 24.9305 16.5162 24.8343 16.1165L22.8894 16.5846ZM23.1863 17.6854L21.2757 18.2778C21.3075 18.3806 21.3437 18.5594 21.3551 18.8391L23.3538 18.7576L25.3525 18.6761C25.3306 18.1392 25.2551 17.6033 25.0969 17.0931L23.1863 17.6854ZM23.3538 18.7576L21.3551 18.8391C21.3765 19.3655 21.4442 19.8845 21.5596 20.3945L23.5106 19.953L25.4617 19.5116C25.4012 19.2442 25.3643 18.9664 25.3525 18.6761L23.3538 18.7576ZM23.5106 19.953L21.5596 20.3945C21.5305 20.2659 21.5223 20.0671 21.597 19.8498C21.6684 19.6422 21.7772 19.5285 21.8133 19.4957L23.1591 20.9756L24.505 22.4555C25.2997 21.7328 25.7259 20.6793 25.4617 19.5116L23.5106 19.953ZM23.1591 20.9756L21.8133 19.4957C21.2721 19.9878 20.7789 20.6642 20.6196 21.5423L22.5879 21.8994L24.5561 22.2564C24.5363 22.3657 24.4988 22.4415 24.4759 22.4784C24.4557 22.5112 24.4547 22.5012 24.505 22.4555L23.1591 20.9756ZM22.5879 21.8994L20.6196 21.5423C20.5726 21.8017 20.5038 22.107 20.4097 22.4613L22.343 22.9748L24.2764 23.4882C24.3917 23.0542 24.4861 22.6425 24.5561 22.2564L22.5879 21.8994ZM22.343 22.9748L20.4097 22.4613C20.4159 22.4378 20.4329 22.3934 20.4673 22.3452C20.5012 22.2977 20.5317 22.2749 20.536 22.272L21.6672 23.9218L22.7985 25.5715C23.5268 25.0721 24.0451 24.359 24.2764 23.4882L22.343 22.9748ZM21.6672 23.9218L20.536 22.272C19.602 22.9124 19.1767 23.8799 19.0861 24.8414L21.0776 25.0291L23.0691 25.2168C23.0729 25.1772 23.0747 25.2254 23.0261 25.3167C22.9726 25.4171 22.8903 25.5086 22.7985 25.5715L21.6672 23.9218ZM21.0776 25.0291L19.0861 24.8414C19.0877 24.8237 19.1141 24.5755 19.3486 24.3048C19.6068 24.0068 19.9197 23.9073 20.0873 23.885L20.3509 25.8679L20.6144 27.8508C21.2193 27.7704 21.8719 27.5021 22.3724 26.9245C22.8491 26.3742 23.0202 25.7356 23.0691 25.2168L21.0776 25.0291ZM20.3509 25.8679L20.0873 23.885C19.1958 24.0035 18.3863 24.4112 17.7736 25.117L19.2842 26.4283L20.7947 27.7397C20.7752 27.7622 20.738 27.7955 20.6866 27.8224C20.6369 27.8486 20.606 27.852 20.6144 27.8508L20.3509 25.8679ZM19.2842 26.4283L17.7736 25.117C17.8054 25.0804 17.8748 25.0166 17.9841 24.9664C18.0932 24.9163 18.1854 24.9058 18.2308 24.9055L18.2442 26.9058L18.2576 28.9061C19.2493 28.8995 20.1423 28.4913 20.7947 27.7397L19.2842 26.4283ZM18.2442 26.9058L18.2308 24.9055C17.5156 24.9103 16.8266 25.0701 16.1825 25.3746L17.0375 27.1831L17.8925 28.9915C18.0184 28.932 18.1339 28.907 18.2576 28.9061L18.2442 26.9058ZM17.0375 27.1831L16.1825 25.3746C16.0467 25.4389 15.9635 25.447 15.9141 25.4462L15.8801 27.4462L15.8461 29.4463C16.5699 29.4586 17.2583 29.2913 17.8925 28.9915L17.0375 27.1831ZM15.8801 27.4462L15.9141 25.4462C15.4642 25.4385 15.0082 25.4521 14.5465 25.4862L14.6936 27.4811L14.8407 29.476C15.1877 29.4504 15.5227 29.4408 15.8461 29.4463L15.8801 27.4462ZM14.6936 27.4811L14.5465 25.4862C14.1184 25.5177 13.7149 25.5553 13.3371 25.5993L13.5683 27.5862L13.7996 29.5732C14.1133 29.5366 14.46 29.5041 14.8407 29.476L14.6936 27.4811ZM13.5683 27.5862L13.3371 25.5993C13.1843 25.617 12.9373 25.621 12.5726 25.58L12.3491 27.5678L12.1257 29.5557C12.695 29.6197 13.2607 29.6359 13.7996 29.5732L13.5683 27.5862ZM12.3491 27.5678L12.5726 25.58C12.6173 25.585 12.7096 25.6068 12.8105 25.6718C12.9093 25.7355 12.9542 25.8005 12.9611 25.8115L11.2623 26.8676L9.56343 27.9238C10.13 28.835 11.0238 29.4318 12.1257 29.5557L12.3491 27.5678ZM11.2623 26.8676L12.9611 25.8115C12.6769 25.3543 12.2337 24.8735 11.5717 24.6003C10.8941 24.3206 10.2192 24.354 9.65975 24.5172L10.2201 26.4375L10.7804 28.3578C10.6582 28.3934 10.3755 28.4347 10.0454 28.2984C9.73072 28.1685 9.59004 27.9666 9.56343 27.9238L11.2623 26.8676ZM10.2201 26.4375L9.65975 24.5172C9.6377 24.5236 9.62434 24.5259 9.61896 24.5267C9.61376 24.5274 9.61496 24.5269 9.62142 24.527C9.62802 24.5271 9.63688 24.5279 9.64676 24.5298C9.65663 24.5316 9.66409 24.5339 9.66826 24.5355L8.97711 26.4126L8.28596 28.2898C9.11647 28.5956 9.97202 28.5937 10.7804 28.3578L10.2201 26.4375ZM8.97711 26.4126L9.66826 24.5355C9.73334 24.5594 9.82318 24.6097 9.90536 24.6935C9.98483 24.7745 10.0149 24.8439 10.02 24.8571L8.15098 25.57L6.28195 26.2829C6.63056 27.1969 7.30971 27.9304 8.28596 28.2898L8.97711 26.4126ZM8.15098 25.57L10.02 24.8571C9.65936 23.9116 8.90821 23.1152 7.76825 22.8631L7.33633 24.8163L6.90441 26.7694C6.77241 26.7403 6.61036 26.6671 6.46934 26.5367C6.3368 26.414 6.28951 26.3027 6.28195 26.2829L8.15098 25.57ZM7.33633 24.8163L7.76825 22.8631C7.47623 22.7985 7.11629 22.6961 6.68231 22.5472L6.03295 24.4392L5.38358 26.3312C5.91982 26.5153 6.42881 26.6643 6.90441 26.7694L7.33633 24.8163ZM6.03295 24.4392L6.68231 22.5472C6.52704 22.4939 6.48298 22.4638 6.50421 22.4771C6.51813 22.4858 6.56604 22.517 6.62959 22.5776C6.69361 22.6385 6.78558 22.7407 6.87018 22.8912L5.12655 23.8716L3.38292 24.852C3.66524 25.3541 4.06912 25.6726 4.38082 25.8678C4.70418 26.0703 5.05374 26.218 5.38358 26.3312L6.03295 24.4392ZM5.12655 23.8716L6.87018 22.8912C6.58515 22.3843 6.14107 21.9356 5.74622 21.5779L4.40331 23.0605L3.06039 24.5431C3.2062 24.6752 3.30326 24.7738 3.36336 24.8412C3.42979 24.9157 3.41928 24.9167 3.38292 24.852L5.12655 23.8716ZM4.40331 23.0605L5.74622 21.5779C5.75132 21.5826 5.81453 21.6431 5.86546 21.7684C5.91857 21.8992 5.92532 22.0195 5.91786 22.0927L3.9278 21.89L1.93774 21.6872C1.82156 22.8276 2.26943 23.8266 3.06039 24.5431L4.40331 23.0605ZM3.9278 21.89L5.91786 22.0927C5.96975 21.5834 5.99649 21.0958 5.99367 20.6337L3.99334 20.6459L1.99302 20.6582C1.99481 20.9516 1.97787 21.2934 1.93774 21.6872L3.9278 21.89ZM3.99334 20.6459L5.99367 20.6337C5.99032 20.0867 5.91781 19.5414 5.78713 19.0018L3.84298 19.4727L1.89882 19.9436C1.964 20.2127 1.99174 20.4496 1.99302 20.6582L3.99334 20.6459ZM3.84298 19.4727L5.78713 19.0018C5.60597 18.2538 5.24058 17.5949 4.76507 17.0264L3.23073 18.3099L1.69639 19.5933C1.84135 19.7666 1.88413 19.8829 1.89882 19.9436L3.84298 19.4727ZM3.23073 18.3099L4.76507 17.0264C4.82767 17.1013 4.99194 17.3441 4.99558 17.7249C4.99913 18.0968 4.84641 18.3249 4.80908 18.3737L3.21974 17.159L1.63041 15.9443C1.29017 16.3895 0.987822 17.0076 0.995035 17.7631C1.00233 18.5275 1.32355 19.1476 1.69639 19.5933L3.23073 18.3099ZM3.21974 17.159L4.80908 18.3737C5.48842 17.4848 5.73598 16.3457 5.2889 15.1999L3.42539 15.9271L1.56187 16.6543C1.52665 16.564 1.4946 16.4082 1.52528 16.2244C1.55444 16.0498 1.6227 15.9544 1.63041 15.9443L3.21974 17.159ZM3.42539 15.9271L5.2889 15.1999C5.29235 15.2088 5.31867 15.2832 5.31302 15.4048C5.30711 15.5319 5.26952 15.6398 5.23031 15.7106L3.48054 14.7412L1.73076 13.7718C1.21124 14.7095 1.20217 15.7324 1.56187 16.6543L3.42539 15.9271ZM3.48054 14.7412L5.23031 15.7106C5.23141 15.7086 5.23104 15.7096 5.22903 15.7122C5.22699 15.7148 5.2251 15.7167 5.22427 15.7175C5.2235 15.7182 5.22574 15.716 5.23268 15.7112C5.23973 15.7064 5.25282 15.6982 5.27386 15.6878L4.38728 13.8946L3.5007 12.1015C2.76184 12.4668 2.14513 13.0239 1.73076 13.7718L3.48054 14.7412ZM4.38728 13.8946L5.27386 15.6878C6.11474 15.2721 6.78465 14.5693 7.08175 13.5964L5.1686 13.0122L3.25545 12.428C3.27654 12.3589 3.31949 12.2745 3.38637 12.1989C3.45022 12.1268 3.50217 12.1008 3.5007 12.1015L4.38728 13.8946ZM5.1686 13.0122L7.08175 13.5964C7.14933 13.3751 7.23965 13.1815 7.35035 13.0085L5.66546 11.9303L3.98057 10.852C3.66673 11.3425 3.42581 11.8701 3.25545 12.428L5.1686 13.0122ZM5.66546 11.9303L7.35035 13.0085C7.55757 12.6847 7.76385 12.3674 7.96916 12.0565L6.30006 10.954L4.63096 9.85151C4.41469 10.1789 4.1979 10.5124 3.98057 10.852L5.66546 11.9303ZM6.30006 10.954L7.96916 12.0565C7.97603 12.0462 7.98015 12.0423 7.98319 12.0397C7.98661 12.0367 7.99981 12.0257 8.03146 12.0103L7.1533 10.213L6.27514 8.41565C5.6102 8.74054 5.04708 9.22155 4.63096 9.85151L6.30006 10.954ZM7.1533 10.213L8.03146 12.0103C8.35897 11.8502 8.67262 11.7074 8.9726 11.581L8.19606 9.73752L7.41953 7.89404C7.04521 8.05171 6.66369 8.22581 6.27514 8.41565L7.1533 10.213ZM8.19606 9.73752L8.9726 11.581C9.47346 11.37 9.94685 11.092 10.3936 10.7642L9.21022 9.15142L8.02679 7.53867C7.79567 7.70826 7.59297 7.82098 7.41953 7.89404L8.19606 9.73752ZM9.21022 9.15142L10.3936 10.7642C10.6726 10.5595 10.9625 10.3706 11.2635 10.1976L10.2666 8.46335L9.26961 6.72913C8.84011 6.97603 8.42573 7.24593 8.02679 7.53867L9.21022 9.15142ZM10.2666 8.46335L11.2635 10.1976C11.4006 10.1187 11.2782 10.2166 11.0007 10.2591C10.8483 10.2824 10.4734 10.317 10.0353 10.1285C9.52254 9.90781 9.18081 9.49362 9.02119 9.06484L10.8959 8.36697L12.7706 7.6691C12.5838 7.16745 12.1955 6.70262 11.6167 6.45356C11.1126 6.23663 10.6523 6.26505 10.395 6.30445C9.90772 6.37908 9.49778 6.59796 9.26961 6.72913L10.2666 8.46335ZM10.8959 8.36697L9.02119 9.06484C9.21231 9.57823 9.54953 9.91848 9.73464 10.088C9.95175 10.2868 10.1928 10.4573 10.4187 10.6009L11.492 8.91287L12.5653 7.22483C12.448 7.15024 12.4181 7.12064 12.4366 7.1375C12.4477 7.14773 12.4914 7.18852 12.5471 7.26076C12.6004 7.32973 12.6951 7.46651 12.7706 7.6691L10.8959 8.36697Z" fill="#34C759"/>
<path d="M17.2811 9.16746L17.2997 9.17874L17.317 9.19106L17.3584 9.22094C17.5027 9.32433 17.5872 9.46303 17.6381 9.57823C17.6901 9.69593 17.7226 9.82383 17.744 9.94915L17.7796 10.1586C17.7864 10.1983 17.799 10.2262 17.8575 10.2632L17.9519 10.3229L18.0465 10.3827C18.3204 10.556 18.5272 10.8025 18.6255 11.1206L18.6848 11.312C18.7421 11.4974 18.7972 11.6826 18.8499 11.8674L18.8769 11.9629L18.9042 12.0583C18.9603 12.2552 19.0075 12.4544 19.0452 12.6557L19.0633 12.7532L19.0816 12.8507C19.1168 13.038 19.1507 13.2262 19.1836 13.4151L19.2009 13.5134L19.218 13.6117C19.259 13.8471 19.2672 14.0844 19.2423 14.3221L19.2214 14.5208C19.2054 14.6735 19.2047 14.8282 19.2193 14.9853L19.2284 15.0864L19.2379 15.1874C19.2649 15.4798 19.211 15.7628 19.0809 16.0257L19.035 16.1182L18.9894 16.2105C18.9152 16.3603 18.8565 16.5089 18.8124 16.6564L18.7563 16.8438C18.6888 17.0697 18.5907 17.2835 18.4635 17.4842L18.3566 17.653C18.3179 17.7142 18.2956 17.7863 18.2997 17.8881L18.3039 17.9951L18.3084 18.1018C18.32 18.3911 18.2628 18.6707 18.1272 18.927L18.0811 19.014L18.0349 19.1013C17.9074 19.3424 17.728 19.5455 17.5081 19.7115L17.4223 19.7765L17.3364 19.8413C17.2213 19.9281 17.1403 20.0187 17.0842 20.1108L16.9841 20.2754C16.9158 20.3873 16.8611 20.5125 16.8218 20.6531L16.7673 20.8487C16.7067 21.065 16.6277 21.2731 16.53 21.472L16.4863 21.5609L16.4427 21.6498C16.3377 21.8637 16.2048 22.0594 16.0446 22.2351L15.9119 22.3803C15.8102 22.4918 15.7202 22.6128 15.6419 22.7434L15.5911 22.8283L15.5402 22.913C15.4352 23.0881 15.3226 23.258 15.2023 23.4223L15.1439 23.5017L15.0857 23.5814C14.9735 23.7347 14.8599 23.8872 14.7449 24.0391L14.6254 24.1969C14.4377 24.4448 14.1837 24.6111 13.8919 24.7057L13.6804 24.7744C13.6482 24.7848 13.6384 24.7944 13.6371 24.7956C13.6363 24.7964 13.6283 24.8035 13.619 24.8302L13.5831 24.933L13.5475 25.036C13.4475 25.3232 13.2764 25.5702 13.0279 25.7516L12.8683 25.8683C12.6785 26.0069 12.4708 26.1201 12.2476 26.209L12.0541 26.2861C11.8955 26.3493 11.7494 26.4212 11.6153 26.5013L11.4465 26.602C11.4074 26.6253 11.2866 26.7356 11.0997 27.0476L10.956 27.2875L10.8965 27.3412L10.8766 27.359L10.5167 26.9608L10.4577 26.8953L10.076 26.667L10.1788 26.4956C10.3812 26.1579 10.6153 25.8478 10.8963 25.6801L10.9804 25.6297L11.0648 25.5794C11.2508 25.4684 11.4485 25.3717 11.657 25.2887L11.8504 25.2116C11.9943 25.1543 12.1218 25.0838 12.235 25.0011L12.3149 24.9429L12.3946 24.8845C12.4491 24.8447 12.4975 24.7861 12.5333 24.6832L12.5689 24.5804L12.6048 24.4774C12.7293 24.1196 12.9928 23.8684 13.3493 23.7529L13.4549 23.7185L13.5608 23.6844C13.6705 23.6489 13.7304 23.6003 13.7692 23.5489L13.8888 23.3911C14.0003 23.2437 14.1105 23.0957 14.2193 22.9471L14.336 22.7879C14.4368 22.6503 14.5312 22.5079 14.6193 22.3609L14.7211 22.1911C14.8359 21.9996 14.9684 21.8213 15.1184 21.6568L15.2511 21.5116C15.3425 21.4113 15.4183 21.3 15.4789 21.1766L15.5224 21.0877L15.5662 20.9989C15.6341 20.8604 15.6899 20.714 15.7332 20.5593L15.7604 20.4615L15.7879 20.3637C15.8524 20.1334 15.945 19.9169 16.0671 19.7165L16.1174 19.6342L16.1675 19.5519C16.3018 19.3317 16.4791 19.1431 16.6897 18.9841L16.7754 18.9194L16.8614 18.8546C16.9671 18.7748 17.0381 18.6893 17.0858 18.5993L17.178 18.4247C17.2176 18.3498 17.2401 18.2609 17.2354 18.1448L17.2312 18.0381L17.2268 17.9311C17.2146 17.6277 17.2857 17.3372 17.4496 17.0784L17.5566 16.9096C17.6322 16.7902 17.6886 16.666 17.7275 16.536L17.7836 16.3486C17.8459 16.1402 17.9275 15.9353 18.0271 15.7342L18.0727 15.6416L18.1186 15.5491C18.1621 15.4612 18.1773 15.3772 18.1689 15.2865L18.15 15.0843C18.1291 14.8583 18.1303 14.633 18.1537 14.4091L18.1639 14.3097L18.1744 14.2107C18.1889 14.0716 18.1843 13.9338 18.1602 13.796L18.1429 13.6977L18.1259 13.5994C18.0938 13.415 18.0605 13.2313 18.0263 13.0486L18.0079 12.9508L17.9899 12.8533C17.9582 12.6846 17.9187 12.5177 17.8716 12.3527L17.8444 12.2572L17.8174 12.1618C17.7668 11.9846 17.7141 11.8071 17.659 11.6292L17.5998 11.4378C17.5858 11.3926 17.5571 11.3438 17.4724 11.2902L17.3778 11.2305L17.2834 11.1707C16.9834 10.9809 16.7825 10.6967 16.7214 10.3395L16.6857 10.13C16.6802 10.0976 16.674 10.072 16.6687 10.0522L16.4302 9.90852L16.362 9.74966L16.3515 9.72502L16.8449 9.51322L16.8789 9.4988L17.1322 9.07781L17.2811 9.16746Z" fill="#34C759"/>
<path d="M17.1822 4.01582C15.6238 2.19773 14.2415 4.77332 11.6814 0.715151C11.6814 6.88362 14.7639 8.68918 17.1822 9.52121C17.885 8.07247 18.4808 5.53088 17.1822 4.01582Z" fill="#34C759"/>
<path d="M10.7175 1.28882C10.8681 1.3287 10.9753 1.4222 11.0417 1.5196L11.1247 1.5443C11.3977 1.62606 11.6092 1.80224 11.75 2.03821L11.9414 2.35934L12.2885 2.36117C12.5123 2.3622 12.7296 2.41185 12.9304 2.51677L13.2884 2.70393C13.3171 2.71888 13.3399 2.72277 13.3689 2.72011L13.5681 2.702L13.7674 2.68364C13.9106 2.67048 14.0561 2.66117 14.2039 2.65585L14.6183 2.64088C14.7321 2.63678 14.836 2.62546 14.9305 2.60763L15.3009 2.53763C15.4578 2.50804 15.6174 2.4934 15.7788 2.49307L16.167 2.49222C16.3651 2.49182 16.5588 2.52893 16.7453 2.59726L16.9434 2.66999L17.1419 2.74252C17.382 2.83054 17.5795 2.98705 17.7196 3.20182L17.949 3.55329C18.0042 3.63788 18.0692 3.71783 18.1451 3.79307L18.4513 4.09673C18.6867 4.33016 18.7692 4.63539 18.7194 4.94389L18.6827 5.17255L18.6456 5.40141C18.6278 5.51196 18.6273 5.59996 18.6363 5.66905L18.6614 5.86247L18.6862 6.0561C18.6979 6.14635 18.7198 6.238 18.7528 6.33157L18.8876 6.71458C18.9423 6.86976 18.9843 7.02884 19.0133 7.19141L19.0492 7.3928L19.0853 7.59424C19.1282 7.83439 19.1025 8.15943 18.8313 8.39298L18.7197 8.48903L18.608 8.58534C18.4118 8.75439 18.1744 8.81097 17.9622 8.8178L17.5602 8.8309C17.3358 8.83812 17.1199 8.78991 16.9195 8.69211L16.7328 8.60076L16.5459 8.50966C16.5231 8.49855 16.5007 8.49334 16.4628 8.49909L16.2501 8.53141L16.0373 8.56399C15.7246 8.61155 15.4319 8.51296 15.2102 8.29091L14.936 8.01618L14.4711 8.07634C14.1839 8.1133 13.8869 8.05052 13.6468 7.8361L13.3346 7.55745C13.2086 7.44497 13.093 7.32312 12.988 7.192L12.859 7.03043L12.7296 6.86906C12.6852 6.81356 12.6307 6.76586 12.5626 6.72547L12.1965 6.50818C11.9636 6.37006 11.7968 6.16361 11.7094 5.90867L11.5701 5.50209C11.5437 5.4252 11.5085 5.36402 11.4662 5.31365L11.3358 5.15795L11.2053 5.0025C11.0908 4.8659 10.9938 4.71724 10.915 4.55748L10.7358 4.19387C10.6516 4.02303 10.5948 3.84208 10.5649 3.65322L10.4997 3.24182C10.4875 3.16538 10.4643 3.09937 10.431 3.04019L10.2337 2.6899C10.1736 2.58322 10.1118 2.44856 10.0843 2.29791C10.069 2.28565 10.0525 2.2718 10.0362 2.25544C9.99616 2.21523 9.89596 2.10353 9.87738 1.92304C9.85506 1.70603 9.96239 1.54571 10.0552 1.46199C10.1341 1.39084 10.2147 1.36008 10.2485 1.34819L10.3747 1.30383C10.4484 1.27792 10.5724 1.2504 10.7175 1.28882ZM16.3758 3.60533C16.2979 3.57677 16.2297 3.56577 16.1691 3.5659L15.7809 3.56675C15.6835 3.56695 15.5901 3.57575 15.5 3.59274L15.1296 3.66274C14.9771 3.69149 14.8192 3.70806 14.6568 3.7139L14.2424 3.72887C14.1139 3.7335 13.9883 3.74153 13.8657 3.7528L13.6664 3.77116L13.4671 3.78927C13.2305 3.81103 13.0011 3.76504 12.7911 3.65534L12.6122 3.56179L12.4331 3.46844C12.3952 3.44867 12.3487 3.43514 12.2836 3.43483L12.0667 3.43376L11.85 3.43299C11.7669 3.4326 11.6874 3.42168 11.6123 3.40195L11.6255 3.48516C11.639 3.57052 11.6638 3.64783 11.699 3.71926L11.7886 3.90093L11.878 4.08281C11.9187 4.16536 11.9687 4.24165 12.0282 4.3126L12.2891 4.62401C12.4209 4.78118 12.519 4.9596 12.5856 5.15382L12.6555 5.35704L12.7252 5.56046C12.7274 5.56699 12.7294 5.57093 12.7305 5.57297C12.7315 5.57493 12.7325 5.57605 12.7325 5.57605L12.7346 5.57804C12.7346 5.57804 12.7387 5.58158 12.744 5.58468L12.9271 5.69322L13.1103 5.80202C13.2863 5.90641 13.4403 6.03857 13.5681 6.1982L13.8263 6.52083C13.8935 6.6048 13.9679 6.68341 14.0499 6.75661L14.335 7.01103L14.8189 6.94897C15.1032 6.91241 15.3893 6.97934 15.6182 7.18245L15.6631 7.22483L15.9315 7.49363L16.0886 7.46999L16.3013 7.43767C16.5469 7.40031 16.7908 7.43447 17.017 7.54486L17.3906 7.72706C17.4393 7.75077 17.4821 7.75901 17.5257 7.75761L17.7267 7.75131L17.9277 7.74476C17.9323 7.74461 17.9362 7.74387 17.9397 7.74361L18.0105 7.68289L17.9923 7.58161L17.9564 7.38022C17.9375 7.27424 17.9103 7.17124 17.875 7.07116L17.7401 6.6884C17.6832 6.52674 17.6434 6.36176 17.6216 6.194L17.5714 5.80689C17.547 5.61798 17.5543 5.42447 17.5856 5.23016L17.6226 5.00156L17.6523 4.81638L17.3892 4.55557C17.261 4.42842 17.1475 4.28972 17.0497 4.13995L16.8204 3.78848C16.8076 3.76895 16.7965 3.7597 16.7724 3.75085L16.3758 3.60533Z" fill="#34C759"/>
<path d="M14.0558 2.488L13.994 0.988999L14.0558 2.488ZM19.4562 6.76598L17.9559 6.75956L19.4562 6.76598ZM18.0174 8.71741L17.3416 7.37797L18.0174 8.71741ZM10.736 3.5328L9.24464 3.69649L10.736 3.5328ZM15.0866 3.59715L15.0961 2.09691L15.0866 3.59715ZM17.8381 6.58462L19.2524 7.08514L17.8381 6.58462ZM17.3688 4.57605L16.1514 5.45286L17.3688 4.57605ZM16.4767 3.54136L17.2804 4.80817L16.4767 3.54136ZM11.7561 1.9144L10.982 3.19955C11.9368 3.77462 12.996 4.03323 14.1175 3.987L14.0558 2.488L13.994 0.988999C13.4341 1.01208 12.9603 0.888287 12.5302 0.629254L11.7561 1.9144ZM14.0558 2.488L14.1175 3.987C14.8041 3.95869 15.4953 4.03415 16.1959 4.21826L16.5772 2.76726L16.9585 1.31626C15.9785 1.0587 14.9887 0.947991 13.994 0.988999L14.0558 2.488ZM16.5772 2.76726L16.1959 4.21826C16.6362 4.33397 17.0358 4.60143 17.4006 5.14952L18.6495 4.31817L19.8984 3.48682C19.1807 2.40868 18.1988 1.6422 16.9585 1.31626L16.5772 2.76726ZM18.6495 4.31817L17.4006 5.14952C17.8092 5.76327 17.9579 6.29242 17.9559 6.75956L19.4562 6.76598L20.9564 6.77241C20.9614 5.60202 20.5724 4.4993 19.8984 3.48682L18.6495 4.31817ZM19.4562 6.76598L17.9559 6.75956C17.9556 6.83623 17.9754 7.05817 17.3416 7.37797L18.0174 8.71741L18.6932 10.0568C19.9707 9.41226 20.9497 8.33325 20.9564 6.77241L19.4562 6.76598ZM18.0174 8.71741L17.3416 7.37797C17.0555 7.52232 16.9156 7.51555 16.8775 7.51057C16.8532 7.50738 16.7674 7.49494 16.6112 7.33747L15.5459 8.39379L14.4805 9.45011C15.0164 9.99057 15.6885 10.381 16.488 10.4857C17.2738 10.5886 18.0236 10.3947 18.6932 10.0568L18.0174 8.71741ZM15.5459 8.39379L16.6112 7.33747C15.7548 6.47367 14.7329 5.86106 13.5466 5.75088L13.4079 7.24472L13.2691 8.73856C13.5495 8.76461 13.953 8.91805 14.4805 9.45011L15.5459 8.39379ZM13.4079 7.24472L13.5466 5.75088C13.3904 5.73638 13.1617 5.67061 12.8692 5.19752L11.5931 5.98643L10.317 6.77534C10.9775 7.84375 11.9586 8.61684 13.2691 8.73856L13.4079 7.24472ZM11.5931 5.98643L12.8692 5.19752C12.5051 4.60852 12.2969 4.00306 12.2273 3.3691L10.736 3.5328L9.24464 3.69649C9.36495 4.79254 9.72816 5.82283 10.317 6.77534L11.5931 5.98643ZM10.736 3.5328L12.2273 3.3691C12.1348 2.52703 12.0754 2.00054 12.0547 1.86128L10.5707 2.08227L9.08684 2.30326C9.08636 2.30004 9.08729 2.30621 9.09009 2.32812C9.0926 2.34786 9.0959 2.37456 9.10004 2.40906C9.10831 2.47798 9.1192 2.57166 9.13281 2.69119C9.16 2.92994 9.19725 3.26471 9.24464 3.69649L10.736 3.5328ZM10.5707 2.08227L12.0547 1.86128C12.066 1.93756 12.0667 1.99551 12.066 2.02691C12.0653 2.05954 12.0628 2.07912 12.0624 2.08233C12.0619 2.08633 12.0654 2.05952 12.083 1.99305L10.6327 1.60903L9.18246 1.22501C9.11982 1.46155 9.02319 1.87586 9.08684 2.30326L10.5707 2.08227ZM10.6327 1.60903L12.083 1.99305C12.0323 2.18451 11.925 2.41126 11.7244 2.60989C11.5243 2.80803 11.2984 2.91181 11.1111 2.96034C10.9342 3.00618 10.7915 3.00366 10.714 2.99762C10.6335 2.99135 10.58 2.97778 10.5624 2.97301C10.5374 2.9662 10.6552 3.00269 10.982 3.19955L11.7561 1.9144L12.5302 0.629254C12.1646 0.409061 11.749 0.186125 11.3495 0.077533C11.1667 0.0278356 10.7892 -0.0559003 10.3584 0.0557359C10.1173 0.118227 9.84743 0.245818 9.61331 0.47762C9.37867 0.70992 9.24728 0.980181 9.18246 1.22501L10.6327 1.60903ZM15.0866 3.59715L15.0961 2.09691C14.1558 2.09094 13.1897 2.16083 12.199 2.30375L12.4132 3.78865L12.6274 5.27355C13.4823 5.15023 14.2984 5.09245 15.0771 5.09739L15.0866 3.59715ZM12.4132 3.78865L12.199 2.30375C11.9077 2.34578 11.5692 2.417 11.2553 2.55953C10.974 2.68731 10.4172 3.00933 10.2093 3.70925C9.99163 4.4422 10.3159 5.03142 10.5176 5.30723C10.7298 5.59722 11.003 5.82415 11.2365 5.99389L12.1186 4.78039L13.0008 3.56689C12.8711 3.47262 12.8842 3.4602 12.9393 3.53554C12.984 3.59669 13.2543 3.99593 13.0857 4.5636C12.9269 5.09822 12.5223 5.27964 12.4962 5.29149C12.4376 5.3181 12.4574 5.29808 12.6274 5.27355L12.4132 3.78865ZM12.1186 4.78039L11.2365 5.99389C11.9006 6.47673 12.5128 6.99943 13.0742 7.56179L14.136 6.50189L15.1978 5.44198C14.5221 4.76511 13.7894 4.14014 13.0008 3.56689L12.1186 4.78039ZM14.136 6.50189L13.0742 7.56179C13.9435 8.43273 15.0201 8.93096 16.2513 8.96268L16.2899 7.46291L16.3286 5.96314C15.9248 5.95273 15.5654 5.81028 15.1978 5.44198L14.136 6.50189ZM16.2899 7.46291L16.2513 8.96268C16.8337 8.97769 17.4618 8.88656 18.0303 8.56405C18.6301 8.22381 19.0356 7.69789 19.2524 7.08514L17.8381 6.58462L16.4238 6.08409C16.4211 6.0918 16.4281 6.06925 16.4562 6.03465C16.4855 5.99859 16.5203 5.97095 16.5498 5.95422C16.5765 5.93903 16.5813 5.94281 16.547 5.9498C16.5111 5.9571 16.4414 5.96605 16.3286 5.96314L16.2899 7.46291ZM17.8381 6.58462L19.2524 7.08514C19.6915 5.84445 19.2762 4.65726 18.5862 3.69924L17.3688 4.57605L16.1514 5.45286C16.3339 5.70619 16.3994 5.87699 16.4209 5.96887C16.4385 6.04433 16.4288 6.06993 16.4238 6.08409L17.8381 6.58462ZM17.3688 4.57605L18.5862 3.69924C18.3165 3.3248 18.0793 3.01214 17.8864 2.78836C17.7975 2.68536 17.6721 2.5467 17.5277 2.42704C17.4639 2.37409 17.3175 2.25749 17.1108 2.16766C16.9615 2.10275 16.3303 1.85747 15.6729 2.27454L16.4767 3.54136L17.2804 4.80817C16.9667 5.0072 16.6435 5.05006 16.4015 5.03544C16.1763 5.02184 16.0062 4.95925 15.9145 4.91939C15.7391 4.84312 15.631 4.7522 15.6127 4.73703C15.5596 4.69293 15.554 4.67828 15.6139 4.74773C15.7183 4.86885 15.8936 5.09486 16.1514 5.45286L17.3688 4.57605ZM16.4767 3.54136L15.6729 2.27454C15.8084 2.18858 15.9259 2.14585 15.977 2.12847C16.0375 2.10794 16.0852 2.09658 16.1101 2.0911C16.1587 2.08037 16.1874 2.0776 16.1799 2.07846C16.1681 2.07982 16.1199 2.08416 16.0186 2.08822C15.8219 2.09612 15.5186 2.09959 15.0961 2.09691L15.0866 3.59715L15.0771 5.09739C15.5141 5.10016 15.8722 5.09706 16.1389 5.08635C16.2693 5.08112 16.4032 5.07315 16.524 5.05921C16.5829 5.05241 16.6655 5.04123 16.7557 5.02134C16.7978 5.01207 17.035 4.96388 17.2804 4.80817L16.4767 3.54136Z" fill="#34C759"/>
</svg>
