<svg width="24" height="24" viewBox="0 0 24 24" fill="none" xmlns="http://www.w3.org/2000/svg">
<g transform="translate(6.18 2.5)">
<path d="M8.00301 0.243427C8.55464 -0.116489 9.29849 -0.0814407 9.81551 0.376239C10.4356 0.925408 10.4934 1.87324 9.94442 2.49343L9.61043 2.87136L9.30477 2.97194C9.17461 3.04915 9.00746 3.14292 8.84774 3.2278L8.48055 3.42311L8.11336 3.61745C8.05685 3.64748 8.02635 3.67715 8.00301 3.70827L7.7618 4.02956L7.52156 4.35183C7.51516 4.36352 7.49485 4.40724 7.4786 4.50417L7.39754 4.98561L7.31746 5.46706C7.19892 6.17382 6.80339 6.85579 6.04696 7.23073L5.67098 7.41725L5.29598 7.6028C5.22217 7.63939 5.17888 7.6768 5.14852 7.71315L4.89266 8.01979L4.6368 8.32546C4.40865 8.59861 4.15811 8.85036 3.88485 9.07839L3.57821 9.33425L3.27156 9.58913C3.20852 9.64174 3.14847 9.68945 3.09383 9.73464L3.10262 9.77761L3.19637 10.2464C3.22752 10.4016 3.26982 10.4827 3.295 10.5208L3.51864 10.8587L3.68953 11.1174L4.04696 11.2454L4.46102 11.3928C4.75492 11.4976 5.04545 11.6077 5.33114 11.7219L6.13387 12.0423C6.91941 12.3563 7.3881 13.0088 7.54403 13.7532L7.64168 14.218L7.64754 14.2493L8.08797 14.3704C9.07517 14.64 9.57411 15.4919 9.82918 16.1028L10.0587 16.6526C10.4808 17.2678 10.3884 18.115 9.81551 18.6223C9.19533 19.1713 8.24749 19.1135 7.69832 18.4934L7.63192 18.4192L7.46688 18.2327L7.37117 18.0022L7.06063 17.2591C7.04962 17.2327 7.03704 17.2102 7.02742 17.1897L6.85653 17.1438L6.41414 17.0227C6.03694 16.9197 5.65872 16.7197 5.35067 16.385C5.04508 16.053 4.87988 15.6661 4.80281 15.2981L4.67489 14.6897L4.61922 14.6682L4.21688 14.5071C3.96719 14.4073 3.71278 14.3112 3.45418 14.219L2.62508 13.9241C2.07019 13.7263 1.58309 13.3718 1.23934 12.8518L1.01571 12.5139L0.792073 12.1751C0.518958 11.7619 0.349038 11.3052 0.254963 10.8362L0.0674635 9.89968C0.023981 9.6829 -0.0166187 9.40186 0.00691658 9.10671C0.0277129 8.84607 0.123808 8.26765 0.653401 7.8489L0.794026 7.73854L0.933674 7.62722C1.01025 7.56669 1.14643 7.456 1.34969 7.2864L1.96297 6.77468C2.09822 6.6618 2.22212 6.5378 2.33504 6.40261L2.5909 6.09694L2.84676 5.7903C3.15745 5.41835 3.53578 5.12709 3.96297 4.9153L4.33895 4.72878L4.4034 4.69558L4.43856 4.48952L4.51961 4.00808C4.60457 3.50143 4.78784 2.99689 5.11922 2.55397L5.36043 2.23268L5.60067 1.9114C5.89801 1.51398 6.27255 1.19896 6.70516 0.969013L7.43953 0.578388C7.55783 0.515526 7.64671 0.467538 7.70906 0.43288C7.73575 0.418046 7.75528 0.407824 7.76766 0.400653L8.00008 0.244403L8.00301 0.243427Z" fill="#1A1A1A"/>
</g>
</svg>
