<svg width="45" height="44" viewBox="0 0 45 44" fill="none" xmlns="http://www.w3.org/2000/svg">
<path d="M2.07048 14.0342C2.07048 7.40306 7.44605 2.02749 14.0771 2.02749H30.086C36.7171 2.02749 42.0927 7.40306 42.0927 14.0342V30.043C42.0927 36.6741 36.7171 42.0497 30.086 42.0497H14.0771C7.44605 42.0497 2.07048 36.6741 2.07048 30.043V14.0342Z" fill="#F5F5F5"/>
<path d="M29.2731 1.67445L29.0771 3.16244L29.2731 1.67445ZM32.6023 2.44706L32.9094 0.977987L32.6023 2.44706ZM33.6964 2.67578L33.3893 4.14486L33.6964 2.67578ZM34.7591 3.0166L35.3626 1.64244L34.7591 3.0166ZM35.7904 3.46951L36.3939 2.09536L35.7904 3.46951ZM37.9869 6.00111L37.0855 7.20112L37.9869 6.00111ZM38.4206 6.32691L39.322 5.1269L38.4206 6.32691ZM38.8544 6.65272L37.953 7.85274L38.8544 6.65272ZM39.6855 7.38323L40.7564 6.33171L39.6855 7.38323ZM40.4803 8.19265L39.4094 9.24417L40.4803 8.19265ZM41.0502 9.13357L42.4789 8.67401L41.0502 9.13357ZM41.3951 10.206L39.9664 10.6655L41.3951 10.206ZM41.8936 13.5088L43.3924 13.432L41.8936 13.5088ZM41.9508 14.6259L40.4519 14.7027L41.9508 14.6259ZM41.9424 15.7473L40.4448 15.6487L41.9424 15.7473ZM41.9053 16.3101L43.4029 16.4087L41.9053 16.3101ZM41.8682 16.8729L40.3706 16.7743L41.8682 16.8729ZM41.7361 17.9986L40.2563 17.7487L41.7361 17.9986ZM41.5461 19.1242L40.0662 18.8743L41.5461 19.1242ZM42.5207 21.3754L41.2529 22.1786L42.5207 21.3754ZM42.8385 22.501L44.3357 22.6042L42.8385 22.501ZM42.7609 23.6267L41.2636 23.5235L42.7609 23.6267ZM42.3792 24.7523L41.0976 23.9713L42.3792 24.7523ZM41.6933 25.8779L42.9749 26.6589L41.6933 25.8779ZM41.756 27.0035L42.9735 26.1259L41.756 27.0035ZM42.1617 27.5664L40.9442 28.444L42.1617 27.5664ZM42.7567 29.2557L44.1578 29.7937L42.7567 29.2557ZM42.3238 30.3831L40.9227 29.8451L42.3238 30.3831ZM41.9826 31.4949L40.5192 31.162L41.9826 31.4949ZM41.858 32.043L40.3945 31.7101L41.858 32.043ZM41.7333 32.5911L43.1967 32.924L41.7333 32.5911ZM41.421 33.6658L40.0072 33.162L41.421 33.6658ZM41.0457 34.7191L42.4594 35.2228L41.0457 34.7191ZM40.5548 35.7148L39.2944 34.9L40.5548 35.7148ZM39.9483 36.6529L41.2087 37.4677L39.9483 36.6529ZM39.4255 37.7012L38.0221 37.1693L39.4255 37.7012ZM39.206 38.2805L37.8026 37.7486L39.206 38.2805ZM38.9864 38.8597L40.3899 39.3916L38.9864 38.8597ZM38.1839 39.6309L38.6534 41.0564L38.1839 39.6309ZM37.6009 39.823L38.0705 41.2485L37.6009 39.823ZM37.018 40.015L36.5485 38.5895L37.018 40.015ZM35.9861 40.5931L35.0074 39.4553L35.9861 40.5931ZM35.0883 41.3654L36.0671 42.5032L35.0883 41.3654ZM34.0494 41.7799L33.9773 40.2808L34.0494 41.7799ZM32.8693 41.8366L32.9414 43.3357L32.8693 41.8366ZM31.7186 41.864L31.7214 40.3631L31.7186 41.864ZM30.5973 41.8618L30.6001 40.361L30.5973 41.8618ZM29.4738 42.0473L29.946 43.472L29.4738 42.0473ZM28.3482 42.4204L28.8203 43.845L28.3482 42.4204ZM27.2225 42.3532L26.6056 43.7213L27.2225 42.3532ZM26.0969 41.8456L26.7139 40.4774L26.0969 41.8456ZM24.9713 41.7991L25.49 43.2074V43.2074L24.9713 41.7991ZM23.8457 42.2137L23.327 40.8053V40.8053L23.8457 42.2137ZM22.7201 42.2746L22.3422 43.7271V43.7271L22.7201 42.2746ZM22.1572 42.1282L22.5351 40.6757L22.1572 42.1282ZM21.5944 41.9818L21.2166 43.4343L21.5944 41.9818ZM20.4688 41.6829L20.0764 43.1315L20.4688 41.6829ZM19.3432 41.378L19.7356 39.9294L19.3432 41.378ZM18.2176 41.4175L17.733 39.9971L18.2176 41.4175ZM17.0919 41.8015L16.6074 40.3811L17.0919 41.8015ZM15.9663 42.0515L16.1201 43.5445L15.9663 42.0515ZM15.4035 42.1095L15.2496 40.6166L15.4035 42.1095ZM14.8407 42.1675L14.9945 43.6604L14.8407 42.1675ZM13.7375 42.0206L13.2053 43.4239L13.7375 42.0206ZM13.1971 41.8157L13.7292 40.4124L13.1971 41.8157ZM12.6567 41.6108L12.1245 43.0141L12.6567 41.6108ZM11.6025 41.2466L11.1582 42.6801L11.6025 41.2466ZM10.5749 40.9281L11.0192 39.4945L10.5749 40.9281ZM9.39238 40.8415L9.55459 42.3335L9.39238 40.8415ZM8.05494 40.9869L7.89273 39.4949L8.05494 40.9869ZM7.05108 40.5345L8.3162 39.7271L7.05108 40.5345ZM6.38079 39.4843L5.11567 40.2917L6.38079 39.4843ZM5.07776 37.5873L3.85141 38.4525L5.07776 37.5873ZM4.34524 36.7248L3.2901 37.7921L4.34524 36.7248ZM3.93534 36.3195L4.99048 35.2522L3.93534 36.3195ZM3.52545 35.9143L4.58059 34.847L3.52545 35.9143ZM2.77804 35.0113L1.53579 35.8535L2.77804 35.0113ZM2.44051 34.5134L3.68275 33.6712L2.44051 34.5134ZM2.10299 34.0156L0.860746 34.8578L2.10299 34.0156ZM2.04154 32.8955L3.41343 33.5041L2.04154 32.8955ZM2.59369 31.6509L1.2218 31.0423L2.59369 31.6509ZM2.76687 30.4823L1.29197 30.7601L2.76687 30.4823ZM2.66397 29.9359L4.13886 29.6581L2.66397 29.9359ZM2.50839 28.2805L1.0135 28.1471L2.50839 28.2805ZM2.36451 26.0292L1.03478 26.7252L2.36451 26.0292ZM1.7754 24.9036L3.10513 24.2077L1.7754 24.9036ZM2.30579 12.0438L1.17661 11.0551L2.30579 12.0438ZM2.7386 11.5495L1.60942 10.5608L2.7386 11.5495ZM3.43602 9.42657L1.95461 9.18587L3.43602 9.42657ZM5.14657 5.16416L4.07926 4.10901L5.14657 5.16416ZM6.17981 4.62244L6.46693 6.09555L6.17981 4.62244ZM7.41278 4.38212L7.12565 2.90901L7.41278 4.38212ZM8.39062 3.70995L7.13491 2.88794L8.39062 3.70995ZM12.4173 2.06218L11.8205 3.43928L12.4173 2.06218ZM12.9706 2.30195L13.5673 0.924858L12.9706 2.30195ZM13.5239 2.54172L12.9271 3.91881L13.5239 2.54172ZM15.2028 2.01288L15.2222 3.51359L15.7851 3.50629L15.7656 2.00558L15.7461 0.504873L15.1833 0.512177L15.2028 2.01288ZM15.7656 2.00558L15.7851 3.50629C16.2862 3.49978 16.7827 3.43073 17.2718 3.30248L16.8912 1.85072L16.5106 0.398951C16.2493 0.467445 15.9953 0.501639 15.7461 0.504873L15.7656 2.00558ZM16.8912 1.85072L17.2718 3.30248L17.8347 3.15492L17.454 1.70315L17.0734 0.25139L16.5106 0.398951L16.8912 1.85072ZM17.454 1.70315L17.8347 3.15492L18.3975 3.00736L18.0168 1.55559L17.6362 0.10383L17.0734 0.25139L17.454 1.70315ZM18.0168 1.55559L18.3975 3.00736C18.4251 3.0001 18.4535 2.99246 18.5374 3.02944L19.1425 1.65598L19.7475 0.282516C19.081 -0.0110967 18.3589 -0.0856593 17.6362 0.10383L18.0168 1.55559ZM19.1425 1.65598L18.5374 3.02944L19.1002 3.27738L19.7053 1.90392L20.3103 0.530458L19.7475 0.282516L19.1425 1.65598ZM19.7053 1.90392L19.1002 3.27738L19.663 3.52532L20.2681 2.15186L20.8731 0.778401L20.3103 0.530458L19.7053 1.90392ZM20.2681 2.15186L19.663 3.52532C20.2952 3.80383 20.9788 3.8995 21.6752 3.76653L21.3937 2.29233L21.1122 0.818135C21.0582 0.828453 20.9914 0.830484 20.8731 0.778401L20.2681 2.15186ZM21.3937 2.29233L21.6752 3.76653L22.238 3.65905L21.9565 2.18486L21.675 0.710662L21.1122 0.818135L21.3937 2.29233ZM21.9565 2.18486L22.238 3.65905L22.8008 3.55158L22.5193 2.07739L22.2378 0.60319L21.675 0.710662L21.9565 2.18486ZM22.5193 2.07739L22.8008 3.55158C23.0385 3.50621 23.2711 3.49546 23.503 3.51749L23.645 2.02339L23.7869 0.529285C23.2684 0.480018 22.7506 0.505266 22.2378 0.60319L22.5193 2.07739ZM23.645 2.02339L23.503 3.51749L24.0658 3.57097L24.2078 2.07686L24.3497 0.582761L23.7869 0.529285L23.645 2.02339ZM24.2078 2.07686L24.0658 3.57097L24.6286 3.62444L24.7706 2.13034L24.9125 0.636237L24.3497 0.582761L24.2078 2.07686ZM24.7706 2.13034L24.6286 3.62444C25.2178 3.68042 25.799 3.61061 26.3601 3.42823L25.8962 2.00089L25.4323 0.573557C25.243 0.63507 25.0738 0.651561 24.9125 0.636237L24.7706 2.13034ZM25.8962 2.00089L26.3601 3.42823L26.9229 3.24531L26.459 1.81797L25.9951 0.390634L25.4323 0.573557L25.8962 2.00089ZM26.459 1.81797L26.9229 3.24531L27.4857 3.06238L27.0218 1.63505L26.5579 0.207712L25.9951 0.390634L26.459 1.81797ZM27.0218 1.63505L27.4857 3.06238C27.6575 3.00654 27.8075 2.99526 27.9515 3.01422L28.1475 1.52623L28.3434 0.0382451C27.737 -0.0416035 27.1365 0.0196556 26.5579 0.207712L27.0218 1.63505ZM28.1475 1.52623L27.9515 3.01422L28.5143 3.08833L28.7103 1.60034L28.9062 0.112354L28.3434 0.0382451L28.1475 1.52623ZM28.7103 1.60034L28.5143 3.08833L29.0771 3.16244L29.2731 1.67445L29.469 0.186462L28.9062 0.112354L28.7103 1.60034ZM29.2731 1.67445L29.0771 3.16244C29.389 3.2035 29.6994 3.26457 30.0087 3.346L30.3907 1.8946L30.7727 0.443194C30.3423 0.329902 29.9076 0.244216 29.469 0.186462L29.2731 1.67445ZM30.3907 1.8946L30.0087 3.346L30.5636 3.49203L30.9456 2.04063L31.3276 0.58923L30.7727 0.443194L30.3907 1.8946ZM30.9456 2.04063L30.5636 3.49203L31.1184 3.63807L31.5004 2.18667L31.8824 0.735266L31.3276 0.58923L30.9456 2.04063ZM31.5004 2.18667L31.1184 3.63807C31.5125 3.74178 31.9047 3.83451 32.2952 3.91614L32.6023 2.44706L32.9094 0.977987C32.5705 0.907135 32.2282 0.826266 31.8824 0.735266L31.5004 2.18667ZM32.6023 2.44706L32.2952 3.91614L32.8423 4.0305L33.1494 2.56142L33.4565 1.09235L32.9094 0.977987L32.6023 2.44706ZM33.1494 2.56142L32.8423 4.0305L33.3893 4.14486L33.6964 2.67578L34.0035 1.20671L33.4565 1.09235L33.1494 2.56142ZM33.6964 2.67578L33.3893 4.14486C33.6514 4.19965 33.9063 4.28128 34.1556 4.39075L34.7591 3.0166L35.3626 1.64244C34.9243 1.44997 34.4708 1.30439 34.0035 1.20671L33.6964 2.67578ZM34.7591 3.0166L34.1556 4.39075L34.6712 4.61721L35.2747 3.24306L35.8782 1.8689L35.3626 1.64244L34.7591 3.0166ZM35.2747 3.24306L34.6712 4.61721L35.1869 4.84367L35.7904 3.46951L36.3939 2.09536L35.8782 1.8689L35.2747 3.24306ZM35.7904 3.46951L35.1869 4.84367C35.2452 4.86928 35.2934 4.90423 35.348 4.99085L36.6178 4.1908L37.8876 3.39076C37.5265 2.8176 37.0231 2.37169 36.3939 2.09536L35.7904 3.46951ZM36.6178 4.1908L35.348 4.99085L35.6597 5.48568L36.9296 4.68564L38.1994 3.88559L37.8876 3.39076L36.6178 4.1908ZM36.9296 4.68564L35.6597 5.48568L35.9715 5.98051L37.2413 5.18047L38.5111 4.38043L38.1994 3.88559L36.9296 4.68564ZM37.2413 5.18047L35.9715 5.98051C36.2691 6.45291 36.6391 6.86584 37.0855 7.20112L37.9869 6.00111L38.8882 4.80109C38.7562 4.70196 38.6292 4.56781 38.5111 4.38043L37.2413 5.18047ZM37.9869 6.00111L37.0855 7.20112L37.5192 7.52693L38.4206 6.32691L39.322 5.1269L38.8882 4.80109L37.9869 6.00111ZM38.4206 6.32691L37.5192 7.52693L37.953 7.85274L38.8544 6.65272L39.7557 5.4527L39.322 5.1269L38.4206 6.32691ZM38.8544 6.65272L37.953 7.85274C38.1794 8.02276 38.4 8.2162 38.6146 8.43475L39.6855 7.38323L40.7564 6.33171C40.4412 6.01066 40.1077 5.71708 39.7557 5.4527L38.8544 6.65272ZM39.6855 7.38323L38.6146 8.43475L39.012 8.83946L40.0829 7.78794L41.1538 6.73642L40.7564 6.33171L39.6855 7.38323ZM40.0829 7.78794L39.012 8.83946L39.4094 9.24417L40.4803 8.19265L41.5512 7.14113L41.1538 6.73642L40.0829 7.78794ZM40.4803 8.19265L39.4094 9.24417C39.5118 9.34842 39.5785 9.45976 39.6214 9.59313L41.0502 9.13357L42.4789 8.67401C42.2918 8.09243 41.9787 7.57649 41.5512 7.14113L40.4803 8.19265ZM41.0502 9.13357L39.6214 9.59313L39.7939 10.1293L41.2226 9.66978L42.6514 9.21022L42.4789 8.67401L41.0502 9.13357ZM41.2226 9.66978L39.7939 10.1293L39.9664 10.6655L41.3951 10.206L42.8238 9.74643L42.6514 9.21022L41.2226 9.66978ZM41.3951 10.206L39.9664 10.6655C40.0545 10.9395 40.1169 11.2155 40.1545 11.4945L41.6419 11.2942L43.1293 11.0939C43.0678 10.6369 42.9657 10.1875 42.8238 9.74643L41.3951 10.206ZM41.6419 11.2942L40.1545 11.4945L40.2288 12.0465L41.7163 11.8462L43.2037 11.6459L43.1293 11.0939L41.6419 11.2942ZM41.7163 11.8462L40.2288 12.0465L40.3032 12.5986L41.7906 12.3983L43.278 12.198L43.2037 11.6459L41.7163 11.8462ZM41.7906 12.3983L40.3032 12.5986C40.3472 12.9254 40.3777 13.2544 40.3947 13.5856L41.8936 13.5088L43.3924 13.432C43.3712 13.0185 43.3331 12.6071 43.278 12.198L41.7906 12.3983ZM41.8936 13.5088L40.3947 13.5856L40.4233 14.1442L41.9222 14.0674L43.421 13.9906L43.3924 13.432L41.8936 13.5088ZM41.9222 14.0674L40.4233 14.1442L40.4519 14.7027L41.9508 14.6259L43.4497 14.5491L43.421 13.9906L41.9222 14.0674ZM41.9508 14.6259L40.4519 14.7027C40.468 15.0162 40.4657 15.3314 40.4448 15.6487L41.9424 15.7473L43.44 15.8459C43.4685 15.4128 43.4718 14.9804 43.4497 14.5491L41.9508 14.6259ZM41.9424 15.7473L40.4448 15.6487L40.4077 16.2115L41.9053 16.3101L43.4029 16.4087L43.44 15.8459L41.9424 15.7473ZM41.9053 16.3101L40.4077 16.2115L40.3706 16.7743L41.8682 16.8729L43.3658 16.9715L43.4029 16.4087L41.9053 16.3101ZM41.8682 16.8729L40.3706 16.7743C40.3493 17.0982 40.3113 17.4229 40.2563 17.7487L41.7361 17.9986L43.216 18.2484C43.2877 17.8237 43.3377 17.398 43.3658 16.9715L41.8682 16.8729ZM41.7361 17.9986L40.2563 17.7487L40.1612 18.3115L41.6411 18.5614L43.121 18.8112L43.216 18.2484L41.7361 17.9986ZM41.6411 18.5614L40.1612 18.3115L40.0662 18.8743L41.5461 19.1242L43.026 19.3741L43.121 18.8112L41.6411 18.5614ZM41.5461 19.1242L40.0662 18.8743C39.931 19.6747 40.1391 20.4205 40.5398 21.053L41.8076 20.2498L43.0754 19.4466C43.0333 19.3801 43.0259 19.3476 43.0258 19.3473C43.0257 19.3469 43.0266 19.3509 43.0269 19.358C43.0271 19.3651 43.0265 19.371 43.026 19.3741L41.5461 19.1242ZM41.8076 20.2498L40.5398 21.053L40.8963 21.6158L42.1641 20.8126L43.432 20.0094L43.0754 19.4466L41.8076 20.2498ZM42.1641 20.8126L40.8963 21.6158L41.2529 22.1786L42.5207 21.3754L43.7885 20.5722L43.432 20.0094L42.1641 20.8126ZM42.5207 21.3754L41.2529 22.1786C41.3514 22.3342 41.3413 22.3963 41.3412 22.3979L42.8385 22.501L44.3357 22.6042C44.3873 21.8554 44.1653 21.167 43.7885 20.5722L42.5207 21.3754ZM42.8385 22.501L41.3412 22.3979L41.3024 22.9607L42.7997 23.0639L44.297 23.167L44.3357 22.6042L42.8385 22.501ZM42.7997 23.0639L41.3024 22.9607L41.2636 23.5235L42.7609 23.6267L44.2582 23.7298L44.297 23.167L42.7997 23.0639ZM42.7609 23.6267L41.2636 23.5235C41.2569 23.6214 41.2221 23.7669 41.0976 23.9713L42.3792 24.7523L43.6608 25.5333C43.9935 24.9872 44.2132 24.3824 44.2582 23.7298L42.7609 23.6267ZM42.3792 24.7523L41.0976 23.9713L40.7546 24.5341L42.0362 25.3151L43.3179 26.0961L43.6608 25.5333L42.3792 24.7523ZM42.0362 25.3151L40.7546 24.5341L40.4116 25.0969L41.6933 25.8779L42.9749 26.6589L43.3179 26.0961L42.0362 25.3151ZM41.6933 25.8779L40.4116 25.0969C40.1666 25.499 40.0089 25.9844 40.039 26.5243C40.0687 27.0577 40.2745 27.5149 40.5385 27.8812L41.756 27.0035L42.9735 26.1259C42.9671 26.117 43.0272 26.199 43.036 26.3572C43.0452 26.5218 42.9913 26.632 42.9749 26.6589L41.6933 25.8779ZM41.756 27.0035L40.5385 27.8812L40.9442 28.444L42.1617 27.5664L43.3792 26.6887L42.9735 26.1259L41.756 27.0035ZM42.1617 27.5664L40.9442 28.444L41.35 29.0068L42.5674 28.1292L43.7849 27.2515L43.3792 26.6887L42.1617 27.5664ZM42.5674 28.1292L41.35 29.0068C41.379 29.0472 41.3514 29.0237 41.3375 28.9408C41.3307 28.9003 41.3292 28.8563 41.3339 28.8126C41.3386 28.7694 41.3482 28.7369 41.3556 28.7177L42.7567 29.2557L44.1578 29.7937C44.513 28.8685 44.2999 27.966 43.7849 27.2515L42.5674 28.1292ZM42.7567 29.2557L41.3556 28.7177L41.1391 29.2814L42.5402 29.8194L43.9413 30.3574L44.1578 29.7937L42.7567 29.2557ZM42.5402 29.8194L41.1391 29.2814L40.9227 29.8451L42.3238 30.3831L43.7248 30.9211L43.9413 30.3574L42.5402 29.8194ZM42.3238 30.3831L40.9227 29.8451C40.7546 30.2828 40.6193 30.7219 40.5192 31.162L41.9826 31.4949L43.4461 31.8278C43.5122 31.5371 43.6043 31.235 43.7248 30.9211L42.3238 30.3831ZM41.9826 31.4949L40.5192 31.162L40.3945 31.7101L41.858 32.043L43.3214 32.3759L43.4461 31.8278L41.9826 31.4949ZM41.858 32.043L40.3945 31.7101L40.2698 32.2582L41.7333 32.5911L43.1967 32.924L43.3214 32.3759L41.858 32.043ZM41.7333 32.5911L40.2698 32.2582C40.1998 32.566 40.1123 32.8672 40.0072 33.162L41.421 33.6658L42.8347 34.1696C42.9799 33.7622 43.1005 33.3469 43.1967 32.924L41.7333 32.5911ZM41.421 33.6658L40.0072 33.162L39.8196 33.6887L41.2333 34.1924L42.6471 34.6962L42.8347 34.1696L41.421 33.6658ZM41.2333 34.1924L39.8196 33.6887L39.6319 34.2153L41.0457 34.7191L42.4594 35.2228L42.6471 34.6962L41.2333 34.1924ZM41.0457 34.7191L39.6319 34.2153C39.5457 34.4573 39.4335 34.6848 39.2944 34.9L40.5548 35.7148L41.8152 36.5296C42.0803 36.1194 42.2954 35.6831 42.4594 35.2228L41.0457 34.7191ZM40.5548 35.7148L39.2944 34.9L38.9911 35.369L40.2515 36.1839L41.5119 36.9987L41.8152 36.5296L40.5548 35.7148ZM40.2515 36.1839L38.9911 35.369L38.6879 35.8381L39.9483 36.6529L41.2087 37.4677L41.5119 36.9987L40.2515 36.1839ZM39.9483 36.6529L38.6879 35.8381C38.4224 36.2489 38.202 36.6947 38.0221 37.1693L39.4255 37.7012L40.8289 38.2331C40.9417 37.9355 41.0699 37.6824 41.2087 37.4677L39.9483 36.6529ZM39.4255 37.7012L38.0221 37.1693L37.8026 37.7486L39.206 38.2805L40.6094 38.8124L40.8289 38.2331L39.4255 37.7012ZM39.206 38.2805L37.8026 37.7486L37.583 38.3278L38.9864 38.8597L40.3899 39.3916L40.6094 38.8124L39.206 38.2805ZM38.9864 38.8597L37.583 38.3278C37.5797 38.3365 37.5921 38.3023 37.6361 38.26C37.6805 38.2174 37.7175 38.2044 37.7144 38.2054L38.1839 39.6309L38.6534 41.0564C39.4769 40.7852 40.0847 40.1967 40.3899 39.3916L38.9864 38.8597ZM38.1839 39.6309L37.7144 38.2054L37.1314 38.3975L37.6009 39.823L38.0705 41.2485L38.6534 41.0564L38.1839 39.6309ZM37.6009 39.823L37.1314 38.3975L36.5485 38.5895L37.018 40.015L37.4875 41.4405L38.0705 41.2485L37.6009 39.823ZM37.018 40.015L36.5485 38.5895C35.9798 38.7767 35.4613 39.0648 35.0074 39.4553L35.9861 40.5931L36.9648 41.7309C37.1094 41.6066 37.2788 41.5092 37.4875 41.4405L37.018 40.015ZM35.9861 40.5931L35.0074 39.4553L34.5585 39.8414L35.5372 40.9792L36.5159 42.117L36.9648 41.7309L35.9861 40.5931ZM35.5372 40.9792L34.5585 39.8414L34.1096 40.2276L35.0883 41.3654L36.0671 42.5032L36.5159 42.117L35.5372 40.9792ZM35.0883 41.3654L34.1096 40.2276C34.0632 40.2675 34.0358 40.278 33.9773 40.2808L34.0494 41.7799L34.1215 43.279C34.8497 43.244 35.5149 42.9781 36.0671 42.5032L35.0883 41.3654ZM34.0494 41.7799L33.9773 40.2808L33.3872 40.3092L33.4594 41.8083L33.5315 43.3074L34.1215 43.279L34.0494 41.7799ZM33.4594 41.8083L33.3872 40.3092L32.7972 40.3375L32.8693 41.8366L32.9414 43.3357L33.5315 43.3074L33.4594 41.8083ZM32.8693 41.8366L32.7972 40.3375C32.4275 40.3553 32.0689 40.3638 31.7214 40.3631L31.7186 41.864L31.7158 43.3648C32.1158 43.3655 32.5244 43.3558 32.9414 43.3357L32.8693 41.8366ZM31.7186 41.864L31.7214 40.3631L31.1608 40.3621L31.1579 41.8629L31.1551 43.3637L31.7158 43.3648L31.7186 41.864ZM31.1579 41.8629L31.1608 40.3621L30.6001 40.361L30.5973 41.8618L30.5944 43.3627L31.1551 43.3637L31.1579 41.8629ZM30.5973 41.8618L30.6001 40.361C30.0559 40.36 29.5212 40.4505 29.0016 40.6227L29.4738 42.0473L29.946 43.472C30.1768 43.3954 30.3911 43.3623 30.5944 43.3627L30.5973 41.8618ZM29.4738 42.0473L29.0016 40.6227L28.4388 40.8092L28.911 42.2339L29.3832 43.6585L29.946 43.472L29.4738 42.0473ZM28.911 42.2339L28.4388 40.8092L27.876 40.9958L28.3482 42.4204L28.8203 43.845L29.3832 43.6585L28.911 42.2339ZM28.3482 42.4204L27.876 40.9958C27.8663 40.999 27.8628 40.9992 27.8647 40.999C27.8668 40.9987 27.8706 40.9984 27.8749 40.9987C27.879 40.9989 27.8795 40.9994 27.8753 40.9983C27.8707 40.9972 27.859 40.9938 27.8395 40.985L27.2225 42.3532L26.6056 43.7213C27.3083 44.0382 28.072 44.0931 28.8203 43.845L28.3482 42.4204ZM27.2225 42.3532L27.8395 40.985L27.2767 40.7312L26.6597 42.0994L26.0428 43.4675L26.6056 43.7213L27.2225 42.3532ZM26.6597 42.0994L27.2767 40.7312L26.7139 40.4774L26.0969 41.8456L25.48 43.2138L26.0428 43.4675L26.6597 42.0994ZM26.0969 41.8456L26.7139 40.4774C25.9917 40.1518 25.2089 40.1122 24.4526 40.3907L24.9713 41.7991L25.49 43.2074C25.4988 43.2042 25.5001 43.2046 25.4949 43.2054C25.4895 43.2063 25.4814 43.207 25.4722 43.2066C25.463 43.2063 25.4575 43.205 25.4568 43.2049C25.4565 43.2048 25.464 43.2066 25.48 43.2138L26.0969 41.8456ZM24.9713 41.7991L24.4526 40.3907L23.8898 40.598L24.4085 42.0064L24.9272 43.4147L25.49 43.2074L24.9713 41.7991ZM24.4085 42.0064L23.8898 40.598L23.327 40.8053L23.8457 42.2137L24.3644 43.622L24.9272 43.4147L24.4085 42.0064ZM23.8457 42.2137L23.327 40.8053C23.2295 40.8412 23.167 40.84 23.0979 40.8221L22.7201 42.2746L22.3422 43.7271C23.0235 43.9043 23.7114 43.8625 24.3644 43.622L23.8457 42.2137ZM22.7201 42.2746L23.0979 40.8221L22.5351 40.6757L22.1572 42.1282L21.7794 43.5807L22.3422 43.7271L22.7201 42.2746ZM22.1572 42.1282L22.5351 40.6757L21.9722 40.5293L21.5944 41.9818L21.2166 43.4343L21.7794 43.5807L22.1572 42.1282ZM21.5944 41.9818L21.9722 40.5293C21.6019 40.4329 21.2316 40.3346 20.8612 40.2343L20.4688 41.6829L20.0764 43.1315C20.4564 43.2345 20.8365 43.3354 21.2166 43.4343L21.5944 41.9818ZM20.4688 41.6829L20.8612 40.2343L20.2984 40.0818L19.906 41.5305L19.5136 42.9791L20.0764 43.1315L20.4688 41.6829ZM19.906 41.5305L20.2984 40.0818L19.7356 39.9294L19.3432 41.378L18.9508 42.8266L19.5136 42.9791L19.906 41.5305ZM19.3432 41.378L19.7356 39.9294C19.0657 39.7479 18.3852 39.7746 17.733 39.9971L18.2176 41.4175L18.7021 42.838C18.8003 42.8045 18.8702 42.8048 18.9508 42.8266L19.3432 41.378ZM18.2176 41.4175L17.733 39.9971L17.1702 40.1891L17.6547 41.6095L18.1393 43.03L18.7021 42.838L18.2176 41.4175ZM17.6547 41.6095L17.1702 40.1891L16.6074 40.3811L17.0919 41.8015L17.5765 43.222L18.1393 43.03L17.6547 41.6095ZM17.0919 41.8015L16.6074 40.3811C16.3339 40.4744 16.0695 40.5321 15.8125 40.5586L15.9663 42.0515L16.1201 43.5445C16.6136 43.4936 17.0996 43.3847 17.5765 43.222L17.0919 41.8015ZM15.9663 42.0515L15.8125 40.5586L15.2496 40.6166L15.4035 42.1095L15.5573 43.6024L16.1201 43.5445L15.9663 42.0515ZM15.4035 42.1095L15.2496 40.6166L14.6868 40.6746L14.8407 42.1675L14.9945 43.6604L15.5573 43.6024L15.4035 42.1095ZM14.8407 42.1675L14.6868 40.6746C14.5493 40.6888 14.4162 40.6728 14.2696 40.6173L13.7375 42.0206L13.2053 43.4239C13.7793 43.6416 14.3817 43.7236 14.9945 43.6604L14.8407 42.1675ZM13.7375 42.0206L14.2696 40.6173L13.7292 40.4124L13.1971 41.8157L12.6649 43.219L13.2053 43.4239L13.7375 42.0206ZM13.1971 41.8157L13.7292 40.4124L13.1888 40.2074L12.6567 41.6108L12.1245 43.0141L12.6649 43.219L13.1971 41.8157ZM12.6567 41.6108L13.1888 40.2074C12.8017 40.0606 12.421 39.929 12.0468 39.813L11.6025 41.2466L11.1582 42.6801C11.469 42.7765 11.7911 42.8876 12.1245 43.0141L12.6567 41.6108ZM11.6025 41.2466L12.0468 39.813L11.533 39.6538L11.0887 41.0873L10.6444 42.5209L11.1582 42.6801L11.6025 41.2466ZM11.0887 41.0873L11.533 39.6538L11.0192 39.4945L10.5749 40.9281L10.1306 42.3616L10.6444 42.5209L11.0887 41.0873ZM10.5749 40.9281L11.0192 39.4945C10.4381 39.3144 9.83055 39.2842 9.23016 39.3495L9.39238 40.8415L9.55459 42.3335C9.84583 42.3019 10.0266 42.3294 10.1306 42.3616L10.5749 40.9281ZM9.39238 40.8415L9.23016 39.3495L8.56144 39.4222L8.72366 40.9142L8.88587 42.4062L9.55459 42.3335L9.39238 40.8415ZM8.72366 40.9142L8.56144 39.4222L7.89273 39.4949L8.05494 40.9869L8.21715 42.4789L8.88587 42.4062L8.72366 40.9142ZM8.05494 40.9869L7.89273 39.4949C7.87701 39.4966 7.96081 39.4853 8.08626 39.5419C8.21896 39.6017 8.29218 39.6894 8.3162 39.7271L7.05108 40.5345L5.78596 41.342C6.03341 41.7297 6.38564 42.0679 6.85297 42.2785C7.31304 42.4858 7.78706 42.5257 8.21715 42.4789L8.05494 40.9869ZM7.05108 40.5345L8.3162 39.7271L7.98105 39.2019L6.71593 40.0094L5.45081 40.8168L5.78596 41.342L7.05108 40.5345ZM6.71593 40.0094L7.98105 39.2019L7.64591 38.6768L6.38079 39.4843L5.11567 40.2917L5.45081 40.8168L6.71593 40.0094ZM6.38079 39.4843L7.64591 38.6768C7.41137 38.3094 7.17921 37.9625 6.94936 37.6367L5.72301 38.5019L4.49666 39.3671C4.69699 39.651 4.90334 39.9591 5.11567 40.2917L6.38079 39.4843ZM5.72301 38.5019L6.94936 37.6367L6.62674 37.1794L5.40039 38.0446L4.17403 38.9098L4.49666 39.3671L5.72301 38.5019ZM5.40039 38.0446L6.62674 37.1794L6.30411 36.7221L5.07776 37.5873L3.85141 38.4525L4.17403 38.9098L5.40039 38.0446ZM5.07776 37.5873L6.30411 36.7221C6.03652 36.3428 5.73468 35.9879 5.40038 35.6574L4.34524 36.7248L3.2901 37.7921C3.50232 38.0019 3.68882 38.222 3.85141 38.4525L5.07776 37.5873ZM4.34524 36.7248L5.40038 35.6574L4.99048 35.2522L3.93534 36.3195L2.88021 37.3869L3.2901 37.7921L4.34524 36.7248ZM3.93534 36.3195L4.99048 35.2522L4.58059 34.847L3.52545 35.9143L2.47031 36.9817L2.88021 37.3869L3.93534 36.3195ZM3.52545 35.9143L4.58059 34.847C4.37983 34.6485 4.19279 34.4235 4.02028 34.1691L2.77804 35.0113L1.53579 35.8535C1.81331 36.2628 2.12455 36.6398 2.47031 36.9817L3.52545 35.9143ZM2.77804 35.0113L4.02028 34.1691L3.68275 33.6712L2.44051 34.5134L1.19827 35.3557L1.53579 35.8535L2.77804 35.0113ZM2.44051 34.5134L3.68275 33.6712L3.34523 33.1734L2.10299 34.0156L0.860746 34.8578L1.19827 35.3557L2.44051 34.5134ZM2.10299 34.0156L3.34523 33.1734C3.35691 33.1906 3.37467 33.2215 3.38999 33.2655C3.40552 33.3102 3.41488 33.3578 3.41744 33.4045C3.4227 33.5003 3.39735 33.5403 3.41343 33.5041L2.04154 32.8955L0.669652 32.2869C0.308333 33.1013 0.302288 34.0341 0.860746 34.8578L2.10299 34.0156ZM2.04154 32.8955L3.41343 33.5041L3.6895 32.8818L2.31761 32.2732L0.945728 31.6646L0.669652 32.2869L2.04154 32.8955ZM2.31761 32.2732L3.6895 32.8818L3.96558 32.2595L2.59369 31.6509L1.2218 31.0423L0.945728 31.6646L2.31761 32.2732ZM2.59369 31.6509L3.96558 32.2595C4.245 31.6297 4.37827 30.9292 4.24177 30.2045L2.76687 30.4823L1.29197 30.7601C1.29266 30.7637 1.31049 30.8424 1.2218 31.0423L2.59369 31.6509ZM2.76687 30.4823L4.24177 30.2045L4.13886 29.6581L2.66397 29.9359L1.18907 30.2137L1.29197 30.7601L2.76687 30.4823ZM2.66397 29.9359L4.13886 29.6581L4.03596 29.1118L2.56106 29.3896L1.08616 29.6674L1.18907 30.2137L2.66397 29.9359ZM2.56106 29.3896L4.03596 29.1118C3.9933 28.8853 3.98185 28.654 4.00328 28.4139L2.50839 28.2805L1.0135 28.1471C0.96796 28.6573 0.991623 29.1655 1.08616 29.6674L2.56106 29.3896ZM2.50839 28.2805L4.00328 28.4139L4.05351 27.8511L2.55862 27.7177L1.06372 27.5843L1.0135 28.1471L2.50839 28.2805ZM2.55862 27.7177L4.05351 27.8511L4.10373 27.2883L2.60884 27.1548L1.11395 27.0214L1.06372 27.5843L2.55862 27.7177ZM2.60884 27.1548L4.10373 27.2883C4.16588 26.5919 4.00693 25.9308 3.69424 25.3333L2.36451 26.0292L1.03478 26.7252C1.11483 26.8781 1.11877 26.9674 1.11395 27.0214L2.60884 27.1548ZM2.36451 26.0292L3.69424 25.3333L3.39969 24.7705L2.06996 25.4664L0.74023 26.1623L1.03478 26.7252L2.36451 26.0292ZM2.06996 25.4664L3.39969 24.7705L3.10513 24.2077L1.7754 24.9036L0.445675 25.5995L0.74023 26.1623L2.06996 25.4664ZM1.7754 24.9036L3.10513 24.2077C3.07452 24.1492 3.06865 24.1179 3.06749 24.1105C3.06665 24.1051 3.06624 24.1014 3.06858 24.0904L1.60062 23.778L0.132652 23.4656C-0.0276452 24.2189 0.105192 24.949 0.445675 25.5995L1.7754 24.9036ZM1.60062 23.778L3.06858 24.0904L3.18834 23.5275L1.72038 23.2152L0.252418 22.9028L0.132652 23.4656L1.60062 23.778ZM1.72038 23.2152L3.18834 23.5275L3.30811 22.9647L1.84015 22.6523L0.372183 22.34L0.252418 22.9028L1.72038 23.2152ZM1.84015 22.6523L3.30811 22.9647C3.42516 22.4147 3.44269 21.8573 3.35829 21.3014L1.87446 21.5267L0.390634 21.752C0.420169 21.9465 0.414819 22.1396 0.372183 22.34L1.84015 22.6523ZM1.87446 21.5267L3.35829 21.3014L3.27284 20.7386L1.78901 20.9639L0.305184 21.1892L0.390634 21.752L1.87446 21.5267ZM1.78901 20.9639L3.27284 20.7386L3.18739 20.1758L1.70356 20.4011L0.219734 20.6264L0.305184 21.1892L1.78901 20.9639ZM1.70356 20.4011L3.18739 20.1758C3.1707 20.0659 3.17833 19.9474 3.234 19.7972L1.82677 19.2755L0.419535 18.7538C0.196996 19.354 0.122491 19.9859 0.219734 20.6264L1.70356 20.4011ZM1.82677 19.2755L3.234 19.7972L3.44266 19.2344L2.03543 18.7127L0.628193 18.1909L0.419535 18.7538L1.82677 19.2755ZM2.03543 18.7127L3.44266 19.2344L3.65132 18.6716L2.24408 18.1499L0.836851 17.6281L0.628193 18.1909L2.03543 18.7127ZM2.24408 18.1499L3.65132 18.6716C3.90611 17.9843 3.92517 17.2618 3.69707 16.5602L2.26977 17.0242L0.84247 17.4883C0.858335 17.5371 0.86027 17.565 0.836851 17.6281L2.24408 18.1499ZM2.26977 17.0242L3.69707 16.5602L3.51409 15.9974L2.08679 16.4614L0.659495 16.9254L0.84247 17.4883L2.26977 17.0242ZM2.08679 16.4614L3.51409 15.9974L3.33112 15.4346L1.90382 15.8986L0.47652 16.3626L0.659495 16.9254L2.08679 16.4614ZM1.90382 15.8986L3.33112 15.4346C3.23842 15.1494 3.17534 14.8644 3.14049 14.5784L1.65068 14.76L0.160863 14.9415C0.219568 15.4233 0.325254 15.8973 0.47652 16.3626L1.90382 15.8986ZM1.65068 14.76L3.14049 14.5784L3.07032 14.0026L1.58051 14.1841L0.0906967 14.3656L0.160863 14.9415L1.65068 14.76ZM1.58051 14.1841L3.07032 14.0026L3.00016 13.4267L1.51034 13.6083L0.0205302 13.7898L0.0906967 14.3656L1.58051 14.1841ZM1.51034 13.6083L3.00016 13.4267C3.00132 13.4363 3.00225 13.4531 3.00007 13.4749C2.99788 13.4968 2.99318 13.5173 2.98736 13.5345C2.97515 13.5705 2.96676 13.5672 3.00216 13.5268L1.87299 12.5381L0.743806 11.5494C0.215505 12.1528 -0.0849969 12.9238 0.0205302 13.7898L1.51034 13.6083ZM1.87299 12.5381L3.00216 13.5268L3.43497 13.0324L2.30579 12.0438L1.17661 11.0551L0.743806 11.5494L1.87299 12.5381ZM2.30579 12.0438L3.43497 13.0324L3.86778 12.5381L2.7386 11.5495L1.60942 10.5608L1.17661 11.0551L2.30579 12.0438ZM2.7386 11.5495L3.86778 12.5381C4.30506 12.0387 4.62905 11.4421 4.74102 10.753L3.25961 10.5123L1.77821 10.2716C1.77258 10.3062 1.74922 10.4011 1.60942 10.5608L2.7386 11.5495ZM3.25961 10.5123L4.74102 10.753L4.82922 10.2101L3.34781 9.96942L1.86641 9.72873L1.77821 10.2716L3.25961 10.5123ZM3.34781 9.96942L4.82922 10.2101L4.91742 9.66726L3.43602 9.42657L1.95461 9.18587L1.86641 9.72873L3.34781 9.96942ZM3.43602 9.42657L4.91742 9.66726C4.97718 9.29948 5.03841 8.90865 5.10112 8.4949L3.61723 8.26999L2.13335 8.04509C2.07204 8.44962 2.01246 8.82984 1.95461 9.18587L3.43602 9.42657ZM3.61723 8.26999L5.10112 8.4949L5.19414 7.88118L3.71025 7.65628L2.22637 7.43137L2.13335 8.04509L3.61723 8.26999ZM3.71025 7.65628L5.19414 7.88118L5.28715 7.26746L3.80327 7.04256L2.31938 6.81766L2.22637 7.43137L3.71025 7.65628ZM3.80327 7.04256L5.28715 7.26746C5.30399 7.15639 5.33663 7.10666 5.38036 7.06244L4.31305 6.00728L3.24574 4.95213C2.73378 5.46999 2.42657 6.11044 2.31938 6.81766L3.80327 7.04256ZM4.31305 6.00728L5.38036 7.06244L5.79712 6.64087L4.72981 5.58572L3.6625 4.53057L3.24574 4.95213L4.31305 6.00728ZM4.72981 5.58572L5.79712 6.64087L6.21388 6.21931L5.14657 5.16416L4.07926 4.10901L3.6625 4.53057L4.72981 5.58572ZM5.14657 5.16416L6.21388 6.21931C6.26664 6.16594 6.33351 6.12156 6.46693 6.09555L6.17981 4.62244L5.89269 3.14933C5.20413 3.28353 4.58217 3.60029 4.07926 4.10901L5.14657 5.16416ZM6.17981 4.62244L6.46693 6.09555L7.08342 5.97539L6.79629 4.50228L6.50917 3.02917L5.89269 3.14933L6.17981 4.62244ZM6.79629 4.50228L7.08342 5.97539L7.6999 5.85523L7.41278 4.38212L7.12565 2.90901L6.50917 3.02917L6.79629 4.50228ZM7.41278 4.38212L7.6999 5.85523C8.53024 5.69339 9.19613 5.21969 9.64633 4.53196L8.39062 3.70995L7.13491 2.88794C7.1215 2.90843 7.11261 2.91824 7.10992 2.92105C7.10746 2.92362 7.10922 2.92137 7.1153 2.91719C7.12147 2.91295 7.1278 2.90967 7.13248 2.90774C7.13694 2.9059 7.13554 2.90708 7.12565 2.90901L7.41278 4.38212ZM8.39062 3.70995L9.64633 4.53196L10.0077 3.97995L8.75198 3.15794L7.49627 2.33593L7.13491 2.88794L8.39062 3.70995ZM8.75198 3.15794L10.0077 3.97995L10.369 3.42793L9.11334 2.60592L7.85763 1.78392L7.49627 2.33593L8.75198 3.15794ZM9.11334 2.60592L10.369 3.42793C10.3914 3.39374 10.3861 3.41394 10.3393 3.44375C10.3171 3.45787 10.2923 3.4697 10.2674 3.47811C10.2428 3.48641 10.2247 3.48911 10.2168 3.48988L10.072 1.99604L9.92728 0.502201C9.02705 0.589422 8.31957 1.07825 7.85763 1.78392L9.11334 2.60592ZM10.072 1.99604L10.2168 3.48988L10.8141 3.432L10.6693 1.93816L10.5246 0.444327L9.92728 0.502201L10.072 1.99604ZM10.6693 1.93816L10.8141 3.432L11.4114 3.37413L11.2667 1.88029L11.1219 0.386454L10.5246 0.444327L10.6693 1.93816ZM11.2667 1.88029L11.4114 3.37413C11.5553 3.36019 11.6838 3.38001 11.8205 3.43928L12.4173 2.06218L13.014 0.685092C12.4131 0.424665 11.7745 0.323229 11.1219 0.386454L11.2667 1.88029ZM12.4173 2.06218L11.8205 3.43928L12.3738 3.67904L12.9706 2.30195L13.5673 0.924858L13.014 0.685092L12.4173 2.06218ZM12.9706 2.30195L12.3738 3.67904L12.9271 3.91881L13.5239 2.54172L14.1206 1.16462L13.5673 0.924858L12.9706 2.30195ZM13.5239 2.54172L12.9271 3.91881C13.1276 4.00569 13.4533 4.13669 13.8003 4.16885C13.9558 4.18325 14.3744 4.20674 14.804 3.95382C15.3725 3.61912 15.578 3.04627 15.578 2.59298H14.0771H12.5763C12.5763 2.42737 12.6068 2.19482 12.7328 1.94896C12.8646 1.69183 13.0624 1.4959 13.2812 1.36711C13.6647 1.14134 14.0141 1.17413 14.0773 1.17999C14.2399 1.19505 14.289 1.23758 14.1206 1.16462L13.5239 2.54172ZM14.0771 2.59298H15.578V2.40449H14.0771H12.5763V2.59298H14.0771ZM14.0771 2.40449H15.578V2.21599H14.0771H12.5763V2.40449H14.0771ZM14.0771 2.21599H15.578C15.578 2.60546 15.4154 2.94833 15.1829 3.18494C14.9853 3.38596 14.7852 3.46449 14.711 3.49029C14.5716 3.5388 14.5165 3.52275 14.6594 3.52089L14.64 2.02019L14.6205 0.519482C14.3882 0.522496 14.0517 0.541518 13.7247 0.655291C13.4348 0.756157 12.5763 1.16992 12.5763 2.21599H14.0771ZM14.64 2.02019L14.6594 3.52089L15.2222 3.51359L15.2028 2.01288L15.1833 0.512177L14.6205 0.519482L14.64 2.02019Z" fill="#E6E6E6"/>
<path d="M24.3651 16.6516L24.0944 16.9496C24.0096 17.0434 23.8531 17.2131 23.6665 17.3258C23.611 17.3593 23.512 17.4135 23.3802 17.4489C23.2517 17.4835 23.0047 17.5234 22.7265 17.4118C22.4489 17.3005 22.2938 17.115 22.2037 16.9369C21.7597 16.8848 21.5364 16.8987 21.4611 16.9145L20.7312 17.0669C20.4425 17.1274 20.1563 17.1653 19.8841 17.1636L19.3437 17.1597C19.2451 17.1591 19.1313 17.1564 19.0281 17.1441C18.9858 17.139 18.8829 17.1262 18.7682 17.0864C18.7204 17.0698 18.6138 17.0272 18.4966 16.9418L18.1624 16.8793C17.96 16.8408 17.8113 16.8268 17.7081 16.8265C17.6007 16.8262 17.577 16.8403 17.6035 16.8304L17.2381 16.9672L16.8726 17.103C16.624 17.1957 16.3526 17.2398 16.0783 17.2154V18.0655L16.048 18.044C16.1545 18.3164 16.2424 18.5917 16.3098 18.8696L16.3978 19.2351L16.4867 19.5995C16.5736 19.9582 16.596 20.3238 16.5502 20.69L16.4584 21.4209C16.4329 21.624 16.4197 21.8265 16.4193 22.0286V22.3941L16.4183 22.7595C16.4179 22.947 16.433 23.1355 16.4642 23.3252L16.5248 23.6907L16.5844 24.0551C16.629 24.3262 16.6627 24.5981 16.6841 24.87L16.7407 25.5999C16.7732 26.0121 16.7029 26.4131 16.5463 26.7901L16.3958 27.1516L16.3411 27.2825L16.3597 27.303L16.5873 27.5493C16.6296 27.5949 16.6708 27.6209 16.7202 27.6382L17.03 27.7466L17.3407 27.8541C17.5411 27.9242 17.7605 27.9992 17.9992 28.0779L18.7291 28.3183C18.7915 28.3388 18.8372 28.339 18.8894 28.3251L19.2548 28.2284L19.6203 28.1306C19.909 28.0538 20.2001 27.9984 20.4928 27.9645L21.2227 27.8805C21.6407 27.8322 22.0495 27.8934 22.4353 28.0456L22.8007 28.1893L23.1662 28.3339C23.2702 28.3749 23.352 28.3825 23.4241 28.3749L23.7896 28.3368L24.155 28.2977C24.3543 28.2767 24.5569 28.2422 24.7628 28.1932L25.4673 28.0251L25.6304 27.7623L25.82 27.4535C25.9369 27.2636 26.0565 27.0579 26.1786 26.836L26.373 26.4832L26.5665 26.1305C26.6015 26.0668 26.5973 26.0433 26.5958 26.0328L26.4942 25.3019C26.4495 24.979 26.4446 24.6546 26.4786 24.3307L26.5548 23.5998C26.5809 23.3506 26.6092 23.1015 26.6398 22.8523L26.7297 22.1215C26.7411 22.0278 26.7332 21.9301 26.6974 21.8186L26.5802 21.4531L26.4639 21.0877C26.3537 20.7439 26.2986 20.3902 26.3066 20.0304L26.3154 19.665L26.3232 19.2996C26.3304 18.9741 26.3775 18.6517 26.4619 18.3342L26.6417 17.6551C26.6406 17.6472 26.6396 17.6368 26.6369 17.6238C26.6208 17.5477 26.5807 17.422 26.4952 17.2389L26.3203 16.8656L25.9793 16.7484C25.5416 16.5983 25.2714 16.5326 25.1321 16.5148L24.5546 16.4406L24.3651 16.6516ZM19.0799 19.0367C19.6325 19.0367 20.0805 19.4847 20.0805 20.0373V20.0598L20.1762 20.6617C20.262 21.2039 20.2613 21.8186 19.9681 22.3481L19.6593 22.9061L19.8098 23.1288L20.057 23.4933C20.1664 23.6549 20.2849 23.8608 20.3511 24.0933C20.4167 24.3236 20.4674 24.7243 20.2202 25.1124L20.1215 25.2677L20.0707 25.3469L20.0082 25.4123C19.8604 25.7804 19.5008 26.0406 19.0799 26.0406C18.5273 26.0406 18.0794 25.5927 18.0794 25.0401V24.5437L18.2367 24.3747L17.9054 23.8851C17.7434 23.6456 17.6211 23.3542 17.6006 23.0204C17.5798 22.6829 17.6673 22.373 17.8136 22.1088L18.0159 21.7443L18.2113 21.3906C18.2132 21.3839 18.2178 21.3646 18.221 21.329C18.2275 21.2579 18.2263 21.1431 18.1996 20.9743L18.0921 20.2943L18.0794 20.2161V20.0373C18.0794 19.4847 18.5273 19.0367 19.0799 19.0367ZM23.0821 19.0367C23.5967 19.0367 24.02 19.4253 24.0759 19.9249L24.2859 20.4408C24.4911 20.9456 24.6651 21.6013 24.4345 22.2153L24.1609 22.9452C24.0881 23.139 24.034 23.3296 23.9977 23.5158L23.855 24.2457C23.8522 24.2602 23.8502 24.2737 23.8482 24.2857L24.0827 24.6375V25.0401C24.0827 25.5927 23.6347 26.0406 23.0821 26.0406C22.6171 26.0406 22.227 25.7231 22.1148 25.2931L22.1099 25.2853L22.064 25.2169L22.0298 25.1417L21.9604 24.9863C21.8557 24.7542 21.836 24.5261 21.8363 24.3649C21.8367 24.1942 21.86 24.0233 21.8911 23.8636L22.0337 23.1328C22.0923 22.8321 22.1767 22.5347 22.2868 22.2416L22.4246 21.8772L22.5408 21.5655C22.5404 21.5615 22.5405 21.5569 22.5399 21.5518C22.5312 21.4871 22.5031 21.3707 22.4314 21.1942L22.1549 20.5141L22.0816 20.3334V20.0373C22.0816 19.4847 22.5296 19.0367 23.0821 19.0367ZM21.0244 14.0711C20.7709 14.2793 20.5072 14.4691 20.2339 14.6407L19.8782 14.8645L19.843 14.886C19.8464 14.896 19.8501 14.9066 19.8538 14.9173L19.9378 15.1596C20.0256 15.1565 20.1514 15.1443 20.3208 15.1088L20.6853 15.0326L21.0507 14.9554C21.3301 14.8968 21.651 14.8903 21.9888 14.9104L21.8481 14.7101C21.7165 14.5232 21.5674 14.3231 21.3996 14.1102L21.2325 13.8991L21.0244 14.0711ZM16.2883 15.185L16.5395 15.0922L16.9049 14.9554C17.1851 14.851 17.4901 14.8191 17.796 14.8274C17.7882 14.7256 17.7875 14.6225 17.796 14.5196C17.83 14.1099 18.0188 13.6687 18.4595 13.392L18.8142 13.1692L19.1698 12.9464C19.3696 12.821 19.5644 12.6802 19.7541 12.5243L20.0863 12.2517L20.4186 11.9781L20.5104 11.9078C20.7398 11.7435 21.0707 11.5925 21.4768 11.6361C21.8833 11.6799 22.1748 11.8984 22.364 12.1081L22.4382 12.196L22.705 12.5341L22.9708 12.8722C23.1577 13.1093 23.3296 13.3377 23.4847 13.5581L23.9146 14.1698C23.9803 14.2631 24.0415 14.3599 24.0993 14.458C24.2069 14.4362 24.3177 14.4217 24.4325 14.4219L24.6543 14.4365L25.0197 14.4834L25.3842 14.5293C25.7319 14.5736 26.1588 14.6948 26.6281 14.8557L27.1518 15.0345H27.528L27.7996 15.2456L28.1181 15.4938C28.1516 15.4319 28.2034 15.3406 28.2647 15.2602C28.2853 15.2333 28.3286 15.1793 28.3908 15.1215C28.4177 15.0964 28.6057 14.9137 28.9174 14.8625C29.1134 14.8304 29.3619 14.8509 29.5975 14.9925C29.8178 15.125 29.9329 15.3071 29.9893 15.4273C30.0876 15.6369 30.086 15.825 30.086 15.8631V16.295L30.0323 16.3556C29.9637 16.5582 29.8324 16.7309 29.661 16.8519C29.4562 17.2291 29.0961 17.499 28.6389 17.5525C28.6503 17.7402 28.6401 17.9303 28.5901 18.1183L28.4924 18.4837L28.3956 18.8482C28.3506 19.0176 28.3269 19.1831 28.3233 19.3445L28.3077 20.0744C28.3049 20.2013 28.3235 20.3341 28.3693 20.477L28.4865 20.8424L28.6028 21.2079C28.7231 21.5832 28.7644 21.9725 28.7161 22.3657L28.6262 23.0956C28.5971 23.3332 28.57 23.5714 28.5451 23.8089L28.507 24.1734L28.4679 24.5388C28.4509 24.7016 28.4541 24.8645 28.4767 25.0283L28.5275 25.3928L28.5774 25.7582C28.6433 26.2345 28.5433 26.6895 28.3204 27.0949L28.126 27.4477L27.9325 27.8004C27.7963 28.048 27.66 28.2822 27.5241 28.5029L27.3345 28.8117L27.144 29.1195C26.8709 29.5629 26.4549 29.8481 25.9646 29.9647L25.2259 30.1406C24.9393 30.2087 24.6517 30.2578 24.3641 30.2881L23.9987 30.3262L23.6342 30.3653C23.2195 30.409 22.8141 30.3463 22.4314 30.1953L22.066 30.0507L21.7005 29.907C21.5995 29.8672 21.5212 29.86 21.4523 29.8679L20.7224 29.952C20.5283 29.9744 20.3322 30.0117 20.1342 30.0643L19.7688 30.162L19.4043 30.2588C18.9696 30.3744 18.5274 30.3587 18.1028 30.2187L17.3729 29.9784C17.1248 29.8965 16.8934 29.8184 16.6802 29.7438L16.0597 29.5269C15.6955 29.3997 15.3782 29.1891 15.1178 28.9074L14.6634 28.416C14.4601 28.196 14.314 27.9156 14.2726 27.5884C14.2326 27.2724 14.299 26.9835 14.3976 26.7461L14.5481 26.3836L14.6976 26.0221C14.7415 25.9165 14.7523 25.832 14.7465 25.7573L14.7172 25.3918L14.6888 25.0274C14.6719 24.8123 14.6452 24.5964 14.6097 24.3805L14.5501 24.0151L14.4895 23.6506C14.4406 23.3536 14.4166 23.0548 14.4172 22.7556L14.4182 22.3902V22.0247C14.4188 21.7401 14.4373 21.4554 14.4729 21.1717L14.5647 20.4418C14.5798 20.3212 14.5733 20.1996 14.5422 20.0715L14.4533 19.7061L14.3654 19.3406C14.318 19.145 14.2542 18.9462 14.1739 18.7446L13.8827 18.0147C13.7744 17.7426 13.7024 17.4508 13.6931 17.148C13.6345 17.1136 13.5789 17.0767 13.528 17.0356H13.0766C12.524 17.0356 12.076 16.5877 12.076 16.0351C12.076 15.9815 12.0816 15.9291 12.0897 15.8778L12.076 15.8309V15.5162C12.076 15.3995 12.0866 15.1348 12.2441 14.8723C12.3335 14.7234 12.4735 14.5707 12.676 14.4668C12.8266 14.3896 12.9775 14.3567 13.1118 14.3496L13.2407 14.3505L13.3404 14.3574L13.4411 14.3632C13.8415 14.389 14.1046 14.6294 14.1778 14.6964C14.2592 14.7711 14.3319 14.8552 14.3976 14.9368C14.4505 14.8868 14.5102 14.8376 14.5813 14.7951C14.9394 14.5812 15.2864 14.6566 15.3845 14.6808C15.6162 14.7379 15.8124 14.8666 15.9043 14.928L16.174 15.1088L16.2883 15.185Z" fill="#919191"/>
</svg>
