<svg width="24" height="24" viewBox="0 0 24 24" fill="none" xmlns="http://www.w3.org/2000/svg">
<path fill-rule="evenodd" clip-rule="evenodd" d="M11.4784 2.05671C10.7346 1.95173 9.99656 1.99228 9.27179 2.18016C8.63092 2.34632 8.01085 2.55527 7.41272 2.8068C6.8315 3.05124 6.25289 3.32665 5.67826 3.63222C5.02589 3.97917 4.4409 4.43219 3.92557 4.98594C3.43587 5.51215 2.99827 6.09477 2.61256 6.73092C2.14443 7.50317 1.94305 8.36106 2.01381 9.26994C2.06566 9.93534 2.1029 10.5879 2.12525 11.2262C2.15645 12.1145 2.45088 12.9215 2.99147 13.6157C3.32101 14.0389 3.57399 14.505 3.75232 15.0186C4.05095 15.8787 4.59369 16.5584 5.35811 17.0157C5.84804 17.3087 6.32669 17.6616 6.7937 18.0765C7.54246 18.7416 8.44713 18.998 9.4197 18.8203C10.1249 18.6914 10.7934 18.5257 11.4237 18.3223C11.8817 18.1744 12.3976 18.1045 12.9798 18.1277C13.8217 18.1613 14.5673 17.8849 15.1458 17.3072C15.1774 17.3802 15.2143 17.4523 15.2573 17.523C15.5155 17.9474 15.9088 18.1896 16.3231 18.2888C16.6266 18.3615 16.8835 18.4605 17.1002 18.5797C17.3095 18.6949 17.4835 18.8335 17.628 18.9939C17.8856 19.2798 18.1611 19.5474 18.4537 19.7963C18.7462 20.0451 19.0648 20.2603 19.406 20.446C19.4077 20.4496 19.4102 20.4533 19.4121 20.4575C19.4563 20.5575 19.8641 20.886 19.959 21.1991L20.0628 21.5448L20.3502 21.7504L20.4343 21.8109C20.9017 22.1467 21.5482 22.0234 21.8786 21.5355C22.1508 21.1334 21.9103 20.4807 21.6939 20.0739C21.6354 19.742 21.423 19.8486 21.2985 19.5672C21.1376 19.2037 20.8726 18.8143 20.4343 18.5859C20.1876 18.4573 19.9682 18.3086 19.7728 18.1424C19.5506 17.9533 19.3416 17.7509 19.1466 17.5345C18.8387 17.1928 18.4798 16.9111 18.0768 16.6893C17.7568 16.5131 17.4134 16.3765 17.0515 16.2718C17.0547 16.0176 17.0385 15.7202 16.9458 15.4459C17.4924 14.9379 17.885 14.3084 18.1102 13.5717C18.3319 12.8465 18.4681 12.1091 18.5165 11.3612C18.5268 11.2021 18.5375 11.0803 18.5489 10.9909C18.6644 10.8578 18.7312 10.7196 18.7688 10.6153C18.8582 10.3668 18.8529 10.1311 18.8468 10.0158C18.8327 9.74968 18.7654 9.43608 18.6847 9.12452C18.5402 8.56751 18.4175 7.95973 18.3169 7.30003C18.1836 6.42602 17.8471 5.63356 17.3159 4.93886C16.7434 4.19003 15.9823 3.70333 15.0759 3.48576C14.4892 3.34497 14.001 3.13408 13.5978 2.86539C12.9522 2.43505 12.2418 2.16449 11.4784 2.05671ZM11.1977 4.17936C10.7137 4.11102 10.2426 4.13829 9.77734 4.25886C9.22801 4.40129 8.70023 4.57882 8.19484 4.79136C7.67253 5.01102 7.15042 5.25976 6.62856 5.53726C6.18463 5.77335 5.78302 6.08247 5.42194 6.47043C5.03506 6.88616 4.68442 7.35172 4.37134 7.86809C4.14103 8.24811 4.0464 8.64671 4.08159 9.09837C4.13578 9.79389 4.17459 10.4777 4.19809 11.1488C4.21291 11.5695 4.34375 11.9337 4.60739 12.2724C5.08223 12.8821 5.44952 13.5581 5.70561 14.2957C5.84146 14.6869 6.06498 14.9623 6.39859 15.1619C7.00656 15.5256 7.58924 15.9571 8.14723 16.4528C8.42352 16.6982 8.6983 16.7759 9.05802 16.7102C9.68518 16.5956 10.267 16.4506 10.8046 16.2771C11.5146 16.0479 12.2696 15.9557 13.0598 15.9873C13.4193 16.0016 13.6309 15.8893 13.8166 15.6337C14.2728 15.0057 14.8039 14.4543 15.4082 13.9818C15.7652 13.7027 15.9995 13.3583 16.1316 12.9262C16.3046 12.3604 16.4086 11.7913 16.4457 11.2179C16.4681 10.8708 16.5048 10.5423 16.5713 10.2774C16.5976 10.1727 16.6428 10.0215 16.7243 9.86729L16.7133 9.8181C16.7039 9.77549 16.6937 9.7289 16.6807 9.67898C16.5152 9.04043 16.3779 8.35732 16.2674 7.63271C16.1895 7.12256 15.9984 6.67266 15.6879 6.26643C15.4187 5.91432 15.0727 5.68484 14.6059 5.57283C13.8195 5.38414 13.1032 5.08636 12.4722 4.66582C12.0836 4.40678 11.6623 4.24498 11.1977 4.17936Z" fill="#919191"/>
</svg>
