<svg width="24" height="24" viewBox="0 0 24 24" fill="none" xmlns="http://www.w3.org/2000/svg">
<path fill-rule="evenodd" clip-rule="evenodd" d="M17.3067 2.01582C16.6507 1.91358 16.0058 2.33658 15.9454 2.43672C15.9282 2.47153 15.9046 2.52492 15.8975 2.54316C15.8881 2.56815 15.8811 2.59101 15.879 2.59785C15.8749 2.61092 15.8719 2.62143 15.8711 2.62422L15.8663 2.64179L15.8636 2.65177C15.8607 2.66257 15.8566 2.67784 15.8526 2.69355L15.8135 2.8459L15.7774 2.9914L15.7012 3.29316L15.6075 3.66816C15.516 4.03044 15.488 4.40051 15.5284 4.77168L15.6104 5.52168C15.6277 5.68127 15.6231 5.84059 15.5967 6.00215L15.5577 6.2414C15.4288 6.31608 15.3395 6.40076 15.2901 6.45234C15.1439 6.60507 15.0383 6.78984 14.9678 6.92402L14.6026 7.61933C14.5312 7.75526 14.447 7.86506 14.3506 7.95429L13.7999 8.46406C13.6926 8.56337 13.5647 8.65174 13.4102 8.72676L13.0528 8.89961L12.6963 9.07343C12.1226 9.35204 11.8109 9.86228 11.712 10.423L11.6319 10.8742L11.5635 11.2629L11.3116 11.3811L10.9502 11.55C10.5899 11.7185 10.2506 11.9973 9.93364 12.3146L9.6397 12.1359L9.30962 11.9348C9.20491 11.8712 9.12295 11.795 9.05669 11.7014L8.61724 11.0803C8.42082 10.8026 7.99073 10.3387 7.33013 10.3811L7.19536 10.3967L6.97075 10.4338L6.74517 10.4699C6.51869 10.5068 6.2593 10.5794 5.98735 10.6691L5.60747 10.7951L5.22759 10.9201C4.81448 11.0565 4.45042 11.2895 4.15923 11.6203L3.65532 12.1926C3.45503 12.4202 3.27763 12.6563 3.12896 12.9006L2.78716 13.4631C2.63421 13.7144 2.50374 13.9925 2.39263 14.2893L2.252 14.6643L2.11235 15.0393C1.88402 15.6495 2.02248 16.244 2.35845 16.718L2.62407 17.093L2.83013 17.382L2.72759 17.6154L2.5645 17.9904C2.38611 18.4001 2.31832 18.8413 2.38872 19.2932L2.50591 20.0432C2.59473 20.6128 2.93464 21.0901 3.4981 21.3254L3.82915 21.4641L4.16021 21.6018C4.56006 21.7687 4.98187 21.8134 5.40239 21.7492L6.15239 21.634C6.48717 21.5828 6.81475 21.4887 7.13384 21.3566L7.88384 21.0461C7.961 21.0141 8.00857 21.015 8.05083 21.0236L8.80083 21.1779C9.20543 21.2609 9.61287 21.2467 10.0108 21.1428L10.7735 20.9436C11.2563 20.8175 11.6667 20.536 11.9463 20.1066L12.1514 19.7912L12.3575 19.4758C12.5618 19.1621 12.7053 18.816 12.795 18.4494L12.8926 18.048L12.9122 17.967L13.0489 17.9602C13.1177 17.9566 13.1962 17.9502 13.2754 17.9377C13.3384 17.9277 13.476 17.9033 13.6231 17.8332C13.7172 17.7884 14.2165 17.5289 14.2178 16.9055C14.2187 16.4062 13.8704 16.1301 13.8174 16.0881L13.7198 16.01L13.7052 15.9946C13.7012 15.9877 13.6964 15.9796 13.6917 15.9711C13.6897 15.9676 13.6877 15.964 13.6856 15.9602C13.6673 15.9266 13.6456 15.8856 13.6211 15.8361L13.4454 15.4816L13.2706 15.1262C13.035 14.6503 12.6445 14.3139 12.1583 14.134L11.7715 13.9914L11.3838 13.8478C11.3339 13.8293 11.3045 13.8091 11.2842 13.7912C11.5569 13.5084 11.7263 13.3957 11.7969 13.3625L12.1592 13.1936L12.5206 13.0246C13.1036 12.752 13.4226 12.2389 13.5225 11.6721L13.6719 10.8215L13.9268 10.6984L14.2833 10.5256C14.6047 10.3695 14.8984 10.1715 15.1583 9.93086L15.709 9.42109C15.8565 9.28454 15.9875 9.13419 16.1055 8.97383L16.1143 8.98847L16.5977 8.5041C16.722 8.54273 16.8364 8.56314 16.9268 8.57246C17.0884 8.58909 17.2551 8.5862 17.4141 8.57539L18.1641 8.52461C18.3763 8.51017 18.5888 8.50805 18.8008 8.51777L19.1758 8.53437L19.5508 8.55195C19.8488 8.5656 20.1375 8.5568 20.4122 8.51875L21.0196 8.43476C21.355 8.38825 21.8099 8.18972 22.0098 7.675C22.1672 7.26958 22.0679 6.88631 22.001 6.68672L21.7354 5.89277C21.6047 5.50266 21.3997 5.14567 21.1094 4.84687L20.587 4.30879C20.2463 3.95827 19.8175 3.75857 19.3663 3.66718L18.9249 3.57832L18.4844 3.48847C18.3259 3.45637 18.2497 3.40872 18.2129 3.37715L17.9278 3.13105L17.8233 3.0373C17.8255 3.02044 17.8302 2.97026 17.8321 2.93769C17.8314 2.85031 17.6554 2.32804 17.3067 2.01582ZM17.5987 5.30488C17.6357 5.64519 17.6265 5.98606 17.5713 6.32441L17.5313 6.56269L17.6534 6.55488L18.0284 6.52949C18.3162 6.50991 18.6047 6.50653 18.8926 6.51972L19.2676 6.5373L19.6426 6.5539C19.707 6.55685 19.7673 6.556 19.824 6.5552L19.8477 6.55488L19.8389 6.52754C19.7922 6.38825 19.7339 6.30025 19.6758 6.24043L19.4141 5.97187L19.1524 5.70234C19.1439 5.69364 19.1035 5.6554 18.9688 5.62812L18.5284 5.53828L18.087 5.44941C17.92 5.4156 17.7567 5.36727 17.5987 5.30488Z" fill="black"/>
</svg>
