<svg width="24" height="24" viewBox="0 0 24 24" fill="none" xmlns="http://www.w3.org/2000/svg">
<path d="M2.75 12C2.75 11.3096 3.30964 10.75 4 10.75L4.43457 10.75L4.72461 10.917C4.844 10.9859 4.94209 11.034 5.01953 11.0654C5.05543 11.08 5.08589 11.0874 5.10938 11.0947C5.50085 10.8926 5.91805 10.7402 6.35645 10.6895C6.79689 10.6385 7.2637 10.6703 7.73535 10.75C7.92793 10.7826 8.11794 10.7689 8.32129 10.7021C8.89685 10.5132 9.49257 10.4623 10.0908 10.5615C10.3295 10.6011 10.567 10.6222 10.8037 10.626C10.8719 10.3066 10.9523 9.988 11.043 9.66992C11.0635 9.59783 11.0684 9.52325 11.002 9.3877C10.6771 8.72519 10.6032 7.99968 10.834 7.28027C10.8667 7.17799 10.8678 7.08964 10.8154 6.96191C10.6277 6.50421 10.4827 6.04019 10.3838 5.57031C10.2861 5.10633 10.2344 4.60492 10.3232 4.13184C10.3602 3.93539 10.4366 3.63944 10.6318 3.36523C10.8635 3.03993 11.2691 2.75014 11.8096 2.75L12.1191 2.75L12.1328 2.75781C12.7607 2.82417 13.25 3.35454 13.25 4L13.25 6.16992L13.1699 6.12891C13.3976 6.75034 13.4205 7.40268 13.2148 8.04395C13.1944 8.10781 13.187 8.16646 13.2461 8.28711C13.5637 8.93489 13.6501 9.64423 13.4473 10.3555C13.4335 10.4038 13.4223 10.4527 13.4092 10.501C13.7617 10.3382 14.143 10.2354 14.5527 10.2246C15.1745 10.2082 15.7696 10.3596 16.3232 10.6387C16.6641 10.8105 17.0003 10.9502 17.3311 11.0605C17.5045 11.1184 17.6567 11.1234 17.8135 11.085C18.141 11.0046 18.4732 10.8957 18.8096 10.7568C19.0316 10.6652 19.3124 10.5639 19.5957 10.5303C19.7336 10.5139 19.9824 10.4985 20.2598 10.5889C20.5884 10.696 20.9374 10.9511 21.1045 11.3877L21.2383 11.7393L21.2285 11.7803C21.2412 11.8517 21.25 11.9249 21.25 12C21.25 12.6904 20.6904 13.25 20 13.25L19.2813 13.25C18.9922 13.352 18.7019 13.4409 18.4092 13.5127C17.7827 13.6665 17.1499 13.636 16.54 13.4326C16.0878 13.2817 15.6404 13.094 15.1982 12.8711C14.9688 12.7554 14.7806 12.7194 14.6191 12.7236C14.5714 12.7249 14.4357 12.7432 14.1963 12.9365C13.9562 13.1303 13.6755 13.2985 13.3555 13.4014C13.3108 13.6187 13.241 13.8326 13.1436 14.041C13.372 14.3994 13.527 14.8242 13.5273 15.2988C13.5276 15.7192 13.4058 16.1007 13.2197 16.4316C13.6447 17.0698 13.8219 17.8384 13.5498 18.6396C13.4554 18.9178 13.3514 19.3618 13.249 20.0049C13.2464 20.693 12.6887 21.25 12 21.25C11.3096 21.25 10.75 20.6904 10.75 20L10.75 19.8037L10.7646 19.709C10.8771 18.9821 11.0096 18.3573 11.1719 17.8691C11.1641 17.8534 11.1519 17.8282 11.1279 17.7949C10.8767 17.4472 10.6881 17.0199 10.667 16.5283C10.6474 16.0697 10.7789 15.6551 10.9854 15.3018C10.5895 14.6325 10.506 13.8671 10.8164 13.126C10.4371 13.1226 10.0587 13.0899 9.68164 13.0273C9.49666 12.9967 9.30827 13.009 9.10059 13.0771C8.52083 13.2675 7.92137 13.3166 7.31934 13.2148C6.99642 13.1602 6.77813 13.1573 6.64355 13.1729C6.56657 13.1818 6.41406 13.2209 6.1748 13.3555C5.31863 13.8371 4.4025 13.5634 3.72754 13.2197C3.16826 13.0953 2.75 12.5967 2.75 12Z" fill="black"/>
</svg>
