<svg width="45" height="45" viewBox="0 0 45 45" fill="none" xmlns="http://www.w3.org/2000/svg">
<path d="M2.2882 14.0929C2.2882 7.36756 7.74018 1.91559 14.4655 1.91559H30.702C37.4273 1.91559 42.8793 7.36756 42.8793 14.0929V30.3293C42.8793 37.0547 37.4273 42.5067 30.702 42.5067H14.4655C7.74018 42.5067 2.2882 37.0547 2.2882 30.3293V14.0929Z" fill="#F5F5F5"/>
<path d="M20.7445 1.92426L20.6665 0.404087L20.7445 1.92426ZM27.5942 2.19696L27.0295 3.6105L27.5942 2.19696ZM31.0348 1.83171L30.8827 0.31717L31.0348 1.83171ZM33.2743 2.05188L34.2445 0.87898L33.2743 2.05188ZM34.2339 2.84569L33.2637 4.01859L34.2339 2.84569ZM36.4857 3.43433L36.6495 1.921L36.4857 3.43433ZM37.3814 4.02157L38.6965 3.25512L37.3814 4.02157ZM37.9914 5.06821L36.6763 5.83465L37.9914 5.06821ZM38.9772 5.7388L38.6554 7.22656L38.9772 5.7388ZM39.6581 5.88607L39.9799 4.39832L39.6581 5.88607ZM40.3389 6.03335L40.0171 7.52111V7.52111L40.3389 6.03335ZM41.2538 6.74121L39.8491 7.32753L41.2538 6.74121ZM41.7217 7.8624L43.1265 7.27609L41.7217 7.8624ZM42.0834 9.60798L43.5968 9.44491L42.0834 9.60798ZM42.1473 10.2005L40.6338 10.3635L42.1473 10.2005ZM42.4184 11.3342L40.9968 11.8786L42.4184 11.3342ZM42.6256 11.8755L44.0471 11.3312L42.6256 11.8755ZM42.8329 12.4168L44.2544 11.8725L42.8329 12.4168ZM43.0536 13.5334L41.5319 13.5691L43.0536 13.5334ZM43.0806 14.6842L44.6023 14.6486L43.0806 14.6842ZM43.2173 16.4012L41.7039 16.5646L43.2173 16.4012ZM43.2789 16.972L44.7923 16.8086L43.2789 16.972ZM43.1152 18.1137L44.531 18.6727L43.1152 18.1137ZM42.8898 18.6845L41.474 18.1255L42.8898 18.6845ZM42.9517 22.6802L44.381 22.1567L42.9517 22.6802ZM43.3697 23.8218L41.9404 24.3452L43.3697 23.8218ZM42.8596 27.2466L41.3482 27.427L42.8596 27.2466ZM42.9958 28.3883L44.5073 28.2079L42.9958 28.3883ZM43.1433 29.5398L44.6515 29.3336L43.1433 29.5398ZM43.3021 30.7013L44.8103 30.4951L43.3021 30.7013ZM43.2537 31.8612L41.7673 31.533L43.2537 31.8612ZM42.9979 33.0195L44.4842 33.3477L42.9979 33.0195ZM42.4521 34.0486L41.3367 33.0128L42.4521 34.0486ZM41.6163 34.9486L42.7317 35.9844L41.6163 34.9486ZM40.997 35.9254L42.4188 36.4689L40.997 35.9254ZM40.5942 36.9791L39.1724 36.4356L40.5942 36.9791ZM40.0548 37.9682L38.8261 37.0697L40.0548 37.9682ZM39.3787 38.8928L40.6074 39.7913L39.3787 38.8928ZM38.5007 39.5718L39.0678 40.9844L38.5007 39.5718ZM37.4209 40.0053L36.8538 38.5927L37.4209 40.0053ZM36.4422 40.5929L37.4247 41.7555L36.4422 40.5929ZM36.0034 40.9636L36.9859 42.1263L36.0034 40.9636ZM35.5647 41.3344L34.5822 40.1718L35.5647 41.3344ZM34.5924 41.9475L35.2219 43.3334L34.5924 41.9475ZM33.5253 42.4322L32.8958 41.0463L33.5253 42.4322ZM32.4068 42.7958L32.0979 41.3053L32.4068 42.7958ZM31.8218 42.917L32.1307 44.4075L31.8218 42.917ZM31.2368 43.0383L30.9279 41.5478L31.2368 43.0383ZM30.081 43.2222L30.2471 44.7353L30.081 43.2222ZM28.9394 43.3475L28.7733 41.8344L28.9394 43.3475ZM27.7978 43.1704L28.3873 41.767L27.7978 43.1704ZM27.227 42.9306L26.6374 44.334L27.227 42.9306ZM26.6561 42.6908L27.2457 41.2874L26.6561 42.6908ZM25.5145 42.2638L25.9889 40.8174L25.5145 42.2638ZM24.3729 41.8893L24.8473 40.443L24.3729 41.8893ZM20.948 42.252L20.7239 40.7465L20.948 42.252ZM19.8064 42.422L20.0305 43.9275L19.8064 42.422ZM18.6648 42.3941L18.3696 43.8874L18.6648 42.3941ZM17.5232 42.1684L17.8184 40.6751L17.5232 42.1684ZM16.3815 42.3209L15.74 40.9405L16.3815 42.3209ZM15.8107 42.5862L16.4523 43.9665L15.8107 42.5862ZM15.2399 42.8515L14.5984 41.4711L15.2399 42.8515ZM14.1124 42.8513L14.7675 41.4773L14.1124 42.8513ZM13.5557 42.5859L12.9006 43.9598L13.5557 42.5859ZM12.999 42.3204L12.3439 43.6944L12.999 42.3204ZM9.89181 40.946L9.59402 42.4388V42.4388L9.89181 40.946ZM8.77793 40.7238L9.07572 39.2311V39.2311L8.77793 40.7238ZM7.63346 40.4271L7.17496 41.8786L7.63346 40.4271ZM7.04593 40.2415L7.50443 38.7901L7.04593 40.2415ZM6.4584 40.0559L5.9999 41.5074L6.4584 40.0559ZM5.43815 39.4478L4.37471 40.5369L5.43815 39.4478ZM4.04516 37.5519L5.55028 37.3247L4.04516 37.5519ZM3.95032 36.9236L5.45544 36.6964L3.95032 36.9236ZM3.85549 36.2953L2.35037 36.5225L3.85549 36.2953ZM3.69025 35.108L2.18002 35.2982L3.69025 35.108ZM3.14112 32.9264L4.40574 32.0792L3.14112 32.9264ZM2.46527 31.9176L1.20065 32.7648L2.46527 31.9176ZM2.18127 30.838L3.69679 30.9801L2.18127 30.838ZM2.4566 28.5417L0.963688 28.2448L2.4566 28.5417ZM2.48244 14.8566L1.04373 14.3595L2.48244 14.8566ZM2.86695 13.7437L4.30566 14.2408L2.86695 13.7437ZM2.56592 11.3955L1.09835 11.7995L2.56592 11.3955ZM2.7162 10.3034L1.43187 9.48646L2.7162 10.3034ZM3.81875 8.23812L2.35017 7.83777L3.81875 8.23812ZM3.97717 7.657L2.50859 7.25665L3.97717 7.657ZM4.89726 6.27736L4.3812 4.84534V4.84534L4.89726 6.27736ZM7.08245 5.21479L5.95934 4.18735L7.08245 5.21479ZM8.69824 3.71334L7.96248 2.3808L8.69824 3.71334ZM9.67723 3.17279L10.413 4.50533L9.67723 3.17279ZM10.6745 2.57156L11.5057 3.84673L10.6745 2.57156ZM11.6899 1.90963L10.8587 0.634451L11.6899 1.90963ZM12.7646 1.71619L12.4058 3.19546L12.7646 1.71619ZM15.6071 1.68784L15.9049 3.18059L16.4758 3.06672L16.178 1.57397L15.8802 0.0812173L15.3094 0.195091L15.6071 1.68784ZM16.178 1.57397L16.4758 3.06672C16.6375 3.03446 16.7943 3.03712 16.9619 3.07763L17.3196 1.59808L17.6772 0.118526C17.0837 -0.0249386 16.4795 -0.0383557 15.8802 0.0812173L16.178 1.57397ZM17.3196 1.59808L16.9619 3.07763L17.5327 3.21561L17.8904 1.73606L18.248 0.256508L17.6772 0.118526L17.3196 1.59808ZM17.8904 1.73606L17.5327 3.21561L18.1036 3.35359L18.4612 1.87404L18.8189 0.39449L18.248 0.256508L17.8904 1.73606ZM18.4612 1.87404L18.1036 3.35359C18.6226 3.47907 19.1498 3.53015 19.6807 3.50294L19.6028 1.98277L19.5249 0.462599C19.2948 0.474395 19.0609 0.452992 18.8189 0.39449L18.4612 1.87404ZM19.6028 1.98277L19.6807 3.50294L20.2516 3.47368L20.1736 1.95351L20.0957 0.433343L19.5249 0.462599L19.6028 1.98277ZM20.1736 1.95351L20.2516 3.47368L20.8224 3.44443L20.7445 1.92426L20.6665 0.404087L20.0957 0.433343L20.1736 1.95351ZM20.7445 1.92426L20.8224 3.44443C20.9802 3.43634 21.1523 3.45994 21.3503 3.53441L21.8861 2.10964L22.4218 0.684867C21.8588 0.473149 21.2698 0.37317 20.6665 0.404087L20.7445 1.92426ZM21.8861 2.10964L21.3503 3.53441L21.9212 3.74904L22.4569 2.32427L22.9926 0.899502L22.4218 0.684867L21.8861 2.10964ZM22.4569 2.32427L21.9212 3.74904L22.492 3.96368L23.0277 2.53891L23.5634 1.11414L22.9926 0.899502L22.4569 2.32427ZM23.0277 2.53891L22.492 3.96368C23.3158 4.27344 24.1561 4.18293 24.8961 3.78083L24.1693 2.44337L23.4426 1.10591C23.4128 1.12207 23.4252 1.10936 23.4716 1.10548C23.493 1.10369 23.5143 1.10449 23.5333 1.10726C23.5519 1.10999 23.5624 1.11374 23.5634 1.11414L23.0277 2.53891ZM24.1693 2.44337L24.8961 3.78083L25.4669 3.47065L24.7401 2.13319L24.0134 0.795734L23.4426 1.10591L24.1693 2.44337ZM24.7401 2.13319L25.4669 3.47065L26.0377 3.16048L25.311 1.82302L24.5842 0.48556L24.0134 0.795734L24.7401 2.13319ZM25.311 1.82302L26.0377 3.16048C26.0631 3.14666 26.0446 3.16179 25.991 3.16564C25.9662 3.16742 25.9421 3.16609 25.9212 3.16266C25.9006 3.15928 25.889 3.15489 25.8879 3.15442L26.4526 1.74088L27.0173 0.327344C26.1897 -0.00327408 25.3366 0.0767255 24.5842 0.48556L25.311 1.82302ZM26.4526 1.74088L25.8879 3.15442L26.4587 3.38246L27.0234 1.96892L27.5881 0.555383L27.0173 0.327344L26.4526 1.74088ZM27.0234 1.96892L26.4587 3.38246L27.0295 3.6105L27.5942 2.19696L28.1589 0.783421L27.5881 0.555383L27.0234 1.96892ZM27.5942 2.19696L27.0295 3.6105C27.6848 3.87229 28.3832 3.93724 29.0827 3.77352L28.7358 2.29141L28.3889 0.809291C28.3274 0.823701 28.2647 0.825684 28.1589 0.783421L27.5942 2.19696ZM28.7358 2.29141L29.0827 3.77352L29.6535 3.63993L29.3066 2.15781L28.9598 0.675698L28.3889 0.809291L28.7358 2.29141ZM29.3066 2.15781L29.6535 3.63993L30.2243 3.50634L29.8774 2.02422L29.5306 0.542105L28.9598 0.675698L29.3066 2.15781ZM29.8774 2.02422L30.2243 3.50634C30.5404 3.43237 30.8611 3.37899 31.1869 3.34626L31.0348 1.83171L30.8827 0.31717C30.4265 0.362992 29.9756 0.437947 29.5306 0.542105L29.8774 2.02422ZM31.0348 1.83171L31.1869 3.34626L31.7735 3.28735L31.6213 1.7728L31.4692 0.258257L30.8827 0.31717L31.0348 1.83171ZM31.6213 1.7728L31.7735 3.28735L32.36 3.22843L32.2079 1.71389L32.0558 0.199344L31.4692 0.258257L31.6213 1.7728ZM32.2079 1.71389L32.36 3.22843C32.3624 3.22819 32.357 3.22891 32.3456 3.22778C32.3339 3.22663 32.3207 3.22403 32.3078 3.21995C32.2951 3.21591 32.2873 3.21192 32.2853 3.21079C32.2836 3.20982 32.29 3.21316 32.3041 3.22478L33.2743 2.05188L34.2445 0.87898C33.6308 0.371372 32.8762 0.116937 32.0558 0.199344L32.2079 1.71389ZM33.2743 2.05188L32.3041 3.22478L32.7839 3.62168L33.7541 2.44878L34.7243 1.27588L34.2445 0.87898L33.2743 2.05188ZM33.7541 2.44878L32.7839 3.62168L33.2637 4.01859L34.2339 2.84569L35.2041 1.67279L34.7243 1.27588L33.7541 2.44878ZM34.2339 2.84569L33.2637 4.01859C33.8016 4.46354 34.4358 4.74357 35.1406 4.81984L35.3044 3.30651L35.4681 1.79317C35.3854 1.78422 35.306 1.75704 35.2041 1.67279L34.2339 2.84569ZM35.3044 3.30651L35.1406 4.81984L35.7313 4.88375L35.8951 3.37042L36.0588 1.85709L35.4681 1.79317L35.3044 3.30651ZM35.8951 3.37042L35.7313 4.88375L36.322 4.94766L36.4857 3.43433L36.6495 1.921L36.0588 1.85709L35.8951 3.37042ZM36.4857 3.43433L36.322 4.94766C36.306 4.94593 36.2438 4.93419 36.1704 4.88605C36.1367 4.86399 36.1104 4.84048 36.0917 4.82013C36.0734 4.80027 36.066 4.78748 36.0663 4.78801L37.3814 4.02157L38.6965 3.25512C38.2554 2.4982 37.5349 2.0168 36.6495 1.921L36.4857 3.43433ZM37.3814 4.02157L36.0663 4.78801L36.3713 5.31133L37.6864 4.54489L39.0015 3.77844L38.6965 3.25512L37.3814 4.02157ZM37.6864 4.54489L36.3713 5.31133L36.6763 5.83465L37.9914 5.06821L39.3065 4.30176L39.0015 3.77844L37.6864 4.54489ZM37.9914 5.06821L36.6763 5.83465C37.1279 6.60959 37.8528 7.05295 38.6554 7.22656L38.9772 5.7388L39.299 4.25104C39.2315 4.23644 39.2242 4.22379 39.2464 4.23893C39.257 4.24612 39.2699 4.25668 39.2824 4.27017C39.2949 4.28359 39.3027 4.29521 39.3065 4.30176L37.9914 5.06821ZM38.9772 5.7388L38.6554 7.22656L39.3363 7.37383L39.6581 5.88607L39.9799 4.39832L39.299 4.25104L38.9772 5.7388ZM39.6581 5.88607L39.3363 7.37383L40.0171 7.52111L40.3389 6.03335L40.6607 4.54559L39.9799 4.39832L39.6581 5.88607ZM40.3389 6.03335L40.0171 7.52111C40.0669 7.53188 40.0366 7.53425 39.9766 7.48782C39.9473 7.46517 39.9189 7.43686 39.8946 7.40473C39.8706 7.37293 39.8564 7.34519 39.8491 7.32753L41.2538 6.74121L42.6585 6.1549C42.2803 5.24887 41.5188 4.73119 40.6607 4.54559L40.3389 6.03335ZM41.2538 6.74121L39.8491 7.32753L40.083 7.88812L41.4878 7.30181L42.8925 6.71549L42.6585 6.1549L41.2538 6.74121ZM41.4878 7.30181L40.083 7.88812L40.317 8.44871L41.7217 7.8624L43.1265 7.27609L42.8925 6.71549L41.4878 7.30181ZM41.7217 7.8624L40.317 8.44871C40.4177 8.68997 40.4796 8.93196 40.5062 9.17855L42.0196 9.01549L43.533 8.85242C43.4744 8.30903 43.3377 7.78229 43.1265 7.27609L41.7217 7.8624ZM42.0196 9.01549L40.5062 9.17855L40.57 9.77105L42.0834 9.60798L43.5968 9.44491L43.533 8.85242L42.0196 9.01549ZM42.0834 9.60798L40.57 9.77105L40.6338 10.3635L42.1473 10.2005L43.6607 10.0374L43.5968 9.44491L42.0834 9.60798ZM42.1473 10.2005L40.6338 10.3635C40.6901 10.8854 40.8104 11.3917 40.9968 11.8786L42.4184 11.3342L43.8399 10.7899C43.7499 10.5551 43.6896 10.3056 43.6607 10.0374L42.1473 10.2005ZM42.4184 11.3342L40.9968 11.8786L41.2041 12.4198L42.6256 11.8755L44.0471 11.3312L43.8399 10.7899L42.4184 11.3342ZM42.6256 11.8755L41.2041 12.4198L41.4114 12.9611L42.8329 12.4168L44.2544 11.8725L44.0471 11.3312L42.6256 11.8755ZM42.8329 12.4168L41.4114 12.9611C41.4877 13.1605 41.527 13.3608 41.5319 13.5691L43.0536 13.5334L44.5754 13.4978C44.5623 12.9389 44.4544 12.3947 44.2544 11.8725L42.8329 12.4168ZM43.0536 13.5334L41.5319 13.5691L41.5453 14.1445L43.0671 14.1088L44.5888 14.0732L44.5754 13.4978L43.0536 13.5334ZM43.0671 14.1088L41.5453 14.1445L41.5588 14.7199L43.0806 14.6842L44.6023 14.6486L44.5888 14.0732L43.0671 14.1088ZM43.0806 14.6842L41.5588 14.7199C41.5688 15.146 41.5966 15.5707 41.6423 15.9938L43.1557 15.8304L44.669 15.667C44.6325 15.329 44.6103 14.9896 44.6023 14.6486L43.0806 14.6842ZM43.1557 15.8304L41.6423 15.9938L41.7039 16.5646L43.2173 16.4012L44.7307 16.2378L44.669 15.667L43.1557 15.8304ZM43.2173 16.4012L41.7039 16.5646L41.7656 17.1354L43.2789 16.972L44.7923 16.8086L44.7307 16.2378L43.2173 16.4012ZM43.2789 16.972L41.7656 17.1354C41.7784 17.254 41.7655 17.3872 41.6994 17.5547L43.1152 18.1137L44.531 18.6727C44.7654 18.079 44.8617 17.4511 44.7923 16.8086L43.2789 16.972ZM43.1152 18.1137L41.6994 17.5547L41.474 18.1255L42.8898 18.6845L44.3056 19.2435L44.531 18.6727L43.1152 18.1137ZM42.8898 18.6845L41.474 18.1255L41.2486 18.6963L42.6644 19.2553L44.0803 19.8143L44.3056 19.2435L42.8898 18.6845ZM42.6644 19.2553L41.2486 18.6963C41.0096 19.3016 40.9191 19.9431 41.0061 20.5975L42.515 20.3969L44.0239 20.1963C44.0097 20.0897 44.0187 19.9701 44.0803 19.8143L42.6644 19.2553ZM42.515 20.3969L41.0061 20.5975L41.082 21.1683L42.5909 20.9677L44.0997 20.7671L44.0239 20.1963L42.515 20.3969ZM42.5909 20.9677L41.082 21.1683L41.1579 21.7391L42.6667 21.5385L44.1756 21.3379L44.0997 20.7671L42.5909 20.9677ZM42.6667 21.5385L41.1579 21.7391C41.2239 22.2358 41.3469 22.7244 41.5223 23.2036L42.9517 22.6802L44.381 22.1567C44.2778 21.8748 44.2108 21.6023 44.1756 21.3379L42.6667 21.5385ZM42.9517 22.6802L41.5223 23.2036L41.7314 23.7744L43.1607 23.251L44.59 22.7275L44.381 22.1567L42.9517 22.6802ZM43.1607 23.251L41.7314 23.7744L41.9404 24.3452L43.3697 23.8218L44.7991 23.2983L44.59 22.7275L43.1607 23.251ZM43.3697 23.8218L41.9404 24.3452C41.9544 24.3835 41.9552 24.4026 41.9552 24.4089C41.9553 24.415 41.955 24.4322 41.9429 24.4672L43.3819 24.9634L44.821 25.4596C45.0671 24.7457 45.0579 24.0051 44.7991 23.2983L43.3697 23.8218ZM43.3819 24.9634L41.9429 24.4672L41.7461 25.038L43.1851 25.5342L44.6242 26.0304L44.821 25.4596L43.3819 24.9634ZM43.1851 25.5342L41.7461 25.038L41.5493 25.6089L42.9883 26.105L44.4273 26.6012L44.6242 26.0304L43.1851 25.5342ZM42.9883 26.105L41.5493 25.6089C41.3471 26.1953 41.2742 26.8069 41.3482 27.427L42.8596 27.2466L44.3711 27.0663C44.3542 26.9253 44.3671 26.7758 44.4273 26.6012L42.9883 26.105ZM42.8596 27.2466L41.3482 27.427L41.4163 27.9978L42.9277 27.8175L44.4392 27.6371L44.3711 27.0663L42.8596 27.2466ZM42.9277 27.8175L41.4163 27.9978L41.4844 28.5686L42.9958 28.3883L44.5073 28.2079L44.4392 27.6371L42.9277 27.8175ZM42.9958 28.3883L41.4844 28.5686C41.5308 28.9579 41.5811 29.3504 41.6352 29.746L43.1433 29.5398L44.6515 29.3336C44.5997 28.9549 44.5516 28.5797 44.5073 28.2079L42.9958 28.3883ZM43.1433 29.5398L41.6352 29.746L41.7146 30.3268L43.2227 30.1206L44.7309 29.9144L44.6515 29.3336L43.1433 29.5398ZM43.2227 30.1206L41.7146 30.3268L41.794 30.9076L43.3021 30.7013L44.8103 30.4951L44.7309 29.9144L43.2227 30.1206ZM43.3021 30.7013L41.794 30.9076C41.8223 31.1146 41.8143 31.3202 41.7673 31.533L43.2537 31.8612L44.74 32.1895C44.8636 31.63 44.8879 31.0625 44.8103 30.4951L43.3021 30.7013ZM43.2537 31.8612L41.7673 31.533L41.6394 32.1121L43.1258 32.4403L44.6121 32.7686L44.74 32.1895L43.2537 31.8612ZM43.1258 32.4403L41.6394 32.1121L41.5115 32.6912L42.9979 33.0195L44.4842 33.3477L44.6121 32.7686L43.1258 32.4403ZM42.9979 33.0195L41.5115 32.6912C41.4868 32.8029 41.4377 32.904 41.3367 33.0128L42.4521 34.0486L43.5675 35.0844C44.0237 34.5931 44.3384 34.0081 44.4842 33.3477L42.9979 33.0195ZM42.4521 34.0486L41.3367 33.0128L40.9188 33.4628L42.0342 34.4986L43.1496 35.5344L43.5675 35.0844L42.4521 34.0486ZM42.0342 34.4986L40.9188 33.4628L40.5009 33.9128L41.6163 34.9486L42.7317 35.9844L43.1496 35.5344L42.0342 34.4986ZM41.6163 34.9486L40.5009 33.9128C40.1014 34.3429 39.7851 34.8328 39.5752 35.3819L40.997 35.9254L42.4188 36.4689C42.4775 36.3155 42.574 36.1542 42.7317 35.9844L41.6163 34.9486ZM40.997 35.9254L39.5752 35.3819L39.3738 35.9087L40.7956 36.4522L42.2174 36.9958L42.4188 36.4689L40.997 35.9254ZM40.7956 36.4522L39.3738 35.9087L39.1724 36.4356L40.5942 36.9791L42.016 37.5226L42.2174 36.9958L40.7956 36.4522ZM40.5942 36.9791L39.1724 36.4356C39.0872 36.6585 38.9728 36.8691 38.8261 37.0697L40.0548 37.9682L41.2835 38.8667C41.5875 38.451 41.8327 38.0022 42.016 37.5226L40.5942 36.9791ZM40.0548 37.9682L38.8261 37.0697L38.488 37.532L39.7167 38.4305L40.9454 39.329L41.2835 38.8667L40.0548 37.9682ZM39.7167 38.4305L38.488 37.532L38.15 37.9943L39.3787 38.8928L40.6074 39.7913L40.9454 39.329L39.7167 38.4305ZM39.3787 38.8928L38.15 37.9943C38.0955 38.0688 38.0337 38.119 37.9336 38.1592L38.5007 39.5718L39.0678 40.9844C39.6876 40.7356 40.2111 40.3332 40.6074 39.7913L39.3787 38.8928ZM38.5007 39.5718L37.9336 38.1592L37.3937 38.376L37.9608 39.7886L38.5279 41.2012L39.0678 40.9844L38.5007 39.5718ZM37.9608 39.7886L37.3937 38.376L36.8538 38.5927L37.4209 40.0053L37.9879 41.4179L38.5279 41.2012L37.9608 39.7886ZM37.4209 40.0053L36.8538 38.5927C36.3449 38.797 35.878 39.0767 35.4597 39.4302L36.4422 40.5929L37.4247 41.7555C37.5913 41.6146 37.777 41.5026 37.9879 41.4179L37.4209 40.0053ZM36.4422 40.5929L35.4597 39.4302L35.0209 39.801L36.0034 40.9636L36.9859 42.1263L37.4247 41.7555L36.4422 40.5929ZM36.0034 40.9636L35.0209 39.801L34.5822 40.1718L35.5647 41.3344L36.5471 42.497L36.9859 42.1263L36.0034 40.9636ZM35.5647 41.3344L34.5822 40.1718C34.3986 40.3269 34.1938 40.4568 33.9629 40.5616L34.5924 41.9475L35.2219 43.3334C35.7023 43.1152 36.1457 42.8363 36.5471 42.497L35.5647 41.3344ZM34.5924 41.9475L33.9629 40.5616L33.4293 40.804L34.0589 42.1899L34.6884 43.5758L35.2219 43.3334L34.5924 41.9475ZM34.0589 42.1899L33.4293 40.804L32.8958 41.0463L33.5253 42.4322L34.1549 43.8181L34.6884 43.5758L34.0589 42.1899ZM33.5253 42.4322L32.8958 41.0463C32.6448 41.1603 32.3797 41.2469 32.0979 41.3053L32.4068 42.7958L32.7157 44.2863C33.214 44.183 33.6945 44.0272 34.1549 43.8181L33.5253 42.4322ZM32.4068 42.7958L32.0979 41.3053L31.5129 41.4266L31.8218 42.917L32.1307 44.4075L32.7157 44.2863L32.4068 42.7958ZM31.8218 42.917L31.5129 41.4266L30.9279 41.5478L31.2368 43.0383L31.5457 44.5288L32.1307 44.4075L31.8218 42.917ZM31.2368 43.0383L30.9279 41.5478C30.5833 41.6192 30.2457 41.6728 29.9149 41.7091L30.081 43.2222L30.2471 44.7353C30.6775 44.688 31.1104 44.619 31.5457 44.5288L31.2368 43.0383ZM30.081 43.2222L29.9149 41.7091L29.3441 41.7718L29.5102 43.2848L29.6763 44.7979L30.2471 44.7353L30.081 43.2222ZM29.5102 43.2848L29.3441 41.7718L28.7733 41.8344L28.9394 43.3475L29.1055 44.8606L29.6763 44.7979L29.5102 43.2848ZM28.9394 43.3475L28.7733 41.8344C28.6698 41.8458 28.5486 41.8347 28.3873 41.767L27.7978 43.1704L27.2082 44.5737C27.8081 44.8257 28.4479 44.9328 29.1055 44.8606L28.9394 43.3475ZM27.7978 43.1704L28.3873 41.767L27.8165 41.5272L27.227 42.9306L26.6374 44.334L27.2082 44.5737L27.7978 43.1704ZM27.227 42.9306L27.8165 41.5272L27.2457 41.2874L26.6561 42.6908L26.0666 44.0942L26.6374 44.334L27.227 42.9306ZM26.6561 42.6908L27.2457 41.2874C26.8285 41.1122 26.4096 40.9554 25.9889 40.8174L25.5145 42.2638L25.0401 43.7101C25.3805 43.8218 25.7227 43.9497 26.0666 44.0942L26.6561 42.6908ZM25.5145 42.2638L25.9889 40.8174L25.4181 40.6302L24.9437 42.0765L24.4693 43.5229L25.0401 43.7101L25.5145 42.2638ZM24.9437 42.0765L25.4181 40.6302L24.8473 40.443L24.3729 41.8893L23.8985 43.3357L24.4693 43.5229L24.9437 42.0765ZM24.3729 41.8893L24.8473 40.443C24.2239 40.2385 23.5753 40.1949 22.9275 40.3268L23.2313 41.8183L23.535 43.3099C23.6483 43.2868 23.7608 43.2905 23.8985 43.3357L24.3729 41.8893ZM23.2313 41.8183L22.9275 40.3268L22.3567 40.443L22.6605 41.9346L22.9642 43.4261L23.535 43.3099L23.2313 41.8183ZM22.6605 41.9346L22.3567 40.443L21.7859 40.5593L22.0897 42.0508L22.3934 43.5424L22.9642 43.4261L22.6605 41.9346ZM22.0897 42.0508L21.7859 40.5593C21.4315 40.6315 21.0775 40.6938 20.7239 40.7465L20.948 42.252L21.1721 43.7576C21.5796 43.697 21.9867 43.6252 22.3934 43.5424L22.0897 42.0508ZM20.948 42.252L20.7239 40.7465L20.1531 40.8314L20.3772 42.337L20.6013 43.8426L21.1721 43.7576L20.948 42.252ZM20.3772 42.337L20.1531 40.8314L19.5823 40.9164L19.8064 42.422L20.0305 43.9275L20.6013 43.8426L20.3772 42.337ZM19.8064 42.422L19.5823 40.9164C19.3757 40.9471 19.1709 40.9425 18.96 40.9008L18.6648 42.3941L18.3696 43.8874C18.9198 43.9961 19.476 44.0101 20.0305 43.9275L19.8064 42.422ZM18.6648 42.3941L18.96 40.9008L18.3892 40.788L18.094 42.2812L17.7988 43.7745L18.3696 43.8874L18.6648 42.3941ZM18.094 42.2812L18.3892 40.788L17.8184 40.6751L17.5232 42.1684L17.228 43.6617L17.7988 43.7745L18.094 42.2812ZM17.5232 42.1684L17.8184 40.6751C17.0952 40.5322 16.3877 40.6395 15.74 40.9405L16.3815 42.3209L17.0231 43.7012C17.1365 43.6485 17.19 43.6542 17.228 43.6617L17.5232 42.1684ZM16.3815 42.3209L15.74 40.9405L15.1692 41.2058L15.8107 42.5862L16.4523 43.9665L17.0231 43.7012L16.3815 42.3209ZM15.8107 42.5862L15.1692 41.2058L14.5984 41.4711L15.2399 42.8515L15.8815 44.2318L16.4523 43.9665L15.8107 42.5862ZM15.2399 42.8515L14.5984 41.4711C14.5855 41.4771 14.6144 41.4619 14.6728 41.4619C14.6995 41.4619 14.7235 41.4652 14.7426 41.4697C14.7613 41.4741 14.7699 41.4785 14.7675 41.4773L14.1124 42.8513L13.4573 44.2253C14.2477 44.6022 15.0992 44.5954 15.8815 44.2318L15.2399 42.8515ZM14.1124 42.8513L14.7675 41.4773L14.2108 41.2119L13.5557 42.5859L12.9006 43.9598L13.4573 44.2253L14.1124 42.8513ZM13.5557 42.5859L14.2108 41.2119L13.6541 40.9465L12.999 42.3204L12.3439 43.6944L12.9006 43.9598L13.5557 42.5859ZM12.999 42.3204L13.6541 40.9465C13.2909 40.7733 12.948 40.6059 12.6253 40.4444L11.9439 41.8055L11.2626 43.1667C11.6044 43.3378 11.9649 43.5137 12.3439 43.6944L12.999 42.3204ZM11.9439 41.8055L12.6253 40.4444L12.1269 40.1949L11.4455 41.5561L10.7642 42.9172L11.2626 43.1667L11.9439 41.8055ZM11.4455 41.5561L12.1269 40.1949L11.6285 39.9454L10.9471 41.3066L10.2658 42.6678L10.7642 42.9172L11.4455 41.5561ZM10.9471 41.3066L11.6285 39.9454C11.1725 39.7172 10.6915 39.5534 10.1896 39.4533L9.89181 40.946L9.59402 42.4388C9.83471 42.4868 10.0573 42.5634 10.2658 42.6678L10.9471 41.3066ZM9.89181 40.946L10.1896 39.4533L9.63266 39.3422L9.33487 40.8349L9.03708 42.3277L9.59402 42.4388L9.89181 40.946ZM9.33487 40.8349L9.63266 39.3422L9.07572 39.2311L8.77793 40.7238L8.48014 42.2166L9.03708 42.3277L9.33487 40.8349ZM8.77793 40.7238L9.07572 39.2311C8.76305 39.1687 8.43526 39.0841 8.09196 38.9756L7.63346 40.4271L7.17496 41.8786C7.61503 42.0176 8.05023 42.1308 8.48014 42.2166L8.77793 40.7238ZM7.63346 40.4271L8.09196 38.9756L7.50443 38.7901L7.04593 40.2415L6.58743 41.693L7.17496 41.8786L7.63346 40.4271ZM7.04593 40.2415L7.50443 38.7901L6.91689 38.6045L6.4584 40.0559L5.9999 41.5074L6.58743 41.693L7.04593 40.2415ZM6.4584 40.0559L6.91689 38.6045C6.74801 38.5511 6.61627 38.4707 6.50159 38.3587L5.43815 39.4478L4.37471 40.5369C4.83698 40.9883 5.3854 41.3133 5.9999 41.5074L6.4584 40.0559ZM5.43815 39.4478L6.50159 38.3587L6.06887 37.9362L5.00543 39.0253L3.94199 40.1144L4.37471 40.5369L5.43815 39.4478ZM5.00543 39.0253L6.06887 37.9362L5.63615 37.5137L4.57271 38.6027L3.50928 39.6918L3.94199 40.1144L5.00543 39.0253ZM4.57271 38.6027L5.63615 37.5137C5.59734 37.4758 5.56671 37.4336 5.55028 37.3247L4.04516 37.5519L2.54004 37.7791C2.65005 38.5079 2.97113 39.1663 3.50928 39.6918L4.57271 38.6027ZM4.04516 37.5519L5.55028 37.3247L5.45544 36.6964L3.95032 36.9236L2.44521 37.1508L2.54004 37.7791L4.04516 37.5519ZM3.95032 36.9236L5.45544 36.6964L5.36061 36.0681L3.85549 36.2953L2.35037 36.5225L2.44521 37.1508L3.95032 36.9236ZM3.85549 36.2953L5.36061 36.0681C5.29901 35.66 5.24569 35.2767 5.20049 34.9178L3.69025 35.108L2.18002 35.2982C2.22869 35.6846 2.28552 36.0928 2.35037 36.5225L3.85549 36.2953ZM3.69025 35.108L5.20049 34.9178L5.13009 34.3587L3.61985 34.5489L2.10961 34.7391L2.18002 35.2982L3.69025 35.108ZM3.61985 34.5489L5.13009 34.3587L5.05968 33.7997L3.54945 33.9899L2.03921 34.1801L2.10961 34.7391L3.61985 34.5489ZM3.54945 33.9899L5.05968 33.7997C4.98088 33.1739 4.75247 32.5968 4.40574 32.0792L3.14112 32.9264L1.8765 33.7736C1.98034 33.9286 2.02415 34.0605 2.03921 34.1801L3.54945 33.9899ZM3.14112 32.9264L4.40574 32.0792L4.06781 31.5748L2.80319 32.422L1.53857 33.2692L1.8765 33.7736L3.14112 32.9264ZM2.80319 32.422L4.06781 31.5748L3.72988 31.0704L2.46527 31.9176L1.20065 32.7648L1.53857 33.2692L2.80319 32.422ZM2.46527 31.9176L3.72988 31.0704C3.70324 31.0306 3.69801 31.0106 3.69739 31.0082C3.69681 31.006 3.69645 31.0041 3.69623 31.0013C3.69601 30.9984 3.6957 30.9917 3.69679 30.9801L2.18127 30.838L0.665752 30.6959C0.595335 31.4469 0.791125 32.1535 1.20065 32.7648L2.46527 31.9176ZM2.18127 30.838L3.69679 30.9801L3.75072 30.4049L2.2352 30.2628L0.719681 30.1207L0.665752 30.6959L2.18127 30.838ZM2.2352 30.2628L3.75072 30.4049L3.80465 29.8298L2.28913 29.6877L0.77361 29.5456L0.719681 30.1207L2.2352 30.2628ZM2.28913 29.6877L3.80465 29.8298C3.83569 29.4987 3.88393 29.1684 3.94952 28.8387L2.4566 28.5417L0.963688 28.2448C0.877882 28.6761 0.814473 29.1098 0.77361 29.5456L2.28913 29.6877ZM2.4566 28.5417L3.94952 28.8387L4.06306 28.2679L2.57015 27.9709L1.07723 27.6739L0.963688 28.2448L2.4566 28.5417ZM2.57015 27.9709L4.06306 28.2679L4.17661 27.6971L2.6837 27.4001L1.19078 27.1031L1.07723 27.6739L2.57015 27.9709ZM2.6837 27.4001L4.17661 27.6971C4.2678 27.2387 4.32236 26.7776 4.33948 26.3147L2.81835 26.2585L1.29722 26.2022C1.2862 26.5004 1.25099 26.8004 1.19078 27.1031L2.6837 27.4001ZM2.81835 26.2585L4.33948 26.3147L4.36058 25.7439L2.83946 25.6877L1.31833 25.6314L1.29722 26.2022L2.81835 26.2585ZM2.83946 25.6877L4.36058 25.7439L4.38169 25.1731L2.86057 25.1169L1.33944 25.0606L1.31833 25.6314L2.83946 25.6877ZM2.86057 25.1169L4.38169 25.1731C4.40828 24.454 4.2011 23.7867 3.84923 23.1961L2.54157 23.9752L1.23392 24.7544C1.33552 24.9249 1.34099 25.0186 1.33944 25.0606L2.86057 25.1169ZM2.54157 23.9752L3.84923 23.1961L3.50912 22.6253L2.20147 23.4044L0.893822 24.1835L1.23392 24.7544L2.54157 23.9752ZM2.20147 23.4044L3.50912 22.6253L3.16902 22.0545L1.86137 22.8336L0.553721 23.6127L0.893822 24.1835L2.20147 23.4044ZM1.86137 22.8336L3.16902 22.0545C3.05962 21.8709 3.04406 21.7571 3.04414 21.6938L1.52197 21.692L-0.000192102 21.6901C-0.00104785 22.3879 0.209661 23.0353 0.553721 23.6127L1.86137 22.8336ZM1.52197 21.692L3.04414 21.6938L3.04484 21.123L1.52267 21.1212L0.000508077 21.1193L-0.000192102 21.6901L1.52197 21.692ZM1.52267 21.1212L3.04484 21.123L3.04554 20.5522L1.52337 20.5504L0.00120801 20.5485L0.000508077 21.1193L1.52267 21.1212ZM1.52337 20.5504L3.04554 20.5522C3.04591 20.2442 3.0682 19.9353 3.11275 19.6251L1.60604 19.4087L0.0993333 19.1924C0.0345889 19.6432 0.00176375 20.0954 0.00120801 20.5485L1.52337 20.5504ZM1.60604 19.4087L3.11275 19.6251L3.19472 19.0543L1.68801 18.8379L0.181303 18.6216L0.0993333 19.1924L1.60604 19.4087ZM1.68801 18.8379L3.19472 19.0543L3.27669 18.4835L1.76998 18.2671L0.263274 18.0507L0.181303 18.6216L1.68801 18.8379ZM1.76998 18.2671L3.27669 18.4835C3.32792 18.1267 3.38781 17.7697 3.45639 17.4124L1.96151 17.1255L0.466632 16.8386C0.389133 17.2423 0.321337 17.6464 0.263274 18.0507L1.76998 18.2671ZM1.96151 17.1255L3.45639 17.4124L3.56595 16.8416L2.07107 16.5547L0.576191 16.2678L0.466632 16.8386L1.96151 17.1255ZM2.07107 16.5547L3.56595 16.8416L3.67551 16.2708L2.18063 15.9839L0.685749 15.6969L0.576191 16.2678L2.07107 16.5547ZM2.18063 15.9839L3.67551 16.2708C3.73469 15.9625 3.81639 15.6569 3.92115 15.3537L2.48244 14.8566L1.04373 14.3595C0.892154 14.7982 0.772649 15.2442 0.685749 15.6969L2.18063 15.9839ZM2.48244 14.8566L3.92115 15.3537L4.11341 14.7972L2.67469 14.3002L1.23598 13.8031L1.04373 14.3595L2.48244 14.8566ZM2.67469 14.3002L4.11341 14.7972L4.30566 14.2408L2.86695 13.7437L1.42823 13.2466L1.23598 13.8031L2.67469 14.3002ZM2.86695 13.7437L4.30566 14.2408C4.53963 13.5636 4.54904 12.8642 4.36235 12.186L2.89478 12.59L1.42721 12.994C1.45974 13.1122 1.4506 13.1819 1.42823 13.2466L2.86695 13.7437ZM2.89478 12.59L4.36235 12.186L4.19792 11.5887L2.73035 11.9927L1.26278 12.3967L1.42721 12.994L2.89478 12.59ZM2.73035 11.9927L4.19792 11.5887L4.03349 10.9914L2.56592 11.3955L1.09835 11.7995L1.26278 12.3967L2.73035 11.9927ZM2.56592 11.3955L4.03349 10.9914C4.02668 10.9667 4.03562 10.985 4.02923 11.0313C4.02628 11.0528 4.02091 11.0733 4.01424 11.0912C4.00767 11.1087 4.00171 11.1186 4.00054 11.1204L2.7162 10.3034L1.43187 9.48646C0.976918 10.2017 0.881884 11.0131 1.09835 11.7995L2.56592 11.3955ZM2.7162 10.3034L4.00054 11.1204L4.31525 10.6257L3.03091 9.80871L1.74657 8.99173L1.43187 9.48646L2.7162 10.3034ZM3.03091 9.80871L4.31525 10.6257L4.62996 10.131L3.34562 9.31398L2.06128 8.49699L1.74657 8.99173L3.03091 9.80871ZM3.34562 9.31398L4.62996 10.131C4.92395 9.66879 5.14265 9.16916 5.28732 8.63847L3.81875 8.23812L2.35017 7.83777C2.28362 8.08191 2.18689 8.29952 2.06128 8.49699L3.34562 9.31398ZM3.81875 8.23812L5.28732 8.63847L5.44574 8.05735L3.97717 7.657L2.50859 7.25665L2.35017 7.83777L3.81875 8.23812ZM3.97717 7.657L5.44574 8.05735L5.60416 7.47623L4.13559 7.07588L2.66701 6.67553L2.50859 7.25665L3.97717 7.657ZM4.13559 7.07588L5.60416 7.47623C5.59672 7.50352 5.56985 7.57006 5.50666 7.63631C5.4462 7.6997 5.39831 7.71479 5.41332 7.70938L4.89726 6.27736L4.3812 4.84534C3.54794 5.14563 2.91271 5.77425 2.66701 6.67553L4.13559 7.07588ZM4.89726 6.27736L5.41332 7.70938L6.01657 7.49198L5.50051 6.05997L4.98446 4.62795L4.3812 4.84534L4.89726 6.27736ZM5.50051 6.05997L6.01657 7.49198L6.61982 7.27459L6.10377 5.84257L5.58771 4.41055L4.98446 4.62795L5.50051 6.05997ZM6.10377 5.84257L6.61982 7.27459C7.21846 7.05886 7.76486 6.72395 8.20556 6.24222L7.08245 5.21479L5.95934 4.18735C5.89947 4.25281 5.79341 4.33643 5.58771 4.41055L6.10377 5.84257ZM7.08245 5.21479L8.20556 6.24222L8.58099 5.83183L7.45788 4.80439L6.33477 3.77696L5.95934 4.18735L7.08245 5.21479ZM7.45788 4.80439L8.58099 5.83183L8.95642 5.42144L7.83331 4.394L6.7102 3.36657L6.33477 3.77696L7.45788 4.80439ZM7.83331 4.394L8.95642 5.42144C9.09442 5.27058 9.25172 5.14652 9.43399 5.04588L8.69824 3.71334L7.96248 2.3808C7.49209 2.64053 7.07277 2.97024 6.7102 3.36657L7.83331 4.394ZM8.69824 3.71334L9.43399 5.04588L9.92349 4.7756L9.18773 3.44307L8.45198 2.11053L7.96248 2.3808L8.69824 3.71334ZM9.18773 3.44307L9.92349 4.7756L10.413 4.50533L9.67723 3.17279L8.94148 1.84026L8.45198 2.11053L9.18773 3.44307ZM9.67723 3.17279L10.413 4.50533C10.7744 4.30578 11.1386 4.08599 11.5057 3.84673L10.6745 2.57156L9.84326 1.29638C9.53331 1.49841 9.23273 1.67944 8.94148 1.84026L9.67723 3.17279ZM10.6745 2.57156L11.5057 3.84673L12.0134 3.51577L11.1822 2.24059L10.351 0.965415L9.84326 1.29638L10.6745 2.57156ZM11.1822 2.24059L12.0134 3.51577L12.5212 3.1848L11.6899 1.90963L10.8587 0.634451L10.351 0.965415L11.1822 2.24059ZM11.6899 1.90963L12.5212 3.1848C12.5388 3.17331 12.5242 3.18631 12.4821 3.19388C12.4629 3.19733 12.4444 3.19842 12.4287 3.19783C12.4131 3.19726 12.405 3.19527 12.4058 3.19546L12.7646 1.71619L13.1235 0.236923C12.3201 0.0420524 11.5334 0.194673 10.8587 0.634451L11.6899 1.90963ZM12.7646 1.71619L12.4058 3.19546L12.9728 3.33298L13.3316 1.85372L13.6904 0.37445L13.1235 0.236923L12.7646 1.71619ZM13.3316 1.85372L12.9728 3.33298L13.5397 3.47051L13.8986 1.99124L14.2574 0.511977L13.6904 0.37445L13.3316 1.85372ZM13.8986 1.99124L13.5397 3.47051C13.7377 3.51852 13.9344 3.56209 14.1001 3.58671C14.1666 3.59659 14.318 3.61796 14.4901 3.61118C14.556 3.60858 14.782 3.59897 15.0407 3.4915C15.3212 3.37497 15.9877 2.96034 15.9877 2.07548H14.4655H12.9434C12.9434 1.70584 13.0782 1.35861 13.3073 1.09117C13.5115 0.8527 13.7396 0.73541 13.8727 0.680135C14.1195 0.577577 14.3278 0.570882 14.3701 0.569215C14.4949 0.564294 14.5754 0.579581 14.5475 0.575427C14.5241 0.57196 14.4374 0.555653 14.2574 0.511977L13.8986 1.99124ZM14.4655 2.07548H15.9877V2.02218H14.4655H12.9434V2.07548H14.4655ZM14.4655 2.02218H15.9877V1.96889H14.4655H12.9434V2.02218H14.4655ZM14.4655 1.96889H15.9877C15.9877 2.3182 15.8688 2.5923 15.7586 2.76873C15.6523 2.93872 15.5349 3.05078 15.4623 3.11266C15.3229 3.2316 15.1969 3.29296 15.1594 3.31093C15.0703 3.35368 15.0116 3.3684 15.036 3.36125C15.065 3.35276 15.1547 3.33027 15.3341 3.29447L15.0363 1.80172L14.7385 0.308965C14.5375 0.349079 14.3417 0.392407 14.1804 0.439637C14.1097 0.460349 13.9797 0.50041 13.843 0.565969C13.7817 0.595349 13.6379 0.667483 13.4866 0.796574C13.3852 0.883015 12.9434 1.27582 12.9434 1.96889H14.4655ZM15.0363 1.80172L15.3341 3.29447L15.9049 3.18059L15.6071 1.68784L15.3094 0.195091L14.7385 0.308965L15.0363 1.80172Z" fill="#E6E6E6"/>
<path d="M24.7977 12.8188C25.3575 12.4535 26.1123 12.4891 26.637 12.9535C27.2662 13.5108 27.3249 14.4727 26.7678 15.102L26.4289 15.4855L26.1187 15.5876C25.9866 15.6659 25.817 15.7611 25.6549 15.8472L25.2823 16.0454L24.9097 16.2426C24.8523 16.2731 24.8214 16.3032 24.7977 16.3348L24.5529 16.6608L24.3091 16.9879C24.3026 16.9997 24.282 17.0441 24.2655 17.1425L24.1833 17.631L24.102 18.1196C23.9817 18.8368 23.5803 19.5288 22.8127 19.9093L22.4312 20.0986L22.0507 20.2869C21.9758 20.324 21.9318 20.362 21.901 20.3989L21.6414 20.71L21.3817 21.0202C21.1502 21.2974 20.896 21.5529 20.6187 21.7843L20.3075 22.0439L19.9963 22.3026C19.9324 22.356 19.8714 22.4044 19.816 22.4502L19.8249 22.4938L19.92 22.9695C19.9516 23.127 19.9946 23.2093 20.0201 23.248L20.2471 23.5909L20.4205 23.8535L20.7832 23.9833L21.2034 24.1329C21.5016 24.2392 21.7964 24.351 22.0863 24.4669L22.9009 24.7919C23.6981 25.1106 24.1737 25.7728 24.3319 26.5282L24.431 26.9999L24.437 27.0316L24.8839 27.1545C25.8857 27.428 26.392 28.2925 26.6509 28.9125L26.8837 29.4704C27.3121 30.0947 27.2183 30.9544 26.637 31.4692C26.0076 32.0264 25.0458 31.9677 24.4885 31.3384L24.4211 31.2631L24.2536 31.0738L24.1565 30.84L23.8414 30.0858C23.8302 30.0591 23.8175 30.0363 23.8077 30.0155L23.6343 29.9689L23.1854 29.846C22.8026 29.7414 22.4188 29.5385 22.1062 29.1989C21.7961 28.862 21.6284 28.4694 21.5502 28.0959L21.4204 27.4785L21.3639 27.4567L20.9556 27.2932C20.7022 27.1919 20.4441 27.0944 20.1817 27.0009L19.3403 26.7016C18.7772 26.5009 18.2829 26.1411 17.9341 25.6135L17.7071 25.2706L17.4802 24.9267C17.2031 24.5075 17.0306 24.044 16.9352 23.5681L16.7449 22.6177C16.7008 22.3977 16.6596 22.1125 16.6834 21.813C16.7046 21.5485 16.8021 20.9616 17.3395 20.5366L17.4822 20.4246L17.6239 20.3117C17.7016 20.2502 17.8398 20.1379 18.0461 19.9658L18.6684 19.4465C18.8057 19.332 18.9314 19.2061 19.046 19.069L19.3056 18.7588L19.5653 18.4476C19.8805 18.0702 20.2645 17.7746 20.698 17.5597L21.0795 17.3704L21.1449 17.3367L21.1806 17.1276L21.2628 16.639C21.349 16.1249 21.535 15.6129 21.8713 15.1635L22.1161 14.8374L22.3599 14.5114C22.6616 14.1081 23.0417 13.7884 23.4807 13.5551L24.2259 13.1587C24.3459 13.0949 24.4361 13.0462 24.4994 13.011C24.5265 12.996 24.5463 12.9856 24.5589 12.9783L24.7947 12.8198L24.7977 12.8188Z" fill="#919191"/>
</svg>
