<svg width="24" height="24" viewBox="0 0 24 24" fill="none" xmlns="http://www.w3.org/2000/svg">
<g transform="translate(2 1.596)">
<path d="M12.2822 5.02031L12.0117 5.31816C11.927 5.41191 11.7706 5.58147 11.584 5.69414C11.5286 5.72757 11.4296 5.78172 11.2979 5.81719C11.1694 5.85171 10.9226 5.8916 10.6445 5.78008C10.3671 5.6688 10.2121 5.48344 10.1221 5.30547C9.67829 5.2534 9.45511 5.26724 9.37988 5.28301L8.65039 5.43535C8.36181 5.49584 8.07578 5.5337 7.80371 5.53203L7.26367 5.52812C7.16509 5.52752 7.0513 5.52484 6.94824 5.5125C6.90594 5.50743 6.80304 5.49465 6.68848 5.45488C6.64064 5.43827 6.53409 5.39566 6.41699 5.31035L6.08301 5.24785C5.88071 5.20934 5.7321 5.19542 5.62891 5.19512C5.52155 5.19483 5.49791 5.2089 5.52441 5.19902L5.15918 5.33574L4.79395 5.47148C4.54548 5.56404 4.27417 5.60815 4 5.58379V6.4334L3.96973 6.41191C4.07619 6.68418 4.1641 6.95934 4.23145 7.23711L4.31934 7.60234L4.4082 7.9666C4.49511 8.32503 4.51748 8.69048 4.47168 9.05644L4.37988 9.78691C4.35446 9.9899 4.34126 10.1923 4.34082 10.3943V10.7596L4.33984 11.1248C4.33946 11.3122 4.35452 11.5006 4.38574 11.6902L4.44629 12.0555L4.50586 12.4197C4.55047 12.6906 4.58408 12.9624 4.60547 13.2342L4.66211 13.9637C4.69453 14.3756 4.62433 14.7764 4.46777 15.1531L4.31738 15.5145L4.2627 15.6453L4.28125 15.6658L4.50879 15.9119C4.55105 15.9575 4.59226 15.9835 4.6416 16.0008L4.95117 16.1092L5.26172 16.2166C5.46203 16.2866 5.68129 16.3616 5.91992 16.4402L6.64941 16.6805C6.71175 16.701 6.75738 16.7012 6.80957 16.6873L7.1748 16.5906L7.54004 16.493C7.82865 16.4162 8.11957 16.3608 8.41211 16.327L9.1416 16.243C9.55933 16.1947 9.96795 16.2558 10.3535 16.408L10.7188 16.5516L11.084 16.6961C11.188 16.7371 11.2697 16.7447 11.3418 16.7371L11.707 16.699L12.0723 16.66C12.2714 16.639 12.4739 16.6044 12.6797 16.5555L13.3838 16.3875L13.5469 16.1248L13.7363 15.8162C13.8532 15.6264 13.9727 15.4208 14.0947 15.199L14.2891 14.8465L14.4824 14.4939C14.5174 14.4303 14.5132 14.4068 14.5117 14.3963L14.4102 13.6658C14.3655 13.343 14.3606 13.0189 14.3945 12.6951L14.4707 11.9646C14.4968 11.7156 14.5251 11.4666 14.5557 11.2176L14.6455 10.4871C14.657 10.3935 14.649 10.2958 14.6133 10.1844L14.4961 9.81914L14.3799 9.45391C14.2698 9.11033 14.2147 8.75686 14.2227 8.39726L14.2314 8.03203L14.2393 7.6668C14.2465 7.34151 14.2936 7.01926 14.3779 6.70195L14.5576 6.02324C14.5565 6.01537 14.5555 6.00495 14.5527 5.99199C14.5367 5.91588 14.4966 5.79022 14.4111 5.60723L14.2363 5.23418L13.8955 5.11699C13.4581 4.96703 13.188 4.90133 13.0488 4.88359L12.4717 4.80937L12.2822 5.02031ZM7 7.4041C7.55228 7.4041 8 7.85182 8 8.4041V8.42656L8.0957 9.02812C8.18146 9.57008 8.18074 10.1844 7.8877 10.7137L7.5791 11.2713L7.72949 11.4939L7.97656 11.8582C8.08584 12.0197 8.20426 12.2255 8.27051 12.4578C8.33608 12.6881 8.38673 13.0885 8.13965 13.4764L8.04102 13.6316L7.99023 13.7107L7.92773 13.7762C7.78005 14.1441 7.42069 14.4041 7 14.4041C6.44772 14.4041 6 13.9564 6 13.4041V12.908L6.15723 12.7391L5.82617 12.2498C5.66417 12.0104 5.54203 11.7192 5.52148 11.3855C5.50072 11.0482 5.58814 10.7385 5.73438 10.4744L5.93652 10.1102L6.13184 9.75664C6.13376 9.74992 6.13839 9.73065 6.1416 9.69512C6.148 9.62404 6.14682 9.50933 6.12012 9.34062L6.0127 8.66094L6 8.58281V8.4041C6 7.85182 6.44772 7.4041 7 7.4041ZM11 7.4041C11.5143 7.4041 11.9373 7.79241 11.9932 8.2918L12.2031 8.80742C12.4082 9.31195 12.582 9.96722 12.3516 10.5809L12.0781 11.3104C12.0054 11.5041 11.9513 11.6945 11.915 11.8807L11.7725 12.6102C11.7696 12.6247 11.7677 12.6381 11.7656 12.6502L12 13.0018V13.4041C12 13.9564 11.5523 14.4041 11 14.4041C10.5352 14.4041 10.1453 14.0867 10.0332 13.657L10.0283 13.6492L9.98242 13.5809L9.94824 13.5057L9.87891 13.3504C9.77419 13.1184 9.75454 12.8904 9.75488 12.7293C9.75526 12.5587 9.7785 12.3879 9.80957 12.2283L9.95215 11.4979C10.0107 11.1973 10.0951 10.9001 10.2051 10.6072L10.3428 10.243L10.459 9.93144C10.4586 9.92746 10.4587 9.92287 10.458 9.91777C10.4494 9.85306 10.4213 9.73678 10.3496 9.56035L10.0732 8.88066L10 8.7V8.4041C10 7.85182 10.4477 7.4041 11 7.4041ZM8.94336 2.44121C8.69008 2.64929 8.42653 2.83898 8.15332 3.01055L7.79785 3.23418L7.7627 3.25566C7.76601 3.26568 7.76972 3.27621 7.77344 3.28691L7.85742 3.5291C7.94514 3.52602 8.07084 3.51383 8.24023 3.47832L8.60449 3.40215L8.96973 3.325C9.24891 3.26648 9.5696 3.26001 9.90723 3.28008L9.7666 3.07988C9.63512 2.8931 9.48611 2.69307 9.31836 2.48027L9.15137 2.26933L8.94336 2.44121ZM4.20996 3.55449L4.46094 3.46172L4.82617 3.325C5.10625 3.22069 5.4111 3.18878 5.7168 3.19707C5.70901 3.09536 5.70827 2.99234 5.7168 2.88945C5.75078 2.48001 5.93948 2.03902 6.37988 1.7625L6.73438 1.53984L7.08984 1.31719C7.28947 1.19183 7.48424 1.05107 7.67383 0.895311L8.00586 0.62285L8.33789 0.349413L8.42969 0.2791C8.65891 0.114942 8.98962 -0.0360175 9.39551 0.007616C9.80179 0.0513802 10.0932 0.269693 10.2822 0.479296L10.3564 0.567186L10.623 0.905077L10.8887 1.24297C11.0755 1.47995 11.2473 1.70825 11.4023 1.92851L11.832 2.53984C11.8977 2.63314 11.9588 2.72983 12.0166 2.82793C12.1241 2.80615 12.2349 2.79162 12.3496 2.7918L12.5713 2.80644L12.9365 2.85332L13.3008 2.89922C13.6482 2.94345 14.075 3.06461 14.5439 3.22539L15.0674 3.4041H15.4434L15.7148 3.61504L16.0332 3.86308C16.0666 3.80122 16.1185 3.71 16.1797 3.62969C16.2002 3.60273 16.2435 3.54877 16.3057 3.49101C16.3326 3.46592 16.5205 3.28332 16.832 3.23223C17.0279 3.20011 17.2763 3.22057 17.5117 3.36211C17.7319 3.4945 17.8469 3.67659 17.9033 3.79668C18.0016 4.00613 18 4.19417 18 4.23223V4.66387L17.9463 4.72441C17.8778 4.92692 17.7465 5.09958 17.5752 5.22051C17.3706 5.59752 17.0106 5.86722 16.5537 5.9207C16.5651 6.10824 16.5548 6.29829 16.5049 6.48613L16.4072 6.85137L16.3105 7.21562C16.2655 7.38495 16.2419 7.55038 16.2383 7.71172L16.2227 8.44121C16.2198 8.56801 16.2384 8.70073 16.2842 8.84355L16.4014 9.20879L16.5176 9.57402C16.6378 9.94914 16.6791 10.3382 16.6309 10.7312L16.541 11.4607C16.5119 11.6982 16.4848 11.9362 16.46 12.1736L16.4219 12.5379L16.3828 12.9031C16.3658 13.0659 16.369 13.2287 16.3916 13.3924L16.4424 13.7566L16.4922 14.1219C16.558 14.5979 16.4581 15.0526 16.2354 15.4578L16.041 15.8104L15.8477 16.1629C15.7115 16.4103 15.5753 16.6444 15.4395 16.865L15.25 17.1736L15.0596 17.4812C14.7866 17.9244 14.3708 18.2094 13.8809 18.326L13.1426 18.5018C12.8561 18.5699 12.5687 18.6189 12.2812 18.6492L11.916 18.6873L11.5518 18.7264C11.1373 18.77 10.7321 18.7074 10.3496 18.5564L9.98438 18.4119L9.61914 18.2684C9.51821 18.2285 9.4399 18.2213 9.37109 18.2293L8.6416 18.3133C8.44762 18.3357 8.25162 18.3729 8.05371 18.4256L7.68848 18.5232L7.32422 18.6199C6.88976 18.7355 6.44776 18.7198 6.02344 18.5799L5.29395 18.3396C5.04593 18.2579 4.81469 18.1797 4.60156 18.1053L3.98145 17.8885C3.61749 17.7613 3.30035 17.5508 3.04004 17.2693L2.58594 16.7781C2.38272 16.5583 2.23676 16.278 2.19531 15.951C2.15539 15.6352 2.22177 15.3464 2.32031 15.1092L2.4707 14.7469L2.62012 14.3855C2.66393 14.2801 2.67483 14.1956 2.66895 14.1209L2.63965 13.7557L2.61133 13.3914C2.59441 13.1765 2.56776 12.9607 2.53223 12.7449L2.47266 12.3797L2.41211 12.0154C2.36322 11.7186 2.33924 11.42 2.33984 11.1209L2.34082 10.7557V10.3904C2.34142 10.1059 2.35998 9.82144 2.39551 9.53789L2.4873 8.8084C2.5024 8.68789 2.49587 8.56632 2.46484 8.43828L2.37598 8.07305L2.28809 7.70781C2.24067 7.5123 2.17693 7.31366 2.09668 7.11211L1.80566 6.38262C1.6974 6.11071 1.62545 5.81906 1.61621 5.51641C1.55757 5.48205 1.50208 5.4451 1.45117 5.4041H1C0.447715 5.4041 0 4.95639 0 4.4041C0 4.35053 0.00556099 4.29816 0.0136719 4.24687L0 4.2V3.88555C0 3.76893 0.0105117 3.50432 0.167969 3.24199C0.257362 3.09319 0.397229 2.94057 0.599609 2.83672C0.750169 2.75954 0.90094 2.72661 1.03516 2.71953L1.16406 2.72051L1.26367 2.72734L1.36426 2.7332C1.76446 2.75896 2.02745 2.9992 2.10059 3.06621C2.18198 3.14081 2.2546 3.22492 2.32031 3.30644C2.3731 3.25643 2.43286 3.2073 2.50391 3.16484C2.86181 2.95106 3.20863 3.02644 3.30664 3.05058C3.53818 3.10767 3.73432 3.23625 3.82617 3.29766L4.0957 3.47832L4.20996 3.55449Z" fill="#1A1A1A"/>
</g>
</svg>
