<svg width="16" height="16" viewBox="0 0 16 16" fill="none" xmlns="http://www.w3.org/2000/svg">
<path fill-rule="evenodd" clip-rule="evenodd" d="M2.86201 2.86201C3.12236 2.60166 3.54447 2.60166 3.80482 2.86201L8.00008 7.05727L12.1953 2.86201C12.4557 2.60166 12.8778 2.60166 13.1382 2.86201C13.3985 3.12236 13.3985 3.54447 13.1382 3.80482L8.94289 8.00008L13.1382 12.1953C13.3985 12.4557 13.3985 12.8778 13.1382 13.1382C12.8778 13.3985 12.4557 13.3985 12.1953 13.1382L8.00008 8.94289L3.80482 13.1382C3.54447 13.3985 3.12236 13.3985 2.86201 13.1382C2.60166 12.8778 2.60166 12.4557 2.86201 12.1953L7.05727 8.00008L2.86201 3.80482C2.60166 3.54447 2.60166 3.12236 2.86201 2.86201Z" fill="#1A1A1A"/>
</svg>
