<svg width="24" height="24" viewBox="0 0 24 24" fill="none" xmlns="http://www.w3.org/2000/svg">
<circle cx="5.5" cy="12" r="1.5" fill="#1A1A1A"/>
<path d="M6.89463 12.557L7.38591 12.65L6.89463 12.557ZM6.69495 12.8301L6.92956 13.2717L6.69495 12.8301ZM6.53039 12.9176L6.29578 12.476L6.53039 12.9176ZM6.36583 13.005L6.13122 12.5635L6.36583 13.005ZM6.04769 13.1243L5.94623 12.6347L6.04769 13.1243ZM5.74052 13.1879L5.84198 13.6775L5.74052 13.1879ZM5.24792 13.2558L5.19497 12.7587L5.24792 13.2558ZM5.07841 13.2739L5.13135 13.7711L5.07841 13.2739ZM4.76929 13.1837L4.46284 13.5787L4.76929 13.1837ZM4.62969 13.0754L4.93615 12.6803L4.62969 13.0754ZM4.49009 12.9671L4.79655 12.572L4.49009 12.9671ZM4.30667 12.5178L3.81075 12.5816L4.30667 12.5178ZM4.17463 11.9838L3.71985 12.1916L4.17463 11.9838ZM3.99821 11.5977L3.54343 11.8055L3.99821 11.5977ZM4.56523 10.6357L4.45191 10.1487L4.56523 10.6357ZM5.35766 10.5271L5.26803 11.019L5.35766 10.5271ZM6.73567 11.0098L6.24722 11.1166L6.73567 11.0098ZM6.82209 11.4048L7.31053 11.2979L6.82209 11.4048ZM6.82428 11.7017L7.28651 11.8923L6.82428 11.7017ZM6.74225 11.9006L7.20448 12.0912V12.0912L6.74225 11.9006ZM6.96488 12.1857L6.47359 12.0927L6.96488 12.1857ZM6.92975 12.3713L6.43847 12.2784L6.40334 12.4641L6.89463 12.557L7.38591 12.65L7.42104 12.4643L6.92975 12.3713ZM6.89463 12.557L6.40334 12.4641C6.40383 12.4615 6.40801 12.4442 6.42352 12.423C6.43917 12.4016 6.45538 12.3912 6.46034 12.3886L6.69495 12.8301L6.92956 13.2717C7.17548 13.141 7.33475 12.9204 7.38591 12.65L6.89463 12.557ZM6.69495 12.8301L6.46034 12.3886L6.29578 12.476L6.53039 12.9176L6.765 13.3591L6.92956 13.2717L6.69495 12.8301ZM6.53039 12.9176L6.29578 12.476L6.13122 12.5635L6.36583 13.005L6.60044 13.4465L6.765 13.3591L6.53039 12.9176ZM6.36583 13.005L6.13122 12.5635C6.05577 12.6035 5.99442 12.6247 5.94623 12.6347L6.04769 13.1243L6.14914 13.6139C6.30573 13.5814 6.45648 13.523 6.60044 13.4465L6.36583 13.005ZM6.04769 13.1243L5.94623 12.6347L5.79265 12.6665L5.89411 13.1561L5.99556 13.6457L6.14914 13.6139L6.04769 13.1243ZM5.89411 13.1561L5.79265 12.6665L5.63907 12.6983L5.74052 13.1879L5.84198 13.6775L5.99556 13.6457L5.89411 13.1561ZM5.74052 13.1879L5.63907 12.6983C5.55403 12.7159 5.46259 12.7302 5.36448 12.7406L5.41743 13.2378L5.47038 13.735C5.59828 13.7214 5.72225 13.7023 5.84198 13.6775L5.74052 13.1879ZM5.41743 13.2378L5.36448 12.7406L5.19497 12.7587L5.24792 13.2558L5.30086 13.753L5.47038 13.735L5.41743 13.2378ZM5.24792 13.2558L5.19497 12.7587L5.02546 12.7767L5.07841 13.2739L5.13135 13.7711L5.30086 13.753L5.24792 13.2558ZM5.07841 13.2739L5.02546 12.7767C5.02995 12.7762 5.04176 12.7761 5.05649 12.7804C5.07087 12.7846 5.0775 12.7899 5.07575 12.7886L4.76929 13.1837L4.46284 13.5787C4.65388 13.7269 4.88475 13.7973 5.13135 13.7711L5.07841 13.2739ZM4.76929 13.1837L5.07575 12.7886L4.93615 12.6803L4.62969 13.0754L4.32324 13.4704L4.46284 13.5787L4.76929 13.1837ZM4.62969 13.0754L4.93615 12.6803L4.79655 12.572L4.49009 12.9671L4.18364 13.3622L4.32324 13.4704L4.62969 13.0754ZM4.49009 12.9671L4.79655 12.572C4.79605 12.5716 4.80412 12.578 4.81255 12.5926C4.82112 12.6074 4.82391 12.62 4.8245 12.6246L4.32858 12.6883L3.83266 12.7521C3.86465 13.0009 3.98935 13.2114 4.18364 13.3622L4.49009 12.9671ZM4.32858 12.6883L4.8245 12.6246L4.80259 12.4541L4.30667 12.5178L3.81075 12.5816L3.83266 12.7521L4.32858 12.6883ZM4.30667 12.5178L4.80259 12.4541L4.78067 12.2836L4.28475 12.3474L3.78883 12.4111L3.81075 12.5816L4.30667 12.5178ZM4.28475 12.3474L4.78067 12.2836C4.75836 12.1101 4.70439 11.9401 4.62941 11.776L4.17463 11.9838L3.71985 12.1916C3.76248 12.2849 3.78192 12.3574 3.78883 12.4111L4.28475 12.3474ZM4.17463 11.9838L4.62941 11.776L4.5412 11.583L4.08642 11.7907L3.63164 11.9985L3.71985 12.1916L4.17463 11.9838ZM4.08642 11.7907L4.5412 11.583L4.45299 11.3899L3.99821 11.5977L3.54343 11.8055L3.63164 11.9985L4.08642 11.7907ZM3.99821 11.5977L4.45299 11.3899C4.45282 11.3895 4.45508 11.3944 4.45701 11.4041C4.45899 11.414 4.46015 11.4267 4.4592 11.4409C4.45826 11.4551 4.45545 11.4674 4.45224 11.4768C4.44912 11.4859 4.44636 11.4902 4.44674 11.4896L4.023 11.2242L3.59926 10.9588C3.43499 11.221 3.41451 11.5233 3.54343 11.8055L3.99821 11.5977ZM4.023 11.2242L4.44674 11.4896L4.55974 11.3092L4.136 11.0438L3.71226 10.7784L3.59926 10.9588L4.023 11.2242ZM4.136 11.0438L4.55974 11.3092L4.67274 11.1288L4.249 10.8634L3.82527 10.598L3.71226 10.7784L4.136 11.0438ZM4.249 10.8634L4.67274 11.1288C4.67624 11.1232 4.67845 11.1207 4.67886 11.1203C4.67921 11.1199 4.67848 11.1208 4.67673 11.122C4.67496 11.1233 4.67348 11.124 4.6729 11.1243C4.6724 11.1245 4.674 11.1237 4.67855 11.1227L4.56523 10.6357L4.45191 10.1487C4.18485 10.2108 3.96914 10.3683 3.82527 10.598L4.249 10.8634ZM4.56523 10.6357L4.67855 11.1227L4.88178 11.0754L4.76845 10.5884L4.65513 10.1014L4.45191 10.1487L4.56523 10.6357ZM4.76845 10.5884L4.88178 11.0754L5.085 11.0281L4.97168 10.5411L4.85836 10.0541L4.65513 10.1014L4.76845 10.5884ZM4.97168 10.5411L5.085 11.0281C5.16209 11.0102 5.22129 11.0105 5.26803 11.019L5.35766 10.5271L5.44729 10.0352C5.25035 9.99933 5.05223 10.009 4.85836 10.0541L4.97168 10.5411ZM5.35766 10.5271L5.26803 11.019L5.45078 11.0523L5.54042 10.5604L5.63005 10.0685L5.44729 10.0352L5.35766 10.5271ZM5.54042 10.5604L5.45078 11.0523L5.63354 11.0856L5.72317 10.5937L5.81281 10.1018L5.63005 10.0685L5.54042 10.5604ZM5.72317 10.5937L5.63354 11.0856C5.74631 11.1062 5.86442 11.1309 5.98793 11.16L6.10256 10.6733L6.2172 10.1867C6.07853 10.154 5.94371 10.1257 5.81281 10.1018L5.72317 10.5937ZM6.10256 10.6733L5.98793 11.16L6.18456 11.2063L6.2992 10.7197L6.41383 10.233L6.2172 10.1867L6.10256 10.6733ZM6.2992 10.7197L6.18456 11.2063L6.38119 11.2527L6.49583 10.766L6.61046 10.2793L6.41383 10.233L6.2992 10.7197ZM6.49583 10.766L6.38119 11.2527C6.3718 11.2504 6.33504 11.2387 6.29766 11.2007C6.26031 11.1627 6.24924 11.1259 6.24722 11.1166L6.73567 11.0098L7.22411 10.9029C7.19329 10.762 7.12785 10.6187 7.01054 10.4994C6.89322 10.3802 6.75094 10.3124 6.61046 10.2793L6.49583 10.766ZM6.73567 11.0098L6.24722 11.1166L6.29043 11.3141L6.77888 11.2073L7.26732 11.1004L7.22411 10.9029L6.73567 11.0098ZM6.77888 11.2073L6.29043 11.3141L6.33364 11.5116L6.82209 11.4048L7.31053 11.2979L7.26732 11.1004L6.77888 11.2073ZM6.82209 11.4048L6.33364 11.5116C6.33819 11.5324 6.34091 11.5487 6.34248 11.5609C6.34405 11.5732 6.34424 11.5798 6.34425 11.5814C6.34427 11.5832 6.34407 11.5776 6.34588 11.5663C6.3477 11.555 6.35195 11.5355 6.36205 11.511L6.82428 11.7017L7.28651 11.8923C7.37418 11.6798 7.34474 11.4542 7.31053 11.2979L6.82209 11.4048ZM6.82428 11.7017L6.36205 11.511L6.32104 11.6105L6.78327 11.8011L7.24549 11.9918L7.28651 11.8923L6.82428 11.7017ZM6.78327 11.8011L6.32104 11.6105L6.28002 11.7099L6.74225 11.9006L7.20448 12.0912L7.24549 11.9918L6.78327 11.8011ZM6.74225 11.9006L6.28002 11.7099C6.26095 11.7562 6.18796 11.9329 6.25658 12.1355C6.29942 12.262 6.38791 12.3684 6.50715 12.4331C6.61295 12.4906 6.71403 12.5 6.77593 12.5V12V11.5C6.81293 11.5 6.89393 11.5052 6.98448 11.5544C7.08846 11.6109 7.16652 11.7048 7.20374 11.8148C7.23608 11.9102 7.22822 11.989 7.22253 12.0241C7.21641 12.0618 7.20668 12.0859 7.20448 12.0912L6.74225 11.9006ZM6.77593 12V12.5H6.85062V12V11.5H6.77593V12ZM6.85062 12V12.5H6.92531V12V11.5H6.85062V12ZM6.92531 12V12.5C6.82489 12.5 6.70322 12.4644 6.60534 12.3682C6.51909 12.2835 6.49222 12.1914 6.48353 12.1506C6.46843 12.0798 6.48275 12.0443 6.47359 12.0927L6.96488 12.1857L7.45616 12.2786C7.47041 12.2033 7.48986 12.075 7.46157 11.9422C7.44628 11.8705 7.40824 11.7552 7.30624 11.655C7.19262 11.5433 7.05063 11.5 6.92531 11.5V12ZM6.96488 12.1857L6.47359 12.0927L6.43847 12.2784L6.92975 12.3713L7.42104 12.4643L7.45616 12.2786L6.96488 12.1857Z" fill="#1A1A1A"/>
<circle cx="12" cy="12" r="1.5" fill="#1A1A1A"/>
<path d="M13.4116 12.3614L12.9259 12.2427L13.4116 12.3614ZM13.3674 12.5421L13.8531 12.6609L13.3674 12.5421ZM13.2185 12.8942L13.6451 13.1549L13.2185 12.8942ZM13.1138 13.0655L13.5404 13.3262L13.1138 13.0655ZM13.0091 13.2368L12.5825 12.976L13.0091 13.2368ZM12.71 13.5039L12.4889 13.0554L12.71 13.5039ZM12.3213 13.6955L12.1002 13.2471L12.3213 13.6955ZM11.9451 13.6717L12.2198 13.254L11.9451 13.6717ZM11.5812 13.4325L11.3065 13.8502L11.5812 13.4325ZM11.2383 13.2171L10.9828 13.647L11.2383 13.2171ZM10.9163 13.0257L11.1718 12.5959L10.9163 13.0257ZM10.7182 12.7473L10.2282 12.8466L10.7182 12.7473ZM10.8914 11.0017L10.4941 10.6982L10.8914 11.0017ZM12.5682 10.6731L12.8749 10.2782L12.5682 10.6731ZM12.8544 10.8953L13.1611 10.5004L12.8544 10.8953ZM13.6782 11.8968L13.296 12.2192L13.6782 11.8968ZM13.4558 12.1807L13.9415 12.2995L13.4558 12.1807ZM13.4116 12.3614L12.9259 12.2427L12.8817 12.4234L13.3674 12.5421L13.8531 12.6609L13.8973 12.4802L13.4116 12.3614ZM13.3674 12.5421L12.8817 12.4234C12.8655 12.4899 12.837 12.5597 12.7919 12.6334L13.2185 12.8942L13.6451 13.1549C13.7397 13.0002 13.8105 12.8353 13.8531 12.6609L13.3674 12.5421ZM13.2185 12.8942L12.7919 12.6334L12.6872 12.8047L13.1138 13.0655L13.5404 13.3262L13.6451 13.1549L13.2185 12.8942ZM13.1138 13.0655L12.6872 12.8047L12.5825 12.976L13.0091 13.2368L13.4357 13.4975L13.5404 13.3262L13.1138 13.0655ZM13.0091 13.2368L12.5825 12.976C12.566 13.003 12.5406 13.03 12.4889 13.0554L12.71 13.5039L12.9311 13.9524C13.1386 13.8501 13.3126 13.6989 13.4357 13.4975L13.0091 13.2368ZM12.71 13.5039L12.4889 13.0554L12.2946 13.1513L12.5157 13.5997L12.7368 14.0482L12.9311 13.9524L12.71 13.5039ZM12.5157 13.5997L12.2946 13.1513L12.1002 13.2471L12.3213 13.6955L12.5424 14.144L12.7368 14.0482L12.5157 13.5997ZM12.3213 13.6955L12.1002 13.2471C12.1002 13.2471 12.1017 13.2464 12.1047 13.2453C12.1077 13.2442 12.1121 13.2429 12.1178 13.2416C12.1296 13.239 12.1447 13.2374 12.1616 13.2385C12.1786 13.2396 12.1931 13.243 12.2042 13.247C12.215 13.2508 12.2202 13.2542 12.2198 13.254L11.9451 13.6717L11.6703 14.0895C11.9389 14.2661 12.2529 14.2868 12.5424 14.144L12.3213 13.6955ZM11.9451 13.6717L12.2198 13.254L12.0379 13.1343L11.7631 13.5521L11.4884 13.9699L11.6703 14.0895L11.9451 13.6717ZM11.7631 13.5521L12.0379 13.1343L11.856 13.0147L11.5812 13.4325L11.3065 13.8502L11.4884 13.9699L11.7631 13.5521ZM11.5812 13.4325L11.856 13.0147C11.7293 12.9314 11.6086 12.8556 11.4938 12.7873L11.2383 13.2171L10.9828 13.647C11.0827 13.7063 11.1906 13.774 11.3065 13.8502L11.5812 13.4325ZM11.2383 13.2171L11.4938 12.7873L11.3328 12.6916L11.0773 13.1214L10.8218 13.5513L10.9828 13.647L11.2383 13.2171ZM11.0773 13.1214L11.3328 12.6916L11.1718 12.5959L10.9163 13.0257L10.6608 13.4556L10.8218 13.5513L11.0773 13.1214ZM10.9163 13.0257L11.1718 12.5959C11.1714 12.5957 11.1742 12.5974 11.1787 12.6014C11.1833 12.6056 11.1886 12.6113 11.1937 12.6185C11.1988 12.6256 11.2025 12.6326 11.205 12.6386C11.2062 12.6414 11.2071 12.6437 11.2076 12.6454C11.2081 12.647 11.2082 12.6479 11.2082 12.6479L10.7182 12.7473L10.2282 12.8466C10.2811 13.1075 10.4328 13.32 10.6608 13.4556L10.9163 13.0257ZM10.7182 12.7473L11.2082 12.6479L11.1712 12.4651L10.6811 12.5645L10.1911 12.6639L10.2282 12.8466L10.7182 12.7473ZM10.6811 12.5645L11.1712 12.4651L11.1341 12.2823L10.6441 12.3817L10.154 12.4811L10.1911 12.6639L10.6811 12.5645ZM10.6441 12.3817L11.1341 12.2823C11.1133 12.1796 11.0985 12.076 11.0898 11.9714L10.5915 12.013L10.0932 12.0545C10.1052 12.1979 10.1255 12.3401 10.154 12.4811L10.6441 12.3817ZM10.5915 12.013L11.0898 11.9714L11.0743 11.7855L10.576 11.8271L10.0777 11.8686L10.0932 12.0545L10.5915 12.013ZM10.576 11.8271L11.0743 11.7855L11.0588 11.5996L10.5605 11.6411L10.0622 11.6827L10.0777 11.8686L10.576 11.8271ZM10.5605 11.6411L11.0588 11.5996C11.0586 11.5971 11.0587 11.597 11.0586 11.5987C11.0584 11.6005 11.058 11.6031 11.0571 11.606C11.0562 11.6089 11.0553 11.6109 11.055 11.6116C11.0546 11.6123 11.0552 11.6109 11.0578 11.6076L10.6605 11.304L10.2631 11.0005C10.1125 11.1977 10.0414 11.4325 10.0622 11.6827L10.5605 11.6411ZM10.6605 11.304L11.0578 11.6076L11.1733 11.4564L10.7759 11.1529L10.3786 10.8493L10.2631 11.0005L10.6605 11.304ZM10.7759 11.1529L11.1733 11.4564L11.2887 11.3052L10.8914 11.0017L10.4941 10.6982L10.3786 10.8493L10.7759 11.1529ZM10.8914 11.0017L11.2887 11.3052C11.3251 11.2576 11.3682 11.2198 11.4211 11.1895L11.1727 10.7556L10.9242 10.3217C10.7561 10.418 10.6117 10.5442 10.4941 10.6982L10.8914 11.0017ZM11.1727 10.7556L11.4211 11.1895L11.5869 11.0946L11.3384 10.6607L11.09 10.2268L10.9242 10.3217L11.1727 10.7556ZM11.3384 10.6607L11.5869 11.0946L11.7527 10.9997L11.5042 10.5658L11.2558 10.1319L11.09 10.2268L11.3384 10.6607ZM11.5042 10.5658L11.7527 10.9997C11.7702 10.9896 11.7804 10.9878 11.7989 10.9901L11.8588 10.4937L11.9187 9.99725C11.6854 9.96912 11.4592 10.0154 11.2558 10.1319L11.5042 10.5658ZM11.8588 10.4937L11.7989 10.9901L11.9877 11.0128L12.0476 10.5164L12.1074 10.02L11.9187 9.99725L11.8588 10.4937ZM12.0476 10.5164L11.9877 11.0128L12.1765 11.0356L12.2363 10.5392L12.2962 10.0428L12.1074 10.02L12.0476 10.5164ZM12.2363 10.5392L12.1765 11.0356C12.217 11.0405 12.2413 11.0523 12.2616 11.068L12.5682 10.6731L12.8749 10.2782C12.7043 10.1457 12.5074 10.0683 12.2962 10.0428L12.2363 10.5392ZM12.5682 10.6731L12.2616 11.068L12.4047 11.1791L12.7113 10.7842L13.018 10.3893L12.8749 10.2782L12.5682 10.6731ZM12.7113 10.7842L12.4047 11.1791L12.5478 11.2902L12.8544 10.8953L13.1611 10.5004L13.018 10.3893L12.7113 10.7842ZM12.8544 10.8953L12.5478 11.2902C12.6061 11.3355 12.6553 11.3866 12.6971 11.4444L13.1024 11.1516L13.5078 10.8589C13.4097 10.723 13.2936 10.6033 13.1611 10.5004L12.8544 10.8953ZM13.1024 11.1516L12.6971 11.4444L12.8019 11.5895L13.2073 11.2968L13.6126 11.0041L13.5078 10.8589L13.1024 11.1516ZM13.2073 11.2968L12.8019 11.5895L12.9068 11.7347L13.3121 11.442L13.7175 11.1493L13.6126 11.0041L13.2073 11.2968ZM13.3121 11.442L12.9068 11.7347C12.9818 11.8387 13.0536 11.9319 13.1219 12.0128L13.504 11.6904L13.8862 11.368C13.8384 11.3113 13.7822 11.239 13.7175 11.1493L13.3121 11.442ZM13.504 11.6904L13.1219 12.0128L13.2089 12.116L13.5911 11.7936L13.9733 11.4712L13.8862 11.368L13.504 11.6904ZM13.5911 11.7936L13.2089 12.116L13.296 12.2192L13.6782 11.8968L14.0603 11.5744L13.9733 11.4712L13.5911 11.7936ZM13.6782 11.8968L13.296 12.2192C13.3019 12.2262 13.2975 12.2219 13.2889 12.2083C13.285 12.202 13.2526 12.1521 13.2367 12.0728C13.2187 11.9832 13.2133 11.7831 13.3834 11.6261C13.519 11.501 13.6698 11.5 13.6989 11.5V12V12.5C13.7501 12.5 13.9166 12.4947 14.0615 12.361C14.241 12.1954 14.2385 11.9824 14.2171 11.8756C14.1976 11.7791 14.1555 11.7077 14.1352 11.6756C14.1105 11.6362 14.0835 11.6018 14.0603 11.5744L13.6782 11.8968ZM13.6989 12V11.5H13.6326V12V12.5H13.6989V12ZM13.6326 12V11.5H13.5663V12V12.5H13.6326V12ZM13.5663 12V11.5C13.2835 11.5 13.1314 11.6986 13.0789 11.7844C13.0206 11.8797 12.9893 11.9834 12.9701 12.062L13.4558 12.1807L13.9415 12.2995C13.9518 12.2575 13.9536 12.2709 13.9321 12.306C13.9165 12.3315 13.8049 12.5 13.5663 12.5V12ZM13.4558 12.1807L12.9701 12.062L12.9259 12.2427L13.4116 12.3614L13.8973 12.4802L13.9415 12.2995L13.4558 12.1807Z" fill="#1A1A1A"/>
<circle cx="18.5" cy="12" r="1.5" fill="#1A1A1A"/>
<path d="M20.0246 12.6281L20.5242 12.6086L20.0246 12.6281ZM19.8496 12.9397L19.606 12.503L19.8496 12.9397ZM19.1312 13.3732L18.8307 12.9736L19.1312 13.3732ZM18.7933 13.6273L19.0938 14.0269L18.7933 13.6273ZM18.4377 13.6558L18.2044 14.0981L18.4377 13.6558ZM18.0642 13.4589L18.2975 13.0166L18.0642 13.4589ZM17.6807 13.2837L17.8624 12.8178L17.6807 13.2837ZM17.2871 13.1302L17.1055 13.5961L17.2871 13.1302ZM17.1094 12.8377L16.6113 12.7938L17.1094 12.8377ZM17.1475 12.4063L16.6494 12.3623L17.1475 12.4063ZM17.2175 12.0372L16.743 11.8794L17.2175 12.0372ZM17.4237 10.9754L16.9256 10.9314L17.4237 10.9754ZM18.031 10.7477L18.0539 11.2472L18.031 10.7477ZM18.3855 10.7503L18.349 11.2489L18.3855 10.7503ZM19.0182 10.841L18.852 11.3125L19.0182 10.841ZM19.336 10.953L19.1698 11.4246L19.336 10.953ZM19.578 11.1601L19.1399 11.401L19.578 11.1601ZM19.7441 11.4622L20.1823 11.2214L19.7441 11.4622ZM19.8496 11.71L20.3367 11.5968L19.8496 11.71ZM19.8946 11.9033L19.4075 12.0165L19.8946 11.9033ZM20.0082 12.2094L20.5078 12.1899L20.0082 12.2094ZM20.0164 12.4188L19.5168 12.4383L19.5249 12.6477L20.0246 12.6281L20.5242 12.6086L20.516 12.3992L20.0164 12.4188ZM20.0246 12.6281L19.5249 12.6477C19.5247 12.6413 19.5256 12.6075 19.549 12.5659C19.5723 12.5242 19.6007 12.506 19.606 12.503L19.8496 12.9397L20.0932 13.3763C20.2206 13.3053 20.3392 13.201 20.4209 13.0556C20.5026 12.91 20.5299 12.7545 20.5242 12.6086L20.0246 12.6281ZM19.8496 12.9397L19.606 12.503L19.4229 12.6052L19.6665 13.0418L19.91 13.4785L20.0932 13.3763L19.8496 12.9397ZM19.6665 13.0418L19.4229 12.6052L19.2397 12.7073L19.4833 13.144L19.7269 13.5806L19.91 13.4785L19.6665 13.0418ZM19.4833 13.144L19.2397 12.7073C19.0977 12.7865 18.9613 12.8753 18.8307 12.9736L19.1312 13.3732L19.4317 13.7728C19.5264 13.7016 19.6247 13.6376 19.7269 13.5806L19.4833 13.144ZM19.1312 13.3732L18.8307 12.9736L18.6618 13.1006L18.9623 13.5002L19.2628 13.8998L19.4317 13.7728L19.1312 13.3732ZM18.9623 13.5002L18.6618 13.1006L18.4928 13.2277L18.7933 13.6273L19.0938 14.0269L19.2628 13.8998L18.9623 13.5002ZM18.7933 13.6273L18.4928 13.2277C18.498 13.2237 18.5285 13.2037 18.5799 13.1996C18.6314 13.1954 18.6648 13.2104 18.6709 13.2136L18.4377 13.6558L18.2044 14.0981C18.335 14.167 18.4899 14.21 18.66 14.1963C18.8299 14.1827 18.976 14.1155 19.0938 14.0269L18.7933 13.6273ZM18.4377 13.6558L18.6709 13.2136L18.4842 13.1151L18.2509 13.5574L18.0177 13.9996L18.2044 14.0981L18.4377 13.6558ZM18.2509 13.5574L18.4842 13.1151L18.2975 13.0166L18.0642 13.4589L17.831 13.9011L18.0177 13.9996L18.2509 13.5574ZM18.0642 13.4589L18.2975 13.0166C18.1563 12.9421 18.0112 12.8758 17.8624 12.8178L17.6807 13.2837L17.4991 13.7495C17.6127 13.7938 17.7233 13.8443 17.831 13.9011L18.0642 13.4589ZM17.6807 13.2837L17.8624 12.8178L17.6656 12.7411L17.4839 13.2069L17.3023 13.6728L17.4991 13.7495L17.6807 13.2837ZM17.4839 13.2069L17.6656 12.7411L17.4688 12.6644L17.2871 13.1302L17.1055 13.5961L17.3023 13.6728L17.4839 13.2069ZM17.2871 13.1302L17.4688 12.6644C17.481 12.6691 17.5319 12.6937 17.5716 12.759C17.6105 12.8231 17.608 12.8759 17.6074 12.8817L17.1094 12.8377L16.6113 12.7938C16.5981 12.9434 16.6189 13.1169 16.717 13.2784C16.816 13.4412 16.9621 13.5401 17.1055 13.5961L17.2871 13.1302ZM17.1094 12.8377L17.6074 12.8817L17.6265 12.666L17.1284 12.622L16.6304 12.578L16.6113 12.7938L17.1094 12.8377ZM17.1284 12.622L17.6265 12.666L17.6455 12.4502L17.1475 12.4063L16.6494 12.3623L16.6304 12.578L17.1284 12.622ZM17.1475 12.4063L17.6455 12.4502C17.6559 12.3329 17.6736 12.2502 17.6919 12.195L17.2175 12.0372L16.743 11.8794C16.6934 12.0286 16.6644 12.1919 16.6494 12.3623L17.1475 12.4063ZM17.2175 12.0372L17.6919 12.195L17.7429 12.0416L17.2685 11.8838L16.794 11.726L16.743 11.8794L17.2175 12.0372ZM17.2685 11.8838L17.7429 12.0416L17.7939 11.8883L17.3195 11.7305L16.845 11.5727L16.794 11.726L17.2685 11.8838ZM17.3195 11.7305L17.7939 11.8883C17.8428 11.7414 17.8718 11.5839 17.8863 11.4205L17.3882 11.3765L16.8902 11.3325C16.881 11.4366 16.8642 11.515 16.845 11.5727L17.3195 11.7305ZM17.3882 11.3765L17.8863 11.4205L17.904 11.22L17.4059 11.176L16.9079 11.1319L16.8902 11.3325L17.3882 11.3765ZM17.4059 11.176L17.904 11.22L17.9217 11.0194L17.4237 10.9754L16.9256 10.9314L16.9079 11.1319L17.4059 11.176ZM17.4237 10.9754L17.9217 11.0194C17.9208 11.0302 17.9108 11.1067 17.8357 11.1801C17.7592 11.255 17.6788 11.2644 17.6608 11.2652L17.6379 10.7658L17.615 10.2663C17.466 10.2731 17.2844 10.3205 17.1365 10.4653C16.99 10.6085 16.9384 10.7868 16.9256 10.9314L17.4237 10.9754ZM17.6379 10.7658L17.6608 11.2652L17.8574 11.2562L17.8345 10.7568L17.8115 10.2573L17.615 10.2663L17.6379 10.7658ZM17.8345 10.7568L17.8574 11.2562L18.0539 11.2472L18.031 10.7477L18.0081 10.2483L17.8115 10.2573L17.8345 10.7568ZM18.031 10.7477L18.0539 11.2472C18.1696 11.2419 18.2675 11.243 18.349 11.2489L18.3855 10.7503L18.422 10.2516C18.2928 10.2422 18.1544 10.2415 18.0081 10.2483L18.031 10.7477ZM18.3855 10.7503L18.349 11.2489L18.5069 11.2605L18.5434 10.7618L18.5799 10.2632L18.422 10.2516L18.3855 10.7503ZM18.5434 10.7618L18.5069 11.2605L18.6649 11.2721L18.7014 10.7734L18.7379 10.2747L18.5799 10.2632L18.5434 10.7618ZM18.7014 10.7734L18.6649 11.2721C18.7232 11.2763 18.7852 11.289 18.852 11.3125L19.0182 10.841L19.1844 10.3694C19.0393 10.3183 18.8901 10.2859 18.7379 10.2747L18.7014 10.7734ZM19.0182 10.841L18.852 11.3125L19.0109 11.3685L19.1771 10.897L19.3434 10.4254L19.1844 10.3694L19.0182 10.841ZM19.1771 10.897L19.0109 11.3685L19.1698 11.4246L19.336 10.953L19.5023 10.4814L19.3434 10.4254L19.1771 10.897ZM19.336 10.953L19.1698 11.4246C19.168 11.4239 19.1601 11.4205 19.1509 11.4126C19.1418 11.4049 19.1388 11.399 19.1399 11.401L19.578 11.1601L20.0162 10.9192C19.9031 10.7135 19.727 10.5607 19.5023 10.4814L19.336 10.953ZM19.578 11.1601L19.1399 11.401L19.2229 11.5521L19.6611 11.3112L20.0992 11.0703L20.0162 10.9192L19.578 11.1601ZM19.6611 11.3112L19.2229 11.5521L19.306 11.7031L19.7441 11.4622L20.1823 11.2214L20.0992 11.0703L19.6611 11.3112ZM19.7441 11.4622L19.306 11.7031C19.3277 11.7427 19.3425 11.7732 19.352 11.7956C19.3619 11.8189 19.3636 11.8272 19.3626 11.8232L19.8496 11.71L20.3367 11.5968C20.3064 11.4667 20.246 11.3374 20.1823 11.2214L19.7441 11.4622ZM19.8496 11.71L19.3626 11.8232L19.3851 11.9198L19.8721 11.8067L20.3591 11.6935L20.3367 11.5968L19.8496 11.71ZM19.8721 11.8067L19.3851 11.9198L19.4075 12.0165L19.8946 11.9033L20.3816 11.7902L20.3591 11.6935L19.8721 11.8067ZM19.8946 11.9033L19.4075 12.0165C19.4172 12.0579 19.4331 12.1193 19.4601 12.1799C19.4727 12.2081 19.5004 12.2655 19.5512 12.3235C19.5978 12.3766 19.7268 12.5 19.9378 12.5V12V11.5C20.1419 11.5 20.2638 11.6194 20.3034 11.6645C20.3471 11.7144 20.3677 11.7597 20.3731 11.7718C20.3857 11.8001 20.3869 11.8132 20.3816 11.7902L19.8946 11.9033ZM19.9378 12V12.5H19.9585V12V11.5H19.9378V12ZM19.9585 12V12.5H19.9793V12V11.5H19.9585V12ZM19.9793 12V12.5C19.7479 12.5 19.6192 12.351 19.5809 12.2988C19.5381 12.2404 19.5201 12.1877 19.5149 12.1725C19.5026 12.1359 19.5003 12.1117 19.5016 12.1208C19.5029 12.1305 19.506 12.1629 19.5086 12.2289L20.0082 12.2094L20.5078 12.1899C20.5049 12.1163 20.5005 12.044 20.4922 11.9839C20.4886 11.9581 20.4809 11.9077 20.4628 11.8537C20.4547 11.8297 20.4335 11.7705 20.3876 11.7078C20.3461 11.6512 20.2141 11.5 19.9793 11.5V12ZM20.0082 12.2094L19.5086 12.2289L19.5168 12.4383L20.0164 12.4188L20.516 12.3992L20.5078 12.1899L20.0082 12.2094Z" fill="#1A1A1A"/>
<path d="M4.85798 10.0539C5.0518 10.0088 5.24996 9.99946 5.44684 10.0353L5.81208 10.1017C5.94285 10.1256 6.07785 10.1541 6.21638 10.1867L6.41364 10.2336L6.60993 10.2795C6.75037 10.3126 6.89302 10.38 7.01032 10.4992C7.09823 10.5886 7.157 10.6918 7.19391 10.7971L7.22321 10.9035L7.26716 11.1008L7.31013 11.298C7.33349 11.4048 7.35141 11.5435 7.33454 11.6887C7.41409 11.7806 7.44782 11.8784 7.46149 11.9426C7.48968 12.0751 7.46987 12.2032 7.45563 12.2785L7.38532 12.6506C7.33408 12.9208 7.17495 13.1411 6.92927 13.2717L6.76423 13.3596L6.60016 13.4465C6.45626 13.5229 6.30551 13.582 6.14899 13.6144L5.9947 13.6457L5.84138 13.6779C5.7218 13.7027 5.59801 13.7219 5.47028 13.7355L5.30036 13.7531L5.13141 13.7717C4.8849 13.7979 4.65347 13.7274 4.46247 13.5793L4.18317 13.3625C3.98889 13.2118 3.86457 13.001 3.83259 12.7521L3.81013 12.5822L3.78864 12.4113C3.78173 12.3576 3.76194 12.2849 3.7193 12.1916L3.63141 11.9982L3.54255 11.8058C3.41363 11.5237 3.43492 11.2214 3.59919 10.9592L3.71149 10.7785L3.82477 10.5978C3.96865 10.3682 4.18475 10.2107 4.45173 10.1486L4.65485 10.1017L4.85798 10.0539Z" fill="#1A1A1A"/>
<path d="M11.9185 9.99725L12.107 10.0207L12.2955 10.0431C12.5066 10.0686 12.704 10.1461 12.8746 10.2785L13.0172 10.3898L13.1607 10.5002C13.2933 10.6031 13.4093 10.7237 13.5074 10.8596L13.6119 11.0041L13.7174 11.1496C13.782 11.2391 13.8376 11.3117 13.8853 11.3683L14.0601 11.5744C14.0832 11.6018 14.1096 11.6366 14.1343 11.676C14.1546 11.7081 14.197 11.7796 14.2164 11.8762C14.2378 11.983 14.2404 12.1961 14.0611 12.3615C14.0092 12.4094 13.9531 12.4376 13.9019 12.4582L13.897 12.4806L13.8531 12.6613C13.8104 12.8357 13.7397 13.0008 13.6451 13.1554L13.5396 13.3263L13.4351 13.4972C13.312 13.6986 13.1377 13.85 12.9302 13.9523L12.5416 14.1437C12.2521 14.2864 11.938 14.2666 11.6695 14.09L11.4879 13.9699L11.3062 13.8508C11.1903 13.7745 11.0819 13.706 10.982 13.6467L10.8218 13.551L10.6607 13.4553C10.4327 13.3197 10.281 13.1077 10.2281 12.8469L10.1539 12.4816C10.1253 12.3407 10.1043 12.1982 10.0924 12.0549L10.0777 11.8683L10.0621 11.6828C10.0412 11.4326 10.1116 11.1974 10.2623 11.0002L10.3785 10.8498L10.4937 10.6984C10.6113 10.5445 10.7554 10.4177 10.9234 10.3215L11.2554 10.132C11.4588 10.0156 11.6854 9.96912 11.9185 9.99725Z" fill="#1A1A1A"/>
<path d="M18.5797 10.2629L18.4215 10.2521C18.2923 10.2427 18.1537 10.2415 18.0074 10.2482L17.8111 10.257L17.6148 10.2668C17.4659 10.2736 17.2842 10.3205 17.1363 10.465C17.0265 10.5724 16.9697 10.6998 16.9429 10.8176L16.9254 10.9318L16.8902 11.3322C16.881 11.4361 16.8634 11.5148 16.8443 11.5724L16.7427 11.8791C16.6931 12.0283 16.664 12.1921 16.649 12.3625L16.6295 12.5783L16.6109 12.7941C16.5977 12.9437 16.6183 13.1171 16.7164 13.2785C16.8153 13.4412 16.9617 13.54 17.105 13.5959L17.3023 13.673L17.4986 13.7492C17.6122 13.7935 17.7229 13.8447 17.8306 13.9015L18.0172 14.0002L18.2037 14.0978C18.3342 14.1667 18.4897 14.2101 18.6597 14.1965C18.8295 14.1828 18.9756 14.116 19.0933 14.0275L19.2623 13.8996L19.4312 13.7726C19.5257 13.7016 19.6242 13.6381 19.7261 13.5812L19.9097 13.4787L20.0924 13.3762C20.2198 13.3051 20.3388 13.2013 20.4205 13.0558C20.5022 12.9103 20.5297 12.7545 20.524 12.6086L20.5152 12.3996L20.5074 12.1896C20.5045 12.1164 20.5 12.0444 20.4918 11.9846C20.4882 11.9588 20.4806 11.9077 20.4625 11.8537C20.4544 11.8297 20.4331 11.7707 20.3873 11.7082C20.3794 11.6975 20.3675 11.6839 20.3531 11.6681L20.3365 11.5969C20.3063 11.4669 20.2459 11.3377 20.1822 11.2219L20.0162 10.9191L19.9703 10.8449C19.8578 10.6768 19.6982 10.551 19.5015 10.4816L19.3433 10.426L19.1841 10.3693C19.0392 10.3182 18.89 10.2858 18.7379 10.2746L18.5797 10.2629Z" fill="#1A1A1A"/>
</svg>
