<svg width="16" height="16" viewBox="0 0 16 16" fill="none" xmlns="http://www.w3.org/2000/svg">
<path d="M8.20868 2.80094C8.14033 2.74855 7.99454 2.65988 7.78886 2.66745C7.56827 2.67561 7.41607 2.78857 7.33556 2.87679C7.216 3.00783 7.18628 3.15588 7.18177 3.17836C7.17172 3.22553 7.168 3.26715 7.16627 3.29244C7.16262 3.34562 7.16298 3.40206 7.1644 3.45203L7.17929 3.96841C7.18163 4.05053 7.16614 4.10455 7.14642 4.14377L6.93558 4.56246C6.89197 4.64901 6.83406 4.73313 6.75947 4.81488L6.59328 4.99752L6.42647 5.17956C6.31221 5.30478 6.20021 5.43122 6.08974 5.5582L5.92851 5.74327L5.7679 5.92834C5.66257 6.04943 5.5837 6.18316 5.5304 6.32579C5.48014 6.22875 5.42377 6.13484 5.36048 6.04485L5.09011 5.66014C5.01106 5.54771 4.93744 5.43195 4.86935 5.31306L4.63619 4.90651C4.59611 4.83652 4.56541 4.75377 4.54751 4.65347L4.45945 4.16015C4.41394 3.90497 4.31319 3.66683 4.15126 3.4581L4.00615 3.27181L3.86166 3.08492L3.78787 2.99875C3.69938 2.90523 3.56604 2.79813 3.37983 2.74936C3.07234 2.66885 2.81127 2.78981 2.65181 2.93504L2.52469 3.05033L2.39819 3.16562C2.22823 3.32042 2.13694 3.52694 2.12967 3.74511C2.1232 3.9406 2.18436 4.11195 2.2475 4.23964L2.36284 4.47265L2.47508 4.69838L2.39136 4.915L2.30207 5.14801C2.20562 5.39872 2.17379 5.66339 2.21773 5.93138L2.25618 6.16438L2.29401 6.39739C2.30718 6.4777 2.30576 6.55735 2.28842 6.6395L2.23882 6.87251L2.18983 7.10552C2.1294 7.39187 2.1644 7.67513 2.27788 7.93864L2.37834 8.17165L2.47818 8.40466C2.51904 8.49956 2.53833 8.585 2.54267 8.66315L2.56872 9.12916C2.56922 9.13861 2.56972 9.17052 2.52841 9.23657L2.23695 9.70258C2.08844 9.93991 1.99711 10.2085 2.00007 10.4993L2.00503 10.9653C2.00673 11.1295 2.01161 11.2939 2.02053 11.458L2.03356 11.691L2.04596 11.924C2.05587 12.1064 2.07823 12.2884 2.11231 12.4695L2.15634 12.7026L2.19975 12.9356L2.20181 12.9465C2.2152 13.0176 2.22518 13.0707 2.23137 13.1067C2.23176 13.1089 2.2321 13.1121 2.23241 13.1151C2.23269 13.1177 2.23296 13.1202 2.23323 13.1218C2.23336 13.4262 2.43961 13.5969 2.54329 13.6583C2.63996 13.7154 2.72929 13.7335 2.76095 13.7396C2.83491 13.7536 2.90057 13.7532 2.92901 13.7529C2.99884 13.7522 3.07979 13.7451 3.15659 13.7365L3.37301 13.7129L3.59005 13.6886C3.76205 13.6695 3.93829 13.6385 4.11839 13.597L4.35651 13.5417L4.59464 13.4871C4.72226 13.4577 4.84886 13.4384 4.97415 13.4289L5.21228 13.4107L5.4504 13.3931C5.53741 13.3865 5.62642 13.3939 5.71953 13.4174L6.19578 13.5375C6.43491 13.5978 6.67928 13.6114 6.9238 13.5757L7.16192 13.5411L7.40005 13.5059C7.52533 13.4877 7.65043 13.4794 7.7746 13.4811L8.01273 13.4847L8.25085 13.4877C8.28603 13.4883 8.34016 13.4978 8.41952 13.5424L8.65765 13.6758L8.89577 13.81C9.15809 13.9573 9.45725 14.0309 9.77448 13.9883L10.0126 13.9562L10.2507 13.9246C10.407 13.9037 10.5633 13.8831 10.7195 13.864L11.1958 13.8057C11.4222 13.7779 11.6419 13.7152 11.8531 13.6225L12.0912 13.5175L12.3294 13.4131C12.372 13.3944 12.3998 13.3862 12.4143 13.3828L12.5545 13.4016L12.7207 13.4234C12.9369 13.452 13.2419 13.4015 13.4425 13.1297C13.5962 12.9212 13.601 12.6883 13.5956 12.5691L13.5746 12.103C13.5699 11.9998 13.5784 11.8956 13.6006 11.7893L13.649 11.5563L13.698 11.3233C13.7453 11.0971 13.7519 10.8677 13.7166 10.6395L13.6806 10.4065L13.644 10.1735C13.6377 10.1324 13.641 10.0869 13.6651 10.0266L13.8511 9.56059C13.9434 9.32946 13.9873 9.08656 13.9745 8.8373L13.951 8.37128C13.9395 8.14892 13.8918 7.93147 13.8121 7.7208L13.7234 7.48779L13.6353 7.25479C13.5997 7.16083 13.584 7.07457 13.5826 6.99387L13.5783 6.76086L13.5746 6.52785C13.5738 6.48211 13.5836 6.42396 13.6223 6.34703L13.8567 5.88101C13.9952 5.60574 14.04 5.30049 13.9615 4.99085L13.9026 4.75784L13.8431 4.52483C13.8093 4.39151 13.784 4.25865 13.7662 4.12678L13.7029 3.66076C13.6859 3.53513 13.647 3.37102 13.5442 3.21902C13.4275 3.04657 13.2408 2.91101 13.0003 2.87376L12.7182 2.83007L12.6214 2.82036C12.2144 2.80127 11.9685 3.07828 11.8494 3.2712L11.8035 3.35251L11.6962 3.56186L11.5896 3.77059C11.5202 3.90626 11.4494 4.0411 11.3775 4.17532L11.2671 4.38224L11.1561 4.58855C11.1037 4.68635 11.0409 4.77875 10.9663 4.86585L10.8113 5.04728L10.6563 5.2281C10.4718 5.44362 10.3623 5.6971 10.3227 5.97021L10.2507 6.46899C10.2483 6.48579 10.2427 6.49508 10.2427 6.49508C10.2416 6.49644 10.2388 6.49944 10.234 6.50358L10.1602 6.56729L10.1521 6.55334L10.0349 6.34945C10.0058 6.29877 9.98524 6.23777 9.97912 6.1571L9.95989 5.90832L9.94129 5.65953C9.91963 5.37305 9.81644 5.10656 9.62937 4.87981L9.47496 4.69292L9.32117 4.50602C9.21587 4.37844 9.10895 4.25167 9.00057 4.12557L8.84182 3.9411L8.68307 3.75603C8.62391 3.68716 8.59692 3.63236 8.58447 3.5922L8.52246 3.39378L8.46107 3.19475L8.43565 3.1189C8.42419 3.08841 8.40809 3.05197 8.39039 3.01824C8.37867 2.99559 8.32348 2.88894 8.20868 2.80094Z" fill="#454545"/>
</svg>
