<svg width="16" height="16" viewBox="0 0 16 16" fill="none" xmlns="http://www.w3.org/2000/svg">
<path fill-rule="evenodd" clip-rule="evenodd" d="M7.99998 13.3333C10.9455 13.3333 13.3333 10.9454 13.3333 7.99992C13.3333 5.0544 10.9455 2.66659 7.99998 2.66659C5.05446 2.66659 2.66665 5.0544 2.66665 7.99992C2.66665 10.9454 5.05446 13.3333 7.99998 13.3333ZM7.99998 14.6666C11.6819 14.6666 14.6666 11.6818 14.6666 7.99992C14.6666 4.31802 11.6819 1.33325 7.99998 1.33325C4.31808 1.33325 1.33331 4.31802 1.33331 7.99992C1.33331 11.6818 4.31808 14.6666 7.99998 14.6666ZM7.99998 9.33325C8.36817 9.33325 8.66665 9.03478 8.66665 8.66659V5.33325C8.66665 4.96506 8.36817 4.66659 7.99998 4.66659C7.63179 4.66659 7.33331 4.96506 7.33331 5.33325V8.66659C7.33331 9.03478 7.63179 9.33325 7.99998 9.33325ZM7.99998 9.99992C8.36817 9.99992 8.66665 10.2984 8.66665 10.6666C8.66665 11.0348 8.36817 11.3333 7.99998 11.3333C7.63179 11.3333 7.33331 11.0348 7.33331 10.6666C7.33331 10.2984 7.63179 9.99992 7.99998 9.99992Z" fill="#DD0303"/>
</svg>
