<svg width="315" height="317" viewBox="0 0 315 317" fill="none" xmlns="http://www.w3.org/2000/svg"><path d="M42.1538 18.2693L41.9915 27.7771L42.1538 18.2693ZM55.2005 18.4921L55.3628 8.98424L55.2005 18.4921ZM55.733 18.5458L57.4608 9.19488L57.4607 9.19488L55.733 18.5458ZM68.7796 20.9564L67.0519 30.3074L67.0519 30.3074L68.7796 20.9564ZM81.8263 23.3671L83.554 14.0161L83.554 14.0161L81.8263 23.3671ZM82.3588 23.3246L85.4527 32.3164L85.4527 32.3164L82.3588 23.3246ZM95.4054 18.8355L92.3115 9.84367V9.84367L95.4054 18.8355ZM108.452 14.3463L111.546 23.3381L111.546 23.3381L108.452 14.3463ZM108.985 14.2908L110.263 4.86789L110.263 4.86789L108.985 14.2908ZM122.031 16.0605L120.753 25.4834V25.4834L122.031 16.0605ZM135.078 17.8301L136.356 8.40716L136.356 8.40716L135.078 17.8301ZM135.61 17.8371L136.643 27.2901L136.643 27.2901L135.61 17.8371ZM148.657 16.4124L147.625 6.95943V6.95943L148.657 16.4124ZM161.704 14.9878L162.736 24.4408L162.736 24.4408L161.704 14.9878ZM162.236 14.9515L162.494 24.4572V24.4572L162.236 14.9515ZM175.283 14.5973L175.025 5.09163L175.283 14.5973ZM188.329 14.2432L188.587 23.7489V23.7489L188.329 14.2432ZM188.862 14.2788L190.372 4.89022L190.372 4.89022L188.862 14.2788ZM201.909 16.3769L200.399 25.7655V25.7655L201.909 16.3769ZM214.955 18.4749L216.465 9.08636L216.465 9.08636L214.955 18.4749ZM215.488 18.5082L215.828 28.0114V28.0114L215.488 18.5082ZM228.534 18.041L228.194 8.53792V8.53792L228.534 18.041ZM241.581 17.5739L241.921 27.077H241.921L241.581 17.5739ZM242.114 17.4832L244.884 26.5799L244.884 26.5799L242.114 17.4832ZM255.16 13.5096L252.39 4.41294V4.41294L255.16 13.5096ZM268.207 9.53596L270.977 18.6326L270.977 18.6326L268.207 9.53596ZM268.694 9.61262L274.224 1.8769L274.224 1.87684L268.694 9.61262ZM279.507 17.3427L273.976 25.0784V25.0784L279.507 17.3427ZM290.319 25.0727L295.85 17.3371L295.85 17.337L290.319 25.0727ZM290.602 25.4481L299.747 22.8413L299.747 22.8411L290.602 25.4481ZM293.642 36.1126L284.497 38.7194V38.7194L293.642 36.1126ZM296.682 46.777L305.827 44.1703L305.827 44.1701L296.682 46.777ZM296.832 47.2609L305.865 44.2888L305.865 44.2887L296.832 47.2609ZM301.125 60.3075L292.092 63.2795V63.2796L301.125 60.3075ZM305.417 73.3541L314.45 70.3822L314.45 70.3821L305.417 73.3541ZM305.488 73.8867L314.979 74.481V74.4808L305.488 73.8867ZM304.671 86.9333L295.181 86.3389V86.3389L304.671 86.9333ZM303.854 99.9799L313.345 100.574L313.345 100.574L303.854 99.9799ZM303.739 100.512L312.658 103.811L312.658 103.811L303.739 100.512ZM298.914 113.559L289.995 110.261V110.261L298.914 113.559ZM294.089 126.606L303.007 129.904L303.008 129.904L294.089 126.606ZM293.957 127.138L303.394 128.311L303.394 128.311L293.957 127.138ZM292.336 140.185L282.899 139.012V139.012L292.336 140.185ZM290.715 153.232L300.151 154.404L300.151 154.404L290.715 153.232ZM290.727 153.764L300.103 152.177L300.103 152.177L290.727 153.764ZM292.934 166.811L283.559 168.397V168.397L292.934 166.811ZM295.142 179.857L304.518 178.271L304.518 178.271L295.142 179.857ZM295.157 180.39L304.607 181.452L304.607 181.452L295.157 180.39ZM293.691 193.436L284.241 192.374V192.374L293.691 193.436ZM292.224 206.483L301.673 207.546L301.673 207.546L292.224 206.483ZM292.326 207.016L300.843 202.786L300.843 202.786L292.326 207.016ZM298.805 220.062L290.289 224.292V224.292L298.805 220.062ZM305.285 233.109L313.801 228.879L313.801 228.879L305.285 233.109ZM305.384 233.641L314.82 234.815L314.82 234.815L305.384 233.641ZM303.761 246.688L294.325 245.514L294.325 245.514L303.761 246.688ZM302.138 259.735L311.575 260.909L311.575 260.908L302.138 259.735ZM302.047 260.267L311.34 262.287L311.34 262.286L302.047 260.267ZM299.216 273.293L289.924 271.273V271.273L299.216 273.293ZM296.385 286.319L305.677 288.339L305.677 288.339L296.385 286.319ZM296.142 286.639L298.78 295.774L298.781 295.774L296.142 286.639ZM287.08 289.256L284.442 280.12H284.442L287.08 289.256ZM278.018 291.873L280.656 301.009L280.656 301.008L278.018 291.873ZM277.567 292.043L281.402 300.745L281.402 300.745L277.567 292.043ZM264.52 297.794L260.685 289.092H260.685L264.52 297.794ZM251.473 303.544L255.308 312.246L255.309 312.246L251.473 303.544ZM250.941 303.694L252.078 313.135L252.078 313.135L250.941 303.694ZM237.894 305.265L236.757 295.824H236.757L237.894 305.265ZM224.848 306.836L225.984 316.277H225.985L224.848 306.836ZM224.315 306.706L219.359 314.821L219.359 314.821L224.315 306.706ZM211.268 298.739L216.224 290.623V290.623L211.268 298.739ZM198.222 290.773L193.266 298.888L193.266 298.888L198.222 290.773ZM197.689 290.608L197.604 300.116H197.605L197.689 290.608ZM184.643 290.491L184.727 280.982H184.727L184.643 290.491ZM171.596 290.375L171.511 299.884H171.511L171.596 290.375ZM171.063 290.454L173.841 299.548L173.841 299.548L171.063 290.454ZM158.017 294.438L155.239 285.344H155.239L158.017 294.438ZM144.97 298.423L147.747 307.517L147.748 307.517L144.97 298.423ZM144.438 298.588L147.294 307.658L147.294 307.658L144.438 298.588ZM131.391 302.696L128.535 293.626H128.535L131.391 302.696ZM118.344 306.805L121.2 315.875L121.201 315.875L118.344 306.805ZM117.812 306.854L116.576 316.282L116.577 316.282L117.812 306.854ZM104.765 305.144L106.001 295.716H106L104.765 305.144ZM91.7185 303.435L90.483 312.864L90.4832 312.864L91.7185 303.435ZM91.186 303.283L87.3652 311.991L87.3653 311.991L91.186 303.283ZM78.1394 297.559L81.9602 288.851V288.851L78.1394 297.559ZM65.0927 291.834L61.2718 300.542L61.2719 300.542L65.0927 291.834ZM64.5602 291.725L64.8438 301.23H64.844L64.5602 291.725ZM51.5136 292.114L51.23 282.609H51.23L51.5136 292.114ZM38.4669 292.504L38.7503 302.009H38.7505L38.4669 292.504ZM37.999 292.464L35.816 301.719L35.8163 301.719L37.999 292.464ZM28.1164 290.133L30.2993 280.878H30.2993L28.1164 290.133ZM18.2338 287.802L16.0506 297.057L16.0509 297.057L18.2338 287.802ZM17.9698 287.49L8.71343 289.668L8.71344 289.668L17.9698 287.49ZM14.9169 274.517L24.1733 272.338H24.1733L14.9169 274.517ZM11.8641 261.543L2.6077 263.721L2.60771 263.721L11.8641 261.543ZM11.7998 261.012L2.29087 261.083V261.083L11.7998 261.012ZM11.7034 247.966L21.2124 247.895L11.7034 247.966ZM11.607 234.919L2.09806 234.989V234.989L11.607 234.919ZM11.7145 234.386L20.5099 238.001L20.5099 238.001L11.7145 234.386ZM17.0762 221.34L8.28074 217.725V217.725L17.0762 221.34ZM22.4379 208.293L31.2333 211.908L31.2333 211.908L22.4379 208.293ZM22.5328 207.761L13.0377 208.28H13.0377L22.5328 207.761ZM21.8193 194.714L31.3144 194.195L21.8193 194.714ZM21.1059 181.667L11.6109 182.187V182.187L21.1059 181.667ZM21.0582 181.135L11.622 182.311L11.622 182.311L21.0582 181.135ZM19.4315 168.088L28.8676 166.912V166.912L19.4315 168.088ZM17.8048 155.042L8.36863 156.218L8.36863 156.218L17.8048 155.042ZM17.7582 154.509L8.26094 154.985V154.985L17.7582 154.509ZM17.1048 141.462L26.6021 140.987L17.1048 141.462ZM16.4514 128.416L6.9541 128.891V128.891L16.4514 128.416ZM16.3684 127.883L7.16906 130.291L7.16906 130.291L16.3684 127.883ZM12.9536 114.837L22.1529 112.429V112.429L12.9536 114.837ZM9.5388 101.79L0.339469 104.198L0.339475 104.198L9.5388 101.79ZM9.56283 101.257L18.5326 104.415L18.5326 104.415L9.56283 101.257ZM14.1549 88.2108L5.18512 85.0537V85.0537L14.1549 88.2108ZM18.747 75.1642L27.7168 78.3214L27.7168 78.3214L18.747 75.1642ZM18.9042 74.6317L28.1541 76.8372L28.1542 76.8372L18.9042 74.6317ZM22.0149 61.585L12.765 59.3796V59.3796L22.0149 61.585ZM25.1257 48.5384L34.3756 50.7439L34.3756 50.7439L25.1257 48.5384ZM25.1119 47.9941L15.9499 50.5405L25.1119 47.9941ZM21.3255 34.3708L30.4874 31.8244V31.8244L21.3255 34.3708ZM17.5392 20.7475L8.37722 23.2939L17.5392 20.7475ZM17.5757 20.4452L19.5597 29.7451L19.5597 29.7451L17.5757 20.4452ZM23.1514 19.2557L21.1674 9.95574L23.1514 19.2557ZM28.7271 18.0662L30.7112 27.3661L30.7112 27.3661L28.7271 18.0662ZM29.1072 18.0464L29.2696 8.53861L29.1072 18.0464ZM42.1538 18.2693L41.9915 27.7771L55.0381 27.9999L55.2005 18.4921L55.3628 8.98424L42.3162 8.76143L42.1538 18.2693ZM55.2005 18.4921L55.0381 27.9999C54.6816 27.9938 54.3356 27.9578 54.0052 27.8967L55.733 18.5458L57.4607 9.19488C56.7754 9.06824 56.0743 8.9964 55.3628 8.98424L55.2005 18.4921ZM55.733 18.5458L54.0052 27.8967L67.0519 30.3074L68.7796 20.9564L70.5074 11.6055L57.4608 9.19488L55.733 18.5458ZM68.7796 20.9564L67.0519 30.3074L80.0985 32.718L81.8263 23.3671L83.554 14.0161L70.5074 11.6055L68.7796 20.9564ZM81.8263 23.3671L80.0985 32.718C81.953 33.0606 83.7902 32.8885 85.4527 32.3164L82.3588 23.3246L79.2648 14.3328C80.5724 13.8829 82.0545 13.7391 83.554 14.0161L81.8263 23.3671ZM82.3588 23.3246L85.4527 32.3164L98.4994 27.8273L95.4054 18.8355L92.3115 9.84367L79.2648 14.3328L82.3588 23.3246ZM95.4054 18.8355L98.4994 27.8273L111.546 23.3381L108.452 14.3463L105.358 5.35451L92.3115 9.84367L95.4054 18.8355ZM108.452 14.3463L111.546 23.3381C110.389 23.7362 109.071 23.8988 107.706 23.7137L108.985 14.2908L110.263 4.86789C108.543 4.63467 106.87 4.83427 105.358 5.35452L108.452 14.3463ZM108.985 14.2908L107.706 23.7137L120.753 25.4834L122.031 16.0605L123.309 6.63753L110.263 4.86789L108.985 14.2908ZM122.031 16.0605L120.753 25.4834L133.8 27.253L135.078 17.8301L136.356 8.40716L123.309 6.63753L122.031 16.0605ZM135.078 17.8301L133.8 27.253C134.741 27.3807 135.694 27.3937 136.643 27.2901L135.61 17.8371L134.578 8.38411C135.172 8.31931 135.77 8.32767 136.356 8.40716L135.078 17.8301ZM135.61 17.8371L136.643 27.2901L149.689 25.8655L148.657 16.4124L147.625 6.95943L134.578 8.38411L135.61 17.8371ZM148.657 16.4124L149.689 25.8655L162.736 24.4408L161.704 14.9878L160.671 5.53474L147.625 6.95943L148.657 16.4124ZM161.704 14.9878L162.736 24.4408C162.658 24.4493 162.577 24.4549 162.494 24.4572L162.236 14.9515L161.978 5.44575C161.541 5.45763 161.105 5.48742 160.671 5.53474L161.704 14.9878ZM162.236 14.9515L162.494 24.4572L175.541 24.1031L175.283 14.5973L175.025 5.09163L161.978 5.44575L162.236 14.9515ZM175.283 14.5973L175.541 24.1031L188.587 23.7489L188.329 14.2432L188.071 4.73751L175.025 5.09163L175.283 14.5973ZM188.329 14.2432L188.587 23.7489C188.166 23.7604 187.752 23.7316 187.352 23.6674L188.862 14.2788L190.372 4.89022C189.617 4.76888 188.848 4.71643 188.071 4.73751L188.329 14.2432ZM188.862 14.2788L187.352 23.6674L200.399 25.7655L201.909 16.3769L203.418 6.98829L190.372 4.89022L188.862 14.2788ZM201.909 16.3769L200.399 25.7655L213.445 27.8635L214.955 18.4749L216.465 9.08636L203.418 6.98829L201.909 16.3769ZM214.955 18.4749L213.445 27.8635C214.227 27.9892 215.024 28.0401 215.828 28.0114L215.488 18.5082L215.147 9.00511C215.596 8.98903 216.039 9.01777 216.465 9.08636L214.955 18.4749ZM215.488 18.5082L215.828 28.0114L228.875 27.5442L228.534 18.041L228.194 8.53792L215.147 9.00511L215.488 18.5082ZM228.534 18.041L228.875 27.5442L241.921 27.077L241.581 17.5739L241.241 8.07073L228.194 8.53792L228.534 18.041ZM241.581 17.5739L241.921 27.077C242.959 27.0398 243.953 26.8635 244.884 26.5799L242.114 17.4832L239.343 8.38656C239.919 8.21108 240.558 8.09518 241.241 8.07073L241.581 17.5739ZM242.114 17.4832L244.884 26.5799L257.931 22.6062L255.16 13.5096L252.39 4.41294L239.343 8.38657L242.114 17.4832ZM255.16 13.5096L257.931 22.6062L270.977 18.6326L268.207 9.53596L265.436 0.43931L252.39 4.41294L255.16 13.5096ZM268.207 9.53596L270.977 18.6326C269.869 18.9701 268.496 19.1464 266.983 18.9081C265.461 18.6684 264.17 18.068 263.164 17.3484L268.694 9.61262L274.224 1.87684C271.599 0.000620489 268.355 -0.449813 265.436 0.439324L268.207 9.53596ZM268.694 9.61262L263.164 17.3483L273.976 25.0784L279.507 17.3427L285.037 9.60696L274.224 1.8769L268.694 9.61262ZM279.507 17.3427L273.976 25.0784L284.789 32.8085L290.319 25.0727L295.85 17.337L285.037 9.60696L279.507 17.3427ZM290.319 25.0727L284.789 32.8084C283.546 31.9198 282.117 30.3685 281.457 28.0552L290.602 25.4481L299.747 22.8411C299.005 20.2376 297.387 18.436 295.85 17.3371L290.319 25.0727ZM290.602 25.4481L281.457 28.055L284.497 38.7194L293.642 36.1126L302.787 33.5057L299.747 22.8413L290.602 25.4481ZM293.642 36.1126L284.497 38.7194L287.537 49.3838L296.682 46.777L305.827 44.1701L302.787 33.5057L293.642 36.1126ZM296.682 46.777L287.537 49.3836C287.621 49.6761 287.71 49.9617 287.799 50.2331L296.832 47.2609L305.865 44.2887C305.837 44.205 305.827 44.168 305.827 44.1703L296.682 46.777ZM296.832 47.2609L287.799 50.2329L292.092 63.2795L301.125 60.3075L310.157 57.3355L305.865 44.2888L296.832 47.2609ZM301.125 60.3075L292.092 63.2796L296.384 76.3262L305.417 73.3541L314.45 70.3821L310.157 57.3354L301.125 60.3075ZM305.417 73.3541L296.384 76.326C296.084 75.4138 295.929 74.3825 295.998 73.2925L305.488 73.8867L314.979 74.4808C315.069 73.0358 314.867 71.6495 314.45 70.3822L305.417 73.3541ZM305.488 73.8867L295.998 73.2923L295.181 86.3389L304.671 86.9333L314.162 87.5277L314.979 74.481L305.488 73.8867ZM304.671 86.9333L295.181 86.3389L294.363 99.3856L303.854 99.9799L313.345 100.574L314.162 87.5276L304.671 86.9333ZM303.854 99.9799L294.363 99.3854C294.414 98.5812 294.585 97.8496 294.82 97.2141L303.739 100.512L312.658 103.811C313.024 102.82 313.272 101.734 313.345 100.574L303.854 99.9799ZM303.739 100.512L294.82 97.214L289.995 110.261L298.914 113.559L307.833 116.858L312.658 103.811L303.739 100.512ZM298.914 113.559L289.995 110.261L285.17 123.307L294.089 126.606L303.008 129.904L307.833 116.858L298.914 113.559ZM294.089 126.606L285.17 123.307C284.865 124.131 284.638 125.021 284.521 125.966L293.957 127.138L303.394 128.311C303.321 128.9 303.181 129.435 303.007 129.904L294.089 126.606ZM293.957 127.138L284.521 125.966L282.899 139.012L292.336 140.185L301.773 141.358L303.394 128.311L293.957 127.138ZM292.336 140.185L282.899 139.012L281.278 152.059L290.715 153.232L300.151 154.404L301.773 141.358L292.336 140.185ZM290.715 153.232L281.278 152.059C281.141 153.16 281.167 154.267 281.351 155.351L290.727 153.764L300.103 152.177C300.226 152.906 300.244 153.658 300.151 154.404L290.715 153.232ZM290.727 153.764L281.351 155.351L283.559 168.397L292.934 166.811L302.31 165.224L300.103 152.177L290.727 153.764ZM292.934 166.811L283.559 168.397L285.766 181.444L295.142 179.857L304.518 178.271L302.31 165.224L292.934 166.811ZM295.142 179.857L285.766 181.444C285.65 180.753 285.628 180.039 285.708 179.328L295.157 180.39L304.607 181.452C304.727 180.386 304.695 179.317 304.518 178.271L295.142 179.857ZM295.157 180.39L285.708 179.327L284.241 192.374L293.691 193.436L303.14 194.499L304.607 181.452L295.157 180.39ZM293.691 193.436L284.241 192.374L282.774 205.421L292.224 206.483L301.673 207.546L303.14 194.499L293.691 193.436ZM292.224 206.483L282.774 205.42C282.528 207.611 283 209.616 283.809 211.245L292.326 207.016L300.843 202.786C301.476 204.06 301.88 205.71 301.673 207.546L292.224 206.483ZM292.326 207.016L283.809 211.245L290.289 224.292L298.805 220.062L307.322 215.833L300.843 202.786L292.326 207.016ZM298.805 220.062L290.289 224.292L296.768 237.339L305.285 233.109L313.801 228.879L307.322 215.833L298.805 220.062ZM305.285 233.109L296.768 237.339C296.119 236.032 295.714 234.34 295.947 232.468L305.384 233.641L314.82 234.815C315.097 232.588 314.627 230.541 313.801 228.879L305.285 233.109ZM305.384 233.641L295.947 232.468L294.325 245.514L303.761 246.688L313.198 247.862L314.82 234.815L305.384 233.641ZM303.761 246.688L294.325 245.514L292.702 258.561L302.138 259.735L311.575 260.908L313.198 247.862L303.761 246.688ZM302.138 259.735L292.702 258.561C292.716 258.45 292.734 258.346 292.755 258.247L302.047 260.267L311.34 262.286C311.438 261.833 311.517 261.374 311.575 260.909L302.138 259.735ZM302.047 260.267L292.755 258.247L289.924 271.273L299.216 273.293L308.508 275.313L311.34 262.287L302.047 260.267ZM299.216 273.293L289.924 271.273L287.092 284.3L296.385 286.319L305.677 288.339L308.508 275.313L299.216 273.293ZM296.385 286.319L287.093 284.299C287.269 283.489 287.683 282.148 288.725 280.777C289.867 279.275 291.515 278.077 293.503 277.503L296.142 286.639L298.781 295.774C303.579 294.389 305.242 290.34 305.677 288.339L296.385 286.319ZM296.142 286.639L293.504 277.503L284.442 280.12L287.08 289.256L289.718 298.391L298.78 295.774L296.142 286.639ZM287.08 289.256L284.442 280.12L275.379 282.737L278.018 291.873L280.656 301.008L289.718 298.391L287.08 289.256ZM278.018 291.873L275.38 282.737C274.698 282.933 274.122 283.169 273.731 283.342L277.567 292.043L281.402 300.745C281.366 300.76 281.29 300.793 281.178 300.836C281.071 300.876 280.892 300.94 280.656 301.009L278.018 291.873ZM277.567 292.043L273.731 283.342L260.685 289.092L264.52 297.794L268.355 306.495L281.402 300.745L277.567 292.043ZM264.52 297.794L260.685 289.092L247.638 294.843L251.473 303.544L255.309 312.246L268.355 306.495L264.52 297.794ZM251.473 303.544L247.638 294.843C248.246 294.575 248.975 294.352 249.804 294.253L250.941 303.694L252.078 313.135C253.262 312.992 254.345 312.67 255.308 312.246L251.473 303.544ZM250.941 303.694L249.804 294.253L236.757 295.824L237.894 305.265L239.031 314.706L252.078 313.135L250.941 303.694ZM237.894 305.265L236.757 295.824L223.711 297.395L224.848 306.836L225.985 316.277L239.031 314.706L237.894 305.265ZM224.848 306.836L223.711 297.395C225.991 297.12 227.935 297.774 229.271 298.59L224.315 306.706L219.359 314.821C221.05 315.854 223.349 316.594 225.984 316.277L224.848 306.836ZM224.315 306.706L229.271 298.59L216.224 290.623L211.268 298.739L206.313 306.855L219.359 314.821L224.315 306.706ZM211.268 298.739L216.224 290.623L203.177 282.657L198.222 290.773L193.266 298.888L206.313 306.855L211.268 298.739ZM198.222 290.773L203.177 282.657C201.787 281.808 199.947 281.118 197.774 281.099L197.689 290.608L197.605 300.116C195.786 300.1 194.301 299.521 193.266 298.888L198.222 290.773ZM197.689 290.608L197.774 281.099L184.727 280.982L184.643 290.491L184.558 300L197.604 300.116L197.689 290.608ZM184.643 290.491L184.727 280.982L171.681 280.866L171.596 290.375L171.511 299.884L184.558 300L184.643 290.491ZM171.596 290.375L171.681 280.866C170.49 280.856 169.348 281.035 168.286 281.359L171.063 290.454L173.841 299.548C173.134 299.764 172.347 299.891 171.511 299.884L171.596 290.375ZM171.063 290.454L168.286 281.359L155.239 285.344L158.017 294.438L160.794 303.533L173.841 299.548L171.063 290.454ZM158.017 294.438L155.239 285.344L142.193 289.328L144.97 298.423L147.748 307.517L160.794 303.533L158.017 294.438ZM144.97 298.423L142.193 289.328C141.989 289.39 141.785 289.454 141.581 289.518L144.438 298.588L147.294 307.658C147.445 307.61 147.596 307.563 147.747 307.517L144.97 298.423ZM144.438 298.588L141.581 289.518L128.535 293.626L131.391 302.696L134.247 311.766L147.294 307.658L144.438 298.588ZM131.391 302.696L128.535 293.626L115.488 297.735L118.344 306.805L121.201 315.875L134.247 311.766L131.391 302.696ZM118.344 306.805L115.488 297.735C116.579 297.391 117.796 297.261 119.047 297.425L117.812 306.854L116.577 316.282C118.182 316.493 119.755 316.33 121.2 315.875L118.344 306.805ZM117.812 306.854L119.047 297.425L106.001 295.716L104.765 305.144L103.53 314.573L116.576 316.282L117.812 306.854ZM104.765 305.144L106 295.716L92.9539 294.006L91.7185 303.435L90.4832 312.864L103.53 314.573L104.765 305.144ZM91.7185 303.435L92.954 294.006C93.7385 294.109 94.4286 294.322 95.0067 294.575L91.186 303.283L87.3653 311.991C88.2984 312.4 89.3435 312.714 90.483 312.864L91.7185 303.435ZM91.186 303.283L95.0068 294.575L81.9602 288.851L78.1394 297.559L74.3185 306.266L87.3652 311.991L91.186 303.283ZM78.1394 297.559L81.9602 288.851L68.9136 283.126L65.0927 291.834L61.2719 300.542L74.3185 306.266L78.1394 297.559ZM65.0927 291.834L68.9137 283.126C67.564 282.534 65.9898 282.169 64.2765 282.22L64.5602 291.725L64.844 301.23C63.4857 301.271 62.2664 300.978 61.2718 300.542L65.0927 291.834ZM64.5602 291.725L64.2766 282.22L51.23 282.609L51.5136 292.114L51.7971 301.619L64.8438 301.23L64.5602 291.725ZM51.5136 292.114L51.23 282.609L38.1833 282.999L38.4669 292.504L38.7505 302.009L51.7972 301.619L51.5136 292.114ZM38.4669 292.504L38.1835 282.999C38.6125 282.986 39.317 283.005 40.1817 283.209L37.999 292.464L35.8163 301.719C36.9499 301.987 37.9664 302.032 38.7503 302.009L38.4669 292.504ZM37.999 292.464L40.1819 283.209L30.2993 280.878L28.1164 290.133L25.9334 299.388L35.816 301.719L37.999 292.464ZM28.1164 290.133L30.2993 280.878L20.4167 278.547L18.2338 287.802L16.0509 297.057L25.9334 299.388L28.1164 290.133ZM18.2338 287.802L20.417 278.547C22.3044 278.992 24.0391 280.035 25.3295 281.562C26.5184 282.968 27.0122 284.402 27.2262 285.312L17.9698 287.49L8.71344 289.668C9.27697 292.063 11.2801 295.932 16.0506 297.057L18.2338 287.802ZM17.9698 287.49L27.2262 285.312L24.1733 272.338L14.9169 274.517L5.66057 276.695L8.71343 289.668L17.9698 287.49ZM14.9169 274.517L24.1733 272.338L21.1205 259.365L11.8641 261.543L2.60771 263.721L5.66057 276.695L14.9169 274.517ZM11.8641 261.543L21.1205 259.365C21.238 259.865 21.3047 260.394 21.3088 260.942L11.7998 261.012L2.29087 261.083C2.29753 261.985 2.40708 262.869 2.6077 263.721L11.8641 261.543ZM11.7998 261.012L21.3088 260.942L21.2124 247.895L11.7034 247.966L2.19446 248.036L2.29087 261.083L11.7998 261.012ZM11.7034 247.966L21.2124 247.895L21.116 234.849L11.607 234.919L2.09806 234.989L2.19446 248.036L11.7034 247.966ZM11.607 234.919L21.116 234.849C21.1247 236.034 20.8779 237.106 20.5099 238.001L11.7145 234.386L2.91905 230.772C2.40511 232.022 2.08667 233.449 2.09806 234.989L11.607 234.919ZM11.7145 234.386L20.5099 238.001L25.8716 224.954L17.0762 221.34L8.28074 217.725L2.91903 230.772L11.7145 234.386ZM17.0762 221.34L25.8716 224.954L31.2333 211.908L22.4379 208.293L13.6425 204.679L8.28074 217.725L17.0762 221.34ZM22.4379 208.293L31.2333 211.908C31.8006 210.527 32.1208 208.942 32.0278 207.241L22.5328 207.761L13.0377 208.28C12.9642 206.934 13.2211 205.704 13.6424 204.679L22.4379 208.293ZM22.5328 207.761L32.0278 207.241L31.3144 194.195L21.8193 194.714L12.3243 195.233L13.0377 208.28L22.5328 207.761ZM21.8193 194.714L31.3144 194.195L30.601 181.148L21.1059 181.667L11.6109 182.187L12.3243 195.233L21.8193 194.714ZM21.1059 181.667L30.601 181.148C30.5792 180.75 30.5435 180.353 30.4943 179.958L21.0582 181.135L11.622 182.311C11.6171 182.272 11.6133 182.23 11.6109 182.187L21.1059 181.667ZM21.0582 181.135L30.4943 179.958L28.8676 166.912L19.4315 168.088L9.99532 169.265L11.622 182.311L21.0582 181.135ZM19.4315 168.088L28.8676 166.912L27.2409 153.865L17.8048 155.042L8.36863 156.218L9.99532 169.265L19.4315 168.088ZM17.8048 155.042L27.2409 153.865C27.2476 153.919 27.2526 153.975 27.2556 154.033L17.7582 154.509L8.26094 154.985C8.28164 155.398 8.31766 155.809 8.36863 156.218L17.8048 155.042ZM17.7582 154.509L27.2556 154.033L26.6021 140.987L17.1048 141.462L7.60752 141.938L8.26094 154.985L17.7582 154.509ZM17.1048 141.462L26.6021 140.987L25.9487 127.94L16.4514 128.416L6.9541 128.891L7.60752 141.938L17.1048 141.462ZM16.4514 128.416L25.9487 127.94C25.9061 127.089 25.7743 126.265 25.5677 125.475L16.3684 127.883L7.16906 130.291C7.05543 129.857 6.97893 129.387 6.9541 128.891L16.4514 128.416ZM16.3684 127.883L25.5677 125.475L22.1529 112.429L12.9536 114.837L3.75427 117.244L7.16906 130.291L16.3684 127.883ZM12.9536 114.837L22.1529 112.429L18.7381 99.3822L9.5388 101.79L0.339475 104.198L3.75427 117.244L12.9536 114.837ZM9.5388 101.79L18.7381 99.3822C19.1852 101.09 19.0832 102.85 18.5326 104.415L9.56283 101.257L0.593022 98.1003C-0.0825385 100.02 -0.200521 102.135 0.339469 104.198L9.5388 101.79ZM9.56283 101.257L18.5326 104.415L23.1247 91.368L14.1549 88.2108L5.18512 85.0537L0.593016 98.1003L9.56283 101.257ZM14.1549 88.2108L23.1247 91.368L27.7168 78.3214L18.747 75.1642L9.77722 72.007L5.18512 85.0537L14.1549 88.2108ZM18.747 75.1642L27.7168 78.3214C27.8858 77.8414 28.0327 77.3464 28.1541 76.8372L18.9042 74.6317L9.65431 72.4262C9.69108 72.272 9.73324 72.132 9.77721 72.0071L18.747 75.1642ZM18.9042 74.6317L28.1542 76.8372L31.2649 63.7905L22.0149 61.585L12.765 59.3796L9.65431 72.4262L18.9042 74.6317ZM22.0149 61.585L31.2649 63.7905L34.3756 50.7439L25.1257 48.5384L15.8757 46.3329L12.765 59.3796L22.0149 61.585ZM25.1257 48.5384L34.3756 50.7439C34.8117 48.9149 34.7322 47.097 34.2738 45.4477L25.1119 47.9941L15.9499 50.5405C15.5946 49.262 15.5243 47.8069 15.8757 46.333L25.1257 48.5384ZM25.1119 47.9941L34.2738 45.4477L30.4874 31.8244L21.3255 34.3708L12.1636 36.9172L15.9499 50.5405L25.1119 47.9941ZM21.3255 34.3708L30.4874 31.8244L26.7011 18.2011L17.5392 20.7475L8.37722 23.2939L12.1636 36.9172L21.3255 34.3708ZM17.5392 20.7475L26.7011 18.2011C26.7641 18.4278 27.1735 19.8246 26.9502 21.6733C26.8266 22.6969 26.4394 24.4499 25.1281 26.192C23.6737 28.1242 21.6366 29.302 19.5597 29.7451L17.5757 20.4452L15.5917 11.1452C13.4769 11.5964 11.4098 12.7929 9.93332 14.7544C8.6 16.5257 8.1988 18.3185 8.06906 19.3925C7.83357 21.3419 8.2627 22.8818 8.37722 23.2939L17.5392 20.7475ZM17.5757 20.4452L19.5597 29.7451L25.1354 28.5556L23.1514 19.2557L21.1674 9.95574L15.5917 11.1452L17.5757 20.4452ZM23.1514 19.2557L25.1354 28.5556L30.7112 27.3661L28.7271 18.0662L26.7431 8.76623L21.1674 9.95574L23.1514 19.2557ZM28.7271 18.0662L30.7112 27.3661C30.3482 27.4435 30.0499 27.4837 29.8554 27.5056C29.6526 27.5284 29.4867 27.5396 29.372 27.5455C29.1504 27.557 28.9957 27.5551 28.9448 27.5543L29.1072 18.0464L29.2696 8.53861C29.0527 8.53491 27.9726 8.50393 26.7431 8.76623L28.7271 18.0662ZM29.1072 18.0464L28.9448 27.5543L41.9915 27.7771L42.1538 18.2693L42.3162 8.76143L29.2696 8.53861L29.1072 18.0464Z" fill="white"/></svg>