<svg width="16" height="16" viewBox="0 0 16 16" fill="none" xmlns="http://www.w3.org/2000/svg">
<g transform="translate(2.26 0.87)">
<path fill-rule="evenodd" clip-rule="evenodd" d="M4.57349 5.58925e-05C4.83115 -0.00124349 5.08882 0.0201092 5.34562 0.064509C5.54619 0.099162 5.74604 0.0997004 5.94654 0.0658111C6.22611 0.0185831 6.50654 0.0252057 6.78508 0.0846913C6.97854 0.125975 7.17158 0.127597 7.36646 0.0892486C7.69316 0.0250093 8.00464 0.0886985 8.28182 0.274144C8.48722 0.411621 8.68966 0.547959 8.88859 0.682999C9.15582 0.864403 9.33399 1.12109 9.42049 1.4356C9.504 1.73924 9.49862 2.04491 9.40357 2.34446C9.34319 2.53475 9.32887 2.72024 9.35799 2.905C9.39533 3.1419 9.43396 3.37904 9.47323 3.61594C9.51119 3.8449 9.55254 4.0345 9.59693 4.1869C9.60522 4.1914 9.63737 4.20883 9.70956 4.21099C9.98378 4.21926 10.2485 4.27776 10.5012 4.38612C10.7772 4.50453 11.0019 4.69458 11.1724 4.94732C11.3607 5.22634 11.4192 5.54208 11.3482 5.8718C11.3072 6.06252 11.3122 6.24867 11.3632 6.4343C11.4341 6.6923 11.4793 6.95146 11.498 7.21164C11.5162 7.46492 11.5172 7.71877 11.4999 7.97206C11.4824 8.22874 11.4426 8.48502 11.3814 8.74029C11.3305 8.95306 11.3056 9.16447 11.3059 9.37506C11.3063 9.6083 11.3111 9.84167 11.3209 10.0749C11.3314 10.3255 11.3276 10.5764 11.3092 10.8269C11.2942 11.0308 11.3096 11.2362 11.3567 11.4434C11.4231 11.7358 11.416 12.0295 11.3365 12.3197C11.2473 12.6453 11.0479 12.8962 10.7486 13.0508C10.5316 13.1629 10.3124 13.2728 10.0911 13.3803C9.79227 13.5254 9.4747 13.5441 9.15747 13.4408C8.95513 13.3749 8.75637 13.347 8.55982 13.3542C8.35357 13.3619 8.14527 13.3981 7.93482 13.4649C7.63002 13.5617 7.32028 13.5598 7.0162 13.4597C6.81061 13.3921 6.60828 13.3595 6.40812 13.3601C6.16963 13.3607 5.93113 13.3605 5.69263 13.3594C5.46315 13.3584 5.23337 13.3662 5.00383 13.3822C4.75497 13.3996 4.50601 13.4041 4.25708 13.3965C4.0291 13.3896 3.80086 13.3925 3.57284 13.4057C3.31778 13.4203 3.06275 13.4154 2.80786 13.39C2.60709 13.3701 2.40549 13.3833 2.2024 13.4304C1.90495 13.4993 1.60877 13.4851 1.32154 13.3868C1.05506 13.2956 0.813177 13.1584 0.598229 12.9766C0.365858 12.7801 0.201994 12.5309 0.107343 12.2377C0.0181838 11.9614 -0.016222 11.6805 0.00708271 11.3972C0.0267561 11.1581 0.0477356 10.9188 0.0702338 10.6797C0.0917946 10.4506 0.104976 10.2213 0.108645 9.99224C0.112403 9.75752 0.112477 9.52254 0.109947 9.28782C0.10736 9.04758 0.107624 8.80735 0.110598 8.56711C0.113538 8.32973 0.116289 8.09226 0.118411 7.85487C0.120575 7.61271 0.127529 7.37046 0.139244 7.12831C0.148926 6.92804 0.125381 6.72647 0.0676296 6.52219C-0.0158808 6.22694 -0.0181481 5.92841 0.0624213 5.63417C0.133972 5.37289 0.236118 5.1254 0.369062 4.89263C0.525325 4.61906 0.754864 4.41949 1.04745 4.30214C1.31422 4.19518 1.59245 4.14794 1.87818 4.16086C1.95317 4.16423 1.9837 4.14973 1.99146 4.14524C1.99519 4.1431 2.00678 4.13645 2.0201 4.10227C2.07235 3.96773 2.0942 3.80715 2.07414 3.61334C2.04846 3.36528 2.03423 3.11677 2.03182 2.86855C2.02945 2.62286 2.03603 2.3772 2.05135 2.13157C2.056 2.057 2.0562 2.0018 2.05591 1.96295C2.03254 1.92476 2.01871 1.88684 2.01164 1.85487C1.99025 1.75822 2.01499 1.67505 2.02271 1.64914C2.0441 1.57752 2.08382 1.49931 2.12297 1.42909C2.19952 1.29179 2.29506 1.12227 2.40943 0.92128C2.55549 0.66469 2.76379 0.464125 3.02661 0.322321C3.27058 0.190708 3.53193 0.103845 3.80852 0.0612538C4.06398 0.0219162 4.319 0.00134216 4.57349 5.58925e-05ZM4.55591 2.13677C4.69459 2.06126 4.83983 2.03722 5.00513 2.06646C5.27355 2.11399 5.54309 2.1235 5.81242 2.09446C6.01888 2.07218 6.22554 2.07842 6.43286 2.11464C6.65806 2.15399 6.86305 2.20382 7.04875 2.26243C7.16098 2.29785 7.23331 2.36095 7.28312 2.46815C7.35922 2.63192 7.41866 2.82004 7.45956 3.03456C7.49932 3.24319 7.51051 3.45093 7.49341 3.65826C7.47775 3.84801 7.42547 3.97512 7.3586 4.06019C7.34458 4.07812 7.31371 4.11759 7.16073 4.08404C6.89028 4.02475 6.61805 4.0071 6.34562 4.03196C6.12115 4.05243 5.89678 4.05922 5.67245 4.05279C5.39843 4.04493 5.12586 4.08141 4.85604 4.16021C4.66107 4.21714 4.4697 4.23235 4.27922 4.20774C4.22867 4.2012 4.20258 4.18702 4.19263 4.18162C4.19172 4.17802 4.1905 4.17317 4.19003 4.16672C4.17433 3.94864 4.14039 3.71416 4.08911 3.4649C4.04626 3.25648 4.03228 3.04927 4.0468 2.8425C4.0543 2.73577 4.06015 2.65484 4.06503 2.59901C4.09545 2.55931 4.137 2.50477 4.18807 2.4356C4.26316 2.33389 4.38078 2.23214 4.55591 2.13677ZM5.39771 7.41737C5.24209 7.39824 5.10159 7.43165 4.96281 7.52545C4.84388 7.60591 4.79602 7.69672 4.79159 7.82232C4.78306 8.06624 4.7664 8.31069 4.74211 8.55539C4.72008 8.77723 4.71458 9.0005 4.72453 9.22466C4.73074 9.36422 4.78005 9.4413 4.87167 9.4994C4.9716 9.5628 5.0578 9.62207 5.12622 9.67649C5.16973 9.7111 5.22664 9.75916 5.27336 9.81841L5.31633 9.88157L5.3632 9.98508C5.377 10.0216 5.38901 10.0591 5.39966 10.0945C5.42322 10.1726 5.4485 10.2694 5.47518 10.3829C5.50648 10.516 5.56267 10.5702 5.63469 10.601C5.72371 10.639 5.81829 10.6423 5.94263 10.5866C5.98612 10.5671 6.00011 10.5484 6.00708 10.5359C6.01585 10.52 6.03016 10.4823 6.02596 10.4037C6.01662 10.2283 6.04813 10.0541 6.1399 9.89849C6.23176 9.74284 6.36893 9.63132 6.52727 9.55539C6.5934 9.52369 6.6205 9.49319 6.63273 9.47336C6.64433 9.45455 6.65719 9.422 6.65422 9.35943C6.6413 9.08709 6.67352 8.81524 6.74862 8.54498C6.80262 8.35068 6.81501 8.15769 6.78768 7.9636C6.7654 7.80554 6.69863 7.68955 6.5826 7.59771C6.45862 7.49963 6.32172 7.45394 6.15943 7.45709C5.905 7.46201 5.65101 7.44853 5.39771 7.41737Z" fill="#454545"/>
</g>
</svg>
