<svg width="120" height="120" viewBox="0 0 120 120" fill="none" xmlns="http://www.w3.org/2000/svg">
<g transform="translate(50.75 50.75) rotate(-90 9.25 9.25)">
<path d="M9.25 0C9.94036 0 10.5 0.559644 10.5 1.25V1.68457L10.333 1.97461C10.2641 2.094 10.216 2.19209 10.1846 2.26953C10.17 2.30543 10.1626 2.33589 10.1553 2.35938C10.3574 2.75085 10.5098 3.16805 10.5605 3.60645C10.6115 4.04689 10.5797 4.5137 10.5 4.98535C10.4674 5.17793 10.4811 5.36794 10.5479 5.57129C10.7368 6.14685 10.7877 6.74257 10.6885 7.34082C10.6489 7.57953 10.6278 7.81701 10.624 8.05371C10.9434 8.12194 11.262 8.20226 11.5801 8.29297C11.6522 8.31353 11.7268 8.31842 11.8623 8.25195C12.5248 7.92712 13.2503 7.85321 13.9697 8.08398C14.072 8.11675 14.1604 8.11782 14.2881 8.06543C14.7458 7.87769 15.2098 7.73273 15.6797 7.63379C16.1437 7.5361 16.6451 7.48439 17.1182 7.57324C17.3146 7.61015 17.6106 7.68656 17.8848 7.88184C18.2101 8.1135 18.4999 8.51907 18.5 9.05957V9.36914L18.4922 9.38281C18.4258 10.0107 17.8955 10.5 17.25 10.5H15.0801L15.1211 10.4199C14.4997 10.6476 13.8473 10.6705 13.2061 10.4648C13.1422 10.4444 13.0835 10.437 12.9629 10.4961C12.3151 10.8137 11.6058 10.9001 10.8945 10.6973C10.8462 10.6835 10.7973 10.6723 10.749 10.6592C10.9118 11.0117 11.0146 11.393 11.0254 11.8027C11.0418 12.4245 10.8904 13.0196 10.6113 13.5732C10.4395 13.9141 10.2998 14.2503 10.1895 14.5811C10.1316 14.7545 10.1266 14.9067 10.165 15.0635C10.2454 15.391 10.3543 15.7232 10.4932 16.0596C10.5848 16.2816 10.6861 16.5624 10.7197 16.8457C10.7361 16.9836 10.7515 17.2324 10.6611 17.5098C10.554 17.8384 10.2989 18.1874 9.8623 18.3545L9.51074 18.4883L9.46973 18.4785C9.39827 18.4912 9.3251 18.5 9.25 18.5C8.55964 18.5 8 17.9404 8 17.25V16.5312C7.898 16.2422 7.80914 15.9519 7.7373 15.6592C7.58354 15.0327 7.61396 14.3999 7.81738 13.79C7.96826 13.3378 8.15603 12.8904 8.37891 12.4482C8.49458 12.2187 8.53057 12.0306 8.52637 11.8691C8.52511 11.8214 8.50676 11.6857 8.31348 11.4463C8.1197 11.2062 7.95153 10.9255 7.84863 10.6055C7.63132 10.5608 7.41738 10.491 7.20898 10.3936C6.85059 10.622 6.42577 10.777 5.95117 10.7773C5.53084 10.7776 5.14934 10.6558 4.81836 10.4697C4.18024 10.8947 3.41164 11.0719 2.61035 10.7998C2.33221 10.7054 1.88816 10.6014 1.24512 10.499C0.557009 10.4964 0 9.93873 0 9.25C0 8.55964 0.559644 8 1.25 8H1.44629L1.54102 8.01465C2.26789 8.12709 2.89268 8.25963 3.38086 8.42188C3.39658 8.41409 3.42181 8.40192 3.45508 8.37793C3.80281 8.12675 4.23012 7.93808 4.72168 7.91699C5.18034 7.89737 5.59494 8.02887 5.94824 8.23535C6.61746 7.83953 7.38293 7.75602 8.12402 8.06641C8.12737 7.68714 8.16012 7.30872 8.22266 6.93164C8.25333 6.74666 8.24105 6.55827 8.17285 6.35059C7.98251 5.77083 7.9334 5.17137 8.03516 4.56934C8.08978 4.24642 8.09271 4.02813 8.07715 3.89355C8.06824 3.81657 8.02907 3.66406 7.89453 3.4248C7.41293 2.56863 7.68664 1.6525 8.03027 0.977539C8.15465 0.418259 8.65326 0 9.25 0Z" fill="#34C759"/>
</g>
</svg>
