<svg width="120" height="120" viewBox="0 0 120 120" fill="none" xmlns="http://www.w3.org/2000/svg">
<path fill-rule="evenodd" clip-rule="evenodd" d="M54 51C52.3431 51 51 52.3431 51 54V65V66C51 67.6569 52.3431 69 54 69H66C67.6569 69 69 67.6569 69 66V65V54C69 52.3431 67.6569 51 66 51H54ZM53 54C53 53.4477 53.4477 53 54 53H66C66.5523 53 67 53.4477 67 54V62L65.1 59.4667C64.3 58.4 62.7 58.4 61.9 59.4667L58.8918 63.4776L57.3204 61.9062C56.6166 61.2024 55.5024 61.1232 54.7062 61.7204L53 63V54ZM59.8 65.6L63.5 60.6667L67 65.3333V66C67 66.5523 66.5523 67 66 67H54C53.4477 67 53 66.5523 53 66V65.5L55.9062 63.3204L58.2929 65.7071C58.4979 65.9121 58.7817 66.018 59.0709 65.9975C59.3601 65.9769 59.6261 65.8319 59.8 65.6ZM57.5 58C58.3284 58 59 57.3284 59 56.5C59 55.6716 58.3284 55 57.5 55C56.6716 55 56 55.6716 56 56.5C56 57.3284 56.6716 58 57.5 58Z" fill="#1A1A1A"/>
</svg>
