<svg width="24" height="24" viewBox="0 0 24 24" fill="none" xmlns="http://www.w3.org/2000/svg">
<path fill-rule="evenodd" clip-rule="evenodd" d="M15.1871 2.93881C15.3944 2.90598 15.6056 2.90598 15.8129 2.93881C16.2161 3.00268 16.5236 3.1981 16.7629 3.39067C16.9785 3.5641 17.2108 3.79647 17.4495 4.03527L17.9647 4.55046C18.2035 4.78919 18.4359 5.02148 18.6093 5.23704C18.8019 5.47641 18.9973 5.78384 19.0612 6.1871C19.094 6.39439 19.094 6.60555 19.0612 6.81284C18.9973 7.2161 18.8019 7.52353 18.6093 7.7629C18.4359 7.97847 18.2035 8.21077 17.9647 8.44951L10.2343 16.1799C10.2187 16.1955 10.2028 16.2115 10.1864 16.228C10.008 16.4077 9.78235 16.6349 9.49377 16.782C9.40041 16.8296 9.30347 16.8697 9.20382 16.9021C8.89579 17.0022 8.57555 17.001 8.32237 17.0001C8.29913 17.0001 8.27646 17 8.25442 17H6C5.44772 17 5 16.5523 5 16V13.7456C5 13.7235 4.99992 13.7008 4.99984 13.6776C4.99894 13.4244 4.9978 13.1042 5.09789 12.7962C5.13026 12.6965 5.17042 12.5996 5.21799 12.5062C5.36503 12.2176 5.59227 11.992 5.77194 11.8136C5.78842 11.7972 5.80451 11.7812 5.8201 11.7657L13.5201 4.06566C13.5302 4.05552 13.5404 4.04538 13.5505 4.03526C13.7892 3.79646 14.0215 3.5641 14.2371 3.39067C14.4764 3.1981 14.7839 3.00268 15.1871 2.93881ZM15.5 4.9416C15.497 4.94395 15.4939 4.94641 15.4907 4.94899C15.3701 5.04607 15.2152 5.19897 14.9343 5.47987L14.4142 5.99997L16 7.58576L16.5201 7.06566C16.801 6.78476 16.9539 6.62991 17.051 6.50924C17.0536 6.50604 17.056 6.50295 17.0584 6.49997C17.056 6.49699 17.0536 6.4939 17.051 6.4907C16.9539 6.37003 16.801 6.21518 16.5201 5.93429L16.0657 5.47987C15.7848 5.19897 15.6299 5.04607 15.5093 4.94899C15.5061 4.94641 15.503 4.94395 15.5 4.9416ZM14.5858 8.99997L13 7.41418L7.23431 13.1799C7.11064 13.3035 7.0492 13.3656 7.00727 13.413C7.00632 13.414 7.00541 13.4151 7.00453 13.4161C7.00444 13.4174 7.00436 13.4188 7.00427 13.4202C7.00042 13.4833 7 13.5706 7 13.7456V15H8.25442C8.42932 15 8.51664 14.9995 8.57977 14.9957C8.5812 14.9956 8.58258 14.9955 8.58391 14.9954C8.58491 14.9946 8.58595 14.9936 8.58702 14.9927C8.63438 14.9508 8.69642 14.8893 8.8201 14.7657L14.5858 8.99997ZM3 19.9999C3 19.4476 3.44772 18.9999 4 18.9999H19.9999C20.5522 18.9999 20.9999 19.4476 20.9999 19.9999C20.9999 20.5522 20.5522 20.9999 19.9999 20.9999H4C3.44772 20.9999 3 20.5522 3 19.9999Z" fill="#1A1A1A"/>
</svg>
