<svg width="78" height="78" viewBox="0 0 78 78" fill="none" xmlns="http://www.w3.org/2000/svg">
<g filter="url(#filter0_d_3011_20)">
<path d="M10.8576 34.7622C10.8576 19.2982 23.3936 6.76217 38.8576 6.76217V6.76217C54.3215 6.76217 66.8576 19.2982 66.8576 34.7622V34.7622C66.8576 50.2261 54.3215 62.7622 38.8576 62.7622V62.7622C23.3936 62.7622 10.8576 50.2261 10.8576 34.7622V34.7622Z" fill="#34C759"/>
<path d="M43.3605 7.29411L42.6157 5.43797L43.3605 7.29411ZM44.1686 6.96983L44.9134 8.82598L44.1686 6.96983ZM45.6288 7.12256L46.8097 5.50838L45.6288 7.12256ZM46.2809 7.59958L45.1 9.21376L46.2809 7.59958ZM46.9329 8.07659L48.1138 6.46241L46.9329 8.07659ZM48.2796 8.80978L48.9716 6.93332L48.2796 8.80978ZM48.9742 9.06595L48.2822 10.9424L48.9742 9.06595ZM49.6688 9.32213L48.9768 11.1986L49.6688 9.32213ZM50.936 10.0633L49.6433 11.5893L50.936 10.0633ZM52.081 11.0332L53.3738 9.50719L52.081 11.0332ZM53.2587 11.9157L52.1606 13.5873L53.2587 11.9157ZM54.4688 12.7107L55.5669 11.0392L54.4688 12.7107ZM55.7471 13.447L54.8482 15.2336L55.7471 13.447ZM56.4203 13.7857L55.5214 15.5723L56.4203 13.7857ZM57.0935 14.1244L57.9925 12.3378L57.0935 14.1244ZM58.5323 15.7627L56.8091 16.7779L58.5323 15.7627ZM58.9151 16.4125L60.6383 15.3974L58.9151 16.4125ZM59.9695 17.4761L58.9203 19.1788L59.9695 17.4761ZM61.3125 18.3036L62.3617 16.6009L61.3125 18.3036ZM62.1376 19.4911L60.1759 19.8805L62.1376 19.4911ZM62.2912 20.2648L60.3294 20.6542L62.2912 20.2648ZM63.2355 22.3305L64.4977 20.7791L63.2355 22.3305ZM64.5097 23.3672L63.2475 24.9186L64.5097 23.3672ZM65.196 24.6635L63.2 24.7896L65.196 24.6635ZM65.2942 26.2194L67.2902 26.0934L65.2942 26.2194ZM65.6648 27.6892L63.8511 28.532L65.6648 27.6892ZM65.9863 28.381L67.8 27.5381L65.9863 28.381ZM66.3077 29.0727L68.1215 28.2299L66.3077 29.0727ZM66.748 30.5123L64.7727 30.826L66.748 30.5123ZM66.8667 31.2601L64.8915 31.5738L66.8667 31.2601ZM66.9855 32.0079L68.9607 31.6942L66.9855 32.0079ZM67.114 33.5144L65.1141 33.54L67.114 33.5144ZM67.1237 34.2731L69.1235 34.2475L67.1237 34.2731ZM67.1334 35.0318L65.1335 35.0574L67.1334 35.0318ZM67.1671 36.5582L65.1681 36.6209L67.1671 36.5582ZM67.2153 38.0937L69.2143 38.031L67.2153 38.0937ZM67.1308 39.6248L65.1507 39.3433L67.1308 39.6248ZM67.0223 40.3881L65.0422 40.1067L67.0223 40.3881ZM66.9138 41.1515L68.8939 41.433L66.9138 41.1515ZM66.5647 42.6485L68.4652 43.2716L66.5647 42.6485ZM66.0837 44.1156L64.1832 43.4925L66.0837 44.1156ZM65.4604 45.5188L63.7241 44.5262L65.4604 45.5188ZM64.6947 46.858L66.431 47.8507L64.6947 46.858ZM63.6208 47.9876L62.5126 46.3227L63.6208 47.9876ZM62.2386 48.9076L63.3468 50.5726L62.2386 48.9076ZM61.2405 50.0472L59.4179 49.2238L61.2405 50.0472ZM60.9336 50.7267L62.7563 51.55L60.9336 50.7267ZM60.0767 52.8861L58.1629 52.305L60.0767 52.8861ZM59.5906 54.4868L61.5043 55.0679L59.5906 54.4868ZM58.633 55.636L59.5102 57.4333L58.633 55.636ZM57.2039 56.3335L56.3267 54.5361L57.2039 56.3335ZM56.0032 57.3168L57.5909 58.5331L56.0032 57.3168ZM55.0309 58.586L56.6186 59.8023L55.0309 58.586ZM53.7933 59.4547L54.3881 61.3642L53.7933 59.4547ZM52.2903 59.9229L51.6955 58.0134L52.2903 59.9229ZM50.7453 60.2004L50.6361 58.2034L50.7453 60.2004ZM49.1583 60.2872L49.2675 62.2842L49.1583 60.2872ZM45.2203 62.9695L45.8125 64.8799L45.2203 62.9695ZM43.7274 63.4323L44.3195 65.3426L43.7274 63.4323ZM42.1894 63.3412L41.4348 65.1934L42.1894 63.3412ZM41.3978 63.0187L40.6432 64.8709L41.3978 63.0187ZM40.6062 62.6962L41.3609 60.844L40.6062 62.6962ZM39.0634 62.5075L38.7128 60.5385L39.0634 62.5075ZM38.3122 62.6413L37.9615 60.6723L38.3122 62.6413ZM37.5609 62.7751L37.9116 64.7441L37.5609 62.7751ZM36.117 62.4992L35.0988 64.2206L36.117 62.4992ZM35.4244 62.0895L36.4426 60.3681L35.4244 62.0895ZM33.3382 61.1016L32.8709 63.0462V63.0462L33.3382 61.1016ZM31.9365 60.7647L32.4038 58.8201V58.8201L31.9365 60.7647ZM30.3548 60.8398L30.8877 62.7675L30.3548 60.8398ZM28.5933 61.3267L28.0605 59.399L28.5933 61.3267ZM27.0391 61.1841L28.0337 59.4489L27.0391 61.1841ZM26.3656 60.7981L27.3602 59.0629L26.3656 60.7981ZM25.6922 60.412L24.6976 62.1472L25.6922 60.412ZM24.4339 59.5185L25.7448 58.008L24.4339 59.5185ZM23.849 59.0109L22.5381 60.5214L23.849 59.0109ZM23.2642 58.5033L21.9533 60.0138L23.2642 58.5033ZM22.0397 57.578L20.946 59.2525L22.0397 57.578ZM21.4 57.1602L20.3063 58.8347L21.4 57.1602ZM20.7603 56.7424L21.854 55.0679L20.7603 56.7424ZM19.7502 55.6264L17.9835 56.5637L19.7502 55.6264ZM19.0094 54.23L20.7762 53.2927L19.0094 54.23ZM17.9197 53.1485L18.8604 51.3835L17.9197 53.1485ZM16.4812 52.3818L15.5405 54.1468L16.4812 52.3818ZM15.6668 51.1593L13.6795 51.3845L15.6668 51.1593ZM15.5717 50.3202L17.559 50.0951L15.5717 50.3202ZM15.4767 49.4811L17.464 49.256L15.4767 49.4811ZM14.9199 48.0513L16.4957 46.8197L14.9199 48.0513ZM13.9966 46.8699L12.4208 48.1016L13.9966 46.8699ZM13.1743 45.6155L11.4169 46.5704L13.1743 45.6155ZM12.4529 44.2879L10.6956 45.2428L12.4529 44.2879ZM11.8786 41.3574L9.88741 41.545L11.8786 41.3574ZM10.8332 39.216L12.4694 38.0658L10.8332 39.216ZM10.3461 38.5231L11.9823 37.3729L10.3461 38.5231ZM10.0578 37.051L8.11982 36.5567L10.0578 37.051ZM10.2565 36.2719L8.31857 35.7776L10.2565 36.2719ZM10.4553 35.4928L12.3932 35.9872L10.4553 35.4928ZM10.6697 33.9568L8.6701 33.9154L10.6697 33.9568ZM10.7595 30.1461L8.76026 30.0905L10.7595 30.1461ZM11.3476 27.9787L12.857 29.2908L11.3476 27.9787ZM11.8928 27.3514L10.3834 26.0393L11.8928 27.3514ZM12.4381 26.7241L13.9475 28.0362L12.4381 26.7241ZM13.1355 23.7593L11.1397 23.6294L13.1355 23.7593ZM13.8454 22.4944L15.0318 24.1045L13.8454 22.4944ZM14.5045 22.0087L13.3181 20.3986L14.5045 22.0087ZM15.1636 21.523L16.3501 23.1331L15.1636 21.523ZM16.012 20.2825L14.072 19.7962L16.012 20.2825ZM17.6724 16.9996L19.036 18.4627L17.6724 16.9996ZM18.2187 16.4904L16.855 15.0274L18.2187 16.4904ZM22.0537 13.0917L22.5767 15.0221L22.0537 13.0917ZM22.8224 12.8834L22.2994 10.953L22.8224 12.8834ZM24.0184 11.9585L22.3005 10.9343L24.0184 11.9585ZM28.9411 8.65819L30.1886 10.2214L28.9411 8.65819ZM29.5665 8.15906L28.319 6.59583L29.5665 8.15906ZM30.192 7.65992L28.9444 6.0967L30.192 7.65992ZM31.5845 7.08545L31.78 9.07587L31.5845 7.08545ZM33.1187 6.93478L32.9232 4.94435L33.1187 6.93478ZM34.6393 6.77404L34.414 4.78676L34.6393 6.77404ZM35.3928 6.68863L35.1676 4.70136L35.3928 6.68863ZM36.1463 6.60323L36.3716 8.59051L36.1463 6.60323ZM37.3893 6.36615L36.7973 4.45579L37.3893 6.36615ZM38.3681 6.06279L38.9602 7.97316L38.3681 6.06279ZM40.3009 7.35242L39.5438 9.2036L40.2654 9.49873L41.0225 7.64755L41.7796 5.79638L41.0579 5.50125L40.3009 7.35242ZM41.0225 7.64755L40.2654 9.49873C41.2854 9.91586 42.3374 9.85962 43.2971 9.47454L42.5523 7.6184L41.8075 5.76225C41.7692 5.77763 41.7445 5.78409 41.7325 5.78667C41.7209 5.78917 41.7199 5.78834 41.7277 5.78819C41.7358 5.78804 41.7472 5.78874 41.7596 5.7911C41.7655 5.7922 41.7703 5.79344 41.7741 5.79454C41.7778 5.79565 41.7797 5.79641 41.7796 5.79638L41.0225 7.64755ZM42.5523 7.6184L43.2971 9.47454L44.1053 9.15026L43.3605 7.29411L42.6157 5.43797L41.8075 5.76225L42.5523 7.6184ZM43.3605 7.29411L44.1053 9.15026L44.9134 8.82598L44.1686 6.96983L43.4238 5.11369L42.6157 5.43797L43.3605 7.29411ZM44.1686 6.96983L44.9134 8.82598C44.9368 8.81658 44.8652 8.8492 44.7297 8.83502C44.5867 8.82007 44.4865 8.76495 44.448 8.73675L45.6288 7.12256L46.8097 5.50838C45.7677 4.7461 44.5433 4.66448 43.4238 5.11369L44.1686 6.96983ZM45.6288 7.12256L44.448 8.73675L45.1 9.21376L46.2809 7.59958L47.4617 5.98539L46.8097 5.50838L45.6288 7.12256ZM46.2809 7.59958L45.1 9.21376L45.7521 9.69077L46.9329 8.07659L48.1138 6.46241L47.4617 5.98539L46.2809 7.59958ZM46.9329 8.07659L45.7521 9.69077C46.3232 10.1086 46.9351 10.4456 47.5876 10.6862L48.2796 8.80978L48.9716 6.93332C48.698 6.8324 48.4121 6.68064 48.1138 6.46241L46.9329 8.07659ZM48.2796 8.80978L47.5876 10.6862L48.2822 10.9424L48.9742 9.06595L49.6663 7.1895L48.9716 6.93332L48.2796 8.80978ZM48.9742 9.06595L48.2822 10.9424L48.9768 11.1986L49.6688 9.32213L50.3609 7.44567L49.6663 7.1895L48.9742 9.06595ZM49.6688 9.32213L48.9768 11.1986C49.2177 11.2874 49.4374 11.4149 49.6433 11.5893L50.936 10.0633L52.2287 8.53722C51.6712 8.065 51.0461 7.69838 50.3609 7.44567L49.6688 9.32213ZM50.936 10.0633L49.6433 11.5893L50.2158 12.0743L51.5085 10.5483L52.8012 9.0222L52.2287 8.53722L50.936 10.0633ZM51.5085 10.5483L50.2158 12.0743L50.7883 12.5593L52.081 11.0332L53.3738 9.50719L52.8012 9.0222L51.5085 10.5483ZM52.081 11.0332L50.7883 12.5593C51.2296 12.9331 51.687 13.2762 52.1606 13.5873L53.2587 11.9157L54.3568 10.2442C54.0235 10.0253 53.6958 9.78 53.3738 9.50719L52.081 11.0332ZM53.2587 11.9157L52.1606 13.5873L52.7657 13.9848L53.8638 12.3132L54.9619 10.6417L54.3568 10.2442L53.2587 11.9157ZM53.8638 12.3132L52.7657 13.9848L53.3707 14.3823L54.4688 12.7107L55.5669 11.0392L54.9619 10.6417L53.8638 12.3132ZM54.4688 12.7107L53.3707 14.3823C53.8408 14.6911 54.3336 14.9747 54.8482 15.2336L55.7471 13.447L56.6461 11.6604C56.263 11.4677 55.9037 11.2604 55.5669 11.0392L54.4688 12.7107ZM55.7471 13.447L54.8482 15.2336L55.5214 15.5723L56.4203 13.7857L57.3193 11.9991L56.6461 11.6604L55.7471 13.447ZM56.4203 13.7857L55.5214 15.5723L56.1946 15.911L57.0935 14.1244L57.9925 12.3378L57.3193 11.9991L56.4203 13.7857ZM57.0935 14.1244L56.1946 15.911C56.3 15.9641 56.3659 16.0256 56.4263 16.1281L58.1495 15.113L59.8727 14.0978C59.4227 13.3339 58.7847 12.7365 57.9925 12.3378L57.0935 14.1244ZM58.1495 15.113L56.4263 16.1281L56.8091 16.7779L58.5323 15.7627L60.2555 14.7476L59.8727 14.0978L58.1495 15.113ZM58.5323 15.7627L56.8091 16.7779L57.192 17.4277L58.9151 16.4125L60.6383 15.3974L60.2555 14.7476L58.5323 15.7627ZM58.9151 16.4125L57.192 17.4277C57.6202 18.1546 58.2085 18.7402 58.9203 19.1788L59.9695 17.4761L61.0186 15.7734C60.8351 15.6603 60.7206 15.5369 60.6383 15.3974L58.9151 16.4125ZM59.9695 17.4761L58.9203 19.1788L59.5918 19.5926L60.641 17.8899L61.6902 16.1872L61.0186 15.7734L59.9695 17.4761ZM60.641 17.8899L59.5918 19.5926L60.2633 20.0064L61.3125 18.3036L62.3617 16.6009L61.6902 16.1872L60.641 17.8899ZM61.3125 18.3036L60.2633 20.0064C60.2709 20.011 60.2662 20.009 60.2543 19.998C60.2422 19.9867 60.227 19.9701 60.2121 19.9486C60.1972 19.9272 60.1869 19.9071 60.1805 19.8918C60.1744 19.8769 60.1741 19.8718 60.1759 19.8805L62.1376 19.4911L64.0993 19.1017C63.8886 18.0403 63.2829 17.1686 62.3617 16.6009L61.3125 18.3036ZM62.1376 19.4911L60.1759 19.8805L60.3294 20.6542L62.2912 20.2648L64.2529 19.8754L64.0993 19.1017L62.1376 19.4911ZM62.2912 20.2648L60.3294 20.6542L60.483 21.4279L62.4447 21.0385L64.4065 20.6491L64.2529 19.8754L62.2912 20.2648ZM62.4447 21.0385L60.483 21.4279C60.6801 22.4207 61.2033 23.2555 61.9733 23.8819L63.2355 22.3305L64.4977 20.7791C64.446 20.7371 64.4292 20.711 64.4251 20.7043C64.4216 20.6987 64.4136 20.6851 64.4065 20.6491L62.4447 21.0385ZM63.2355 22.3305L61.9733 23.8819L62.6104 24.4003L63.8726 22.8489L65.1348 21.2975L64.4977 20.7791L63.2355 22.3305ZM63.8726 22.8489L62.6104 24.4003L63.2475 24.9186L64.5097 23.3672L65.7719 21.8158L65.1348 21.2975L63.8726 22.8489ZM64.5097 23.3672L63.2475 24.9186C63.2635 24.9316 63.2658 24.9358 63.2604 24.9293C63.2546 24.9224 63.2438 24.908 63.2323 24.8862C63.2207 24.8643 63.2119 24.8417 63.2063 24.8212C63.2007 24.801 63.1999 24.7893 63.2 24.7896L65.196 24.6635L67.192 24.5375C67.122 23.4294 66.6032 22.4921 65.7719 21.8158L64.5097 23.3672ZM65.196 24.6635L63.2 24.7896L63.2491 25.5675L65.2451 25.4415L67.2411 25.3154L67.192 24.5375L65.196 24.6635ZM65.2451 25.4415L63.2491 25.5675L63.2982 26.3455L65.2942 26.2194L67.2902 26.0934L67.2411 25.3154L65.2451 25.4415ZM65.2942 26.2194L63.2982 26.3455C63.3463 27.1067 63.5297 27.8403 63.8511 28.532L65.6648 27.6892L67.4786 26.8463C67.3713 26.6156 67.3077 26.3694 67.2902 26.0934L65.2942 26.2194ZM65.6648 27.6892L63.8511 28.532L64.1725 29.2238L65.9863 28.381L67.8 27.5381L67.4786 26.8463L65.6648 27.6892ZM65.9863 28.381L64.1725 29.2238L64.494 29.9156L66.3077 29.0727L68.1215 28.2299L67.8 27.5381L65.9863 28.381ZM66.3077 29.0727L64.494 29.9156C64.6308 30.21 64.7228 30.5119 64.7727 30.826L66.748 30.5123L68.7232 30.1986C68.6148 29.5157 68.4133 28.8579 68.1215 28.2299L66.3077 29.0727ZM66.748 30.5123L64.7727 30.826L64.8915 31.5738L66.8667 31.2601L68.842 30.9464L68.7232 30.1986L66.748 30.5123ZM66.8667 31.2601L64.8915 31.5738L65.0103 32.3216L66.9855 32.0079L68.9607 31.6942L68.842 30.9464L66.8667 31.2601ZM66.9855 32.0079L65.0103 32.3216C65.0743 32.7246 65.1089 33.1305 65.1141 33.54L67.114 33.5144L69.1138 33.4888C69.1061 32.8867 69.0551 32.2883 68.9607 31.6942L66.9855 32.0079ZM67.114 33.5144L65.1141 33.54L65.1238 34.2987L67.1237 34.2731L69.1235 34.2475L69.1138 33.4888L67.114 33.5144ZM67.1237 34.2731L65.1238 34.2987L65.1335 35.0574L67.1334 35.0318L69.1332 35.0062L69.1235 34.2475L67.1237 34.2731ZM67.1334 35.0318L65.1335 35.0574C65.1402 35.5757 65.1517 36.0969 65.1681 36.6209L67.1671 36.5582L69.1662 36.4956C69.1505 35.996 69.1395 35.4995 69.1332 35.0062L67.1334 35.0318ZM67.1671 36.5582L65.1681 36.6209L65.1922 37.3886L67.1912 37.326L69.1902 37.2633L69.1662 36.4956L67.1671 36.5582ZM67.1912 37.326L65.1922 37.3886L65.2162 38.1563L67.2153 38.0937L69.2143 38.031L69.1902 37.2633L67.1912 37.326ZM67.2153 38.0937L65.2162 38.1563C65.2287 38.5526 65.2069 38.9479 65.1507 39.3433L67.1308 39.6248L69.1109 39.9062C69.1994 39.2838 69.2339 38.6583 69.2143 38.031L67.2153 38.0937ZM67.1308 39.6248L65.1507 39.3433L65.0422 40.1067L67.0223 40.3881L69.0024 40.6696L69.1109 39.9062L67.1308 39.6248ZM67.0223 40.3881L65.0422 40.1067L64.9337 40.87L66.9138 41.1515L68.8939 41.433L69.0024 40.6696L67.0223 40.3881ZM66.9138 41.1515L64.9337 40.87C64.8778 41.2628 64.7882 41.6475 64.6643 42.0254L66.5647 42.6485L68.4652 43.2716C68.662 42.6713 68.805 42.058 68.8939 41.433L66.9138 41.1515ZM66.5647 42.6485L64.6643 42.0254L64.4238 42.7589L66.3242 43.382L68.2247 44.0051L68.4652 43.2716L66.5647 42.6485ZM66.3242 43.382L64.4238 42.7589L64.1832 43.4925L66.0837 44.1156L67.9842 44.7387L68.2247 44.0051L66.3242 43.382ZM66.0837 44.1156L64.1832 43.4925C64.065 43.8533 63.9122 44.1972 63.7241 44.5262L65.4604 45.5188L67.1966 46.5114C67.519 45.9476 67.7817 45.3561 67.9842 44.7387L66.0837 44.1156ZM65.4604 45.5188L63.7241 44.5262L63.3413 45.1958L65.0775 46.1884L66.8138 47.1811L67.1966 46.5114L65.4604 45.5188ZM65.0775 46.1884L63.3413 45.1958L62.9584 45.8654L64.6947 46.858L66.431 47.8507L66.8138 47.1811L65.0775 46.1884ZM64.6947 46.858L62.9584 45.8654C62.8691 46.0217 62.7348 46.1749 62.5126 46.3227L63.6208 47.9876L64.729 49.6526C65.4283 49.1871 66.0099 48.5872 66.431 47.8507L64.6947 46.858ZM63.6208 47.9876L62.5126 46.3227L61.8215 46.7827L62.9297 48.4476L64.0379 50.1126L64.729 49.6526L63.6208 47.9876ZM62.9297 48.4476L61.8215 46.7827L61.1304 47.2427L62.2386 48.9076L63.3468 50.5726L64.0379 50.1126L62.9297 48.4476ZM62.2386 48.9076L61.1304 47.2427C60.3938 47.733 59.7941 48.3909 59.4179 49.2238L61.2405 50.0472L63.0632 50.8705C63.0962 50.7974 63.1619 50.6956 63.3468 50.5726L62.2386 48.9076ZM61.2405 50.0472L59.4179 49.2238L59.1109 49.9033L60.9336 50.7267L62.7563 51.55L63.0632 50.8705L61.2405 50.0472ZM60.9336 50.7267L59.1109 49.9033L58.804 50.5828L60.6266 51.4062L62.4493 52.2295L62.7563 51.55L60.9336 50.7267ZM60.6266 51.4062L58.804 50.5828C58.5598 51.1234 58.3471 51.6986 58.1629 52.305L60.0767 52.8861L61.9904 53.4672C62.1303 53.0064 62.2842 52.595 62.4493 52.2295L60.6266 51.4062ZM60.0767 52.8861L58.1629 52.305L57.9199 53.1054L59.8336 53.6865L61.7474 54.2675L61.9904 53.4672L60.0767 52.8861ZM59.8336 53.6865L57.9199 53.1054L57.6769 53.9058L59.5906 54.4868L61.5043 55.0679L61.7474 54.2675L59.8336 53.6865ZM59.5906 54.4868L57.6769 53.9058C57.6702 53.9279 57.6662 53.9342 57.6688 53.9292C57.6717 53.9237 57.6794 53.9106 57.6932 53.894C57.7072 53.8772 57.7226 53.8627 57.737 53.8516C57.7511 53.8406 57.7589 53.8371 57.7558 53.8386L58.633 55.636L59.5102 57.4333C60.5146 56.9431 61.1903 56.1022 61.5043 55.0679L59.5906 54.4868ZM58.633 55.636L57.7558 53.8386L57.0413 54.1874L57.9185 55.9847L58.7957 57.7821L59.5102 57.4333L58.633 55.636ZM57.9185 55.9847L57.0413 54.1874L56.3267 54.5361L57.2039 56.3335L58.0811 58.1308L58.7957 57.7821L57.9185 55.9847ZM57.2039 56.3335L56.3267 54.5361C55.5701 54.9054 54.9271 55.4327 54.4155 56.1006L56.0032 57.3168L57.5909 58.5331C57.7275 58.3548 57.885 58.2265 58.0811 58.1308L57.2039 56.3335ZM56.0032 57.3168L54.4155 56.1006L53.9294 56.7352L55.5171 57.9514L57.1048 59.1677L57.5909 58.5331L56.0032 57.3168ZM55.5171 57.9514L53.9294 56.7352L53.4432 57.3698L55.0309 58.586L56.6186 59.8023L57.1048 59.1677L55.5171 57.9514ZM55.0309 58.586L53.4432 57.3698C53.3663 57.4702 53.2983 57.5141 53.1985 57.5452L53.7933 59.4547L54.3881 61.3642C55.2903 61.0832 56.0474 60.548 56.6186 59.8023L55.0309 58.586ZM53.7933 59.4547L53.1985 57.5452L52.447 57.7793L53.0418 59.6888L53.6366 61.5983L54.3881 61.3642L53.7933 59.4547ZM53.0418 59.6888L52.447 57.7793L51.6955 58.0134L52.2903 59.9229L52.8851 61.8324L53.6366 61.5983L53.0418 59.6888ZM52.2903 59.9229L51.6955 58.0134C51.3537 58.1199 51.0019 58.1834 50.6361 58.2034L50.7453 60.2004L50.8545 62.1974C51.5468 62.1596 52.225 62.0381 52.8851 61.8324L52.2903 59.9229ZM50.7453 60.2004L50.6361 58.2034L49.8426 58.2468L49.9518 60.2438L50.061 62.2408L50.8545 62.1974L50.7453 60.2004ZM49.9518 60.2438L49.8426 58.2468L49.0491 58.2902L49.1583 60.2872L49.2675 62.2842L50.061 62.2408L49.9518 60.2438ZM49.1583 60.2872L49.0491 58.2902C47.9909 58.3481 47.0704 58.7961 46.3483 59.5211L47.7653 60.9325L49.1823 62.3439C49.2085 62.3176 49.2276 62.3025 49.2386 62.2946C49.2442 62.2906 49.2482 62.2882 49.2505 62.2868C49.2528 62.2855 49.2539 62.285 49.2539 62.285C49.254 62.285 49.2538 62.285 49.2535 62.2851C49.2532 62.2853 49.2529 62.2854 49.2525 62.2855C49.2515 62.2859 49.2509 62.286 49.2508 62.2861C49.25 62.2862 49.2549 62.2849 49.2675 62.2842L49.1583 60.2872ZM47.7653 60.9325L46.3483 59.5211L45.7487 60.123L47.1658 61.5344L48.5828 62.9458L49.1823 62.3439L47.7653 60.9325ZM47.1658 61.5344L45.7487 60.123L45.1492 60.7248L46.5662 62.1363L47.9832 63.5477L48.5828 62.9458L47.1658 61.5344ZM46.5662 62.1363L45.1492 60.7248C44.9592 60.9156 44.7876 61.0098 44.6281 61.0592L45.2203 62.9695L45.8125 64.8799C46.6482 64.6208 47.3739 64.1594 47.9832 63.5477L46.5662 62.1363ZM45.2203 62.9695L44.6281 61.0592L43.8817 61.2906L44.4738 63.2009L45.066 65.1112L45.8125 64.8799L45.2203 62.9695ZM44.4738 63.2009L43.8817 61.2906L43.1352 61.522L43.7274 63.4323L44.3195 65.3426L45.066 65.1112L44.4738 63.2009ZM43.7274 63.4323L43.1352 61.522C43.1127 61.529 43.1007 61.5295 43.0879 61.5287C43.0727 61.5278 43.0271 61.5229 42.944 61.489L42.1894 63.3412L41.4348 65.1934C42.3482 65.5655 43.3374 65.6471 44.3195 65.3426L43.7274 63.4323ZM42.1894 63.3412L42.944 61.489L42.1524 61.1665L41.3978 63.0187L40.6432 64.8709L41.4348 65.1934L42.1894 63.3412ZM41.3978 63.0187L42.1524 61.1665L41.3609 60.844L40.6062 62.6962L39.8516 64.5484L40.6432 64.8709L41.3978 63.0187ZM40.6062 62.6962L41.3609 60.844C40.5265 60.5041 39.6292 60.3753 38.7128 60.5385L39.0634 62.5075L39.4141 64.4765C39.4994 64.4613 39.6306 64.4583 39.8516 64.5484L40.6062 62.6962ZM39.0634 62.5075L38.7128 60.5385L37.9615 60.6723L38.3122 62.6413L38.6629 64.6103L39.4141 64.4765L39.0634 62.5075ZM38.3122 62.6413L37.9615 60.6723L37.2103 60.8061L37.5609 62.7751L37.9116 64.7441L38.6629 64.6103L38.3122 62.6413ZM37.5609 62.7751L37.2103 60.8061C37.1985 60.8082 37.1937 60.808 37.1946 60.808C37.1957 60.808 37.1979 60.8082 37.1997 60.8086C37.2015 60.8089 37.1983 60.8085 37.1891 60.805C37.1798 60.8013 37.1619 60.7935 37.1353 60.7778L36.117 62.4992L35.0988 64.2206C35.9481 64.7229 36.9123 64.9221 37.9116 64.7441L37.5609 62.7751ZM36.117 62.4992L37.1353 60.7778L36.4426 60.3681L35.4244 62.0895L34.4061 63.8108L35.0988 64.2206L36.117 62.4992ZM35.4244 62.0895L36.4426 60.3681L35.75 59.9583L34.7317 61.6797L33.7135 63.4011L34.4061 63.8108L35.4244 62.0895ZM34.7317 61.6797L35.75 59.9583C35.1364 59.5954 34.4876 59.3208 33.8055 59.1569L33.3382 61.1016L32.8709 63.0462C33.1233 63.1069 33.4035 63.2178 33.7135 63.4011L34.7317 61.6797ZM33.3382 61.1016L33.8055 59.1569L33.1046 58.9885L32.6373 60.9332L32.17 62.8778L32.8709 63.0462L33.3382 61.1016ZM32.6373 60.9332L33.1046 58.9885L32.4038 58.8201L31.9365 60.7647L31.4692 62.7094L32.17 62.8778L32.6373 60.9332ZM31.9365 60.7647L32.4038 58.8201C31.5303 58.6102 30.65 58.6832 29.822 58.9121L30.3548 60.8398L30.8877 62.7675C31.2339 62.6718 31.4081 62.6947 31.4692 62.7094L31.9365 60.7647ZM30.3548 60.8398L29.822 58.9121L28.9412 59.1555L29.4741 61.0832L30.0069 63.0109L30.8877 62.7675L30.3548 60.8398ZM29.4741 61.0832L28.9412 59.1555L28.0605 59.399L28.5933 61.3267L29.1261 63.2544L30.0069 63.0109L29.4741 61.0832ZM28.5933 61.3267L28.0605 59.399C27.9605 59.4266 27.9284 59.4194 27.9471 59.4211C27.956 59.4219 27.9713 59.4244 27.9901 59.4303C28.0089 59.4362 28.024 59.4434 28.0337 59.4489L27.0391 61.1841L26.0445 62.9193C27.0381 63.4888 28.1228 63.5317 29.1261 63.2544L28.5933 61.3267ZM27.0391 61.1841L28.0337 59.4489L27.3602 59.0629L26.3656 60.7981L25.371 62.5332L26.0445 62.9193L27.0391 61.1841ZM26.3656 60.7981L27.3602 59.0629L26.6868 58.6769L25.6922 60.412L24.6976 62.1472L25.371 62.5332L26.3656 60.7981ZM25.6922 60.412L26.6868 58.6769C26.35 58.4838 26.0365 58.2612 25.7448 58.008L24.4339 59.5185L23.123 61.029C23.611 61.4525 24.1364 61.8256 24.6976 62.1472L25.6922 60.412ZM24.4339 59.5185L25.7448 58.008L25.1599 57.5004L23.849 59.0109L22.5381 60.5214L23.123 61.029L24.4339 59.5185ZM23.849 59.0109L25.1599 57.5004L24.5751 56.9929L23.2642 58.5033L21.9533 60.0138L22.5381 60.5214L23.849 59.0109ZM23.2642 58.5033L24.5751 56.9929C24.1175 56.5958 23.6369 56.2324 23.1333 55.9035L22.0397 57.578L20.946 59.2525C21.2954 59.4807 21.6311 59.7342 21.9533 60.0138L23.2642 58.5033ZM22.0397 57.578L23.1333 55.9035L22.4937 55.4857L21.4 57.1602L20.3063 58.8347L20.946 59.2525L22.0397 57.578ZM21.4 57.1602L22.4937 55.4857L21.854 55.0679L20.7603 56.7424L19.6666 58.4169L20.3063 58.8347L21.4 57.1602ZM20.7603 56.7424L21.854 55.0679C21.7206 54.9808 21.6112 54.8666 21.517 54.6891L19.7502 55.6264L17.9835 56.5637C18.3832 57.3171 18.9472 57.9469 19.6666 58.4169L20.7603 56.7424ZM19.7502 55.6264L21.517 54.6891L21.1466 53.9909L19.3798 54.9282L17.6131 55.8655L17.9835 56.5637L19.7502 55.6264ZM19.3798 54.9282L21.1466 53.9909L20.7762 53.2927L19.0094 54.23L17.2427 55.1673L17.6131 55.8655L19.3798 54.9282ZM19.0094 54.23L20.7762 53.2927C20.3364 52.4637 19.6799 51.8203 18.8604 51.3835L17.9197 53.1485L16.9791 54.9135C17.1186 54.9878 17.1886 55.0654 17.2427 55.1673L19.0094 54.23ZM17.9197 53.1485L18.8604 51.3835L18.1411 51.0002L17.2004 52.7652L16.2598 54.5301L16.9791 54.9135L17.9197 53.1485ZM17.2004 52.7652L18.1411 51.0002L17.4218 50.6168L16.4812 52.3818L15.5405 54.1468L16.2598 54.5301L17.2004 52.7652ZM16.4812 52.3818L17.4218 50.6168C17.4412 50.6272 17.5153 50.675 17.5824 50.7757C17.6478 50.8738 17.6554 50.9454 17.6541 50.9342L15.6668 51.1593L13.6795 51.3845C13.8138 52.57 14.4553 53.5684 15.5405 54.1468L16.4812 52.3818ZM15.6668 51.1593L17.6541 50.9342L17.559 50.0951L15.5717 50.3202L13.5844 50.5454L13.6795 51.3845L15.6668 51.1593ZM15.5717 50.3202L17.559 50.0951L17.464 49.256L15.4767 49.4811L13.4894 49.7062L13.5844 50.5454L15.5717 50.3202ZM15.4767 49.4811L17.464 49.256C17.3644 48.3771 17.0588 47.5401 16.4957 46.8197L14.9199 48.0513L13.3442 49.2829C13.3966 49.3501 13.4622 49.4663 13.4894 49.7062L15.4767 49.4811ZM14.9199 48.0513L16.4957 46.8197L16.0341 46.229L14.4583 47.4606L12.8825 48.6922L13.3442 49.2829L14.9199 48.0513ZM14.4583 47.4606L16.0341 46.229L15.5724 45.6383L13.9966 46.8699L12.4208 48.1016L12.8825 48.6922L14.4583 47.4606ZM13.9966 46.8699L15.5724 45.6383C15.3332 45.3323 15.1197 45.0068 14.9316 44.6606L13.1743 45.6155L11.4169 46.5704C11.7098 47.1092 12.0445 47.62 12.4208 48.1016L13.9966 46.8699ZM13.1743 45.6155L14.9316 44.6606L14.5709 43.9968L12.8136 44.9517L11.0563 45.9066L11.4169 46.5704L13.1743 45.6155ZM12.8136 44.9517L14.5709 43.9968L14.2102 43.333L12.4529 44.2879L10.6956 45.2428L11.0563 45.9066L12.8136 44.9517ZM12.4529 44.2879L14.2102 43.333C14.0993 43.1289 14.0344 42.9169 14.0122 42.6809L12.021 42.8685L10.0298 43.0562C10.1025 43.8275 10.3256 44.5618 10.6956 45.2428L12.4529 44.2879ZM12.021 42.8685L14.0122 42.6809L13.941 41.9253L11.9498 42.1129L9.95862 42.3006L10.0298 43.0562L12.021 42.8685ZM11.9498 42.1129L13.941 41.9253L13.8698 41.1697L11.8786 41.3574L9.88741 41.545L9.95862 42.3006L11.9498 42.1129ZM11.8786 41.3574L13.8698 41.1697C13.786 40.2809 13.4575 39.4714 12.9565 38.7587L11.3203 39.9089L9.68411 41.0591C9.83255 41.2702 9.87624 41.4264 9.88741 41.545L11.8786 41.3574ZM11.3203 39.9089L12.9565 38.7587L12.4694 38.0658L10.8332 39.216L9.19701 40.3662L9.68411 41.0591L11.3203 39.9089ZM10.8332 39.216L12.4694 38.0658L11.9823 37.3729L10.3461 38.5231L8.70992 39.6732L9.19701 40.3662L10.8332 39.216ZM10.3461 38.5231L11.9823 37.3729C11.9604 37.3417 11.9807 37.3607 11.9932 37.4241C11.9989 37.4534 12.0009 37.4821 12 37.5072C11.9995 37.5192 11.9985 37.5287 11.9975 37.5355C11.9965 37.5423 11.9956 37.5457 11.9957 37.5454L10.0578 37.051L8.11982 36.5567C7.83439 37.6756 8.06976 38.7626 8.70992 39.6732L10.3461 38.5231ZM10.0578 37.051L11.9957 37.5454L12.1944 36.7663L10.2565 36.2719L8.31857 35.7776L8.11982 36.5567L10.0578 37.051ZM10.2565 36.2719L12.1944 36.7663L12.3932 35.9872L10.4553 35.4928L8.51731 34.9985L8.31857 35.7776L10.2565 36.2719ZM10.4553 35.4928L12.3932 35.9872C12.5611 35.3288 12.6554 34.6648 12.6692 33.9982L10.6697 33.9568L8.6701 33.9154C8.66301 34.258 8.61436 34.618 8.51731 34.9985L10.4553 35.4928ZM10.6697 33.9568L12.6692 33.9982L12.6849 33.2414L10.6853 33.2L8.68577 33.1586L8.6701 33.9154L10.6697 33.9568ZM10.6853 33.2L12.6849 33.2414L12.7006 32.4845L10.701 32.4431L8.70144 32.4017L8.68577 33.1586L10.6853 33.2ZM10.701 32.4431L12.7006 32.4845C12.7109 31.9847 12.7232 31.4805 12.7373 30.9717L10.7381 30.9162L8.73886 30.8606C8.72446 31.3786 8.71199 31.8923 8.70144 32.4017L10.701 32.4431ZM10.7381 30.9162L12.7373 30.9717L12.7587 30.2016L10.7595 30.1461L8.76026 30.0905L8.73886 30.8606L10.7381 30.9162ZM10.7595 30.1461L12.7587 30.2016L12.7801 29.4316L10.7809 29.376L8.78166 29.3204L8.76026 30.0905L10.7595 30.1461ZM10.7809 29.376L12.7801 29.4316C12.7808 29.4084 12.784 29.3998 12.7867 29.3932C12.7901 29.3847 12.8053 29.3502 12.857 29.2908L11.3476 27.9787L9.83812 26.6666C9.19652 27.4047 8.80985 28.3064 8.78166 29.3204L10.7809 29.376ZM11.3476 27.9787L12.857 29.2908L13.4023 28.6635L11.8928 27.3514L10.3834 26.0393L9.83812 26.6666L11.3476 27.9787ZM11.8928 27.3514L13.4023 28.6635L13.9475 28.0362L12.4381 26.7241L10.9286 25.412L10.3834 26.0393L11.8928 27.3514ZM12.4381 26.7241L13.9475 28.0362C14.5784 27.3105 14.9657 26.4328 15.0298 25.4476L13.0341 25.3177L11.0383 25.1878C11.0348 25.2415 11.0248 25.3014 10.9286 25.412L12.4381 26.7241ZM13.0341 25.3177L15.0298 25.4476L15.0806 24.6684L13.0848 24.5385L11.089 24.4086L11.0383 25.1878L13.0341 25.3177ZM13.0848 24.5385L15.0806 24.6684L15.1313 23.8892L13.1355 23.7593L11.1397 23.6294L11.089 24.4086L13.0848 24.5385ZM13.1355 23.7593L15.1313 23.8892C15.131 23.8934 15.1293 23.9119 15.1211 23.9404C15.1128 23.9694 15.0999 24.0012 15.0824 24.0323C15.0449 24.0992 15.0112 24.1197 15.0318 24.1045L13.8454 22.4944L12.6589 20.8843C11.7711 21.5386 11.2139 22.4893 11.1397 23.6294L13.1355 23.7593ZM13.8454 22.4944L15.0318 24.1045L15.6909 23.6188L14.5045 22.0087L13.3181 20.3986L12.6589 20.8843L13.8454 22.4944ZM14.5045 22.0087L15.6909 23.6188L16.3501 23.1331L15.1636 21.523L13.9772 19.9129L13.3181 20.3986L14.5045 22.0087ZM15.1636 21.523L16.3501 23.1331C17.1425 22.5492 17.7066 21.7476 17.952 20.7688L16.012 20.2825L14.072 19.7962C14.0645 19.8264 14.0575 19.8366 14.0544 19.841C14.0506 19.8466 14.0324 19.8723 13.9772 19.9129L15.1636 21.523ZM16.012 20.2825L17.952 20.7688L18.1412 20.0141L16.2012 19.5277L14.2613 19.0414L14.072 19.7962L16.012 20.2825ZM16.2012 19.5277L18.1412 20.0141L18.3304 19.2593L16.3904 18.7729L14.4505 18.2866L14.2613 19.0414L16.2012 19.5277ZM16.3904 18.7729L18.3304 19.2593C18.3669 19.1139 18.42 19.0369 18.4897 18.9719L17.126 17.5089L15.7623 16.0459C15.1036 16.6599 14.6663 17.4256 14.4505 18.2866L16.3904 18.7729ZM17.126 17.5089L18.4897 18.9719L19.036 18.4627L17.6724 16.9996L16.3087 15.5366L15.7623 16.0459L17.126 17.5089ZM17.6724 16.9996L19.036 18.4627L19.5824 17.9534L18.2187 16.4904L16.855 15.0274L16.3087 15.5366L17.6724 16.9996ZM18.2187 16.4904L19.5824 17.9534C20.0478 17.5196 20.4655 17.0406 20.835 16.5187L19.2028 15.3629L17.5706 14.2071C17.3564 14.5096 17.1181 14.7822 16.855 15.0274L18.2187 16.4904ZM19.2028 15.3629L20.835 16.5187L21.2728 15.9005L19.6406 14.7447L18.0084 13.5889L17.5706 14.2071L19.2028 15.3629ZM19.6406 14.7447L21.2728 15.9005L21.7106 15.2823L20.0784 14.1265L18.4462 12.9707L18.0084 13.5889L19.6406 14.7447ZM20.0784 14.1265L21.7106 15.2823C21.7188 15.2707 21.724 15.2653 21.7256 15.2637C21.7272 15.2622 21.728 15.2615 21.7292 15.2607C21.7292 15.2607 21.7491 15.2463 21.808 15.2303L21.2849 13.3L20.7619 11.3696C19.8258 11.6232 19.0211 12.1588 18.4462 12.9707L20.0784 14.1265ZM21.2849 13.3L21.808 15.2303L22.5767 15.0221L22.0537 13.0917L21.5306 11.1613L20.7619 11.3696L21.2849 13.3ZM22.0537 13.0917L22.5767 15.0221L23.3455 14.8138L22.8224 12.8834L22.2994 10.953L21.5306 11.1613L22.0537 13.0917ZM22.8224 12.8834L23.3455 14.8138C24.3844 14.5323 25.1997 13.8826 25.7362 12.9826L24.0184 11.9585L22.3005 10.9343C22.2861 10.9586 22.2766 10.9699 22.2742 10.9727C22.2729 10.9742 22.273 10.9739 22.2746 10.9724C22.2761 10.9709 22.2787 10.9686 22.2823 10.9659C22.2858 10.9631 22.2898 10.9604 22.2938 10.9579C22.2979 10.9553 22.3015 10.9534 22.3043 10.952C22.3104 10.949 22.3098 10.9501 22.2994 10.953L22.8224 12.8834ZM24.0184 11.9585L25.7362 12.9826L26.1635 12.2661L24.4456 11.2419L22.7277 10.2177L22.3005 10.9343L24.0184 11.9585ZM24.4456 11.2419L26.1635 12.2661L26.5907 11.5495L24.8728 10.5253L23.1549 9.50116L22.7277 10.2177L24.4456 11.2419ZM24.8728 10.5253L26.5907 11.5495C26.6163 11.5066 26.6164 11.5213 26.5761 11.5513C26.5574 11.5652 26.5364 11.5776 26.5154 11.587C26.4946 11.5963 26.4802 11.5999 26.4762 11.6008L26.0539 9.64588L25.6316 7.69097C24.5392 7.92694 23.6979 8.59036 23.1549 9.50116L24.8728 10.5253ZM26.0539 9.64588L26.4762 11.6008L27.2301 11.4379L26.8078 9.48303L26.3855 7.52812L25.6316 7.69097L26.0539 9.64588ZM26.8078 9.48303L27.2301 11.4379L27.984 11.2751L27.5617 9.32018L27.1395 7.36527L26.3855 7.52812L26.8078 9.48303ZM27.5617 9.32018L27.984 11.2751C28.7997 11.0989 29.5398 10.7392 30.1886 10.2214L28.9411 8.65819L27.6936 7.09497C27.5085 7.24269 27.329 7.32432 27.1395 7.36527L27.5617 9.32018ZM28.9411 8.65819L30.1886 10.2214L30.8141 9.72228L29.5665 8.15906L28.319 6.59583L27.6936 7.09497L28.9411 8.65819ZM29.5665 8.15906L30.8141 9.72228L31.4395 9.22315L30.192 7.65992L28.9444 6.0967L28.319 6.59583L29.5665 8.15906ZM30.192 7.65992L31.4395 9.22315C31.5666 9.12172 31.6684 9.08683 31.78 9.07587L31.5845 7.08545L31.389 5.09503C30.4778 5.18451 29.6513 5.5326 28.9444 6.0967L30.192 7.65992ZM31.5845 7.08545L31.78 9.07587L32.5471 9.00054L32.3516 7.01011L32.1561 5.01969L31.389 5.09503L31.5845 7.08545ZM32.3516 7.01011L32.5471 9.00054L33.3141 8.9252L33.1187 6.93478L32.9232 4.94435L32.1561 5.01969L32.3516 7.01011ZM33.1187 6.93478L33.3141 8.9252C33.8353 8.87402 34.3521 8.81939 34.8645 8.76131L34.6393 6.77404L34.414 4.78676C33.9218 4.84255 33.4248 4.89509 32.9232 4.94435L33.1187 6.93478ZM34.6393 6.77404L34.8645 8.76131L35.618 8.67591L35.3928 6.68863L35.1676 4.70136L34.414 4.78676L34.6393 6.77404ZM35.3928 6.68863L35.618 8.67591L36.3716 8.59051L36.1463 6.60323L35.9211 4.61595L35.1676 4.70136L35.3928 6.68863ZM36.1463 6.60323L36.3716 8.59051C36.9452 8.5255 37.4934 8.42774 37.9813 8.27651L37.3893 6.36615L36.7973 4.45579C36.6326 4.5068 36.3522 4.56709 35.9211 4.61595L36.1463 6.60323ZM37.3893 6.36615L37.9813 8.27651L38.4708 8.12484L37.8787 6.21447L37.2867 4.30411L36.7973 4.45579L37.3893 6.36615ZM37.8787 6.21447L38.4708 8.12484L38.9602 7.97316L38.3681 6.06279L37.7761 4.15243L37.2867 4.30411L37.8787 6.21447ZM38.3681 6.06279L38.9602 7.97316C39.0823 7.93531 38.8561 8.03283 38.4875 7.98683C38.2722 7.95995 37.8203 7.85972 37.4169 7.45856C36.9755 7.01972 36.8576 6.48905 36.8576 6.12388H38.8576H40.8576C40.8576 5.68779 40.7193 5.10138 40.2371 4.62199C39.7929 4.18028 39.2798 4.05468 38.9829 4.01762C38.4512 3.95126 37.9803 4.08916 37.7761 4.15243L38.3681 6.06279ZM38.8576 6.12388H36.8576V6.33664H38.8576H40.8576V6.12388H38.8576ZM38.8576 6.33664H36.8576V6.54941H38.8576H40.8576V6.33664H38.8576ZM38.8576 6.54941H36.8576C36.8576 7.17059 37.1224 7.62806 37.3204 7.88422C37.5173 8.13887 37.7358 8.31199 37.8869 8.4183C38.1892 8.63105 38.5311 8.78946 38.8222 8.90847L39.5792 7.0573L40.3363 5.20612C40.1462 5.12839 40.1273 5.10376 40.1891 5.14722C40.2198 5.16888 40.3482 5.26078 40.4849 5.43765C40.6229 5.61603 40.8576 5.99914 40.8576 6.54941H38.8576ZM39.5792 7.0573L38.8222 8.90847L39.5438 9.2036L40.3009 7.35242L41.0579 5.50125L40.3363 5.20612L39.5792 7.0573Z" fill="#29A047"/>
</g>
<defs>
<filter id="filter0_d_3011_20" x="0" y="0" width="77.2196" height="77.529" filterUnits="userSpaceOnUse" color-interpolation-filters="sRGB">
<feFlood flood-opacity="0" result="BackgroundImageFix"/>
<feColorMatrix in="SourceAlpha" type="matrix" values="0 0 0 0 0 0 0 0 0 0 0 0 0 0 0 0 0 0 127 0" result="hardAlpha"/>
<feOffset dy="4"/>
<feGaussianBlur stdDeviation="4"/>
<feComposite in2="hardAlpha" operator="out"/>
<feColorMatrix type="matrix" values="0 0 0 0 0 0 0 0 0 0 0 0 0 0 0 0 0 0 0.25 0"/>
<feBlend mode="normal" in2="BackgroundImageFix" result="effect1_dropShadow_3011_20"/>
<feBlend mode="normal" in="SourceGraphic" in2="effect1_dropShadow_3011_20" result="shape"/>
</filter>
</defs>
</svg>
