<svg width="19" height="19" viewBox="0 0 19 19" fill="none" xmlns="http://www.w3.org/2000/svg">
<path d="M1.25586 9.31543C1.25586 4.89715 4.83758 1.31543 9.25586 1.31543C13.6741 1.31543 17.2559 4.89715 17.2559 9.31543C17.2559 13.7337 13.6741 17.3154 9.25586 17.3154C4.83758 17.3154 1.25586 13.7337 1.25586 9.31543Z" fill="white"/>
<path d="M10.0518 1.11969L10.2906 2.09075L10.0518 1.11969ZM10.4498 1.02182L10.211 0.0507491L10.4498 1.02182ZM11.1449 1.25577L11.8899 0.588645L11.1449 1.25577ZM12.4262 2.29644L12.311 3.28979L12.4262 2.29644ZM13.818 2.74915L12.9996 3.32377L13.818 2.74915ZM14.2634 3.38351L15.0818 2.80889L14.2634 3.38351ZM14.8398 3.88461L15.3011 2.99739L14.8398 3.88461ZM15.5471 4.25244L15.0858 5.13966L15.5471 4.25244ZM16.1083 4.76296L16.9524 4.22668L16.1083 4.76296ZM16.3158 5.08955L15.4718 5.62583L16.3158 5.08955ZM16.5233 5.41614L15.6793 5.95242L16.5233 5.41614ZM16.6784 6.1558L15.6864 6.02993L16.6784 6.1558ZM16.5736 6.98195L17.5657 7.10782L16.5736 6.98195ZM16.6404 7.73755L15.6959 8.06613L16.6404 7.73755ZM16.8787 8.42262L15.9342 8.7512L16.8787 8.42262ZM17.0353 9.13402L16.0404 9.23497L17.0353 9.13402ZM17.0727 9.50289L18.0676 9.40194L17.0727 9.50289ZM17.1102 9.87176L18.1051 9.77081L17.1102 9.87176ZM16.9912 10.5795L17.8992 10.9985L16.9912 10.5795ZM16.6785 11.2573L17.5865 11.6763L16.6785 11.2573ZM16.4989 11.9863L15.5007 11.927L16.4989 11.9863ZM16.4757 12.3764L17.4739 12.4358L16.4757 12.3764ZM16.4525 12.7665L17.4507 12.8259L16.4525 12.7665ZM16.2988 13.5387L17.2451 13.8619L16.2988 13.5387ZM16.0378 14.3028L15.0915 13.9795L16.0378 14.3028ZM15.5771 14.9112L15.0115 14.0865L15.5771 14.9112ZM14.9167 15.3641L15.4823 16.1888L14.9167 15.3641ZM14.2434 15.7634L14.6933 16.6565L14.2434 15.7634ZM13.5572 16.1091L14.007 17.0022L13.5572 16.1091ZM12.9115 16.5509L12.247 15.8036L12.9115 16.5509ZM11.1853 17.2284L11.3417 16.2407L11.1853 17.2284ZM10.7761 17.1637L10.9325 16.176L10.7761 17.1637ZM9.99984 17.0999L9.99697 16.0999L9.99984 17.0999ZM9.26572 17.102L9.26859 18.102L9.26572 17.102ZM8.08515 17.3849L7.75779 16.44L8.08515 17.3849ZM7.6784 17.5259L8.00576 18.4708L7.6784 17.5259ZM6.99648 17.3025L7.79445 16.6998L6.99648 17.3025ZM6.72132 16.9382L5.92335 17.5409L6.72132 16.9382ZM6.44616 16.5739L5.64819 17.1766L6.44616 16.5739ZM5.88386 16.0062L6.46184 15.1901L5.88386 16.0062ZM5.59672 15.8028L6.17471 14.9868L5.59672 15.8028ZM5.30959 15.5994L4.73161 16.4155H4.73161L5.30959 15.5994ZM2.71094 14.1409L3.57209 13.6326L2.71094 14.1409ZM2.37765 13.4535L1.44434 13.8126L2.37765 13.4535ZM2.1064 12.7485L3.03972 12.3894L2.1064 12.7485ZM1.79431 12.057L2.68127 11.5952L1.79431 12.057ZM1.44137 11.3792L0.554405 11.841L1.44137 11.3792ZM1.19159 10.6611L0.209773 10.851L1.19159 10.6611ZM1.11827 10.282L2.10008 10.0921L1.11827 10.282ZM1.04496 9.90284L0.0631441 10.0927L1.04496 9.90284ZM1.10886 8.3718L0.115882 8.25351L1.10886 8.3718ZM1.29154 6.81621L0.298296 6.70012L1.29154 6.81621ZM1.73416 5.74762L0.871179 5.24237L1.73416 5.74762ZM1.93264 5.40859L1.06967 4.90335L1.93264 5.40859ZM2.48408 4.86601L1.98448 3.99975L2.48408 4.86601ZM4.34505 3.54795L3.68363 2.79794L4.34505 3.54795ZM5.04312 2.59982L4.18738 2.08242L5.04312 2.59982ZM5.25847 2.24365L4.40273 1.72625L5.25847 2.24365ZM8.71329 1.77083L8.52132 0.789431L8.71329 1.77083ZM8.89414 1.73546L9.08611 2.71686L8.89414 1.73546ZM10.0518 1.11969L10.2906 2.09075L10.6886 1.99288L10.4498 1.02182L10.211 0.0507491L9.813 0.14862L10.0518 1.11969ZM10.4498 1.02182L10.6886 1.99288C10.6592 2.0001 10.5883 2.00765 10.5036 1.97913C10.4238 1.95228 10.3916 1.91356 10.4 1.9229L11.1449 1.25577L11.8899 0.588645C11.7001 0.376765 11.453 0.188446 11.1415 0.0836083C10.8251 -0.0228949 10.5057 -0.0217175 10.211 0.0507491L10.4498 1.02182ZM11.1449 1.25577L10.4 1.9229L10.6972 2.25473L11.4421 1.5876L12.187 0.920475L11.8899 0.588645L11.1449 1.25577ZM11.4421 1.5876L10.6972 2.25473L10.9943 2.58656L11.7393 1.91943L12.4842 1.2523L12.187 0.920475L11.4421 1.5876ZM11.7393 1.91943L10.9943 2.58656C11.3319 2.96347 11.7755 3.22771 12.311 3.28979L12.4262 2.29644L12.5413 1.30309C12.5391 1.30283 12.5393 1.30268 12.5408 1.30316C12.5422 1.30363 12.5424 1.3039 12.5407 1.30296C12.538 1.30144 12.518 1.29005 12.4842 1.2523L11.7393 1.91943ZM12.4262 2.29644L12.311 3.28979L12.7007 3.33496L12.8159 2.34161L12.931 1.34827L12.5413 1.30309L12.4262 2.29644ZM12.8159 2.34161L12.7007 3.33496L13.0904 3.38014L13.2056 2.38679L13.3207 1.39344L12.931 1.34827L12.8159 2.34161ZM13.2056 2.38679L13.0904 3.38014C13.0955 3.38073 13.0747 3.3786 13.0443 3.3606C13.0136 3.34243 12.9996 3.32375 12.9996 3.32377L13.818 2.74915L14.6364 2.17453C14.3217 1.72628 13.86 1.45595 13.3207 1.39344L13.2056 2.38679ZM13.818 2.74915L12.9996 3.32377L13.2223 3.64095L14.0407 3.06633L14.8591 2.49171L14.6364 2.17453L13.818 2.74915ZM14.0407 3.06633L13.2223 3.64095L13.445 3.95813L14.2634 3.38351L15.0818 2.80889L14.8591 2.49171L14.0407 3.06633ZM14.2634 3.38351L13.445 3.95813C13.6883 4.30476 14.0045 4.57737 14.3784 4.77182L14.8398 3.88461L15.3011 2.99739C15.2035 2.94662 15.1354 2.88516 15.0818 2.80889L14.2634 3.38351ZM14.8398 3.88461L14.3784 4.77182L14.7321 4.95574L15.1935 4.06853L15.6548 3.18131L15.3011 2.99739L14.8398 3.88461ZM15.1935 4.06853L14.7321 4.95574L15.0858 5.13966L15.5471 4.25244L16.0085 3.36523L15.6548 3.18131L15.1935 4.06853ZM15.5471 4.25244L15.0858 5.13966C15.1703 5.1836 15.2233 5.23477 15.2643 5.29924L16.1083 4.76296L16.9524 4.22668C16.7166 3.85568 16.3956 3.56652 16.0085 3.36523L15.5471 4.25244ZM16.1083 4.76296L15.2643 5.29924L15.4718 5.62583L16.3158 5.08955L17.1599 4.55327L16.9524 4.22668L16.1083 4.76296ZM16.3158 5.08955L15.4718 5.62583L15.6793 5.95242L16.5233 5.41614L17.3674 4.87986L17.1599 4.55327L16.3158 5.08955ZM16.5233 5.41614L15.6793 5.95242C15.6856 5.96239 15.6866 5.96668 15.6872 5.96958C15.688 5.97348 15.6913 5.99139 15.6864 6.02993L16.6784 6.1558L17.6705 6.28168C17.7324 5.794 17.6406 5.30984 17.3674 4.87986L16.5233 5.41614ZM16.6784 6.1558L15.6864 6.02993L15.634 6.443L16.626 6.56887L17.6181 6.69475L17.6705 6.28168L16.6784 6.1558ZM16.626 6.56887L15.634 6.443L15.5816 6.85607L16.5736 6.98195L17.5657 7.10782L17.6181 6.69475L16.626 6.56887ZM16.5736 6.98195L15.5816 6.85607C15.5301 7.26184 15.5587 7.67179 15.6959 8.06613L16.6404 7.73755L17.5848 7.40897C17.5632 7.3466 17.5473 7.25281 17.5657 7.10782L16.5736 6.98195ZM16.6404 7.73755L15.6959 8.06613L15.8151 8.40867L16.7595 8.08008L17.704 7.7515L17.5848 7.40897L16.6404 7.73755ZM16.7595 8.08008L15.8151 8.40867L15.9342 8.7512L16.8787 8.42262L17.8232 8.09403L17.704 7.7515L16.7595 8.08008ZM16.8787 8.42262L15.9342 8.7512C15.9875 8.90427 16.0232 9.0649 16.0404 9.23497L17.0353 9.13402L18.0302 9.03307C17.9975 8.71131 17.9288 8.39768 17.8232 8.09403L16.8787 8.42262ZM17.0353 9.13402L16.0404 9.23497L16.0778 9.60384L17.0727 9.50289L18.0676 9.40194L18.0302 9.03307L17.0353 9.13402ZM17.0727 9.50289L16.0778 9.60384L16.1153 9.97271L17.1102 9.87176L18.1051 9.77081L18.0676 9.40194L17.0727 9.50289ZM17.1102 9.87176L16.1153 9.97271C16.122 10.0394 16.1131 10.0959 16.0832 10.1606L16.9912 10.5795L17.8992 10.9985C18.0779 10.6113 18.1482 10.1959 18.1051 9.77081L17.1102 9.87176ZM16.9912 10.5795L16.0832 10.1606L15.9268 10.4995L16.8349 10.9184L17.7429 11.3374L17.8992 10.9985L16.9912 10.5795ZM16.8349 10.9184L15.9268 10.4995L15.7705 10.8384L16.6785 11.2573L17.5865 11.6763L17.7429 11.3374L16.8349 10.9184ZM16.6785 11.2573L15.7705 10.8384C15.6116 11.1828 15.5232 11.5484 15.5007 11.927L16.4989 11.9863L17.4971 12.0457C17.5056 11.9042 17.5369 11.7838 17.5865 11.6763L16.6785 11.2573ZM16.4989 11.9863L15.5007 11.927L15.4775 12.3171L16.4757 12.3764L17.4739 12.4358L17.4971 12.0457L16.4989 11.9863ZM16.4757 12.3764L15.4775 12.3171L15.4543 12.7072L16.4525 12.7665L17.4507 12.8259L17.4739 12.4358L16.4757 12.3764ZM16.4525 12.7665L15.4543 12.7072C15.4443 12.8744 15.4113 13.0431 15.3525 13.2154L16.2988 13.5387L17.2451 13.8619C17.3602 13.5249 17.4297 13.1788 17.4507 12.8259L16.4525 12.7665ZM16.2988 13.5387L15.3525 13.2154L15.222 13.5975L16.1683 13.9207L17.1146 14.244L17.2451 13.8619L16.2988 13.5387ZM16.1683 13.9207L15.222 13.5975L15.0915 13.9795L16.0378 14.3028L16.9841 14.626L17.1146 14.244L16.1683 13.9207ZM16.0378 14.3028L15.0915 13.9795C15.0735 14.0322 15.0525 14.0585 15.0115 14.0865L15.5771 14.9112L16.1427 15.7359C16.542 15.4621 16.8281 15.0826 16.9841 14.626L16.0378 14.3028ZM15.5771 14.9112L15.0115 14.0865L14.6813 14.313L15.2469 15.1377L15.8125 15.9624L16.1427 15.7359L15.5771 14.9112ZM15.2469 15.1377L14.6813 14.313L14.3511 14.5394L14.9167 15.3641L15.4823 16.1888L15.8125 15.9624L15.2469 15.1377ZM14.9167 15.3641L14.3511 14.5394C14.1665 14.6661 13.9806 14.7761 13.7935 14.8703L14.2434 15.7634L14.6933 16.6565C14.9637 16.5203 15.2267 16.3641 15.4823 16.1888L14.9167 15.3641ZM14.2434 15.7634L13.7935 14.8703L13.4504 15.0431L13.9003 15.9362L14.3501 16.8293L14.6933 16.6565L14.2434 15.7634ZM13.9003 15.9362L13.4504 15.0431L13.1073 15.216L13.5572 16.1091L14.007 17.0022L14.3501 16.8293L13.9003 15.9362ZM13.5572 16.1091L13.1073 15.216C12.7969 15.3723 12.5102 15.5696 12.247 15.8036L12.9115 16.5509L13.5759 17.2982C13.7163 17.1735 13.8599 17.0763 14.007 17.0022L13.5572 16.1091ZM12.9115 16.5509L12.247 15.8036L11.9444 16.0726L12.6089 16.8199L13.2734 17.5673L13.5759 17.2982L12.9115 16.5509ZM12.6089 16.8199L11.9444 16.0726L11.6419 16.3416L12.3063 17.089L12.9708 17.8363L13.2734 17.5673L12.6089 16.8199ZM12.3063 17.089L11.6419 16.3416C11.6409 16.3425 11.6459 16.3379 11.6573 16.3315C11.669 16.3249 11.684 16.3183 11.7013 16.3133C11.7389 16.3025 11.7603 16.307 11.7509 16.3055L11.5945 17.2932L11.4382 18.2809C11.9988 18.3697 12.5393 18.2199 12.9708 17.8363L12.3063 17.089ZM11.5945 17.2932L11.7509 16.3055L11.3417 16.2407L11.1853 17.2284L11.029 18.2161L11.4382 18.2809L11.5945 17.2932ZM11.1853 17.2284L11.3417 16.2407L10.9325 16.176L10.7761 17.1637L10.6198 18.1514L11.029 18.2161L11.1853 17.2284ZM10.7761 17.1637L10.9325 16.176C10.6136 16.1255 10.3013 16.0991 9.99697 16.0999L9.99984 17.0999L10.0027 18.0999C10.1878 18.0994 10.393 18.1155 10.6198 18.1514L10.7761 17.1637ZM9.99984 17.0999L9.99697 16.0999L9.62991 16.101L9.63278 17.101L9.63565 18.101L10.0027 18.0999L9.99984 17.0999ZM9.63278 17.101L9.62991 16.101L9.26285 16.102L9.26572 17.102L9.26859 18.102L9.63565 18.101L9.63278 17.101ZM9.26572 17.102L9.26285 16.102C8.89046 16.1031 8.52247 16.1751 8.16454 16.2991L8.49191 17.244L8.81927 18.1889C9.00368 18.125 9.15157 18.1024 9.26859 18.102L9.26572 17.102ZM8.49191 17.244L8.16454 16.2991L7.75779 16.44L8.08515 17.3849L8.41252 18.3298L8.81927 18.1889L8.49191 17.244ZM8.08515 17.3849L7.75779 16.44L7.35103 16.581L7.6784 17.5259L8.00576 18.4708L8.41252 18.3298L8.08515 17.3849ZM7.6784 17.5259L7.35103 16.581C7.3795 16.5711 7.48269 16.5466 7.61585 16.5902C7.74295 16.6318 7.79672 16.7028 7.79445 16.6998L6.99648 17.3025L6.19851 17.9052C6.37968 18.145 6.63883 18.3747 6.99323 18.4908C7.35369 18.6089 7.70612 18.5746 8.00576 18.4708L7.6784 17.5259ZM6.99648 17.3025L7.79445 16.6998L7.51929 16.3355L6.72132 16.9382L5.92335 17.5409L6.19851 17.9052L6.99648 17.3025ZM6.72132 16.9382L7.51929 16.3355L7.24412 15.9712L6.44616 16.5739L5.64819 17.1766L5.92335 17.5409L6.72132 16.9382ZM6.44616 16.5739L7.24412 15.9712C7.01613 15.6693 6.75779 15.3997 6.46184 15.1901L5.88386 16.0062L5.30588 16.8222C5.39277 16.8838 5.5093 16.9927 5.64819 17.1766L6.44616 16.5739ZM5.88386 16.0062L6.46184 15.1901L6.17471 14.9868L5.59672 15.8028L5.01874 16.6189L5.30588 16.8222L5.88386 16.0062ZM5.59672 15.8028L6.17471 14.9868L5.88757 14.7834L5.30959 15.5994L4.73161 16.4155L5.01874 16.6189L5.59672 15.8028ZM5.30959 15.5994L5.88757 14.7834C5.54065 14.5377 5.14388 14.4032 4.73714 14.3439L4.59282 15.3334L4.4485 16.3229C4.61461 16.3472 4.69568 16.39 4.73161 16.4155L5.30959 15.5994ZM4.59282 15.3334L4.73714 14.3439L4.30751 14.2812L4.16318 15.2707L4.01886 16.2603L4.4485 16.3229L4.59282 15.3334ZM4.16318 15.2707L4.30751 14.2812L3.87787 14.2186L3.73355 15.2081L3.58922 16.1976L4.01886 16.2603L4.16318 15.2707ZM3.73355 15.2081L3.87787 14.2186C3.85038 14.2145 3.86462 14.2121 3.89716 14.2327C3.91274 14.2426 3.92808 14.255 3.9416 14.2691C3.95499 14.2831 3.96323 14.2952 3.9674 14.3022L3.10625 14.8106L2.2451 15.3189C2.54997 15.8354 3.04299 16.1179 3.58922 16.1976L3.73355 15.2081ZM3.10625 14.8106L3.9674 14.3022L3.76975 13.9674L2.90859 14.4757L2.04744 14.9841L2.2451 15.3189L3.10625 14.8106ZM2.90859 14.4757L3.76975 13.9674L3.57209 13.6326L2.71094 14.1409L1.84978 14.6493L2.04744 14.9841L2.90859 14.4757ZM2.71094 14.1409L3.57209 13.6326C3.46764 13.4556 3.38093 13.2763 3.31097 13.0945L2.37765 13.4535L1.44434 13.8126C1.55521 14.1008 1.69069 14.3798 1.84978 14.6493L2.71094 14.1409ZM2.37765 13.4535L3.31097 13.0945L3.17534 12.7419L2.24203 13.101L1.30871 13.46L1.44434 13.8126L2.37765 13.4535ZM2.24203 13.101L3.17534 12.7419L3.03972 12.3894L2.1064 12.7485L1.17309 13.1075L1.30871 13.46L2.24203 13.101ZM2.1064 12.7485L3.03972 12.3894C2.93564 12.1189 2.81609 11.8541 2.68127 11.5952L1.79431 12.057L0.907343 12.5188C1.00782 12.7118 1.09633 12.908 1.17309 13.1075L2.1064 12.7485ZM1.79431 12.057L2.68127 11.5952L2.5048 11.2563L1.61784 11.7181L0.730874 12.1799L0.907343 12.5188L1.79431 12.057ZM1.61784 11.7181L2.5048 11.2563L2.32833 10.9173L1.44137 11.3792L0.554405 11.841L0.730874 12.1799L1.61784 11.7181ZM1.44137 11.3792L2.32833 10.9173C2.25574 10.7779 2.20415 10.6303 2.1734 10.4713L1.19159 10.6611L0.209773 10.851C0.276777 11.1975 0.391705 11.5285 0.554405 11.841L1.44137 11.3792ZM1.19159 10.6611L2.1734 10.4713L2.10008 10.0921L1.11827 10.282L0.136459 10.4718L0.209773 10.851L1.19159 10.6611ZM1.11827 10.282L2.10008 10.0921L2.02677 9.71299L1.04496 9.90284L0.0631441 10.0927L0.136459 10.4718L1.11827 10.282ZM1.04496 9.90284L2.02677 9.71299C1.99755 9.56188 1.99208 9.41146 2.01036 9.25802L1.01738 9.13973L0.0244026 9.02144C-0.0183051 9.37995 -0.00538969 9.73827 0.0631441 10.0927L1.04496 9.90284ZM1.01738 9.13973L2.01036 9.25802L2.0561 8.87406L1.06312 8.75577L0.0701425 8.63748L0.0244026 9.02144L1.01738 9.13973ZM1.06312 8.75577L2.0561 8.87406L2.10184 8.49009L1.10886 8.3718L0.115882 8.25351L0.0701425 8.63748L1.06312 8.75577ZM1.10886 8.3718L2.10184 8.49009C2.13242 8.23337 2.16297 7.97446 2.19349 7.71338L1.20025 7.59729L0.207007 7.48121C0.176661 7.74085 0.146287 7.99828 0.115882 8.25351L1.10886 8.3718ZM1.20025 7.59729L2.19349 7.71338L2.23913 7.32283L1.24589 7.20675L0.252651 7.09067L0.207007 7.48121L1.20025 7.59729ZM1.24589 7.20675L2.23913 7.32283L2.28477 6.93229L1.29154 6.81621L0.298296 6.70012L0.252651 7.09067L1.24589 7.20675ZM1.29154 6.81621L2.28477 6.93229C2.29917 6.80914 2.33624 6.69847 2.39864 6.59188L1.53567 6.08664L0.672691 5.5814C0.470445 5.92684 0.344761 6.30256 0.298296 6.70012L1.29154 6.81621ZM1.53567 6.08664L2.39864 6.59188L2.59713 6.25286L1.73416 5.74762L0.871179 5.24237L0.672691 5.5814L1.53567 6.08664ZM1.73416 5.74762L2.59713 6.25286L2.79562 5.91384L1.93264 5.40859L1.06967 4.90335L0.871179 5.24237L1.73416 5.74762ZM1.93264 5.40859L2.79562 5.91384C2.83688 5.84336 2.89297 5.78458 2.98368 5.73226L2.48408 4.86601L1.98448 3.99975C1.60459 4.21885 1.29306 4.52179 1.06967 4.90335L1.93264 5.40859ZM2.48408 4.86601L2.98368 5.73226L3.33663 5.52871L2.83702 4.66245L2.33742 3.7962L1.98448 3.99975L2.48408 4.86601ZM2.83702 4.66245L3.33663 5.52871L3.68957 5.32515L3.18997 4.45889L2.69037 3.59264L2.33742 3.7962L2.83702 4.66245ZM3.18997 4.45889L3.68957 5.32515C3.97454 5.1608 4.23704 4.97651 4.47172 4.76956L3.81029 4.01954L3.14887 3.26953C3.02704 3.37697 2.876 3.48558 2.69037 3.59264L3.18997 4.45889ZM3.81029 4.01954L4.47172 4.76956L4.73909 4.53376L4.07767 3.78375L3.41625 3.03373L3.14887 3.26953L3.81029 4.01954ZM4.07767 3.78375L4.73909 4.53376L5.00647 4.29796L4.34505 3.54795L3.68363 2.79794L3.41625 3.03373L4.07767 3.78375ZM4.34505 3.54795L5.00647 4.29796C5.27246 4.06339 5.49596 3.78359 5.68352 3.47339L4.82778 2.95599L3.97203 2.43859C3.87246 2.60327 3.77414 2.71812 3.68363 2.79794L4.34505 3.54795ZM4.82778 2.95599L5.68352 3.47339L5.89887 3.11722L5.04312 2.59982L4.18738 2.08242L3.97203 2.43859L4.82778 2.95599ZM5.04312 2.59982L5.89887 3.11722L6.11421 2.76105L5.25847 2.24365L4.40273 1.72625L4.18738 2.08242L5.04312 2.59982ZM5.25847 2.24365L6.11421 2.76105C6.15944 2.68625 6.19972 2.65771 6.24126 2.63905L5.83162 1.72681L5.42197 0.814564C4.98645 1.01013 4.64463 1.32615 4.40273 1.72625L5.25847 2.24365ZM5.83162 1.72681L6.24126 2.63905L6.59906 2.47838L6.18941 1.56614L5.77976 0.653893L5.42197 0.814564L5.83162 1.72681ZM6.18941 1.56614L6.59906 2.47838L6.95686 2.31771L6.54721 1.40547L6.13756 0.493222L5.77976 0.653893L6.18941 1.56614ZM6.54721 1.40547L6.95686 2.31771C6.95902 2.31674 6.9579 2.31744 6.95407 2.31833C6.95019 2.31922 6.94643 2.31963 6.94383 2.3197C6.94136 2.31976 6.94268 2.31945 6.94873 2.32045C6.95496 2.32148 6.96713 2.32406 6.98575 2.33048L7.31186 1.38515L7.63797 0.439817C7.15169 0.272065 6.63169 0.271332 6.13756 0.493222L6.54721 1.40547ZM7.31186 1.38515L6.98575 2.33048L7.39261 2.47083L7.71872 1.5255L8.04483 0.580171L7.63797 0.439817L7.31186 1.38515ZM7.71872 1.5255L7.39261 2.47083L7.79946 2.61119L8.12557 1.66586L8.45168 0.720524L8.04483 0.580171L7.71872 1.5255ZM8.12557 1.66586L7.79946 2.61119C7.96466 2.66818 8.13424 2.71707 8.30009 2.7467C8.45374 2.77414 8.67169 2.79792 8.90525 2.75224L8.71329 1.77083L8.52132 0.789431C8.58416 0.777139 8.62859 0.777604 8.64476 0.778187C8.6622 0.778816 8.6657 0.780346 8.65177 0.777857C8.63855 0.775496 8.61518 0.770517 8.58022 0.760895C8.54559 0.751364 8.50297 0.738217 8.45168 0.720524L8.12557 1.66586ZM8.71329 1.77083L8.90525 2.75224L9.08611 2.71686L8.89414 1.73546L8.70218 0.754055L8.52132 0.789431L8.71329 1.77083ZM8.89414 1.73546L9.08611 2.71686L9.26696 2.68148L9.075 1.70008L8.88304 0.718679L8.70218 0.754055L8.89414 1.73546ZM9.075 1.70008L9.26696 2.68148C9.38102 2.65918 9.57919 2.6101 9.77205 2.47926C9.99862 2.32556 10.2559 2.02217 10.2559 1.57739H9.25586H8.25586C8.25586 1.40934 8.30211 1.24293 8.39019 1.09812C8.47362 0.960964 8.57516 0.874436 8.64924 0.824181C8.72232 0.774598 8.78482 0.74916 8.8183 0.737224C8.85345 0.724693 8.87709 0.719843 8.88304 0.718679L9.075 1.70008ZM9.25586 1.57739H10.2559V1.49007H9.25586H8.25586V1.57739H9.25586ZM9.25586 1.49007H10.2559V1.40275H9.25586H8.25586V1.49007H9.25586ZM9.25586 1.40275H10.2559C10.2559 1.79283 10.0327 2.02666 9.9514 2.10019C9.86175 2.18124 9.78491 2.21587 9.77724 2.21944C9.75439 2.23007 9.77881 2.21662 9.89264 2.18863L9.65384 1.21756L9.41503 0.246491C9.26355 0.283744 9.08898 0.333778 8.93346 0.406145C8.85946 0.440579 8.73288 0.505631 8.61007 0.616667C8.49558 0.720181 8.25586 0.98356 8.25586 1.40275H9.25586ZM9.65384 1.21756L9.89264 2.18863L10.2906 2.09075L10.0518 1.11969L9.813 0.14862L9.41503 0.246491L9.65384 1.21756Z" fill="black"/>
<path d="M5.25586 9.31543C5.25586 7.10629 7.04672 5.31543 9.25586 5.31543C11.465 5.31543 13.2559 7.10629 13.2559 9.31543C13.2559 11.5246 11.465 13.3154 9.25586 13.3154C7.04672 13.3154 5.25586 11.5246 5.25586 9.31543Z" fill="#1A1A1A"/>
<path d="M9.78587 5.52362L9.60306 5.989L9.78587 5.52362ZM10.1265 5.65818L9.94185 6.12283L10.1265 5.65818ZM10.4545 5.78851L10.6391 5.32385L10.4545 5.78851ZM10.8296 5.84387L10.8528 6.34333L10.8296 5.84387ZM11.7348 6.08846L11.3799 6.4406L11.7348 6.08846ZM11.8707 6.22546L12.2257 5.87332L11.8707 6.22546ZM12.1508 6.48993L11.8196 6.86447L12.1508 6.48993ZM12.2949 6.6174L12.6262 6.24286L12.2949 6.6174ZM12.4391 6.74487L12.1078 7.11941L12.4391 6.74487ZM12.6131 7.0713L13.1075 6.99696L12.6131 7.0713ZM12.6729 7.46922L12.1785 7.54356L12.6729 7.46922ZM12.7376 7.84302L12.2471 7.94044L12.7376 7.84302ZM12.7723 8.01787L13.2627 7.92046L12.7723 8.01787ZM12.807 8.19271L12.3166 8.29012L12.807 8.19271ZM12.964 8.53217L12.5627 8.83034L12.964 8.53217ZM13.0863 8.69678L13.4877 8.3986L13.0863 8.69678ZM13.2086 8.86139L12.8073 9.15957L13.2086 8.86139ZM13.3391 9.21871L12.8396 9.24001L13.3391 9.21871ZM13.3474 9.41141L13.8469 9.39011L13.3474 9.41141ZM13.3556 9.60412L12.856 9.62543L13.3556 9.60412ZM13.2774 9.97171L13.7257 10.1932L13.2774 9.97171ZM13.1046 10.3215L12.6563 10.1L13.1046 10.3215ZM12.9103 10.6469L12.5039 10.3556L12.9103 10.6469ZM12.8024 10.7975L13.2087 11.0888L12.8024 10.7975ZM12.6944 10.9481L12.288 10.6568V10.6568L12.6944 10.9481ZM12.5628 11.3058L12.066 11.249L12.5628 11.3058ZM12.5391 11.513L12.0423 11.4562L12.5391 11.513ZM12.5154 11.7202L13.0121 11.7771L12.5154 11.7202ZM12.3454 12.0545L12.6734 12.432L12.3454 12.0545ZM12.1991 12.1816L12.5271 12.5591L12.1991 12.1816ZM12.0529 12.3088L11.7249 11.9313L12.0529 12.3088ZM11.7695 12.5806L12.1326 12.9244L11.7695 12.5806ZM11.4953 12.8702L11.1322 12.5264L11.4953 12.8702ZM11.1615 13.0529L11.256 13.5439L11.1615 13.0529ZM10.9649 13.0907L10.8704 12.5997L10.9649 13.0907ZM10.7682 13.1285L10.8627 13.6195L10.7682 13.1285ZM10.3788 13.157L10.403 12.6576L10.3788 13.157ZM9.99314 13.1383L9.96895 13.6377L9.99314 13.1383ZM9.61816 13.1801L9.48319 12.6986L9.61816 13.1801ZM8.89462 13.2674L8.72039 13.7361L8.89462 13.2674ZM8.71756 13.2016L8.54333 13.6703L8.71756 13.2016ZM8.54051 13.1358L8.71474 12.6671L8.54051 13.1358ZM7.86746 12.8583L7.67118 13.3181L7.86746 12.8583ZM7.55991 12.6818L7.26133 13.0829L7.55991 12.6818ZM7.41769 12.576L7.11912 12.977L7.41769 12.576ZM7.27547 12.4701L7.57404 12.069L7.27547 12.4701ZM6.99129 12.2608L6.69697 12.665L6.99129 12.2608ZM6.84932 12.1575L7.14364 11.7533L6.84932 12.1575ZM6.70736 12.0541L6.41304 12.4583L6.70736 12.0541ZM6.38474 11.8602L6.60875 11.4132L6.38474 11.8602ZM6.20409 11.7697L6.4281 11.3227L6.20409 11.7697ZM6.02345 11.6792L5.79944 12.1262L6.02345 11.6792ZM5.24709 10.3849L4.74979 10.4368L5.24709 10.3849ZM5.17079 9.99445L4.69068 10.1341L5.17079 9.99445ZM5.08627 9.23476L4.62807 9.03464L5.08627 9.23476ZM5.49316 7.74036L5.04983 7.50916L5.49316 7.74036ZM5.67012 7.40104L6.11345 7.63225L5.67012 7.40104ZM6.28352 6.93617L6.03842 6.50036L6.28352 6.93617ZM6.59727 6.44792L6.12622 6.28024L6.59727 6.44792ZM6.88107 5.92005L6.53637 5.55786L6.88107 5.92005ZM7.93639 5.49831L7.9302 4.99835L7.93639 5.49831ZM8.31963 5.39352L8.069 4.96087L8.31963 5.39352ZM8.67259 5.18904L8.92323 5.62169L8.67259 5.18904ZM8.95077 5.2063L8.57 5.53036L8.95077 5.2063ZM9.15416 5.4453L9.53494 5.12124L9.15416 5.4453ZM9.6092 5.45422L9.42639 5.91961L9.60306 5.989L9.78587 5.52362L9.96867 5.05823L9.792 4.98883L9.6092 5.45422ZM9.78587 5.52362L9.60306 5.989C9.72027 6.03504 9.8332 6.07965 9.94185 6.12283L10.1265 5.65818L10.3112 5.19352C10.2012 5.14982 10.087 5.10472 9.96867 5.05823L9.78587 5.52362ZM10.1265 5.65818L9.94185 6.12283L10.1058 6.18799L10.2905 5.72334L10.4751 5.25869L10.3112 5.19352L10.1265 5.65818ZM10.2905 5.72334L10.1058 6.18799L10.2698 6.25316L10.4545 5.78851L10.6391 5.32385L10.4751 5.25869L10.2905 5.72334ZM10.4545 5.78851L10.2698 6.25316C10.4569 6.32751 10.6549 6.35252 10.8528 6.34333L10.8296 5.84387L10.8064 5.34441C10.7228 5.34829 10.6707 5.33639 10.6391 5.32385L10.4545 5.78851ZM10.8296 5.84387L10.8528 6.34333L11.0639 6.33353L11.0407 5.83407L11.0175 5.3346L10.8064 5.34441L10.8296 5.84387ZM11.0407 5.83407L11.0639 6.33353L11.2751 6.32372L11.2519 5.82426L11.2287 5.3248L11.0175 5.3346L11.0407 5.83407ZM11.2519 5.82426L11.2751 6.32372C11.2885 6.3231 11.2851 6.32536 11.2721 6.32062C11.2661 6.3184 11.2599 6.31534 11.2543 6.31169C11.2487 6.30808 11.2453 6.30496 11.244 6.3036L11.5989 5.95146L11.9539 5.59932C11.7536 5.39741 11.4956 5.31241 11.2287 5.3248L11.2519 5.82426ZM11.5989 5.95146L11.244 6.3036L11.3799 6.4406L11.7348 6.08846L12.0898 5.73632L11.9539 5.59932L11.5989 5.95146ZM11.7348 6.08846L11.3799 6.4406L11.5158 6.5776L11.8707 6.22546L12.2257 5.87332L12.0898 5.73632L11.7348 6.08846ZM11.8707 6.22546L11.5158 6.5776C11.614 6.67664 11.7153 6.77226 11.8196 6.86447L12.1508 6.48993L12.482 6.11539C12.3941 6.03764 12.3087 5.95696 12.2257 5.87332L11.8707 6.22546ZM12.1508 6.48993L11.8196 6.86447L11.9637 6.99194L12.2949 6.6174L12.6262 6.24286L12.482 6.11539L12.1508 6.48993ZM12.2949 6.6174L11.9637 6.99194L12.1078 7.11941L12.4391 6.74487L12.7703 6.37033L12.6262 6.24286L12.2949 6.6174ZM12.4391 6.74487L12.1078 7.11941C12.1108 7.12203 12.1122 7.12368 12.1126 7.12427C12.1131 7.12483 12.1133 7.12513 12.1134 7.12545C12.1136 7.12578 12.1143 7.12709 12.1152 7.12991C12.1161 7.13278 12.1175 7.13784 12.1187 7.14563L12.6131 7.0713L13.1075 6.99696C13.071 6.75395 12.9586 6.53688 12.7703 6.37033L12.4391 6.74487ZM12.6131 7.0713L12.1187 7.14563L12.1486 7.34459L12.643 7.27026L13.1374 7.19592L13.1075 6.99696L12.6131 7.0713ZM12.643 7.27026L12.1486 7.34459L12.1785 7.54356L12.6729 7.46922L13.1674 7.39488L13.1374 7.19592L12.643 7.27026ZM12.6729 7.46922L12.1785 7.54356C12.1994 7.68296 12.2223 7.81532 12.2471 7.94044L12.7376 7.84302L13.228 7.74561C13.2065 7.63761 13.1863 7.52076 13.1674 7.39488L12.6729 7.46922ZM12.7376 7.84302L12.2471 7.94044L12.2819 8.11528L12.7723 8.01787L13.2627 7.92046L13.228 7.74561L12.7376 7.84302ZM12.7723 8.01787L12.2819 8.11528L12.3166 8.29012L12.807 8.19271L13.2974 8.0953L13.2627 7.92046L12.7723 8.01787ZM12.807 8.19271L12.3166 8.29012C12.3562 8.48956 12.4436 8.67005 12.5627 8.83034L12.964 8.53217L13.3654 8.23399C13.3214 8.1748 13.3041 8.12898 13.2974 8.0953L12.807 8.19271ZM12.964 8.53217L12.5627 8.83034L12.685 8.99496L13.0863 8.69678L13.4877 8.3986L13.3654 8.23399L12.964 8.53217ZM13.0863 8.69678L12.685 8.99496L12.8073 9.15957L13.2086 8.86139L13.61 8.56321L13.4877 8.3986L13.0863 8.69678ZM13.2086 8.86139L12.8073 9.15957C12.8331 9.19428 12.8387 9.21804 12.8396 9.24001L13.3391 9.21871L13.8387 9.1974C13.8287 8.96244 13.7473 8.74798 13.61 8.56321L13.2086 8.86139ZM13.3391 9.21871L12.8396 9.24001L12.8478 9.43272L13.3474 9.41141L13.8469 9.39011L13.8387 9.1974L13.3391 9.21871ZM13.3474 9.41141L12.8478 9.43272L12.856 9.62543L13.3556 9.60412L13.8551 9.58282L13.8469 9.39011L13.3474 9.41141ZM13.3556 9.60412L12.856 9.62543C12.8579 9.66897 12.8499 9.7081 12.8291 9.75025L13.2774 9.97171L13.7257 10.1932C13.8201 10.0021 13.8642 9.79622 13.8551 9.58282L13.3556 9.60412ZM13.2774 9.97171L12.8291 9.75025L12.7427 9.92513L13.191 10.1466L13.6393 10.3681L13.7257 10.1932L13.2774 9.97171ZM13.191 10.1466L12.7427 9.92513L12.6563 10.1L13.1046 10.3215L13.5529 10.5429L13.6393 10.3681L13.191 10.1466ZM13.1046 10.3215L12.6563 10.1C12.6101 10.1935 12.5592 10.2785 12.5039 10.3556L12.9103 10.6469L13.3167 10.9382C13.4053 10.8146 13.4839 10.6826 13.5529 10.5429L13.1046 10.3215ZM12.9103 10.6469L12.5039 10.3556L12.396 10.5062L12.8024 10.7975L13.2087 11.0888L13.3167 10.9382L12.9103 10.6469ZM12.8024 10.7975L12.396 10.5062L12.288 10.6568L12.6944 10.9481L13.1008 11.2394L13.2087 11.0888L12.8024 10.7975ZM12.6944 10.9481L12.288 10.6568C12.1605 10.8347 12.0903 11.0371 12.066 11.249L12.5628 11.3058L13.0596 11.3627C13.0669 11.2983 13.0844 11.2622 13.1008 11.2394L12.6944 10.9481ZM12.5628 11.3058L12.066 11.249L12.0423 11.4562L12.5391 11.513L13.0358 11.5699L13.0596 11.3627L12.5628 11.3058ZM12.5391 11.513L12.0423 11.4562L12.0186 11.6634L12.5154 11.7202L13.0121 11.7771L13.0358 11.5699L12.5391 11.513ZM12.5154 11.7202L12.0186 11.6634C12.0176 11.6719 12.0164 11.677 12.0157 11.6794C12.015 11.6817 12.0148 11.6819 12.0153 11.6808C12.0159 11.6796 12.0168 11.6782 12.0177 11.677C12.0187 11.6759 12.0188 11.6759 12.0174 11.6771L12.3454 12.0545L12.6734 12.432C12.8728 12.2586 12.9833 12.0291 13.0121 11.7771L12.5154 11.7202ZM12.3454 12.0545L12.0174 11.6771L11.8712 11.8042L12.1991 12.1816L12.5271 12.5591L12.6734 12.432L12.3454 12.0545ZM12.1991 12.1816L11.8712 11.8042L11.7249 11.9313L12.0529 12.3088L12.3808 12.6862L12.5271 12.5591L12.1991 12.1816ZM12.0529 12.3088L11.7249 11.9313C11.6148 12.027 11.5087 12.1289 11.4064 12.2369L11.7695 12.5806L12.1326 12.9244C12.2131 12.8393 12.2959 12.76 12.3808 12.6862L12.0529 12.3088ZM11.7695 12.5806L11.4064 12.2369L11.2693 12.3817L11.6324 12.7254L11.9954 13.0692L12.1326 12.9244L11.7695 12.5806ZM11.6324 12.7254L11.2693 12.3817L11.1322 12.5264L11.4953 12.8702L11.8583 13.214L11.9954 13.0692L11.6324 12.7254ZM11.4953 12.8702L11.1322 12.5264C11.1131 12.5467 11.0959 12.5563 11.0671 12.5619L11.1615 13.0529L11.256 13.5439C11.4893 13.499 11.6947 13.3869 11.8583 13.214L11.4953 12.8702ZM11.1615 13.0529L11.0671 12.5619L10.8704 12.5997L10.9649 13.0907L11.0593 13.5817L11.256 13.5439L11.1615 13.0529ZM10.9649 13.0907L10.8704 12.5997L10.6738 12.6375L10.7682 13.1285L10.8627 13.6195L11.0593 13.5817L10.9649 13.0907ZM10.7682 13.1285L10.6738 12.6375C10.5803 12.6555 10.4903 12.6618 10.403 12.6576L10.3788 13.157L10.3546 13.6564C10.5243 13.6646 10.694 13.652 10.8627 13.6195L10.7682 13.1285ZM10.3788 13.157L10.403 12.6576L10.2102 12.6483L10.186 13.1477L10.1618 13.6471L10.3546 13.6564L10.3788 13.157ZM10.186 13.1477L10.2102 12.6483L10.0173 12.6389L9.99314 13.1383L9.96895 13.6377L10.1618 13.6471L10.186 13.1477ZM9.99314 13.1383L10.0173 12.6389C9.83623 12.6301 9.65743 12.6498 9.48319 12.6986L9.61816 13.1801L9.75313 13.6615C9.82177 13.6422 9.89297 13.6341 9.96895 13.6377L9.99314 13.1383ZM9.61816 13.1801L9.48319 12.6986L9.30102 12.7497L9.436 13.2311L9.57097 13.7126L9.75313 13.6615L9.61816 13.1801ZM9.436 13.2311L9.30102 12.7497L9.11886 12.8008L9.25383 13.2822L9.38881 13.7636L9.57097 13.7126L9.436 13.2311ZM9.25383 13.2822L9.11886 12.8008C9.09907 12.8063 9.08759 12.8058 9.06885 12.7988L8.89462 13.2674L8.72039 13.7361C8.93771 13.8169 9.16571 13.8262 9.38881 13.7636L9.25383 13.2822ZM8.89462 13.2674L9.06885 12.7988L8.8918 12.733L8.71756 13.2016L8.54333 13.6703L8.72039 13.7361L8.89462 13.2674ZM8.71756 13.2016L8.8918 12.733L8.71474 12.6671L8.54051 13.1358L8.36628 13.6045L8.54333 13.6703L8.71756 13.2016ZM8.54051 13.1358L8.71474 12.6671C8.60375 12.6259 8.49699 12.5833 8.3944 12.5395L8.19812 12.9994L8.00184 13.4593C8.1197 13.5096 8.2412 13.558 8.36628 13.6045L8.54051 13.1358ZM8.19812 12.9994L8.3944 12.5395L8.22907 12.469L8.03279 12.9288L7.83651 13.3887L8.00184 13.4593L8.19812 12.9994ZM8.03279 12.9288L8.22907 12.469L8.06374 12.3984L7.86746 12.8583L7.67118 13.3181L7.83651 13.3887L8.03279 12.9288ZM7.86746 12.8583L8.06374 12.3984C7.9893 12.3666 7.92119 12.3275 7.85848 12.2808L7.55991 12.6818L7.26133 13.0829C7.38824 13.1774 7.52517 13.2558 7.67118 13.3181L7.86746 12.8583ZM7.55991 12.6818L7.85848 12.2808L7.71626 12.1749L7.41769 12.576L7.11912 12.977L7.26133 13.0829L7.55991 12.6818ZM7.41769 12.576L7.71626 12.1749L7.57404 12.069L7.27547 12.4701L6.9769 12.8712L7.11912 12.977L7.41769 12.576ZM7.27547 12.4701L7.57404 12.069C7.47783 11.9974 7.38168 11.9266 7.2856 11.8566L6.99129 12.2608L6.69697 12.665C6.79018 12.7329 6.88349 12.8016 6.9769 12.8712L7.27547 12.4701ZM6.99129 12.2608L7.2856 11.8566L7.14364 11.7533L6.84932 12.1575L6.55501 12.5617L6.69697 12.665L6.99129 12.2608ZM6.84932 12.1575L7.14364 11.7533L7.00167 11.6499L6.70736 12.0541L6.41304 12.4583L6.55501 12.5617L6.84932 12.1575ZM6.70736 12.0541L7.00167 11.6499C6.88179 11.5626 6.75017 11.4841 6.60875 11.4132L6.38474 11.8602L6.16073 12.3072C6.26018 12.3571 6.34364 12.4078 6.41304 12.4583L6.70736 12.0541ZM6.38474 11.8602L6.60875 11.4132L6.4281 11.3227L6.20409 11.7697L5.98009 12.2167L6.16073 12.3072L6.38474 11.8602ZM6.20409 11.7697L6.4281 11.3227L6.24745 11.2321L6.02345 11.6792L5.79944 12.1262L5.98009 12.2167L6.20409 11.7697ZM6.02345 11.6792L6.24745 11.2321C6.18415 11.2004 6.13078 11.1593 6.08444 11.1067L5.7095 11.4375L5.33456 11.7683C5.46595 11.9172 5.62188 12.0372 5.79944 12.1262L6.02345 11.6792ZM5.7095 11.4375L6.08444 11.1067L5.95114 10.9557L5.5762 11.2864L5.20126 11.6172L5.33456 11.7683L5.7095 11.4375ZM5.5762 11.2864L5.95114 10.9557L5.81784 10.8046L5.4429 11.1354L5.06796 11.4661L5.20126 11.6172L5.5762 11.2864ZM5.4429 11.1354L5.81784 10.8046C5.79754 10.7816 5.78913 10.762 5.78607 10.7326L5.28877 10.7845L4.79146 10.8364C4.81618 11.0733 4.91053 11.2877 5.06796 11.4661L5.4429 11.1354ZM5.28877 10.7845L5.78607 10.7326L5.76523 10.5328L5.26793 10.5847L4.77063 10.6366L4.79146 10.8364L5.28877 10.7845ZM5.26793 10.5847L5.76523 10.5328L5.7444 10.3331L5.24709 10.3849L4.74979 10.4368L4.77063 10.6366L5.26793 10.5847ZM5.24709 10.3849L5.7444 10.3331C5.72744 10.1705 5.69631 10.011 5.6509 9.85482L5.17079 9.99445L4.69068 10.1341C4.71923 10.2322 4.73896 10.333 4.74979 10.4368L5.24709 10.3849ZM5.17079 9.99445L5.6509 9.85482L5.59543 9.66409L5.11532 9.80372L4.63521 9.94335L4.69068 10.1341L5.17079 9.99445ZM5.11532 9.80372L5.59543 9.66409L5.53996 9.47336L5.05985 9.61299L4.57974 9.75262L4.63521 9.94335L5.11532 9.80372ZM5.05985 9.61299L5.53996 9.47336C5.53713 9.46365 5.5374 9.45937 5.53751 9.45791C5.53762 9.45624 5.53824 9.44917 5.54448 9.43488L5.08627 9.23476L4.62807 9.03464C4.52819 9.26333 4.50904 9.50952 4.57974 9.75262L5.05985 9.61299ZM5.08627 9.23476L5.54448 9.43488L5.62637 9.24737L5.16816 9.04725L4.70996 8.84714L4.62807 9.03464L5.08627 9.23476ZM5.16816 9.04725L5.62637 9.24737L5.70826 9.05987L5.25006 8.85975L4.79185 8.65963L4.70996 8.84714L5.16816 9.04725ZM5.25006 8.85975L5.70826 9.05987C5.78256 8.88974 5.83039 8.71238 5.84787 8.52918L5.35013 8.48169L4.85239 8.4342C4.84563 8.50507 4.82674 8.57975 4.79185 8.65963L5.25006 8.85975ZM5.35013 8.48169L5.84787 8.52918L5.86605 8.33863L5.36831 8.29114L4.87057 8.24364L4.85239 8.4342L5.35013 8.48169ZM5.36831 8.29114L5.86605 8.33863L5.88423 8.14807L5.38649 8.10058L4.88876 8.05309L4.87057 8.24364L5.36831 8.29114ZM5.38649 8.10058L5.88423 8.14807C5.89023 8.08519 5.90732 8.0275 5.93649 7.97157L5.49316 7.74036L5.04983 7.50916C4.96102 7.67945 4.907 7.8619 4.88876 8.05309L5.38649 8.10058ZM5.49316 7.74036L5.93649 7.97157L6.02497 7.80191L5.58164 7.5707L5.13831 7.3395L5.04983 7.50916L5.49316 7.74036ZM5.58164 7.5707L6.02497 7.80191L6.11345 7.63225L5.67012 7.40104L5.22679 7.16983L5.13831 7.3395L5.58164 7.5707ZM5.67012 7.40104L6.11345 7.63225C6.12534 7.60946 6.14218 7.58931 6.17867 7.56878L5.93357 7.13298L5.68848 6.69717C5.49168 6.80785 5.33288 6.96641 5.22679 7.16983L5.67012 7.40104ZM5.93357 7.13298L6.17867 7.56878L6.35364 7.47038L6.10855 7.03457L5.86345 6.59877L5.68848 6.69717L5.93357 7.13298ZM6.10855 7.03457L6.35364 7.47038L6.52861 7.37198L6.28352 6.93617L6.03842 6.50036L5.86345 6.59877L6.10855 7.03457ZM6.28352 6.93617L6.52861 7.37198C6.75396 7.24525 6.91354 7.05037 6.99892 6.81053L6.52788 6.64285L6.05683 6.47516C6.0542 6.48257 6.0519 6.48718 6.05048 6.4897C6.0491 6.49217 6.04821 6.49327 6.04793 6.49361C6.04766 6.49393 6.04725 6.4944 6.04628 6.4952C6.04527 6.49603 6.04289 6.49785 6.03842 6.50036L6.28352 6.93617ZM6.52788 6.64285L6.99892 6.81053L7.06831 6.6156L6.59727 6.44792L6.12622 6.28024L6.05683 6.47516L6.52788 6.64285ZM6.59727 6.44792L7.06831 6.6156L7.1377 6.42068L6.66666 6.253L6.19561 6.08531L6.12622 6.28024L6.59727 6.44792ZM6.66666 6.253L7.1377 6.42068C7.15858 6.36202 7.1878 6.31838 7.22577 6.28225L6.88107 5.92005L6.53637 5.55786C6.38098 5.70575 6.26725 5.88408 6.19561 6.08531L6.66666 6.253ZM6.88107 5.92005L7.22577 6.28225L7.37079 6.14423L7.02609 5.78204L6.6814 5.41984L6.53637 5.55786L6.88107 5.92005ZM7.02609 5.78204L7.37079 6.14423L7.51582 6.00621L7.17112 5.64402L6.82642 5.28182L6.6814 5.41984L7.02609 5.78204ZM7.17112 5.64402L7.51582 6.00621C7.51868 6.00348 7.52002 6.00267 7.51972 6.00286C7.51938 6.00309 7.5184 6.00365 7.51712 6.00416C7.51586 6.00466 7.51559 6.00461 7.51689 6.00436C7.51828 6.0041 7.52215 6.00348 7.52909 6.0034L7.52289 5.50344L7.5167 5.00347C7.25726 5.00669 7.01777 5.09972 6.82642 5.28182L7.17112 5.64402ZM7.52289 5.50344L7.52909 6.0034L7.73584 6.00084L7.72964 5.50087L7.72345 5.00091L7.5167 5.00347L7.52289 5.50344ZM7.72964 5.50087L7.73584 6.00084L7.94259 5.99828L7.93639 5.49831L7.9302 4.99835L7.72345 5.00091L7.72964 5.50087ZM7.93639 5.49831L7.94259 5.99828C8.16509 5.99552 8.3772 5.938 8.57026 5.82616L8.31963 5.39352L8.069 4.96087C8.02675 4.98534 7.98336 4.99769 7.9302 4.99835L7.93639 5.49831ZM8.31963 5.39352L8.57026 5.82616L8.74674 5.72393L8.49611 5.29128L8.24548 4.85863L8.069 4.96087L8.31963 5.39352ZM8.49611 5.29128L8.74674 5.72393L8.92323 5.62169L8.67259 5.18904L8.42196 4.7564L8.24548 4.85863L8.49611 5.29128ZM8.67259 5.18904L8.92323 5.62169C8.93422 5.61532 8.88717 5.64672 8.79942 5.64128C8.75289 5.63839 8.70479 5.62544 8.66037 5.60181C8.61714 5.5788 8.58778 5.55125 8.57 5.53036L8.95077 5.2063L9.33155 4.88225C9.22181 4.75331 9.0609 4.65558 8.86134 4.6432C8.68087 4.632 8.52863 4.69461 8.42196 4.7564L8.67259 5.18904ZM8.95077 5.2063L8.57 5.53036L8.67169 5.64985L9.05247 5.3258L9.43324 5.00175L9.33155 4.88225L8.95077 5.2063ZM9.05247 5.3258L8.67169 5.64985L8.77339 5.76935L9.15416 5.4453L9.53494 5.12124L9.43324 5.00175L9.05247 5.3258ZM9.15416 5.4453L8.77339 5.76935C8.8016 5.8025 8.87984 5.89585 8.98546 5.95521C9.00959 5.96877 9.26194 6.11418 9.52608 5.93879C9.65191 5.85525 9.70713 5.74034 9.73036 5.66798C9.75306 5.59724 9.75586 5.53634 9.75586 5.50245H9.25586H8.75586C8.75586 5.47895 8.7576 5.42655 8.77819 5.36241C8.79929 5.29665 8.85133 5.18645 8.97292 5.10572C9.09979 5.02148 9.23122 5.01621 9.31735 5.02941C9.3959 5.04146 9.45133 5.06992 9.47541 5.08346C9.50293 5.09893 9.52169 5.11342 9.53019 5.12029C9.53966 5.12793 9.54539 5.13343 9.54691 5.13491C9.54955 5.13747 9.54595 5.13418 9.53494 5.12124L9.15416 5.4453ZM9.25586 5.50245H9.75586V5.44011H9.25586H8.75586V5.50245H9.25586ZM9.25586 5.44011H9.75586V5.37777H9.25586H8.75586V5.44011H9.25586ZM9.25586 5.37777H9.75586C9.75586 5.43113 9.74635 5.50382 9.70913 5.58112C9.67041 5.66157 9.61166 5.72598 9.544 5.77102C9.42237 5.85201 9.30707 5.84904 9.28008 5.84797C9.21978 5.84556 9.19716 5.82956 9.24973 5.85021L9.43253 5.38482L9.61533 4.91944C9.55012 4.89382 9.43916 4.85352 9.31998 4.84876C9.26354 4.84651 9.12616 4.84786 8.9898 4.93864C8.8172 5.05356 8.75586 5.23394 8.75586 5.37777H9.25586ZM9.43253 5.38482L9.24973 5.85021L9.42639 5.91961L9.6092 5.45422L9.792 4.98883L9.61533 4.91944L9.43253 5.38482Z" fill="#1A1A1A"/>
</svg>
