<svg width="24" height="24" viewBox="0 0 24 24" fill="none" xmlns="http://www.w3.org/2000/svg">
<g transform="translate(17.64 2.5) scale(-1 1)">
<path d="M7.62224 0.402298C8.18086 -0.119289 9.05499 -0.139936 9.63884 0.376908C10.2589 0.926076 10.3168 1.87391 9.76775 2.4941L9.70134 2.56929L9.55388 2.73531L9.3654 2.85152L9.12615 2.998L9.02654 3.07027C9.02119 3.07563 9.01412 3.08309 9.00505 3.09273C8.96219 3.13832 8.89828 3.21202 8.81169 3.32124L8.19255 4.10249C8.02901 4.30883 7.87689 4.5301 7.7365 4.76656L7.21501 5.64449C6.89479 6.18384 6.44257 6.60444 5.88884 6.8896L5.42693 7.12788L4.96501 7.36519C4.95445 7.37063 4.94792 7.37513 4.94548 7.37691C4.94436 7.37773 4.94386 7.37858 4.94353 7.37886L4.94158 7.37984C4.94115 7.38035 4.9406 7.38139 4.93962 7.38277C4.9375 7.38578 4.93273 7.39255 4.92693 7.40425L4.69548 7.87203L4.46306 8.3398C4.23783 8.79389 3.9454 9.20465 3.58318 9.55952L3.22966 9.9062L3.05974 10.0712C3.07827 10.1098 3.10409 10.1651 3.14568 10.2363L3.40349 10.6787L3.62029 11.0488L4.13103 11.1992L4.67107 11.3593C5.51433 11.6083 6.12996 12.2171 6.38493 13.0615L6.674 14.0195L7.01677 14.1738L7.50017 14.3906C8.13403 14.6752 8.67326 15.1977 9.12517 15.7392L9.71208 16.4433L9.76775 16.5058C10.3168 17.126 10.2589 18.0738 9.63884 18.623C9.01866 19.172 8.07082 19.1142 7.52165 18.4941L7.45525 18.4199L7.4406 18.4033L7.42693 18.3857L6.82243 17.6611C6.65772 17.4637 6.52173 17.3278 6.41716 17.2373C6.30959 17.1442 6.2615 17.1224 6.27165 17.1269L5.30486 16.6933C4.56006 16.3589 4.0632 15.7496 3.83806 15.0039L3.67595 14.4668L3.58415 14.166L3.28142 14.0771L2.7404 13.9169C2.05423 13.7143 1.45645 13.2926 1.07146 12.6337L0.554857 11.75C0.36104 11.4182 0.12988 10.9618 0.072435 10.4687L0.0421616 10.2128L0.0128647 9.95699C-0.0938699 9.04076 0.490317 8.38976 0.776537 8.10933L1.13005 7.76265L1.48357 7.41695C1.59281 7.30992 1.69133 7.17662 1.77556 7.00679L2.00798 6.53902L2.23943 6.07124C2.53563 5.47407 2.99684 5.00416 3.59099 4.6982L4.0529 4.45992L4.51482 4.22261C4.57706 4.19056 4.60749 4.1594 4.63493 4.11324L5.15642 3.23433C5.36366 2.88528 5.59196 2.55343 5.84099 2.23921L6.46013 1.45796C6.66947 1.19386 6.94426 0.870874 7.24919 0.653275L7.46501 0.498978L7.50798 0.472611L7.62224 0.402298Z" fill="#1A1A1A"/>
</g>
</svg>
