<svg width="20" height="20" viewBox="0 0 20 20" fill="none" xmlns="http://www.w3.org/2000/svg">
<path d="M8.35224 2.41826C7.88672 1.9836 7.15828 1.96639 6.67173 2.3971C6.15499 2.85474 6.10681 3.6446 6.56431 4.16142L6.61965 4.22408L6.74253 4.36243L6.8996 4.45927L7.09898 4.58134L7.18199 4.64156C7.18644 4.64604 7.19234 4.65225 7.19989 4.66028C7.23561 4.69828 7.28887 4.75969 7.36102 4.85071L7.87697 5.50175C8.01326 5.6737 8.14003 5.85809 8.25702 6.05514L8.69159 6.78675C8.95844 7.2362 9.33529 7.58671 9.79673 7.82434L10.1817 8.02291L10.5666 8.22067C10.5754 8.2252 10.5808 8.22895 10.5829 8.23043C10.5838 8.23112 10.5842 8.23182 10.5845 8.23206L10.5861 8.23287C10.5865 8.2333 10.5869 8.23416 10.5877 8.23531C10.5895 8.23782 10.5935 8.24346 10.5983 8.25322L10.7912 8.64303L10.9849 9.03284C11.1726 9.41125 11.4163 9.75355 11.7181 10.0493L12.0127 10.3382L12.1543 10.4757C12.1389 10.5078 12.1174 10.5539 12.0827 10.6132L11.8679 10.9819L11.6872 11.2903L11.2616 11.4157L10.8115 11.5491C10.1088 11.7566 9.5958 12.2639 9.38332 12.9676L9.14244 13.7659L8.85679 13.8945L8.45396 14.0752C7.92575 14.3123 7.47639 14.7477 7.09979 15.199L6.6107 15.7858L6.56431 15.8379C6.10681 16.3547 6.15499 17.1445 6.67173 17.6022C7.18855 18.0597 7.97842 18.0115 8.43606 17.4948L8.4914 17.4329L8.5036 17.4191L8.515 17.4044L9.01874 16.8006C9.156 16.6361 9.26933 16.5228 9.35647 16.4474C9.44611 16.3698 9.48618 16.3516 9.47772 16.3554L10.2834 15.9941C10.9041 15.7154 11.3181 15.2076 11.5057 14.5862L11.6408 14.1386L11.7173 13.888L11.9696 13.8139L12.4204 13.6805C12.9922 13.5116 13.4904 13.1602 13.8112 12.6111L14.2417 11.8746C14.4032 11.5982 14.5959 11.2179 14.6437 10.8069L14.669 10.5937L14.6934 10.3805C14.7823 9.61698 14.2955 9.07447 14.057 8.84078L13.7624 8.55188L13.4678 8.2638C13.3768 8.17461 13.2947 8.06352 13.2245 7.922L13.0308 7.53219L12.8379 7.14238C12.5911 6.64474 12.2067 6.25314 11.7116 5.99817L11.3267 5.7996L10.9418 5.60185C10.8899 5.57514 10.8645 5.54917 10.8417 5.5107L10.4071 4.77828C10.2344 4.48741 10.0441 4.21087 9.83661 3.94902L9.32066 3.29798C9.14621 3.07789 8.91722 2.80874 8.66311 2.6274L8.48326 2.49882L8.44745 2.47685L8.35224 2.41826Z" fill="#1A1A1A"/>
</svg>
