<svg width="24" height="24" viewBox="0 0 24 24" fill="none" xmlns="http://www.w3.org/2000/svg">
<path d="M13.0766 14.6766C13.5929 14.4807 14.1706 14.7404 14.3665 15.2567C14.5147 15.6473 14.4017 16.0726 14.1145 16.3415L13.8583 16.8767C13.5811 17.4566 13.1791 18.0699 12.5504 18.3475L11.6949 18.7252C11.4356 18.8397 11.1885 18.9619 10.9546 19.0912L10.5638 19.308L10.1722 19.5242C9.60718 19.8366 8.98137 19.8324 8.42103 19.5311L7.61863 19.0988C7.53436 19.0535 7.4176 19.0205 7.23608 19.0311L6.20994 19.0905C5.89576 19.1088 5.55797 19.0605 5.24044 18.893C4.91973 18.7237 4.68635 18.4686 4.5278 18.1831L4.05548 17.3324C3.82253 16.9128 3.69467 16.4559 3.68881 15.9741L3.68259 15.5149L3.67707 15.055C3.67218 14.6526 3.72524 14.2588 3.84072 13.879L4.09208 13.0532C4.21544 12.6475 4.41582 12.2786 4.69008 11.9552L5.24665 11.2992C5.4445 11.066 5.651 10.836 5.86537 10.6101L6.47097 9.97131C6.56855 9.86845 6.6426 9.78797 6.69539 9.72894C6.72155 9.69968 6.73995 9.67842 6.75201 9.66403C6.75902 9.65566 6.76306 9.6516 6.76306 9.6516L6.82314 9.56666L6.87562 9.49346L6.90324 9.46722C7.14088 9.04119 7.65993 8.84156 8.12963 9.01976C8.64587 9.21573 8.90555 9.79337 8.70968 10.3097L8.67446 10.4029L8.59505 10.6107L8.43623 10.7654L8.39894 10.8013L8.38236 10.8248C8.28732 10.9579 8.10801 11.1512 7.92178 11.3475L7.31618 11.9863C7.12675 12.186 6.94539 12.3882 6.77204 12.5926L6.21478 13.2493C6.11787 13.3636 6.04898 13.4895 6.00486 13.6346L5.87987 14.0482L5.75419 14.4612C5.70217 14.6323 5.67499 14.8206 5.67754 15.0309L5.68238 15.4901L5.6879 15.95C5.68952 16.0808 5.72217 16.2142 5.80391 16.3615L6.04007 16.7869L6.20718 17.0866L6.60631 17.0645L7.12007 17.0341C7.62252 17.0048 8.11544 17.0956 8.56605 17.3379L8.96725 17.5541L9.28973 17.726L9.59563 17.5582L9.98716 17.3407C10.2755 17.1813 10.5756 17.0327 10.8869 16.8953L11.3151 16.7075L11.7239 16.5266C11.7323 16.5196 11.7553 16.5 11.7901 16.4575C11.8588 16.3738 11.9492 16.2333 12.0539 16.0142L12.4358 15.2152L12.6091 14.8541L12.9834 14.7118L13.0766 14.6766ZM18.5822 4.05827C19.0492 4.25645 19.4099 4.59703 19.6401 5.04435L19.8287 5.40965L20.0158 5.77494C20.1813 6.09649 20.3043 6.4378 20.3852 6.79486L20.5744 7.62902C20.6667 8.03603 20.678 8.45371 20.6214 8.87336L20.5579 9.34569L20.4936 9.81732C20.4116 10.4256 20.0879 10.9303 19.5649 11.2557L18.7604 11.7563C18.5877 11.8639 18.3199 12.0817 17.9463 12.4545L17.4898 12.9095C17.2542 13.341 16.7312 13.5439 16.2586 13.3646C15.7424 13.1686 15.4827 12.591 15.6785 12.0747L15.7138 11.9815L15.7904 11.7805L15.943 11.6279L16.5334 11.0389C16.9469 10.6263 17.341 10.2846 17.7046 10.0583L18.509 9.55768L18.5111 9.55561L18.5118 9.55078L18.6389 8.60613C18.6671 8.39645 18.6575 8.22113 18.6237 8.07165L18.4345 7.23611C18.3892 7.03664 18.3229 6.8554 18.2377 6.6899L18.0505 6.3246L17.862 5.95931C17.8482 5.93252 17.8378 5.9225 17.8344 5.91926C17.8312 5.91626 17.8226 5.90859 17.8006 5.89923L17.0575 5.58435C16.6714 5.42054 16.3222 5.1688 16.0072 4.86827L15.6295 4.50712L15.4244 4.3117L15.2366 4.42494L14.8161 4.67699C14.5044 4.86405 14.1884 5.03096 13.868 5.17625L13.4419 5.3689L13.0165 5.56225C12.9012 5.61454 12.8294 5.67928 12.7755 5.7632L12.5325 6.14299L12.2894 6.52141C12.1629 6.71848 12.0792 6.85113 12.0325 6.92606L11.9352 7.47089L11.4048 7.67253L11.3116 7.70774C10.7953 7.90362 10.2177 7.64394 10.0217 7.12769C9.9021 6.81245 9.95326 6.47485 10.128 6.21481L10.1287 6.20997L10.2233 6.05184L10.2855 5.94826C10.3361 5.86392 10.4466 5.68948 10.6059 5.44141L10.8496 5.06231L11.0927 4.68251C11.3631 4.26139 11.7384 3.94567 12.1907 3.74063L12.616 3.54728L13.0421 3.35462C13.2893 3.24253 13.5374 3.11185 13.7865 2.96239L14.6282 2.45761L14.7408 2.39477C15.011 2.25687 15.3334 2.17701 15.6868 2.2249C16.0832 2.27869 16.3988 2.47665 16.6322 2.6993L17.0099 3.06045L17.3883 3.42091C17.5776 3.60153 17.729 3.69625 17.8385 3.7427L18.5822 4.05827Z" fill="#048F27"/>
<path d="M13.7492 9.03299C14.081 8.94684 14.4482 9.03279 14.7082 9.29276C15.0987 9.68328 15.0987 10.3163 14.7082 10.7068L14.2814 11.1336L13.9289 11.0808C13.896 11.1043 13.856 11.1305 13.8117 11.1639L13.4572 11.4314L13.1017 11.698C13.0778 11.716 13.0302 11.758 12.9943 11.9041L12.8712 12.4041L12.7492 12.9031C12.559 13.6783 11.911 14.1522 11.298 14.448L10.6457 14.7615C10.2528 15.0947 9.66485 15.0776 9.2941 14.7068C8.90358 14.3163 8.90358 13.6833 9.2941 13.2928L9.48453 13.1023L9.63687 13.0281L10.4289 12.6463C10.6311 12.5487 10.7412 12.4669 10.7941 12.4158C10.8044 12.4059 10.8099 12.3968 10.8146 12.3914L11.0519 11.4275C11.1795 10.9077 11.4502 10.4385 11.8996 10.1004L12.6095 9.5662C12.7384 9.46931 12.862 9.38194 12.9728 9.31229C13.0463 9.26609 13.2333 9.14746 13.4552 9.09745L13.7453 9.03202L13.7492 9.03299Z" fill="#048F27"/>
</svg>
