<svg preserveAspectRatio="none" width="100%" height="100%" overflow="visible" style="display: block;" viewBox="0 0 18.6495 19.152" fill="none" xmlns="http://www.w3.org/2000/svg">
<path id="Nomal (Stroke)" d="M13.1906 0.0309387C14.0841 -0.113151 14.8734 0.260675 15.5089 0.848321C15.549 0.885408 15.5802 0.909649 15.6027 0.924493C15.6184 0.914415 15.6411 0.902327 15.6671 0.880548C15.8165 0.755371 15.9845 0.630304 16.1623 0.536798C16.3064 0.460989 16.6297 0.311496 17.0226 0.383478C17.5495 0.480082 17.8187 0.881514 17.9123 1.19793C17.9899 1.46059 17.9736 1.71777 17.9533 1.88641C17.9155 2.19971 17.9563 2.52344 18.0968 2.87176C18.2959 3.36507 18.444 3.7626 18.5207 4.03289L18.5568 4.15789V4.20574C18.6908 4.49605 18.6839 4.84544 18.507 5.14031C18.2228 5.61378 17.6084 5.76721 17.1349 5.48309L17.049 5.43133L16.5744 5.14617L16.5636 4.59246L16.5607 4.47332C16.5036 4.29877 16.4034 4.01909 16.2423 3.61981C16.1458 3.38044 16.0714 3.1377 16.0207 2.89227C15.8638 2.92821 15.6993 2.94759 15.5265 2.94012C14.97 2.91597 14.5082 2.64784 14.1505 2.31707C13.7995 1.99251 13.602 1.99053 13.5089 2.00555C13.0333 2.08232 12.5574 2.17208 12.0812 2.27508C11.7213 2.35293 11.2698 2.42755 10.7326 2.50359C10.791 2.94975 10.8609 3.28696 10.9416 3.52703C11.1685 4.20227 11.1952 4.89601 11.0128 5.5827C10.924 5.9176 10.9196 6.24332 10.9982 6.57488C11.2059 7.4513 10.9094 8.25745 10.3605 8.92254C10.063 9.28309 10.0015 9.54298 10.0089 9.7243C10.0228 10.0613 10.1136 10.4176 10.3039 10.7995C10.6249 11.4437 10.768 12.1274 10.6935 12.8307C10.6655 13.0956 10.717 13.3868 10.9025 13.7263C11.2579 14.3769 11.4203 15.0773 11.3341 15.8034C11.322 15.9053 11.3105 16.0054 11.299 16.1032C11.4951 16.1271 11.6922 16.182 11.8849 16.278C11.9142 16.2577 11.9453 16.2383 11.9777 16.2194C12.0937 16.1519 12.4039 15.9931 12.8 16.0847C13.2694 16.1933 13.4875 16.5535 13.5675 16.7673C13.6415 16.9649 13.6496 17.1514 13.6496 17.2595V17.3942L13.633 17.4528C13.6428 17.5091 13.6496 17.5666 13.6496 17.6257C13.6496 18.1779 13.2018 18.6257 12.6496 18.6257H11.6635C11.4498 18.6257 11.2947 18.4226 11.3507 18.2165C11.24 18.1786 11.1365 18.1353 11.0431 18.0895C11.0303 18.0911 11.0095 18.0934 10.9796 18.1013C10.9364 18.1126 10.8836 18.1315 10.8205 18.1589C10.7216 18.2846 10.588 18.4104 10.4142 18.4997C10.3804 18.547 10.3474 18.5905 10.3136 18.6276C10.161 18.7951 9.98147 18.9122 9.83121 18.9948C9.28997 19.2925 8.76585 19.1052 8.47964 18.9421C8.1901 18.777 7.93034 18.5272 7.70425 18.2722C7.64055 18.2748 7.46599 18.3077 7.15249 18.4899C6.67515 18.7675 6.063 18.6058 5.78531 18.1286C5.50775 17.6513 5.66942 17.0391 6.14664 16.7614C6.62199 16.485 7.14658 16.2781 7.68863 16.2722C8.03657 16.2683 8.3611 16.3494 8.64956 16.5055L9.26578 16.2761C9.29167 16.0516 9.31842 15.8155 9.34781 15.568C9.37873 15.3076 9.33106 15.0211 9.14761 14.6852C8.79411 14.0382 8.62791 13.3425 8.70425 12.6208C8.73424 12.3377 8.68423 12.0343 8.51382 11.6921C8.2125 11.0874 8.03664 10.456 8.00992 9.80633C7.97693 9.00124 8.30216 8.27472 8.81851 7.6491C9.0839 7.32754 9.07803 7.14606 9.05191 7.03582C8.89682 6.38108 8.9063 5.72043 9.07925 5.06902C9.15887 4.76916 9.15061 4.47601 9.04605 4.16473C8.90241 3.73742 8.80012 3.21603 8.72867 2.61785C8.13209 2.59615 7.60826 2.53561 7.17496 2.42156C6.93696 2.35895 6.69263 2.37723 6.39761 2.52508C5.76925 2.83997 5.10614 2.99797 4.42203 2.96551C3.83319 2.93755 3.25011 2.82608 2.67496 2.63543C2.61872 2.61679 2.58104 2.61066 2.55972 2.60906C2.54917 2.60828 2.54207 2.60879 2.53824 2.60906L2.53238 2.61004C2.53238 2.61004 2.52956 2.61155 2.52554 2.61395C2.51768 2.61866 2.49789 2.63129 2.4689 2.6618C2.25622 2.88571 2.10869 3.1531 2.0275 3.48406C2.01843 3.52105 2.01534 3.55355 2.01089 3.58074L2.22867 3.70477C2.89417 4.08244 2.90638 5.03776 2.25015 5.43133L2.16421 5.48309C1.71769 5.751 1.14691 5.62915 0.844878 5.21746L0.768706 5.17547L0.692534 5.1325L0.625152 5.07684C-0.067925 4.50412 -0.0744707 3.65813 0.0851126 3.0075C0.245955 2.35189 0.557216 1.77077 1.01871 1.28484C1.30169 0.986921 1.65717 0.759089 2.08316 0.660821C2.5049 0.563618 2.9215 0.610293 3.30386 0.736993C3.71524 0.873357 4.11906 0.948568 4.51675 0.967462C4.81916 0.981813 5.14301 0.9164 5.50113 0.736993C6.19264 0.390434 6.9352 0.29102 7.68374 0.48797C8.04427 0.58286 8.64315 0.641018 9.53238 0.625665H9.6896C10.5689 0.517619 11.2201 0.414805 11.6584 0.320001C12.1687 0.209606 12.6797 0.113397 13.1906 0.0309387Z" fill="white"/>
</svg>
