<svg width="24" height="24" viewBox="0 0 24 24" fill="none" xmlns="http://www.w3.org/2000/svg">
<g transform="translate(4 4)">
<path d="M14.3742 0.147839C14.7883 -0.0944846 15.3282 -0.0392276 15.6834 0.31593C16.1055 0.73816 16.1055 1.42257 15.6834 1.84479L15.6225 1.90646L15.4105 2.11847L15.1192 2.19027L14.8818 2.24939L14.8472 2.26207C14.8368 2.27175 14.8242 2.28403 14.8092 2.29923C14.7817 2.32714 14.7486 2.36277 14.7104 2.4065L14.4105 2.74944L14.1115 3.09238C13.8239 3.42152 13.4823 3.68989 13.0963 3.89905L12.6799 4.12542L12.2636 4.35095C12.1 4.43959 11.9702 4.5462 11.8649 4.67108L11.571 5.01993L11.2771 5.36794C11.1946 5.46576 11.1159 5.60539 11.0583 5.81224L10.9189 6.31398L10.7787 6.81656C10.5749 7.54822 9.98621 8.05017 9.39951 8.40118L9.42653 8.4603C9.52759 8.6847 9.61454 8.81791 9.674 8.8894C9.68872 8.90708 9.7003 8.91844 9.70779 8.92572L10.6014 9.26021C10.9939 9.40719 11.3598 9.59791 11.6926 9.83544L12.4418 10.3701C12.7516 10.5913 13.0351 10.8415 13.2914 11.1202L13.5997 11.4547L13.9072 11.7892C14.1955 12.1028 14.4266 12.4604 14.604 12.8535L14.8033 13.2961L15.0034 13.7387C15.0101 13.7534 15.0177 13.7665 15.0237 13.7792L15.1648 13.8215L15.4283 13.9L15.6225 14.0935L15.6834 14.1551C16.1055 14.5773 16.1055 15.2617 15.6834 15.684C15.319 16.0484 14.76 16.0972 14.3421 15.8326L14.261 15.809L14.2053 15.7929L14.1504 15.7701L13.9756 15.6966C13.6496 15.5601 13.446 15.3194 13.337 15.1696C13.2149 15.0015 13.1151 14.8119 13.0321 14.6281L12.6335 13.7429C12.5447 13.5461 12.4376 13.3854 12.3159 13.253L12.0076 12.9185L11.7002 12.584C11.5465 12.4168 11.3754 12.2658 11.1858 12.1304L10.8108 11.8627L10.4367 11.5949C10.2699 11.4758 10.0733 11.3712 9.84292 11.2849L8.90879 10.9352C8.3762 10.7357 8.0009 10.3186 7.72719 9.86753L7.49662 10.1843C7.33682 10.4025 7.18558 10.6317 7.04391 10.871L6.80489 11.2739L6.56671 11.6777C6.23091 12.2448 5.69661 12.5714 5.10048 12.7014L4.13087 12.9126L3.85638 13.7792C3.63287 14.4859 3.0458 14.978 2.46278 15.3275L1.80146 15.7228C1.37701 16.1042 0.724925 16.0923 0.316645 15.684C-0.105548 15.2617 -0.105548 14.5773 0.316645 14.1551L0.377456 14.0935L0.472052 13.9997L1.35128 13.4726C1.5515 13.3526 1.67367 13.2527 1.74318 13.1812C1.77615 13.1472 1.79171 13.1243 1.79808 13.1145L1.94926 12.6398L2.10382 12.1515L2.15028 12.0198C2.40057 11.3768 2.92511 10.9627 3.58526 10.8186L4.63932 10.5889C4.67937 10.5801 4.70162 10.5693 4.71196 10.5644L4.94507 10.1725L5.18325 9.76871C5.35995 9.47027 5.5496 9.18312 5.75167 8.90714L6.02278 8.53632L6.29475 8.16551C6.37754 8.05243 6.47053 7.93096 6.56924 7.81497L6.55066 7.78625C6.41766 7.58145 6.30485 7.44246 6.2162 7.35293C6.12571 7.26155 6.08377 7.24478 6.09542 7.24988L5.64862 7.05476L5.20267 6.8588C4.70708 6.6416 4.30081 6.29331 4.02107 5.82238L3.78205 5.41947L3.54218 5.01656C3.45961 4.8775 3.35886 4.76905 3.23475 4.68206L2.47967 4.1533C2.03043 3.83845 1.71841 3.40487 1.53541 2.90149L1.36395 2.43016L1.28456 2.21307L1.24993 2.2173L0.739791 2.26882L0.377456 1.90646L0.316645 1.84479C-0.105548 1.42257 -0.105548 0.73816 0.316645 0.31593C0.596323 0.036227 0.990512 -0.0562191 1.34791 0.0346528L1.45095 0.023672L1.52696 0.0160699L1.60298 0.0194486L1.842 0.0287401C2.31065 0.0476032 2.64458 0.299944 2.84285 0.532167C3.02981 0.751138 3.14618 1.00478 3.22461 1.22058L3.56752 2.16239C3.61275 2.28684 3.66634 2.34411 3.7204 2.38201L4.09793 2.64639L4.47547 2.91162C4.85457 3.17733 5.16477 3.5138 5.40116 3.91172L5.64102 4.31463L5.88005 4.71754C5.91931 4.78365 5.97055 4.83438 6.07008 4.87803L6.96283 5.26996C7.52778 5.51755 7.96518 6.01256 8.3125 6.53191C8.48967 6.42389 8.59687 6.3352 8.65626 6.27259C8.68325 6.2441 8.69575 6.22509 8.70102 6.21684L8.83616 5.73369L8.97552 5.23195C9.10445 4.76923 9.31502 4.34102 9.62417 3.97422L9.91809 3.62622L10.2112 3.27737C10.4974 2.93771 10.8415 2.66182 11.2331 2.44958L12.0659 1.99853C12.2351 1.90686 12.3716 1.79669 12.4832 1.6691L12.783 1.32616L13.082 0.983225C13.2026 0.845214 13.3309 0.713363 13.4637 0.599741C13.5865 0.494805 13.7672 0.358918 13.9958 0.272852L14.1766 0.204433L14.2349 0.182471L14.2957 0.167267L14.3742 0.147839Z" fill="#1A1A1A"/>
</g>
</svg>
