<svg width="24" height="24" viewBox="0 0 24 24" fill="none" xmlns="http://www.w3.org/2000/svg">
<path d="M17.1912 19.4742L17.1181 18.4769L17.1912 19.4742ZM16.4711 19.2596L15.8755 20.0628L16.4711 19.2596ZM16.143 19.0162L15.5474 19.8195L16.143 19.0162ZM15.8149 18.7729L16.4105 17.9696L15.8149 18.7729ZM14.4488 18.028L14.0137 18.9285V18.9285L14.4488 18.028ZM13.726 17.8251L13.8206 16.8296L13.726 17.8251ZM12.9725 17.7534L12.8778 18.7489L12.9725 17.7534ZM12.2346 17.6151L11.9614 18.577L12.2346 17.6151ZM11.8735 17.5125L11.6003 18.4745L11.8735 17.5125ZM11.5123 17.41L11.7855 16.448L11.5123 17.41ZM10.7399 17.419L11.0017 18.3841L10.7399 17.419ZM10.3286 17.5305L10.0669 16.5654L10.3286 17.5305ZM9.91732 17.6421L9.65556 16.6769L9.91732 17.6421ZM8.61351 16.9429L7.94115 17.6831L8.61351 16.9429ZM8.16563 16.342L7.25531 16.7559L8.16563 16.342ZM7.5215 14.7095L6.56405 14.9981L7.5215 14.7095ZM7.32946 13.7211L6.32946 13.7183L7.32946 13.7211ZM7.60215 11.9451L6.6639 11.5992L7.60215 11.9451ZM8.26229 11.166L8.3828 12.1587L8.26229 11.166ZM9.04295 11.0712L8.92243 10.0785L9.04295 11.0712ZM9.79273 11.007L9.83966 12.0059L9.79273 11.007ZM10.5116 10.9732L10.4647 9.9743L10.5116 10.9732ZM11.2412 10.9659L11.2154 11.9656L11.2412 10.9659ZM11.6114 10.9755L11.5855 11.9751L11.6114 10.9755ZM11.9815 10.985L12.0073 9.98536L11.9815 10.985ZM12.6433 10.8602L12.2249 9.95197L12.6433 10.8602ZM13.2266 10.5916L12.8082 9.68328L13.2266 10.5916ZM13.4845 10.0534L12.488 10.1368L13.4845 10.0534ZM13.4506 9.64957L14.4472 9.56613L13.4506 9.64957ZM13.4168 9.24575L12.4203 9.32919L13.4168 9.24575ZM13.5293 8.49484L12.6077 8.10654L13.5293 8.49484ZM13.8218 7.80065L14.7433 8.18894L13.8218 7.80065ZM14.0711 7.09286L13.1096 6.81804L14.0711 7.09286ZM14.2773 6.37148L13.3158 6.09666L14.2773 6.37148ZM14.8306 5.95129L14.6995 4.95991L14.8306 5.95129ZM15.2808 5.89178L15.4118 6.88316L15.2808 5.89178ZM15.7309 5.83228L15.5999 4.8409L15.7309 5.83228ZM16.5126 5.96634L16.0083 6.82988L16.5126 5.96634ZM16.8441 6.15991L17.3484 5.29638L16.8441 6.15991ZM17.1755 6.35348L16.6712 7.21702L17.1755 6.35348ZM17.8451 6.7201L17.3895 7.61029L17.8451 6.7201ZM18.5213 7.06619L18.9769 6.176L18.5213 7.06619ZM19.1844 7.45303L19.734 6.61765L19.1844 7.45303ZM19.8342 7.8806L19.2845 8.71598L19.8342 7.8806ZM20.5245 8.1823L20.2906 9.15456L20.5245 8.1823ZM21.2553 8.35811L21.4892 7.38584L21.2553 8.35811ZM21.3933 8.77288L22.2142 9.34401L21.3933 8.77288ZM21.1659 9.09976L20.345 8.52863L21.1659 9.09976ZM20.9385 9.42663L21.7593 9.99775L20.9385 9.42663ZM20.7522 10.1532L19.7575 10.2556L20.7522 10.1532ZM20.8345 10.9526L21.8292 10.8502L20.8345 10.9526ZM20.3157 12.3661L21.191 12.8496L20.3157 12.3661ZM20.0026 13.0583L20.9444 13.3943L20.0026 13.0583ZM19.8762 13.4125L18.9343 13.0765L19.8762 13.4125ZM19.7498 13.7668L18.808 13.4308L19.7498 13.7668ZM19.5093 14.4787L20.462 14.7827L19.5093 14.4787ZM19.2811 15.1939L18.3284 14.8899L19.2811 15.1939ZM19.0125 15.8981L18.0992 15.4909L19.0125 15.8981ZM18.7034 16.5914L19.6168 16.9986L18.7034 16.5914ZM18.4003 17.6749L17.4201 17.4772L18.4003 17.6749ZM18.3261 18.0433L19.3063 18.2409L18.3261 18.0433ZM18.2184 18.6389L17.229 18.4936L18.2184 18.6389ZM18.185 18.8662L17.1956 18.7208L18.185 18.8662ZM18.1516 19.0934L19.141 19.2388L18.1516 19.0934ZM18.1804 19.3375L17.9187 20.3027L18.1804 19.3375ZM18.3047 19.3712L18.5664 18.4061L18.3047 19.3712ZM17.9749 19.4168L18.048 20.4141L17.9749 19.4168ZM17.5831 19.4455L17.51 18.4482L17.1181 18.4769L17.1912 19.4742L17.2642 20.4715L17.6561 20.4428L17.5831 19.4455ZM17.1912 19.4742L17.1181 18.4769C17.1095 18.4775 17.1048 18.4771 17.1032 18.477C17.1017 18.4768 17.1012 18.4766 17.1009 18.4765C17.1005 18.4764 17.0981 18.4757 17.0932 18.4732C17.0882 18.4707 17.0794 18.4656 17.0668 18.4563L16.4711 19.2596L15.8755 20.0628C16.2784 20.3616 16.7539 20.5089 17.2642 20.4715L17.1912 19.4742ZM16.4711 19.2596L17.0668 18.4563L16.7387 18.213L16.143 19.0162L15.5474 19.8195L15.8755 20.0628L16.4711 19.2596ZM16.143 19.0162L16.7387 18.213L16.4105 17.9696L15.8149 18.7729L15.2192 19.5761L15.5474 19.8195L16.143 19.0162ZM15.8149 18.7729L16.4105 17.9696C16.1445 17.7724 15.8663 17.6023 15.5758 17.462L15.1407 18.3624L14.7057 19.2628C14.8765 19.3453 15.0477 19.4489 15.2192 19.5761L15.8149 18.7729ZM15.1407 18.3624L15.5758 17.462L15.2298 17.2948L14.7947 18.1952L14.3597 19.0956L14.7057 19.2628L15.1407 18.3624ZM14.7947 18.1952L15.2298 17.2948L14.8838 17.1276L14.4488 18.028L14.0137 18.9285L14.3597 19.0956L14.7947 18.1952ZM14.4488 18.028L14.8838 17.1276C14.5479 16.9653 14.1919 16.8648 13.8206 16.8296L13.726 17.8251L13.6314 18.8206C13.7625 18.833 13.8883 18.8679 14.0137 18.9285L14.4488 18.028ZM13.726 17.8251L13.8206 16.8296L13.4439 16.7937L13.3492 17.7893L13.2546 18.7848L13.6314 18.8206L13.726 17.8251ZM13.3492 17.7893L13.4439 16.7937L13.0671 16.7579L12.9725 17.7534L12.8778 18.7489L13.2546 18.7848L13.3492 17.7893ZM12.9725 17.7534L13.0671 16.7579C12.8758 16.7397 12.6897 16.7048 12.5077 16.6531L12.2346 17.6151L11.9614 18.577C12.261 18.6621 12.5667 18.7194 12.8778 18.7489L12.9725 17.7534ZM12.2346 17.6151L12.5077 16.6531L12.1466 16.5506L11.8735 17.5125L11.6003 18.4745L11.9614 18.577L12.2346 17.6151ZM11.8735 17.5125L12.1466 16.5506L11.7855 16.448L11.5123 17.41L11.2392 18.3719L11.6003 18.4745L11.8735 17.5125ZM11.5123 17.41L11.7855 16.448C11.3474 16.3236 10.9034 16.3385 10.4781 16.4538L10.7399 17.419L11.0017 18.3841C11.1248 18.3507 11.1958 18.3596 11.2392 18.3719L11.5123 17.41ZM10.7399 17.419L10.4781 16.4538L10.0669 16.5654L10.3286 17.5305L10.5904 18.4957L11.0017 18.3841L10.7399 17.419ZM10.3286 17.5305L10.0669 16.5654L9.65556 16.6769L9.91732 17.6421L10.1791 18.6072L10.5904 18.4957L10.3286 17.5305ZM9.91732 17.6421L9.65556 16.6769C9.64809 16.679 9.68711 16.6676 9.75295 16.6823C9.82154 16.6977 9.86575 16.7294 9.88088 16.7432L9.20852 17.4834L8.53617 18.2236C9.00488 18.6494 9.5994 18.7644 10.1791 18.6072L9.91732 17.6421ZM9.20852 17.4834L9.88088 16.7432L9.58338 16.4729L8.91102 17.2132L8.23866 17.9534L8.53617 18.2236L9.20852 17.4834ZM8.91102 17.2132L9.58338 16.4729L9.28587 16.2027L8.61351 16.9429L7.94115 17.6831L8.23866 17.9534L8.91102 17.2132ZM8.61351 16.9429L9.28587 16.2027C9.17746 16.1042 9.11418 16.0121 9.07595 15.9281L8.16563 16.342L7.25531 16.7559C7.41758 17.1128 7.65287 17.4213 7.94115 17.6831L8.61351 16.9429ZM8.16563 16.342L9.07595 15.9281L8.92557 15.5974L8.01526 16.0113L7.10494 16.4252L7.25531 16.7559L8.16563 16.342ZM8.01526 16.0113L8.92557 15.5974L8.7752 15.2666L7.86488 15.6805L6.95457 16.0945L7.10494 16.4252L8.01526 16.0113ZM7.86488 15.6805L8.7752 15.2666C8.69188 15.0834 8.62585 14.9083 8.57546 14.7411L7.61801 15.0297L6.66055 15.3182C6.73883 15.578 6.83739 15.8368 6.95457 16.0945L7.86488 15.6805ZM7.61801 15.0297L8.57546 14.7411L8.47896 14.4209L7.5215 14.7095L6.56405 14.9981L6.66055 15.3182L7.61801 15.0297ZM7.5215 14.7095L8.47896 14.4209L8.38245 14.1007L7.425 14.3893L6.46754 14.6779L6.56405 14.9981L7.5215 14.7095ZM7.425 14.3893L8.38245 14.1007C8.34774 13.9856 8.32907 13.8612 8.32945 13.7238L7.32946 13.7211L6.32946 13.7183C6.32856 14.045 6.37358 14.3661 6.46754 14.6779L7.425 14.3893ZM7.32946 13.7211L8.32945 13.7238L8.33042 13.3757L7.33042 13.373L6.33043 13.3702L6.32946 13.7183L7.32946 13.7211ZM7.33042 13.373L8.33042 13.3757L8.33138 13.0277L7.33139 13.0249L6.33139 13.0221L6.33043 13.3702L7.33042 13.373ZM7.33139 13.0249L8.33138 13.0277C8.33166 12.926 8.35125 12.8041 8.4055 12.6569L7.46725 12.311L6.529 11.965C6.40338 12.3057 6.33239 12.6597 6.33139 13.0221L7.33139 13.0249ZM7.46725 12.311L8.4055 12.6569L8.5404 12.2911L7.60215 11.9451L6.6639 11.5992L6.529 11.965L7.46725 12.311ZM7.60215 11.9451L8.5404 12.2911L8.6753 11.9252L7.73705 11.5793L6.7988 11.2333L6.6639 11.5992L7.60215 11.9451ZM7.73705 11.5793L8.6753 11.9252C8.66717 11.9473 8.63464 12.0156 8.55415 12.0789C8.47409 12.1419 8.40195 12.1564 8.3828 12.1587L8.26229 11.166L8.14177 10.1733C7.8624 10.2072 7.57261 10.3064 7.31747 10.5071C7.0619 10.7082 6.89687 10.9673 6.7988 11.2333L7.73705 11.5793ZM8.26229 11.166L8.3828 12.1587L8.77314 12.1113L8.65262 11.1186L8.5321 10.1259L8.14177 10.1733L8.26229 11.166ZM8.65262 11.1186L8.77314 12.1113L9.16347 12.064L9.04295 11.0712L8.92243 10.0785L8.5321 10.1259L8.65262 11.1186ZM9.04295 11.0712L9.16347 12.064C9.40146 12.0351 9.62675 12.0159 9.83966 12.0059L9.79273 11.007L9.74581 10.0081C9.47944 10.0206 9.20488 10.0442 8.92243 10.0785L9.04295 11.0712ZM9.79273 11.007L9.83966 12.0059L10.1991 11.989L10.1522 10.9901L10.1053 9.99119L9.74581 10.0081L9.79273 11.007ZM10.1522 10.9901L10.1991 11.989L10.5586 11.9721L10.5116 10.9732L10.4647 9.9743L10.1053 9.99119L10.1522 10.9901ZM10.5116 10.9732L10.5586 11.9721C10.7733 11.962 10.9922 11.9598 11.2154 11.9656L11.2412 10.9659L11.2671 9.96622C10.9967 9.95923 10.7293 9.96188 10.4647 9.9743L10.5116 10.9732ZM11.2412 10.9659L11.2154 11.9656L11.5855 11.9751L11.6114 10.9755L11.6372 9.97579L11.2671 9.96622L11.2412 10.9659ZM11.6114 10.9755L11.5855 11.9751L11.9557 11.9847L11.9815 10.985L12.0073 9.98536L11.6372 9.97579L11.6114 10.9755ZM11.9815 10.985L11.9557 11.9847C12.3321 11.9944 12.7083 11.9313 13.0617 11.7685L12.6433 10.8602L12.2249 9.95197C12.1894 9.96831 12.1244 9.98839 12.0073 9.98536L11.9815 10.985ZM12.6433 10.8602L13.0617 11.7685L13.3533 11.6342L12.935 10.7259L12.5166 9.81763L12.2249 9.95197L12.6433 10.8602ZM12.935 10.7259L13.3533 11.6342L13.645 11.4998L13.2266 10.5916L12.8082 9.68328L12.5166 9.81763L12.935 10.7259ZM13.2266 10.5916L13.645 11.4998C13.9366 11.3655 14.1871 11.1385 14.3387 10.8219C14.4813 10.5244 14.502 10.2207 14.481 9.96995L13.4845 10.0534L12.488 10.1368C12.4895 10.1553 12.4785 10.0759 12.5351 9.95775C12.6008 9.82061 12.7111 9.72803 12.8082 9.68328L13.2266 10.5916ZM13.4845 10.0534L14.481 9.96995L14.4472 9.56613L13.4506 9.64957L12.4541 9.73301L12.488 10.1368L13.4845 10.0534ZM13.4506 9.64957L14.4472 9.56613L14.4133 9.16231L13.4168 9.24575L12.4203 9.32919L12.4541 9.73301L13.4506 9.64957ZM13.4168 9.24575L14.4133 9.16231C14.4032 9.04156 14.4207 8.95448 14.4508 8.88313L13.5293 8.49484L12.6077 8.10654C12.4428 8.49799 12.3853 8.91151 12.4203 9.32919L13.4168 9.24575ZM13.5293 8.49484L14.4508 8.88313L14.5971 8.53604L13.6755 8.14774L12.754 7.75944L12.6077 8.10654L13.5293 8.49484ZM13.6755 8.14774L14.5971 8.53604L14.7433 8.18894L13.8218 7.80065L12.9002 7.41235L12.754 7.75944L13.6755 8.14774ZM13.8218 7.80065L14.7433 8.18894C14.8563 7.92071 14.9528 7.64689 15.0326 7.36768L14.0711 7.09286L13.1096 6.81804C13.052 7.01975 12.9822 7.21779 12.9002 7.41235L13.8218 7.80065ZM14.0711 7.09286L15.0326 7.36768L15.1357 7.00699L14.1742 6.73217L13.2127 6.45735L13.1096 6.81804L14.0711 7.09286ZM14.1742 6.73217L15.1357 7.00699L15.2388 6.6463L14.2773 6.37148L13.3158 6.09666L13.2127 6.45735L14.1742 6.73217ZM14.2773 6.37148L15.2388 6.6463C15.2303 6.676 15.2137 6.7179 15.1831 6.76386C15.1521 6.81053 15.1136 6.85085 15.072 6.88245C14.9897 6.94493 14.9323 6.94654 14.9616 6.94266L14.8306 5.95129L14.6995 4.95991C14.4287 4.9957 14.129 5.08718 13.8624 5.28972C13.584 5.50115 13.4045 5.78622 13.3158 6.09666L14.2773 6.37148ZM14.8306 5.95129L14.9616 6.94266L15.4118 6.88316L15.2808 5.89178L15.1497 4.9004L14.6995 4.95991L14.8306 5.95129ZM15.2808 5.89178L15.4118 6.88316L15.862 6.82365L15.7309 5.83228L15.5999 4.8409L15.1497 4.9004L15.2808 5.89178ZM15.7309 5.83228L15.862 6.82365C15.9265 6.81513 15.9645 6.81858 15.9824 6.82165C15.9985 6.82441 16.0048 6.82781 16.0083 6.82988L16.5126 5.96634L17.0169 5.10281C16.5707 4.84226 16.0783 4.77766 15.5999 4.8409L15.7309 5.83228ZM16.5126 5.96634L16.0083 6.82988L16.3398 7.02345L16.8441 6.15991L17.3484 5.29638L17.0169 5.10281L16.5126 5.96634ZM16.8441 6.15991L16.3398 7.02345L16.6712 7.21702L17.1755 6.35348L17.6798 5.48995L17.3484 5.29638L16.8441 6.15991ZM17.1755 6.35348L16.6712 7.21702C16.908 7.3553 17.1475 7.4864 17.3895 7.61029L17.8451 6.7201L18.3007 5.82991C18.0919 5.72307 17.885 5.60976 17.6798 5.48995L17.1755 6.35348ZM17.8451 6.7201L17.3895 7.61029L17.7276 7.78333L18.1832 6.89314L18.6388 6.00296L18.3007 5.82991L17.8451 6.7201ZM18.1832 6.89314L17.7276 7.78333L18.0657 7.95638L18.5213 7.06619L18.9769 6.176L18.6388 6.00296L18.1832 6.89314ZM18.5213 7.06619L18.0657 7.95638C18.2581 8.0548 18.4477 8.16537 18.6347 8.28841L19.1844 7.45303L19.734 6.61765C19.4878 6.45563 19.2354 6.3083 18.9769 6.176L18.5213 7.06619ZM19.1844 7.45303L18.6347 8.28841L18.9596 8.50219L19.5093 7.66681L20.059 6.83143L19.734 6.61765L19.1844 7.45303ZM19.5093 7.66681L18.9596 8.50219L19.2845 8.71598L19.8342 7.8806L20.3839 7.04522L20.059 6.83143L19.5093 7.66681ZM19.8342 7.8806L19.2845 8.71598C19.5943 8.9198 19.9307 9.06798 20.2906 9.15456L20.5245 8.1823L20.7584 7.21003C20.6311 7.1794 20.5073 7.12646 20.3839 7.04522L19.8342 7.8806ZM20.5245 8.1823L20.2906 9.15456L20.656 9.24246L20.8899 8.2702L21.1238 7.29794L20.7584 7.21003L20.5245 8.1823ZM20.8899 8.2702L20.656 9.24246L21.0214 9.33037L21.2553 8.35811L21.4892 7.38584L21.1238 7.29794L20.8899 8.2702ZM21.2553 8.35811L21.0214 9.33037C21.0114 9.32796 20.9354 9.30967 20.8388 9.24401C20.7312 9.17086 20.5946 9.0346 20.5237 8.82141C20.4548 8.6144 20.4822 8.43789 20.5112 8.34008C20.5256 8.29163 20.5418 8.25658 20.5523 8.23619C20.563 8.2155 20.571 8.20389 20.5725 8.20176L21.3933 8.77288L22.2142 9.34401C22.3293 9.17858 22.6021 8.73322 22.4214 8.19009C22.2287 7.61072 21.7029 7.43725 21.4892 7.38584L21.2553 8.35811ZM21.3933 8.77288L20.5725 8.20176L20.345 8.52863L21.1659 9.09976L21.9868 9.67088L22.2142 9.34401L21.3933 8.77288ZM21.1659 9.09976L20.345 8.52863L20.1176 8.85551L20.9385 9.42663L21.7593 9.99775L21.9868 9.67088L21.1659 9.09976ZM20.9385 9.42663L20.1176 8.85551C19.8279 9.27184 19.7058 9.75344 19.7575 10.2556L20.7522 10.1532L21.7469 10.0508C21.7456 10.0379 21.7458 10.0299 21.7461 10.0259C21.7464 10.022 21.7468 10.0203 21.7469 10.0201C21.7469 10.0198 21.7472 10.0186 21.7485 10.0159C21.7498 10.0131 21.7529 10.007 21.7593 9.99775L20.9385 9.42663ZM20.7522 10.1532L19.7575 10.2556L19.7986 10.6553L20.7933 10.5529L21.7881 10.4505L21.7469 10.0508L20.7522 10.1532ZM20.7933 10.5529L19.7986 10.6553L19.8398 11.055L20.8345 10.9526L21.8292 10.8502L21.7881 10.4505L20.7933 10.5529ZM20.8345 10.9526L19.8398 11.055C19.8472 11.1274 19.8353 11.1676 19.8136 11.2067L20.689 11.6902L21.5643 12.1738C21.7916 11.7623 21.8767 11.3108 21.8292 10.8502L20.8345 10.9526ZM20.689 11.6902L19.8136 11.2067L19.627 11.5446L20.5023 12.0282L21.3776 12.5117L21.5643 12.1738L20.689 11.6902ZM20.5023 12.0282L19.627 11.5446L19.4403 11.8826L20.3157 12.3661L21.191 12.8496L21.3776 12.5117L20.5023 12.0282ZM20.3157 12.3661L19.4403 11.8826C19.2904 12.1539 19.1636 12.4339 19.0607 12.7223L20.0026 13.0583L20.9444 13.3943C21.0101 13.2103 21.092 13.0288 21.191 12.8496L20.3157 12.3661ZM20.0026 13.0583L19.0607 12.7223L18.9343 13.0765L19.8762 13.4125L20.8181 13.7486L20.9444 13.3943L20.0026 13.0583ZM19.8762 13.4125L18.9343 13.0765L18.808 13.4308L19.7498 13.7668L20.6917 14.1028L20.8181 13.7486L19.8762 13.4125ZM19.7498 13.7668L18.808 13.4308C18.7199 13.6776 18.6361 13.9256 18.5566 14.1747L19.5093 14.4787L20.462 14.7827C20.5346 14.555 20.6112 14.3284 20.6917 14.1028L19.7498 13.7668ZM19.5093 14.4787L18.5566 14.1747L18.4425 14.5323L19.3952 14.8363L20.3479 15.1403L20.462 14.7827L19.5093 14.4787ZM19.3952 14.8363L18.4425 14.5323L18.3284 14.8899L19.2811 15.1939L20.2338 15.4979L20.3479 15.1403L19.3952 14.8363ZM19.2811 15.1939L18.3284 14.8899C18.2637 15.0928 18.1873 15.2931 18.0992 15.4909L19.0125 15.8981L19.9258 16.3053C20.0437 16.041 20.1464 15.7718 20.2338 15.4979L19.2811 15.1939ZM19.0125 15.8981L18.0992 15.4909L17.9446 15.8376L18.858 16.2448L19.7713 16.652L19.9258 16.3053L19.0125 15.8981ZM18.858 16.2448L17.9446 15.8376L17.7901 16.1842L18.7034 16.5914L19.6168 16.9986L19.7713 16.652L18.858 16.2448ZM18.7034 16.5914L17.7901 16.1842C17.6574 16.4818 17.5585 16.7904 17.4943 17.1088L18.4746 17.3065L19.4549 17.5041C19.4897 17.3313 19.5434 17.1632 19.6168 16.9986L18.7034 16.5914ZM18.4746 17.3065L17.4943 17.1088L17.4201 17.4772L18.4003 17.6749L19.3806 17.8725L19.4549 17.5041L18.4746 17.3065ZM18.4003 17.6749L17.4201 17.4772L17.3458 17.8456L18.3261 18.0433L19.3063 18.2409L19.3806 17.8725L18.4003 17.6749ZM18.3261 18.0433L17.3458 17.8456C17.2947 18.0992 17.2549 18.3171 17.229 18.4936L18.2184 18.6389L19.2078 18.7842C19.2264 18.6577 19.2584 18.4785 19.3063 18.2409L18.3261 18.0433ZM18.2184 18.6389L17.229 18.4936L17.1956 18.7208L18.185 18.8662L19.1744 19.0115L19.2078 18.7842L18.2184 18.6389ZM18.185 18.8662L17.1956 18.7208L17.1623 18.9481L18.1516 19.0934L19.141 19.2388L19.1744 19.0115L18.185 18.8662ZM18.1516 19.0934L17.1623 18.9481C17.1474 19.0494 17.1286 19.2118 17.149 19.3851C17.1591 19.4707 17.1861 19.629 17.2794 19.7985C17.3843 19.9888 17.5883 20.2131 17.9187 20.3027L18.1804 19.3375L18.4421 18.3724C18.7517 18.4563 18.9391 18.6662 19.0312 18.8335C19.1118 18.9797 19.13 19.1062 19.1353 19.1511C19.1461 19.243 19.1336 19.289 19.141 19.2388L18.1516 19.0934ZM18.1804 19.3375L17.9187 20.3027L17.9808 20.3195L18.2425 19.3544L18.5042 18.3892L18.4421 18.3724L18.1804 19.3375ZM18.2425 19.3544L17.9808 20.3195L18.043 20.3364L18.3047 19.3712L18.5664 18.4061L18.5042 18.3892L18.2425 19.3544ZM18.3047 19.3712L18.043 20.3364C18.0167 20.3293 17.9398 20.3077 17.8486 20.2602C17.8181 20.2444 17.4778 20.0799 17.3537 19.6575C17.184 19.0798 17.5623 18.7006 17.6736 18.6083C17.7989 18.5043 17.9187 18.4585 17.9475 18.4474C18.0654 18.4019 18.1645 18.3938 18.1165 18.4005C18.0964 18.4032 18.032 18.4099 17.9019 18.4195L17.9749 19.4168L18.048 20.4141C18.1791 20.4045 18.3003 20.394 18.3901 20.3816C18.3971 20.3807 18.5322 20.3655 18.6672 20.3134C18.7003 20.3006 18.8232 20.2532 18.9505 20.1476C19.0637 20.0537 19.4427 19.673 19.2726 19.0938C19.148 18.6698 18.806 18.5039 18.7727 18.4865C18.6788 18.4376 18.5978 18.4146 18.5664 18.4061L18.3047 19.3712ZM17.9749 19.4168L17.9019 18.4195L17.51 18.4482L17.5831 19.4455L17.6561 20.4428L18.048 20.4141L17.9749 19.4168Z" fill="black"/>
<path d="M7.00758 7.96495C7.12441 8.50473 7.6567 8.84761 8.19648 8.73079C8.73627 8.61396 9.07915 8.08167 8.96233 7.54189L7.98495 7.75342L7.00758 7.96495ZM7.9638 7.65568L7.02668 7.30667L6.9245 7.58105L6.98643 7.86721L7.9638 7.65568ZM8.09178 7.31203L9.02891 7.66103L8.09178 7.31203ZM7.49377 6.02417L7.9782 5.14934L7.64948 4.96732L7.28224 5.0468L7.49377 6.02417ZM7.62662 6.09774L7.1422 6.97257L9.07016 8.04015L8.60399 5.88621L7.62662 6.09774ZM8.58284 5.78847C8.46602 5.24868 7.93373 4.9058 7.39394 5.02263C6.85415 5.13945 6.51127 5.67174 6.6281 6.21153L7.60547 6L8.58284 5.78847ZM7.98495 7.75342L8.96233 7.54189L8.94117 7.44415L7.9638 7.65568L6.98643 7.86721L7.00758 7.96495L7.98495 7.75342ZM7.9638 7.65568L8.90092 8.00468L9.02891 7.66103L8.09178 7.31203L7.15466 6.96302L7.02668 7.30667L7.9638 7.65568ZM8.09178 7.31203L9.02891 7.66103C9.12625 7.39965 9.2789 6.90008 9.06627 6.40549L8.14757 6.80045L7.22887 7.19541C7.16262 7.0413 7.17343 6.92395 7.17562 6.9039C7.17819 6.88031 7.17959 6.8961 7.15466 6.96302L8.09178 7.31203ZM8.14757 6.80045L9.06627 6.40549L8.99407 6.23756L8.07538 6.63252L7.15668 7.02748L7.22887 7.19541L8.14757 6.80045ZM8.07538 6.63252L8.99407 6.23756L8.92188 6.06963L8.00318 6.46459L7.08448 6.85955L7.15668 7.02748L8.07538 6.63252ZM8.00318 6.46459L8.92188 6.06963C8.79735 5.77997 8.57111 5.48867 8.20592 5.32347L7.79376 6.23458L7.3816 7.14569C7.2991 7.10838 7.22908 7.05542 7.17531 6.99637C7.1236 6.93957 7.09679 6.88818 7.08448 6.85955L8.00318 6.46459ZM7.79376 6.23458L8.20592 5.32347L8.06869 5.26139L7.65653 6.1725L7.24437 7.08362L7.3816 7.14569L7.79376 6.23458ZM7.65653 6.1725L8.06869 5.26139L7.93146 5.19931L7.5193 6.11043L7.10714 7.02154L7.24437 7.08362L7.65653 6.1725ZM7.5193 6.11043L7.93146 5.19931C7.87011 5.17156 7.98367 5.21213 8.10393 5.32174C8.14194 5.35638 8.23036 5.44174 8.30423 5.57931C8.3825 5.7251 8.48089 6.00529 8.37768 6.34004C8.27768 6.6644 8.05087 6.83446 7.92751 6.90578C7.80454 6.97688 7.6962 7.00352 7.64945 7.01363L7.43792 6.03626L7.22639 5.05889C7.17034 5.07102 7.05471 5.10019 6.92645 5.17434C6.7978 5.24872 6.56771 5.42236 6.46645 5.75082C6.36199 6.08966 6.46111 6.37447 6.54215 6.5254C6.61877 6.66811 6.71197 6.75914 6.75676 6.79996C6.90415 6.93428 7.07701 7.00791 7.10714 7.02154L7.5193 6.11043ZM7.43792 6.03626L7.64945 7.01363L7.7053 7.00155L7.49377 6.02417L7.28224 5.0468L7.22639 5.05889L7.43792 6.03626ZM7.49377 6.02417L7.00935 6.89901L7.1422 6.97257L7.62662 6.09774L8.11104 5.2229L7.9782 5.14934L7.49377 6.02417ZM7.62662 6.09774L8.60399 5.88621L8.58284 5.78847L7.60547 6L6.6281 6.21153L6.64925 6.30927L7.62662 6.09774Z" fill="black"/>
<path d="M4.91989 14.1239C5.45679 13.9944 5.78708 13.4542 5.65761 12.9173C5.52815 12.3804 4.98795 12.0501 4.45106 12.1796L4.68548 13.1517L4.91989 14.1239ZM4.58826 13.1752L4.6609 14.1725L4.74283 14.1666L4.82268 14.1473L4.58826 13.1752ZM3.59476 13.0816L3.26322 14.0251L3.59476 13.0816ZM3.12026 12.9693L2.83166 12.0119L3.12026 12.9693ZM2.95342 13.0196L3.24202 13.9771L2.95342 13.0196ZM2.93207 13.3022L1.95994 13.5366L2.00273 13.714L2.10546 13.8649L2.93207 13.3022ZM3.09135 13.5361L3.32577 14.5083L4.73208 14.1692L3.91797 12.9734L3.09135 13.5361ZM2.75972 12.5874C2.22283 12.7169 1.89254 13.2571 2.022 13.794C2.15147 14.3309 2.69166 14.6612 3.22856 14.5317L2.99414 13.5596L2.75972 12.5874ZM4.68548 13.1517L4.45106 12.1796L4.35384 12.203L4.58826 13.1752L4.82268 14.1473L4.91989 14.1239L4.68548 13.1517ZM4.58826 13.1752L4.51562 12.1778L4.21441 12.1997L4.28705 13.1971L4.35969 14.1945L4.6609 14.1725L4.58826 13.1752ZM4.28705 13.1971L4.21441 12.1997C4.1583 12.2038 4.12339 12.2024 4.10601 12.2008C4.08845 12.1991 4.09647 12.198 4.12184 12.2069L3.7903 13.1503L3.45876 14.0938C3.76383 14.201 4.07936 14.2149 4.35969 14.1945L4.28705 13.1971ZM3.7903 13.1503L4.12184 12.2069L3.9263 12.1382L3.59476 13.0816L3.26322 14.0251L3.45876 14.0938L3.7903 13.1503ZM3.59476 13.0816L3.9263 12.1382L3.73076 12.0695L3.39922 13.0129L3.06768 13.9563L3.26322 14.0251L3.59476 13.0816ZM3.39922 13.0129L3.73076 12.0695C3.63206 12.0348 3.51367 11.9996 3.38603 11.9796C3.27278 11.9619 3.06508 11.9415 2.83166 12.0119L3.12026 12.9693L3.40887 13.9268C3.31328 13.9556 3.23372 13.9618 3.18406 13.9625C3.13331 13.9633 3.09615 13.9586 3.0774 13.9557C3.04274 13.9503 3.03603 13.9452 3.06768 13.9563L3.39922 13.0129ZM3.12026 12.9693L2.83166 12.0119L2.74824 12.037L3.03684 12.9945L3.32544 13.9519L3.40887 13.9268L3.12026 12.9693ZM3.03684 12.9945L2.74824 12.037L2.66482 12.0622L2.95342 13.0196L3.24202 13.9771L3.32544 13.9519L3.03684 12.9945ZM2.95342 13.0196L2.66482 12.0622C2.35421 12.1558 2.07324 12.3922 1.95199 12.7483C1.85487 13.0335 1.89937 13.2854 1.9289 13.4079L2.90104 13.1735L3.87317 12.939C3.88202 12.9757 3.9249 13.1591 3.84524 13.393C3.80103 13.5228 3.72216 13.6571 3.60034 13.7705C3.48056 13.882 3.35072 13.9443 3.24202 13.9771L2.95342 13.0196ZM2.90104 13.1735L1.9289 13.4079L1.95994 13.5366L2.93207 13.3022L3.90421 13.0677L3.87317 12.939L2.90104 13.1735ZM2.93207 13.3022L2.10546 13.8649L2.26474 14.0989L3.09135 13.5361L3.91797 12.9734L3.75869 12.7394L2.93207 13.3022ZM3.09135 13.5361L2.85694 12.564L2.75972 12.5874L2.99414 13.5596L3.22856 14.5317L3.32577 14.5083L3.09135 13.5361Z" fill="black"/>
<path d="M5.07448 10.914C5.50392 11.2613 6.13357 11.1947 6.48084 10.7652C6.82811 10.3358 6.76149 9.70615 6.33204 9.35888L5.70326 10.1365L5.07448 10.914ZM5.6255 10.0736L4.96873 10.8277L4.98251 10.8397L4.99672 10.8512L5.6255 10.0736ZM5.19732 9.70066L4.54055 10.4548L5.19732 9.70066ZM4.51698 9.14859L3.9378 9.96379L4.51698 9.14859ZM4.01268 8.79029L3.4335 9.60549L4.01268 8.79029ZM3.52158 7.92468L2.744 7.2959L3.52158 7.92468ZM3.44863 8.01489L2.67105 7.38611L2.54132 7.54654L2.48568 7.74521L3.44863 8.01489ZM3.38049 8.25819L2.75171 9.03577L3.93356 9.99146L4.34344 8.52787L3.38049 8.25819ZM3.93152 7.41773C3.50207 7.07046 2.87242 7.13708 2.52515 7.56653C2.17789 7.99598 2.24451 8.62563 2.67395 8.97289L3.30273 8.19531L3.93152 7.41773ZM5.70326 10.1365L6.33204 9.35888L6.25428 9.29601L5.6255 10.0736L4.99672 10.8512L5.07448 10.914L5.70326 10.1365ZM5.6255 10.0736L6.28227 9.3195L5.85409 8.94658L5.19732 9.70066L4.54055 10.4548L4.96873 10.8277L5.6255 10.0736ZM5.19732 9.70066L5.85409 8.94658C5.56062 8.69098 5.30464 8.48151 5.09616 8.33339L4.51698 9.14859L3.9378 9.96379C4.06553 10.0545 4.26311 10.2131 4.54055 10.4548L5.19732 9.70066ZM4.51698 9.14859L5.09616 8.33339L4.84401 8.15424L4.26483 8.96944L3.68565 9.78464L3.9378 9.96379L4.51698 9.14859ZM4.26483 8.96944L4.84401 8.15424L4.59186 7.97509L4.01268 8.79029L3.4335 9.60549L3.68565 9.78464L4.26483 8.96944ZM4.01268 8.79029L4.59186 7.97509C4.56363 7.95504 4.57421 7.9574 4.59916 7.98913C4.62629 8.02362 4.67321 8.09693 4.69694 8.20797L3.71902 8.41697L2.74111 8.62598C2.84365 9.10577 3.1707 9.41878 3.4335 9.60549L4.01268 8.79029ZM3.71902 8.41697L4.69694 8.20797L4.65544 8.0138L3.67752 8.22281L2.69961 8.43181L2.74111 8.62598L3.71902 8.41697ZM3.67752 8.22281L4.65544 8.0138L4.61394 7.81963L3.63602 8.02864L2.65811 8.23764L2.69961 8.43181L3.67752 8.22281ZM3.63602 8.02864L4.61394 7.81963C4.60036 7.75608 4.57853 7.66956 4.54144 7.57708C4.51174 7.50301 4.43373 7.32403 4.25903 7.16535C4.0342 6.96112 3.67162 6.82117 3.27428 6.93788C2.97344 7.02624 2.80299 7.22294 2.744 7.2959L3.52158 7.92468L4.29916 8.55346C4.26448 8.59635 4.11704 8.77483 3.83789 8.85682C3.67997 8.9032 3.49758 8.91252 3.31239 8.86276C3.13359 8.81472 3.00162 8.7251 2.91429 8.64578C2.75867 8.50442 2.69843 8.35462 2.68518 8.32157C2.67395 8.29357 2.66727 8.27195 2.66381 8.25987C2.66021 8.24732 2.6585 8.23945 2.65811 8.23764L3.63602 8.02864ZM3.52158 7.92468L2.744 7.2959L2.67105 7.38611L3.44863 8.01489L4.22621 8.64367L4.29916 8.55346L3.52158 7.92468ZM3.44863 8.01489L2.48568 7.74521L2.41754 7.98851L3.38049 8.25819L4.34344 8.52787L4.41158 8.28457L3.44863 8.01489ZM3.38049 8.25819L4.00927 7.48061L3.93152 7.41773L3.30273 8.19531L2.67395 8.97289L2.75171 9.03577L3.38049 8.25819Z" fill="black"/>
<path d="M13.863 5.29021C14.0629 5.13841 14.2815 5.04938 14.4924 4.99904L14.7003 4.96047L15.6007 4.84184C16.0791 4.7786 16.5714 4.84334 17.0176 5.10388L17.6802 5.49074C17.8854 5.61055 18.093 5.7235 18.3018 5.83035L18.9775 6.17645C19.236 6.30875 19.4889 6.45641 19.7352 6.61843L20.3847 7.04604C20.5081 7.12723 20.6319 7.1801 20.7592 7.21072L21.1244 7.29893L21.4903 7.38654C21.7041 7.43803 22.2294 7.61176 22.4221 8.19089C22.6027 8.73398 22.3296 9.17933 22.2145 9.34475L21.9872 9.67122L21.7605 9.99847C21.7542 10.0076 21.7511 10.0137 21.7498 10.0165C21.7488 10.0187 21.7478 10.0205 21.7478 10.0205C21.7478 10.0205 21.7466 10.0226 21.7463 10.0265C21.7461 10.0305 21.7467 10.0385 21.748 10.0511L21.8298 10.8506C21.8773 11.3111 21.7927 11.7631 21.5655 12.1745L21.3786 12.5119L21.1915 12.8507C21.0926 13.0297 21.0107 13.211 20.9451 13.3947L20.8193 13.7493L20.6921 14.1037C20.6117 14.3291 20.5358 14.5557 20.4632 14.7831L20.2345 15.4981C20.1471 15.7719 20.0444 16.0414 19.9266 16.3057L19.7718 16.6529L19.6178 16.9996C19.5445 17.1641 19.4908 17.332 19.456 17.5047L19.3066 18.2414C19.2586 18.479 19.2272 18.6584 19.2086 18.7849L19.1904 18.9009C19.2217 18.9588 19.2521 19.0221 19.2733 19.0945C19.4435 19.6736 19.0641 20.0542 18.9509 20.1481C18.8241 20.2533 18.7019 20.301 18.6683 20.314C18.5341 20.3657 18.3994 20.3812 18.3911 20.3823C18.3012 20.3947 18.1794 20.4052 18.0482 20.4148L17.2645 20.4723C16.7544 20.5096 16.279 20.3616 15.8763 20.0629L15.5477 19.82L15.2199 19.5766C15.0484 19.4494 14.877 19.3463 14.7062 19.2638L14.3606 19.0967L14.0144 18.9288C13.8891 18.8683 13.7633 18.8341 13.6323 18.8217L12.8784 18.7494C12.5674 18.7198 12.2618 18.6626 11.9622 18.5775L11.2399 18.3729C11.1965 18.3606 11.1257 18.3514 11.0029 18.3846L10.5917 18.4965L10.1798 18.6076C9.60024 18.7648 9.00599 18.6499 8.53731 18.2243L7.94173 17.684C7.65346 17.4222 7.41847 17.1132 7.25621 16.7564L7.10569 16.4264L6.95535 16.095C6.8382 15.8374 6.73964 15.5786 6.66137 15.319L6.56525 14.999L6.46853 14.6783C6.37461 14.3666 6.32966 14.0455 6.33057 13.7188L6.33085 13.3706L6.3325 13.0225C6.33354 12.6602 6.40375 12.306 6.52934 11.9654L6.665 11.5996L6.7993 11.2336L6.88604 11.0369C6.98581 10.8423 7.12679 10.6587 7.31855 10.5078C7.50992 10.3573 7.72055 10.2633 7.93188 10.2117L8.14245 10.1735L8.53321 10.1265L8.92339 10.0787C9.20569 10.0444 9.48014 10.0208 9.74637 10.0083L10.106 9.99128L10.4648 9.97485C10.7293 9.96243 10.9974 9.95958 11.2677 9.96656L11.6383 9.97678L12.0084 9.98623C12.1253 9.98922 12.1906 9.96877 12.226 9.95244L12.4628 9.84249L12.4549 9.73416L12.4209 9.32979C12.3859 8.91214 12.4441 8.4986 12.609 8.10718L12.9005 7.41307C12.9825 7.21851 13.0528 7.01991 13.1104 6.8182L13.3163 6.09739L13.3546 5.98197C13.4522 5.71667 13.6195 5.47513 13.863 5.29021ZM15.0331 7.36825C14.9534 7.6474 14.8573 7.92131 14.7443 8.18949L14.4515 8.88342C14.4215 8.95472 14.4044 9.04208 14.4144 9.16271L14.4479 9.5663L14.482 9.97067C14.503 10.2214 14.4821 10.5251 14.3396 10.8225C14.1879 11.139 13.9372 11.3658 13.6456 11.5001L13.0623 11.7695C12.709 11.9322 12.3323 11.9952 11.956 11.9855L11.2159 11.9666C10.9928 11.9608 10.7735 11.9626 10.5589 11.9727L10.2001 11.9891L9.84045 12.0061C9.62765 12.0161 9.40248 12.0358 9.16462 12.0647L8.77386 12.1117L8.59964 12.1332L8.54163 12.2919L8.40597 12.6577C8.35181 12.8047 8.33198 12.9266 8.33168 13.0282L8.3314 13.3765L8.32974 13.7246C8.32937 13.862 8.34876 13.9865 8.38346 14.1016L8.5757 14.7415C8.62607 14.9086 8.69292 15.0838 8.77619 15.2669L9.07628 15.9288C9.11449 16.0129 9.17809 16.1049 9.28641 16.2034L9.77379 16.6456L10.0672 16.5662L10.4784 16.4543C10.9036 16.339 11.348 16.324 11.786 16.4483L12.1478 16.5514L12.509 16.6537C12.6907 16.7053 12.8766 16.7404 13.0676 16.7586L13.4446 16.7947L13.8209 16.8301C14.1921 16.8653 14.5487 16.9665 14.8847 17.1288L15.231 17.2953L15.5766 17.4624C15.8671 17.6027 16.1455 17.7725 16.4114 17.9697L17.0676 18.4574C17.08 18.4666 17.0889 18.4716 17.0939 18.4741C17.0978 18.4761 17.1012 18.4771 17.1012 18.4771L17.1039 18.4775C17.1039 18.4775 17.1101 18.478 17.1185 18.4774L17.2339 18.469C17.2598 18.2972 17.2978 18.088 17.3465 17.8466L17.4206 17.4775L17.4953 17.1091C17.5595 16.7909 17.6583 16.4818 17.7909 16.1843L17.9455 15.8384L18.0996 15.4918C18.1877 15.294 18.2645 15.0934 18.3292 14.8905L18.4429 14.5329L18.5579 14.1755C18.6374 13.9263 18.7206 13.6782 18.8086 13.4314L19.0616 12.7224C19.1645 12.4342 19.2915 12.1545 19.4413 11.8833L19.6276 11.5451L19.8145 11.2077C19.8361 11.1686 19.8484 11.1281 19.841 11.0559L19.7577 10.2563C19.7144 9.83601 19.7945 9.43068 19.9911 9.06544C19.7431 8.97874 19.5069 8.86266 19.2851 8.71671L18.6355 8.28909C18.4486 8.16609 18.2589 8.05559 18.0666 7.95718L17.7288 7.78413L17.3903 7.6103C17.1484 7.48648 16.9086 7.35633 16.672 7.21813L16.0088 6.8305C16.0052 6.82842 15.9984 6.82485 15.9827 6.82216C15.9646 6.81911 15.9265 6.81587 15.8626 6.82432L15.1621 6.91657L15.0331 7.36825Z" fill="black"/>
<path d="M8.45084 5.46694C8.63925 5.60513 8.77669 5.7803 8.87144 5.96171L8.92297 6.06976L8.99483 6.23841L9.06688 6.40569C9.27951 6.90029 9.12675 7.39987 9.02941 7.66125L9.00332 7.73019L9.07127 8.04047L8.9599 7.97795C8.87551 8.34346 8.58852 8.64609 8.19768 8.73086C7.65805 8.84765 7.12525 8.50528 7.00821 7.96577L6.98742 7.86748L6.92529 7.58098L7.13031 7.03112L7.10857 7.0219C7.07845 7.00827 6.90479 6.93491 6.75743 6.80067C6.71264 6.75985 6.61985 6.66826 6.54323 6.52557C6.46222 6.37469 6.36291 6.09017 6.46721 5.75147C6.56847 5.42301 6.79886 5.24865 6.92751 5.17427C7.05562 5.10027 7.17151 5.07104 7.2275 5.05892L7.28348 5.04702L7.38529 5.026C7.3885 5.02528 7.39161 5.02312 7.39484 5.02242C7.39853 5.02162 7.40246 5.02193 7.40616 5.02117L7.65033 4.96793L7.7215 5.00826C8.02138 5.04308 8.28998 5.21225 8.45084 5.46694Z" fill="black"/>
<path d="M1.95223 12.7491C2.07348 12.393 2.35522 12.1571 2.66584 12.0634L2.74947 12.0378L2.83229 12.0128C3.06544 11.9425 3.27312 11.9625 3.38646 11.9802C3.5141 12.0001 3.63291 12.0358 3.73161 12.0705L3.92689 12.1387L4.1227 12.2078C4.09733 12.1988 4.08948 12.2 4.10704 12.2017C4.12449 12.2033 4.15933 12.205 4.21511 12.2009L4.43355 12.1851L4.45147 12.1804C4.98831 12.0509 5.52883 12.3812 5.65836 12.918C5.78783 13.4549 5.45761 13.9954 4.92073 14.1249L4.82357 14.1477L4.74324 14.1676L4.73104 14.1686L4.73293 14.1697L3.32684 14.5093L3.22887 14.5326C2.69212 14.6617 2.15223 14.3311 2.02279 13.7944C2.01718 13.7711 2.01453 13.7474 2.01064 13.7241L2.0034 13.7149L1.9607 13.5374L1.92979 13.4082L1.90769 13.2943C1.88725 13.1584 1.87939 12.9631 1.95223 12.7491Z" fill="black"/>
<path d="M3.27508 6.93848C3.6724 6.8218 4.03492 6.96207 4.25974 7.16629C4.43437 7.32496 4.5126 7.50381 4.5423 7.57787C4.56082 7.62406 4.57506 7.66889 4.58684 7.70998L4.61474 7.82002L4.6562 8.01475L4.6574 8.02253L4.84504 8.1551L5.09647 8.33408C5.30494 8.48219 5.56167 8.69135 5.85513 8.94694L6.27267 9.31194L6.33267 9.36003C6.76199 9.70732 6.8291 10.3369 6.48188 10.7663C6.13459 11.1957 5.50443 11.2615 5.07502 10.9143L4.9974 10.8521L4.98308 10.8403L4.96968 10.8289L4.54168 10.4557C4.26585 10.2155 4.06858 10.0571 3.94079 9.96608L3.93409 9.99175L3.61567 9.73377L3.43463 9.60582C3.3347 9.53482 3.22557 9.44551 3.12293 9.33576L2.75224 9.03683L2.67497 8.97375C2.2456 8.62654 2.1787 7.9969 2.52576 7.56746C2.53038 7.56175 2.5366 7.55703 2.54131 7.55145L2.5418 7.54745L2.67131 7.38688L2.74454 7.29677L2.80966 7.22237C2.89654 7.13211 3.04918 7.00483 3.27508 6.93848Z" fill="black"/>
</svg>
