<svg width="34" height="35" viewBox="0 0 34 35" fill="none" xmlns="http://www.w3.org/2000/svg">
<rect x="0.727707" y="0.83937" width="32" height="32" rx="16" fill="#E6E6E6"/>
<circle cx="16.7277" cy="16.8394" r="16" fill="#D9D9D9"/>
<path d="M32.4482 17.5853L33.3846 17.9362L32.4482 17.5853ZM32.3084 17.9583L31.372 17.6074L32.3084 17.9583ZM32.247 18.7261L31.2661 18.9207L32.247 18.7261ZM32.4036 19.5158L31.4227 19.7103L32.4036 19.5158ZM32.497 20.7195L33.4969 20.7007L32.497 20.7195ZM32.5046 21.1239L31.5048 21.1427L32.5046 21.1239ZM32.1555 21.8106L31.5351 21.0263L32.1555 21.8106ZM31.4421 22.375L32.0625 23.1593L31.4421 22.375ZM31.0995 23.0845L30.1 23.1175L31.0995 23.0845ZM31.1277 23.939L30.1283 23.9721L31.1277 23.939ZM30.8902 24.6686L31.6588 25.3083L30.8902 24.6686ZM30.3871 25.273L29.6185 24.6333L30.3871 25.273ZM29.8976 25.8773L29.112 25.2586L29.8976 25.8773ZM29.4219 26.4814L30.2075 27.1001L29.4219 26.4814ZM28.9477 27.0878L28.1579 26.4744L28.9477 27.0878ZM28.4751 27.6963L29.2649 28.3097L28.4751 27.6963ZM28.0044 28.3195L27.1987 27.7272L28.0044 28.3195ZM27.7699 28.6384L26.9642 28.0461L27.7699 28.6384ZM27.5354 28.9574L28.3411 29.5497L27.5354 28.9574ZM26.9712 29.489L26.429 28.6488L26.9712 29.489ZM26.3118 29.9146L26.854 30.7548L26.3118 29.9146ZM25.6146 30.2677L25.2578 29.3335L25.6146 30.2677ZM24.8797 30.5484L25.2365 31.4825L24.8797 30.5484ZM24.1275 30.7622L24.3152 31.7444L24.1275 30.7622ZM23.358 30.9093L23.1702 29.9271L23.358 30.9093ZM22.7142 31.3819L23.5529 31.9264L22.7142 31.3819ZM22.4551 31.7809L21.6164 31.2364L22.4551 31.7809ZM22.1961 32.18L21.3573 31.6355L22.1961 32.18ZM21.1669 32.7849L21.4251 33.751L21.1669 32.7849ZM20.7818 32.8878L20.5235 31.9217L20.7818 32.8878ZM19.9993 33.0195L20.0715 34.0169L19.9993 33.0195ZM19.6019 33.0483L19.5297 32.0509L19.6019 33.0483ZM19.2045 33.0771L19.2767 34.0745L19.2045 33.0771ZM18.4155 33.1865L18.6172 34.166L18.4155 33.1865ZM17.6323 33.3479L17.4305 32.3685L17.6323 33.3479ZM16.8527 33.243L17.2842 32.3409L16.8527 33.243ZM16.4648 33.0574L16.0333 33.9595L16.4648 33.0574ZM16.0769 32.8719L15.6454 33.774L16.0769 32.8719ZM15.3149 32.6097L15.1142 33.5894L15.3149 32.6097ZM14.5668 32.4565L14.3661 33.4361L14.5668 32.4565ZM13.8087 32.3529L13.8786 31.3554L13.8087 32.3529ZM13.4248 32.326L13.3549 33.3236L13.4248 32.326ZM13.0408 32.2991L12.9709 33.2967L13.0408 32.2991ZM12.3382 32.0285L11.7305 32.8226L12.3382 32.0285ZM11.7011 31.5409L12.3088 30.7467L11.7011 31.5409ZM10.941 31.3596L11.081 32.3497L10.941 31.3596ZM10.0579 31.4845L9.91779 30.4944L10.0579 31.4845ZM9.07566 30.9259L8.32142 31.5825L9.07566 30.9259ZM8.80534 30.6154L9.55958 29.9588L8.80534 30.6154ZM8.22159 30.0917L8.78404 29.2649L8.22159 30.0917ZM7.59471 29.6652L7.03225 30.4921L7.59471 29.6652ZM6.90993 29.2973L7.29457 28.3742L6.90993 29.2973ZM6.16726 28.9878L6.55189 28.0648L6.16726 28.9878ZM5.46156 28.6099L4.9063 29.4415L5.46156 28.6099ZM5.12719 28.3866L5.68245 27.555L5.12719 28.3866ZM4.79283 28.1634L4.23758 28.9951L4.79283 28.1634ZM4.28038 27.5772L5.17815 27.1367L4.28038 27.5772ZM4.1023 27.2142L5.00006 26.7738L4.1023 27.2142ZM3.92421 26.8513L3.02645 27.2917L3.92421 26.8513ZM3.58451 26.1319L4.49525 25.7189L3.58451 26.1319ZM3.26129 25.4191L2.35054 25.8321L3.26129 25.4191ZM2.91484 24.7272L3.79067 24.2446L2.91484 24.7272ZM2.73001 24.3918L1.85417 24.8744L2.73001 24.3918ZM2.54518 24.0564L1.66934 24.539L2.54518 24.0564ZM2.28151 23.3423L1.30251 23.5462L2.28151 23.3423ZM2.12385 22.5851L3.10286 22.3812L2.12385 22.5851ZM1.91525 21.8523L0.976287 22.1963L1.91525 21.8523ZM1.37929 20.4309L0.453656 20.8094L1.37929 20.4309ZM1.23264 20.0722L0.307009 20.4507L1.23264 20.0722ZM1.086 19.7135L2.01163 19.3351L1.086 19.7135ZM1.04274 18.9638L2.00951 19.2194L1.04274 18.9638ZM1.24951 18.1818L0.282734 17.9262L1.24951 18.1818ZM1.29459 17.4178L0.306587 17.5723L1.29459 17.4178ZM1.17796 16.6719L0.189965 16.8263L1.17796 16.6719ZM1.16707 15.9266L2.15905 16.053L1.16707 15.9266ZM1.2619 15.182L0.269911 15.0557L1.2619 15.182ZM1.38934 14.4449L0.412552 14.2307L1.38934 14.4449ZM1.46936 14.08L0.492576 13.8658L1.46936 14.08ZM1.33045 12.4653L0.383047 12.7853L1.33045 12.4653ZM1.18097 12.0228L2.12837 11.7027L1.18097 12.0228ZM1.30239 11.2658L0.544673 10.6132L1.30239 11.2658ZM1.84421 10.6366L2.60193 11.2892L1.84421 10.6366ZM2.17743 9.91548L3.16589 10.067L2.17743 9.91548ZM2.23974 9.50887L1.25128 9.35739L2.23974 9.50887ZM2.30205 9.10225L1.31359 8.95077L2.30205 9.10225ZM2.6195 8.39018L1.852 7.74913L2.6195 8.39018ZM2.87464 8.08471L2.10714 7.44366L2.87464 8.08471ZM3.12978 7.77924L3.89728 8.42029L3.12978 7.77924ZM3.63159 7.16942L2.85471 6.53977L3.63159 7.16942ZM3.87826 6.86507L3.10138 6.23542L3.87826 6.86507ZM4.12493 6.56072L4.90181 7.19037L4.12493 6.56072ZM4.76522 6.10169L5.13097 7.0324L4.76522 6.10169ZM5.55245 5.79233L5.18671 4.86161L5.55245 5.79233ZM6.4007 4.40731L5.4627 4.0607L6.4007 4.40731ZM7.63939 3.50347L7.22588 2.59297L7.63939 3.50347ZM8.35264 3.17665L7.93293 2.26899L8.35264 3.17665ZM8.70352 3.0144L9.12322 3.92206L8.70352 3.0144ZM9.05439 2.85215L9.4741 3.75981L9.05439 2.85215ZM9.75898 2.54381L9.37723 1.61954L9.75898 2.54381ZM11.8999 1.72304L11.566 0.780427L11.8999 1.72304ZM12.6362 1.53226L12.4704 0.546102L12.6362 1.53226ZM14.1395 1.27323L13.9577 0.289881L14.1395 1.27323ZM14.5138 1.20405L14.6955 2.18739L14.5138 1.20405ZM14.888 1.13487L14.7063 0.151523L14.888 1.13487ZM17.5514 1.09007L17.4189 0.0988846L17.5514 1.09007ZM18.7044 1.0039L18.6625 2.00302L18.7044 1.0039ZM21.8562 1.17609L22.2211 0.245066L21.8562 1.17609ZM22.5948 1.46564L22.2298 2.39666L22.5948 1.46564ZM23.2517 1.91241L22.5276 2.60207L23.2517 1.91241ZM23.827 2.51639L24.5511 1.82674L23.827 2.51639ZM24.7247 3.27635L25.325 2.47661L24.7247 3.27635ZM25.0297 3.50533L24.4294 4.30507L25.0297 3.50533ZM25.7383 3.83381L25.4989 4.80473L25.7383 3.83381ZM26.5453 4.03281L26.7847 3.06189L26.5453 4.03281ZM27.261 4.37344L27.8724 3.5821L27.261 4.37344ZM27.5731 4.61458L26.9618 5.40592L27.5731 4.61458ZM27.8852 4.85571L28.4966 4.06437L27.8852 4.85571ZM28.415 5.4292L29.2516 4.88137L28.415 5.4292ZM28.8503 6.09391L28.0137 6.64174L28.8503 6.09391ZM29.6811 7.41726L30.5315 6.89111L29.6811 7.41726ZM30.0181 8.11358L30.9582 7.77275L30.0181 8.11358ZM30.1508 8.47957L29.2107 8.82039L30.1508 8.47957ZM30.2835 8.84555L31.2236 8.50473L30.2835 8.84555ZM30.5462 9.56548L29.6076 9.91043L30.5462 9.56548ZM30.8064 10.2734L31.745 9.9284L30.8064 10.2734ZM31.0653 10.977L32.0036 10.6312L31.0653 10.977ZM31.1941 11.3266L30.2558 11.6723L31.1941 11.3266ZM31.3229 11.6763L30.3846 12.022L31.3229 11.6763ZM31.6117 12.3714L32.5192 11.9512L31.6117 12.3714ZM31.9317 13.0624L31.0242 13.4825L31.9317 13.0624ZM32.2692 13.767L31.3729 14.2102L32.2692 13.767ZM32.6244 14.4852L33.5208 14.0419L32.6244 14.4852ZM32.7111 15.2359L33.6852 15.462L32.7111 15.2359ZM32.5294 16.0192L31.5552 15.7932L32.5294 16.0192ZM32.5108 16.518L33.3397 15.9585L32.5108 16.518ZM32.5831 16.6251L31.7542 17.1845L32.5831 16.6251ZM32.6554 16.7322L31.8265 17.2917L32.6554 16.7322ZM32.5879 17.2123L33.5244 17.5632L32.5879 17.2123ZM32.4482 17.5853L31.5118 17.2344L31.372 17.6074L32.3084 17.9583L33.2448 18.3092L33.3846 17.9362L32.4482 17.5853ZM32.3084 17.9583L31.372 17.6074C31.2128 18.0321 31.1781 18.4771 31.2661 18.9207L32.247 18.7261L33.2278 18.5316C33.2114 18.4487 33.2176 18.3818 33.2448 18.3092L32.3084 17.9583ZM32.247 18.7261L31.2661 18.9207L31.3444 19.3155L32.3253 19.121L33.3062 18.9264L33.2278 18.5316L32.247 18.7261ZM32.3253 19.121L31.3444 19.3155L31.4227 19.7103L32.4036 19.5158L33.3845 19.3213L33.3062 18.9264L32.3253 19.121ZM32.4036 19.5158L31.4227 19.7103C31.4633 19.9154 31.4857 20.1229 31.4896 20.3338L32.4895 20.3151L33.4893 20.2963C33.4831 19.9679 33.4482 19.6427 33.3845 19.3213L32.4036 19.5158ZM32.4895 20.3151L31.4896 20.3338L31.4972 20.7383L32.497 20.7195L33.4969 20.7007L33.4893 20.2963L32.4895 20.3151ZM32.497 20.7195L31.4972 20.7383L31.5048 21.1427L32.5046 21.1239L33.5045 21.1052L33.4969 20.7007L32.497 20.7195ZM32.5046 21.1239L31.5048 21.1427C31.5047 21.135 31.5053 21.1201 31.5097 21.1006C31.5141 21.0808 31.5211 21.0615 31.5298 21.0446C31.5477 21.0093 31.5611 21.0057 31.5351 21.0263L32.1555 21.8106L32.776 22.5948C33.2238 22.2405 33.5162 21.7289 33.5045 21.1052L32.5046 21.1239ZM32.1555 21.8106L31.5351 21.0263L31.1783 21.3085L31.7988 22.0928L32.4192 22.877L32.776 22.5948L32.1555 21.8106ZM31.7988 22.0928L31.1783 21.3085L30.8216 21.5908L31.4421 22.375L32.0625 23.1593L32.4192 22.877L31.7988 22.0928ZM31.4421 22.375L30.8216 21.5908C30.3536 21.9611 30.0794 22.4926 30.1 23.1175L31.0995 23.0845L32.0989 23.0515C32.0989 23.0519 32.0992 23.0612 32.096 23.077C32.0928 23.0931 32.087 23.1109 32.0786 23.1283C32.0605 23.1658 32.0439 23.174 32.0625 23.1593L31.4421 22.375ZM31.0995 23.0845L30.1 23.1175L30.1141 23.5448L31.1136 23.5118L32.113 23.4787L32.0989 23.0515L31.0995 23.0845ZM31.1136 23.5118L30.1141 23.5448L30.1283 23.9721L31.1277 23.939L32.1272 23.906L32.113 23.4787L31.1136 23.5118ZM31.1277 23.939L30.1283 23.9721C30.1289 23.9923 30.1278 24.0059 30.1268 24.0139C30.1257 24.0218 30.1246 24.0252 30.1245 24.0255C30.1244 24.0257 30.1247 24.025 30.1251 24.0242C30.1255 24.0235 30.1248 24.025 30.1217 24.0288L30.8902 24.6686L31.6588 25.3083C31.9975 24.9014 32.1439 24.4127 32.1272 23.906L31.1277 23.939ZM30.8902 24.6686L30.1217 24.0288L29.8701 24.3311L30.6387 24.9708L31.4072 25.6106L31.6588 25.3083L30.8902 24.6686ZM30.6387 24.9708L29.8701 24.3311L29.6185 24.6333L30.3871 25.273L31.1557 25.9128L31.4072 25.6106L30.6387 24.9708ZM30.3871 25.273L29.6185 24.6333C29.4451 24.8416 29.2763 25.05 29.112 25.2586L29.8976 25.8773L30.6833 26.496C30.8361 26.3019 30.9936 26.1075 31.1557 25.9128L30.3871 25.273ZM29.8976 25.8773L29.112 25.2586L28.8741 25.5607L29.6598 26.1794L30.4454 26.7981L30.6833 26.496L29.8976 25.8773ZM29.6598 26.1794L28.8741 25.5607L28.6363 25.8627L29.4219 26.4814L30.2075 27.1001L30.4454 26.7981L29.6598 26.1794ZM29.4219 26.4814L28.6363 25.8627C28.4763 26.0659 28.3169 26.2698 28.1579 26.4744L28.9477 27.0878L29.7376 27.7011C29.8937 27.5 30.0504 27.2997 30.2075 27.1001L29.4219 26.4814ZM28.9477 27.0878L28.1579 26.4744L27.9216 26.7787L28.7114 27.392L29.5012 28.0054L29.7376 27.7011L28.9477 27.0878ZM28.7114 27.392L27.9216 26.7787L27.6853 27.083L28.4751 27.6963L29.2649 28.3097L29.5012 28.0054L28.7114 27.392ZM28.4751 27.6963L27.6853 27.083C27.5222 27.293 27.36 27.5077 27.1987 27.7272L28.0044 28.3195L28.8101 28.9119C28.9613 28.7061 29.1129 28.5054 29.2649 28.3097L28.4751 27.6963ZM28.0044 28.3195L27.1987 27.7272L26.9642 28.0461L27.7699 28.6384L28.5756 29.2308L28.8101 28.9119L28.0044 28.3195ZM27.7699 28.6384L26.9642 28.0461L26.7297 28.365L27.5354 28.9574L28.3411 29.5497L28.5756 29.2308L27.7699 28.6384ZM27.5354 28.9574L26.7297 28.365C26.6448 28.4805 26.5458 28.5735 26.429 28.6488L26.9712 29.489L27.5134 30.3293C27.8363 30.1209 28.1134 29.8594 28.3411 29.5497L27.5354 28.9574ZM26.9712 29.489L26.429 28.6488L26.0993 28.8616L26.6415 29.7018L27.1837 30.5421L27.5134 30.3293L26.9712 29.489ZM26.6415 29.7018L26.0993 28.8616L25.7696 29.0743L26.3118 29.9146L26.854 30.7548L27.1837 30.5421L26.6415 29.7018ZM26.3118 29.9146L25.7696 29.0743C25.6083 29.1784 25.438 29.2647 25.2578 29.3335L25.6146 30.2677L25.9714 31.2019C26.2811 31.0836 26.5756 30.9344 26.854 30.7548L26.3118 29.9146ZM25.6146 30.2677L25.2578 29.3335L24.8904 29.4738L25.2471 30.408L25.6039 31.3422L25.9714 31.2019L25.6146 30.2677ZM25.2471 30.408L24.8904 29.4738L24.5229 29.6142L24.8797 30.5484L25.2365 31.4825L25.6039 31.3422L25.2471 30.408ZM24.8797 30.5484L24.5229 29.6142C24.3326 29.6869 24.1384 29.742 23.9397 29.78L24.1275 30.7622L24.3152 31.7444C24.6296 31.6844 24.9369 31.597 25.2365 31.4825L24.8797 30.5484ZM24.1275 30.7622L23.9397 29.78L23.555 29.8536L23.7427 30.8358L23.9305 31.818L24.3152 31.7444L24.1275 30.7622ZM23.7427 30.8358L23.555 29.8536L23.1702 29.9271L23.358 30.9093L23.5457 31.8915L23.9305 31.818L23.7427 30.8358ZM23.358 30.9093L23.1702 29.9271C22.5903 30.038 22.1623 30.3955 21.8754 30.8374L22.7142 31.3819L23.5529 31.9264C23.5857 31.8759 23.6033 31.8653 23.5964 31.8704C23.5929 31.8729 23.5857 31.8776 23.575 31.8823C23.5643 31.887 23.554 31.89 23.5457 31.8915L23.358 30.9093ZM22.7142 31.3819L21.8754 30.8374L21.6164 31.2364L22.4551 31.7809L23.2939 32.3254L23.5529 31.9264L22.7142 31.3819ZM22.4551 31.7809L21.6164 31.2364L21.3573 31.6355L22.1961 32.18L23.0348 32.7245L23.2939 32.3254L22.4551 31.7809ZM22.1961 32.18L21.3573 31.6355C21.3218 31.6902 21.2973 31.7112 21.2908 31.7162C21.2866 31.7195 21.2894 31.717 21.2937 31.7159L21.552 32.6819L21.8102 33.648C22.3506 33.5036 22.755 33.1556 23.0348 32.7245L22.1961 32.18ZM21.552 32.6819L21.2937 31.7159L20.9086 31.8188L21.1669 32.7849L21.4251 33.751L21.8102 33.648L21.552 32.6819ZM21.1669 32.7849L20.9086 31.8188L20.5235 31.9217L20.7818 32.8878L21.04 33.8539L21.4251 33.751L21.1669 32.7849ZM20.7818 32.8878L20.5235 31.9217C20.3277 31.9741 20.1291 32.0075 19.9271 32.0221L19.9993 33.0195L20.0715 34.0169C20.3994 33.9932 20.7225 33.9388 21.04 33.8539L20.7818 32.8878ZM19.9993 33.0195L19.9271 32.0221L19.5297 32.0509L19.6019 33.0483L19.6741 34.0457L20.0715 34.0169L19.9993 33.0195ZM19.6019 33.0483L19.5297 32.0509L19.1323 32.0797L19.2045 33.0771L19.2767 34.0745L19.6741 34.0457L19.6019 33.0483ZM19.2045 33.0771L19.1323 32.0797C18.8237 32.1021 18.5174 32.1446 18.2137 32.2071L18.4155 33.1865L18.6172 34.166C18.8357 34.121 19.0555 34.0905 19.2767 34.0745L19.2045 33.0771ZM18.4155 33.1865L18.2137 32.2071L17.8221 32.2878L18.0239 33.2672L18.2256 34.2467L18.6172 34.166L18.4155 33.1865ZM18.0239 33.2672L17.8221 32.2878L17.4305 32.3685L17.6323 33.3479L17.834 34.3273L18.2256 34.2467L18.0239 33.2672ZM17.6323 33.3479L17.4305 32.3685C17.3999 32.3748 17.3617 32.3779 17.2842 32.3409L16.8527 33.243L16.4212 34.1451C16.861 34.3555 17.3425 34.4286 17.834 34.3273L17.6323 33.3479ZM16.8527 33.243L17.2842 32.3409L16.8963 32.1553L16.4648 33.0574L16.0333 33.9595L16.4212 34.1451L16.8527 33.243ZM16.4648 33.0574L16.8963 32.1553L16.5084 31.9698L16.0769 32.8719L15.6454 33.774L16.0333 33.9595L16.4648 33.0574ZM16.0769 32.8719L16.5084 31.9698C16.1854 31.8153 15.854 31.6994 15.5156 31.63L15.3149 32.6097L15.1142 33.5894C15.2745 33.6222 15.4512 33.6811 15.6454 33.774L16.0769 32.8719ZM15.3149 32.6097L15.5156 31.63L15.1415 31.5534L14.9408 32.5331L14.7402 33.5127L15.1142 33.5894L15.3149 32.6097ZM14.9408 32.5331L15.1415 31.5534L14.7674 31.4768L14.5668 32.4565L14.3661 33.4361L14.7402 33.5127L14.9408 32.5331ZM14.5668 32.4565L14.7674 31.4768C14.4746 31.4168 14.1782 31.3764 13.8786 31.3554L13.8087 32.3529L13.7388 33.3505C13.9513 33.3654 14.1602 33.394 14.3661 33.4361L14.5668 32.4565ZM13.8087 32.3529L13.8786 31.3554L13.4947 31.3285L13.4248 32.326L13.3549 33.3236L13.7388 33.3505L13.8087 32.3529ZM13.4248 32.326L13.4947 31.3285L13.1107 31.3016L13.0408 32.2991L12.9709 33.2967L13.3549 33.3236L13.4248 32.326ZM13.0408 32.2991L13.1107 31.3016C13.0585 31.2979 13.0098 31.2831 12.9459 31.2343L12.3382 32.0285L11.7305 32.8226C12.0915 33.0988 12.5111 33.2645 12.9709 33.2967L13.0408 32.2991ZM12.3382 32.0285L12.9459 31.2343L12.6274 30.9905L12.0197 31.7847L11.412 32.5788L11.7305 32.8226L12.3382 32.0285ZM12.0197 31.7847L12.6274 30.9905L12.3088 30.7467L11.7011 31.5409L11.0934 32.3351L11.412 32.5788L12.0197 31.7847ZM11.7011 31.5409L12.3088 30.7467C11.8587 30.4023 11.3282 30.2949 10.8009 30.3694L10.941 31.3596L11.081 32.3497C11.1017 32.3468 11.1142 32.3467 11.1198 32.3469C11.125 32.3471 11.1245 32.3475 11.1197 32.3464C11.1148 32.3452 11.1086 32.3431 11.1023 32.3401C11.0962 32.3372 11.0931 32.3348 11.0934 32.3351L11.7011 31.5409ZM10.941 31.3596L10.8009 30.3694L10.3593 30.4319L10.4994 31.422L10.6395 32.4122L11.081 32.3497L10.941 31.3596ZM10.4994 31.422L10.3593 30.4319L9.91779 30.4944L10.0579 31.4845L10.1979 32.4746L10.6395 32.4122L10.4994 31.422ZM10.0579 31.4845L9.91779 30.4944C9.89961 30.4969 9.93107 30.4895 9.98816 30.5094C10.0488 30.5305 10.0869 30.5645 10.1002 30.5799L9.34598 31.2364L8.59174 31.8931C9.01551 32.3798 9.60143 32.559 10.1979 32.4746L10.0579 31.4845ZM9.34598 31.2364L10.1002 30.5799L9.8299 30.2693L9.07566 30.9259L8.32142 31.5825L8.59174 31.8931L9.34598 31.2364ZM9.07566 30.9259L9.8299 30.2693L9.55958 29.9588L8.80534 30.6154L8.0511 31.272L8.32142 31.5825L9.07566 30.9259ZM8.80534 30.6154L9.55958 29.9588C9.32782 29.6926 9.06977 29.4592 8.78404 29.2649L8.22159 30.0917L7.65913 30.9185C7.79132 31.0084 7.92245 31.1242 8.0511 31.272L8.80534 30.6154ZM8.22159 30.0917L8.78404 29.2649L8.4706 29.0516L7.90815 29.8785L7.34569 30.7053L7.65913 30.9185L8.22159 30.0917ZM7.90815 29.8785L8.4706 29.0516L8.15716 28.8384L7.59471 29.6652L7.03225 30.4921L7.34569 30.7053L7.90815 29.8785ZM7.59471 29.6652L8.15716 28.8384C7.88904 28.656 7.60071 28.5018 7.29457 28.3742L6.90993 29.2973L6.5253 30.2204C6.71427 30.2991 6.88246 30.3902 7.03225 30.4921L7.59471 29.6652ZM6.90993 29.2973L7.29457 28.3742L6.92323 28.2195L6.5386 29.1426L6.15396 30.0656L6.5253 30.2204L6.90993 29.2973ZM6.5386 29.1426L6.92323 28.2195L6.55189 28.0648L6.16726 28.9878L5.78262 29.9109L6.15396 30.0656L6.5386 29.1426ZM6.16726 28.9878L6.55189 28.0648C6.36399 27.9865 6.1859 27.8911 6.01681 27.7782L5.46156 28.6099L4.9063 29.4415C5.18303 29.6263 5.47541 29.7829 5.78262 29.9109L6.16726 28.9878ZM5.46156 28.6099L6.01681 27.7782L5.68245 27.555L5.12719 28.3866L4.57194 29.2183L4.9063 29.4415L5.46156 28.6099ZM5.12719 28.3866L5.68245 27.555L5.34809 27.3317L4.79283 28.1634L4.23758 28.9951L4.57194 29.2183L5.12719 28.3866ZM4.79283 28.1634L5.34809 27.3317C5.27271 27.2814 5.21965 27.2213 5.17815 27.1367L4.28038 27.5772L3.38262 28.0177C3.57856 28.417 3.86713 28.7478 4.23758 28.9951L4.79283 28.1634ZM4.28038 27.5772L5.17815 27.1367L5.00006 26.7738L4.1023 27.2142L3.20453 27.6547L3.38262 28.0177L4.28038 27.5772ZM4.1023 27.2142L5.00006 26.7738L4.82197 26.4108L3.92421 26.8513L3.02645 27.2917L3.20453 27.6547L4.1023 27.2142ZM3.92421 26.8513L4.82197 26.4108C4.70757 26.1776 4.59867 25.947 4.49525 25.7189L3.58451 26.1319L2.67377 26.5449C2.78584 26.792 2.90341 27.041 3.02645 27.2917L3.92421 26.8513ZM3.58451 26.1319L4.49525 25.7189L4.33364 25.3625L3.4229 25.7755L2.51216 26.1885L2.67377 26.5449L3.58451 26.1319ZM3.4229 25.7755L4.33364 25.3625L4.17203 25.0061L3.26129 25.4191L2.35054 25.8321L2.51216 26.1885L3.4229 25.7755ZM3.26129 25.4191L4.17203 25.0061C4.05379 24.7454 3.9267 24.4915 3.79067 24.2446L2.91484 24.7272L2.039 25.2099C2.14942 25.4102 2.2533 25.6176 2.35054 25.8321L3.26129 25.4191ZM2.91484 24.7272L3.79067 24.2446L3.60584 23.9092L2.73001 24.3918L1.85417 24.8744L2.039 25.2099L2.91484 24.7272ZM2.73001 24.3918L3.60584 23.9092L3.42101 23.5738L2.54518 24.0564L1.66934 24.539L1.85417 24.8744L2.73001 24.3918ZM2.54518 24.0564L3.42101 23.5738C3.34635 23.4383 3.29297 23.2943 3.26052 23.1385L2.28151 23.3423L1.30251 23.5462C1.37517 23.8952 1.49756 24.2272 1.66934 24.539L2.54518 24.0564ZM2.28151 23.3423L3.26052 23.1385L3.18169 22.7599L2.20268 22.9637L1.22368 23.1675L1.30251 23.5462L2.28151 23.3423ZM2.20268 22.9637L3.18169 22.7599L3.10286 22.3812L2.12385 22.5851L1.14485 22.7889L1.22368 23.1675L2.20268 22.9637ZM2.12385 22.5851L3.10286 22.3812C3.04064 22.0824 2.95789 21.7912 2.85421 21.5082L1.91525 21.8523L0.976287 22.1963C1.04564 22.3856 1.10196 22.5829 1.14485 22.7889L2.12385 22.5851ZM1.91525 21.8523L2.85421 21.5082L2.72444 21.154L1.78548 21.4981L0.846516 21.8421L0.976287 22.1963L1.91525 21.8523ZM1.78548 21.4981L2.72444 21.154L2.59467 20.7998L1.65571 21.1439L0.716746 21.4879L0.846516 21.8421L1.78548 21.4981ZM1.65571 21.1439L2.59467 20.7998C2.50382 20.5519 2.40722 20.3027 2.30493 20.0525L1.37929 20.4309L0.453656 20.8094C0.546893 21.0374 0.634576 21.2636 0.716746 21.4879L1.65571 21.1439ZM1.37929 20.4309L2.30493 20.0525L2.15828 19.6938L1.23264 20.0722L0.307009 20.4507L0.453656 20.8094L1.37929 20.4309ZM1.23264 20.0722L2.15828 19.6938L2.01163 19.3351L1.086 19.7135L0.160361 20.0919L0.307009 20.4507L1.23264 20.0722ZM1.086 19.7135L2.01163 19.3351C1.99991 19.3064 1.99357 19.2797 2.00951 19.2194L1.04274 18.9638L0.0759603 18.7082C-0.0459426 19.1692 -0.0234476 19.6423 0.160361 20.0919L1.086 19.7135ZM1.04274 18.9638L2.00951 19.2194L2.1129 18.8284L1.14612 18.5728L0.179347 18.3172L0.0759603 18.7082L1.04274 18.9638ZM1.14612 18.5728L2.1129 18.8284L2.21629 18.4374L1.24951 18.1818L0.282734 17.9262L0.179347 18.3172L1.14612 18.5728ZM1.24951 18.1818L2.21629 18.4374C2.31802 18.0527 2.34432 17.6582 2.28258 17.2633L1.29459 17.4178L0.306587 17.5723C0.322595 17.6747 0.318853 17.7896 0.282734 17.9262L1.24951 18.1818ZM1.29459 17.4178L2.28258 17.2633L2.22427 16.8904L1.23627 17.0448L0.248276 17.1993L0.306587 17.5723L1.29459 17.4178ZM1.23627 17.0448L2.22427 16.8904L2.16596 16.5174L1.17796 16.6719L0.189965 16.8263L0.248276 17.1993L1.23627 17.0448ZM1.17796 16.6719L2.16596 16.5174C2.14153 16.3611 2.1394 16.2073 2.15905 16.053L1.16707 15.9266L0.17508 15.8003C0.131513 16.1423 0.136646 16.4853 0.189965 16.8263L1.17796 16.6719ZM1.16707 15.9266L2.15905 16.053L2.20647 15.6807L1.21448 15.5543L0.222495 15.428L0.17508 15.8003L1.16707 15.9266ZM1.21448 15.5543L2.20647 15.6807L2.25388 15.3084L1.2619 15.182L0.269911 15.0557L0.222495 15.428L1.21448 15.5543ZM1.2619 15.182L2.25388 15.3084C2.28175 15.0896 2.31917 14.8732 2.36612 14.6591L1.38934 14.4449L0.412552 14.2307C0.352801 14.5031 0.305261 14.7782 0.269911 15.0557L1.2619 15.182ZM1.38934 14.4449L2.36612 14.6591L2.44614 14.2942L1.46936 14.08L0.492576 13.8658L0.412552 14.2307L1.38934 14.4449ZM1.46936 14.08L2.44614 14.2942L2.52617 13.9294L1.54938 13.7151L0.5726 13.5009L0.492576 13.8658L1.46936 14.08ZM1.54938 13.7151L2.52617 13.9294C2.62708 13.4692 2.57069 13.0121 2.42733 12.5877L1.47993 12.9078L0.532527 13.2278C0.588469 13.3934 0.578388 13.4745 0.5726 13.5009L1.54938 13.7151ZM1.47993 12.9078L2.42733 12.5877L2.27785 12.1452L1.33045 12.4653L0.383047 12.7853L0.532527 13.2278L1.47993 12.9078ZM1.33045 12.4653L2.27785 12.1452L2.12837 11.7027L1.18097 12.0228L0.233566 12.3428L0.383047 12.7853L1.33045 12.4653ZM1.18097 12.0228L2.12837 11.7027C2.1193 11.6759 2.13448 11.7051 2.12396 11.7707C2.11886 11.8025 2.10895 11.8341 2.09527 11.8626C2.08183 11.8907 2.06801 11.9092 2.06011 11.9183L1.30239 11.2658L0.544673 10.6132C0.100733 11.1286 0.03773 11.7631 0.233566 12.3428L1.18097 12.0228ZM1.30239 11.2658L2.06011 11.9183L2.33102 11.6038L1.5733 10.9512L0.81558 10.2986L0.544673 10.6132L1.30239 11.2658ZM1.5733 10.9512L2.33102 11.6038L2.60193 11.2892L1.84421 10.6366L1.08649 9.98407L0.81558 10.2986L1.5733 10.9512ZM1.84421 10.6366L2.60193 11.2892C2.90372 10.9388 3.09566 10.5252 3.16589 10.067L2.17743 9.91548L1.18897 9.764C1.17611 9.84792 1.1459 9.91508 1.08649 9.98407L1.84421 10.6366ZM2.17743 9.91548L3.16589 10.067L3.2282 9.66035L2.23974 9.50887L1.25128 9.35739L1.18897 9.764L2.17743 9.91548ZM2.23974 9.50887L3.2282 9.66035L3.29051 9.25374L2.30205 9.10225L1.31359 8.95077L1.25128 9.35739L2.23974 9.50887ZM2.30205 9.10225L3.29051 9.25374C3.3054 9.1566 3.33788 9.09003 3.38701 9.03122L2.6195 8.39018L1.852 7.74913C1.56094 8.09761 1.38179 8.50576 1.31359 8.95077L2.30205 9.10225ZM2.6195 8.39018L3.38701 9.03122L3.64214 8.72576L2.87464 8.08471L2.10714 7.44366L1.852 7.74913L2.6195 8.39018ZM2.87464 8.08471L3.64214 8.72576L3.89728 8.42029L3.12978 7.77924L2.36228 7.1382L2.10714 7.44366L2.87464 8.08471ZM3.12978 7.77924L3.89728 8.42029C4.07048 8.21293 4.24087 8.00585 4.40847 7.79907L3.63159 7.16942L2.85471 6.53977C2.69341 6.73879 2.52926 6.93827 2.36228 7.1382L3.12978 7.77924ZM3.63159 7.16942L4.40847 7.79907L4.65514 7.49472L3.87826 6.86507L3.10138 6.23542L2.85471 6.53977L3.63159 7.16942ZM3.87826 6.86507L4.65514 7.49472L4.90181 7.19037L4.12493 6.56072L3.34805 5.93107L3.10138 6.23542L3.87826 6.86507ZM4.12493 6.56072L4.90181 7.19037C4.94893 7.13223 5.01612 7.07753 5.13097 7.0324L4.76522 6.10169L4.39947 5.17097C3.9895 5.33208 3.62983 5.58341 3.34805 5.93107L4.12493 6.56072ZM4.76522 6.10169L5.13097 7.0324L5.52458 6.87772L5.15884 5.94701L4.79309 5.01629L4.39947 5.17097L4.76522 6.10169ZM5.15884 5.94701L5.52458 6.87772L5.9182 6.72304L5.55245 5.79233L5.18671 4.86161L4.79309 5.01629L5.15884 5.94701ZM5.55245 5.79233L5.9182 6.72304C6.45593 6.51173 6.8396 6.10462 7.03562 5.57415L6.09761 5.22753L5.15961 4.88092C5.15525 4.89272 5.15272 4.89634 5.15394 4.89434C5.15531 4.89211 5.15921 4.88639 5.16605 4.87929C5.17294 4.87215 5.17997 4.86658 5.18558 4.86291C5.19099 4.85935 5.19219 4.85945 5.18671 4.86161L5.55245 5.79233ZM6.09761 5.22753L7.03562 5.57415L7.18717 5.16404L6.24916 4.81742L5.31115 4.47081L5.15961 4.88092L6.09761 5.22753ZM6.24916 4.81742L7.18717 5.16404L7.33871 4.75393L6.4007 4.40731L5.4627 4.0607L5.31115 4.47081L6.24916 4.81742ZM6.4007 4.40731L7.33871 4.75393C7.34527 4.73617 7.35044 4.72658 7.35254 4.72301C7.35452 4.71963 7.35407 4.72106 7.35037 4.72519C7.34658 4.72943 7.34158 4.73405 7.33606 4.73807C7.33061 4.74204 7.32736 4.74348 7.32814 4.74313L6.91463 3.83263L6.50112 2.92213C5.99128 3.15368 5.64623 3.56401 5.4627 4.0607L6.4007 4.40731ZM6.91463 3.83263L7.32814 4.74313L7.69052 4.57855L7.27701 3.66805L6.8635 2.75755L6.50112 2.92213L6.91463 3.83263ZM7.27701 3.66805L7.69052 4.57855L8.0529 4.41397L7.63939 3.50347L7.22588 2.59297L6.8635 2.75755L7.27701 3.66805ZM7.63939 3.50347L8.0529 4.41397C8.2965 4.30334 8.53631 4.19345 8.77235 4.08431L8.35264 3.17665L7.93293 2.26899C7.70114 2.37617 7.46546 2.48417 7.22588 2.59297L7.63939 3.50347ZM8.35264 3.17665L8.77235 4.08431L9.12322 3.92206L8.70352 3.0144L8.28381 2.10674L7.93293 2.26899L8.35264 3.17665ZM8.70352 3.0144L9.12322 3.92206L9.4741 3.75981L9.05439 2.85215L8.63468 1.9445L8.28381 2.10674L8.70352 3.0144ZM9.05439 2.85215L9.4741 3.75981C9.6956 3.65739 9.91781 3.56015 10.1407 3.46808L9.75898 2.54381L9.37723 1.61954C9.12853 1.72227 8.88101 1.83059 8.63468 1.9445L9.05439 2.85215ZM9.75898 2.54381L10.1407 3.46808L10.4944 3.32198L10.1127 2.39772L9.73095 1.47345L9.37723 1.61954L9.75898 2.54381ZM10.1127 2.39772L10.4944 3.32198L10.8482 3.17589L10.4664 2.25162L10.0847 1.32735L9.73095 1.47345L10.1127 2.39772ZM10.4664 2.25162L10.8482 3.17589C11.0682 3.085 11.2902 2.99992 11.514 2.92064L11.1801 1.97803L10.8462 1.03542C10.5901 1.12614 10.3362 1.22345 10.0847 1.32735L10.4664 2.25162ZM11.1801 1.97803L11.514 2.92064L11.8739 2.79314L11.54 1.85053L11.2061 0.907924L10.8462 1.03542L11.1801 1.97803ZM11.54 1.85053L11.8739 2.79314L12.2338 2.66565L11.8999 1.72304L11.566 0.780427L11.2061 0.907924L11.54 1.85053ZM11.8999 1.72304L12.2338 2.66565C12.4192 2.6 12.6084 2.55098 12.802 2.51841L12.6362 1.53226L12.4704 0.546102C12.1623 0.597912 11.8606 0.676081 11.566 0.780427L11.8999 1.72304ZM12.6362 1.53226L12.802 2.51841L13.1784 2.45513L13.0125 1.46897L12.8467 0.482818L12.4704 0.546102L12.6362 1.53226ZM13.0125 1.46897L13.1784 2.45513L13.5547 2.39184L13.3889 1.40569L13.223 0.419534L12.8467 0.482818L13.0125 1.46897ZM13.3889 1.40569L13.5547 2.39184C13.8109 2.34876 14.0664 2.30367 14.3212 2.25657L14.1395 1.27323L13.9577 0.289881C13.7135 0.335019 13.4686 0.378236 13.223 0.419534L13.3889 1.40569ZM14.1395 1.27323L14.3212 2.25657L14.6955 2.18739L14.5138 1.20405L14.332 0.220702L13.9577 0.289881L14.1395 1.27323ZM14.5138 1.20405L14.6955 2.18739L15.0698 2.11821L14.888 1.13487L14.7063 0.151523L14.332 0.220702L14.5138 1.20405ZM14.888 1.13487L15.0698 2.11821C15.2317 2.08828 15.3944 2.08014 15.5602 2.09393L15.6431 1.09738L15.726 0.100823C15.3841 0.0723661 15.0434 0.0892114 14.7063 0.151523L14.888 1.13487ZM15.6431 1.09738L15.5602 2.09393L15.941 2.12562L16.0239 1.12907L16.1069 0.132514L15.726 0.100823L15.6431 1.09738ZM16.0239 1.12907L15.941 2.12562L16.3218 2.15731L16.4047 1.16076L16.4877 0.164205L16.1069 0.132514L16.0239 1.12907ZM16.4047 1.16076L16.3218 2.15731C16.6482 2.18448 16.9751 2.17601 17.301 2.13244L17.1685 1.14126L17.036 0.150076C16.8513 0.174765 16.6689 0.179291 16.4877 0.164205L16.4047 1.16076ZM17.1685 1.14126L17.301 2.13244L17.6839 2.08125L17.5514 1.09007L17.4189 0.0988846L17.036 0.150076L17.1685 1.14126ZM17.5514 1.09007L17.6839 2.08125L18.0669 2.03006L17.9344 1.03888L17.8019 0.0476936L17.4189 0.0988846L17.5514 1.09007ZM17.9344 1.03888L18.0669 2.03006C18.2643 2.00368 18.4626 1.99465 18.6625 2.00302L18.7044 1.0039L18.7462 0.0047763C18.4301 -0.00846642 18.1151 0.00582361 17.8019 0.0476936L17.9344 1.03888ZM18.7044 1.0039L18.6625 2.00302L19.0495 2.01924L19.0914 1.02011L19.1332 0.0209898L18.7462 0.0047763L18.7044 1.0039ZM19.0914 1.02011L19.0495 2.01924L19.4365 2.03545L19.4784 1.03633L19.5202 0.0372034L19.1332 0.0209898L19.0914 1.02011ZM19.4784 1.03633L19.4365 2.03545C19.7136 2.04706 19.9961 2.05091 20.2838 2.04715L20.2707 1.04723L20.2576 0.0473179C20.0049 0.0506279 19.7591 0.0472109 19.5202 0.0372034L19.4784 1.03633ZM20.2707 1.04723L20.2838 2.04715L20.6892 2.04184L20.6761 1.04192L20.663 0.0420094L20.2576 0.0473179L20.2707 1.04723ZM20.6761 1.04192L20.6892 2.04184L21.0946 2.03653L21.0815 1.03662L21.0684 0.036701L20.663 0.0420094L20.6761 1.04192ZM21.0815 1.03662L21.0946 2.03653C21.2384 2.03465 21.368 2.05883 21.4912 2.1071L21.8562 1.17609L22.2211 0.245066C21.8519 0.100306 21.465 0.031507 21.0684 0.036701L21.0815 1.03662ZM21.8562 1.17609L21.4912 2.1071L21.8605 2.25188L22.2255 1.32086L22.5905 0.389844L22.2211 0.245066L21.8562 1.17609ZM22.2255 1.32086L21.8605 2.25188L22.2298 2.39666L22.5948 1.46564L22.9598 0.534623L22.5905 0.389844L22.2255 1.32086ZM22.5948 1.46564L22.2298 2.39666C22.3332 2.43718 22.4313 2.5009 22.5276 2.60207L23.2517 1.91241L23.9759 1.22275C23.6888 0.921272 23.3489 0.687145 22.9598 0.534623L22.5948 1.46564ZM23.2517 1.91241L22.5276 2.60207L22.8152 2.90406L23.5394 2.2144L24.2635 1.52474L23.9759 1.22275L23.2517 1.91241ZM23.5394 2.2144L22.8152 2.90406L23.1028 3.20605L23.827 2.51639L24.5511 1.82674L24.2635 1.52474L23.5394 2.2144ZM23.827 2.51639L23.1028 3.20605C23.3292 3.44376 23.5678 3.65834 23.8193 3.84711L24.4196 3.04737L25.02 2.24763C24.8647 2.13109 24.7082 1.99168 24.5511 1.82674L23.827 2.51639ZM24.4196 3.04737L23.8193 3.84711L24.1243 4.07609L24.7247 3.27635L25.325 2.47661L25.02 2.24763L24.4196 3.04737ZM24.7247 3.27635L24.1243 4.07609L24.4294 4.30507L25.0297 3.50533L25.63 2.70559L25.325 2.47661L24.7247 3.27635ZM25.0297 3.50533L24.4294 4.30507C24.7496 4.54548 25.1111 4.70911 25.4989 4.80473L25.7383 3.83381L25.9777 2.86289C25.8274 2.82585 25.7165 2.77049 25.63 2.70559L25.0297 3.50533ZM25.7383 3.83381L25.4989 4.80473L25.9024 4.90423L26.1418 3.93331L26.3812 2.96239L25.9777 2.86289L25.7383 3.83381ZM26.1418 3.93331L25.9024 4.90423L26.3059 5.00373L26.5453 4.03281L26.7847 3.06189L26.3812 2.96239L26.1418 3.93331ZM26.5453 4.03281L26.3059 5.00373C26.4472 5.03857 26.5576 5.09367 26.6496 5.16479L27.261 4.37344L27.8724 3.5821C27.5483 3.3317 27.1815 3.15971 26.7847 3.06189L26.5453 4.03281ZM27.261 4.37344L26.6496 5.16479L26.9618 5.40592L27.5731 4.61458L28.1845 3.82323L27.8724 3.5821L27.261 4.37344ZM27.5731 4.61458L26.9618 5.40592L27.2739 5.64706L27.8852 4.85571L28.4966 4.06437L28.1845 3.82323L27.5731 4.61458ZM27.8852 4.85571L27.2739 5.64706C27.3932 5.73925 27.4939 5.84792 27.5784 5.97703L28.415 5.4292L29.2516 4.88137C29.046 4.56735 28.7935 4.29369 28.4966 4.06437L27.8852 4.85571ZM28.415 5.4292L27.5784 5.97703L27.7961 6.30939L28.6326 5.76156L29.4692 5.21373L29.2516 4.88137L28.415 5.4292ZM28.6326 5.76156L27.7961 6.30939L28.0137 6.64174L28.8503 6.09391L29.6869 5.54608L29.4692 5.21373L28.6326 5.76156ZM28.8503 6.09391L28.0137 6.64174C28.1542 6.8563 28.2903 7.06997 28.4219 7.28275L29.2723 6.7566L30.1227 6.23045C29.9818 6.00278 29.8365 5.77466 29.6869 5.54608L28.8503 6.09391ZM29.2723 6.7566L28.4219 7.28275L28.6263 7.61308L29.4767 7.08693L30.3271 6.56078L30.1227 6.23045L29.2723 6.7566ZM29.4767 7.08693L28.6263 7.61308L28.8307 7.94341L29.6811 7.41726L30.5315 6.89111L30.3271 6.56078L29.4767 7.08693ZM29.6811 7.41726L28.8307 7.94341C28.9306 8.10498 29.0129 8.27497 29.078 8.45441L30.0181 8.11358L30.9582 7.77275C30.8464 7.46421 30.704 7.16999 30.5315 6.89111L29.6811 7.41726ZM30.0181 8.11358L29.078 8.45441L29.2107 8.82039L30.1508 8.47957L31.0909 8.13874L30.9582 7.77275L30.0181 8.11358ZM30.1508 8.47957L29.2107 8.82039L29.3434 9.18638L30.2835 8.84555L31.2236 8.50473L31.0909 8.13874L30.1508 8.47957ZM30.2835 8.84555L29.3434 9.18638C29.4323 9.4317 29.5204 9.67305 29.6076 9.91043L30.5462 9.56548L31.4849 9.22053C31.3987 8.98599 31.3116 8.74739 31.2236 8.50473L30.2835 8.84555ZM30.5462 9.56548L29.6076 9.91043L29.7377 10.2644L30.6763 9.91942L31.6149 9.57447L31.4849 9.22053L30.5462 9.56548ZM30.6763 9.91942L29.7377 10.2644L29.8678 10.6183L30.8064 10.2734L31.745 9.9284L31.6149 9.57447L30.6763 9.91942ZM30.8064 10.2734L29.8678 10.6183C29.9546 10.8545 30.041 11.0893 30.127 11.3227L31.0653 10.977L32.0036 10.6312C31.9178 10.3984 31.8316 10.1641 31.745 9.9284L30.8064 10.2734ZM31.0653 10.977L30.127 11.3227L30.2558 11.6723L31.1941 11.3266L32.1325 10.9809L32.0036 10.6312L31.0653 10.977ZM31.1941 11.3266L30.2558 11.6723L30.3846 12.022L31.3229 11.6763L32.2613 11.3306L32.1325 10.9809L31.1941 11.3266ZM31.3229 11.6763L30.3846 12.022C30.48 12.2809 30.5866 12.5374 30.7043 12.7916L31.6117 12.3714L32.5192 11.9512C32.4236 11.7448 32.3377 11.5379 32.2613 11.3306L31.3229 11.6763ZM31.6117 12.3714L30.7043 12.7916L30.8643 13.1371L31.7717 12.7169L32.6792 12.2967L32.5192 11.9512L31.6117 12.3714ZM31.7717 12.7169L30.8643 13.1371L31.0242 13.4825L31.9317 13.0624L32.8391 12.6422L32.6792 12.2967L31.7717 12.7169ZM31.9317 13.0624L31.0242 13.4825C31.1346 13.721 31.2509 13.9636 31.3729 14.2102L32.2692 13.767L33.1656 13.3237C33.0508 13.0915 32.942 12.8644 32.8391 12.6422L31.9317 13.0624ZM32.2692 13.767L31.3729 14.2102L31.5504 14.5694L32.4468 14.1261L33.3432 13.6828L33.1656 13.3237L32.2692 13.767ZM32.4468 14.1261L31.5504 14.5694L31.728 14.9285L32.6244 14.4852L33.5208 14.0419L33.3432 13.6828L32.4468 14.1261ZM32.6244 14.4852L31.728 14.9285C31.7393 14.9513 31.741 14.9631 31.7415 14.9672C31.742 14.9713 31.7431 14.9838 31.737 15.0099L32.7111 15.2359L33.6852 15.462C33.7979 14.9764 33.7421 14.4895 33.5208 14.0419L32.6244 14.4852ZM32.7111 15.2359L31.737 15.0099L31.6461 15.4015L32.6202 15.6276L33.5944 15.8536L33.6852 15.462L32.7111 15.2359ZM32.6202 15.6276L31.6461 15.4015L31.5552 15.7932L32.5294 16.0192L33.5035 16.2453L33.5944 15.8536L32.6202 15.6276ZM32.5294 16.0192L31.5552 15.7932C31.5181 15.9531 31.4864 16.1293 31.48 16.3025C31.4752 16.4302 31.4711 16.765 31.6819 17.0774L32.5108 16.518L33.3397 15.9585C33.4307 16.0935 33.4595 16.2158 33.4696 16.2726C33.4803 16.3332 33.4788 16.3723 33.4786 16.3769C33.4783 16.3839 33.48 16.3464 33.5035 16.2453L32.5294 16.0192ZM32.5108 16.518L31.6819 17.0774L31.7542 17.1845L32.5831 16.6251L33.412 16.0657L33.3397 15.9585L32.5108 16.518ZM32.5831 16.6251L31.7542 17.1845L31.8265 17.2917L32.6554 16.7322L33.4843 16.1728L33.412 16.0657L32.5831 16.6251ZM32.6554 16.7322L31.8265 17.2917C31.7219 17.1367 31.6931 16.9908 31.6844 16.9129C31.6756 16.8337 31.6825 16.78 31.6844 16.7667C31.6877 16.7432 31.6866 16.7679 31.6515 16.8615L32.5879 17.2123L33.5244 17.5632C33.5825 17.4082 33.6392 17.2285 33.665 17.045C33.684 16.9093 33.7254 16.53 33.4843 16.1728L32.6554 16.7322ZM32.5879 17.2123L31.6515 16.8615L31.5118 17.2344L32.4482 17.5853L33.3846 17.9362L33.5244 17.5632L32.5879 17.2123Z" fill="black"/>
<circle cx="12.2277" cy="14.3394" r="1.5" fill="#0B0B0B"/>
<path d="M13.6825 14.4921L14.162 14.634L13.6825 14.4921ZM13.6599 14.5685L13.1805 14.4266L13.6599 14.5685ZM13.6558 14.7371L14.146 14.639L13.6558 14.7371ZM13.6926 14.9215L13.2023 15.0196L13.6926 14.9215ZM13.6451 15.0721L13.3139 14.6975L13.6451 15.0721ZM13.5791 15.1305L13.9102 15.5051L13.5791 15.1305ZM13.5131 15.1888L13.8442 15.5634L13.5131 15.1888ZM13.3606 15.2705L13.2301 14.7879L13.3606 15.2705ZM13.1878 15.3173L13.3183 15.8L13.1878 15.3173ZM13.045 15.384L12.7404 14.9875L13.045 15.384ZM12.9885 15.4274L12.6839 15.0308L12.9885 15.4274ZM12.9321 15.4707L13.2367 15.8672L12.9321 15.4707ZM12.8373 15.6335L13.3134 15.7863L12.8373 15.6335ZM12.7607 15.8725L12.2846 15.7197L12.7607 15.8725ZM12.5307 15.8808L12.2799 16.3134L12.5307 15.8808ZM12.4348 15.8253L12.1841 16.2579L12.4348 15.8253ZM12.261 15.7792L12.3215 16.2756L12.261 15.7792ZM12.105 15.7983L12.0444 15.3019L12.105 15.7983ZM11.9742 15.7236L12.3978 15.458L11.9742 15.7236ZM11.8686 15.5551L11.4449 15.8206L11.8686 15.5551ZM11.7168 15.5084L11.8939 15.976L11.7168 15.5084ZM11.5189 15.5833L11.3418 15.1158L11.5189 15.5833ZM11.3069 15.6215L11.31 16.1215L11.3069 15.6215ZM11.0809 15.623L11.0777 15.123L11.0809 15.623ZM10.9762 15.3903L10.4765 15.3724L10.9762 15.3903ZM10.9346 14.9229L11.4236 14.8185L10.9346 14.9229ZM10.8717 14.777L10.4585 15.0585L10.8717 14.777ZM10.779 14.641L11.1922 14.3595L10.779 14.641ZM10.5704 14.323L10.151 14.5952L10.5704 14.323ZM10.5333 14.1502L10.042 14.0571L10.5333 14.1502ZM10.5672 13.9712L11.0585 14.0643L10.5672 13.9712ZM11.0029 13.5978L11.5027 13.583L11.0029 13.5978ZM11 13.4998L10.5002 13.5146L11 13.4998ZM10.9971 13.4019L10.4973 13.4167L10.9971 13.4019ZM11.2261 13.3248L11.2708 12.8268L11.2261 13.3248ZM11.342 13.3352L11.2973 13.8332L11.342 13.3352ZM11.5121 13.3047L11.2103 12.906L11.5121 13.3047ZM11.6204 13.2227L11.9222 13.6213L11.6204 13.2227ZM11.7103 13.0379L11.225 12.9173L11.7103 13.0379ZM11.7817 12.7504L12.267 12.8711L11.7817 12.7504ZM12.5571 13.0112L12.2083 13.3694L12.5571 13.0112ZM12.6143 13.0668L12.2655 13.4251L12.6143 13.0668ZM12.6715 13.1225L13.0203 12.7643L12.6715 13.1225ZM12.835 13.1447L12.9852 13.6216L12.835 13.1447ZM12.9412 13.1112L12.791 12.6344L12.9412 13.1112ZM13.0475 13.0777L12.8972 12.6009L13.0475 13.0777ZM13.1701 13.1433L13.6635 13.0623L13.1701 13.1433ZM13.1863 13.2423L12.6929 13.3233L13.1863 13.2423ZM13.2026 13.3414L13.696 13.2604L13.2026 13.3414ZM13.5599 13.4887L13.4899 13.9837L13.5599 13.4887ZM13.7269 13.5805L14.136 13.293L13.7269 13.5805ZM13.8334 13.7321L13.4243 14.0195L13.8334 13.7321ZM13.8523 13.9038L14.323 14.0723L13.8523 13.9038ZM13.7836 14.0957L14.2543 14.2642L13.7836 14.0957ZM13.7439 14.2286L13.2491 14.1564L13.7439 14.2286ZM13.7385 14.2655L14.2332 14.3377L13.7385 14.2655ZM13.7331 14.3024L14.2279 14.3746L13.7331 14.3024ZM13.6825 14.4921L13.2031 14.3502L13.1805 14.4266L13.6599 14.5685L14.1394 14.7103L14.162 14.634L13.6825 14.4921ZM13.6599 14.5685L13.1805 14.4266C13.1385 14.5684 13.1401 14.7084 13.1655 14.8351L13.6558 14.7371L14.146 14.639C14.1468 14.6428 14.1512 14.6704 14.1394 14.7103L13.6599 14.5685ZM13.6558 14.7371L13.1655 14.8351L13.1839 14.9273L13.6742 14.8293L14.1645 14.7313L14.146 14.639L13.6558 14.7371ZM13.6742 14.8293L13.1839 14.9273L13.2023 15.0196L13.6926 14.9215L14.1829 14.8235L14.1645 14.7313L13.6742 14.8293ZM13.6926 14.9215L13.2023 15.0196C13.1951 14.9834 13.1913 14.9241 13.2132 14.8547C13.2357 14.7836 13.276 14.731 13.3139 14.6975L13.6451 15.0721L13.9762 15.4467C14.1644 15.2804 14.2273 15.0452 14.1829 14.8235L13.6926 14.9215ZM13.6451 15.0721L13.3139 14.6975L13.2479 14.7559L13.5791 15.1305L13.9102 15.5051L13.9762 15.4467L13.6451 15.0721ZM13.5791 15.1305L13.2479 14.7559L13.1819 14.8142L13.5131 15.1888L13.8442 15.5634L13.9102 15.5051L13.5791 15.1305ZM13.5131 15.1888L13.1819 14.8142C13.1883 14.8085 13.1964 14.8028 13.2057 14.7978C13.215 14.7928 13.2235 14.7897 13.2301 14.7879L13.3606 15.2705L13.4912 15.7532C13.6219 15.7179 13.7416 15.6542 13.8442 15.5634L13.5131 15.1888ZM13.3606 15.2705L13.2301 14.7879L13.1437 14.8113L13.2742 15.2939L13.4048 15.7766L13.4912 15.7532L13.3606 15.2705ZM13.2742 15.2939L13.1437 14.8113L13.0573 14.8346L13.1878 15.3173L13.3183 15.8L13.4048 15.7766L13.2742 15.2939ZM13.1878 15.3173L13.0573 14.8346C12.9522 14.863 12.8413 14.91 12.7404 14.9875L13.045 15.384L13.3495 15.7805C13.3238 15.8003 13.3081 15.8027 13.3183 15.8L13.1878 15.3173ZM13.045 15.384L12.7404 14.9875L12.6839 15.0308L12.9885 15.4274L13.2931 15.8239L13.3495 15.7805L13.045 15.384ZM12.9885 15.4274L12.6839 15.0308L12.6275 15.0742L12.9321 15.4707L13.2367 15.8672L13.2931 15.8239L12.9885 15.4274ZM12.9321 15.4707L12.6275 15.0742C12.4682 15.1965 12.397 15.3693 12.3612 15.4808L12.8373 15.6335L13.3134 15.7863C13.3185 15.7703 13.3195 15.7722 13.3123 15.7846C13.3054 15.7964 13.2831 15.8316 13.2367 15.8672L12.9321 15.4707ZM12.8373 15.6335L12.3612 15.4808L12.3229 15.6002L12.799 15.753L13.2751 15.9057L13.3134 15.7863L12.8373 15.6335ZM12.799 15.753L12.3229 15.6002L12.2846 15.7197L12.7607 15.8725L13.2368 16.0252L13.2751 15.9057L12.799 15.753ZM12.7607 15.8725L12.2846 15.7197C12.2864 15.714 12.3279 15.5754 12.4929 15.4968C12.6827 15.4063 12.8404 15.4825 12.8772 15.5038L12.6265 15.9364L12.3758 16.369C12.4764 16.4273 12.6884 16.5113 12.923 16.3996C13.1327 16.2996 13.2094 16.1105 13.2368 16.0252L12.7607 15.8725ZM12.6265 15.9364L12.8772 15.5038L12.7814 15.4482L12.5307 15.8808L12.2799 16.3134L12.3758 16.369L12.6265 15.9364ZM12.5307 15.8808L12.7814 15.4482L12.6855 15.3927L12.4348 15.8253L12.1841 16.2579L12.2799 16.3134L12.5307 15.8808ZM12.4348 15.8253L12.6855 15.3927C12.5651 15.3229 12.3967 15.259 12.2005 15.2829L12.261 15.7792L12.3215 16.2756C12.2293 16.2868 12.1768 16.2536 12.1841 16.2579L12.4348 15.8253ZM12.261 15.7792L12.2005 15.2829L12.1225 15.2924L12.183 15.7888L12.2435 16.2851L12.3215 16.2756L12.261 15.7792ZM12.183 15.7888L12.1225 15.2924L12.0444 15.3019L12.105 15.7983L12.1655 16.2946L12.2435 16.2851L12.183 15.7888ZM12.105 15.7983L12.0444 15.3019C12.1203 15.2927 12.2053 15.3068 12.2813 15.3502C12.3502 15.3896 12.3852 15.4378 12.3978 15.458L11.9742 15.7236L11.5505 15.9891C11.5983 16.0654 11.6727 16.1542 11.7852 16.2185C11.9048 16.2868 12.0376 16.3102 12.1655 16.2946L12.105 15.7983ZM11.9742 15.7236L12.3978 15.458L12.3451 15.3738L11.9214 15.6393L11.4977 15.9048L11.5505 15.9891L11.9742 15.7236ZM11.9214 15.6393L12.3451 15.3738L12.2923 15.2896L11.8686 15.5551L11.4449 15.8206L11.4977 15.9048L11.9214 15.6393ZM11.8686 15.5551L12.2923 15.2896C12.2276 15.1863 12.1181 15.0748 11.9514 15.0235C11.7893 14.9735 11.6421 15.002 11.5397 15.0408L11.7168 15.5084L11.8939 15.976C11.8575 15.9897 11.7686 16.0135 11.6571 15.9792C11.5411 15.9434 11.4745 15.8677 11.4449 15.8206L11.8686 15.5551ZM11.7168 15.5084L11.5397 15.0408L11.4408 15.0783L11.6179 15.5459L11.795 16.0134L11.8939 15.976L11.7168 15.5084ZM11.6179 15.5459L11.4408 15.0783L11.3418 15.1158L11.5189 15.5833L11.696 16.0509L11.795 16.0134L11.6179 15.5459ZM11.5189 15.5833L11.3418 15.1158C11.3351 15.1183 11.3237 15.1214 11.3037 15.1216L11.3069 15.6215L11.31 16.1215C11.4408 16.1207 11.5707 16.0984 11.696 16.0509L11.5189 15.5833ZM11.3069 15.6215L11.3037 15.1216L11.1907 15.1223L11.1939 15.6223L11.197 16.1222L11.31 16.1215L11.3069 15.6215ZM11.1939 15.6223L11.1907 15.1223L11.0777 15.123L11.0809 15.623L11.084 16.123L11.197 16.1222L11.1939 15.6223ZM11.0809 15.623L11.0777 15.123C11.1194 15.1227 11.2502 15.1333 11.3618 15.2522C11.4701 15.3676 11.4728 15.4928 11.4717 15.5248L10.972 15.507L10.4723 15.4891C10.4684 15.5989 10.4879 15.7823 10.6325 15.9364C10.7803 16.094 10.967 16.1237 11.084 16.123L11.0809 15.623ZM10.972 15.507L11.4717 15.5248L11.4759 15.4081L10.9762 15.3903L10.4765 15.3724L10.4723 15.4891L10.972 15.507ZM10.9762 15.3903L11.4759 15.4081L11.4801 15.2914L10.9804 15.2735L10.4807 15.2557L10.4765 15.3724L10.9762 15.3903ZM10.9804 15.2735L11.4801 15.2914C11.4837 15.1897 11.4795 15.0805 11.4569 14.9745L10.9679 15.0789L10.4789 15.1832C10.4784 15.1808 10.4795 15.1852 10.4804 15.1985C10.4812 15.2115 10.4816 15.2303 10.4807 15.2557L10.9804 15.2735ZM10.9679 15.0789L11.4569 14.9745L11.4402 14.8965L10.9513 15.0009L10.4623 15.1052L10.4789 15.1832L10.9679 15.0789ZM10.9513 15.0009L11.4402 14.8965L11.4236 14.8185L10.9346 14.9229L10.4456 15.0273L10.4623 15.1052L10.9513 15.0009ZM10.9346 14.9229L11.4236 14.8185C11.3985 14.7011 11.3511 14.5926 11.2849 14.4954L10.8717 14.777L10.4585 15.0585C10.4566 15.0558 10.454 15.0514 10.4514 15.0455C10.4489 15.0395 10.4469 15.0333 10.4456 15.0273L10.9346 14.9229ZM10.8717 14.777L11.2849 14.4954L11.2385 14.4274L10.8253 14.709L10.4122 14.9905L10.4585 15.0585L10.8717 14.777ZM10.8253 14.709L11.2385 14.4274L11.1922 14.3595L10.779 14.641L10.3658 14.9226L10.4122 14.9905L10.8253 14.709ZM10.779 14.641L11.1922 14.3595C11.1638 14.3178 11.1325 14.2706 11.0981 14.2175L10.6786 14.4897L10.2592 14.7619C10.2969 14.82 10.3325 14.8736 10.3658 14.9226L10.779 14.641ZM10.6786 14.4897L11.0981 14.2175L11.044 14.1342L10.6245 14.4064L10.2051 14.6785L10.2592 14.7619L10.6786 14.4897ZM10.6245 14.4064L11.044 14.1342L10.9899 14.0508L10.5704 14.323L10.151 14.5952L10.2051 14.6785L10.6245 14.4064ZM10.5704 14.323L10.9899 14.0508C11.0009 14.0678 11.0149 14.0955 11.023 14.1331C11.0312 14.1715 11.0309 14.2096 11.0246 14.2432L10.5333 14.1502L10.042 14.0571C10.0045 14.2553 10.0519 14.4424 10.151 14.5952L10.5704 14.323ZM10.5333 14.1502L11.0246 14.2432L11.0415 14.1537L10.5503 14.0607L10.059 13.9676L10.042 14.0571L10.5333 14.1502ZM10.5503 14.0607L11.0415 14.1537L11.0585 14.0643L10.5672 13.9712L10.076 13.8781L10.059 13.9676L10.5503 14.0607ZM10.5672 13.9712L11.0585 14.0643C11.047 14.1247 11.0185 14.1819 10.978 14.2269C10.9405 14.2685 10.9047 14.2868 10.8914 14.2926L10.6896 13.8352L10.4877 13.3778C10.3117 13.4554 10.126 13.614 10.076 13.8781L10.5672 13.9712ZM10.6896 13.8352L10.8914 14.2926L10.9968 14.2461L10.795 13.7887L10.5931 13.3312L10.4877 13.3778L10.6896 13.8352ZM10.795 13.7887L10.9968 14.2461L11.1022 14.1996L10.9004 13.7422L10.6985 13.2847L10.5931 13.3312L10.795 13.7887ZM10.9004 13.7422L11.1022 14.1996C11.1956 14.1584 11.3037 14.0889 11.3864 13.9722C11.4732 13.85 11.5065 13.7121 11.5027 13.583L11.0029 13.5978L10.5031 13.6125C10.5012 13.5487 10.5184 13.4675 10.571 13.3934C10.6196 13.3249 10.6754 13.2949 10.6985 13.2847L10.9004 13.7422ZM11.0029 13.5978L11.5027 13.583L11.4998 13.4851L11 13.4998L10.5002 13.5146L10.5031 13.6125L11.0029 13.5978ZM11 13.4998L11.4998 13.4851L11.4969 13.3871L10.9971 13.4019L10.4973 13.4167L10.5002 13.5146L11 13.4998ZM10.9971 13.4019L11.4969 13.3871C11.4988 13.4504 11.4808 13.6097 11.33 13.7265C11.2024 13.8252 11.0778 13.8135 11.0654 13.8124L11.1101 13.3144L11.1548 12.8164C11.0652 12.8084 10.8831 12.8078 10.7178 12.9357C10.5293 13.0817 10.4935 13.2882 10.4973 13.4167L10.9971 13.4019ZM11.1101 13.3144L11.0654 13.8124L11.1814 13.8228L11.2261 13.3248L11.2708 12.8268L11.1548 12.8164L11.1101 13.3144ZM11.2261 13.3248L11.1814 13.8228L11.2973 13.8332L11.342 13.3352L11.3867 12.8372L11.2708 12.8268L11.2261 13.3248ZM11.342 13.3352L11.2973 13.8332C11.417 13.844 11.6286 13.8436 11.8139 13.7033L11.5121 13.3047L11.2103 12.906C11.2697 12.861 11.3254 12.8458 11.354 12.8407C11.3818 12.8357 11.3952 12.838 11.3867 12.8372L11.342 13.3352ZM11.5121 13.3047L11.8139 13.7033L11.8681 13.6623L11.5662 13.2637L11.2644 12.865L11.2103 12.906L11.5121 13.3047ZM11.5662 13.2637L11.8681 13.6623L11.9222 13.6213L11.6204 13.2227L11.3185 12.824L11.2644 12.865L11.5662 13.2637ZM11.6204 13.2227L11.9222 13.6213C12.0269 13.542 12.0862 13.4431 12.1195 13.3747C12.1548 13.3022 12.1785 13.2269 12.1955 13.1586L11.7103 13.0379L11.225 12.9173C11.2182 12.9448 11.215 12.9482 11.2203 12.9372C11.2233 12.931 11.2309 12.9164 11.2449 12.8976C11.2589 12.8788 11.2825 12.8513 11.3185 12.824L11.6204 13.2227ZM11.7103 13.0379L12.1955 13.1586L12.2312 13.0148L11.746 12.8942L11.2608 12.7735L11.225 12.9173L11.7103 13.0379ZM11.746 12.8942L12.2312 13.0148L12.267 12.8711L11.7817 12.7504L11.2965 12.6298L11.2608 12.7735L11.746 12.8942ZM11.7817 12.7504L12.267 12.8711C12.2664 12.8734 12.2572 12.9127 12.2251 12.9632C12.1918 13.0155 12.1073 13.1184 11.9504 13.1565C11.7928 13.1947 11.67 13.1414 11.6155 13.1092C11.5632 13.0784 11.5369 13.047 11.5351 13.0449L11.9138 12.7184L12.2925 12.3919C12.2586 12.3526 12.2027 12.2946 12.1234 12.2478C12.0418 12.1997 11.8944 12.1411 11.7149 12.1846C11.5359 12.228 11.432 12.347 11.3817 12.4259C11.3326 12.503 11.309 12.5795 11.2965 12.6298L11.7817 12.7504ZM11.9138 12.7184L11.5351 13.0449L11.6314 13.1566L12.0101 12.8302L12.3888 12.5037L12.2925 12.3919L11.9138 12.7184ZM12.0101 12.8302L11.6314 13.1566L11.7278 13.2684L12.1065 12.9419L12.4852 12.6154L12.3888 12.5037L12.0101 12.8302ZM12.1065 12.9419L11.7278 13.2684C11.8028 13.3554 12.0625 13.6266 12.434 13.5038L12.2771 13.0291L12.1202 12.5544C12.2498 12.5115 12.3627 12.5426 12.4248 12.5744C12.4765 12.6008 12.4955 12.6274 12.4852 12.6154L12.1065 12.9419ZM12.2771 13.0291L12.434 13.5038L12.5082 13.4793L12.3513 13.0046L12.1944 12.5298L12.1202 12.5544L12.2771 13.0291ZM12.3513 13.0046L12.5082 13.4793L12.5825 13.4547L12.4256 12.98L12.2687 12.5053L12.1944 12.5298L12.3513 13.0046ZM12.4256 12.98L12.5825 13.4547C12.5335 13.4709 12.462 13.4814 12.3804 13.4621C12.2994 13.4429 12.2421 13.4023 12.2083 13.3694L12.5571 13.0112L12.9059 12.6529C12.8339 12.5828 12.7357 12.5185 12.6109 12.489C12.4854 12.4593 12.3672 12.4727 12.2687 12.5053L12.4256 12.98ZM12.5571 13.0112L12.2083 13.3694L12.2655 13.4251L12.6143 13.0668L12.9631 12.7086L12.9059 12.6529L12.5571 13.0112ZM12.6143 13.0668L12.2655 13.4251L12.3227 13.4808L12.6715 13.1225L13.0203 12.7643L12.9631 12.7086L12.6143 13.0668ZM12.6715 13.1225L12.3227 13.4808C12.5428 13.6951 12.8177 13.6744 12.9852 13.6216L12.835 13.1447L12.6847 12.6679C12.6961 12.6642 12.7416 12.6514 12.8082 12.6605C12.8833 12.6707 12.9599 12.7055 13.0203 12.7643L12.6715 13.1225ZM12.835 13.1447L12.9852 13.6216L13.0915 13.5881L12.9412 13.1112L12.791 12.6344L12.6847 12.6679L12.835 13.1447ZM12.9412 13.1112L13.0915 13.5881L13.1978 13.5546L13.0475 13.0777L12.8972 12.6009L12.791 12.6344L12.9412 13.1112ZM13.0475 13.0777L13.1978 13.5546C13.1797 13.5603 13.0484 13.6001 12.8955 13.5183C12.7254 13.4273 12.6847 13.2732 12.6767 13.2242L13.1701 13.1433L13.6635 13.0623C13.6446 12.9473 13.578 12.7493 13.3671 12.6365C13.1733 12.5328 12.9862 12.5728 12.8972 12.6009L13.0475 13.0777ZM13.1701 13.1433L12.6767 13.2242L12.6929 13.3233L13.1863 13.2423L13.6797 13.1614L13.6635 13.0623L13.1701 13.1433ZM13.1863 13.2423L12.6929 13.3233L12.7091 13.4223L13.2026 13.3414L13.696 13.2604L13.6797 13.1614L13.1863 13.2423ZM13.2026 13.3414L12.7091 13.4223C12.7301 13.5502 12.7907 13.6868 12.9116 13.7939C13.027 13.8961 13.1582 13.9368 13.2625 13.9516L13.3325 13.4565L13.4025 12.9614C13.431 12.9654 13.5027 12.9816 13.5747 13.0454C13.6523 13.1141 13.6858 13.1986 13.696 13.2604L13.2026 13.3414ZM13.3325 13.4565L13.2625 13.9516L13.3762 13.9676L13.4462 13.4726L13.5163 12.9775L13.4025 12.9614L13.3325 13.4565ZM13.4462 13.4726L13.3762 13.9676L13.4899 13.9837L13.5599 13.4887L13.63 12.9936L13.5163 12.9775L13.4462 13.4726ZM13.5599 13.4887L13.4899 13.9837C13.4798 13.9823 13.4524 13.9769 13.4175 13.9577C13.3806 13.9374 13.3452 13.9069 13.3178 13.868L13.7269 13.5805L14.136 13.293C14.0027 13.1033 13.8075 13.0187 13.63 12.9936L13.5599 13.4887ZM13.7269 13.5805L13.3178 13.868L13.3711 13.9438L13.7801 13.6563L14.1892 13.3688L14.136 13.293L13.7269 13.5805ZM13.7801 13.6563L13.3711 13.9438L13.4243 14.0195L13.8334 13.7321L14.2425 13.4446L14.1892 13.3688L13.7801 13.6563ZM13.8334 13.7321L13.4243 14.0195C13.3972 13.981 13.3745 13.9287 13.3677 13.8676C13.3612 13.8084 13.372 13.762 13.3815 13.7353L13.8523 13.9038L14.323 14.0723C14.3943 13.8733 14.3819 13.6429 14.2425 13.4446L13.8334 13.7321ZM13.8523 13.9038L13.3815 13.7353L13.3472 13.8312L13.8179 13.9997L14.2887 14.1682L14.323 14.0723L13.8523 13.9038ZM13.8179 13.9997L13.3472 13.8312L13.3128 13.9272L13.7836 14.0957L14.2543 14.2642L14.2887 14.1682L13.8179 13.9997ZM13.7836 14.0957L13.3128 13.9272C13.2916 13.9865 13.2609 14.0754 13.2491 14.1564L13.7439 14.2286L14.2386 14.3007C14.2365 14.3152 14.2343 14.3242 14.2341 14.3251C14.2337 14.3268 14.234 14.3254 14.2355 14.3201C14.2387 14.3094 14.2446 14.2913 14.2543 14.2642L13.7836 14.0957ZM13.7439 14.2286L13.2491 14.1564L13.2437 14.1934L13.7385 14.2655L14.2332 14.3377L14.2386 14.3007L13.7439 14.2286ZM13.7385 14.2655L13.2437 14.1934L13.2383 14.2303L13.7331 14.3024L14.2279 14.3746L14.2332 14.3377L13.7385 14.2655ZM13.7331 14.3024L13.2383 14.2303C13.2392 14.2244 13.2398 14.2213 13.2397 14.222C13.2396 14.2224 13.2391 14.2247 13.238 14.2293C13.2357 14.2387 13.2318 14.2533 13.2257 14.2739L13.7051 14.4157L14.1846 14.5576C14.2006 14.5035 14.2188 14.4368 14.2279 14.3746L13.7331 14.3024ZM13.7051 14.4157L13.2257 14.2739L13.2031 14.3502L13.6825 14.4921L14.162 14.634L14.1846 14.5576L13.7051 14.4157Z" fill="black"/>
<circle cx="19.2497" cy="14.4697" r="1.5" fill="#0B0B0B"/>
<path d="M20.711 14.6239L20.226 14.5023L20.711 14.6239ZM20.6917 14.701L21.1767 14.8225L20.6917 14.701ZM20.7707 14.992L20.3164 15.2008L20.7707 14.992ZM20.711 15.3231L21.0085 15.7249L20.711 15.3231ZM20.6319 15.3816L20.9294 15.7835L20.6319 15.3816ZM20.4567 15.4607L20.5615 15.9496L20.4567 15.4607ZM20.3606 15.4813L20.2559 14.9924L20.3606 15.4813ZM20.2644 15.5019L20.1597 15.013L20.2644 15.5019ZM19.9576 15.8832L20.2546 15.481L19.9576 15.8832ZM19.714 15.7034L19.417 16.1056L19.714 15.7034ZM19.5325 15.6611L19.8448 16.0517L19.5325 15.6611ZM19.4729 15.7088L19.1607 15.3183L19.4729 15.7088ZM19.4133 15.7565L19.7255 16.147L19.4133 15.7565ZM19.2713 15.8827L19.6166 16.2444L19.2713 15.8827ZM19.1068 16.0398L18.7616 15.6781L19.1068 16.0398ZM18.9372 16.1008L18.8386 16.591L18.9372 16.1008ZM18.7624 16.0657L18.8609 15.5755L18.7624 16.0657ZM18.63 15.953L19.0818 15.7388L18.63 15.953ZM18.5849 15.8578L18.1331 16.072L18.5849 15.8578ZM18.5398 15.7627L18.9916 15.5486L18.5398 15.7627ZM18.4282 15.6283L18.1739 16.0587L18.4282 15.6283ZM18.3618 15.589L18.1074 16.0194L18.3618 15.589ZM18.2953 15.5497L18.5497 15.1193L18.2953 15.5497ZM18.2098 15.4305L18.6962 15.3147L18.2098 15.4305ZM18.1718 15.2708L17.6854 15.3866L18.1718 15.2708ZM18.0964 15.1382L17.7548 15.5033L18.0964 15.1382ZM17.9838 15.0328L18.3254 14.6677L17.9838 15.0328ZM17.969 14.4707L18.3963 14.7304L17.969 14.4707ZM18.0493 14.2033L17.5576 14.1128L18.0493 14.2033ZM17.9959 14.0304L17.5679 14.2887L17.9959 14.0304ZM17.8653 13.814L17.4373 14.0724L17.8653 13.814ZM18.0568 13.5818L17.8394 13.1316L18.0568 13.5818ZM18.3837 13.2016L17.9157 13.0257L18.3837 13.2016ZM18.4218 13.1002L17.9538 12.9244L18.4218 13.1002ZM18.4599 12.9989L18.9279 13.1747L18.4599 12.9989ZM18.588 12.877L18.477 12.3895L18.588 12.877ZM19.1331 13.092L19.4875 12.7394L19.1331 13.092ZM19.4463 13.1171L19.3013 12.6386L19.4463 13.1171ZM19.5991 13.0988L19.6249 12.5995L19.5991 13.0988ZM19.757 13.107L19.7312 13.6063L19.757 13.107ZM19.8725 13.1947L19.4142 13.3946L19.8725 13.1947ZM19.9454 13.3618L20.4037 13.1619L19.9454 13.3618ZM20.1262 13.4045L20.2626 13.8855L20.1262 13.4045ZM20.4149 13.3226L20.2785 12.8416L20.4149 13.3226ZM20.5885 13.3728L21.0647 13.2205L20.5885 13.3728ZM20.6468 13.5552L20.1706 13.7076L20.6468 13.5552ZM20.6713 13.7395L21.1706 13.7649L20.6713 13.7395ZM20.6762 14.0955L21.1613 13.9742L20.6762 14.0955ZM20.6954 14.1722L20.2104 14.2935L20.6954 14.1722ZM20.7146 14.2489L21.1997 14.1276L20.7146 14.2489ZM20.7378 14.3616L20.2408 14.4164L20.7378 14.3616ZM20.7457 14.4337L21.2427 14.3789L20.7457 14.4337ZM20.7304 14.5468L21.2153 14.6684L20.7304 14.5468ZM20.711 14.6239L20.226 14.5023L20.2067 14.5794L20.6917 14.701L21.1767 14.8225L21.196 14.7455L20.711 14.6239ZM20.6917 14.701L20.2067 14.5794C20.1556 14.7833 20.209 14.967 20.2672 15.0938L20.7216 14.885L21.1759 14.6763C21.1686 14.6604 21.2021 14.7214 21.1767 14.8225L20.6917 14.701ZM20.7216 14.885L20.2672 15.0938L20.3164 15.2008L20.7707 14.992L21.2251 14.7833L21.1759 14.6763L20.7216 14.885ZM20.7707 14.992L20.3164 15.2008L20.3655 15.3078L20.8199 15.0991L21.2742 14.8903L21.2251 14.7833L20.7707 14.992ZM20.8199 15.0991L20.3655 15.3078C20.3558 15.2865 20.3258 15.2113 20.3449 15.1051C20.3664 14.9864 20.435 14.9052 20.4925 14.8627L20.79 15.2646L21.0875 15.6664C21.1977 15.5849 21.2977 15.4566 21.329 15.2827C21.3582 15.1214 21.3168 14.9829 21.2742 14.8903L20.8199 15.0991ZM20.79 15.2646L20.4925 14.8627L20.4135 14.9212L20.711 15.3231L21.0085 15.7249L21.0875 15.6664L20.79 15.2646ZM20.711 15.3231L20.4135 14.9212L20.3344 14.9797L20.6319 15.3816L20.9294 15.7835L21.0085 15.7249L20.711 15.3231ZM20.6319 15.3816L20.3344 14.9797C20.336 14.9785 20.3389 14.9767 20.3429 14.9749C20.3468 14.9731 20.3501 14.9722 20.352 14.9718L20.4567 15.4607L20.5615 15.9496C20.6953 15.9209 20.8194 15.8649 20.9294 15.7835L20.6319 15.3816ZM20.4567 15.4607L20.352 14.9718L20.2559 14.9924L20.3606 15.4813L20.4653 15.9702L20.5615 15.9496L20.4567 15.4607ZM20.3606 15.4813L20.2559 14.9924L20.1597 15.013L20.2644 15.5019L20.3692 15.9908L20.4653 15.9702L20.3606 15.4813ZM20.2644 15.5019L20.1597 15.013C20.0349 15.0397 19.9107 15.1034 19.813 15.2134C19.7193 15.3189 19.6753 15.4381 19.6555 15.5384L20.1461 15.6351L20.6366 15.7319C20.6316 15.7571 20.6148 15.8165 20.5606 15.8776C20.5023 15.9432 20.4299 15.9778 20.3692 15.9908L20.2644 15.5019ZM20.1461 15.6351L19.6555 15.5384L19.6333 15.651L20.1238 15.7478L20.6144 15.8446L20.6366 15.7319L20.1461 15.6351ZM20.1238 15.7478L19.6333 15.651L19.611 15.7637L20.1016 15.8605L20.5921 15.9573L20.6144 15.8446L20.1238 15.7478ZM20.1016 15.8605L19.611 15.7637C19.6156 15.7404 19.6313 15.6738 19.6861 15.6017C19.7504 15.517 19.8518 15.4483 19.9765 15.4286C20.085 15.4115 20.1666 15.4386 20.2001 15.4521C20.2192 15.4599 20.2329 15.4674 20.2408 15.4721C20.2488 15.4768 20.2535 15.4802 20.2546 15.481L19.9576 15.8832L19.6606 16.2855C19.7009 16.3153 19.7564 16.3513 19.8244 16.3789C19.8902 16.4056 19.9999 16.4373 20.1325 16.4164C20.4738 16.3625 20.5711 16.064 20.5921 15.9573L20.1016 15.8605ZM19.9576 15.8832L20.2546 15.481L20.1328 15.3911L19.8358 15.7933L19.5388 16.1955L19.6606 16.2855L19.9576 15.8832ZM19.8358 15.7933L20.1328 15.3911L20.011 15.3011L19.714 15.7034L19.417 16.1056L19.5388 16.1955L19.8358 15.7933ZM19.714 15.7034L20.011 15.3011C19.9457 15.2529 19.8464 15.19 19.7211 15.1609C19.578 15.1276 19.3862 15.138 19.2203 15.2706L19.5325 15.6611L19.8448 16.0517C19.7894 16.096 19.7232 16.1259 19.6533 16.1383C19.5864 16.1501 19.5309 16.1433 19.4944 16.1348C19.4296 16.1197 19.4011 16.0939 19.417 16.1056L19.714 15.7034ZM19.5325 15.6611L19.2203 15.2706L19.1607 15.3183L19.4729 15.7088L19.7851 16.0993L19.8448 16.0517L19.5325 15.6611ZM19.4729 15.7088L19.1607 15.3183L19.101 15.366L19.4133 15.7565L19.7255 16.147L19.7851 16.0993L19.4729 15.7088ZM19.4133 15.7565L19.101 15.366C19.0458 15.4101 18.987 15.463 18.9261 15.5211L19.2713 15.8827L19.6166 16.2444C19.6654 16.1978 19.7012 16.1665 19.7255 16.147L19.4133 15.7565ZM19.2713 15.8827L18.9261 15.5211L18.8438 15.5996L19.1891 15.9613L19.5343 16.3229L19.6166 16.2444L19.2713 15.8827ZM19.1891 15.9613L18.8438 15.5996L18.7616 15.6781L19.1068 16.0398L19.452 16.4015L19.5343 16.3229L19.1891 15.9613ZM19.1068 16.0398L18.7616 15.6781C18.7718 15.6683 18.8019 15.6425 18.8541 15.6238C18.9105 15.6035 18.9744 15.5983 19.0357 15.6106L18.9372 16.1008L18.8386 16.591C19.1006 16.6436 19.3155 16.5318 19.452 16.4015L19.1068 16.0398ZM18.9372 16.1008L19.0357 15.6106L18.9483 15.593L18.8498 16.0832L18.7513 16.5734L18.8386 16.591L18.9372 16.1008ZM18.8498 16.0832L18.9483 15.593L18.8609 15.5755L18.7624 16.0657L18.6639 16.5559L18.7513 16.5734L18.8498 16.0832ZM18.7624 16.0657L18.8609 15.5755C18.9129 15.5859 18.9654 15.6103 19.0097 15.6479C19.0516 15.6836 19.0728 15.7198 19.0818 15.7388L18.63 15.953L18.1782 16.1671C18.2619 16.3439 18.4217 16.5072 18.6639 16.5559L18.7624 16.0657ZM18.63 15.953L19.0818 15.7388L19.0367 15.6437L18.5849 15.8578L18.1331 16.072L18.1782 16.1671L18.63 15.953ZM18.5849 15.8578L19.0367 15.6437L18.9916 15.5486L18.5398 15.7627L18.088 15.9768L18.1331 16.072L18.5849 15.8578ZM18.5398 15.7627L18.9916 15.5486C18.934 15.4269 18.839 15.2902 18.6826 15.1978L18.4282 15.6283L18.1739 16.0587C18.1062 16.0187 18.0855 15.9717 18.088 15.9768L18.5398 15.7627ZM18.4282 15.6283L18.6826 15.1978L18.6162 15.1585L18.3618 15.589L18.1074 16.0194L18.1739 16.0587L18.4282 15.6283ZM18.3618 15.589L18.6162 15.1585L18.5497 15.1193L18.2953 15.5497L18.0409 15.9802L18.1074 16.0194L18.3618 15.589ZM18.2953 15.5497L18.5497 15.1193C18.584 15.1396 18.6187 15.1694 18.647 15.2088C18.6749 15.2477 18.6893 15.2857 18.6962 15.3147L18.2098 15.4305L17.7234 15.5464C17.7653 15.7223 17.8717 15.8802 18.0409 15.9802L18.2953 15.5497ZM18.2098 15.4305L18.6962 15.3147L18.6772 15.2348L18.1908 15.3506L17.7044 15.4665L17.7234 15.5464L18.2098 15.4305ZM18.1908 15.3506L18.6772 15.2348L18.6582 15.1549L18.1718 15.2708L17.6854 15.3866L17.7044 15.4665L18.1908 15.3506ZM18.1718 15.2708L18.6582 15.1549C18.6243 15.0127 18.552 14.8797 18.438 14.7731L18.0964 15.1382L17.7548 15.5033C17.7372 15.4868 17.7213 15.4669 17.7087 15.4447C17.6962 15.4227 17.6891 15.4024 17.6854 15.3866L18.1718 15.2708ZM18.0964 15.1382L18.438 14.7731L18.3817 14.7204L18.0401 15.0855L17.6985 15.4506L17.7548 15.5033L18.0964 15.1382ZM18.0401 15.0855L18.3817 14.7204L18.3254 14.6677L17.9838 15.0328L17.6422 15.3979L17.6985 15.4506L18.0401 15.0855ZM17.9838 15.0328L18.3254 14.6677C18.3362 14.6777 18.3476 14.6909 18.3579 14.7072C18.3682 14.7234 18.3758 14.7401 18.3808 14.7559L17.9044 14.9078L17.4281 15.0598C17.4698 15.1907 17.5433 15.3054 17.6422 15.3979L17.9838 15.0328ZM17.9044 14.9078L18.3808 14.7559L18.3577 14.6836L17.8814 14.8355L17.405 14.9875L17.4281 15.0598L17.9044 14.9078ZM17.8814 14.8355L18.3577 14.6836L18.3347 14.6113L17.8583 14.7632L17.382 14.9152L17.405 14.9875L17.8814 14.8355ZM17.8583 14.7632L18.3347 14.6113C18.3494 14.6575 18.3547 14.7103 18.3468 14.7638C18.3391 14.8156 18.3213 14.854 18.3071 14.8772L17.8798 14.6175L17.4525 14.3579C17.3587 14.5123 17.3165 14.7101 17.382 14.9152L17.8583 14.7632ZM17.8798 14.6175L18.3071 14.8772L18.3517 14.8038L17.9244 14.5441L17.4971 14.2845L17.4525 14.3579L17.8798 14.6175ZM17.9244 14.5441L18.3517 14.8038L18.3963 14.7304L17.969 14.4707L17.5417 14.2111L17.4971 14.2845L17.9244 14.5441ZM17.969 14.4707L18.3963 14.7304C18.4485 14.6445 18.4955 14.5413 18.5173 14.4231L18.0255 14.3326L17.5338 14.2422C17.5368 14.2257 17.5408 14.2149 17.5427 14.2102C17.5446 14.2056 17.5449 14.2058 17.5417 14.2111L17.969 14.4707ZM18.0255 14.3326L18.5173 14.4231L18.5292 14.3584L18.0374 14.268L17.5457 14.1775L17.5338 14.2422L18.0255 14.3326ZM18.0374 14.268L18.5292 14.3584L18.5411 14.2937L18.0493 14.2033L17.5576 14.1128L17.5457 14.1775L18.0374 14.268ZM18.0493 14.2033L18.5411 14.2937C18.584 14.0603 18.48 13.8649 18.424 13.772L17.9959 14.0304L17.5679 14.2887C17.5762 14.3026 17.571 14.2972 17.5642 14.2752C17.5578 14.2545 17.5425 14.1946 17.5576 14.1128L18.0493 14.2033ZM17.9959 14.0304L18.424 13.772L18.3587 13.6638L17.9306 13.9222L17.5026 14.1806L17.5679 14.2887L17.9959 14.0304ZM17.9306 13.9222L18.3587 13.6638L18.2934 13.5556L17.8653 13.814L17.4373 14.0724L17.5026 14.1806L17.9306 13.9222ZM17.8653 13.814L18.2934 13.5556C18.2942 13.5569 18.3525 13.6474 18.3332 13.7898C18.3224 13.8693 18.2894 13.9451 18.238 14.0074C18.1897 14.0661 18.1372 14.0982 18.1031 14.1147L17.8856 13.6645L17.6682 13.2142C17.5331 13.2795 17.3742 13.4205 17.3423 13.6553C17.3162 13.8475 17.393 13.999 17.4373 14.0724L17.8653 13.814ZM17.8856 13.6645L18.1031 14.1147L18.1887 14.0734L17.9712 13.6231L17.7538 13.1729L17.6682 13.2142L17.8856 13.6645ZM17.9712 13.6231L18.1887 14.0734L18.2743 14.0321L18.0568 13.5818L17.8394 13.1316L17.7538 13.1729L17.9712 13.6231ZM18.0568 13.5818L18.2743 14.0321C18.3804 13.9808 18.4857 13.9083 18.5732 13.8061L18.1932 13.4811L17.8133 13.156C17.833 13.133 17.8474 13.1277 17.8394 13.1316L18.0568 13.5818ZM18.1932 13.4811L18.5732 13.8061L18.624 13.7468L18.244 13.4217L17.8641 13.0967L17.8133 13.156L18.1932 13.4811ZM18.244 13.4217L18.624 13.7468L18.6748 13.6874L18.2948 13.3623L17.9149 13.0373L17.8641 13.0967L18.244 13.4217ZM18.2948 13.3623L18.6748 13.6874C18.758 13.5901 18.8132 13.48 18.8518 13.3775L18.3837 13.2016L17.9157 13.0257C17.9101 13.0407 17.9061 13.0483 17.9049 13.0505C17.9037 13.0527 17.9065 13.0472 17.9149 13.0373L18.2948 13.3623ZM18.3837 13.2016L18.8518 13.3775L18.8899 13.2761L18.4218 13.1002L17.9538 12.9244L17.9157 13.0257L18.3837 13.2016ZM18.4218 13.1002L18.8899 13.2761L18.9279 13.1747L18.4599 12.9989L17.9918 12.823L17.9538 12.9244L18.4218 13.1002ZM18.4599 12.9989L18.9279 13.1747C18.92 13.196 18.8998 13.2379 18.8556 13.28C18.8088 13.3245 18.7527 13.3523 18.699 13.3645L18.588 12.877L18.477 12.3895C18.2228 12.4474 18.0645 12.6297 17.9918 12.823L18.4599 12.9989ZM18.588 12.877L18.699 13.3645L18.789 13.344L18.678 12.8565L18.5669 12.369L18.477 12.3895L18.588 12.877ZM18.678 12.8565L18.789 13.344L18.879 13.3235L18.768 12.836L18.6569 12.3485L18.5669 12.369L18.678 12.8565ZM18.768 12.836L18.879 13.3235C18.8049 13.3404 18.7326 13.3316 18.6749 13.3088C18.6236 13.2886 18.598 13.2631 18.5952 13.2604L18.9497 12.9077L19.3041 12.555C19.176 12.4263 18.9486 12.2821 18.6569 12.3485L18.768 12.836ZM18.9497 12.9077L18.5952 13.2604L18.6869 13.3525L19.0414 12.9999L19.3958 12.6472L19.3041 12.555L18.9497 12.9077ZM19.0414 12.9999L18.6869 13.3525L18.7786 13.4447L19.1331 13.092L19.4875 12.7394L19.3958 12.6472L19.0414 12.9999ZM19.1331 13.092L18.7786 13.4447C18.8765 13.543 19.1189 13.7387 19.4436 13.6404L19.2986 13.1618L19.1537 12.6833C19.2586 12.6515 19.3532 12.669 19.4146 12.6949C19.4425 12.7066 19.4616 12.7191 19.4722 12.7268C19.4776 12.7308 19.4815 12.734 19.4839 12.7361C19.4863 12.7382 19.4875 12.7394 19.4875 12.7394L19.1331 13.092ZM19.2986 13.1618L19.4436 13.6404L19.5174 13.618L19.3724 13.1395L19.2275 12.6609L19.1537 12.6833L19.2986 13.1618ZM19.3724 13.1395L19.5174 13.618L19.5912 13.5956L19.4463 13.1171L19.3013 12.6386L19.2275 12.6609L19.3724 13.1395ZM19.4463 13.1171L19.5912 13.5956C19.588 13.5966 19.5844 13.5974 19.5808 13.5978C19.5772 13.5982 19.5746 13.5982 19.5733 13.5982L19.5991 13.0988L19.6249 12.5995C19.516 12.5939 19.4072 12.6065 19.3013 12.6386L19.4463 13.1171ZM19.5991 13.0988L19.5733 13.5982L19.6522 13.6022L19.6781 13.1029L19.7039 12.6036L19.6249 12.5995L19.5991 13.0988ZM19.6781 13.1029L19.6522 13.6022L19.7312 13.6063L19.757 13.107L19.7829 12.6077L19.7039 12.6036L19.6781 13.1029ZM19.757 13.107L19.7312 13.6063C19.6668 13.603 19.591 13.5808 19.523 13.5291C19.4587 13.4803 19.4275 13.4251 19.4142 13.3946L19.8725 13.1947L20.3308 12.9948C20.2931 12.9085 20.2305 12.8108 20.1278 12.7328C20.0213 12.6519 19.8999 12.6137 19.7829 12.6077L19.757 13.107ZM19.8725 13.1947L19.4142 13.3946L19.4506 13.4781L19.9089 13.2782L20.3672 13.0784L20.3308 12.9948L19.8725 13.1947ZM19.9089 13.2782L19.4506 13.4781L19.4871 13.5617L19.9454 13.3618L20.4037 13.1619L20.3672 13.0784L19.9089 13.2782ZM19.9454 13.3618L19.4871 13.5617C19.5636 13.7371 19.714 13.8585 19.894 13.9009C20.0431 13.9361 20.1777 13.9096 20.2626 13.8855L20.1262 13.4045L19.9898 12.9234C19.9898 12.9234 19.9904 12.9233 19.9915 12.923C19.9926 12.9227 19.9943 12.9224 19.9966 12.9219C20.0012 12.921 20.0088 12.9198 20.0191 12.9189C20.0386 12.9173 20.0758 12.9164 20.1236 12.9276C20.1736 12.9394 20.2331 12.9643 20.289 13.0105C20.3451 13.057 20.3818 13.1118 20.4037 13.1619L19.9454 13.3618ZM20.1262 13.4045L20.2626 13.8855L20.407 13.8446L20.2706 13.3635L20.1342 12.8825L19.9898 12.9234L20.1262 13.4045ZM20.2706 13.3635L20.407 13.8446L20.5513 13.8036L20.4149 13.3226L20.2785 12.8416L20.1342 12.8825L20.2706 13.3635ZM20.4149 13.3226L20.5513 13.8036C20.5512 13.8037 20.5378 13.8076 20.514 13.8092C20.4906 13.8108 20.4465 13.8109 20.3914 13.795C20.3329 13.778 20.2685 13.7446 20.2126 13.6885C20.1576 13.6333 20.1276 13.5731 20.1123 13.5252L20.5885 13.3728L21.0647 13.2205C21.0078 13.0428 20.8696 12.8923 20.6696 12.8344C20.5093 12.788 20.3635 12.8175 20.2785 12.8416L20.4149 13.3226ZM20.5885 13.3728L20.1123 13.5252L20.1414 13.6164L20.6177 13.464L21.0939 13.3117L21.0647 13.2205L20.5885 13.3728ZM20.6177 13.464L20.1414 13.6164L20.1706 13.7076L20.6468 13.5552L21.1231 13.4029L21.0939 13.3117L20.6177 13.464ZM20.6468 13.5552L20.1706 13.7076C20.1716 13.7106 20.1718 13.7122 20.1719 13.7127C20.1719 13.7131 20.172 13.7134 20.1719 13.7141L20.6713 13.7395L21.1706 13.7649C21.1769 13.6411 21.1604 13.5195 21.1231 13.4029L20.6468 13.5552ZM20.6713 13.7395L20.1719 13.7141L20.1672 13.8072L20.6665 13.8326L21.1659 13.858L21.1706 13.7649L20.6713 13.7395ZM20.6665 13.8326L20.1672 13.8072L20.1624 13.9002L20.6618 13.9257L21.1612 13.9511L21.1659 13.858L20.6665 13.8326ZM20.6618 13.9257L20.1624 13.9002C20.1572 14.0031 20.1645 14.11 20.1912 14.2167L20.6762 14.0955L21.1613 13.9742C21.1624 13.9786 21.1601 13.9724 21.1612 13.9511L20.6618 13.9257ZM20.6762 14.0955L20.1912 14.2167L20.2104 14.2935L20.6954 14.1722L21.1805 14.0509L21.1613 13.9742L20.6762 14.0955ZM20.6954 14.1722L20.2104 14.2935L20.2295 14.3702L20.7146 14.2489L21.1997 14.1276L21.1805 14.0509L20.6954 14.1722ZM20.7146 14.2489L20.2295 14.3702C20.2348 14.3912 20.2382 14.4062 20.2402 14.416C20.2412 14.4208 20.2416 14.4234 20.2418 14.4241C20.2419 14.4249 20.2414 14.4221 20.2408 14.4164L20.7378 14.3616L21.2348 14.3069C21.2281 14.2468 21.2131 14.1813 21.1997 14.1276L20.7146 14.2489ZM20.7378 14.3616L20.2408 14.4164L20.2447 14.4525L20.7417 14.3977L21.2387 14.3429L21.2348 14.3069L20.7378 14.3616ZM20.7417 14.3977L20.2447 14.4525L20.2487 14.4885L20.7457 14.4337L21.2427 14.3789L21.2387 14.3429L20.7417 14.3977ZM20.7457 14.4337L20.2487 14.4885C20.246 14.464 20.2462 14.4451 20.2466 14.4343C20.2471 14.4231 20.248 14.4156 20.2484 14.4128C20.2491 14.4078 20.2489 14.4111 20.2454 14.4252L20.7304 14.5468L21.2153 14.6684C21.2296 14.6116 21.2559 14.4986 21.2427 14.3789L20.7457 14.4337ZM20.7304 14.5468L20.2454 14.4252L20.226 14.5023L20.711 14.6239L21.196 14.7455L21.2153 14.6684L20.7304 14.5468Z" fill="black"/>
</svg>
