<svg width="19" height="19" viewBox="0 0 19 19" fill="none" xmlns="http://www.w3.org/2000/svg">
<g clip-path="url(#clip0_3035_27)">
<path d="M1.18262 9.50865C1.18262 5.09037 4.76434 1.50865 9.18262 1.50865V1.50865C13.6009 1.50865 17.1826 5.09037 17.1826 9.50865V9.50865C17.1826 13.9269 13.6009 17.5087 9.18262 17.5087V17.5087C4.76434 17.5087 1.18262 13.9269 1.18262 9.50865V9.50865Z" fill="#34C759"/>
<path d="M13.7113 5.21829C13.9123 5.22565 14.0721 5.2973 14.1865 5.37389L14.2855 5.44941L14.419 5.5666L14.4203 5.5705C14.7448 5.87642 14.7724 6.38572 14.4763 6.72415L14.4326 6.77428L14.0739 7.18379C14.0602 7.22275 14.0454 7.26287 14.0309 7.30423C13.847 7.8292 13.4957 8.2392 13.0029 8.49889C12.8972 8.55462 12.8354 8.62476 12.7946 8.7554C12.6582 9.19316 12.4444 9.58839 12.1468 9.92597C11.862 10.249 11.5208 10.5119 11.1319 10.7163C10.8483 10.8654 10.5771 11.0236 10.3187 11.1916C10.125 11.3176 9.97065 11.4678 9.84865 11.6428C9.68478 11.8778 9.53454 12.1265 9.39878 12.3895C9.15403 12.8635 8.76428 13.2183 8.23928 13.3804C7.93022 13.4758 7.50937 13.4937 7.13771 13.2157C6.80863 12.9694 6.682 12.6072 6.62665 12.3426C6.57327 12.0875 6.48289 11.9069 6.37534 11.7743C6.32487 11.7121 6.21994 11.6263 5.96519 11.5777C5.35334 11.4609 4.82164 11.1204 4.55894 10.4995C4.47422 10.2992 4.29382 10.0014 3.98407 9.59329C3.6663 9.32995 3.58523 8.86618 3.81154 8.508C4.05743 8.11896 4.57223 8.003 4.96128 8.24889L5.01727 8.28405L5.14097 8.36217L5.23081 8.47806C5.61638 8.97502 5.91887 9.43715 6.09344 9.8498C6.1036 9.87382 6.11097 9.87965 6.11818 9.88496C6.13034 9.89389 6.17361 9.92108 6.27769 9.94095C6.81775 10.044 7.31351 10.2853 7.66961 10.7242C7.82902 10.9206 7.95685 11.136 8.05698 11.3661C8.18812 11.1323 8.32975 10.9065 8.48146 10.689C8.73032 10.3322 9.04221 10.0335 9.40985 9.79446C9.71268 9.59754 10.0282 9.41331 10.3558 9.24108C10.5781 9.1242 10.7555 8.98402 10.8968 8.82376C11.0254 8.67797 11.1302 8.49495 11.2035 8.25996C11.3724 7.71793 11.7207 7.29039 12.2256 7.02428C12.3435 6.96216 12.4124 6.88367 12.458 6.75345C12.5735 6.42385 12.6675 6.16103 12.7393 5.96764C12.7797 5.85867 12.8764 5.61417 13.0921 5.43379C13.223 5.32437 13.4352 5.20824 13.7113 5.21829Z" fill="white"/>
</g>
<path d="M9.87771 1.84763L10.316 0.948809L9.87771 1.84763ZM10.2253 2.01711L9.78694 2.91593L10.2253 2.01711ZM11.665 2.25473L11.6027 3.25279L11.665 2.25473ZM12.3884 2.38638L12.6785 1.4294L12.3884 2.38638ZM13.1071 2.60429L12.8169 3.56127L13.1071 2.60429ZM13.7896 2.91553L14.3202 2.06791L13.7896 2.91553ZM14.4359 3.32011L13.9053 4.16773L14.4359 3.32011ZM14.9444 3.85935L14.0682 4.34132L14.9444 3.85935ZM15.3151 4.53324L16.1913 4.05128L15.3151 4.53324ZM15.6013 5.22684L16.5636 4.9547L15.6013 5.22684ZM15.803 5.94016L16.7653 5.66801L15.803 5.94016ZM16.2789 6.55669L16.8485 5.73477L16.2789 6.55669ZM16.6539 6.81656L16.0843 7.63847L16.6539 6.81656ZM17.3248 7.73896L16.3436 7.54645L17.3248 7.73896ZM17.059 9.31572L16.0621 9.23768L17.059 9.31572ZM17.0301 9.68449L18.0271 9.76253L17.0301 9.68449ZM17.0013 10.0533L16.0043 9.97522L17.0013 10.0533ZM16.8449 10.7649L17.7822 11.1135L16.8449 10.7649ZM16.7174 11.1079L15.7801 10.7593L16.7174 11.1079ZM16.5898 11.4508L15.6526 11.1022L16.5898 11.4508ZM16.2927 12.106L15.414 11.6285L16.2927 12.106ZM15.9533 12.7305L16.832 13.2079L15.9533 12.7305ZM15.6193 13.3585L14.7323 12.8967L15.6193 13.3585ZM15.2904 13.99L14.4035 13.5282L15.2904 13.99ZM14.9225 14.6161L14.0863 14.0676L14.9225 14.6161ZM14.7189 14.9264L15.5551 15.4749V15.4749L14.7189 14.9264ZM14.5154 15.2366L13.6793 14.6881L14.5154 15.2366ZM14.0258 15.7908L13.377 15.0299L14.0258 15.7908ZM13.4538 16.2785L12.805 15.5176V15.5176L13.4538 16.2785ZM11.9919 16.5682L11.953 15.569L11.9919 16.5682ZM11.271 16.7439L11.7094 17.6427L11.271 16.7439ZM10.9421 16.9043L11.3804 17.8031L10.9421 16.9043ZM10.6131 17.0647L10.1748 16.166L10.6131 17.0647ZM9.92085 17.213L9.88737 18.2124L9.92085 17.213ZM9.55751 17.2008L9.59098 16.2014L9.55751 17.2008ZM9.19416 17.1887L9.22764 16.1892L9.19416 17.1887ZM8.13391 17.0144L7.90733 17.9884L8.13391 17.0144ZM7.78545 16.9333L8.01203 15.9593L7.78545 16.9333ZM7.11311 16.7155L6.72413 17.6367L7.11311 16.7155ZM6.46535 16.442L6.85434 15.5207L6.46535 16.442ZM5.82124 16.158L6.23893 15.2494L5.82124 16.158ZM5.18079 15.8636L4.7631 16.7722L5.18079 15.8636ZM4.61541 15.4629L5.33417 14.7677L4.61541 15.4629ZM4.37025 15.2095L3.65148 15.9047L4.37025 15.2095ZM4.1251 14.956L3.40633 15.6513L4.1251 14.956ZM3.47478 14.5569L3.13645 15.4979L3.47478 14.5569ZM2.66446 14.2656L3.00279 13.3246L2.66446 14.2656ZM2.26929 13.6947L1.26957 13.6712L2.26929 13.6947ZM2.16368 12.0923L3.08731 11.709L2.16368 12.0923ZM2.02809 11.7655L2.95171 11.3823L2.02809 11.7655ZM1.89249 11.4388L0.968864 11.8221L1.89249 11.4388ZM1.58588 10.7622L2.48429 10.323L1.58588 10.7622ZM1.24385 10.0625L0.345436 10.5016L1.24385 10.0625ZM1.23753 7.84649L0.462571 7.21448L1.23753 7.84649ZM1.97937 6.04382L0.980249 6.08585L1.97937 6.04382ZM2.28651 4.97381L1.74516 4.13301L2.28651 4.97381ZM2.97224 4.5323L3.51359 5.3731L2.97224 4.5323ZM3.59101 4.07113L4.24797 4.82505L3.59101 4.07113ZM3.86691 3.83071L4.52387 4.58463L3.86691 3.83071ZM4.14281 3.59029L3.48585 2.83637L4.14281 3.59029ZM4.64807 3.00099L3.81246 2.45167L4.64807 3.00099ZM6.16666 1.98062L6.13505 2.98012L6.16666 1.98062ZM7.34927 1.86382L6.97279 0.937389L7.34927 1.86382ZM7.70134 1.72074L8.07782 2.64717L7.70134 1.72074ZM8.98833 1.05838L8.44602 0.218206L8.98833 1.05838ZM9.53016 1.67814L9.09184 2.57696L9.53016 1.67814ZM9.87771 1.84763L9.43939 2.74644L9.78694 2.91593L10.2253 2.01711L10.6636 1.1183L10.316 0.948809L9.87771 1.84763ZM10.2253 2.01711L9.78694 2.91593C10.1291 3.0828 10.4935 3.1836 10.8746 3.20737L10.9369 2.20931L10.9991 1.21125C10.8948 1.20474 10.7848 1.17741 10.6636 1.1183L10.2253 2.01711ZM10.9369 2.20931L10.8746 3.20737L11.2386 3.23008L11.3009 2.23202L11.3632 1.23396L10.9991 1.21125L10.9369 2.20931ZM11.3009 2.23202L11.2386 3.23008L11.6027 3.25279L11.665 2.25473L11.7272 1.25666L11.3632 1.23396L11.3009 2.23202ZM11.665 2.25473L11.6027 3.25279C11.7658 3.26296 11.9306 3.29254 12.0982 3.34337L12.3884 2.38638L12.6785 1.4294C12.367 1.33496 12.0495 1.27677 11.7272 1.25666L11.665 2.25473ZM12.3884 2.38638L12.0982 3.34337L12.4576 3.45232L12.7477 2.49533L13.0379 1.53835L12.6785 1.4294L12.3884 2.38638ZM12.7477 2.49533L12.4576 3.45232L12.8169 3.56127L13.1071 2.60429L13.3972 1.6473L13.0379 1.53835L12.7477 2.49533ZM13.1071 2.60429L12.8169 3.56127C12.9706 3.60785 13.1174 3.67449 13.259 3.76315L13.7896 2.91553L14.3202 2.06791C14.031 1.88684 13.7227 1.74599 13.3972 1.6473L13.1071 2.60429ZM13.7896 2.91553L13.259 3.76315L13.5821 3.96544L14.1128 3.11782L14.6434 2.2702L14.3202 2.06791L13.7896 2.91553ZM14.1128 3.11782L13.5821 3.96544L13.9053 4.16773L14.4359 3.32011L14.9665 2.4725L14.6434 2.2702L14.1128 3.11782ZM14.4359 3.32011L13.9053 4.16773C13.975 4.21134 14.0261 4.26467 14.0682 4.34132L14.9444 3.85935L15.8206 3.37739C15.6156 3.00477 15.3277 2.69862 14.9665 2.4725L14.4359 3.32011ZM14.9444 3.85935L14.0682 4.34132L14.2536 4.67826L15.1297 4.1963L16.0059 3.71433L15.8206 3.37739L14.9444 3.85935ZM15.1297 4.1963L14.2536 4.67826L14.4389 5.0152L15.3151 4.53324L16.1913 4.05128L16.0059 3.71433L15.1297 4.1963ZM15.3151 4.53324L14.4389 5.0152C14.5273 5.17588 14.5932 5.33688 14.639 5.49899L15.6013 5.22684L16.5636 4.9547C16.4749 4.64126 16.35 4.33986 16.1913 4.05128L15.3151 4.53324ZM15.6013 5.22684L14.639 5.49899L14.7399 5.85565L15.7022 5.5835L16.6644 5.31136L16.5636 4.9547L15.6013 5.22684ZM15.7022 5.5835L14.7399 5.85565L14.8408 6.21231L15.803 5.94016L16.7653 5.66801L16.6644 5.31136L15.7022 5.5835ZM15.803 5.94016L14.8408 6.21231C14.9847 6.72132 15.3141 7.1047 15.7093 7.37861L16.2789 6.55669L16.8485 5.73477C16.7938 5.69685 16.7709 5.67052 16.7641 5.66162C16.7587 5.65471 16.7624 5.65794 16.7653 5.66801L15.803 5.94016ZM16.2789 6.55669L15.7093 7.37861L16.0843 7.63847L16.6539 6.81656L17.2235 5.99464L16.8485 5.73477L16.2789 6.55669ZM16.6539 6.81656L16.0843 7.63847L16.4593 7.89834L17.0289 7.07642L17.5985 6.2545L17.2235 5.99464L16.6539 6.81656ZM17.0289 7.07642L16.4593 7.89834C16.4724 7.90745 16.4194 7.87419 16.3773 7.77989C16.3318 7.6779 16.3356 7.58707 16.3436 7.54645L17.3248 7.73896L18.3061 7.93146C18.3668 7.6224 18.3476 7.28692 18.2034 6.96409C18.0626 6.64895 17.8353 6.41865 17.5985 6.2545L17.0289 7.07642ZM17.3248 7.73896L16.3436 7.54645L16.2646 7.94912L17.2459 8.14162L18.2272 8.33412L18.3061 7.93146L17.3248 7.73896ZM17.2459 8.14162L16.2646 7.94912L16.1856 8.35178L17.1669 8.54428L18.1482 8.73678L18.2272 8.33412L17.2459 8.14162ZM17.1669 8.54428L16.1856 8.35178C16.1263 8.65401 16.0846 8.94951 16.0621 9.23768L17.059 9.31572L18.056 9.39376C18.0719 9.19022 18.1021 8.97144 18.1482 8.73678L17.1669 8.54428ZM17.059 9.31572L16.0621 9.23768L16.0332 9.60645L17.0301 9.68449L18.0271 9.76253L18.056 9.39376L17.059 9.31572ZM17.0301 9.68449L16.0332 9.60645L16.0043 9.97522L17.0013 10.0533L17.9982 10.1313L18.0271 9.76253L17.0301 9.68449ZM17.0013 10.0533L16.0043 9.97522C15.9922 10.1296 15.9599 10.2757 15.9076 10.4164L16.8449 10.7649L17.7822 11.1135C17.8999 10.797 17.9718 10.4686 17.9982 10.1313L17.0013 10.0533ZM16.8449 10.7649L15.9076 10.4164L15.7801 10.7593L16.7174 11.1079L17.6547 11.4564L17.7822 11.1135L16.8449 10.7649ZM16.7174 11.1079L15.7801 10.7593L15.6526 11.1022L16.5898 11.4508L17.5271 11.7993L17.6547 11.4564L16.7174 11.1079ZM16.5898 11.4508L15.6526 11.1022C15.5835 11.2878 15.5039 11.4631 15.414 11.6285L16.2927 12.106L17.1713 12.5834C17.3077 12.3325 17.4261 12.0709 17.5271 11.7993L16.5898 11.4508ZM16.2927 12.106L15.414 11.6285L15.2443 11.9408L16.123 12.4182L17.0017 12.8956L17.1713 12.5834L16.2927 12.106ZM16.123 12.4182L15.2443 11.9408L15.0747 12.253L15.9533 12.7305L16.832 13.2079L17.0017 12.8956L16.123 12.4182ZM15.9533 12.7305L15.0747 12.253C14.9587 12.4664 14.8446 12.681 14.7323 12.8967L15.6193 13.3585L16.5062 13.8203C16.6131 13.615 16.7217 13.4109 16.832 13.2079L15.9533 12.7305ZM15.6193 13.3585L14.7323 12.8967L14.5679 13.2124L15.4548 13.6743L16.3418 14.1361L16.5062 13.8203L15.6193 13.3585ZM15.4548 13.6743L14.5679 13.2124L14.4035 13.5282L15.2904 13.99L16.1774 14.4518L16.3418 14.1361L15.4548 13.6743ZM15.2904 13.99L14.4035 13.5282C14.31 13.7078 14.2044 13.8876 14.0863 14.0676L14.9225 14.6161L15.7586 15.1646C15.9119 14.9309 16.0517 14.6933 16.1774 14.4518L15.2904 13.99ZM14.9225 14.6161L14.0863 14.0676L13.8828 14.3779L14.7189 14.9264L15.5551 15.4749L15.7586 15.1646L14.9225 14.6161ZM14.7189 14.9264L13.8828 14.3779L13.6793 14.6881L14.5154 15.2366L15.3516 15.7851L15.5551 15.4749L14.7189 14.9264ZM14.5154 15.2366L13.6793 14.6881C13.5963 14.8146 13.4964 14.928 13.377 15.0299L14.0258 15.7908L14.6746 16.5517C14.9366 16.3284 15.1631 16.0724 15.3516 15.7851L14.5154 15.2366ZM14.0258 15.7908L13.377 15.0299L13.091 15.2737L13.7398 16.0347L14.3886 16.7956L14.6746 16.5517L14.0258 15.7908ZM13.7398 16.0347L13.091 15.2737L12.805 15.5176L13.4538 16.2785L14.1026 17.0395L14.3886 16.7956L13.7398 16.0347ZM13.4538 16.2785L12.805 15.5176C12.7932 15.5277 12.7871 15.5301 12.7843 15.5312C12.781 15.5324 12.7675 15.5372 12.7369 15.5384L12.7758 16.5377L12.8147 17.5369C13.2898 17.5184 13.7333 17.3544 14.1026 17.0395L13.4538 16.2785ZM12.7758 16.5377L12.7369 15.5384L12.3449 15.5537L12.3838 16.5529L12.4227 17.5522L12.8147 17.5369L12.7758 16.5377ZM12.3838 16.5529L12.3449 15.5537L11.953 15.569L11.9919 16.5682L12.0308 17.5674L12.4227 17.5522L12.3838 16.5529ZM11.9919 16.5682L11.953 15.569C11.5631 15.5841 11.1854 15.673 10.8326 15.8451L11.271 16.7439L11.7094 17.6427C11.7951 17.6008 11.898 17.5726 12.0308 17.5674L11.9919 16.5682ZM11.271 16.7439L10.8326 15.8451L10.5037 16.0055L10.9421 16.9043L11.3804 17.8031L11.7094 17.6427L11.271 16.7439ZM10.9421 16.9043L10.5037 16.0055L10.1748 16.166L10.6131 17.0647L11.0515 17.9635L11.3804 17.8031L10.9421 16.9043ZM10.6131 17.0647L10.1748 16.166C10.1012 16.2018 10.0323 16.2162 9.95433 16.2136L9.92085 17.213L9.88737 18.2124C10.2939 18.2261 10.6865 18.1416 11.0515 17.9635L10.6131 17.0647ZM9.92085 17.213L9.95433 16.2136L9.59098 16.2014L9.55751 17.2008L9.52403 18.2003L9.88737 18.2124L9.92085 17.213ZM9.55751 17.2008L9.59098 16.2014L9.22764 16.1892L9.19416 17.1887L9.16069 18.1881L9.52403 18.2003L9.55751 17.2008ZM9.19416 17.1887L9.22764 16.1892C9.0494 16.1833 8.87684 16.1605 8.70894 16.1214L8.48236 17.0954L8.25579 18.0694C8.5525 18.1385 8.85447 18.1778 9.16069 18.1881L9.19416 17.1887ZM8.48236 17.0954L8.70894 16.1214L8.36049 16.0404L8.13391 17.0144L7.90733 17.9884L8.25579 18.0694L8.48236 17.0954ZM8.13391 17.0144L8.36049 16.0404L8.01203 15.9593L7.78545 16.9333L7.55887 17.9073L7.90733 17.9884L8.13391 17.0144ZM7.78545 16.9333L8.01203 15.9593C7.83429 15.918 7.66457 15.8629 7.5021 15.7943L7.11311 16.7155L6.72413 17.6367C6.9935 17.7505 7.27201 17.8406 7.55887 17.9073L7.78545 16.9333ZM7.11311 16.7155L7.5021 15.7943L7.17822 15.6575L6.78923 16.5787L6.40024 17.5L6.72413 17.6367L7.11311 16.7155ZM6.78923 16.5787L7.17822 15.6575L6.85434 15.5207L6.46535 16.442L6.07636 17.3632L6.40024 17.5L6.78923 16.5787ZM6.46535 16.442L6.85434 15.5207C6.64808 15.4336 6.44294 15.3432 6.23893 15.2494L5.82124 16.158L5.40355 17.0666C5.62652 17.1691 5.85079 17.268 6.07636 17.3632L6.46535 16.442ZM5.82124 16.158L6.23893 15.2494L5.9187 15.1022L5.50101 16.0108L5.08333 16.9194L5.40355 17.0666L5.82124 16.158ZM5.50101 16.0108L5.9187 15.1022L5.59847 14.955L5.18079 15.8636L4.7631 16.7722L5.08333 16.9194L5.50101 16.0108ZM5.18079 15.8636L5.59847 14.955C5.49777 14.9087 5.4114 14.8475 5.33417 14.7677L4.61541 15.4629L3.89664 16.1582C4.14629 16.4163 4.43683 16.6222 4.7631 16.7722L5.18079 15.8636ZM4.61541 15.4629L5.33417 14.7677L5.08902 14.5142L4.37025 15.2095L3.65148 15.9047L3.89664 16.1582L4.61541 15.4629ZM4.37025 15.2095L5.08902 14.5142L4.84387 14.2608L4.1251 14.956L3.40633 15.6513L3.65148 15.9047L4.37025 15.2095ZM4.1251 14.956L4.84387 14.2608C4.55317 13.9602 4.19588 13.7535 3.81311 13.6159L3.47478 14.5569L3.13645 15.4979C3.2939 15.5546 3.37016 15.6139 3.40633 15.6513L4.1251 14.956ZM3.47478 14.5569L3.81311 13.6159L3.40795 13.4702L3.06962 14.4113L2.73129 15.3523L3.13645 15.4979L3.47478 14.5569ZM3.06962 14.4113L3.40795 13.4702L3.00279 13.3246L2.66446 14.2656L2.32613 15.2066L2.73129 15.3523L3.06962 14.4113ZM2.66446 14.2656L3.00279 13.3246C3.01617 13.3294 3.10667 13.3673 3.18532 13.4809C3.2647 13.5956 3.26951 13.697 3.26901 13.7182L2.26929 13.6947L1.26957 13.6712C1.2624 13.9758 1.32974 14.3142 1.54085 14.6192C1.75122 14.9231 2.04263 15.1047 2.32613 15.2066L2.66446 14.2656ZM2.26929 13.6947L3.26901 13.7182L3.27901 13.293L2.27929 13.2695L1.27956 13.246L1.26957 13.6712L2.26929 13.6947ZM2.27929 13.2695L3.27901 13.293L3.28901 12.8678L2.28928 12.8443L1.28956 12.8208L1.27956 13.246L2.27929 13.2695ZM2.28928 12.8443L3.28901 12.8678C3.2983 12.4725 3.24084 12.079 3.08731 11.709L2.16368 12.0923L1.24006 12.4756C1.26732 12.5413 1.2936 12.649 1.28956 12.8208L2.28928 12.8443ZM2.16368 12.0923L3.08731 11.709L2.95171 11.3823L2.02809 11.7655L1.10446 12.1488L1.24006 12.4756L2.16368 12.0923ZM2.02809 11.7655L2.95171 11.3823L2.81612 11.0555L1.89249 11.4388L0.968864 11.8221L1.10446 12.1488L2.02809 11.7655ZM1.89249 11.4388L2.81612 11.0555C2.71715 10.817 2.60639 10.5728 2.48429 10.323L1.58588 10.7622L0.687466 11.2013C0.793385 11.418 0.887032 11.6249 0.968864 11.8221L1.89249 11.4388ZM1.58588 10.7622L2.48429 10.323L2.31327 9.97318L1.41486 10.4123L0.516451 10.8515L0.687466 11.2013L1.58588 10.7622ZM1.41486 10.4123L2.31327 9.97318L2.14226 9.62332L1.24385 10.0625L0.345436 10.5016L0.516451 10.8515L1.41486 10.4123ZM1.24385 10.0625L2.14226 9.62332C2.08582 9.50786 2.05505 9.39069 2.04735 9.26462L1.04921 9.32554L0.0510663 9.38645C0.0748702 9.77648 0.173856 10.1506 0.345436 10.5016L1.24385 10.0625ZM1.04921 9.32554L2.04735 9.26462L2.02373 8.87754L1.02559 8.93846L0.0274425 8.99938L0.0510663 9.38645L1.04921 9.32554ZM1.02559 8.93846L2.02373 8.87754L2.0001 8.49046L1.00196 8.55138L0.00381863 8.6123L0.0274425 8.99938L1.02559 8.93846ZM1.00196 8.55138L2.0001 8.49046C1.99983 8.4859 2.00019 8.48557 1.99982 8.48847C1.99944 8.49147 1.99863 8.49515 1.99748 8.49858C1.99636 8.50194 1.99576 8.50252 1.99721 8.49994C1.99874 8.49722 2.00312 8.48999 2.01248 8.47851L1.23753 7.84649L0.462571 7.21448C0.140983 7.6088 -0.0281771 8.08804 0.00381863 8.6123L1.00196 8.55138ZM1.23753 7.84649L2.01248 8.47851L2.27167 8.1607L1.49671 7.52869L0.721759 6.89667L0.462571 7.21448L1.23753 7.84649ZM1.49671 7.52869L2.27167 8.1607L2.53086 7.8429L1.7559 7.21088L0.980947 6.57886L0.721759 6.89667L1.49671 7.52869ZM1.7559 7.21088L2.53086 7.8429C2.8644 7.43392 3.01813 6.94429 2.99634 6.42642L1.99723 6.46845L0.998112 6.51047C0.999506 6.54362 0.995077 6.55641 0.994807 6.55724C0.994397 6.5585 0.993808 6.56004 0.992442 6.56252C0.991028 6.56508 0.987737 6.57054 0.980947 6.57886L1.7559 7.21088ZM1.99723 6.46845L2.99634 6.42642L2.97848 6.00179L1.97937 6.04382L0.980249 6.08585L0.998112 6.51047L1.99723 6.46845ZM1.97937 6.04382L2.97848 6.00179L2.96062 5.57716L1.9615 5.61919L0.962387 5.66122L0.980249 6.08585L1.97937 6.04382ZM1.9615 5.61919L2.96062 5.57716C2.96056 5.57575 2.96197 5.62579 2.92697 5.6953C2.89093 5.76686 2.8439 5.80428 2.82785 5.81461L2.28651 4.97381L1.74516 4.13301C1.20297 4.4821 0.936332 5.04184 0.962387 5.66122L1.9615 5.61919ZM2.28651 4.97381L2.82785 5.81461L3.17072 5.59385L2.62937 4.75305L2.08803 3.91226L1.74516 4.13301L2.28651 4.97381ZM2.62937 4.75305L3.17072 5.59385L3.51359 5.3731L2.97224 4.5323L2.43089 3.6915L2.08803 3.91226L2.62937 4.75305ZM2.97224 4.5323L3.51359 5.3731C3.77822 5.20271 4.0238 5.02039 4.24797 4.82505L3.59101 4.07113L2.93405 3.31721C2.79035 3.44242 2.62341 3.56755 2.43089 3.6915L2.97224 4.5323ZM3.59101 4.07113L4.24797 4.82505L4.52387 4.58463L3.86691 3.83071L3.20995 3.07679L2.93405 3.31721L3.59101 4.07113ZM3.86691 3.83071L4.52387 4.58463L4.79978 4.34421L4.14281 3.59029L3.48585 2.83637L3.20995 3.07679L3.86691 3.83071ZM4.14281 3.59029L4.79978 4.34421C5.06114 4.11646 5.2877 3.84843 5.48368 3.55031L4.64807 3.00099L3.81246 2.45167C3.70264 2.61872 3.59236 2.74356 3.48585 2.83637L4.14281 3.59029ZM4.64807 3.00099L5.48368 3.55031L5.71303 3.20143L4.87742 2.65211L4.04181 2.10279L3.81246 2.45167L4.64807 3.00099ZM4.87742 2.65211L5.71303 3.20143L5.94238 2.85255L5.10677 2.30323L4.27116 1.75391L4.04181 2.10279L4.87742 2.65211ZM5.10677 2.30323L5.94238 2.85255C5.93922 2.85735 5.90968 2.89784 5.84454 2.93177C5.77918 2.96581 5.72791 2.96724 5.71978 2.96699L5.75139 1.96748L5.783 0.967985C5.15637 0.948165 4.614 1.23239 4.27116 1.75391L5.10677 2.30323ZM5.75139 1.96748L5.71978 2.96699L6.13505 2.98012L6.16666 1.98062L6.19827 0.981119L5.783 0.967985L5.75139 1.96748ZM6.16666 1.98062L6.13505 2.98012L6.55032 2.99325L6.58193 1.99375L6.61354 0.994254L6.19827 0.981119L6.16666 1.98062ZM6.58193 1.99375L6.55032 2.99325C6.95366 3.00601 7.34995 2.94296 7.72575 2.79024L7.34927 1.86382L6.97279 0.937389C6.87917 0.975437 6.7639 0.999009 6.61354 0.994254L6.58193 1.99375ZM7.34927 1.86382L7.72575 2.79024L8.07782 2.64717L7.70134 1.72074L7.32487 0.794317L6.97279 0.937389L7.34927 1.86382ZM7.70134 1.72074L8.07782 2.64717L8.42989 2.5041L8.05341 1.57767L7.67694 0.651244L7.32487 0.794317L7.70134 1.72074ZM8.05341 1.57767L8.42989 2.5041C8.69066 2.39812 8.93752 2.28141 9.14208 2.14937L8.59977 1.30919L8.05746 0.469016C8.00297 0.504183 7.88559 0.566452 7.67694 0.651244L8.05341 1.57767ZM8.59977 1.30919L9.14208 2.14937L9.33636 2.02396L8.79405 1.18379L8.25174 0.343611L8.05746 0.469016L8.59977 1.30919ZM8.79405 1.18379L9.33636 2.02396L9.53065 1.89856L8.98833 1.05838L8.44602 0.218206L8.25174 0.343611L8.79405 1.18379ZM8.98833 1.05838L9.53065 1.89856C9.52902 1.89961 9.52153 1.90439 9.50878 1.91127C9.49645 1.91793 9.47429 1.92921 9.44356 1.94145C9.40027 1.95871 9.24894 2.01579 9.03918 1.9958C8.77484 1.97061 8.4973 1.82748 8.32598 1.55733C8.18916 1.3416 8.18262 1.14096 8.18262 1.0769H9.18262H10.1826C10.1826 0.96486 10.168 0.727471 10.015 0.486204C9.82746 0.190529 9.52563 0.0330936 9.22891 0.00481796C8.98677 -0.0182557 8.79496 0.0469612 8.7031 0.0835732C8.59775 0.125563 8.50977 0.17706 8.44602 0.218206L8.98833 1.05838ZM9.18262 1.0769H8.18262V1.22081H9.18262H10.1826V1.0769H9.18262ZM9.18262 1.22081H8.18262V1.36473H9.18262H10.1826V1.22081H9.18262ZM9.18262 1.36473H8.18262C8.18262 1.83141 8.45944 2.1311 8.59982 2.25769C8.75757 2.39994 8.93904 2.50244 9.09184 2.57696L9.53016 1.67814L9.96849 0.779322C9.88959 0.740845 9.89729 0.734612 9.93919 0.772401C9.96372 0.794519 10.1826 0.994002 10.1826 1.36473H9.18262ZM9.53016 1.67814L9.09184 2.57696L9.43939 2.74644L9.87771 1.84763L10.316 0.948809L9.96849 0.779322L9.53016 1.67814Z" fill="#34C759"/>
<defs>
<clipPath id="clip0_3035_27">
<path d="M1.18262 9.50865C1.18262 5.09037 4.76434 1.50865 9.18262 1.50865V1.50865C13.6009 1.50865 17.1826 5.09037 17.1826 9.50865V9.50865C17.1826 13.9269 13.6009 17.5087 9.18262 17.5087V17.5087C4.76434 17.5087 1.18262 13.9269 1.18262 9.50865V9.50865Z" fill="white"/>
</clipPath>
</defs>
</svg>
