<svg width="19" height="19" viewBox="0 0 19 19" fill="none" xmlns="http://www.w3.org/2000/svg">
<path d="M9.87771 1.84776L10.316 0.948946L9.87771 1.84776ZM10.2253 2.01725L9.78694 2.91607L10.2253 2.01725ZM11.665 2.25486L11.6027 3.25292L11.665 2.25486ZM12.3884 2.38652L12.6785 1.42954L12.3884 2.38652ZM13.1071 2.60442L12.8169 3.56141L13.1071 2.60442ZM13.7896 2.91567L14.3202 2.06805L13.7896 2.91567ZM14.4359 3.32025L13.9053 4.16787L14.4359 3.32025ZM14.9444 3.85949L14.0682 4.34145L14.9444 3.85949ZM15.3151 4.53338L16.1913 4.05142L15.3151 4.53338ZM15.6013 5.22698L16.5636 4.95484L15.6013 5.22698ZM15.803 5.9403L16.7653 5.66815L15.803 5.9403ZM16.2789 6.55682L16.8485 5.7349L16.2789 6.55682ZM16.6539 6.81669L16.0843 7.63861L16.6539 6.81669ZM17.3248 7.73909L16.3436 7.54659L17.3248 7.73909ZM17.059 9.31585L16.0621 9.23781L17.059 9.31585ZM17.0301 9.68463L18.0271 9.76267L17.0301 9.68463ZM17.0013 10.0534L16.0043 9.97536L17.0013 10.0534ZM16.8449 10.7651L17.7822 11.1136L16.8449 10.7651ZM16.7174 11.108L15.7801 10.7594L16.7174 11.108ZM16.5898 11.4509L15.6526 11.1024L16.5898 11.4509ZM16.2927 12.1061L15.414 11.6287L16.2927 12.1061ZM15.9533 12.7306L16.832 13.208L15.9533 12.7306ZM15.6193 13.3586L14.7323 12.8968L15.6193 13.3586ZM15.2904 13.9902L14.4035 13.5283L15.2904 13.9902ZM14.9225 14.6162L14.0863 14.0677L14.9225 14.6162ZM14.7189 14.9265L15.5551 15.475V15.475L14.7189 14.9265ZM14.5154 15.2368L13.6793 14.6883L14.5154 15.2368ZM14.0258 15.7909L13.377 15.03L14.0258 15.7909ZM13.4538 16.2787L12.805 15.5177V15.5177L13.4538 16.2787ZM11.9919 16.5683L11.953 15.5691L11.9919 16.5683ZM11.271 16.744L11.7094 17.6428L11.271 16.744ZM10.9421 16.9045L11.3804 17.8032L10.9421 16.9045ZM10.6131 17.0649L10.1748 16.1661L10.6131 17.0649ZM9.92085 17.2131L9.88737 18.2126L9.92085 17.2131ZM9.55751 17.201L9.59098 16.2015L9.55751 17.201ZM9.19416 17.1888L9.22764 16.1894L9.19416 17.1888ZM8.13391 17.0145L7.90733 17.9885L8.13391 17.0145ZM7.78545 16.9334L8.01203 15.9595L7.78545 16.9334ZM7.11311 16.7156L6.72413 17.6369L7.11311 16.7156ZM6.46535 16.4421L6.85434 15.5209L6.46535 16.4421ZM5.82124 16.1581L6.23893 15.2496L5.82124 16.1581ZM5.18079 15.8637L4.7631 16.7723L5.18079 15.8637ZM4.61541 15.4631L5.33417 14.7678L4.61541 15.4631ZM4.37025 15.2096L3.65148 15.9049L4.37025 15.2096ZM4.1251 14.9562L3.40633 15.6514L4.1251 14.9562ZM3.47478 14.5571L3.13645 15.4981L3.47478 14.5571ZM2.66446 14.2657L3.00279 13.3247L2.66446 14.2657ZM2.26929 13.6948L1.26957 13.6713L2.26929 13.6948ZM2.16368 12.0924L3.08731 11.7091L2.16368 12.0924ZM2.02809 11.7657L2.95171 11.3824L2.02809 11.7657ZM1.89249 11.4389L0.968864 11.8222L1.89249 11.4389ZM1.58588 10.7623L2.48429 10.3232L1.58588 10.7623ZM1.24385 10.0626L0.345436 10.5018L1.24385 10.0626ZM1.23753 7.84663L0.462571 7.21461L1.23753 7.84663ZM1.97937 6.04395L0.980249 6.08598L1.97937 6.04395ZM2.28651 4.97395L1.74516 4.13315L2.28651 4.97395ZM2.97224 4.53244L3.51359 5.37324L2.97224 4.53244ZM3.59101 4.07127L4.24797 4.82519L3.59101 4.07127ZM3.86691 3.83085L4.52387 4.58477L3.86691 3.83085ZM4.14281 3.59043L3.48585 2.8365L4.14281 3.59043ZM4.64807 3.00113L3.81246 2.4518L4.64807 3.00113ZM6.16666 1.98076L6.13505 2.98026L6.16666 1.98076ZM7.34927 1.86395L6.97279 0.937527L7.34927 1.86395ZM7.70134 1.72088L8.07782 2.64731L7.70134 1.72088ZM8.98833 1.05852L8.44602 0.218343L8.98833 1.05852ZM9.53016 1.67828L9.09184 2.57709L9.53016 1.67828ZM9.87771 1.84776L9.43939 2.74658L9.78694 2.91607L10.2253 2.01725L10.6636 1.11843L10.316 0.948946L9.87771 1.84776ZM10.2253 2.01725L9.78694 2.91607C10.1291 3.08294 10.4935 3.18374 10.8746 3.20751L10.9369 2.20945L10.9991 1.21139C10.8948 1.20488 10.7848 1.17755 10.6636 1.11843L10.2253 2.01725ZM10.9369 2.20945L10.8746 3.20751L11.2386 3.23021L11.3009 2.23215L11.3632 1.23409L10.9991 1.21139L10.9369 2.20945ZM11.3009 2.23215L11.2386 3.23021L11.6027 3.25292L11.665 2.25486L11.7272 1.2568L11.3632 1.23409L11.3009 2.23215ZM11.665 2.25486L11.6027 3.25292C11.7658 3.2631 11.9306 3.29268 12.0982 3.34351L12.3884 2.38652L12.6785 1.42954C12.367 1.3351 12.0495 1.2769 11.7272 1.2568L11.665 2.25486ZM12.3884 2.38652L12.0982 3.34351L12.4576 3.45246L12.7477 2.49547L13.0379 1.53849L12.6785 1.42954L12.3884 2.38652ZM12.7477 2.49547L12.4576 3.45246L12.8169 3.56141L13.1071 2.60442L13.3972 1.64744L13.0379 1.53849L12.7477 2.49547ZM13.1071 2.60442L12.8169 3.56141C12.9706 3.60799 13.1174 3.67463 13.259 3.76329L13.7896 2.91567L14.3202 2.06805C14.031 1.88698 13.7227 1.74613 13.3972 1.64744L13.1071 2.60442ZM13.7896 2.91567L13.259 3.76329L13.5821 3.96558L14.1128 3.11796L14.6434 2.27034L14.3202 2.06805L13.7896 2.91567ZM14.1128 3.11796L13.5821 3.96558L13.9053 4.16787L14.4359 3.32025L14.9665 2.47263L14.6434 2.27034L14.1128 3.11796ZM14.4359 3.32025L13.9053 4.16787C13.975 4.21147 14.0261 4.26481 14.0682 4.34145L14.9444 3.85949L15.8206 3.37753C15.6156 3.00491 15.3277 2.69875 14.9665 2.47263L14.4359 3.32025ZM14.9444 3.85949L14.0682 4.34145L14.2536 4.6784L15.1297 4.19643L16.0059 3.71447L15.8206 3.37753L14.9444 3.85949ZM15.1297 4.19643L14.2536 4.6784L14.4389 5.01534L15.3151 4.53338L16.1913 4.05142L16.0059 3.71447L15.1297 4.19643ZM15.3151 4.53338L14.4389 5.01534C14.5273 5.17602 14.5932 5.33702 14.639 5.49913L15.6013 5.22698L16.5636 4.95484C16.4749 4.6414 16.35 4.34 16.1913 4.05142L15.3151 4.53338ZM15.6013 5.22698L14.639 5.49913L14.7399 5.85578L15.7022 5.58364L16.6644 5.31149L16.5636 4.95484L15.6013 5.22698ZM15.7022 5.58364L14.7399 5.85578L14.8408 6.21244L15.803 5.9403L16.7653 5.66815L16.6644 5.31149L15.7022 5.58364ZM15.803 5.9403L14.8408 6.21244C14.9847 6.72146 15.3141 7.10484 15.7093 7.37874L16.2789 6.55682L16.8485 5.7349C16.7938 5.69699 16.7709 5.67066 16.7641 5.66176C16.7587 5.65484 16.7624 5.65808 16.7653 5.66815L15.803 5.9403ZM16.2789 6.55682L15.7093 7.37874L16.0843 7.63861L16.6539 6.81669L17.2235 5.99477L16.8485 5.7349L16.2789 6.55682ZM16.6539 6.81669L16.0843 7.63861L16.4593 7.89848L17.0289 7.07656L17.5985 6.25464L17.2235 5.99477L16.6539 6.81669ZM17.0289 7.07656L16.4593 7.89848C16.4724 7.90758 16.4194 7.87433 16.3773 7.78003C16.3318 7.67804 16.3356 7.5872 16.3436 7.54659L17.3248 7.73909L18.3061 7.9316C18.3668 7.62254 18.3476 7.28706 18.2034 6.96423C18.0626 6.64909 17.8353 6.41878 17.5985 6.25464L17.0289 7.07656ZM17.3248 7.73909L16.3436 7.54659L16.2646 7.94925L17.2459 8.14176L18.2272 8.33426L18.3061 7.9316L17.3248 7.73909ZM17.2459 8.14176L16.2646 7.94925L16.1856 8.35192L17.1669 8.54442L18.1482 8.73692L18.2272 8.33426L17.2459 8.14176ZM17.1669 8.54442L16.1856 8.35192C16.1263 8.65415 16.0846 8.94965 16.0621 9.23781L17.059 9.31585L18.056 9.39389C18.0719 9.19036 18.1021 8.97157 18.1482 8.73692L17.1669 8.54442ZM17.059 9.31585L16.0621 9.23781L16.0332 9.60658L17.0301 9.68463L18.0271 9.76267L18.056 9.39389L17.059 9.31585ZM17.0301 9.68463L16.0332 9.60658L16.0043 9.97536L17.0013 10.0534L17.9982 10.1314L18.0271 9.76267L17.0301 9.68463ZM17.0013 10.0534L16.0043 9.97536C15.9922 10.1297 15.9599 10.2759 15.9076 10.4165L16.8449 10.7651L17.7822 11.1136C17.8999 10.7971 17.9718 10.4688 17.9982 10.1314L17.0013 10.0534ZM16.8449 10.7651L15.9076 10.4165L15.7801 10.7594L16.7174 11.108L17.6547 11.4565L17.7822 11.1136L16.8449 10.7651ZM16.7174 11.108L15.7801 10.7594L15.6526 11.1024L16.5898 11.4509L17.5271 11.7995L17.6547 11.4565L16.7174 11.108ZM16.5898 11.4509L15.6526 11.1024C15.5835 11.288 15.5039 11.4632 15.414 11.6287L16.2927 12.1061L17.1713 12.5835C17.3077 12.3326 17.4261 12.0711 17.5271 11.7995L16.5898 11.4509ZM16.2927 12.1061L15.414 11.6287L15.2443 11.9409L16.123 12.4183L17.0017 12.8958L17.1713 12.5835L16.2927 12.1061ZM16.123 12.4183L15.2443 11.9409L15.0747 12.2532L15.9533 12.7306L16.832 13.208L17.0017 12.8958L16.123 12.4183ZM15.9533 12.7306L15.0747 12.2532C14.9587 12.4665 14.8446 12.6811 14.7323 12.8968L15.6193 13.3586L16.5062 13.8205C16.6131 13.6152 16.7217 13.411 16.832 13.208L15.9533 12.7306ZM15.6193 13.3586L14.7323 12.8968L14.5679 13.2126L15.4548 13.6744L16.3418 14.1362L16.5062 13.8205L15.6193 13.3586ZM15.4548 13.6744L14.5679 13.2126L14.4035 13.5283L15.2904 13.9902L16.1774 14.452L16.3418 14.1362L15.4548 13.6744ZM15.2904 13.9902L14.4035 13.5283C14.31 13.7079 14.2044 13.8877 14.0863 14.0677L14.9225 14.6162L15.7586 15.1647C15.9119 14.931 16.0517 14.6934 16.1774 14.452L15.2904 13.9902ZM14.9225 14.6162L14.0863 14.0677L13.8828 14.378L14.7189 14.9265L15.5551 15.475L15.7586 15.1647L14.9225 14.6162ZM14.7189 14.9265L13.8828 14.378L13.6793 14.6883L14.5154 15.2368L15.3516 15.7853L15.5551 15.475L14.7189 14.9265ZM14.5154 15.2368L13.6793 14.6883C13.5963 14.8148 13.4964 14.9282 13.377 15.03L14.0258 15.7909L14.6746 16.5519C14.9366 16.3285 15.1631 16.0725 15.3516 15.7853L14.5154 15.2368ZM14.0258 15.7909L13.377 15.03L13.091 15.2739L13.7398 16.0348L14.3886 16.7958L14.6746 16.5519L14.0258 15.7909ZM13.7398 16.0348L13.091 15.2739L12.805 15.5177L13.4538 16.2787L14.1026 17.0396L14.3886 16.7958L13.7398 16.0348ZM13.4538 16.2787L12.805 15.5177C12.7932 15.5278 12.7871 15.5302 12.7843 15.5313C12.781 15.5326 12.7675 15.5374 12.7369 15.5386L12.7758 16.5378L12.8147 17.5371C13.2898 17.5186 13.7333 17.3545 14.1026 17.0396L13.4538 16.2787ZM12.7758 16.5378L12.7369 15.5386L12.3449 15.5538L12.3838 16.5531L12.4227 17.5523L12.8147 17.5371L12.7758 16.5378ZM12.3838 16.5531L12.3449 15.5538L11.953 15.5691L11.9919 16.5683L12.0308 17.5676L12.4227 17.5523L12.3838 16.5531ZM11.9919 16.5683L11.953 15.5691C11.5631 15.5843 11.1854 15.6731 10.8326 15.8452L11.271 16.744L11.7094 17.6428C11.7951 17.601 11.898 17.5727 12.0308 17.5676L11.9919 16.5683ZM11.271 16.744L10.8326 15.8452L10.5037 16.0057L10.9421 16.9045L11.3804 17.8032L11.7094 17.6428L11.271 16.744ZM10.9421 16.9045L10.5037 16.0057L10.1748 16.1661L10.6131 17.0649L11.0515 17.9637L11.3804 17.8032L10.9421 16.9045ZM10.6131 17.0649L10.1748 16.1661C10.1012 16.202 10.0323 16.2163 9.95433 16.2137L9.92085 17.2131L9.88737 18.2126C10.2939 18.2262 10.6865 18.1417 11.0515 17.9637L10.6131 17.0649ZM9.92085 17.2131L9.95433 16.2137L9.59098 16.2015L9.55751 17.201L9.52403 18.2004L9.88737 18.2126L9.92085 17.2131ZM9.55751 17.201L9.59098 16.2015L9.22764 16.1894L9.19416 17.1888L9.16069 18.1882L9.52403 18.2004L9.55751 17.201ZM9.19416 17.1888L9.22764 16.1894C9.0494 16.1834 8.87684 16.1606 8.70894 16.1216L8.48236 17.0956L8.25579 18.0696C8.5525 18.1386 8.85447 18.178 9.16069 18.1882L9.19416 17.1888ZM8.48236 17.0956L8.70894 16.1216L8.36049 16.0405L8.13391 17.0145L7.90733 17.9885L8.25579 18.0696L8.48236 17.0956ZM8.13391 17.0145L8.36049 16.0405L8.01203 15.9595L7.78545 16.9334L7.55887 17.9074L7.90733 17.9885L8.13391 17.0145ZM7.78545 16.9334L8.01203 15.9595C7.83429 15.9181 7.66457 15.863 7.5021 15.7944L7.11311 16.7156L6.72413 17.6369C6.9935 17.7506 7.27201 17.8407 7.55887 17.9074L7.78545 16.9334ZM7.11311 16.7156L7.5021 15.7944L7.17822 15.6576L6.78923 16.5789L6.40024 17.5001L6.72413 17.6369L7.11311 16.7156ZM6.78923 16.5789L7.17822 15.6576L6.85434 15.5209L6.46535 16.4421L6.07636 17.3634L6.40024 17.5001L6.78923 16.5789ZM6.46535 16.4421L6.85434 15.5209C6.64808 15.4338 6.44294 15.3433 6.23893 15.2496L5.82124 16.1581L5.40355 17.0667C5.62652 17.1692 5.85079 17.2681 6.07636 17.3634L6.46535 16.4421ZM5.82124 16.1581L6.23893 15.2496L5.9187 15.1023L5.50101 16.0109L5.08333 16.9195L5.40355 17.0667L5.82124 16.1581ZM5.50101 16.0109L5.9187 15.1023L5.59847 14.9551L5.18079 15.8637L4.7631 16.7723L5.08333 16.9195L5.50101 16.0109ZM5.18079 15.8637L5.59847 14.9551C5.49777 14.9088 5.4114 14.8476 5.33417 14.7678L4.61541 15.4631L3.89664 16.1583C4.14629 16.4164 4.43683 16.6223 4.7631 16.7723L5.18079 15.8637ZM4.61541 15.4631L5.33417 14.7678L5.08902 14.5144L4.37025 15.2096L3.65148 15.9049L3.89664 16.1583L4.61541 15.4631ZM4.37025 15.2096L5.08902 14.5144L4.84387 14.2609L4.1251 14.9562L3.40633 15.6514L3.65148 15.9049L4.37025 15.2096ZM4.1251 14.9562L4.84387 14.2609C4.55317 13.9604 4.19588 13.7536 3.81311 13.616L3.47478 14.5571L3.13645 15.4981C3.2939 15.5547 3.37016 15.614 3.40633 15.6514L4.1251 14.9562ZM3.47478 14.5571L3.81311 13.616L3.40795 13.4704L3.06962 14.4114L2.73129 15.3524L3.13645 15.4981L3.47478 14.5571ZM3.06962 14.4114L3.40795 13.4704L3.00279 13.3247L2.66446 14.2657L2.32613 15.2067L2.73129 15.3524L3.06962 14.4114ZM2.66446 14.2657L3.00279 13.3247C3.01617 13.3295 3.10667 13.3674 3.18532 13.481C3.2647 13.5957 3.26951 13.6972 3.26901 13.7183L2.26929 13.6948L1.26957 13.6713C1.2624 13.976 1.32974 14.3143 1.54085 14.6193C1.75122 14.9232 2.04263 15.1048 2.32613 15.2067L2.66446 14.2657ZM2.26929 13.6948L3.26901 13.7183L3.27901 13.2931L2.27929 13.2696L1.27956 13.2461L1.26957 13.6713L2.26929 13.6948ZM2.27929 13.2696L3.27901 13.2931L3.28901 12.8679L2.28928 12.8444L1.28956 12.8209L1.27956 13.2461L2.27929 13.2696ZM2.28928 12.8444L3.28901 12.8679C3.2983 12.4727 3.24084 12.0791 3.08731 11.7091L2.16368 12.0924L1.24006 12.4757C1.26732 12.5414 1.2936 12.6492 1.28956 12.8209L2.28928 12.8444ZM2.16368 12.0924L3.08731 11.7091L2.95171 11.3824L2.02809 11.7657L1.10446 12.149L1.24006 12.4757L2.16368 12.0924ZM2.02809 11.7657L2.95171 11.3824L2.81612 11.0556L1.89249 11.4389L0.968864 11.8222L1.10446 12.149L2.02809 11.7657ZM1.89249 11.4389L2.81612 11.0556C2.71715 10.8172 2.60639 10.573 2.48429 10.3232L1.58588 10.7623L0.687466 11.2015C0.793385 11.4182 0.887032 11.625 0.968864 11.8222L1.89249 11.4389ZM1.58588 10.7623L2.48429 10.3232L2.31327 9.97332L1.41486 10.4125L0.516451 10.8516L0.687466 11.2015L1.58588 10.7623ZM1.41486 10.4125L2.31327 9.97332L2.14226 9.62346L1.24385 10.0626L0.345436 10.5018L0.516451 10.8516L1.41486 10.4125ZM1.24385 10.0626L2.14226 9.62346C2.08582 9.50799 2.05505 9.39083 2.04735 9.26476L1.04921 9.32567L0.0510663 9.38659C0.0748702 9.77662 0.173856 10.1507 0.345436 10.5018L1.24385 10.0626ZM1.04921 9.32567L2.04735 9.26476L2.02373 8.87768L1.02559 8.93859L0.0274425 8.99951L0.0510663 9.38659L1.04921 9.32567ZM1.02559 8.93859L2.02373 8.87768L2.0001 8.4906L1.00196 8.55152L0.00381863 8.61243L0.0274425 8.99951L1.02559 8.93859ZM1.00196 8.55152L2.0001 8.4906C1.99983 8.48603 2.00019 8.48571 1.99982 8.48861C1.99944 8.4916 1.99863 8.49529 1.99748 8.49871C1.99636 8.50207 1.99576 8.50266 1.99721 8.50008C1.99874 8.49736 2.00312 8.49013 2.01248 8.47865L1.23753 7.84663L0.462571 7.21461C0.140983 7.60893 -0.0281771 8.08818 0.00381863 8.61243L1.00196 8.55152ZM1.23753 7.84663L2.01248 8.47865L2.27167 8.16084L1.49671 7.52882L0.721759 6.89681L0.462571 7.21461L1.23753 7.84663ZM1.49671 7.52882L2.27167 8.16084L2.53086 7.84303L1.7559 7.21102L0.980947 6.579L0.721759 6.89681L1.49671 7.52882ZM1.7559 7.21102L2.53086 7.84303C2.8644 7.43406 3.01813 6.94443 2.99634 6.42655L1.99723 6.46858L0.998112 6.51061C0.999506 6.54376 0.995077 6.55655 0.994807 6.55738C0.994397 6.55864 0.993808 6.56017 0.992442 6.56265C0.991028 6.56522 0.987737 6.57067 0.980947 6.579L1.7559 7.21102ZM1.99723 6.46858L2.99634 6.42655L2.97848 6.00193L1.97937 6.04395L0.980249 6.08598L0.998112 6.51061L1.99723 6.46858ZM1.97937 6.04395L2.97848 6.00193L2.96062 5.5773L1.9615 5.61933L0.962387 5.66136L0.980249 6.08598L1.97937 6.04395ZM1.9615 5.61933L2.96062 5.5773C2.96056 5.57589 2.96197 5.62593 2.92697 5.69544C2.89093 5.767 2.8439 5.80441 2.82785 5.81475L2.28651 4.97395L1.74516 4.13315C1.20297 4.48224 0.936332 5.04198 0.962387 5.66136L1.9615 5.61933ZM2.28651 4.97395L2.82785 5.81475L3.17072 5.59399L2.62937 4.75319L2.08803 3.91239L1.74516 4.13315L2.28651 4.97395ZM2.62937 4.75319L3.17072 5.59399L3.51359 5.37324L2.97224 4.53244L2.43089 3.69164L2.08803 3.91239L2.62937 4.75319ZM2.97224 4.53244L3.51359 5.37324C3.77822 5.20285 4.0238 5.02053 4.24797 4.82519L3.59101 4.07127L2.93405 3.31734C2.79035 3.44256 2.62341 3.56769 2.43089 3.69164L2.97224 4.53244ZM3.59101 4.07127L4.24797 4.82519L4.52387 4.58477L3.86691 3.83085L3.20995 3.07692L2.93405 3.31734L3.59101 4.07127ZM3.86691 3.83085L4.52387 4.58477L4.79978 4.34435L4.14281 3.59043L3.48585 2.8365L3.20995 3.07692L3.86691 3.83085ZM4.14281 3.59043L4.79978 4.34435C5.06114 4.1166 5.2877 3.84857 5.48368 3.55045L4.64807 3.00113L3.81246 2.4518C3.70264 2.61886 3.59236 2.74369 3.48585 2.8365L4.14281 3.59043ZM4.64807 3.00113L5.48368 3.55045L5.71303 3.20157L4.87742 2.65225L4.04181 2.10292L3.81246 2.4518L4.64807 3.00113ZM4.87742 2.65225L5.71303 3.20157L5.94238 2.85269L5.10677 2.30337L4.27116 1.75404L4.04181 2.10292L4.87742 2.65225ZM5.10677 2.30337L5.94238 2.85269C5.93922 2.85749 5.90968 2.89798 5.84454 2.9319C5.77918 2.96595 5.72791 2.96738 5.71978 2.96712L5.75139 1.96762L5.783 0.968122C5.15637 0.948302 4.614 1.23252 4.27116 1.75404L5.10677 2.30337ZM5.75139 1.96762L5.71978 2.96712L6.13505 2.98026L6.16666 1.98076L6.19827 0.981257L5.783 0.968122L5.75139 1.96762ZM6.16666 1.98076L6.13505 2.98026L6.55032 2.99339L6.58193 1.99389L6.61354 0.994391L6.19827 0.981257L6.16666 1.98076ZM6.58193 1.99389L6.55032 2.99339C6.95366 3.00615 7.34995 2.9431 7.72575 2.79038L7.34927 1.86395L6.97279 0.937527C6.87917 0.975575 6.7639 0.999147 6.61354 0.994391L6.58193 1.99389ZM7.34927 1.86395L7.72575 2.79038L8.07782 2.64731L7.70134 1.72088L7.32487 0.794454L6.97279 0.937527L7.34927 1.86395ZM7.70134 1.72088L8.07782 2.64731L8.42989 2.50423L8.05341 1.57781L7.67694 0.651381L7.32487 0.794454L7.70134 1.72088ZM8.05341 1.57781L8.42989 2.50423C8.69066 2.39826 8.93752 2.28155 9.14208 2.14951L8.59977 1.30933L8.05746 0.469153C8.00297 0.50432 7.88559 0.566589 7.67694 0.651381L8.05341 1.57781ZM8.59977 1.30933L9.14208 2.14951L9.33636 2.0241L8.79405 1.18392L8.25174 0.343748L8.05746 0.469153L8.59977 1.30933ZM8.79405 1.18392L9.33636 2.0241L9.53065 1.8987L8.98833 1.05852L8.44602 0.218343L8.25174 0.343748L8.79405 1.18392ZM8.98833 1.05852L9.53065 1.8987C9.52902 1.89975 9.52153 1.90453 9.50878 1.91141C9.49645 1.91807 9.47429 1.92934 9.44356 1.94159C9.40027 1.95884 9.24894 2.01592 9.03918 1.99594C8.77484 1.97075 8.4973 1.82762 8.32598 1.55747C8.18916 1.34173 8.18262 1.1411 8.18262 1.07703H9.18262H10.1826C10.1826 0.964998 10.168 0.727609 10.015 0.486342C9.82746 0.190666 9.52563 0.0332309 9.22891 0.00495529C8.98677 -0.0181184 8.79496 0.0470985 8.7031 0.0837106C8.59775 0.1257 8.50977 0.177197 8.44602 0.218343L8.98833 1.05852ZM9.18262 1.07703H8.18262V1.22095H9.18262H10.1826V1.07703H9.18262ZM9.18262 1.22095H8.18262V1.36487H9.18262H10.1826V1.22095H9.18262ZM9.18262 1.36487H8.18262C8.18262 1.83155 8.45944 2.13124 8.59982 2.25782C8.75757 2.40008 8.93904 2.50258 9.09184 2.57709L9.53016 1.67828L9.96849 0.779459C9.88959 0.740982 9.89729 0.734749 9.93919 0.772539C9.96372 0.794657 10.1826 0.994139 10.1826 1.36487H9.18262ZM9.53016 1.67828L9.09184 2.57709L9.43939 2.74658L9.87771 1.84776L10.316 0.948946L9.96849 0.779459L9.53016 1.67828Z" fill="white"/>
</svg>
