<svg width="24" height="24" viewBox="0 0 24 24" fill="none" xmlns="http://www.w3.org/2000/svg">
<path d="M19.0516 13.6836C19.2264 13.1598 19.7924 12.8771 20.3163 13.0518C20.84 13.2265 21.1227 13.7926 20.9481 14.3164L20.9169 14.4111L20.8993 14.4629L20.7713 14.7412L20.7674 14.748C20.7749 14.7786 20.7851 14.8162 20.7987 14.8604L21.0799 15.7695C21.2279 16.2487 21.2396 16.7424 21.1122 17.2285L20.8739 18.1387C20.8173 18.3545 20.7939 18.5593 20.7997 18.7559L20.8133 19.2021L20.826 19.6475C20.8348 19.9433 20.7729 20.3937 20.4003 20.7373C20.0337 21.0752 19.587 21.1052 19.3006 21.0811L18.3905 21.0049C18.2267 20.9911 18.0573 21.0089 17.8749 21.0684L16.9647 21.3652C16.4421 21.5356 15.9056 21.5203 15.3934 21.3281L14.9383 21.1582L14.4833 20.9873C14.2297 20.8922 13.9802 20.8212 13.7342 20.7734L13.2792 20.6855L12.8241 20.5967C12.6095 20.555 12.3978 20.544 12.1874 20.5615L11.7323 20.5986L11.2782 20.6367C11.0181 20.6584 10.7565 20.6968 10.494 20.7529L9.58385 20.9482C9.11625 21.0482 8.64515 21.0293 8.18639 20.8965L7.27721 20.6328C7.25081 20.6252 7.21675 20.6141 7.12096 20.666L6.66588 20.9131L6.2108 21.1592C5.98875 21.2795 5.6759 21.4097 5.31529 21.3984C4.88924 21.3851 4.51607 21.1775 4.27525 20.8369L4.0858 20.5703L3.89733 20.3037C3.61506 19.9043 3.52531 19.4399 3.5233 19.0098L3.5194 18.0996C3.51804 17.808 3.5113 17.5163 3.49986 17.2246L3.46471 16.3145C3.45677 16.1123 3.40067 15.7503 3.26647 15.1914L3.07018 14.3711L3.05162 14.3164C2.87701 13.7926 3.1597 13.2265 3.68346 13.0518C4.2073 12.8771 4.77335 13.1598 4.94811 13.6836L4.98033 13.7783L4.994 13.8193L5.00377 13.8613L5.2108 14.7236C5.35264 15.3143 5.44684 15.831 5.46275 16.2354L5.48033 16.6904L5.49889 17.1455C5.51124 17.4604 5.51794 17.776 5.5194 18.0908L5.5233 19C5.52375 19.0975 5.5358 19.1465 5.54088 19.1631L5.58385 19.2236L5.71373 19.1543L6.16881 18.9082C6.67965 18.6314 7.25266 18.544 7.83287 18.7119L8.28795 18.8438L8.74303 18.9746C8.89087 19.0174 9.02687 19.0219 9.16588 18.9922L9.62096 18.8945L10.076 18.7979C10.4201 18.7243 10.7657 18.6724 11.1122 18.6436L11.5672 18.6055L12.0223 18.5684C12.4184 18.5354 12.814 18.5577 13.2059 18.6338L13.66 18.7217L14.1151 18.8105C14.4757 18.8806 14.8334 18.9818 15.1864 19.1143L16.0965 19.4561C16.1908 19.4914 16.2607 19.4912 16.3446 19.4639L17.2547 19.167C17.6789 19.0287 18.1166 18.9743 18.5594 19.0117L18.8065 19.0322L18.8006 18.8154C18.7889 18.4177 18.8369 18.0215 18.9393 17.6309L19.1776 16.7217C19.2092 16.6012 19.2081 16.4876 19.1688 16.3604L18.8876 15.4502C18.8301 15.2641 18.7819 15.0672 18.7616 14.874C18.7433 14.6996 18.7349 14.4196 18.8563 14.1338L18.9305 13.959L18.9364 13.9463L18.9422 13.9326L19.037 13.7256L19.0516 13.6836ZM12.621 3.2168L13.3114 3.56055C13.8735 3.84135 14.4008 4.18148 14.7323 4.61914L15.2987 5.36719C15.3729 5.46522 15.4635 5.53454 15.5897 5.58301L16.4813 5.9248C16.9578 6.10784 17.4671 6.49958 17.5692 7.1748L17.6249 7.21875C18.0561 7.56376 18.1261 8.19374 17.7811 8.625C17.7609 8.65029 17.7387 8.6735 17.7167 8.69629L17.7118 8.71094L17.6044 8.84473L17.5165 8.95508C17.4829 8.99702 17.1759 9.39695 16.618 9.35352C16.0079 9.30593 15.7809 8.7991 15.7508 8.73145C15.6483 8.50086 15.6344 8.24451 15.6288 8.14355L15.6092 7.79102L15.6053 7.73145L14.8729 7.4502C14.4049 7.27051 14.0085 6.97584 13.7049 6.5752L13.4208 6.20117L13.1376 5.82617C13.1094 5.78913 13.0294 5.71379 12.8651 5.60547C12.8262 5.94774 12.7833 6.24353 12.7313 6.48535L12.6337 6.94043L12.535 7.39551C12.4828 7.63822 12.4553 7.87869 12.4501 8.11719L12.4393 8.57227L12.4296 9.02734C12.426 9.18916 12.4552 9.36143 12.5292 9.55078L12.8846 10.4609C13.0959 11.0014 13.0927 11.5672 12.8778 12.1055L12.5145 13.0156C12.4616 13.1481 12.4567 13.2533 12.4774 13.3545L12.663 14.2646C12.7186 14.5369 12.7722 14.7086 12.8124 14.8047L12.9247 15.0742L13.038 15.3447C13.0791 15.4434 13.135 15.5858 13.1649 15.7305C13.1754 15.781 13.2141 15.9692 13.1659 16.1934C13.1388 16.3194 13.0674 16.5352 12.869 16.7227C12.6511 16.9285 12.3875 17 12.1708 17H11.7372L11.6747 16.9443C11.2823 16.8092 10.9999 16.4383 10.9999 16V15.6543L10.9667 15.5752C10.8565 15.3113 10.7723 14.9995 10.704 14.665L10.6112 14.21L10.5174 13.7549C10.4143 13.2498 10.4679 12.7483 10.6571 12.2744L11.0204 11.3643C11.0476 11.2961 11.048 11.2553 11.0223 11.1895L10.8446 10.7344L10.6659 10.2793C10.5029 9.8623 10.4208 9.42797 10.4305 8.9834L10.4501 8.07324C10.4582 7.70518 10.5017 7.33845 10.5799 6.97461L10.704 6.39648C10.6904 6.40241 10.6775 6.41038 10.6639 6.41602L9.7899 6.7793C9.61562 6.85175 9.47282 6.94751 9.35338 7.06738L9.03014 7.39258L8.7069 7.7168C8.63506 7.78894 8.59371 7.84225 8.57213 7.875C8.56636 7.88378 8.56273 7.89036 8.56041 7.89453L8.48815 8.16016L8.41197 8.44238C8.39159 8.51767 8.36361 8.60819 8.32311 8.7002C8.28874 8.77822 8.21273 8.93305 8.06725 9.07617C7.90168 9.23902 7.57451 9.44418 7.14147 9.36426C6.77888 9.29733 6.57211 9.06565 6.49693 8.97168L6.40416 8.85645L6.30162 8.72852L6.29381 8.70703C6.26787 8.68106 6.24208 8.65433 6.21861 8.625C5.8736 8.19374 5.9436 7.56376 6.37486 7.21875L6.87486 6.81836C6.996 6.62555 7.14208 6.45404 7.29088 6.30469L7.93736 5.65625C8.24878 5.34374 8.61371 5.10249 9.02233 4.93262L9.89635 4.56934C9.99617 4.52784 10.2282 4.37803 10.6005 3.99219L11.202 3.36816L11.2469 3.32227L11.2967 3.28125L11.9999 2.71973L12.621 3.2168Z" fill="#048F27"/>
</svg>
