<svg preserveAspectRatio="none" overflow="visible" style="display: block;" width="20.6508" height="10.3345" viewBox="0 0 20.6508 10.3345" fill="none" xmlns="http://www.w3.org/2000/svg">
<g id="&#235;&#130;&#152;&#235;&#173;&#135;&#236;&#158;&#142;04">
<g id="Vector 3045">
<path d="M10.9002 0.906198C4.52013 1.1262 1.64177 5.76459 1.00009 8.05628C10.6802 11.7963 17.8669 6.49793 20.2503 3.38123C19.792 2.46455 17.2803 0.686195 10.9002 0.906198Z" fill="#CFF2D8"/>
<path d="M1.18379 6.89687L0.196105 6.74038L1.18379 6.89687ZM2.17161 5.74495L2.80849 6.51591L2.17161 5.74495ZM2.68233 5.17546L1.84088 4.63512L2.68233 5.17546ZM3.08604 4.54676L3.92749 5.0871L3.08604 4.54676ZM3.5301 3.93743L2.75724 3.30286L3.5301 3.93743ZM4.01451 3.34746L4.78737 3.98203L4.01451 3.34746ZM4.53396 2.77162L3.82231 2.06909L4.53396 2.77162ZM5.08847 2.20992L5.80012 2.91245L5.08847 2.20992ZM7.29229 1.49533L6.85013 0.598392L7.29229 1.49533ZM7.63688 1.32546L7.19473 0.428523L7.63688 1.32546ZM7.98147 1.15559L8.42362 2.05253L7.98147 1.15559ZM9.10012 1.01689L9.05989 2.01608L9.10012 1.01689ZM10.9982 1.1619L10.8974 2.15681L10.9982 1.1619ZM11.7423 1.253L11.8847 0.263195L11.7423 1.253ZM13.2267 1.32965L13.4416 2.30629L13.2267 1.32965ZM13.603 1.24686L13.3882 0.270215L13.603 1.24686ZM13.9793 1.16406L13.7645 0.187419L13.9793 1.16406ZM14.7046 1.24326L15.1257 0.336258L14.7046 1.24326ZM15.4024 1.56726L14.9812 2.47426L15.4024 1.56726ZM17.0222 1.25451L16.6723 0.31773L17.0222 1.25451ZM17.7797 1.30776L17.2445 2.15248L17.7797 1.30776ZM18.1135 1.51925L17.5783 2.36398L18.1135 1.51925ZM18.4473 1.73074L18.9825 0.886012L18.4473 1.73074ZM19.0195 2.2418L18.237 2.86446L19.0195 2.2418ZM19.2579 2.54137L18.4754 3.16402L19.2579 2.54137ZM19.4963 2.84093L20.2788 2.21827L19.4963 2.84093ZM19.6065 3.28947L18.8484 2.63725L19.6065 3.28947ZM19.3501 3.58742L20.1081 4.23964L19.3501 3.58742ZM19.0435 4.07755L18.1574 3.61413L19.0435 4.07755ZM18.8651 4.41872L17.9789 3.9553L18.8651 4.41872ZM18.6867 4.75988L19.5728 5.2233L18.6867 4.75988ZM18.2375 5.36209L18.9317 6.08194L18.2375 5.36209ZM17.6961 5.88417L17.002 5.16432L17.6961 5.88417ZM17.0478 6.24759L16.7861 5.28243L17.0478 6.24759ZM16.6703 6.34995L16.9319 7.31511L16.6703 6.34995ZM16.2927 6.45232L16.5544 7.41747L16.2927 6.45232ZM15.5953 6.73035L16.0768 7.60684L15.5953 6.73035ZM14.9557 7.08166L14.4743 6.20517L14.9557 7.08166ZM14.3442 7.51543L13.6816 6.76645L14.3442 7.51543ZM13.7607 8.03163L13.0981 7.28266L13.7607 8.03163ZM13.1373 8.49681L13.667 9.34501L13.1373 8.49681ZM12.4741 8.91095L11.9445 8.06275L12.4741 8.91095ZM11.7354 9.02683L11.5168 10.0026L11.7354 9.02683ZM11.3282 8.93563L11.5468 7.95981L11.3282 8.93563ZM10.9211 8.84443L10.7025 9.82025L10.9211 8.84443ZM10.1597 8.90964L10.5637 9.82443L10.1597 8.90964ZM9.4513 9.22246L9.85524 10.1372L9.4513 9.22246ZM8.72025 9.31693L8.88243 8.33017L8.72025 9.31693ZM7.96657 9.19306L7.80438 10.1798L7.96657 9.19306ZM6.48706 9.00092L6.3698 9.99402L6.48706 9.00092ZM5.74477 8.96464L5.72579 7.96482L5.74477 8.96464ZM5.37003 8.97175L5.35105 7.97193L5.37003 8.97175ZM4.99529 8.97886L5.01427 9.97868L4.99529 8.97886ZM4.28394 8.80215L3.80463 9.67979L4.28394 8.80215ZM3.94733 8.61831L4.42664 7.74067L3.94733 8.61831ZM3.61073 8.43448L3.13141 9.31213L3.61073 8.43448ZM1.44978 8.48417L2.18244 7.80358L1.44978 8.48417ZM1.16021 8.17245L0.427547 8.85304L1.16021 8.17245ZM1.01159 8.02651L0.0787959 7.66611L1.01159 8.02651ZM1.00776 8.03644L1.94056 8.39684L1.00776 8.03644ZM1.12255 7.28334L2.11024 7.43982L2.17147 7.05335L1.18379 6.89687L0.196105 6.74038L0.134874 7.12685L1.12255 7.28334ZM1.18379 6.89687L2.17147 7.05335C2.1728 7.04494 2.17411 7.04111 2.17426 7.04068C2.17438 7.04034 2.17401 7.04138 2.17315 7.04288C2.1723 7.04435 2.1722 7.04413 2.17403 7.042C2.17594 7.03977 2.18093 7.03433 2.19076 7.02621L1.55388 6.25525L0.917 5.48428C0.528105 5.80554 0.276054 6.23577 0.196105 6.74038L1.18379 6.89687ZM1.55388 6.25525L2.19076 7.02621L2.49962 6.77106L1.86274 6.0001L1.22586 5.22914L0.917 5.48428L1.55388 6.25525ZM1.86274 6.0001L2.49962 6.77106L2.80849 6.51591L2.17161 5.74495L1.53473 4.97399L1.22586 5.22914L1.86274 6.0001ZM2.17161 5.74495L2.80849 6.51591C3.08833 6.28474 3.32944 6.01842 3.52378 5.71579L2.68233 5.17546L1.84088 4.63512C1.76607 4.75162 1.6667 4.86496 1.53473 4.97399L2.17161 5.74495ZM2.68233 5.17546L3.52378 5.71579L3.72564 5.40145L2.88419 4.86111L2.04274 4.32077L1.84088 4.63512L2.68233 5.17546ZM2.88419 4.86111L3.72564 5.40145L3.92749 5.0871L3.08604 4.54676L2.2446 4.00643L2.04274 4.32077L2.88419 4.86111ZM3.08604 4.54676L3.92749 5.0871C4.04061 4.91095 4.16564 4.73926 4.30297 4.572L3.5301 3.93743L2.75724 3.30286C2.57163 3.52892 2.40063 3.76345 2.2446 4.00643L3.08604 4.54676ZM3.5301 3.93743L4.30297 4.572L4.54517 4.27702L3.77231 3.64245L2.99944 3.00787L2.75724 3.30286L3.5301 3.93743ZM3.77231 3.64245L4.54517 4.27702L4.78737 3.98203L4.01451 3.34746L3.24164 2.71289L2.99944 3.00787L3.77231 3.64245ZM4.01451 3.34746L4.78737 3.98203C4.92884 3.80973 5.08149 3.64041 5.24562 3.47415L4.53396 2.77162L3.82231 2.06909C3.61677 2.2773 3.42311 2.49187 3.24164 2.71289L4.01451 3.34746ZM4.53396 2.77162L5.24562 3.47415L5.52287 3.1933L4.81122 2.49077L4.09957 1.78824L3.82231 2.06909L4.53396 2.77162ZM4.81122 2.49077L5.52287 3.1933L5.80012 2.91245L5.08847 2.20992L4.37682 1.50739L4.09957 1.78824L4.81122 2.49077ZM5.08847 2.20992L5.80012 2.91245C5.8345 2.87763 5.86622 2.8594 5.92574 2.84947L5.76122 1.8631L5.59669 0.876727C5.12888 0.954756 4.71211 1.16774 4.37682 1.50739L5.08847 2.20992ZM5.76122 1.8631L5.92574 2.84947L6.32123 2.78351L6.15671 1.79713L5.99218 0.810761L5.59669 0.876727L5.76122 1.8631ZM6.15671 1.79713L6.32123 2.78351L6.71672 2.71754L6.5522 1.73117L6.38768 0.744795L5.99218 0.810761L6.15671 1.79713ZM6.5522 1.73117L6.71672 2.71754C7.07257 2.65819 7.41327 2.55059 7.73444 2.39227L7.29229 1.49533L6.85013 0.598392C6.71185 0.666562 6.55915 0.716193 6.38768 0.744795L6.5522 1.73117ZM7.29229 1.49533L7.73444 2.39227L8.07903 2.2224L7.63688 1.32546L7.19473 0.428523L6.85013 0.598392L7.29229 1.49533ZM7.63688 1.32546L8.07903 2.2224L8.42362 2.05253L7.98147 1.15559L7.53932 0.258654L7.19473 0.428523L7.63688 1.32546ZM7.98147 1.15559L8.42362 2.05253C8.50233 2.01373 8.58022 1.99677 8.67286 2.0005L8.71309 1.00131L8.75332 0.00211811C8.32993 -0.0149298 7.92007 0.0709621 7.53932 0.258654L7.98147 1.15559ZM8.71309 1.00131L8.67286 2.0005L9.05989 2.01608L9.10012 1.01689L9.14035 0.0177016L8.75332 0.00211811L8.71309 1.00131ZM9.10012 1.01689L9.05989 2.01608L9.44691 2.03167L9.48714 1.03248L9.52738 0.0332851L9.14035 0.0177016L9.10012 1.01689ZM9.48714 1.03248L9.44691 2.03167C9.68528 2.04126 9.91899 2.05771 10.1481 2.08092L10.2489 1.08601L10.3496 0.0910971C10.0791 0.0637025 9.80504 0.0444651 9.52738 0.0332851L9.48714 1.03248ZM10.2489 1.08601L10.1481 2.08092L10.5228 2.11887L10.6235 1.12396L10.7243 0.129045L10.3496 0.0910971L10.2489 1.08601ZM10.6235 1.12396L10.5228 2.11887L10.8974 2.15681L10.9982 1.1619L11.099 0.166994L10.7243 0.129045L10.6235 1.12396ZM10.9982 1.1619L10.8974 2.15681C11.1334 2.18072 11.3676 2.20939 11.5999 2.24281L11.7423 1.253L11.8847 0.263195C11.6245 0.225752 11.3626 0.193689 11.099 0.166994L10.9982 1.1619ZM11.7423 1.253L11.5999 2.24281L11.9692 2.29596L12.1117 1.30615L12.2541 0.316344L11.8847 0.263195L11.7423 1.253ZM12.1117 1.30615L11.9692 2.29596L12.3386 2.3491L12.481 1.3593L12.6235 0.369492L12.2541 0.316344L12.1117 1.30615ZM12.481 1.3593L12.3386 2.3491C12.7077 2.40221 13.0773 2.38645 13.4416 2.30629L13.2267 1.32965L13.0118 0.353011C12.8744 0.383244 12.7469 0.387257 12.6235 0.369492L12.481 1.3593ZM13.2267 1.32965L13.4416 2.30629L13.8179 2.2235L13.603 1.24686L13.3882 0.270215L13.0118 0.353011L13.2267 1.32965ZM13.603 1.24686L13.8179 2.2235L14.1942 2.1407L13.9793 1.16406L13.7645 0.187419L13.3882 0.270215L13.603 1.24686ZM13.9793 1.16406L14.1942 2.1407C14.2316 2.13248 14.2498 2.13467 14.2834 2.15026L14.7046 1.24326L15.1257 0.336258C14.6941 0.135858 14.2289 0.0852416 13.7645 0.187419L13.9793 1.16406ZM14.7046 1.24326L14.2834 2.15026L14.6323 2.31226L15.0535 1.40526L15.4746 0.498255L15.1257 0.336258L14.7046 1.24326ZM15.0535 1.40526L14.6323 2.31226L14.9812 2.47426L15.4024 1.56726L15.8235 0.660253L15.4746 0.498255L15.0535 1.40526ZM15.4024 1.56726L14.9812 2.47426C15.499 2.71464 16.0393 2.68916 16.5248 2.50779L16.1749 1.57101L15.825 0.634225C15.7782 0.651698 15.7637 0.64915 15.7748 0.649204C15.7801 0.64923 15.7887 0.649885 15.7991 0.652193C15.8094 0.654503 15.8179 0.657641 15.8235 0.660253L15.4024 1.56726ZM16.1749 1.57101L16.5248 2.50779L16.9485 2.34954L16.5986 1.41276L16.2487 0.475977L15.825 0.634225L16.1749 1.57101ZM16.5986 1.41276L16.9485 2.34954L17.3722 2.19129L17.0222 1.25451L16.6723 0.31773L16.2487 0.475977L16.5986 1.41276ZM17.0222 1.25451L17.3722 2.19129C17.4046 2.17918 17.3945 2.18913 17.3533 2.18624C17.3333 2.18483 17.3116 2.1807 17.2902 2.17356C17.2691 2.16649 17.2536 2.15826 17.2445 2.15248L17.7797 1.30776L18.3149 0.463026C17.7873 0.12878 17.1997 0.120726 16.6723 0.31773L17.0222 1.25451ZM17.7797 1.30776L17.2445 2.15248L17.5783 2.36398L18.1135 1.51925L18.6487 0.674519L18.3149 0.463026L17.7797 1.30776ZM18.1135 1.51925L17.5783 2.36398L17.9121 2.57547L18.4473 1.73074L18.9825 0.886012L18.6487 0.674519L18.1135 1.51925ZM18.4473 1.73074L17.9121 2.57547C18.0435 2.6587 18.1498 2.75485 18.237 2.86446L19.0195 2.2418L19.802 1.61914C19.5714 1.32933 19.2962 1.08477 18.9825 0.886012L18.4473 1.73074ZM19.0195 2.2418L18.237 2.86446L18.4754 3.16402L19.2579 2.54137L20.0404 1.91871L19.802 1.61914L19.0195 2.2418ZM19.2579 2.54137L18.4754 3.16402L18.7138 3.46359L19.4963 2.84093L20.2788 2.21827L20.0404 1.91871L19.2579 2.54137ZM19.4963 2.84093L18.7138 3.46359C18.7551 3.51548 18.7034 3.46968 18.6719 3.34143C18.6537 3.26737 18.6391 3.15216 18.6663 3.01342C18.6946 2.86856 18.7607 2.73924 18.8484 2.63725L19.6065 3.28947L20.3645 3.94169C20.6569 3.60178 20.6942 3.19017 20.6141 2.86427C20.5459 2.58651 20.3964 2.36609 20.2788 2.21827L19.4963 2.84093ZM19.6065 3.28947L18.8484 2.63725L18.7202 2.78622L19.4783 3.43844L20.2363 4.09067L20.3645 3.94169L19.6065 3.28947ZM19.4783 3.43844L18.7202 2.78622L18.5921 2.9352L19.3501 3.58742L20.1081 4.23964L20.2363 4.09067L19.4783 3.43844ZM19.3501 3.58742L18.5921 2.9352C18.4296 3.12406 18.2848 3.37047 18.1574 3.61413L19.0435 4.07755L19.9296 4.54098C19.9808 4.44309 20.0233 4.36888 20.0572 4.31476C20.0927 4.25796 20.1098 4.23773 20.1081 4.23964L19.3501 3.58742ZM19.0435 4.07755L18.1574 3.61413L17.9789 3.9553L18.8651 4.41872L19.7512 4.88214L19.9296 4.54098L19.0435 4.07755ZM18.8651 4.41872L17.9789 3.9553L17.8005 4.29646L18.6867 4.75988L19.5728 5.2233L19.7512 4.88214L18.8651 4.41872ZM18.6867 4.75988L17.8005 4.29646C17.7302 4.43095 17.6447 4.54458 17.5434 4.64224L18.2375 5.36209L18.9317 6.08194C19.1913 5.83153 19.4052 5.54369 19.5728 5.2233L18.6867 4.75988ZM18.2375 5.36209L17.5434 4.64224L17.2727 4.90328L17.9668 5.62313L18.6609 6.34298L18.9317 6.08194L18.2375 5.36209ZM17.9668 5.62313L17.2727 4.90328L17.002 5.16432L17.6961 5.88417L18.3902 6.60403L18.6609 6.34298L17.9668 5.62313ZM17.6961 5.88417L17.002 5.16432C16.9476 5.2167 16.8821 5.25641 16.7861 5.28243L17.0478 6.24759L17.3095 7.21274C17.7169 7.10227 18.0836 6.89971 18.3902 6.60403L17.6961 5.88417ZM17.0478 6.24759L16.7861 5.28243L16.4086 5.3848L16.6703 6.34995L16.9319 7.31511L17.3095 7.21274L17.0478 6.24759ZM16.6703 6.34995L16.4086 5.3848L16.031 5.48717L16.2927 6.45232L16.5544 7.41747L16.9319 7.31511L16.6703 6.34995ZM16.2927 6.45232L16.031 5.48717C15.7083 5.57467 15.4014 5.69596 15.1139 5.85386L15.5953 6.73035L16.0768 7.60684C16.2157 7.53053 16.3737 7.46646 16.5544 7.41747L16.2927 6.45232ZM15.5953 6.73035L15.1139 5.85386L14.7941 6.02952L15.2755 6.90601L15.757 7.7825L16.0768 7.60684L15.5953 6.73035ZM15.2755 6.90601L14.7941 6.02952L14.4743 6.20517L14.9557 7.08166L15.4371 7.95815L15.757 7.7825L15.2755 6.90601ZM14.9557 7.08166L14.4743 6.20517C14.192 6.36026 13.9278 6.54859 13.6816 6.76645L14.3442 7.51543L15.0068 8.2644C15.1495 8.13812 15.2931 8.03728 15.4371 7.95815L14.9557 7.08166ZM14.3442 7.51543L13.6816 6.76645L13.3898 7.02456L14.0524 7.77353L14.715 8.5225L15.0068 8.2644L14.3442 7.51543ZM14.0524 7.77353L13.3898 7.02456L13.0981 7.28266L13.7607 8.03163L14.4233 8.7806L14.715 8.5225L14.0524 7.77353ZM13.7607 8.03163L13.0981 7.28266C12.9452 7.41789 12.7819 7.53979 12.6077 7.64861L13.1373 8.49681L13.667 9.34501C13.9349 9.17773 14.1871 8.98951 14.4233 8.7806L13.7607 8.03163ZM13.1373 8.49681L12.6077 7.64861L12.2761 7.85568L12.8057 8.70388L13.3354 9.55208L13.667 9.34501L13.1373 8.49681ZM12.8057 8.70388L12.2761 7.85568L11.9445 8.06275L12.4741 8.91095L13.0038 9.75915L13.3354 9.55208L12.8057 8.70388ZM12.4741 8.91095L11.9445 8.06275C11.9425 8.064 11.9444 8.06257 11.95 8.06046C11.9557 8.05831 11.9623 8.05655 11.9687 8.05554C11.975 8.05454 11.9782 8.05475 11.977 8.0547C11.9756 8.05464 11.9682 8.0542 11.954 8.05101L11.7354 9.02683L11.5168 10.0026C12.0257 10.1166 12.5437 10.0465 13.0038 9.75915L12.4741 8.91095ZM11.7354 9.02683L11.954 8.05101L11.5468 7.95981L11.3282 8.93563L11.1097 9.91145L11.5168 10.0026L11.7354 9.02683ZM11.3282 8.93563L11.5468 7.95981L11.1396 7.86861L10.9211 8.84443L10.7025 9.82025L11.1097 9.91145L11.3282 8.93563ZM10.9211 8.84443L11.1396 7.86861C10.6767 7.76491 10.203 7.79736 9.75576 7.99486L10.1597 8.90964L10.5637 9.82443C10.5887 9.81339 10.6226 9.80236 10.7025 9.82025L10.9211 8.84443ZM10.1597 8.90964L9.75576 7.99486L9.40156 8.15127L9.8055 9.06605L10.2095 9.98084L10.5637 9.82443L10.1597 8.90964ZM9.8055 9.06605L9.40156 8.15127L9.04735 8.30768L9.4513 9.22246L9.85524 10.1372L10.2095 9.98084L9.8055 9.06605ZM9.4513 9.22246L9.04735 8.30768C8.9863 8.33464 8.93915 8.3395 8.88243 8.33017L8.72025 9.31693L8.55806 10.3037C9.0038 10.377 9.44401 10.3188 9.85524 10.1372L9.4513 9.22246ZM8.72025 9.31693L8.88243 8.33017L8.50559 8.26824L8.34341 9.255L8.18122 10.2418L8.55806 10.3037L8.72025 9.31693ZM8.34341 9.255L8.50559 8.26824L8.12875 8.2063L7.96657 9.19306L7.80438 10.1798L8.18122 10.2418L8.34341 9.255ZM7.96657 9.19306L8.12875 8.2063C7.86307 8.16263 7.59996 8.12538 7.33943 8.09462L7.22217 9.08772L7.10491 10.0808C7.33446 10.1079 7.5676 10.1409 7.80438 10.1798L7.96657 9.19306ZM7.22217 9.08772L7.33943 8.09462L6.97188 8.05122L6.85462 9.04432L6.73736 10.0374L7.10491 10.0808L7.22217 9.08772ZM6.85462 9.04432L6.97188 8.05122L6.60433 8.00782L6.48706 9.00092L6.3698 9.99402L6.73736 10.0374L6.85462 9.04432ZM6.48706 9.00092L6.60433 8.00782C6.31351 7.97348 6.02055 7.95922 5.72579 7.96482L5.74477 8.96464L5.76375 9.96446C5.96864 9.96057 6.17055 9.9705 6.3698 9.99402L6.48706 9.00092ZM5.74477 8.96464L5.72579 7.96482L5.35105 7.97193L5.37003 8.97175L5.38901 9.97157L5.76375 9.96446L5.74477 8.96464ZM5.37003 8.97175L5.35105 7.97193L4.97631 7.97905L4.99529 8.97886L5.01427 9.97868L5.38901 9.97157L5.37003 8.97175ZM4.99529 8.97886L4.97631 7.97905C4.90456 7.98041 4.83873 7.96572 4.76325 7.9245L4.28394 8.80215L3.80463 9.67979C4.17796 9.88368 4.58636 9.98681 5.01427 9.97868L4.99529 8.97886ZM4.28394 8.80215L4.76325 7.9245L4.42664 7.74067L3.94733 8.61831L3.46802 9.49596L3.80463 9.67979L4.28394 8.80215ZM3.94733 8.61831L4.42664 7.74067L4.09004 7.55684L3.61073 8.43448L3.13141 9.31213L3.46802 9.49596L3.94733 8.61831ZM3.61073 8.43448L4.09004 7.55684C3.62339 7.30198 3.11549 7.2609 2.62838 7.37383L2.85423 8.348L3.08008 9.32216C3.10201 9.31707 3.1173 9.31524 3.1266 9.31461C3.13126 9.31429 3.13456 9.31427 3.13661 9.31431C3.13865 9.31435 3.13964 9.31447 3.13971 9.31447C3.13978 9.31448 3.13921 9.31442 3.13813 9.31419C3.13705 9.31396 3.13579 9.31363 3.13447 9.31321C3.13153 9.31228 3.13033 9.31154 3.13141 9.31213L3.61073 8.43448ZM2.85423 8.348L2.62838 7.37383L2.20849 7.47118L2.43434 8.44534L2.66019 9.41951L3.08008 9.32216L2.85423 8.348ZM2.43434 8.44534L2.20849 7.47118L1.7886 7.56853L2.01445 8.54269L2.2403 9.51685L2.66019 9.41951L2.43434 8.44534ZM2.01445 8.54269L1.7886 7.56853C1.70647 7.58757 1.70904 7.57612 1.76641 7.58206C1.83169 7.58882 2.01744 7.62596 2.18244 7.80358L1.44978 8.48417L0.717115 9.16477C0.978636 9.4463 1.30676 9.54514 1.56026 9.57141C1.80586 9.59686 2.04251 9.56271 2.2403 9.51685L2.01445 8.54269ZM1.44978 8.48417L2.18244 7.80358L2.03766 7.64772L1.30499 8.32831L0.572331 9.00891L0.717115 9.16477L1.44978 8.48417ZM1.30499 8.32831L2.03766 7.64772L1.89287 7.49186L1.16021 8.17245L0.427547 8.85304L0.572331 9.00891L1.30499 8.32831ZM1.16021 8.17245L1.89287 7.49186C1.84256 7.4377 1.79321 7.38567 1.75131 7.34453C1.73482 7.32833 1.69665 7.29108 1.65026 7.25365C1.63798 7.24375 1.56665 7.1849 1.46447 7.13345C1.43003 7.11611 1.27047 7.03429 1.04739 7.02653C0.920573 7.02211 0.720606 7.03996 0.513181 7.15933C0.291 7.2872 0.150939 7.47939 0.0787959 7.66611L1.01159 8.02651L1.94439 8.38691C1.87241 8.57322 1.7326 8.76511 1.51076 8.89278C1.30368 9.01195 1.10415 9.02971 0.977859 9.02532C0.755833 9.01759 0.597689 8.93624 0.56504 8.9198C0.466434 8.87015 0.400148 8.81483 0.394384 8.81018C0.361017 8.78326 0.341744 8.76342 0.350015 8.77154C0.357658 8.77905 0.381338 8.8033 0.427547 8.85304L1.16021 8.17245ZM1.01159 8.02651L0.0787959 7.66611L0.0749625 7.67604L1.00776 8.03644L1.94056 8.39684L1.94439 8.38691L1.01159 8.02651ZM1.00776 8.03644L0.0749625 7.67604L0.0711291 7.68596L1.00393 8.04636L1.93673 8.40676L1.94056 8.39684L1.00776 8.03644ZM1.00393 8.04636L0.0711291 7.68596C0.0729957 7.68113 0.114345 7.56499 0.205959 7.44373C0.231425 7.41003 0.402346 7.17434 0.740044 7.08201C0.947757 7.02522 1.18629 7.03294 1.41148 7.13349C1.61761 7.22553 1.74383 7.36437 1.81141 7.45694C1.9328 7.62322 1.96925 7.78347 1.9778 7.82031C1.99208 7.8818 1.9974 7.93156 1.99964 7.95631C2.00427 8.00742 2.0038 8.04752 2.00358 8.06174C2.00305 8.09519 2.00089 8.12105 2.00034 8.12765C1.99946 8.13822 1.9986 8.14642 1.99815 8.15051C1.99673 8.16359 1.99557 8.17127 1.9965 8.16462C1.99764 8.15644 2.00026 8.13859 2.00494 8.10787C2.01404 8.04815 2.02865 7.95475 2.04901 7.82629L1.06132 7.66981L0.0736438 7.51332C0.0531754 7.64252 0.0378076 7.7407 0.0277786 7.80649C0.0228957 7.83853 0.0186593 7.86692 0.015656 7.88846C0.0145106 7.89668 0.0119557 7.91509 0.00982028 7.93478C0.0091967 7.94052 0.0081979 7.95011 0.00722355 7.96182C0.00658029 7.96955 0.00436008 7.99629 0.00382531 8.03035C0.0035972 8.04489 0.00313818 8.08524 0.00777906 8.13653C0.0100265 8.16137 0.0153575 8.2112 0.0296494 8.27274C0.0382191 8.30964 0.0746798 8.46994 0.196093 8.63624C0.263681 8.72882 0.38991 8.86767 0.596057 8.95972C0.821255 9.06027 1.0598 9.06799 1.26752 9.0112C1.60524 8.91886 1.77619 8.68315 1.80169 8.64941C1.89336 8.52808 1.93478 8.41179 1.93673 8.40676L1.00393 8.04636ZM1.06132 7.66981L2.04901 7.82629L2.11024 7.43982L1.12255 7.28334L0.134874 7.12685L0.0736438 7.51332L1.06132 7.66981Z" fill="black"/>
</g>
<path id="Vector 3046" d="M0.592461 7.18205C0.0881828 7.40726 -0.138043 7.99864 0.0871715 8.50291C0.312386 9.00719 0.903757 9.23342 1.40804 9.0082L1.00025 8.09513L0.592461 7.18205ZM1.09156 8.05435L0.757887 7.11166L0.720236 7.12498L0.683769 7.14127L1.09156 8.05435ZM3.14316 7.37546L2.86573 6.41472L3.14316 7.37546ZM4.19348 6.98051L3.69767 6.11208L4.19348 6.98051ZM4.5183 6.79506L4.02249 5.92663L4.5183 6.79506ZM4.84312 6.60961L5.33893 7.47804L4.84312 6.60961ZM5.47018 6.17507L4.8342 5.40337L5.47018 6.17507ZM6.07468 5.67688L5.43869 4.90518L6.07468 5.67688ZM7.39915 4.93715L7.83186 5.83868L7.39915 4.93715ZM8.07951 4.59289L7.60975 3.71009L8.07951 4.59289ZM8.75872 4.23146L9.22848 5.11426L8.75872 4.23146ZM9.52643 4.19261L9.2119 5.14185L9.52643 4.19261ZM11.1442 4.39262L10.5838 3.56434L11.1442 4.39262ZM11.4776 4.16707L12.0379 4.99535L11.4776 4.16707ZM11.811 3.94153L11.2507 3.11324L11.811 3.94153ZM12.5219 3.68864L12.4497 2.69125L12.5219 3.68864ZM13.277 3.63397L13.2047 2.63658L13.277 3.63397ZM13.9475 3.5339L13.7067 2.56334L13.9475 3.5339ZM14.8076 3.42938L15.7938 3.59482L14.8076 3.42938ZM14.7885 3.54303L15.664 4.0263L15.7465 3.87684L15.7747 3.70847L14.7885 3.54303ZM14.6523 3.7898L13.7768 3.30654L12.7376 5.18927L14.847 4.77067L14.6523 3.7898ZM14.945 4.75121C15.4868 4.64371 15.8388 4.11741 15.7313 3.57569C15.6238 3.03397 15.0975 2.68196 14.5557 2.78946L14.7504 3.77034L14.945 4.75121ZM1.00025 8.09513L1.40804 9.0082L1.49934 8.96742L1.09156 8.05435L0.683769 7.14127L0.592461 7.18205L1.00025 8.09513ZM1.09156 8.05435L1.42523 8.99704L2.08828 8.76235L1.75461 7.81966L1.42094 6.87697L0.757887 7.11166L1.09156 8.05435ZM1.75461 7.81966L2.08828 8.76235C2.52463 8.6079 2.84462 8.50253 3.05785 8.44096L2.78041 7.48022L2.50298 6.51947C2.23253 6.59757 1.86865 6.7185 1.42094 6.87697L1.75461 7.81966ZM2.78041 7.48022L3.05785 8.44096L3.42059 8.33621L3.14316 7.37546L2.86573 6.41472L2.50298 6.51947L2.78041 7.48022ZM3.14316 7.37546L3.42059 8.33621L3.78334 8.23146L3.50591 7.27071L3.22847 6.30997L2.86573 6.41472L3.14316 7.37546ZM3.50591 7.27071L3.78334 8.23146C4.10065 8.13983 4.40322 8.01227 4.68929 7.84894L4.19348 6.98051L3.69767 6.11208C3.55065 6.19602 3.39484 6.26193 3.22847 6.30997L3.50591 7.27071ZM4.19348 6.98051L4.68929 7.84894L5.01411 7.66349L4.5183 6.79506L4.02249 5.92663L3.69767 6.11208L4.19348 6.98051ZM4.5183 6.79506L5.01411 7.66349L5.33893 7.47804L4.84312 6.60961L4.34731 5.74118L4.02249 5.92663L4.5183 6.79506ZM4.84312 6.60961L5.33893 7.47804C5.60713 7.32492 5.86284 7.14731 6.10617 6.94677L5.47018 6.17507L4.8342 5.40337C4.67453 5.53496 4.5122 5.64704 4.34731 5.74118L4.84312 6.60961ZM5.47018 6.17507L6.10617 6.94677L6.40842 6.69767L5.77243 5.92598L5.13644 5.15428L4.8342 5.40337L5.47018 6.17507ZM5.77243 5.92598L6.40842 6.69767L6.71067 6.44858L6.07468 5.67688L5.43869 4.90518L5.13644 5.15428L5.77243 5.92598ZM6.07468 5.67688L6.71067 6.44858C6.85215 6.33197 6.99856 6.23864 7.15038 6.16577L6.71767 5.26424L6.28496 4.36271C5.98245 4.5079 5.7002 4.68966 5.43869 4.90518L6.07468 5.67688ZM6.71767 5.26424L7.15038 6.16577L7.49112 6.00223L7.05841 5.10069L6.6257 4.19916L6.28496 4.36271L6.71767 5.26424ZM7.05841 5.10069L7.49112 6.00223L7.83186 5.83868L7.39915 4.93715L6.96644 4.03561L6.6257 4.19916L7.05841 5.10069ZM7.39915 4.93715L7.83186 5.83868C8.07172 5.72356 8.31085 5.60255 8.54926 5.47569L8.07951 4.59289L7.60975 3.71009C7.39535 3.82418 7.18091 3.93268 6.96644 4.03561L7.39915 4.93715ZM8.07951 4.59289L8.54926 5.47569L8.88887 5.29497L8.41911 4.41218L7.94936 3.52938L7.60975 3.71009L8.07951 4.59289ZM8.41911 4.41218L8.88887 5.29497L9.22848 5.11426L8.75872 4.23146L8.28897 3.34867L7.94936 3.52938L8.41911 4.41218ZM8.75872 4.23146L9.22848 5.11426C9.22215 5.11763 9.21261 5.12177 9.20069 5.12507C9.18876 5.12837 9.17835 5.12974 9.17101 5.13011C9.1558 5.13088 9.16676 5.12689 9.2119 5.14185L9.52643 4.19261L9.84097 3.24336C9.34463 3.0789 8.79846 3.07755 8.28897 3.34867L8.75872 4.23146ZM9.52643 4.19261L9.2119 5.14185L9.64 5.2837L9.95454 4.33446L10.2691 3.38521L9.84097 3.24336L9.52643 4.19261ZM9.95454 4.33446L9.64 5.2837L10.0681 5.42556L10.3826 4.47631L10.6972 3.52707L10.2691 3.38521L9.95454 4.33446ZM10.3826 4.47631L10.0681 5.42556C10.6076 5.60431 11.1917 5.56775 11.7045 5.2209L11.1442 4.39262L10.5838 3.56434C10.59 3.56016 10.6025 3.55281 10.6209 3.54592C10.6395 3.53895 10.6591 3.53436 10.6778 3.5323C10.7169 3.52801 10.7274 3.53709 10.6972 3.52707L10.3826 4.47631ZM11.1442 4.39262L11.7045 5.2209L12.0379 4.99535L11.4776 4.16707L10.9173 3.33879L10.5838 3.56434L11.1442 4.39262ZM11.4776 4.16707L12.0379 4.99535L12.3713 4.76981L11.811 3.94153L11.2507 3.11324L10.9173 3.33879L11.4776 4.16707ZM11.811 3.94153L12.3713 4.76981C12.4581 4.71112 12.5283 4.6908 12.5941 4.68603L12.5219 3.68864L12.4497 2.69125C12.0122 2.72294 11.6085 2.8712 11.2507 3.11324L11.811 3.94153ZM12.5219 3.68864L12.5941 4.68603L12.9717 4.65869L12.8994 3.6613L12.8272 2.66391L12.4497 2.69125L12.5219 3.68864ZM12.8994 3.6613L12.9717 4.65869L13.3492 4.63135L13.277 3.63397L13.2047 2.63658L12.8272 2.66391L12.8994 3.6613ZM13.277 3.63397L13.3492 4.63135C13.6441 4.60999 13.9258 4.56961 14.1884 4.50446L13.9475 3.5339L13.7067 2.56334C13.5785 2.59516 13.4131 2.62149 13.2047 2.63658L13.277 3.63397ZM13.9475 3.5339L14.1884 4.50446L14.4814 4.43174L14.2406 3.46118L13.9997 2.49062L13.7067 2.56334L13.9475 3.5339ZM14.2406 3.46118L14.4814 4.43174L14.7745 4.35901L14.5336 3.38845L14.2927 2.41789L13.9997 2.49062L14.2406 3.46118ZM14.5336 3.38845L14.7745 4.35901C14.8598 4.33783 14.7651 4.37588 14.6009 4.35135C14.5127 4.33817 14.2586 4.28565 14.0466 4.04453C13.8029 3.76733 13.7904 3.44844 13.8214 3.26394L14.8076 3.42938L15.7938 3.59482C15.8311 3.37244 15.812 3.02343 15.5486 2.72388C15.3169 2.46041 15.0302 2.3933 14.8964 2.3733C14.6408 2.33513 14.4028 2.39059 14.2927 2.41789L14.5336 3.38845ZM14.8076 3.42938L13.8214 3.26394L13.8023 3.3776L14.7885 3.54303L15.7747 3.70847L15.7938 3.59482L14.8076 3.42938ZM14.7885 3.54303L13.913 3.05977L13.7768 3.30654L14.6523 3.7898L15.5278 4.27307L15.664 4.0263L14.7885 3.54303ZM14.6523 3.7898L14.847 4.77067L14.945 4.75121L14.7504 3.77034L14.5557 2.78946L14.4577 2.80893L14.6523 3.7898Z" fill="black"/>
<path id="Vector 3048" d="M6.74264 4.86736C6.20685 4.73341 5.66391 5.05917 5.52996 5.59497C5.39601 6.13076 5.72177 6.6737 6.25757 6.80765L6.5001 5.8375L6.74264 4.86736ZM6.59712 5.86176L7.06182 4.97629L6.9558 4.92065L6.83965 4.89161L6.59712 5.86176ZM8.75423 6.58231L8.65386 7.57726L8.75423 6.58231ZM9.17566 6.73713L9.95613 6.11193L9.17566 6.73713ZM9.27353 6.85931L8.49307 7.48451L9.27353 6.85931ZM9.55199 6.99338L8.75199 6.39338L9.55199 6.99338ZM9.63471 6.88309L10.4347 7.48309L10.5473 7.33296L10.5978 7.15223L9.63471 6.88309ZM9.70312 6.63826L9.94566 5.66812L9.00185 5.43217L8.74002 6.36912L9.70312 6.63826ZM9.5576 7.63266C10.0934 7.7666 10.6363 7.44084 10.7703 6.90505C10.9042 6.36925 10.5785 5.82632 10.0427 5.69237L9.80014 6.66251L9.5576 7.63266ZM6.5001 5.8375L6.25757 6.80765L6.35458 6.8319L6.59712 5.86176L6.83965 4.89161L6.74264 4.86736L6.5001 5.8375ZM6.59712 5.86176L6.13242 6.74723L6.72563 7.05854L7.19033 6.17308L7.65502 5.28761L7.06182 4.97629L6.59712 5.86176ZM7.19033 6.17308L6.72563 7.05854C7.13995 7.27598 7.58886 7.46983 8.00673 7.51198L8.1071 6.51703L8.20747 5.52208C8.21694 5.52304 8.17575 5.5191 8.0674 5.47845C7.9646 5.43988 7.82839 5.37859 7.65502 5.28761L7.19033 6.17308ZM8.1071 6.51703L8.00673 7.51198L8.3303 7.54462L8.43066 6.54967L8.53103 5.55472L8.20747 5.52208L8.1071 6.51703ZM8.43066 6.54967L8.3303 7.54462L8.65386 7.57726L8.75423 6.58231L8.8546 5.58736L8.53103 5.55472L8.43066 6.54967ZM8.75423 6.58231L8.65386 7.57726C8.71199 7.58313 8.71164 7.5889 8.67654 7.57601C8.64592 7.56475 8.51561 7.51265 8.3952 7.36233L9.17566 6.73713L9.95613 6.11193C9.77046 5.88016 9.5373 5.76153 9.3662 5.69867C9.19062 5.63417 9.01217 5.60326 8.8546 5.58736L8.75423 6.58231ZM9.17566 6.73713L8.3952 7.36233L8.49307 7.48451L9.27353 6.85931L10.054 6.23411L9.95613 6.11193L9.17566 6.73713ZM9.27353 6.85931L8.49307 7.48451L8.59094 7.60668L9.3714 6.98149L10.1519 6.35629L10.054 6.23411L9.27353 6.85931ZM9.3714 6.98149L8.59094 7.60668C8.67827 7.7157 8.94234 8.01327 9.39979 8.04339C9.91868 8.07755 10.2338 7.75102 10.352 7.59338L9.55199 6.99338L8.75199 6.39338C8.81508 6.30926 9.07249 6.01751 9.53118 6.04771C9.92843 6.07386 10.1298 6.32872 10.1519 6.35629L9.3714 6.98149ZM9.55199 6.99338L10.352 7.59338L10.4347 7.48309L9.63471 6.88309L8.83471 6.28309L8.75199 6.39338L9.55199 6.99338ZM9.63471 6.88309L10.5978 7.15223L10.6662 6.9074L9.70312 6.63826L8.74002 6.36912L8.67161 6.61395L9.63471 6.88309ZM9.70312 6.63826L9.46059 7.6084L9.5576 7.63266L9.80014 6.66251L10.0427 5.69237L9.94566 5.66812L9.70312 6.63826Z" fill="black"/>
<path id="Vector 3049" d="M7.37367 4.34796C7.02572 4.77685 7.09133 5.40661 7.52022 5.75456C7.94911 6.10251 8.57886 6.0369 8.92682 5.60801L8.15024 4.97799L7.37367 4.34796ZM8.21325 4.90033L8.98982 5.53035L9.14825 5.33507L9.19546 5.08808L8.21325 4.90033ZM9.1974 3.23795L8.82005 2.31188L9.1974 3.23795ZM9.55874 3.09072L9.93609 4.01679L9.55874 3.09072ZM10.0536 2.86706L10.5503 3.73502L10.0536 2.86706ZM10.3208 2.71421L9.82417 1.84624L10.3208 2.71421ZM10.4141 2.56243L11.2961 2.0912L10.4141 2.56243ZM10.3739 2.48709L11.2559 2.01585L11.1077 1.73849L10.8274 1.59586L10.3739 2.48709ZM10.2303 2.41405L9.45376 1.78402L8.67464 2.74438L9.77678 3.30527L10.2303 2.41405ZM11.0699 2.96642C11.4179 2.53753 11.3523 1.90777 10.9234 1.55982C10.4945 1.21186 9.86472 1.27747 9.51676 1.70636L10.2933 2.33639L11.0699 2.96642ZM8.15024 4.97799L8.92682 5.60801L8.98982 5.53035L8.21325 4.90033L7.43667 4.2703L7.37367 4.34796L8.15024 4.97799ZM8.21325 4.90033L9.19546 5.08808L9.3262 4.40413L8.34399 4.21637L7.36177 4.02862L7.23103 4.71257L8.21325 4.90033ZM8.34399 4.21637L9.3262 4.40413C9.34082 4.32765 9.35628 4.27147 9.36977 4.23211C9.37641 4.21274 9.38213 4.19871 9.38639 4.18926C9.39064 4.1798 9.39305 4.17576 9.39289 4.17604C9.39271 4.17633 9.38028 4.19733 9.34951 4.22584C9.31721 4.25577 9.27143 4.28762 9.21342 4.31126L8.83607 3.38519L8.45872 2.45911C7.72143 2.75954 7.4634 3.49699 7.36177 4.02862L8.34399 4.21637ZM8.83607 3.38519L9.21342 4.31126L9.57475 4.16402L9.1974 3.23795L8.82005 2.31188L8.45872 2.45911L8.83607 3.38519ZM9.1974 3.23795L9.57475 4.16402L9.93609 4.01679L9.55874 3.09072L9.18139 2.16464L8.82005 2.31188L9.1974 3.23795ZM9.55874 3.09072L9.93609 4.01679C10.1745 3.91964 10.3966 3.82295 10.5503 3.73502L10.0536 2.86706L9.55703 1.99909C9.55754 1.99879 9.54953 2.00334 9.52967 2.01315C9.51057 2.02259 9.4848 2.03478 9.45131 2.04992C9.38395 2.08036 9.29478 2.11844 9.18139 2.16464L9.55874 3.09072ZM10.0536 2.86706L10.5503 3.73502L10.6838 3.6586L10.1872 2.79063L9.6906 1.92266L9.55703 1.99909L10.0536 2.86706ZM10.1872 2.79063L10.6838 3.6586L10.8174 3.58217L10.3208 2.71421L9.82417 1.84624L9.6906 1.92266L10.1872 2.79063ZM10.3208 2.71421L10.8174 3.58217C10.9154 3.52613 11.1171 3.3988 11.2628 3.16181C11.4547 2.84968 11.4856 2.4459 11.2961 2.0912L10.4141 2.56243L9.5321 3.03366C9.46566 2.90932 9.4163 2.74594 9.42427 2.55788C9.43213 2.37214 9.49336 2.22112 9.55904 2.11429C9.67364 1.92789 9.81526 1.85133 9.82417 1.84624L10.3208 2.71421ZM10.4141 2.56243L11.2961 2.0912L11.2559 2.01585L10.3739 2.48709L9.49184 2.95832L9.5321 3.03366L10.4141 2.56243ZM10.3739 2.48709L10.8274 1.59586L10.6839 1.52282L10.2303 2.41405L9.77678 3.30527L9.92029 3.37831L10.3739 2.48709ZM10.2303 2.41405L11.0069 3.04407L11.0699 2.96642L10.2933 2.33639L9.51676 1.70636L9.45376 1.78402L10.2303 2.41405Z" fill="black"/>
</g>
</svg>
